<svg width="120" height="120" viewBox="0 0 120 120" fill="none" xmlns="http://www.w3.org/2000/svg">
<path d="M59.5234 7C30.5572 7 7 30.5572 7 59.5234C7 88.4897 30.5572 112.047 59.5234 112.047C88.4897 112.047 112.047 88.4897 112.047 59.5234C112.047 30.5572 88.4897 7 59.5234 7ZM59.5234 108.362C32.5562 108.362 10.6845 86.4907 10.6845 59.5234C10.6845 32.5562 32.5562 10.6845 59.5234 10.6845C86.4907 10.6845 108.362 32.5562 108.362 59.5234C108.362 86.4907 86.4907 108.362 59.5234 108.362Z" fill="#665F20"/>
<path d="M85.9677 42.6036L68.1855 59.5234L85.9677 76.4433C86.4442 75.7927 86.7491 75.0697 86.8823 74.2744V44.7724C86.7491 43.9771 86.4442 43.2541 85.9677 42.6036Z" fill="#665F20"/>
<path d="M59.5233 67.7678L52.2066 60.8039L34.4375 77.7107C35.2739 78.2617 36.1928 78.536 37.1943 78.5338H81.8523C82.8538 78.536 83.7728 78.2617 84.6091 77.7107L66.84 60.8039L59.5233 67.7678Z" fill="#665F20"/>
<path d="M33.0786 42.6036C32.6022 43.2542 32.2973 43.9771 32.1641 44.7724V74.2744C32.2973 75.0697 32.6022 75.7927 33.0786 76.4433L50.8608 59.5234L33.0786 42.6036Z" fill="#665F20"/>
<path d="M52.2066 58.243L59.5233 65.22L84.6091 41.3362C83.7728 40.7852 82.8538 40.5109 81.8523 40.5131H37.1943C36.1928 40.5109 35.2739 40.7852 34.4375 41.3362L52.2066 58.243Z" fill="#665F20"/>
</svg>
