<svg width="448" height="51" viewBox="0 0 448 51" fill="none" xmlns="http://www.w3.org/2000/svg">
<path d="M1.15625 50.1094C0.5625 50.1094 0.214843 49.7578 0.109374 49.0625C0.0390613 48.7891 0 48.5977 0 48.4844C0.0429687 48.3789 0.0624998 48.2734 0.0624998 48.1719C0.0624998 48.0664 0.0624998 47.9609 0.0624998 47.8594C0.125 46.8164 0.453125 45.6133 1.04688 44.25C1.64063 42.8828 2.375 41.4922 3.25 40.0781C4.125 38.6719 5.02734 37.3477 5.95313 36.1094C6.88281 34.8672 7.67188 33.8633 8.32813 33.0938C8.57813 32.8125 8.80469 32.5 9 32.1563C9.1875 31.8047 9.36719 31.4336 9.53125 31.0469C10.125 29.4453 10.6445 27.7969 11.0938 26.1094C11.5508 24.4141 11.9414 22.6875 12.2656 20.9375C12.2969 20.8047 12.3281 20.6563 12.3594 20.5C12.3984 20.3438 12.4375 20.1953 12.4688 20.0469C12.5 19.8828 12.5234 19.7188 12.5469 19.5625C12.5664 19.3984 12.5937 19.2461 12.625 19.1094C12.6953 18.8281 12.9062 18.6875 13.25 18.6875C13.6016 18.7305 13.7812 18.9063 13.7812 19.2188C13.7812 19.3555 13.7812 19.4766 13.7812 19.5781C13.7812 19.6836 13.7812 19.7891 13.7812 19.8906C13.7812 20.0391 13.7695 20.1641 13.75 20.2656C13.7266 20.3711 13.7031 20.4766 13.6719 20.5781C13.4922 21.6953 13.2734 22.8125 13.0156 23.9375C12.7539 25.0547 12.4844 26.168 12.2031 27.2813C12.1719 27.418 12.1328 27.5391 12.0938 27.6406C12.0625 27.7461 12.0313 27.8711 12 28.0156C11.8945 28.2266 11.8789 28.5234 11.9531 28.9063C12.2969 28.7305 12.5547 28.5547 12.7344 28.375C12.8359 28.2734 12.9414 28.168 13.0469 28.0625C13.1484 27.9609 13.2539 27.8711 13.3594 27.7969C13.7109 27.4844 14.2656 27.0078 15.0156 26.3594C15.7656 25.7148 16.582 25.0156 17.4688 24.2656C18.3633 23.5156 19.1914 22.8555 19.9531 22.2813C20.7227 21.7109 21.2852 21.3516 21.6406 21.2031C21.6719 21.2031 21.7031 21.1875 21.7344 21.1563C21.7344 21.1563 21.7539 21.1563 21.7969 21.1563C22.0039 21.1563 22.1953 21.2969 22.375 21.5781C22.5078 21.8203 22.4883 22.0273 22.3125 22.2031L21.7969 22.6719C20.9531 23.2969 19.9258 24.0859 18.7188 25.0313C17.5195 25.9688 16.3008 26.9805 15.0625 28.0625C13.8203 29.1484 12.7227 30.2266 11.7656 31.2969C10.8047 32.3594 10.1523 33.3203 9.79687 34.1875C8.89062 36.6641 7.92187 39.1094 6.89062 41.5156C5.85937 43.9297 4.64844 46.2539 3.25 48.4844C3.04297 48.8359 2.75781 49.1953 2.39062 49.5625C2.02734 49.9258 1.61719 50.1094 1.15625 50.1094ZM1.6875 47.9687C1.85547 47.9687 1.96094 47.9141 2 47.8125C3.01172 46.4883 3.91406 44.9531 4.70312 43.2031C5.48437 41.4531 6.17187 39.7891 6.76562 38.2188C6.79687 38.1563 6.8125 38.0977 6.8125 38.0469C6.8125 37.9922 6.82812 37.9453 6.85937 37.9063C6.93359 37.7695 6.90234 37.6641 6.76562 37.5938C6.55859 37.6641 6.43359 37.7539 6.39062 37.8594C5.35156 39.3281 4.375 40.8633 3.46875 42.4687C2.55469 44.0703 1.90234 45.7656 1.51562 47.5469C1.45312 47.7539 1.51172 47.8945 1.6875 47.9687ZM13.4062 15.8594C13.1328 15.9023 12.9141 15.8203 12.75 15.6094C12.5937 15.3906 12.5156 15.1484 12.5156 14.875C12.4844 14.2422 12.7812 13.9219 13.4062 13.9219C13.6875 13.9219 13.9297 14 14.1406 14.1563C14.3477 14.3125 14.4531 14.5156 14.4531 14.7656C14.4531 15.0469 14.3477 15.3047 14.1406 15.5313C13.9297 15.75 13.6875 15.8594 13.4062 15.8594ZM22.2695 30.8906C20.832 30.8906 19.9414 30.2461 19.5977 28.9531C19.4961 28.6719 19.4063 28.375 19.332 28.0625C19.2617 27.75 19.2383 27.4531 19.2695 27.1719C19.2383 26.7266 19.2695 26.3086 19.3633 25.9219C19.4492 25.5391 19.543 25.1523 19.6445 24.7656C19.957 23.9336 20.3828 23.0391 20.9258 22.0781C21.4648 21.1094 22.1133 20.2617 22.8633 19.5313C23.6133 18.793 24.4414 18.3555 25.3477 18.2188C25.4492 18.2188 25.5234 18.2031 25.5664 18.1719C25.5977 18.1719 25.6289 18.1719 25.6602 18.1719C25.6992 18.1719 25.7383 18.1719 25.7695 18.1719C26.2891 18.1719 26.6953 18.3516 26.9883 18.7031C27.2891 19.0469 27.4101 19.5156 27.3476 20.1094C27.1992 20.9453 26.7891 21.8086 26.1133 22.7031C25.4336 23.5898 24.6367 24.3398 23.7227 24.9531C22.8164 25.5586 21.9453 25.9141 21.1133 26.0156C20.8633 26.0898 20.7226 26.25 20.6914 26.5C20.5547 27.0547 20.6055 27.6641 20.8476 28.3281C20.9492 28.9219 21.1484 29.2734 21.4414 29.375C21.7422 29.4805 22.1367 29.5313 22.6289 29.5313C23.6797 29.3242 24.7539 28.8672 25.8477 28.1563C26.9492 27.4375 27.8828 26.7266 28.6445 26.0156C28.9648 25.7461 29.2851 25.4531 29.5977 25.1406C29.9101 24.8203 30.2227 24.5234 30.5352 24.25C30.8164 23.9688 31.1133 23.6836 31.4258 23.3906C31.7383 23.0898 32.0508 22.7969 32.3633 22.5156C32.4336 22.4453 32.5234 22.3672 32.6289 22.2813C32.7305 22.1875 32.8203 22.1094 32.8945 22.0469C32.9648 21.9766 33.043 21.8984 33.1289 21.8125C33.2109 21.7188 33.2891 21.6406 33.3633 21.5781C33.5391 21.4766 33.6797 21.4219 33.7851 21.4219C33.918 21.4219 34.0391 21.4766 34.1445 21.5781C34.4258 21.8203 34.4805 22.0781 34.3164 22.3594C34.2734 22.4648 34.1328 22.6367 33.8945 22.875C33.2578 23.543 32.4648 24.3281 31.5195 25.2344C30.582 26.1406 29.5703 27.0273 28.4883 27.8906C27.4141 28.7461 26.3359 29.4609 25.2539 30.0313C24.168 30.6055 23.1758 30.8906 22.2695 30.8906ZM21.7852 24.4531C22.2422 24.2031 22.793 23.8398 23.4414 23.3594C24.0859 22.8711 24.6602 22.3398 25.1602 21.7656C25.668 21.1836 25.9258 20.6094 25.9258 20.0469C25.8945 19.7031 25.7383 19.5703 25.457 19.6406C24.8945 19.7031 24.332 20 23.7695 20.5313C23.2148 21.0547 22.7305 21.6484 22.3164 22.3125C21.8984 22.9687 21.5859 23.5781 21.3789 24.1406C21.3789 24.3203 21.4102 24.4063 21.4727 24.4063C21.6484 24.4688 21.7539 24.4844 21.7852 24.4531ZM31.3828 37.2813C31.1016 37.2813 30.8203 37.1914 30.5391 37.0156C30.125 36.7422 29.8633 36.4141 29.7578 36.0313C29.6562 35.6445 29.6328 35.2227 29.6953 34.7656C29.8008 34.2734 30.0664 33.707 30.4922 33.0625C30.9102 32.418 31.3789 31.7969 31.8984 31.2031C32.418 30.6094 32.8906 30.1797 33.3203 29.9063C33.6953 29.5859 33.9453 29.25 34.0703 28.9063C34.1953 28.5547 34.2578 28.1328 34.2578 27.6406C34.2266 26.8398 34.1523 26.0586 34.0391 25.2969C33.9336 24.5273 33.7969 23.7422 33.6328 22.9375C33.5586 22.5859 33.5 22.2461 33.4609 21.9219C33.4297 21.5898 33.3984 21.2461 33.3672 20.8906C33.293 19.7031 33.5078 18.6836 34.0078 17.8281C34.5156 16.9766 35.2305 16.2148 36.1484 15.5469C36.668 15.2344 37.2031 15.0781 37.7578 15.0781C38.0391 15.0781 38.2656 15.1016 38.4453 15.1406C38.6211 15.1719 38.8125 15.293 39.0234 15.5C39.1563 15.6367 39.1992 15.793 39.1484 15.9687C39.0938 16.1484 38.9844 16.2656 38.8203 16.3281C38.7773 16.3711 38.668 16.3906 38.4922 16.3906C37.5234 16.3906 36.668 16.7422 35.9297 17.4375C35.1992 18.1367 34.7969 18.9766 34.7266 19.9531C34.6953 20.0898 34.6797 20.2305 34.6797 20.375C34.6797 20.5117 34.6797 20.6484 34.6797 20.7812C34.6797 20.9297 34.6836 21.0742 34.6953 21.2187C34.7148 21.3555 34.7422 21.4922 34.7734 21.625C34.9492 22.5625 35.1172 23.4961 35.2734 24.4219C35.4297 25.3516 35.543 26.2891 35.6172 27.2344C35.6172 27.2656 35.7031 27.4219 35.8828 27.7031C36.1953 27.5273 36.4531 27.3711 36.6641 27.2344L44.2578 21.8906C44.4336 21.8203 44.5898 21.7148 44.7266 21.5781C44.9023 21.4766 45.0586 21.4219 45.1953 21.4219C45.3398 21.4219 45.4648 21.4766 45.5703 21.5781C45.8828 21.8516 45.918 22.1094 45.6797 22.3594C45.5313 22.5703 45.25 22.8281 44.8359 23.1406C44.1367 23.6328 43.4531 24.1172 42.7891 24.5937C42.1328 25.0625 41.4688 25.5391 40.8047 26.0156L36.4609 29.1094C35.8672 29.5273 35.5156 30.0898 35.4141 30.7969C35.3711 31.5273 35.1719 32.3984 34.8203 33.4062C34.4766 34.4141 34.0078 35.3125 33.4141 36.0938C32.8203 36.8828 32.1406 37.2813 31.3828 37.2813ZM31.4766 35.8125C31.625 35.8125 31.7461 35.7578 31.8516 35.6563C32.3398 35.2695 32.7578 34.7031 33.1016 33.9531C33.4531 33.2031 33.6484 32.4141 33.6797 31.5781C32.4609 32.4844 31.5859 33.582 31.0547 34.875C31.0234 35.0078 31.0234 35.1289 31.0547 35.2344C31.0547 35.4102 31.1094 35.5508 31.2109 35.6563C31.2852 35.7578 31.375 35.8125 31.4766 35.8125ZM44.0977 36.8125C43.4414 36.8125 43 36.4414 42.7695 35.7031C42.543 34.9727 42.4258 34.3125 42.4258 33.7188C42.4258 32.043 42.6406 30.1836 43.0664 28.1406C43.4805 26.1016 43.9922 24.0859 44.5977 22.0938C45.2109 20.1055 45.793 18.3242 46.3477 16.75C46.5234 16.2617 46.6914 15.7969 46.8477 15.3594C47.0039 14.9219 47.168 14.4805 47.3477 14.0313C47.4922 13.6484 47.5391 13.375 47.4883 13.2188C47.4336 13.0625 47.2461 12.9844 46.9258 12.9844H46.5195C46.1641 13.0156 45.8086 13.0547 45.457 13.0938C45.1133 13.125 44.7617 13.1797 44.4102 13.25C44.0664 13.2813 43.7109 13.3242 43.3477 13.375C42.9844 13.4297 42.625 13.4688 42.2695 13.5C42.0625 13.543 41.8437 13.5781 41.6133 13.6094C41.3867 13.6406 41.168 13.6563 40.957 13.6563C40.6758 13.6563 40.4844 13.6406 40.3789 13.6094C40.2148 13.5781 40.0937 13.4766 40.0195 13.2969C39.9492 12.9453 40.0352 12.75 40.2852 12.7188C40.4219 12.6875 40.543 12.6563 40.6445 12.625C40.75 12.586 40.8555 12.5469 40.957 12.5156C41.1055 12.4766 41.2383 12.4492 41.3633 12.4375C41.4805 12.418 41.6055 12.3906 41.7383 12.3594C42.2305 12.2891 42.707 12.2149 43.1758 12.1406C43.6523 12.0703 44.1211 12.0156 44.582 11.9844C45.0586 11.9141 45.5273 11.8516 45.9883 11.7969C46.4453 11.7461 46.8984 11.7031 47.3477 11.6719C47.9727 11.6406 48.4102 11.3438 48.6602 10.7813L50.0664 7.64063C50.2109 7.4336 50.3359 7.22657 50.4414 7.01563C50.543 6.8086 50.6641 6.59376 50.8008 6.37501C50.9023 6.16797 51.0195 5.96094 51.1445 5.75001C51.2695 5.54297 51.3984 5.33594 51.5352 5.125C51.918 4.5 52.2891 4.1875 52.6445 4.1875C52.8516 4.1875 53.0078 4.30859 53.1133 4.54688C53.1836 4.90235 53.0977 5.28907 52.8477 5.70313C52.5664 6.40235 52.2578 7.10157 51.9258 7.79688C51.6016 8.4961 51.2617 9.19532 50.9102 9.89063C50.8789 9.96484 50.8398 10.0547 50.8008 10.1563C50.7695 10.2617 50.7383 10.3516 50.707 10.4219C50.6016 10.6328 50.5508 10.875 50.5508 11.1563C50.6836 11.1875 50.8047 11.2148 50.9102 11.2344C51.0117 11.246 51.1172 11.25 51.2226 11.25C51.3672 11.25 51.4726 11.2344 51.5351 11.2031C51.6055 11.2031 51.6602 11.2031 51.6914 11.2031C51.7305 11.2031 51.7695 11.2031 51.8008 11.2031C52.5273 11.1328 53.2851 11.0547 54.0664 10.9688C54.8555 10.875 55.6914 10.7969 56.5664 10.7344C57.4414 10.6641 58.2695 10.5938 59.0508 10.5313C59.8398 10.4609 60.6016 10.3867 61.332 10.3125H63.2226C63.4609 10.3125 63.6016 10.4844 63.6445 10.8281C63.6445 11.1094 63.5391 11.2891 63.332 11.3594C63.1836 11.3906 63.0586 11.418 62.957 11.4375C62.8516 11.4609 62.7461 11.4688 62.6445 11.4688C62.5391 11.5 62.4336 11.5156 62.332 11.5156C62.2266 11.5156 62.1015 11.5313 61.957 11.5625L50.707 12.5625C49.9336 12.6367 49.4258 12.9844 49.1758 13.6094C48.8633 14.2774 48.4883 15.2305 48.0508 16.4688C47.6211 17.7109 47.168 19.0469 46.6914 20.4844C46.2226 21.9141 45.793 23.2734 45.4101 24.5625C45.0234 25.8555 44.7461 26.8828 44.582 27.6406C44.3633 28.5156 44.1914 29.3828 44.0664 30.2344C43.9492 31.0899 43.8555 31.9766 43.7851 32.8906C43.7539 33.2656 43.7266 33.6719 43.707 34.1094C43.6952 34.5469 43.8789 34.9219 44.2539 35.2344C44.6367 35.2031 44.9883 35.0313 45.3008 34.7188C45.4453 34.5391 45.5742 34.375 45.6914 34.2188C45.8164 34.0625 45.9492 33.9141 46.0976 33.7813C46.6484 33.0859 47.3164 32.1836 48.0976 31.0781C48.8867 29.9766 49.6953 28.8516 50.5195 27.7031C51.3398 26.5469 52.1015 25.5 52.8008 24.5625C53.4961 23.6172 54.039 22.9492 54.4258 22.5625C54.4883 22.4609 54.5703 22.3555 54.6758 22.25C54.7773 22.1484 54.8672 22.043 54.9414 21.9375C55.1172 21.7617 55.3242 21.6211 55.5664 21.5156C55.6054 21.5156 55.6445 21.5 55.6758 21.4688C55.707 21.4688 55.7226 21.4688 55.7226 21.4688C55.7226 21.4688 55.7422 21.4688 55.7851 21.4688C55.8164 21.4688 55.9336 21.5078 56.1445 21.5781C56.4258 21.7891 56.4765 22.0469 56.3008 22.3594C56.3008 22.4649 56.2461 22.5703 56.1445 22.6719C55.6211 23.2969 54.9336 24.1875 54.082 25.3438C53.2265 26.5 52.4297 27.5859 51.6914 28.5938C50.8242 29.7813 49.9336 30.9805 49.0195 32.1875C48.1133 33.3828 47.2422 34.4727 46.4102 35.4531C46.1602 35.7656 45.8164 36.0664 45.3789 36.3594C44.9492 36.6602 44.5234 36.8125 44.0977 36.8125ZM56.1562 30.8906C54.7187 30.8906 53.8281 30.2461 53.4844 28.9531C53.3828 28.6719 53.293 28.375 53.2187 28.0625C53.1484 27.75 53.125 27.4531 53.1563 27.1719C53.125 26.7266 53.1563 26.3086 53.25 25.9219C53.3359 25.5391 53.4297 25.1523 53.5313 24.7656C53.8438 23.9336 54.2695 23.0391 54.8125 22.0781C55.3516 21.1094 56 20.2617 56.75 19.5313C57.5 18.793 58.3281 18.3555 59.2344 18.2188C59.3359 18.2188 59.4102 18.2031 59.4531 18.1719C59.4844 18.1719 59.5156 18.1719 59.5469 18.1719C59.5859 18.1719 59.625 18.1719 59.6562 18.1719C60.1758 18.1719 60.582 18.3516 60.875 18.7031C61.1758 19.0469 61.2969 19.5156 61.2344 20.1094C61.0859 20.9453 60.6758 21.8086 60 22.7031C59.3203 23.5898 58.5234 24.3398 57.6094 24.9531C56.7031 25.5586 55.832 25.9141 55 26.0156C54.75 26.0898 54.6094 26.25 54.5781 26.5C54.4414 27.0547 54.4922 27.6641 54.7344 28.3281C54.8359 28.9219 55.0352 29.2734 55.3281 29.375C55.6289 29.4805 56.0234 29.5313 56.5156 29.5313C57.5664 29.3242 58.6406 28.8672 59.7344 28.1563C60.8359 27.4375 61.7695 26.7266 62.5312 26.0156C62.8516 25.7461 63.1719 25.4531 63.4844 25.1406C63.7969 24.8203 64.1094 24.5234 64.4219 24.25C64.7031 23.9688 65 23.6836 65.3125 23.3906C65.625 23.0898 65.9375 22.7969 66.25 22.5156C66.3203 22.4453 66.4102 22.3672 66.5156 22.2813C66.6172 22.1875 66.707 22.1094 66.7812 22.0469C66.8516 21.9766 66.9297 21.8984 67.0156 21.8125C67.0977 21.7188 67.1758 21.6406 67.25 21.5781C67.4258 21.4766 67.5664 21.4219 67.6719 21.4219C67.8047 21.4219 67.9258 21.4766 68.0312 21.5781C68.3125 21.8203 68.3672 22.0781 68.2031 22.3594C68.1601 22.4648 68.0195 22.6367 67.7812 22.875C67.1445 23.543 66.3516 24.3281 65.4062 25.2344C64.4687 26.1406 63.457 27.0273 62.375 27.8906C61.3008 28.7461 60.2227 29.4609 59.1406 30.0313C58.0547 30.6055 57.0625 30.8906 56.1562 30.8906ZM55.6719 24.4531C56.1289 24.2031 56.6797 23.8398 57.3281 23.3594C57.9727 22.8711 58.5469 22.3398 59.0469 21.7656C59.5547 21.1836 59.8125 20.6094 59.8125 20.0469C59.7812 19.7031 59.625 19.5703 59.3437 19.6406C58.7812 19.7031 58.2188 20 57.6563 20.5313C57.1016 21.0547 56.6172 21.6484 56.2031 22.3125C55.7852 22.9687 55.4727 23.5781 55.2656 24.1406C55.2656 24.3203 55.2969 24.4063 55.3594 24.4063C55.5352 24.4688 55.6406 24.4844 55.6719 24.4531ZM65.9414 32.5625C65.8047 32.5625 65.7148 32.5469 65.6758 32.5156C65.293 32.4141 65.0977 32.1523 65.0977 31.7344C65.0977 30.3398 65.2383 28.9531 65.5195 27.5781C65.8008 26.1953 66.1328 24.8398 66.5195 23.5156C66.6211 23.1641 66.8203 22.5156 67.1133 21.5781C67.4141 20.6328 67.7617 19.6016 68.1602 18.4844C68.5664 17.3711 68.9648 16.3867 69.3633 15.5313C69.7695 14.668 70.1133 14.168 70.3945 14.0313C70.6016 13.9609 70.707 13.9219 70.707 13.9219C70.7773 13.9219 70.8672 13.9766 70.9727 14.0781C71.0742 14.1836 71.1445 14.2734 71.1758 14.3437C71.2461 14.6562 71.2305 14.9023 71.1289 15.0781C70.9922 15.3203 70.8672 15.5625 70.7539 15.8125C69.8477 17.7305 69.082 19.7187 68.457 21.7812C67.832 23.8437 67.2891 25.9219 66.832 28.0156C66.8008 28.1523 66.8008 28.2734 66.832 28.375C66.832 28.5234 66.8164 28.625 66.7852 28.6875C66.8164 28.7305 66.9023 28.75 67.0508 28.75C67.1836 28.75 67.2695 28.6992 67.3008 28.5937C67.3711 28.4492 67.4258 28.3594 67.457 28.3281C67.6641 27.9453 67.8711 27.5703 68.082 27.2031C68.3008 26.8398 68.5117 26.4648 68.7227 26.0781C68.9297 25.6953 69.1367 25.3203 69.3477 24.9531C69.5547 24.5898 69.7852 24.2305 70.0352 23.875C70.4805 23.1797 70.9922 22.4648 71.5664 21.7344C72.1484 20.9961 72.7891 20.3828 73.4883 19.8906C73.6953 19.7891 73.8867 19.7344 74.0664 19.7344C74.5117 19.7344 74.8242 19.9805 75.0039 20.4687C75.1367 20.75 75.2148 21.0469 75.2383 21.3594C75.2578 21.6719 75.2461 21.9844 75.207 22.2969C75.207 22.5469 75.207 22.7773 75.207 22.9844C75.207 23.1953 75.1914 23.4023 75.1602 23.6094C75.1289 23.8203 75.1133 24.0312 75.1133 24.25C75.1133 24.4609 75.0898 24.668 75.0508 24.875C75.0508 24.9805 75.0508 25.0859 75.0508 25.1875C75.0508 25.293 75.0703 25.3984 75.1133 25.5C75.1133 25.6055 75.1133 25.7109 75.1133 25.8125C75.1133 25.918 75.1133 26.0078 75.1133 26.0781C75.1133 26.2891 75.2539 26.3906 75.5352 26.3906C75.5664 26.3594 75.5977 26.3437 75.6289 26.3437L76.6289 25.3906C76.7617 25.2578 76.9102 25.1211 77.0664 24.9844C77.2227 24.8398 77.3711 24.6992 77.5195 24.5625C77.6523 24.418 77.7891 24.2773 77.9258 24.1406C78.0703 23.9961 78.2148 23.8555 78.3633 23.7187C78.7773 23.4375 79.1055 23.2305 79.3477 23.0937C79.4922 23.0547 79.6055 23.0273 79.6914 23.0156C79.7734 22.9961 79.8359 22.9844 79.8789 22.9844C80.3672 22.9844 80.7148 23.2148 80.9258 23.6719C81.0586 23.8828 81.1484 24.0391 81.1914 24.1406C81.2227 24.2148 81.2422 24.293 81.2539 24.375C81.2734 24.4609 81.3047 24.5391 81.3476 24.6094C81.4805 24.9531 81.6523 25.25 81.8633 25.5C82.1445 25.8125 82.4414 25.9687 82.7539 25.9687C83.1055 25.9687 83.5078 25.8281 83.957 25.5469C84.4141 25.2656 84.7617 25.043 85.0039 24.875C85.5976 24.3867 86.1914 23.8828 86.7852 23.3594C87.3789 22.8281 87.957 22.3203 88.5195 21.8281C88.5508 21.7969 88.582 21.7656 88.6133 21.7344C88.6523 21.6953 88.6914 21.6406 88.7226 21.5781C89.0039 21.4023 89.1953 21.3125 89.3008 21.3125C89.5078 21.3125 89.664 21.4023 89.7695 21.5781C90.082 21.8906 90.0664 22.2187 89.7226 22.5625C89.5117 22.8437 89.2695 23.0898 88.9883 23.2969L85.8476 25.9687C85.3867 26.3555 84.7578 26.7422 83.957 27.125C83.6445 27.2617 83.2422 27.3281 82.7539 27.3281C81.8476 27.3281 81.1133 26.8906 80.5508 26.0156C80.4883 25.8828 80.418 25.7578 80.3476 25.6406C80.2734 25.5156 80.2226 25.3828 80.1914 25.2344C80.0859 24.9531 79.8945 24.7305 79.6133 24.5625C79.3711 24.6992 79.1445 24.8555 78.9258 25.0312C78.7148 25.2109 78.5273 25.3828 78.3633 25.5469C78.1836 25.7266 77.9922 25.918 77.7851 26.125C77.5742 26.3359 77.3828 26.5273 77.207 26.7031C77.0586 26.8398 76.918 26.9805 76.7851 27.125C76.6484 27.2617 76.5078 27.4023 76.3633 27.5469C76.082 27.8281 75.7461 28.0547 75.3633 28.2187C75.0898 28.293 74.957 28.3281 74.957 28.3281C74.6015 28.3281 74.3047 28.1523 74.0664 27.7969C73.8867 27.4219 73.7773 27.043 73.7383 26.6562C73.707 26.2734 73.6914 25.8711 73.6914 25.4531C73.7305 25.0703 73.7578 24.6797 73.7695 24.2812C73.7891 23.875 73.8008 23.4805 73.8008 23.0937C73.8008 22.9922 73.8047 22.875 73.8164 22.75C73.8359 22.625 73.8672 22.4961 73.9101 22.3594C73.9726 22.0781 73.8476 21.9023 73.5351 21.8281C73.3242 21.7969 73.1523 21.8711 73.0195 22.0469C72.9453 22.1836 72.8711 22.3047 72.8008 22.4062C72.7383 22.5117 72.668 22.6016 72.5976 22.6719C72.1367 23.1953 71.7266 23.7461 71.3633 24.3281C70.9961 24.9023 70.6367 25.4844 70.2851 26.0781C69.8672 26.8516 69.4492 27.6094 69.0351 28.3594C68.6172 29.1094 68.1953 29.8516 67.7695 30.5781C67.6015 30.8906 67.4414 31.1875 67.2851 31.4687C67.1289 31.75 66.9101 32.0117 66.6289 32.25C66.418 32.4609 66.1914 32.5625 65.9414 32.5625ZM106.906 37.2813C106.625 37.2813 106.344 37.1914 106.062 37.0156C105.648 36.7422 105.387 36.4141 105.281 36.0313C105.18 35.6445 105.156 35.2227 105.219 34.7656C105.324 34.2734 105.59 33.707 106.016 33.0625C106.434 32.418 106.902 31.7969 107.422 31.2031C107.941 30.6094 108.414 30.1797 108.844 29.9063C109.219 29.5859 109.469 29.25 109.594 28.9063C109.719 28.5547 109.781 28.1328 109.781 27.6406C109.75 26.8398 109.676 26.0586 109.563 25.2969C109.457 24.5273 109.32 23.7422 109.156 22.9375C109.082 22.5859 109.023 22.2461 108.984 21.9219C108.953 21.5898 108.922 21.2461 108.891 20.8906C108.816 19.7031 109.031 18.6836 109.531 17.8281C110.039 16.9766 110.754 16.2148 111.672 15.5469C112.191 15.2344 112.727 15.0781 113.281 15.0781C113.563 15.0781 113.789 15.1016 113.969 15.1406C114.145 15.1719 114.336 15.293 114.547 15.5C114.68 15.6367 114.723 15.793 114.672 15.9687C114.617 16.1484 114.508 16.2656 114.344 16.3281C114.301 16.3711 114.191 16.3906 114.016 16.3906C113.047 16.3906 112.191 16.7422 111.453 17.4375C110.723 18.1367 110.32 18.9766 110.25 19.9531C110.219 20.0898 110.203 20.2305 110.203 20.375C110.203 20.5117 110.203 20.6484 110.203 20.7812C110.203 20.9297 110.207 21.0742 110.219 21.2187C110.238 21.3555 110.266 21.4922 110.297 21.625C110.473 22.5625 110.641 23.4961 110.797 24.4219C110.953 25.3516 111.066 26.2891 111.141 27.2344C111.141 27.2656 111.227 27.4219 111.406 27.7031C111.719 27.5273 111.977 27.3711 112.188 27.2344L119.781 21.8906C119.957 21.8203 120.113 21.7148 120.25 21.5781C120.426 21.4766 120.582 21.4219 120.719 21.4219C120.863 21.4219 120.988 21.4766 121.094 21.5781C121.406 21.8516 121.441 22.1094 121.203 22.3594C121.055 22.5703 120.773 22.8281 120.359 23.1406C119.66 23.6328 118.977 24.1172 118.313 24.5937C117.656 25.0625 116.992 25.5391 116.328 26.0156L111.984 29.1094C111.391 29.5273 111.039 30.0898 110.938 30.7969C110.895 31.5273 110.695 32.3984 110.344 33.4062C110 34.4141 109.531 35.3125 108.938 36.0938C108.344 36.8828 107.664 37.2813 106.906 37.2813ZM107 35.8125C107.148 35.8125 107.27 35.7578 107.375 35.6563C107.863 35.2695 108.281 34.7031 108.625 33.9531C108.977 33.2031 109.172 32.4141 109.203 31.5781C107.984 32.4844 107.109 33.582 106.578 34.875C106.547 35.0078 106.547 35.1289 106.578 35.2344C106.578 35.4102 106.633 35.5508 106.734 35.6563C106.809 35.7578 106.898 35.8125 107 35.8125ZM119.621 36.8125C118.965 36.8125 118.523 36.4414 118.293 35.7031C118.066 34.9727 117.949 34.3125 117.949 33.7188C117.949 32.043 118.164 30.1836 118.59 28.1406C119.004 26.1016 119.516 24.0859 120.121 22.0938C120.734 20.1055 121.316 18.3242 121.871 16.75C122.047 16.2617 122.215 15.7969 122.371 15.3594C122.527 14.9219 122.691 14.4805 122.871 14.0313C123.016 13.6484 123.063 13.375 123.012 13.2188C122.957 13.0625 122.77 12.9844 122.449 12.9844H122.043C121.688 13.0156 121.332 13.0547 120.98 13.0938C120.637 13.125 120.285 13.1797 119.934 13.25C119.59 13.2813 119.234 13.3242 118.871 13.375C118.508 13.4297 118.148 13.4688 117.793 13.5C117.586 13.543 117.367 13.5781 117.137 13.6094C116.91 13.6406 116.691 13.6563 116.48 13.6563C116.199 13.6563 116.008 13.6406 115.902 13.6094C115.738 13.5781 115.617 13.4766 115.543 13.2969C115.473 12.9453 115.559 12.75 115.809 12.7188C115.945 12.6875 116.066 12.6563 116.168 12.625C116.273 12.586 116.379 12.5469 116.48 12.5156C116.629 12.4766 116.762 12.4492 116.887 12.4375C117.004 12.418 117.129 12.3906 117.262 12.3594C117.754 12.2891 118.23 12.2149 118.699 12.1406C119.176 12.0703 119.645 12.0156 120.105 11.9844C120.582 11.9141 121.051 11.8516 121.512 11.7969C121.969 11.7461 122.422 11.7031 122.871 11.6719C123.496 11.6406 123.934 11.3438 124.184 10.7813L125.59 7.64063C125.734 7.4336 125.859 7.22657 125.965 7.01563C126.066 6.8086 126.187 6.59376 126.324 6.37501C126.426 6.16797 126.543 5.96094 126.668 5.75001C126.793 5.54297 126.922 5.33594 127.059 5.125C127.441 4.5 127.812 4.1875 128.168 4.1875C128.375 4.1875 128.531 4.30859 128.637 4.54688C128.707 4.90235 128.621 5.28907 128.371 5.70313C128.09 6.40235 127.781 7.10157 127.449 7.79688C127.125 8.4961 126.785 9.19532 126.434 9.89063C126.402 9.96484 126.363 10.0547 126.324 10.1563C126.293 10.2617 126.262 10.3516 126.23 10.4219C126.125 10.6328 126.074 10.875 126.074 11.1563C126.207 11.1875 126.328 11.2148 126.434 11.2344C126.535 11.246 126.641 11.25 126.746 11.25C126.891 11.25 126.996 11.2344 127.059 11.2031C127.129 11.2031 127.184 11.2031 127.215 11.2031C127.254 11.2031 127.293 11.2031 127.324 11.2031C128.051 11.1328 128.809 11.0547 129.59 10.9688C130.379 10.875 131.215 10.7969 132.09 10.7344C132.965 10.6641 133.793 10.5938 134.574 10.5313C135.363 10.4609 136.125 10.3867 136.855 10.3125H138.746C138.984 10.3125 139.125 10.4844 139.168 10.8281C139.168 11.1094 139.063 11.2891 138.855 11.3594C138.707 11.3906 138.582 11.418 138.48 11.4375C138.375 11.4609 138.27 11.4688 138.168 11.4688C138.063 11.5 137.957 11.5156 137.855 11.5156C137.75 11.5156 137.625 11.5313 137.48 11.5625L126.23 12.5625C125.457 12.6367 124.949 12.9844 124.699 13.6094C124.387 14.2774 124.012 15.2305 123.574 16.4688C123.145 17.7109 122.691 19.0469 122.215 20.4844C121.746 21.9141 121.316 23.2734 120.934 24.5625C120.547 25.8555 120.27 26.8828 120.105 27.6406C119.887 28.5156 119.715 29.3828 119.59 30.2344C119.473 31.0899 119.379 31.9766 119.309 32.8906C119.277 33.2656 119.25 33.6719 119.23 34.1094C119.219 34.5469 119.402 34.9219 119.777 35.2344C120.16 35.2031 120.512 35.0313 120.824 34.7188C120.969 34.5391 121.098 34.375 121.215 34.2188C121.34 34.0625 121.473 33.9141 121.621 33.7813C122.172 33.0859 122.84 32.1836 123.621 31.0781C124.41 29.9766 125.219 28.8516 126.043 27.7031C126.863 26.5469 127.625 25.5 128.324 24.5625C129.02 23.6172 129.563 22.9492 129.949 22.5625C130.012 22.4609 130.094 22.3555 130.199 22.25C130.301 22.1484 130.391 22.043 130.465 21.9375C130.641 21.7617 130.848 21.6211 131.09 21.5156C131.129 21.5156 131.168 21.5 131.199 21.4688C131.23 21.4688 131.246 21.4688 131.246 21.4688C131.246 21.4688 131.266 21.4688 131.309 21.4688C131.34 21.4688 131.457 21.5078 131.668 21.5781C131.949 21.7891 132 22.0469 131.824 22.3594C131.824 22.4649 131.77 22.5703 131.668 22.6719C131.145 23.2969 130.457 24.1875 129.605 25.3438C128.75 26.5 127.953 27.5859 127.215 28.5938C126.348 29.7813 125.457 30.9805 124.543 32.1875C123.637 33.3828 122.766 34.4727 121.934 35.4531C121.684 35.7656 121.34 36.0664 120.902 36.3594C120.473 36.6602 120.047 36.8125 119.621 36.8125ZM130.633 32.9375C129.891 32.9375 129.367 32.5391 129.055 31.7344C128.879 31.2461 128.773 30.7578 128.742 30.2656C128.672 29.7773 128.672 29.3242 128.742 28.9063C128.953 27.3359 129.289 25.8242 129.758 24.375C130.227 22.9297 130.883 21.5391 131.727 20.2031C131.902 19.9336 132.094 19.668 132.305 19.4063C132.512 19.1367 132.734 18.8594 132.977 18.5781C133.184 18.4141 133.43 18.293 133.711 18.2188C133.75 18.1875 133.824 18.1719 133.93 18.1719C134.094 18.1719 134.23 18.2422 134.336 18.375C134.48 18.5859 134.5 18.793 134.398 19C134.324 19.1055 134.262 19.1953 134.211 19.2656C134.156 19.3398 134.117 19.3906 134.086 19.4219C133.387 20.0469 132.766 20.9219 132.227 22.0469C131.684 23.1641 131.227 24.3242 130.852 25.5313C130.484 26.7305 130.234 27.8047 130.102 28.75C129.922 29.6563 130.012 30.4961 130.367 31.2656C130.43 31.4336 130.57 31.5156 130.789 31.5156C130.852 31.5156 130.902 31.5 130.945 31.4688C131.289 31.3359 131.703 30.9844 132.195 30.4219C132.684 29.8594 133.172 29.2266 133.664 28.5156C134.152 27.7969 134.594 27.1172 134.992 26.4687C135.398 25.8242 135.687 25.3242 135.867 24.9688C135.93 24.8672 135.984 24.7617 136.039 24.6562C136.09 24.5547 136.137 24.4492 136.18 24.3438C136.25 24.2422 136.312 24.1367 136.367 24.0313C136.418 23.9297 136.477 23.8398 136.539 23.7656C136.684 23.5273 136.859 23.4063 137.07 23.4063C137.102 23.4063 137.117 23.4063 137.117 23.4063C137.117 23.4063 137.137 23.4063 137.18 23.4063C137.211 23.4375 137.242 23.4531 137.273 23.4531C137.625 23.5586 137.805 23.8242 137.805 24.25C137.762 24.4609 137.727 24.6797 137.695 24.9062C137.664 25.125 137.625 25.3594 137.586 25.6094C137.48 26.6953 137.621 27.6875 138.008 28.5937C138.391 29.4297 138.867 29.8438 139.43 29.8438C140.086 29.8438 140.621 29.5586 141.039 28.9844C141.465 28.4141 141.797 27.6875 142.039 26.8125C142.289 25.9375 142.453 25.0625 142.539 24.1875C142.621 23.3125 142.664 22.6016 142.664 22.0469C142.703 21.8711 142.742 21.7305 142.773 21.625C142.812 21.5234 142.918 21.4336 143.086 21.3594C143.156 21.3594 143.211 21.3438 143.242 21.3125C143.242 21.3125 143.25 21.3125 143.273 21.3125C143.293 21.3125 143.32 21.3125 143.352 21.3125C143.602 21.3125 143.809 21.4531 143.977 21.7344L144.352 22.25C144.734 22.7422 145.215 23.1094 145.789 23.3594C146.359 23.6016 146.945 23.7187 147.539 23.7187C147.852 23.7187 148.152 23.6953 148.445 23.6406C148.746 23.5898 149.039 23.4766 149.32 23.2969C149.496 23.2266 149.668 23.1367 149.836 23.0313C150.012 22.9297 150.188 22.8086 150.367 22.6719C150.543 22.5391 150.711 22.418 150.867 22.3125C151.024 22.1992 151.172 22.0898 151.32 21.9844C151.59 21.7773 151.797 21.6719 151.945 21.6719C152.121 21.6719 152.277 21.7461 152.414 21.8906C152.797 22.1641 152.711 22.543 152.149 23.0313C151.524 23.5938 150.836 24.0781 150.086 24.4844C149.336 24.8828 148.524 25.0781 147.649 25.0781C147.055 25.0781 146.461 24.9961 145.867 24.8281C145.274 24.6523 144.695 24.4375 144.133 24.1875C143.996 24.4375 143.891 24.7188 143.82 25.0313C143.789 25.168 143.762 25.3125 143.742 25.4688C143.73 25.625 143.703 25.7773 143.664 25.9219C143.527 26.9023 143.203 27.8984 142.695 28.9063C142.195 29.918 141.434 30.6172 140.414 31C140.141 31.1367 139.777 31.2031 139.32 31.2031C138.621 31.2031 138.016 30.918 137.508 30.3438C137.008 29.7734 136.668 29.168 136.492 28.5313C136.461 28.3672 136.418 28.2031 136.367 28.0469C136.312 27.8828 136.199 27.7461 136.023 27.6406C135.742 27.8203 135.547 28.0117 135.445 28.2188C135.371 28.3672 135.289 28.4922 135.195 28.5938C135.109 28.6992 135.039 28.8203 134.977 28.9531C134.621 29.3711 134.305 29.793 134.023 30.2188C133.887 30.4609 133.719 30.6836 133.523 30.8906C133.336 31.1016 133.152 31.3086 132.977 31.5156C132.664 31.8711 132.312 32.1992 131.93 32.5C131.543 32.793 131.109 32.9375 130.633 32.9375ZM152.152 30.4688C151.516 30.4688 150.953 30.2813 150.465 29.9063C149.984 29.5234 149.676 28.9805 149.527 28.2813C149.426 27.75 149.387 27.293 149.418 26.9063C149.492 26.1797 149.699 25.3359 150.043 24.375C150.395 23.418 150.871 22.5234 151.465 21.6875C152.059 20.8438 152.688 20.2969 153.356 20.0469C153.563 19.9453 153.785 19.8906 154.027 19.8906C154.348 19.9336 154.543 20.1094 154.606 20.4219C154.676 20.8398 154.574 21.0625 154.293 21.0938C153.699 21.1992 153.246 21.4453 152.934 21.8281C152.621 22.2148 152.324 22.6367 152.043 23.0938C151.551 24.0313 151.203 24.9219 150.996 25.7656C150.859 26.1523 150.793 26.6563 150.793 27.2813C150.793 28.293 151.141 28.8867 151.84 29.0625C152.254 29.0625 152.606 29.0117 152.887 28.9063C153.168 28.8047 153.426 28.543 153.668 28.125C154.02 27.5625 154.231 27.0078 154.293 26.4531C154.363 25.8906 154.207 25.3125 153.824 24.7188C153.613 24.3672 153.441 24.0156 153.309 23.6719C153.234 23.4961 153.254 23.3281 153.371 23.1719C153.496 23.0156 153.645 22.918 153.824 22.875H155.449C156.426 22.875 157.406 22.7188 158.387 22.4063C158.625 22.3359 158.863 22.2461 159.105 22.1406C159.355 22.0391 159.605 21.9531 159.855 21.8906C160.094 21.8203 160.328 21.7305 160.559 21.625C160.785 21.5234 161.02 21.4336 161.262 21.3594L162.105 21.1563C162.375 21.1563 162.598 21.2969 162.777 21.5781C162.953 21.9961 162.812 22.2734 162.355 22.4063C161.863 22.5859 161.375 22.7617 160.887 22.9375C160.406 23.1055 159.922 23.2773 159.434 23.4531C158.941 23.6328 158.441 23.7813 157.934 23.9063C157.434 24.0234 156.902 24.1172 156.34 24.1875C155.848 24.2617 155.578 24.3438 155.527 24.4375C155.473 24.5234 155.484 24.7891 155.559 25.2344C155.766 26.2461 155.641 27.2422 155.184 28.2188C154.84 28.9609 154.316 29.5742 153.621 30.0625C153.129 30.3359 152.641 30.4688 152.152 30.4688ZM160.059 33.9844C160.027 33.9844 160.004 33.9844 159.98 33.9844C159.961 33.9844 159.934 33.9844 159.902 33.9844C159.902 33.9531 159.867 33.9375 159.793 33.9375C159.449 33.832 159.242 33.5664 159.168 33.1406C159.168 33.0391 159.168 32.9336 159.168 32.8281C159.168 32.7266 159.152 32.6055 159.121 32.4688C159.121 32.3672 159.121 32.2617 159.121 32.1563C159.121 32.0547 159.137 31.9297 159.168 31.7813C159.512 29.4492 160.035 27.3398 160.73 25.4531C161.437 23.5703 162.246 21.5742 163.152 19.4688C163.215 19.3359 163.281 19.2109 163.355 19.0938C163.426 18.9687 163.5 18.8555 163.574 18.75C163.676 18.6367 163.832 18.5781 164.043 18.5781H164.199C164.48 18.6953 164.598 18.8711 164.559 19.1094C164.559 19.4219 164.469 19.8086 164.293 20.2656C164.082 20.7891 163.863 21.3125 163.637 21.8438C163.418 22.3672 163.184 22.8867 162.934 23.4063C162.59 24.2109 162.277 25.0117 161.996 25.8125C161.715 26.6172 161.469 27.418 161.262 28.2188C161.187 28.5 161.125 28.7813 161.074 29.0625C161.019 29.3438 161.066 29.625 161.215 29.9063H161.152L161.215 29.9531L163.246 25.8125C163.672 25.0117 164.199 24.1992 164.824 23.375C165.449 22.5547 166.16 21.9023 166.965 21.4219C167.184 21.3086 167.394 21.25 167.605 21.25C168.019 21.25 168.348 21.4648 168.59 21.8906C168.66 21.9531 168.723 22.0391 168.777 22.1406C168.828 22.2461 168.871 22.3555 168.902 22.4688C168.941 22.6797 169.031 22.8867 169.168 23.0937C169.551 23.7187 169.973 24.0313 170.434 24.0313C170.746 24.0313 171.125 23.8906 171.574 23.6094C172.031 23.3281 172.496 23.0156 172.965 22.6719C173.434 22.3203 173.809 22.0234 174.09 21.7812C174.297 21.5742 174.527 21.3984 174.777 21.25C174.809 21.2188 174.875 21.2031 174.98 21.2031C175.125 21.2031 175.266 21.2578 175.402 21.3594C175.609 21.5703 175.66 21.7773 175.559 21.9844C175.422 22.2656 175.266 22.4961 175.09 22.6719C174.777 22.9844 174.34 23.3594 173.777 23.7969C173.223 24.2344 172.652 24.6094 172.059 24.9219C171.465 25.2344 170.922 25.3906 170.434 25.3906C169.559 25.3906 168.84 25.0117 168.277 24.25C168.215 24.1367 168.145 24.0273 168.074 23.9219C168 23.8203 167.926 23.7148 167.855 23.6094C167.824 23.5078 167.77 23.4023 167.699 23.2969C167.637 23.1953 167.566 23.0898 167.496 22.9844C167.246 22.9844 167.059 23.0391 166.934 23.1406C166.816 23.2461 166.707 23.3711 166.605 23.5156C166.113 24.0078 165.676 24.5391 165.293 25.1094C164.906 25.6836 164.559 26.2656 164.246 26.8594C164.035 27.2773 163.828 27.6992 163.621 28.125C163.41 28.543 163.219 28.9609 163.043 29.375C162.832 29.793 162.625 30.2148 162.418 30.6406C162.207 31.0586 161.98 31.4922 161.73 31.9375C161.594 32.2188 161.449 32.4922 161.293 32.75C161.137 33.0117 160.969 33.2813 160.793 33.5625C160.613 33.8438 160.371 33.9844 160.059 33.9844ZM175.137 43.7188C174.613 43.7188 174.266 43.4219 174.09 42.8281C174.027 42.6602 174 42.4766 174.012 42.2813C174.031 42.0938 174.059 41.8945 174.09 41.6875C174.191 41.0195 174.387 40.3906 174.668 39.7969C174.949 39.2031 175.281 38.625 175.668 38.0625C176.332 37.0508 177.031 36.0703 177.762 35.125C178.488 34.1875 179.238 33.2656 180.012 32.3594C180.113 32.2578 180.187 32.168 180.23 32.0938C180.262 32.0313 180.328 31.9492 180.434 31.8438C181.34 30.7617 181.457 29.5898 180.793 28.3281C180.625 27.9766 180.426 27.7461 180.199 27.6406C179.969 27.5391 179.66 27.4844 179.277 27.4844C178.859 27.5586 178.473 27.6641 178.121 27.7969C177.879 27.8398 177.621 27.9492 177.34 28.125C177.309 28.1563 177.219 28.1719 177.074 28.1719C176.906 28.1719 176.734 28.0859 176.559 27.9063C176.309 27.625 176.309 27.3672 176.559 27.125C176.84 26.7422 177.137 26.3906 177.449 26.0781C178.531 24.8594 179.531 23.5625 180.449 22.1875C181.375 20.8047 182.137 19.3242 182.73 17.75C182.769 17.6055 182.738 17.4805 182.637 17.375C182.531 17.2734 182.426 17.2422 182.324 17.2813C182.176 17.3125 182.043 17.3555 181.918 17.4063C181.801 17.4609 181.672 17.5 181.527 17.5313C181.215 17.6055 180.938 17.7149 180.699 17.8594C180.281 18.0274 179.746 18.3399 179.09 18.7969C178.441 19.2461 177.824 19.7149 177.23 20.2031C176.645 20.6953 176.16 21.0781 175.777 21.3594C175.527 21.5703 175.262 21.6719 174.98 21.6719C174.813 21.6719 174.676 21.6055 174.574 21.4688C174.395 21.0859 174.48 20.7344 174.824 20.4219C175.207 20.0391 175.734 19.5938 176.402 19.0938C177.066 18.5859 177.781 18.0781 178.543 17.5781C179.313 17.0703 180.074 16.6484 180.824 16.3125C181.574 15.9805 182.207 15.8125 182.73 15.8125C183.324 15.8125 183.738 16.0313 183.98 16.4688C184.23 16.9063 184.234 17.5078 183.996 18.2656C183.965 18.4453 183.902 18.6328 183.809 18.8281C183.723 19.0156 183.644 19.1992 183.574 19.375C183.5 19.5547 183.41 19.7344 183.309 19.9219C183.203 20.1094 183.121 20.293 183.059 20.4688C182.598 21.3438 182.098 22.1797 181.559 22.9688C181.016 23.75 180.449 24.543 179.855 25.3438C179.512 25.7617 179.613 26.043 180.168 26.1875C180.73 26.3242 181.168 26.5742 181.48 26.9375C181.793 27.3047 182.051 27.7305 182.262 28.2188C182.301 28.293 182.328 28.375 182.34 28.4688C182.359 28.5547 182.387 28.625 182.418 28.6875C182.418 28.8672 182.488 29.0078 182.637 29.1094C182.844 29.1524 183.035 29.0859 183.215 28.9063C183.277 28.8359 183.344 28.7656 183.418 28.7031C183.488 28.6328 183.559 28.5586 183.621 28.4844C184.809 27.4024 185.984 26.3281 187.152 25.2656C188.328 24.2031 189.527 23.1328 190.746 22.0469C190.891 21.9024 191.043 21.7774 191.199 21.6719C191.356 21.5703 191.535 21.5 191.746 21.4688H191.902C192.035 21.4688 192.141 21.5078 192.215 21.5781C192.422 21.7149 192.496 21.9219 192.434 22.2031C192.391 22.4141 192.297 22.5781 192.152 22.7031C192.016 22.8203 191.863 22.9492 191.699 23.0938C191.344 23.4375 190.988 23.7734 190.637 24.0938C190.293 24.4063 189.926 24.7188 189.543 25.0313C189.156 25.3438 188.781 25.6563 188.418 25.9688C188.051 26.2813 187.691 26.6172 187.34 26.9688L183.574 30.4688C183.188 30.8242 182.879 31.2188 182.652 31.6563C182.434 32.0938 182.234 32.5586 182.059 33.0469C181.496 34.9297 180.762 36.7266 179.856 38.4375C178.949 40.1445 177.797 41.6953 176.402 43.0938C176.223 43.3008 175.941 43.4922 175.559 43.6719C175.496 43.7031 175.355 43.7188 175.137 43.7188ZM175.824 41.6875C175.895 41.6875 175.984 41.6328 176.09 41.5313C177.66 39.75 178.797 37.7383 179.496 35.5C178.797 36.3008 178.113 37.1016 177.449 37.9063C176.781 38.707 176.238 39.5977 175.824 40.5781C175.793 40.6797 175.754 40.7852 175.715 40.8906C175.684 41.0039 175.652 41.1289 175.621 41.2656C175.621 41.4414 175.637 41.5469 175.668 41.5781C175.738 41.6484 175.793 41.6875 175.824 41.6875ZM192.012 30.4688C191.375 30.4688 190.813 30.2813 190.324 29.9063C189.844 29.5234 189.535 28.9805 189.387 28.2813C189.285 27.75 189.246 27.293 189.277 26.9063C189.352 26.1797 189.559 25.3359 189.902 24.375C190.254 23.418 190.731 22.5234 191.324 21.6875C191.918 20.8438 192.547 20.2969 193.215 20.0469C193.422 19.9453 193.645 19.8906 193.887 19.8906C194.207 19.9336 194.402 20.1094 194.465 20.4219C194.535 20.8398 194.434 21.0625 194.152 21.0938C193.559 21.1992 193.105 21.4453 192.793 21.8281C192.48 22.2148 192.184 22.6367 191.902 23.0938C191.41 24.0313 191.063 24.9219 190.856 25.7656C190.719 26.1523 190.652 26.6563 190.652 27.2813C190.652 28.293 191 28.8867 191.699 29.0625C192.113 29.0625 192.465 29.0117 192.746 28.9063C193.027 28.8047 193.285 28.543 193.527 28.125C193.879 27.5625 194.09 27.0078 194.152 26.4531C194.223 25.8906 194.067 25.3125 193.684 24.7188C193.473 24.3672 193.301 24.0156 193.168 23.6719C193.094 23.4961 193.113 23.3281 193.23 23.1719C193.356 23.0156 193.504 22.918 193.684 22.875H195.309C196.285 22.875 197.266 22.7188 198.246 22.4063C198.484 22.3359 198.723 22.2461 198.965 22.1406C199.215 22.0391 199.465 21.9531 199.715 21.8906C199.953 21.8203 200.187 21.7305 200.418 21.625C200.645 21.5234 200.879 21.4336 201.121 21.3594L201.965 21.1563C202.234 21.1563 202.457 21.2969 202.637 21.5781C202.813 21.9961 202.672 22.2734 202.215 22.4063C201.723 22.5859 201.234 22.7617 200.746 22.9375C200.266 23.1055 199.781 23.2773 199.293 23.4531C198.801 23.6328 198.301 23.7813 197.793 23.9063C197.293 24.0234 196.762 24.1172 196.199 24.1875C195.707 24.2617 195.438 24.3438 195.387 24.4375C195.332 24.5234 195.344 24.7891 195.418 25.2344C195.625 26.2461 195.5 27.2422 195.043 28.2188C194.699 28.9609 194.176 29.5742 193.481 30.0625C192.988 30.3359 192.5 30.4688 192.012 30.4688ZM199.809 32.5625C199.395 32.5625 199.148 32.3242 199.074 31.8438C199.043 31.7305 199.027 31.5 199.027 31.1563C199.133 30.25 199.309 29.3594 199.559 28.4844C199.801 27.6094 200.059 26.7344 200.34 25.8594C200.578 25.2031 200.816 24.5547 201.059 23.9063C201.309 23.2617 201.559 22.6055 201.809 21.9375C202.047 21.2734 202.285 20.6172 202.527 19.9688C202.777 19.3242 203.02 18.6719 203.262 18.0156C203.438 17.7656 203.641 17.3906 203.871 16.8906C204.098 16.3828 204.355 16.125 204.637 16.125C204.637 16.125 204.738 16.1641 204.949 16.2344C205.293 16.4453 205.375 16.7422 205.199 17.125L204.887 17.75C204.645 18.418 204.395 19.0859 204.137 19.75C203.875 20.4062 203.621 21.0703 203.371 21.7344C203.129 22.3906 202.875 23.0625 202.605 23.75C202.344 24.4297 202.078 25.1016 201.809 25.7656C201.766 25.9023 201.719 26.0469 201.668 26.2031C201.613 26.3594 201.559 26.5273 201.496 26.7031C201.348 26.9844 201.363 27.3203 201.543 27.7031C201.75 27.2461 202.129 26.6016 202.684 25.7656C203.246 24.9219 203.875 24.0469 204.574 23.1406C205.27 22.2344 205.969 21.4687 206.668 20.8437C207.363 20.2109 207.98 19.8906 208.512 19.8906C209.105 19.8906 209.484 20.1367 209.652 20.625C209.828 21.1172 209.953 21.5898 210.027 22.0469C210.059 22.2891 210.082 22.5117 210.106 22.7187C210.125 22.9297 210.152 23.1406 210.184 23.3594C210.184 23.5703 210.188 23.7773 210.199 23.9844C210.219 24.1953 210.25 24.4023 210.293 24.6094C210.324 25.2031 210.481 25.7461 210.762 26.2344C210.863 26.5156 211.074 26.6562 211.387 26.6562C211.457 26.6562 211.512 26.6367 211.543 26.5937C211.543 26.5937 211.547 26.5937 211.559 26.5937C211.578 26.5937 211.609 26.5937 211.652 26.5937C211.965 26.4922 212.262 26.3437 212.543 26.1562C212.824 25.9609 213.098 25.7422 213.371 25.5C213.621 25.293 213.848 25.0859 214.059 24.875C214.266 24.668 214.496 24.4375 214.746 24.1875C214.953 23.9805 215.168 23.7734 215.387 23.5625C215.613 23.3555 215.855 23.1484 216.105 22.9375C216.387 22.6875 216.621 22.4805 216.809 22.3125C216.996 22.1367 217.125 22.0117 217.199 21.9375C217.27 21.8672 217.34 21.7969 217.402 21.7344C217.473 21.6641 217.531 21.6094 217.574 21.5781C217.676 21.4766 217.797 21.4219 217.934 21.4219C218.066 21.4219 218.188 21.4766 218.293 21.5781C218.543 21.7891 218.613 22.0273 218.512 22.2969C218.406 22.5781 218.25 22.8242 218.043 23.0312C217.895 23.1797 217.621 23.4336 217.215 23.7969C216.816 24.1641 216.387 24.5625 215.918 25C215.449 25.4375 215.012 25.8359 214.605 26.1875C214.207 26.5312 213.937 26.7734 213.793 26.9062C213.168 27.5 212.469 27.8711 211.699 28.0156C211.668 28.0156 211.629 28.0156 211.59 28.0156C211.559 28.0156 211.527 28.0156 211.496 28.0156C211.422 28.0469 211.332 28.0625 211.231 28.0625C210.531 28.0625 209.973 27.6992 209.559 26.9687C209.246 26.375 209.051 25.7305 208.981 25.0312C208.938 24.75 208.906 24.4805 208.887 24.2187C208.875 23.9609 208.855 23.7031 208.824 23.4531C208.781 23.2148 208.746 22.9648 208.715 22.7031C208.684 22.4336 208.645 22.1797 208.606 21.9375C208.543 21.6562 208.422 21.5156 208.246 21.5156C208.11 21.5156 207.985 21.5703 207.871 21.6719C206.516 22.9023 205.324 24.2891 204.293 25.8281C203.262 27.3594 202.344 28.9453 201.543 30.5781C201.469 30.7266 201.387 30.875 201.293 31.0312C201.207 31.1875 201.137 31.3516 201.074 31.5156C201 31.6953 200.903 31.8555 200.778 32C200.66 32.1367 200.516 32.2734 200.34 32.4062C200.192 32.5117 200.02 32.5625 199.809 32.5625ZM216.207 28.5938C215.512 28.5938 215.125 28.1719 215.051 27.3281C215.051 26.5703 215.219 25.75 215.551 24.875C215.887 24 216.301 23.1641 216.801 22.3594C217.309 21.5586 217.824 20.8906 218.348 20.3594C218.492 20.1953 218.754 19.9688 219.129 19.6875C219.691 19.2305 220.27 19 220.863 19C221.383 19 221.91 19.2148 222.441 19.6406C222.711 19.8086 222.867 19.8906 222.91 19.8906C223.012 19.8906 223.168 19.75 223.379 19.4688C223.555 19.3047 223.723 19.1172 223.879 18.9063C224.035 18.6875 224.18 18.4766 224.316 18.2656C224.461 18.0586 224.613 17.8516 224.77 17.6406C224.926 17.4336 225.07 17.2266 225.207 17.0156C225.277 16.9453 225.348 16.8555 225.41 16.75C225.48 16.6484 225.555 16.543 225.629 16.4375C225.699 16.3672 225.762 16.2773 225.816 16.1719C225.867 16.0703 225.93 15.9844 226.004 15.9219C226.242 15.6719 226.449 15.5469 226.629 15.5469C226.629 15.5469 226.731 15.5859 226.941 15.6562C227.285 15.8672 227.371 16.2148 227.207 16.7031C227.164 16.8398 227.117 16.9609 227.066 17.0625C227.012 17.168 226.957 17.2734 226.895 17.375C226.746 17.625 226.621 17.8711 226.52 18.1094C226.207 18.7773 225.836 19.6016 225.41 20.5781C224.992 21.5586 224.637 22.5469 224.348 23.5469C224.055 24.5391 223.91 25.418 223.91 26.1875C223.91 26.5 224.012 26.6562 224.223 26.6562C224.324 26.6562 224.395 26.6367 224.426 26.5937C224.664 26.4922 224.898 26.3867 225.129 26.2812C225.355 26.1797 225.598 26.0586 225.848 25.9219C226.16 25.7148 226.477 25.4961 226.801 25.2656C227.133 25.0391 227.461 24.7812 227.785 24.5C228.023 24.3359 228.246 24.1484 228.457 23.9375C228.664 23.7187 228.871 23.5273 229.082 23.3594C229.465 22.9766 229.887 22.6055 230.348 22.25C230.418 22.1797 230.496 22.1094 230.582 22.0469C230.664 21.9766 230.742 21.9023 230.816 21.8281C230.887 21.7656 231.027 21.6641 231.238 21.5156C231.301 21.4844 231.348 21.4648 231.379 21.4531C231.418 21.4336 231.461 21.4219 231.504 21.4219C231.637 21.4219 231.758 21.4766 231.863 21.5781C232.102 21.7148 232.168 21.9766 232.066 22.3594C232.035 22.3906 232.02 22.418 232.02 22.4375C232.02 22.4609 232.004 22.4844 231.973 22.5156C231.93 22.5469 231.895 22.5859 231.863 22.625C231.832 22.6562 231.793 22.6875 231.754 22.7187C231.262 23.2109 230.567 23.8672 229.66 24.6875C228.754 25.5117 227.82 26.2578 226.863 26.9219C225.902 27.5781 225.055 27.9805 224.317 28.125C224.254 28.1562 224.098 28.1719 223.848 28.1719C222.973 28.1719 222.535 27.668 222.535 26.6562C222.535 25.9609 222.602 25.2617 222.738 24.5625C222.883 23.8672 223.043 23.168 223.223 22.4687C222.836 22.6367 222.574 22.8086 222.442 22.9844C222.367 23.0898 222.278 23.1953 222.176 23.2969C222.07 23.4023 221.981 23.4922 221.91 23.5625C221.317 24.2617 220.723 24.9336 220.129 25.5781C219.535 26.2266 218.902 26.8437 218.238 27.4375C217.996 27.6484 217.684 27.8906 217.301 28.1719C216.914 28.4531 216.551 28.5938 216.207 28.5938ZM216.676 26.7031C216.883 26.7031 217.039 26.6523 217.145 26.5469C217.988 25.8516 218.773 25.0859 219.504 24.25C220.23 23.4062 220.945 22.5469 221.645 21.6719C221.684 21.6406 221.723 21.6094 221.754 21.5781C221.785 21.5391 221.82 21.4844 221.863 21.4219C221.965 21.0703 221.895 20.8242 221.644 20.6875C221.371 20.5117 221.129 20.4219 220.91 20.4219C220.742 20.4219 220.523 20.4961 220.254 20.6406C219.992 20.7773 219.793 20.9141 219.66 21.0469C218.012 22.4766 216.98 24.3242 216.566 26.5938L216.629 26.6563C216.66 26.6563 216.676 26.6719 216.676 26.7031ZM231.914 31.3594C231.602 31.3594 231.512 31.1523 231.648 30.7344C231.648 30.7031 231.684 30.6523 231.758 30.5781L231.711 30.625C231.742 30.5625 231.773 30.5234 231.805 30.5C231.844 30.4805 231.883 30.4531 231.914 30.4219C231.953 30.3906 231.992 30.3672 232.023 30.3438C232.055 30.3242 232.09 30.2969 232.133 30.2656C232.371 30.0273 232.543 29.7656 232.648 29.4844L232.695 29.4219C232.765 29.3594 232.765 29.2578 232.695 29.1094C232.246 28.5586 232.371 28.0547 233.07 27.5938C233.277 27.4922 233.449 27.4375 233.586 27.4375C234.117 27.4375 234.344 27.6836 234.273 28.1719V28.2188C234.273 28.3672 234.258 28.4531 234.226 28.4844V28.5313C234.047 29.0625 233.836 29.5234 233.586 29.9063C233.344 30.2813 233.086 30.6328 232.805 30.9531C232.699 31.1211 232.527 31.2266 232.289 31.2656C232.078 31.3281 231.953 31.3594 231.914 31.3594ZM258.41 43.7188C257.887 43.7188 257.539 43.4219 257.363 42.8281C257.301 42.6602 257.273 42.4766 257.285 42.2813C257.305 42.0938 257.332 41.8945 257.363 41.6875C257.465 41.0195 257.66 40.3906 257.941 39.7969C258.223 39.2031 258.555 38.625 258.941 38.0625C259.605 37.0508 260.305 36.0703 261.035 35.125C261.762 34.1875 262.512 33.2656 263.285 32.3594C263.387 32.2578 263.461 32.168 263.504 32.0938C263.535 32.0313 263.602 31.9492 263.707 31.8438C264.613 30.7617 264.73 29.5898 264.066 28.3281C263.898 27.9766 263.699 27.7461 263.473 27.6406C263.242 27.5391 262.934 27.4844 262.551 27.4844C262.133 27.5586 261.746 27.6641 261.395 27.7969C261.152 27.8398 260.895 27.9492 260.613 28.125C260.582 28.1563 260.492 28.1719 260.348 28.1719C260.18 28.1719 260.008 28.0859 259.832 27.9063C259.582 27.625 259.582 27.3672 259.832 27.125C260.113 26.7422 260.41 26.3906 260.723 26.0781C261.805 24.8594 262.805 23.5625 263.723 22.1875C264.648 20.8047 265.41 19.3242 266.004 17.75C266.043 17.6055 266.012 17.4805 265.91 17.375C265.805 17.2734 265.699 17.2422 265.598 17.2813C265.449 17.3125 265.316 17.3555 265.191 17.4063C265.074 17.4609 264.945 17.5 264.801 17.5313C264.488 17.6055 264.211 17.7149 263.973 17.8594C263.555 18.0274 263.02 18.3399 262.363 18.7969C261.715 19.2461 261.098 19.7149 260.504 20.2031C259.918 20.6953 259.434 21.0781 259.051 21.3594C258.801 21.5703 258.535 21.6719 258.254 21.6719C258.086 21.6719 257.949 21.6055 257.848 21.4688C257.668 21.0859 257.754 20.7344 258.098 20.4219C258.48 20.0391 259.008 19.5938 259.676 19.0938C260.34 18.5859 261.055 18.0781 261.816 17.5781C262.586 17.0703 263.348 16.6484 264.098 16.3125C264.848 15.9805 265.48 15.8125 266.004 15.8125C266.598 15.8125 267.012 16.0313 267.254 16.4688C267.504 16.9063 267.508 17.5078 267.27 18.2656C267.238 18.4453 267.176 18.6328 267.082 18.8281C266.996 19.0156 266.918 19.1992 266.848 19.375C266.773 19.5547 266.684 19.7344 266.582 19.9219C266.476 20.1094 266.395 20.293 266.332 20.4688C265.871 21.3438 265.371 22.1797 264.832 22.9688C264.289 23.75 263.723 24.543 263.129 25.3438C262.785 25.7617 262.887 26.043 263.441 26.1875C264.004 26.3242 264.441 26.5742 264.754 26.9375C265.066 27.3047 265.324 27.7305 265.535 28.2188C265.574 28.293 265.602 28.375 265.613 28.4688C265.633 28.5547 265.66 28.625 265.691 28.6875C265.691 28.8672 265.762 29.0078 265.91 29.1094C266.117 29.1524 266.309 29.0859 266.488 28.9063C266.551 28.8359 266.617 28.7656 266.691 28.7031C266.762 28.6328 266.832 28.5586 266.895 28.4844C268.082 27.4024 269.258 26.3281 270.426 25.2656C271.602 24.2031 272.801 23.1328 274.02 22.0469C274.164 21.9024 274.316 21.7774 274.473 21.6719C274.629 21.5703 274.809 21.5 275.02 21.4688H275.176C275.309 21.4688 275.414 21.5078 275.488 21.5781C275.695 21.7149 275.77 21.9219 275.707 22.2031C275.664 22.4141 275.57 22.5781 275.426 22.7031C275.289 22.8203 275.137 22.9492 274.973 23.0938C274.617 23.4375 274.262 23.7734 273.91 24.0938C273.566 24.4063 273.199 24.7188 272.816 25.0313C272.43 25.3438 272.055 25.6563 271.691 25.9688C271.324 26.2813 270.965 26.6172 270.613 26.9688L266.848 30.4688C266.461 30.8242 266.152 31.2188 265.926 31.6563C265.707 32.0938 265.508 32.5586 265.332 33.0469C264.77 34.9297 264.035 36.7266 263.129 38.4375C262.223 40.1445 261.07 41.6953 259.676 43.0938C259.496 43.3008 259.215 43.4922 258.832 43.6719C258.77 43.7031 258.629 43.7188 258.41 43.7188ZM259.098 41.6875C259.168 41.6875 259.258 41.6328 259.363 41.5313C260.934 39.75 262.07 37.7383 262.77 35.5C262.07 36.3008 261.387 37.1016 260.723 37.9063C260.055 38.707 259.512 39.5977 259.098 40.5781C259.066 40.6797 259.027 40.7852 258.988 40.8906C258.957 41.0039 258.926 41.1289 258.895 41.2656C258.895 41.4414 258.91 41.5469 258.941 41.5781C259.012 41.6484 259.066 41.6875 259.098 41.6875ZM264.176 14.7031C264.039 14.7031 263.883 14.6641 263.707 14.5781C263.527 14.4961 263.441 14.3516 263.441 14.1406C263.441 13.9648 263.48 13.7734 263.566 13.5625C263.66 13.3555 263.863 13.25 264.176 13.25C264.633 13.25 264.863 13.4609 264.863 13.875C264.863 14.4297 264.633 14.7031 264.176 14.7031ZM275.551 30.8906C274.113 30.8906 273.223 30.2461 272.879 28.9531C272.777 28.6719 272.688 28.375 272.613 28.0625C272.543 27.75 272.52 27.4531 272.551 27.1719C272.52 26.7266 272.551 26.3086 272.645 25.9219C272.73 25.5391 272.824 25.1523 272.926 24.7656C273.238 23.9336 273.664 23.0391 274.207 22.0781C274.746 21.1094 275.395 20.2617 276.145 19.5313C276.895 18.793 277.723 18.3555 278.629 18.2188C278.731 18.2188 278.805 18.2031 278.848 18.1719C278.879 18.1719 278.91 18.1719 278.941 18.1719C278.98 18.1719 279.02 18.1719 279.051 18.1719C279.57 18.1719 279.977 18.3516 280.27 18.7031C280.57 19.0469 280.691 19.5156 280.629 20.1094C280.48 20.9453 280.07 21.8086 279.395 22.7031C278.715 23.5898 277.918 24.3398 277.004 24.9531C276.098 25.5586 275.227 25.9141 274.395 26.0156C274.145 26.0898 274.004 26.25 273.973 26.5C273.836 27.0547 273.887 27.6641 274.129 28.3281C274.231 28.9219 274.43 29.2734 274.723 29.375C275.023 29.4805 275.418 29.5313 275.91 29.5313C276.961 29.3242 278.035 28.8672 279.129 28.1563C280.23 27.4375 281.164 26.7266 281.926 26.0156C282.246 25.7461 282.566 25.4531 282.879 25.1406C283.191 24.8203 283.504 24.5234 283.816 24.25C284.098 23.9688 284.395 23.6836 284.707 23.3906C285.02 23.0898 285.332 22.7969 285.645 22.5156C285.715 22.4453 285.805 22.3672 285.91 22.2813C286.012 22.1875 286.102 22.1094 286.176 22.0469C286.246 21.9766 286.324 21.8984 286.41 21.8125C286.492 21.7188 286.57 21.6406 286.645 21.5781C286.82 21.4766 286.961 21.4219 287.066 21.4219C287.199 21.4219 287.32 21.4766 287.426 21.5781C287.707 21.8203 287.762 22.0781 287.598 22.3594C287.555 22.4648 287.414 22.6367 287.176 22.875C286.539 23.543 285.746 24.3281 284.801 25.2344C283.863 26.1406 282.852 27.0273 281.77 27.8906C280.695 28.7461 279.617 29.4609 278.535 30.0313C277.449 30.6055 276.457 30.8906 275.551 30.8906ZM275.066 24.4531C275.523 24.2031 276.074 23.8398 276.723 23.3594C277.367 22.8711 277.941 22.3398 278.441 21.7656C278.949 21.1836 279.207 20.6094 279.207 20.0469C279.176 19.7031 279.02 19.5703 278.738 19.6406C278.176 19.7031 277.613 20 277.051 20.5313C276.496 21.0547 276.012 21.6484 275.598 22.3125C275.18 22.9687 274.867 23.5781 274.66 24.1406C274.66 24.3203 274.691 24.4063 274.754 24.4063C274.93 24.4688 275.035 24.4844 275.066 24.4531ZM284.914 35.5625C284.633 35.4453 284.492 35.2695 284.492 35.0313C284.492 34.8516 284.504 34.6758 284.523 34.5C284.547 34.332 284.57 34.1602 284.602 33.9844C284.676 33.1094 284.774 32.2578 284.899 31.4219C285.016 30.5781 285.141 29.7422 285.289 28.9063C285.422 28.0625 285.559 27.2266 285.695 26.3906C285.84 25.5469 285.981 24.6953 286.117 23.8281C286.262 22.9219 286.445 22.0313 286.664 21.1563C286.891 20.2813 287.149 19.4063 287.43 18.5313C288.231 15.7109 289.094 12.9375 290.024 10.2188C290.949 7.49219 292.024 4.78125 293.242 2.09375C293.418 1.77344 293.602 1.47656 293.789 1.20313C293.984 0.921875 294.188 0.640627 294.399 0.359377C294.531 0.121096 294.727 0 294.977 0C295.109 0 295.199 0.0156217 295.242 0.0468757C295.555 0.226563 295.672 0.523438 295.602 0.937501C295.57 1.46094 295.465 1.96484 295.289 2.45312C294.766 4.26563 294.156 6.04687 293.461 7.79687C292.762 9.54687 292.043 11.293 291.305 13.0312C291.242 13.2109 291.164 13.375 291.07 13.5312C290.985 13.6875 290.906 13.8555 290.836 14.0313C290.762 14.2109 290.684 14.3867 290.602 14.5625C290.516 14.7305 290.438 14.9023 290.367 15.0781C289.875 15.9844 289.387 17.1641 288.899 18.6094C288.406 20.0586 287.996 21.5391 287.664 23.0469C287.328 24.5469 287.109 25.8359 287.008 26.9062C287.328 26.875 287.543 26.7422 287.649 26.5C287.711 26.3984 287.766 26.293 287.82 26.1875C287.871 26.0742 287.918 25.9844 287.961 25.9219C288.555 25.0156 289.203 24.1641 289.914 23.3594C290.633 22.5469 291.445 21.8125 292.352 21.1562C292.527 21.0547 292.703 20.9492 292.883 20.8437C293.059 20.7422 293.231 20.6367 293.399 20.5313C293.781 20.3125 294.152 20.1523 294.508 20.0469C294.82 19.9453 295.117 19.8906 295.399 19.8906C296.438 19.8906 296.981 20.5391 297.024 21.8281C297.086 22.1836 297.086 22.5547 297.024 22.9375C296.981 23.1055 296.949 23.2891 296.93 23.4844C296.918 23.6719 296.899 23.8555 296.867 24.0313C296.867 24.2422 296.844 24.3828 296.805 24.4531C296.774 24.5898 296.809 24.7305 296.914 24.875H297.07C297.246 24.875 297.387 24.8242 297.492 24.7187C297.555 24.6797 297.609 24.6406 297.664 24.6094C297.727 24.5781 297.774 24.543 297.805 24.5C298.781 23.9063 299.789 23.3594 300.82 22.8594C301.852 22.3516 302.871 21.8516 303.883 21.3594C303.945 21.3281 304.012 21.2969 304.086 21.2656C304.156 21.2266 304.246 21.1875 304.352 21.1563C304.383 21.1172 304.485 21.0938 304.664 21.0938C305.016 21.0938 305.211 21.2188 305.242 21.4688C305.344 21.8867 305.219 22.1641 304.867 22.2969C304.731 22.3711 304.59 22.4531 304.445 22.5469C304.309 22.6328 304.172 22.7109 304.039 22.7813C303.891 22.8438 303.75 22.9141 303.617 22.9844C303.481 23.0586 303.34 23.125 303.195 23.1875C301.172 24.168 299.184 25.2734 297.227 26.5C296.735 26.8125 296.313 27.1523 295.961 27.5156C295.617 27.8828 295.324 28.3242 295.086 28.8438C294.836 29.3359 294.438 29.9375 293.899 30.6563C293.356 31.375 292.774 32.0234 292.149 32.5938C291.524 33.1641 290.914 33.4883 290.32 33.5625C289.965 33.6016 289.684 33.5 289.477 33.25C289.266 33.0117 289.199 32.7148 289.274 32.3594C289.406 31.7656 289.735 31.168 290.258 30.5625C290.777 29.9492 291.352 29.3672 291.977 28.8125C292.609 28.25 293.156 27.793 293.617 27.4375C294.449 26.8438 294.969 26.0586 295.18 25.0781C295.324 24.5898 295.449 24.0938 295.555 23.5938C295.656 23.0859 295.688 22.5703 295.649 22.0469C295.649 21.5898 295.461 21.3594 295.086 21.3594C294.906 21.3594 294.797 21.3828 294.758 21.4219C294.445 21.5273 294.156 21.6563 293.899 21.8125C293.637 21.9688 293.367 22.1328 293.086 22.2969C291.063 23.8398 289.57 25.6328 288.602 27.6719C287.641 29.7148 286.762 31.9219 285.961 34.2969C285.93 34.3672 285.902 34.457 285.883 34.5625C285.871 34.6641 285.844 34.7539 285.805 34.8281C285.773 34.8906 285.746 34.9609 285.727 35.0469C285.715 35.1406 285.688 35.2227 285.648 35.2969C285.586 35.4727 285.391 35.5625 285.07 35.5625H284.914ZM309.75 43.4688C309.289 43.4688 308.922 43.2031 308.641 42.6719C308.191 41.8672 308.125 41.0859 308.438 40.3281C308.852 39.0664 309.375 37.8672 310 36.7344C310.633 35.5977 311.316 34.4727 312.047 33.3594C312.398 32.7969 312.645 32.168 312.781 31.4688C312.852 30.875 312.922 30.293 312.984 29.7188C313.055 29.1367 313.129 28.5703 313.203 28.0156C313.266 27.4219 313.336 26.8398 313.422 26.2656C313.516 25.6836 313.598 25.0938 313.672 24.5L314.141 20.7813C314.172 20.7188 314.188 20.5469 314.188 20.2656C314.188 20.1211 314.133 20.0469 314.031 20.0469C313.926 19.9844 313.82 20.0078 313.719 20.1094L312.625 21.4219C311.75 22.4961 310.836 23.4922 309.891 24.4063C308.953 25.3125 307.906 26.1484 306.75 26.9063C306.539 27.0547 306.332 27.1523 306.125 27.2031C305.914 27.2578 305.707 27.2969 305.5 27.3281C304.801 27.3281 304.328 27.1328 304.078 26.7344C303.836 26.3281 303.719 25.8125 303.719 25.1875C303.719 24.0313 303.883 22.8203 304.219 21.5469C304.551 20.2773 305.098 19.1836 305.859 18.2656C306.035 18.1016 306.227 18.0156 306.438 18.0156C306.477 18.0156 306.523 18.0273 306.578 18.0469C306.629 18.0587 306.707 18.0781 306.813 18.1094C307.156 18.3203 307.191 18.6172 306.922 19C306.43 19.668 306.07 20.375 305.844 21.125C305.613 21.875 305.41 22.6523 305.234 23.4531C305.172 23.7344 305.129 24.0156 305.109 24.2969C305.086 24.5781 305.078 24.8555 305.078 25.125C305.004 25.6172 305.16 25.8594 305.547 25.8594C305.691 25.8594 305.867 25.8086 306.078 25.7031C306.211 25.6406 306.344 25.5586 306.469 25.4531C306.594 25.3516 306.723 25.2617 306.859 25.1875C307.004 25.1172 307.133 25.0273 307.25 24.9219C307.375 24.8203 307.504 24.7305 307.64 24.6562C308.305 24.168 308.926 23.6094 309.5 22.9844C310.082 22.3594 310.648 21.6992 311.203 21C311.453 20.7188 311.695 20.4219 311.937 20.1094C312.187 19.7969 312.43 19.4805 312.672 19.1563C312.922 18.8867 313.156 18.5938 313.375 18.2813C313.601 17.9609 313.844 17.6562 314.094 17.375C314.156 17.3125 314.226 17.2305 314.312 17.125C314.406 17.0234 314.488 16.9336 314.562 16.8594C314.738 16.6836 314.93 16.5937 315.141 16.5937C315.172 16.5937 315.187 16.5937 315.187 16.5937C315.187 16.5937 315.203 16.5937 315.234 16.5937C315.273 16.625 315.312 16.6406 315.344 16.6406C315.801 16.7578 315.957 17.2461 315.812 18.1094C315.75 18.7773 315.672 19.4453 315.578 20.1094C315.492 20.7656 315.414 21.4297 315.344 22.0938C315.269 22.7617 315.179 23.4336 315.078 24.1094C314.973 24.7891 314.89 25.4609 314.828 26.125L314.515 29.1719C314.547 29.1719 314.664 29.2031 314.875 29.2656C315.363 28.6406 315.859 28.0156 316.359 27.3906C316.867 26.7578 317.367 26.125 317.859 25.5C318.347 24.9062 318.844 24.2969 319.344 23.6719C319.851 23.0391 320.39 22.4219 320.953 21.8281C321.129 21.6211 321.32 21.4297 321.531 21.25C321.695 21.1484 321.836 21.0937 321.953 21.0937C322.086 21.0937 322.207 21.1484 322.312 21.25C322.551 21.5 322.601 21.7461 322.469 21.9844C322.332 22.2344 322.164 22.4648 321.969 22.6719C321.781 22.8828 321.597 23.1094 321.422 23.3594C320.304 24.6523 319.211 25.9687 318.14 27.3125C317.078 28.6562 316.039 30.0273 315.031 31.4219C314.226 32.4336 313.722 33.5469 313.515 34.7656C313.441 35.2539 313.301 35.9766 313.094 36.9375C312.883 37.9063 312.625 38.8828 312.312 39.875C312 40.875 311.625 41.7227 311.187 42.4219C310.75 43.1172 310.27 43.4688 309.75 43.4688ZM309.953 41.4688C310.086 41.4688 310.176 41.4141 310.219 41.3125C310.25 41.207 310.301 41.0859 310.375 40.9531L311.156 38.7031C311.332 38.2109 311.316 37.7891 311.109 37.4375C311.004 37.6875 310.891 37.9453 310.766 38.2188C310.641 38.5 310.508 38.7813 310.375 39.0625L309.75 40.6406C309.676 40.7734 309.629 40.9219 309.609 41.0781C309.586 41.2344 309.648 41.3477 309.797 41.4219C309.828 41.4531 309.879 41.4688 309.953 41.4688ZM340.797 36.8125C340.141 36.8125 339.699 36.4414 339.469 35.7031C339.242 34.9727 339.125 34.3125 339.125 33.7188C339.125 32.043 339.34 30.1836 339.766 28.1406C340.18 26.1016 340.691 24.0859 341.297 22.0938C341.91 20.1055 342.492 18.3242 343.047 16.75C343.223 16.2617 343.391 15.7969 343.547 15.3594C343.703 14.9219 343.867 14.4805 344.047 14.0313C344.191 13.6484 344.238 13.375 344.188 13.2188C344.133 13.0625 343.945 12.9844 343.625 12.9844H343.219C342.863 13.0156 342.508 13.0547 342.156 13.0938C341.813 13.125 341.461 13.1797 341.109 13.25C340.766 13.2813 340.41 13.3242 340.047 13.375C339.684 13.4297 339.324 13.4688 338.969 13.5C338.762 13.543 338.543 13.5781 338.313 13.6094C338.086 13.6406 337.867 13.6563 337.656 13.6563C337.375 13.6563 337.184 13.6406 337.078 13.6094C336.914 13.5781 336.793 13.4766 336.719 13.2969C336.648 12.9453 336.734 12.75 336.984 12.7188C337.121 12.6875 337.242 12.6563 337.344 12.625C337.449 12.586 337.555 12.5469 337.656 12.5156C337.805 12.4766 337.938 12.4492 338.062 12.4375C338.18 12.418 338.305 12.3906 338.437 12.3594C338.93 12.2891 339.406 12.2149 339.875 12.1406C340.352 12.0703 340.82 12.0156 341.281 11.9844C341.758 11.9141 342.227 11.8516 342.688 11.7969C343.145 11.7461 343.598 11.7031 344.047 11.6719C344.672 11.6406 345.109 11.3438 345.359 10.7813L346.766 7.64063C346.91 7.4336 347.035 7.22657 347.141 7.01563C347.242 6.8086 347.363 6.59376 347.5 6.37501C347.602 6.16797 347.719 5.96094 347.844 5.75001C347.969 5.54297 348.098 5.33594 348.234 5.125C348.617 4.5 348.988 4.1875 349.344 4.1875C349.551 4.1875 349.707 4.30859 349.813 4.54688C349.883 4.90235 349.797 5.28907 349.547 5.70313C349.266 6.40235 348.957 7.10157 348.625 7.79688C348.301 8.4961 347.961 9.19532 347.609 9.89063C347.578 9.96484 347.539 10.0547 347.5 10.1563C347.469 10.2617 347.438 10.3516 347.406 10.4219C347.301 10.6328 347.25 10.875 347.25 11.1563C347.383 11.1875 347.504 11.2148 347.609 11.2344C347.711 11.246 347.816 11.25 347.922 11.25C348.066 11.25 348.172 11.2344 348.234 11.2031C348.305 11.2031 348.359 11.2031 348.391 11.2031C348.43 11.2031 348.469 11.2031 348.5 11.2031C349.227 11.1328 349.984 11.0547 350.766 10.9688C351.555 10.875 352.391 10.7969 353.266 10.7344C354.141 10.6641 354.969 10.5938 355.75 10.5313C356.539 10.4609 357.301 10.3867 358.031 10.3125H359.922C360.16 10.3125 360.301 10.4844 360.344 10.8281C360.344 11.1094 360.238 11.2891 360.031 11.3594C359.883 11.3906 359.758 11.418 359.656 11.4375C359.551 11.4609 359.445 11.4688 359.344 11.4688C359.238 11.5 359.133 11.5156 359.031 11.5156C358.926 11.5156 358.801 11.5313 358.656 11.5625L347.406 12.5625C346.633 12.6367 346.125 12.9844 345.875 13.6094C345.563 14.2774 345.188 15.2305 344.75 16.4688C344.32 17.7109 343.867 19.0469 343.391 20.4844C342.922 21.9141 342.492 23.2734 342.109 24.5625C341.723 25.8555 341.445 26.8828 341.281 27.6406C341.063 28.5156 340.891 29.3828 340.766 30.2344C340.648 31.0899 340.555 31.9766 340.484 32.8906C340.453 33.2656 340.426 33.6719 340.406 34.1094C340.394 34.5469 340.578 34.9219 340.953 35.2344C341.336 35.2031 341.687 35.0313 342 34.7188C342.145 34.5391 342.273 34.375 342.391 34.2188C342.516 34.0625 342.648 33.9141 342.797 33.7813C343.348 33.0859 344.016 32.1836 344.797 31.0781C345.586 29.9766 346.395 28.8516 347.219 27.7031C348.039 26.5469 348.801 25.5 349.5 24.5625C350.195 23.6172 350.738 22.9492 351.125 22.5625C351.187 22.4609 351.27 22.3555 351.375 22.25C351.477 22.1484 351.566 22.043 351.641 21.9375C351.816 21.7617 352.023 21.6211 352.266 21.5156C352.305 21.5156 352.344 21.5 352.375 21.4688C352.406 21.4688 352.422 21.4688 352.422 21.4688C352.422 21.4688 352.441 21.4688 352.484 21.4688C352.516 21.4688 352.633 21.5078 352.844 21.5781C353.125 21.7891 353.176 22.0469 353 22.3594C353 22.4649 352.945 22.5703 352.844 22.6719C352.32 23.2969 351.633 24.1875 350.781 25.3438C349.926 26.5 349.129 27.5859 348.391 28.5938C347.523 29.7813 346.633 30.9805 345.719 32.1875C344.812 33.3828 343.941 34.4727 343.109 35.4531C342.859 35.7656 342.516 36.0664 342.078 36.3594C341.648 36.6602 341.223 36.8125 340.797 36.8125ZM351.805 32.9375C351.063 32.9375 350.539 32.5391 350.227 31.7344C350.051 31.2461 349.945 30.7578 349.914 30.2656C349.844 29.7773 349.844 29.3242 349.914 28.9063C350.125 27.3359 350.461 25.8242 350.93 24.375C351.398 22.9297 352.055 21.5391 352.898 20.2031C353.074 19.9336 353.266 19.668 353.477 19.4063C353.684 19.1367 353.906 18.8594 354.148 18.5781C354.355 18.4141 354.602 18.293 354.883 18.2188C354.922 18.1875 354.996 18.1719 355.102 18.1719C355.266 18.1719 355.402 18.2422 355.508 18.375C355.652 18.5859 355.672 18.793 355.57 19C355.496 19.1055 355.434 19.1953 355.383 19.2656C355.328 19.3398 355.289 19.3906 355.258 19.4219C354.559 20.0469 353.937 20.9219 353.398 22.0469C352.855 23.1641 352.398 24.3242 352.023 25.5313C351.656 26.7305 351.406 27.8047 351.273 28.75C351.094 29.6563 351.184 30.4961 351.539 31.2656C351.601 31.4336 351.742 31.5156 351.961 31.5156C352.023 31.5156 352.074 31.5 352.117 31.4688C352.461 31.3359 352.875 30.9844 353.367 30.4219C353.855 29.8594 354.344 29.2266 354.836 28.5156C355.324 27.7969 355.766 27.1172 356.164 26.4687C356.57 25.8242 356.859 25.3242 357.039 24.9688C357.101 24.8672 357.156 24.7617 357.211 24.6562C357.262 24.5547 357.309 24.4492 357.351 24.3438C357.422 24.2422 357.484 24.1367 357.539 24.0313C357.59 23.9297 357.648 23.8398 357.711 23.7656C357.855 23.5273 358.031 23.4063 358.242 23.4063C358.273 23.4063 358.289 23.4063 358.289 23.4063C358.289 23.4063 358.309 23.4063 358.351 23.4063C358.383 23.4375 358.414 23.4531 358.445 23.4531C358.797 23.5586 358.976 23.8242 358.976 24.25C358.933 24.4609 358.898 24.6797 358.867 24.9062C358.836 25.125 358.797 25.3594 358.758 25.6094C358.652 26.6953 358.793 27.6875 359.18 28.5937C359.562 29.4297 360.039 29.8438 360.602 29.8438C361.258 29.8438 361.793 29.5586 362.211 28.9844C362.637 28.4141 362.969 27.6875 363.211 26.8125C363.461 25.9375 363.625 25.0625 363.711 24.1875C363.793 23.3125 363.836 22.6016 363.836 22.0469C363.875 21.8711 363.914 21.7305 363.945 21.625C363.984 21.5234 364.09 21.4336 364.258 21.3594C364.328 21.3594 364.383 21.3438 364.414 21.3125C364.414 21.3125 364.422 21.3125 364.445 21.3125C364.465 21.3125 364.492 21.3125 364.523 21.3125C364.773 21.3125 364.981 21.4531 365.148 21.7344L365.524 22.25C365.906 22.7422 366.387 23.1094 366.961 23.3594C367.531 23.6016 368.117 23.7187 368.711 23.7187C369.023 23.7187 369.324 23.6953 369.617 23.6406C369.918 23.5898 370.211 23.4766 370.492 23.2969C370.668 23.2266 370.84 23.1367 371.008 23.0313C371.184 22.9297 371.359 22.8086 371.539 22.6719C371.715 22.5391 371.883 22.418 372.039 22.3125C372.195 22.1992 372.344 22.0898 372.492 21.9844C372.762 21.7773 372.969 21.6719 373.117 21.6719C373.293 21.6719 373.449 21.7461 373.586 21.8906C373.969 22.1641 373.883 22.543 373.32 23.0313C372.695 23.5938 372.008 24.0781 371.258 24.4844C370.508 24.8828 369.695 25.0781 368.82 25.0781C368.227 25.0781 367.633 24.9961 367.039 24.8281C366.445 24.6523 365.867 24.4375 365.305 24.1875C365.168 24.4375 365.063 24.7188 364.992 25.0313C364.961 25.168 364.934 25.3125 364.914 25.4688C364.902 25.625 364.875 25.7773 364.836 25.9219C364.699 26.9023 364.375 27.8984 363.867 28.9063C363.367 29.918 362.605 30.6172 361.586 31C361.312 31.1367 360.949 31.2031 360.492 31.2031C359.793 31.2031 359.187 30.918 358.68 30.3438C358.18 29.7734 357.84 29.168 357.664 28.5313C357.633 28.3672 357.59 28.2031 357.539 28.0469C357.484 27.8828 357.371 27.7461 357.195 27.6406C356.914 27.8203 356.719 28.0117 356.617 28.2188C356.543 28.3672 356.461 28.4922 356.367 28.5938C356.281 28.6992 356.211 28.8203 356.148 28.9531C355.793 29.3711 355.476 29.793 355.195 30.2188C355.059 30.4609 354.891 30.6836 354.695 30.8906C354.508 31.1016 354.324 31.3086 354.148 31.5156C353.836 31.8711 353.484 32.1992 353.101 32.5C352.715 32.793 352.281 32.9375 351.805 32.9375ZM373.328 30.4688C372.691 30.4688 372.129 30.2813 371.641 29.9063C371.16 29.5234 370.852 28.9805 370.703 28.2813C370.602 27.75 370.563 27.293 370.594 26.9063C370.668 26.1797 370.875 25.3359 371.219 24.375C371.57 23.418 372.047 22.5234 372.641 21.6875C373.234 20.8438 373.863 20.2969 374.531 20.0469C374.738 19.9453 374.961 19.8906 375.203 19.8906C375.524 19.9336 375.719 20.1094 375.781 20.4219C375.852 20.8398 375.75 21.0625 375.469 21.0938C374.875 21.1992 374.422 21.4453 374.109 21.8281C373.797 22.2148 373.5 22.6367 373.219 23.0938C372.727 24.0313 372.379 24.9219 372.172 25.7656C372.035 26.1523 371.969 26.6563 371.969 27.2813C371.969 28.293 372.316 28.8867 373.016 29.0625C373.43 29.0625 373.781 29.0117 374.063 28.9063C374.344 28.8047 374.602 28.543 374.844 28.125C375.195 27.5625 375.406 27.0078 375.469 26.4531C375.539 25.8906 375.383 25.3125 375 24.7188C374.789 24.3672 374.617 24.0156 374.484 23.6719C374.41 23.4961 374.43 23.3281 374.547 23.1719C374.672 23.0156 374.82 22.918 375 22.875H376.625C377.602 22.875 378.582 22.7188 379.562 22.4063C379.801 22.3359 380.039 22.2461 380.281 22.1406C380.531 22.0391 380.781 21.9531 381.031 21.8906C381.27 21.8203 381.504 21.7305 381.734 21.625C381.961 21.5234 382.195 21.4336 382.437 21.3594L383.281 21.1563C383.551 21.1563 383.773 21.2969 383.953 21.5781C384.129 21.9961 383.988 22.2734 383.531 22.4063C383.039 22.5859 382.551 22.7617 382.062 22.9375C381.582 23.1055 381.098 23.2773 380.609 23.4531C380.117 23.6328 379.617 23.7813 379.109 23.9063C378.609 24.0234 378.078 24.1172 377.516 24.1875C377.023 24.2617 376.754 24.3438 376.703 24.4375C376.648 24.5234 376.66 24.7891 376.734 25.2344C376.941 26.2461 376.817 27.2422 376.359 28.2188C376.016 28.9609 375.492 29.5742 374.797 30.0625C374.305 30.3359 373.816 30.4688 373.328 30.4688ZM381.234 33.9844C381.203 33.9844 381.18 33.9844 381.156 33.9844C381.137 33.9844 381.109 33.9844 381.078 33.9844C381.078 33.9531 381.043 33.9375 380.969 33.9375C380.625 33.832 380.418 33.5664 380.344 33.1406C380.344 33.0391 380.344 32.9336 380.344 32.8281C380.344 32.7266 380.328 32.6055 380.297 32.4688C380.297 32.3672 380.297 32.2617 380.297 32.1563C380.297 32.0547 380.312 31.9297 380.344 31.7813C380.687 29.4492 381.211 27.3398 381.906 25.4531C382.613 23.5703 383.422 21.5742 384.328 19.4688C384.391 19.3359 384.457 19.2109 384.531 19.0938C384.602 18.9687 384.676 18.8555 384.75 18.75C384.852 18.6367 385.008 18.5781 385.219 18.5781H385.375C385.656 18.6953 385.773 18.8711 385.734 19.1094C385.734 19.4219 385.645 19.8086 385.469 20.2656C385.258 20.7891 385.039 21.3125 384.812 21.8438C384.594 22.3672 384.359 22.8867 384.109 23.4063C383.766 24.2109 383.453 25.0117 383.172 25.8125C382.891 26.6172 382.644 27.418 382.437 28.2188C382.363 28.5 382.301 28.7813 382.25 29.0625C382.195 29.3438 382.242 29.625 382.391 29.9063H382.328L382.391 29.9531L384.422 25.8125C384.848 25.0117 385.375 24.1992 386 23.375C386.625 22.5547 387.336 21.9023 388.141 21.4219C388.359 21.3086 388.57 21.25 388.781 21.25C389.195 21.25 389.523 21.4648 389.766 21.8906C389.836 21.9531 389.898 22.0391 389.953 22.1406C390.004 22.2461 390.047 22.3555 390.078 22.4688C390.117 22.6797 390.207 22.8867 390.344 23.0937C390.727 23.7187 391.148 24.0313 391.609 24.0313C391.922 24.0313 392.301 23.8906 392.75 23.6094C393.207 23.3281 393.672 23.0156 394.141 22.6719C394.609 22.3203 394.984 22.0234 395.266 21.7812C395.473 21.5742 395.703 21.3984 395.953 21.25C395.984 21.2188 396.051 21.2031 396.156 21.2031C396.301 21.2031 396.441 21.2578 396.578 21.3594C396.785 21.5703 396.836 21.7773 396.734 21.9844C396.598 22.2656 396.441 22.4961 396.266 22.6719C395.953 22.9844 395.516 23.3594 394.953 23.7969C394.398 24.2344 393.828 24.6094 393.234 24.9219C392.641 25.2344 392.098 25.3906 391.609 25.3906C390.734 25.3906 390.016 25.0117 389.453 24.25C389.391 24.1367 389.32 24.0273 389.25 23.9219C389.176 23.8203 389.102 23.7148 389.031 23.6094C389 23.5078 388.945 23.4023 388.875 23.2969C388.813 23.1953 388.742 23.0898 388.672 22.9844C388.422 22.9844 388.234 23.0391 388.109 23.1406C387.992 23.2461 387.883 23.3711 387.781 23.5156C387.289 24.0078 386.852 24.5391 386.469 25.1094C386.082 25.6836 385.734 26.2656 385.422 26.8594C385.211 27.2773 385.004 27.6992 384.797 28.125C384.586 28.543 384.395 28.9609 384.219 29.375C384.008 29.793 383.801 30.2148 383.594 30.6406C383.383 31.0586 383.156 31.4922 382.906 31.9375C382.77 32.2188 382.625 32.4922 382.469 32.75C382.313 33.0117 382.145 33.2813 381.969 33.5625C381.789 33.8438 381.547 33.9844 381.234 33.9844ZM396.309 43.7188C395.785 43.7188 395.438 43.4219 395.262 42.8281C395.199 42.6602 395.172 42.4766 395.184 42.2813C395.203 42.0938 395.23 41.8945 395.262 41.6875C395.363 41.0195 395.559 40.3906 395.84 39.7969C396.121 39.2031 396.453 38.625 396.84 38.0625C397.504 37.0508 398.203 36.0703 398.934 35.125C399.66 34.1875 400.41 33.2656 401.184 32.3594C401.285 32.2578 401.359 32.168 401.402 32.0938C401.434 32.0313 401.5 31.9492 401.605 31.8438C402.512 30.7617 402.629 29.5898 401.965 28.3281C401.797 27.9766 401.598 27.7461 401.371 27.6406C401.141 27.5391 400.832 27.4844 400.449 27.4844C400.031 27.5586 399.645 27.6641 399.293 27.7969C399.051 27.8398 398.793 27.9492 398.512 28.125C398.48 28.1563 398.391 28.1719 398.246 28.1719C398.078 28.1719 397.906 28.0859 397.73 27.9063C397.48 27.625 397.48 27.3672 397.73 27.125C398.012 26.7422 398.309 26.3906 398.621 26.0781C399.703 24.8594 400.703 23.5625 401.621 22.1875C402.547 20.8047 403.309 19.3242 403.902 17.75C403.941 17.6055 403.91 17.4805 403.809 17.375C403.703 17.2734 403.598 17.2422 403.496 17.2813C403.348 17.3125 403.215 17.3555 403.09 17.4063C402.973 17.4609 402.844 17.5 402.699 17.5313C402.387 17.6055 402.109 17.7149 401.871 17.8594C401.453 18.0274 400.918 18.3399 400.262 18.7969C399.613 19.2461 398.996 19.7149 398.402 20.2031C397.816 20.6953 397.332 21.0781 396.949 21.3594C396.699 21.5703 396.434 21.6719 396.152 21.6719C395.984 21.6719 395.848 21.6055 395.746 21.4688C395.566 21.0859 395.652 20.7344 395.996 20.4219C396.379 20.0391 396.906 19.5938 397.574 19.0938C398.238 18.5859 398.953 18.0781 399.715 17.5781C400.484 17.0703 401.246 16.6484 401.996 16.3125C402.746 15.9805 403.379 15.8125 403.902 15.8125C404.496 15.8125 404.91 16.0313 405.152 16.4688C405.402 16.9063 405.406 17.5078 405.168 18.2656C405.137 18.4453 405.074 18.6328 404.98 18.8281C404.895 19.0156 404.816 19.1992 404.746 19.375C404.672 19.5547 404.582 19.7344 404.48 19.9219C404.375 20.1094 404.293 20.293 404.23 20.4688C403.77 21.3438 403.27 22.1797 402.73 22.9688C402.187 23.75 401.621 24.543 401.027 25.3438C400.684 25.7617 400.785 26.043 401.34 26.1875C401.902 26.3242 402.34 26.5742 402.652 26.9375C402.965 27.3047 403.223 27.7305 403.434 28.2188C403.473 28.293 403.5 28.375 403.512 28.4688C403.531 28.5547 403.559 28.625 403.59 28.6875C403.59 28.8672 403.66 29.0078 403.809 29.1094C404.016 29.1524 404.207 29.0859 404.387 28.9063C404.449 28.8359 404.516 28.7656 404.59 28.7031C404.66 28.6328 404.731 28.5586 404.793 28.4844C405.981 27.4024 407.156 26.3281 408.324 25.2656C409.5 24.2031 410.699 23.1328 411.918 22.0469C412.063 21.9024 412.215 21.7774 412.371 21.6719C412.527 21.5703 412.707 21.5 412.918 21.4688H413.074C413.207 21.4688 413.313 21.5078 413.387 21.5781C413.594 21.7149 413.668 21.9219 413.606 22.2031C413.563 22.4141 413.469 22.5781 413.324 22.7031C413.188 22.8203 413.035 22.9492 412.871 23.0938C412.516 23.4375 412.16 23.7734 411.809 24.0938C411.465 24.4063 411.098 24.7188 410.715 25.0313C410.328 25.3438 409.953 25.6563 409.59 25.9688C409.223 26.2813 408.863 26.6172 408.512 26.9688L404.746 30.4688C404.359 30.8242 404.051 31.2188 403.824 31.6563C403.606 32.0938 403.406 32.5586 403.231 33.0469C402.668 34.9297 401.934 36.7266 401.027 38.4375C400.121 40.1445 398.969 41.6953 397.574 43.0938C397.395 43.3008 397.113 43.4922 396.731 43.6719C396.668 43.7031 396.527 43.7188 396.309 43.7188ZM396.996 41.6875C397.066 41.6875 397.156 41.6328 397.262 41.5313C398.832 39.75 399.969 37.7383 400.668 35.5C399.969 36.3008 399.285 37.1016 398.621 37.9063C397.953 38.707 397.41 39.5977 396.996 40.5781C396.965 40.6797 396.926 40.7852 396.887 40.8906C396.855 41.0039 396.824 41.1289 396.793 41.2656C396.793 41.4414 396.809 41.5469 396.84 41.5781C396.91 41.6484 396.965 41.6875 396.996 41.6875ZM418.059 43.4688C417.598 43.4688 417.23 43.2031 416.949 42.6719C416.5 41.8672 416.434 41.0859 416.746 40.3281C417.16 39.0664 417.684 37.8672 418.309 36.7344C418.941 35.5977 419.625 34.4727 420.355 33.3594C420.707 32.7969 420.953 32.168 421.09 31.4688C421.16 30.875 421.23 30.293 421.293 29.7188C421.363 29.1367 421.438 28.5703 421.512 28.0156C421.574 27.4219 421.645 26.8398 421.73 26.2656C421.824 25.6836 421.906 25.0938 421.981 24.5L422.449 20.7813C422.481 20.7188 422.496 20.5469 422.496 20.2656C422.496 20.1211 422.441 20.0469 422.34 20.0469C422.234 19.9844 422.129 20.0078 422.027 20.1094L420.934 21.4219C420.059 22.4961 419.145 23.4922 418.199 24.4063C417.262 25.3125 416.215 26.1484 415.059 26.9063C414.848 27.0547 414.641 27.1523 414.434 27.2031C414.223 27.2578 414.016 27.2969 413.809 27.3281C413.109 27.3281 412.637 27.1328 412.387 26.7344C412.145 26.3281 412.027 25.8125 412.027 25.1875C412.027 24.0313 412.191 22.8203 412.527 21.5469C412.859 20.2773 413.406 19.1836 414.168 18.2656C414.344 18.1016 414.535 18.0156 414.746 18.0156C414.785 18.0156 414.832 18.0273 414.887 18.0469C414.938 18.0587 415.016 18.0781 415.121 18.1094C415.465 18.3203 415.5 18.6172 415.23 19C414.738 19.668 414.379 20.375 414.152 21.125C413.922 21.875 413.719 22.6523 413.543 23.4531C413.48 23.7344 413.437 24.0156 413.418 24.2969C413.394 24.5781 413.387 24.8555 413.387 25.125C413.312 25.6172 413.469 25.8594 413.855 25.8594C414 25.8594 414.176 25.8086 414.387 25.7031C414.519 25.6406 414.652 25.5586 414.777 25.4531C414.902 25.3516 415.031 25.2617 415.168 25.1875C415.312 25.1172 415.441 25.0273 415.559 24.9219C415.684 24.8203 415.812 24.7305 415.949 24.6562C416.613 24.168 417.234 23.6094 417.808 22.9844C418.391 22.3594 418.957 21.6992 419.512 21C419.762 20.7188 420.004 20.4219 420.246 20.1094C420.496 19.7969 420.738 19.4805 420.98 19.1563C421.23 18.8867 421.465 18.5938 421.683 18.2813C421.91 17.9609 422.152 17.6562 422.402 17.375C422.465 17.3125 422.535 17.2305 422.621 17.125C422.715 17.0234 422.797 16.9336 422.871 16.8594C423.047 16.6836 423.238 16.5937 423.449 16.5937C423.48 16.5937 423.496 16.5937 423.496 16.5937C423.496 16.5937 423.512 16.5937 423.543 16.5937C423.582 16.625 423.621 16.6406 423.652 16.6406C424.109 16.7578 424.265 17.2461 424.121 18.1094C424.058 18.7773 423.98 19.4453 423.887 20.1094C423.801 20.7656 423.722 21.4297 423.652 22.0938C423.578 22.7617 423.488 23.4336 423.387 24.1094C423.281 24.7891 423.199 25.4609 423.137 26.125L422.824 29.1719C422.855 29.1719 422.972 29.2031 423.183 29.2656C423.672 28.6406 424.168 28.0156 424.668 27.3906C425.176 26.7578 425.676 26.125 426.168 25.5C426.656 24.9062 427.152 24.2969 427.652 23.6719C428.16 23.0391 428.699 22.4219 429.262 21.8281C429.437 21.6211 429.629 21.4297 429.84 21.25C430.004 21.1484 430.144 21.0937 430.262 21.0937C430.394 21.0937 430.515 21.1484 430.621 21.25C430.859 21.5 430.91 21.7461 430.777 21.9844C430.64 22.2344 430.473 22.4648 430.277 22.6719C430.09 22.8828 429.906 23.1094 429.73 23.3594C428.613 24.6523 427.519 25.9687 426.449 27.3125C425.387 28.6562 424.347 30.0273 423.34 31.4219C422.535 32.4336 422.031 33.5469 421.824 34.7656C421.75 35.2539 421.609 35.9766 421.402 36.9375C421.191 37.9063 420.933 38.8828 420.621 39.875C420.308 40.875 419.933 41.7227 419.496 42.4219C419.058 43.1172 418.578 43.4688 418.059 43.4688ZM418.262 41.4688C418.395 41.4688 418.484 41.4141 418.527 41.3125C418.559 41.207 418.609 41.0859 418.684 40.9531L419.465 38.7031C419.641 38.2109 419.625 37.7891 419.418 37.4375C419.312 37.6875 419.199 37.9453 419.074 38.2188C418.949 38.5 418.816 38.7813 418.684 39.0625L418.059 40.6406C417.984 40.7734 417.937 40.9219 417.918 41.0781C417.895 41.2344 417.957 41.3477 418.105 41.4219C418.137 41.4531 418.188 41.4688 418.262 41.4688ZM431.562 30.9531C430.094 30.9531 429.07 30.5625 428.5 29.7813C427.93 28.9922 427.672 28.0313 427.734 26.9063C427.734 26.7422 427.746 26.5938 427.766 26.4688C427.789 26.3438 427.813 26.2148 427.844 26.0781C428.231 24.6094 428.774 23.2656 429.484 22.0469C430.203 20.8203 431.141 19.6992 432.297 18.6875C432.922 18.168 433.567 17.9062 434.234 17.9062C434.723 17.9062 435.219 18.0469 435.719 18.3281C436.227 18.6094 436.52 19.0273 436.594 19.5781C436.801 20.9141 436.453 22.1367 435.547 23.25C435.473 23.3555 435.332 23.4453 435.125 23.5156C435.094 23.5156 435.078 23.5156 435.078 23.5156C435.078 23.5469 435.055 23.5625 435.016 23.5625C434.774 23.5625 434.656 23.4609 434.656 23.25C434.625 23.0742 434.66 22.8984 434.766 22.7188C434.797 22.6563 434.828 22.5859 434.859 22.5C434.898 22.4063 434.938 22.3242 434.969 22.25C435.145 21.9688 435.273 21.668 435.359 21.3437C435.453 21.0117 435.461 20.668 435.391 20.3125C435.317 19.6172 434.984 19.2656 434.391 19.2656C434.109 19.2656 433.836 19.3438 433.578 19.5C433.317 19.6563 433.098 19.8242 432.922 20C431.078 21.6484 429.836 23.7266 429.203 26.2344C428.609 28.5078 429.395 29.6406 431.563 29.6406C431.707 29.6406 431.813 29.6211 431.875 29.5781C431.945 29.5781 432.008 29.5781 432.063 29.5781C432.113 29.5781 432.156 29.5781 432.188 29.5781C433.414 29.4141 434.641 29.0078 435.86 28.3594C437.078 27.7148 438.176 27.0586 439.156 26.3906C439.613 26.0391 440.063 25.6797 440.5 25.3125C440.938 24.9492 441.379 24.5938 441.828 24.25C442.285 23.8984 442.735 23.5469 443.172 23.2031C443.61 22.8516 444.051 22.4961 444.5 22.1406C444.57 22.0781 444.649 22.0117 444.735 21.9375C444.828 21.8672 444.906 21.7969 444.969 21.7344C445.039 21.6641 445.117 21.6016 445.203 21.5469C445.297 21.4961 445.375 21.4531 445.438 21.4219C445.656 21.3516 445.766 21.3125 445.766 21.3125C445.973 21.3125 446.129 21.4023 446.235 21.5781C446.399 21.7891 446.399 22.0469 446.235 22.3594C446.192 22.4336 446.117 22.5234 446.016 22.625C445.984 22.6563 445.942 22.6992 445.891 22.75C445.836 22.8047 445.797 22.8438 445.766 22.875C444.609 23.8555 443.441 24.8203 442.266 25.7656C441.098 26.7031 439.867 27.5938 438.578 28.4375C437.492 29.1367 436.41 29.6953 435.328 30.1094C434.254 30.5273 433.086 30.8086 431.828 30.9531H431.562ZM436.438 16.5938C436.301 16.625 436.16 16.5859 436.016 16.4687C435.879 16.3437 435.828 16.2148 435.859 16.0781C435.859 16.0078 435.863 15.9297 435.875 15.8437C435.894 15.75 435.926 15.6523 435.969 15.5469C436.031 15.4141 436.164 15.125 436.375 14.6875C436.594 14.25 436.832 13.7812 437.094 13.2812C437.352 12.7734 437.551 12.3555 437.687 12.0312C437.758 11.8672 437.848 11.7031 437.953 11.5469C438.055 11.3906 438.195 11.2617 438.375 11.1562C438.445 11.0859 438.551 11.0469 438.687 11.0469C438.789 11.0469 438.859 11.0625 438.891 11.0938C439.066 11.1367 439.176 11.293 439.219 11.5625V11.8281C439.176 11.9336 439.141 12.0313 439.109 12.125C439.078 12.2109 439.039 12.2891 439 12.3594C438.926 12.5273 438.774 12.8516 438.547 13.3281C438.328 13.7969 438.102 14.2617 437.875 14.7188C437.645 15.168 437.5 15.4609 437.438 15.5938C437.258 16.0859 436.926 16.418 436.438 16.5938ZM446.391 30.375C445.961 30.375 445.801 30.1484 445.906 29.6875C446.008 29.2734 446.254 29.0625 446.641 29.0625C447.129 29.0625 447.344 29.2734 447.281 29.6875C447.207 30.1484 446.91 30.375 446.391 30.375Z" fill="black"/>
</svg>
