<svg width="336" height="56" viewBox="0 0 336 56" fill="none" xmlns="http://www.w3.org/2000/svg">
<path d="M9.70415 50.25C8.96196 50.25 8.38383 49.9766 7.96977 49.4375C7.1768 48.4766 7.07133 47.457 7.65727 46.375C8.3643 45.1758 9.34868 44.0156 10.6104 42.8906C11.8799 41.7656 13.0987 40.8516 14.2666 40.1406C14.6807 39.9453 15.0713 39.7187 15.4385 39.4687C15.8135 39.2187 16.2081 38.9687 16.626 38.7187C17.001 38.5117 17.3838 38.2812 17.7823 38.0312C18.1768 37.7812 18.5831 37.5547 19.001 37.3437C19.626 36.9687 20.0713 36.4492 20.3448 35.7812C20.6143 35.1172 20.7901 34.4336 20.876 33.7344C21.126 31.2344 20.0206 29.9453 17.5635 29.8594C16.8526 29.8594 16.1924 29.9219 15.5791 30.0469C15.1182 30.1328 14.6416 30.2344 14.1416 30.3594C13.6416 30.4844 13.1612 30.5898 12.7041 30.6719C12.2041 30.7578 11.7041 30.8594 11.2041 30.9844C10.7041 31.1094 10.2237 31.2148 9.76665 31.2969C9.14946 31.4219 8.50883 31.5469 7.84477 31.6719C7.1768 31.7969 6.50883 31.8594 5.84477 31.8594C4.46977 31.8594 3.3018 31.5273 2.34477 30.8594C1.39555 30.1953 0.735395 29.1719 0.360395 27.7969C0.067426 26.7266 -0.0458552 25.6484 0.0166448 24.5625C0.0791448 23.4805 0.254926 22.3984 0.547895 21.3125C1.08696 18.9922 2.00883 16.6797 3.31352 14.375C4.62602 12.0625 6.18071 9.92187 7.9854 7.95312C9.7979 5.97656 11.7041 4.32031 13.7041 2.98437C14.9541 2.16406 16.3018 1.46094 17.751 0.875001C19.2081 0.29297 20.6807 0 22.1729 0C23.8799 0 25.3838 0.429686 26.6885 1.28125C28.001 2.13672 28.6963 3.45312 28.7823 5.23437C28.8643 6.15234 28.7823 6.96484 28.5323 7.67188C27.751 10.4141 26.4424 13.0078 24.6104 15.4531C24.0245 16.1211 23.3291 16.7773 22.5166 17.4219C21.712 18.0703 20.8331 18.3906 19.876 18.3906C19.6651 18.3906 19.4698 18.3594 19.2823 18.2969C19.0948 18.2344 18.9776 18.0781 18.9385 17.8281C18.8956 17.5391 19.0206 17.2656 19.3135 17.0156C19.3956 16.9336 19.4776 16.8906 19.5635 16.8906C19.6456 16.8906 19.7081 16.8711 19.751 16.8281C20.6651 16.6641 21.5557 16.168 22.4229 15.3438C23.2979 14.5117 24.0987 13.5117 24.8291 12.3437C25.5557 11.1797 26.1416 10.0078 26.5791 8.82813C27.0166 7.64063 27.2354 6.60937 27.2354 5.73437C27.2354 4.23437 26.7354 3.17969 25.7354 2.5625C24.7354 1.9375 23.5674 1.625 22.2354 1.625C21.0791 1.625 19.876 1.85547 18.626 2.3125C17.376 2.76172 16.2745 3.29688 15.3291 3.92187C8.6729 8.20313 4.24321 14.1875 2.0479 21.875C1.83696 22.7109 1.70414 23.5234 1.64164 24.3125C1.57914 25.1055 1.62993 25.8984 1.79789 26.6875C2.21196 29.0937 3.52055 30.2969 5.71977 30.2969C5.88383 30.2969 6.00883 30.2773 6.09477 30.2344C6.13383 30.2344 6.18852 30.2344 6.25102 30.2344C6.31352 30.2344 6.3643 30.2344 6.40727 30.2344C6.65727 30.1953 6.90727 30.1406 7.15727 30.0781C7.40727 30.0156 7.65727 29.9648 7.90727 29.9219C8.15727 29.8828 8.40727 29.8398 8.65727 29.7969C8.90727 29.7578 9.15727 29.7148 9.40727 29.6719C9.85258 29.5898 10.3174 29.4844 10.7979 29.3594C11.2745 29.2344 11.7432 29.1328 12.2041 29.0469C12.6612 28.9648 13.1182 28.8711 13.5791 28.7656C14.0362 28.6641 14.4932 28.5703 14.9541 28.4844C15.4424 28.3594 15.9385 28.2891 16.4385 28.2656C16.9385 28.2461 17.4581 28.2344 18.001 28.2344C19.4581 28.3203 20.587 28.8086 21.3916 29.7031C22.2041 30.6016 22.587 31.7773 22.5479 33.2344C22.5479 33.4844 22.5049 33.7734 22.4229 34.0937C22.337 34.4297 22.3604 34.7422 22.4854 35.0312H22.7354C23.0674 35.0312 23.337 34.9492 23.5479 34.7813C23.6299 34.6992 23.7354 34.625 23.8604 34.5625C23.9854 34.5 24.087 34.4492 24.1729 34.4062L32.4698 30.0469C32.5518 30.0078 32.6573 29.9648 32.7823 29.9219C32.9073 29.8828 33.0323 29.8398 33.1573 29.7969C33.2393 29.7578 33.3448 29.7148 33.4698 29.6719C33.5948 29.6328 33.6963 29.5898 33.7823 29.5469C33.8213 29.5078 33.9073 29.4844 34.0323 29.4844C34.2393 29.4844 34.3994 29.5898 34.5166 29.7969C34.5557 29.8828 34.587 29.9648 34.6104 30.0469C34.6299 30.1328 34.6416 30.2148 34.6416 30.2969C34.6416 30.5078 34.5791 30.6523 34.4541 30.7344C34.2549 30.9453 34.0323 31.1094 33.7823 31.2344C33.6573 31.2773 33.5323 31.3281 33.4073 31.3906C33.2823 31.4531 33.1573 31.5273 33.0323 31.6094C32.2393 32.0273 31.4385 32.4531 30.626 32.8906C29.8135 33.3281 28.9893 33.7734 28.1573 34.2187C26.501 35.1367 24.8174 36.0117 23.1104 36.8437C21.9112 37.4687 21.0401 38.3672 20.501 39.5312C20.126 40.3555 19.5948 41.3086 18.9073 42.3906C18.2198 43.4727 17.4268 44.5391 16.5323 45.5937C15.6456 46.6562 14.712 47.5937 13.7354 48.4062C12.7549 49.2187 11.8291 49.75 10.9541 50C10.6182 50.1641 10.2041 50.25 9.70415 50.25ZM9.82915 48.625C9.99321 48.625 10.0987 48.6016 10.1416 48.5625C10.5557 48.3945 10.9737 48.1875 11.3916 47.9375C12.7237 47.1445 14.0088 46.0078 15.251 44.5312C16.501 43.0625 17.4151 41.5 18.001 39.8437C17.126 40.3359 16.0323 41.0078 14.7198 41.8594C13.4151 42.7148 12.212 43.6172 11.1104 44.5781C10.0049 45.5352 9.29008 46.4687 8.96977 47.375C8.88383 47.707 8.96977 48.0195 9.21977 48.3125C9.41508 48.5195 9.61821 48.625 9.82915 48.625ZM33.587 46.4375C33.001 46.4375 32.544 46.125 32.212 45.5C31.876 44.8828 31.669 44.3281 31.587 43.8281C31.544 43.6172 31.5245 43.4102 31.5245 43.2031C31.5245 42.9961 31.5245 42.8086 31.5245 42.6406C31.5245 42.4336 31.5245 42.2578 31.5245 42.1094C31.5245 41.9648 31.5245 41.8516 31.5245 41.7656C31.5635 40.1953 31.6807 38.7187 31.8682 37.3437C32.0557 35.9687 32.294 34.6211 32.587 33.2969C32.669 32.9648 32.7432 32.6094 32.8057 32.2344C32.8682 31.8594 32.751 31.5078 32.462 31.1719C32.337 31.0078 32.3057 30.8398 32.3682 30.6719C32.4307 30.5078 32.5245 30.3594 32.6495 30.2344C32.8565 29.9453 33.0635 29.6328 33.2745 29.2969C33.4815 28.9648 33.669 28.5898 33.837 28.1719C33.626 28.1719 33.4307 28.1719 33.2432 28.1719C33.0557 28.1719 32.8565 28.1719 32.6495 28.1719C32.4815 28.2148 32.3057 28.2344 32.1182 28.2344C31.9307 28.2344 31.7315 28.2344 31.5245 28.2344H31.337C31.2549 28.1523 31.1807 28.0898 31.1182 28.0469C31.0557 28.0078 31.0049 27.9648 30.962 27.9219C30.8799 27.8398 30.9112 27.7109 31.0557 27.5312C31.2042 27.3437 31.3604 27.25 31.5245 27.25H31.462L32.6495 27.0625H34.212C34.251 26.9805 34.2745 26.9062 34.2745 26.8437C34.2745 26.7813 34.294 26.7305 34.337 26.6875C34.337 26.5625 34.3565 26.4609 34.3994 26.375C34.8448 24.9609 35.4034 23.3594 36.0713 21.5781C36.7354 19.7891 37.4854 17.9805 38.3213 16.1562C39.1534 14.3242 40.044 12.6094 40.9932 11.0156C41.9502 9.41406 42.9698 8.07031 44.0557 6.98437C44.3877 6.73437 44.6807 6.60937 44.9307 6.60937C44.9698 6.60937 45.0245 6.62106 45.0869 6.64062C45.1494 6.66406 45.2432 6.69531 45.3682 6.73438C45.6573 6.85938 45.837 7.03906 45.8994 7.26562C45.962 7.49609 45.9698 7.73437 45.9307 7.98437C45.6377 9.22656 45.126 10.668 44.3994 12.3125C43.669 13.9609 42.8369 15.6484 41.8994 17.375C40.9698 19.0937 40.0284 20.7344 39.0713 22.2969C38.1104 23.8516 37.2784 25.168 36.5713 26.25C36.5284 26.3359 36.4658 26.4375 36.3838 26.5625C36.2979 26.6875 36.2159 26.8359 36.1338 27C36.6338 27 37.0909 26.9922 37.5088 26.9688C37.9229 26.9492 38.3213 26.918 38.6963 26.875C38.9854 26.875 39.1534 26.8984 39.1963 26.9375C39.4854 26.9805 39.5909 27.1484 39.5088 27.4375C39.5088 27.7188 39.3604 27.8828 39.0713 27.9219C38.9854 27.9648 38.8721 28.0078 38.7276 28.0469C38.5791 28.0898 38.4463 28.1094 38.3213 28.1094C38.1104 28.1094 37.8838 28.1094 37.6338 28.1094C37.3838 28.1094 37.1534 28.1094 36.9463 28.1094C36.7354 28.1523 36.5088 28.1719 36.2588 28.1719C36.0088 28.1719 35.7784 28.1719 35.5713 28.1719C35.4854 28.3398 35.4229 28.4961 35.3838 28.6406C35.3409 28.7891 35.2979 28.9023 35.2588 28.9844C34.2276 32.6406 33.544 36.3828 33.2119 40.2031C33.126 40.8281 33.0752 41.4648 33.0557 42.1094C33.0323 42.7578 33.126 43.3906 33.3369 44.0156C33.419 44.3477 33.6065 44.5156 33.8994 44.5156C34.1885 44.5156 34.5596 44.2422 35.0088 43.7031C35.4659 43.1602 35.7784 42.7891 35.9463 42.5781C37.4034 40.7148 38.8994 38.7344 40.4307 36.6406C41.9698 34.5391 43.4307 32.5273 44.8057 30.6094C44.8877 30.4453 45.0557 30.1836 45.3057 29.8281C45.5557 29.4766 45.7823 29.2969 45.9932 29.2969C46.0322 29.2969 46.1807 29.3399 46.4307 29.4219C46.7198 29.5469 46.8252 29.7773 46.7432 30.1094C46.7432 30.4453 46.6573 30.6953 46.4932 30.8594C46.3682 31.1094 46.2198 31.3711 46.0557 31.6406C45.8877 31.9141 45.7198 32.1719 45.5557 32.4219C44.8877 33.2578 44.2198 34.1211 43.5557 35.0156C42.8877 35.9023 42.2198 36.8242 41.5557 37.7813C40.8994 38.7422 40.2276 39.6797 39.5401 40.5938C38.8526 41.5 38.1729 42.3906 37.5088 43.2656C37.2979 43.5977 36.9541 44.0234 36.4776 44.5469C35.9971 45.0664 35.4971 45.5078 34.9776 45.875C34.4659 46.25 34.001 46.4375 33.587 46.4375ZM38.6338 20.7656C38.6338 20.7266 38.6534 20.7031 38.6963 20.7031C38.6963 20.7031 38.6963 20.7266 38.6963 20.7656C39.2784 19.6016 39.8682 18.4219 40.462 17.2344C41.0635 16.0469 41.6807 14.875 42.3057 13.7188L43.9932 10.3438V10.2812C43.9503 10.2422 43.9307 10.1992 43.9307 10.1562C43.9307 10.2422 43.9502 10.3047 43.9932 10.3438C43.7432 10.2617 43.6182 10.2187 43.6182 10.2187C43.4502 10.2187 43.2432 10.3867 42.9932 10.7187C42.1573 12.1367 41.376 13.5625 40.6495 15C39.9307 16.4297 39.2784 17.914 38.6963 19.4531C38.4854 19.9961 38.4659 20.4336 38.6338 20.7656ZM46.2432 40.0156C45.4932 40.0156 44.8252 39.793 44.2432 39.3437C43.6573 38.8867 43.2862 38.2422 43.1182 37.4062C42.9932 36.7812 42.9541 36.2422 42.9932 35.7812C43.0791 34.9062 43.3291 33.9023 43.7432 32.7656C44.1573 31.6211 44.7198 30.5469 45.4307 29.5469C46.1377 28.5469 46.8838 27.9023 47.6651 27.6094C47.9151 27.4961 48.1846 27.4375 48.4776 27.4375C48.8526 27.4805 49.0791 27.6836 49.1651 28.0469C49.2471 28.5469 49.1221 28.8203 48.7901 28.8594C48.0791 28.9844 47.5401 29.2773 47.1651 29.7344C46.7979 30.1953 46.4502 30.6953 46.1182 31.2344C45.5323 32.3594 45.1182 33.418 44.8682 34.4062C44.7002 34.8672 44.6182 35.4687 44.6182 36.2187C44.6182 37.4297 45.0323 38.1367 45.8682 38.3437C46.3682 38.3437 46.7784 38.2812 47.1026 38.1562C47.4346 38.0312 47.7471 37.7187 48.0401 37.2187C48.4541 36.5547 48.7041 35.8867 48.7901 35.2187C48.8721 34.5547 48.6846 33.8711 48.2276 33.1719C47.9776 32.7578 47.7666 32.3398 47.6026 31.9219C47.5166 31.7148 47.5479 31.5156 47.6963 31.3281C47.8409 31.1406 48.0167 31.0273 48.2276 30.9844H50.1651C51.3292 30.9844 52.4932 30.7969 53.6495 30.4219C53.9385 30.3398 54.2315 30.2344 54.5245 30.1094C54.8135 29.9844 55.1065 29.8828 55.3995 29.7969C55.6885 29.7148 55.9698 29.6094 56.2432 29.4844C56.5127 29.3594 56.794 29.2578 57.087 29.1719L58.087 28.9219C58.419 28.9219 58.6885 29.0898 58.8995 29.4219C59.1065 29.9219 58.9385 30.2578 58.3995 30.4219C57.8135 30.6328 57.2315 30.8398 56.6495 31.0469C56.0635 31.2578 55.4815 31.4648 54.8995 31.6719C54.3135 31.8828 53.7198 32.0586 53.1182 32.2031C52.5245 32.3516 51.8917 32.4648 51.2276 32.5469C50.6417 32.6328 50.3213 32.7266 50.2588 32.8281C50.1963 32.9336 50.2042 33.25 50.2901 33.7812C50.5401 34.9922 50.3916 36.1797 49.8526 37.3437C49.4346 38.2187 48.8096 38.9492 47.9776 39.5312C47.3916 39.8555 46.8135 40.0156 46.2432 40.0156ZM57.5245 42.9531C56.6495 42.9531 56.0245 42.4766 55.6495 41.5156C55.4424 40.9336 55.3174 40.3555 55.2745 39.7812C55.1924 39.1992 55.1924 38.6562 55.2745 38.1562C55.5245 36.2812 55.9307 34.4844 56.4932 32.7656C57.0557 31.0391 57.837 29.3828 58.837 27.7969C59.0323 27.4766 59.2588 27.1562 59.5088 26.8437C59.7588 26.5312 60.0284 26.2109 60.3213 25.875C60.5713 25.668 60.8604 25.5234 61.1963 25.4375C61.2354 25.3984 61.3213 25.375 61.4463 25.375C61.6534 25.375 61.8213 25.4609 61.9463 25.625C62.1104 25.875 62.1338 26.125 62.0088 26.375C61.9229 26.5 61.8526 26.6055 61.7901 26.6875C61.7276 26.7734 61.6729 26.8359 61.6338 26.875C60.7979 27.6172 60.0596 28.6523 59.4151 29.9844C58.7784 31.3203 58.2432 32.7031 57.8057 34.1406C57.3682 35.5703 57.0635 36.8438 56.8994 37.9688C56.6885 39.0547 56.794 40.0469 57.212 40.9531C57.294 41.1641 57.462 41.2656 57.712 41.2656C57.794 41.2656 57.8565 41.2461 57.8995 41.2031C58.3135 41.0391 58.8096 40.625 59.3838 39.9688C59.9659 39.3047 60.5479 38.543 61.1338 37.6875C61.7159 36.8359 62.2471 36.0234 62.7276 35.25C63.2041 34.4805 63.5479 33.8906 63.7588 33.4844C63.8409 33.3594 63.9151 33.2344 63.9776 33.1094C64.0401 32.9844 64.0909 32.8594 64.1338 32.7344C64.2159 32.6094 64.2901 32.4844 64.3526 32.3594C64.4151 32.2344 64.4854 32.1328 64.5713 32.0469C64.7354 31.7578 64.9463 31.6094 65.1963 31.6094C65.2276 31.6094 65.2432 31.6094 65.2432 31.6094C65.2432 31.6094 65.2627 31.6094 65.3057 31.6094C65.3448 31.6523 65.3877 31.6719 65.4307 31.6719C65.8448 31.7969 66.0557 32.1094 66.0557 32.6094C66.0127 32.8594 65.9698 33.1211 65.9307 33.3906C65.8877 33.6524 65.8448 33.9297 65.8057 34.2188C65.6807 35.5117 65.8448 36.6992 66.3057 37.7813C66.7627 38.7813 67.3252 39.2813 67.9932 39.2813C68.7823 39.2813 69.4307 38.9375 69.9307 38.25C70.4307 37.5625 70.8213 36.6992 71.1026 35.6563C71.3916 34.6172 71.5909 33.5781 71.6963 32.5469C71.7979 31.5078 71.8526 30.6523 71.8526 29.9844C71.8916 29.7773 71.9346 29.6094 71.9776 29.4844C72.0166 29.3594 72.1416 29.2578 72.3526 29.1719C72.4346 29.1719 72.4971 29.1523 72.5401 29.1094C72.5401 29.1094 72.5479 29.1094 72.5713 29.1094C72.5908 29.1094 72.6221 29.1094 72.6651 29.1094C72.9541 29.1094 73.2041 29.2774 73.4151 29.6094L73.8526 30.2344C74.3096 30.8203 74.8838 31.2578 75.5713 31.5469C76.2588 31.8399 76.9541 31.9844 77.6651 31.9844C78.0284 31.9844 78.3877 31.9531 78.7432 31.8906C79.0948 31.8281 79.4385 31.6953 79.7744 31.4844C79.9815 31.4023 80.1885 31.2969 80.3994 31.1719C80.6065 31.0469 80.8135 30.9024 81.0245 30.7344C81.2315 30.5703 81.4307 30.4219 81.6182 30.2969C81.8057 30.1719 81.9815 30.0469 82.1494 29.9219C82.4815 29.6719 82.7315 29.5469 82.8995 29.5469C83.1065 29.5469 83.294 29.6328 83.462 29.7969C83.9073 30.1328 83.8057 30.5898 83.1494 31.1719C82.3994 31.8398 81.5752 32.4141 80.6807 32.8906C79.7823 33.3711 78.8135 33.6094 77.7744 33.6094C77.0752 33.6094 76.3721 33.5078 75.6651 33.2969C74.9541 33.0898 74.2666 32.8398 73.6026 32.5469C73.4346 32.8398 73.3096 33.1719 73.2276 33.5469C73.1846 33.7031 73.1534 33.875 73.1338 34.0625C73.1104 34.25 73.0791 34.4297 73.0401 34.5938C72.8721 35.7617 72.4854 36.9492 71.8838 38.1563C71.2901 39.3672 70.3877 40.1953 69.1807 40.6406C68.8448 40.8086 68.4073 40.8906 67.8682 40.8906C67.0323 40.8906 66.3135 40.5547 65.7119 39.875C65.1182 39.1875 64.7158 38.4688 64.5088 37.7188C64.4658 37.5117 64.4151 37.3125 64.3526 37.125C64.2901 36.9375 64.1533 36.7813 63.9463 36.6563C63.6104 36.8672 63.3838 37.0938 63.2588 37.3438C63.1729 37.5117 63.0791 37.6563 62.9776 37.7813C62.8721 37.9063 62.7783 38.0547 62.6963 38.2188C62.2783 38.7188 61.9033 39.2188 61.5713 39.7188C61.4033 40 61.2041 40.2656 60.9776 40.5156C60.7471 40.7656 60.5283 41.0156 60.3213 41.2656C59.9463 41.6836 59.5283 42.0703 59.0713 42.4219C58.6221 42.7774 58.1065 42.9531 57.5245 42.9531ZM83.1495 40.0156C82.3995 40.0156 81.7315 39.793 81.1495 39.3437C80.5635 38.8867 80.1924 38.2422 80.0245 37.4062C79.8995 36.7812 79.8604 36.2422 79.8995 35.7812C79.9854 34.9062 80.2354 33.9023 80.6495 32.7656C81.0635 31.6211 81.626 30.5469 82.337 29.5469C83.044 28.5469 83.7901 27.9023 84.5713 27.6094C84.8213 27.4961 85.0909 27.4375 85.3838 27.4375C85.7588 27.4805 85.9854 27.6836 86.0713 28.0469C86.1534 28.5469 86.0284 28.8203 85.6963 28.8594C84.9854 28.9844 84.4463 29.2773 84.0713 29.7344C83.7041 30.1953 83.3565 30.6953 83.0245 31.2344C82.4385 32.3594 82.0245 33.418 81.7745 34.4062C81.6065 34.8672 81.5245 35.4687 81.5245 36.2187C81.5245 37.4297 81.9385 38.1367 82.7745 38.3437C83.2745 38.3437 83.6846 38.2812 84.0088 38.1562C84.3409 38.0312 84.6534 37.7187 84.9463 37.2187C85.3604 36.5547 85.6104 35.8867 85.6963 35.2187C85.7784 34.5547 85.5909 33.8711 85.1338 33.1719C84.8838 32.7578 84.6729 32.3398 84.5088 31.9219C84.4229 31.7148 84.4541 31.5156 84.6026 31.3281C84.7471 31.1406 84.9229 31.0273 85.1338 30.9844H87.0713C88.2354 30.9844 89.3995 30.7969 90.5557 30.4219C90.8448 30.3398 91.1377 30.2344 91.4307 30.1094C91.7198 29.9844 92.0127 29.8828 92.3057 29.7969C92.5948 29.7148 92.876 29.6094 93.1495 29.4844C93.419 29.3594 93.7002 29.2578 93.9932 29.1719L94.9932 28.9219C95.3252 28.9219 95.5948 29.0898 95.8057 29.4219C96.0127 29.9219 95.8448 30.2578 95.3057 30.4219C94.7198 30.6328 94.1377 30.8398 93.5557 31.0469C92.9698 31.2578 92.3877 31.4648 91.8057 31.6719C91.2198 31.8828 90.626 32.0586 90.0245 32.2031C89.4307 32.3516 88.7979 32.4648 88.1338 32.5469C87.5479 32.6328 87.2276 32.7266 87.1651 32.8281C87.1026 32.9336 87.1104 33.25 87.1963 33.7812C87.4463 34.9922 87.2979 36.1797 86.7588 37.3437C86.3409 38.2187 85.7159 38.9492 84.8838 39.5312C84.2979 39.8555 83.7198 40.0156 83.1495 40.0156ZM118.118 42.9531C117.243 42.9531 116.618 42.4766 116.243 41.5156C116.036 40.9336 115.911 40.3555 115.868 39.7812C115.786 39.1992 115.786 38.6562 115.868 38.1562C116.118 36.2812 116.524 34.4844 117.087 32.7656C117.649 31.0391 118.431 29.3828 119.431 27.7969C119.626 27.4766 119.853 27.1562 120.103 26.8437C120.353 26.5312 120.622 26.2109 120.915 25.875C121.165 25.668 121.454 25.5234 121.79 25.4375C121.829 25.3984 121.915 25.375 122.04 25.375C122.247 25.375 122.415 25.4609 122.54 25.625C122.704 25.875 122.728 26.125 122.603 26.375C122.517 26.5 122.446 26.6055 122.384 26.6875C122.321 26.7734 122.267 26.8359 122.228 26.875C121.392 27.6172 120.653 28.6523 120.009 29.9844C119.372 31.3203 118.837 32.7031 118.399 34.1406C117.962 35.5703 117.657 36.8438 117.493 37.9688C117.282 39.0547 117.388 40.0469 117.806 40.9531C117.888 41.1641 118.056 41.2656 118.306 41.2656C118.388 41.2656 118.45 41.2461 118.493 41.2031C118.907 41.0391 119.403 40.625 119.978 39.9688C120.56 39.3047 121.142 38.543 121.728 37.6875C122.31 36.8359 122.841 36.0234 123.321 35.25C123.798 34.4805 124.142 33.8906 124.353 33.4844C124.435 33.3594 124.509 33.2344 124.571 33.1094C124.634 32.9844 124.685 32.8594 124.728 32.7344C124.81 32.6094 124.884 32.4844 124.946 32.3594C125.009 32.2344 125.079 32.1328 125.165 32.0469C125.329 31.7578 125.54 31.6094 125.79 31.6094C125.821 31.6094 125.837 31.6094 125.837 31.6094C125.837 31.6094 125.856 31.6094 125.899 31.6094C125.939 31.6523 125.981 31.6719 126.024 31.6719C126.439 31.7969 126.649 32.1094 126.649 32.6094C126.606 32.8594 126.564 33.1211 126.524 33.3906C126.481 33.6524 126.439 33.9297 126.399 34.2188C126.274 35.5117 126.439 36.6992 126.899 37.7813C127.356 38.7813 127.919 39.2813 128.587 39.2813C129.376 39.2813 130.024 38.9375 130.524 38.25C131.024 37.5625 131.415 36.6992 131.696 35.6563C131.985 34.6172 132.185 33.5781 132.29 32.5469C132.392 31.5078 132.446 30.6523 132.446 29.9844C132.485 29.7773 132.528 29.6094 132.571 29.4844C132.61 29.3594 132.735 29.2578 132.946 29.1719C133.028 29.1719 133.091 29.1523 133.134 29.1094C133.134 29.1094 133.142 29.1094 133.165 29.1094C133.185 29.1094 133.216 29.1094 133.259 29.1094C133.548 29.1094 133.798 29.2774 134.009 29.6094L134.446 30.2344C134.903 30.8203 135.478 31.2578 136.165 31.5469C136.853 31.8399 137.548 31.9844 138.259 31.9844C138.622 31.9844 138.981 31.9531 139.337 31.8906C139.689 31.8281 140.032 31.6953 140.368 31.4844C140.575 31.4023 140.782 31.2969 140.993 31.1719C141.2 31.0469 141.407 30.9024 141.618 30.7344C141.825 30.5703 142.024 30.4219 142.212 30.2969C142.399 30.1719 142.575 30.0469 142.743 29.9219C143.075 29.6719 143.325 29.5469 143.493 29.5469C143.7 29.5469 143.888 29.6328 144.056 29.7969C144.501 30.1328 144.399 30.5898 143.743 31.1719C142.993 31.8398 142.169 32.4141 141.274 32.8906C140.376 33.3711 139.407 33.6094 138.368 33.6094C137.669 33.6094 136.966 33.5078 136.259 33.2969C135.548 33.0898 134.86 32.8398 134.196 32.5469C134.028 32.8398 133.903 33.1719 133.821 33.5469C133.778 33.7031 133.747 33.875 133.728 34.0625C133.704 34.25 133.673 34.4297 133.634 34.5938C133.466 35.7617 133.079 36.9492 132.478 38.1563C131.884 39.3672 130.981 40.1953 129.774 40.6406C129.439 40.8086 129.001 40.8906 128.462 40.8906C127.626 40.8906 126.907 40.5547 126.306 39.875C125.712 39.1875 125.31 38.4688 125.103 37.7188C125.06 37.5117 125.009 37.3125 124.946 37.125C124.884 36.9375 124.747 36.7813 124.54 36.6563C124.204 36.8672 123.978 37.0938 123.853 37.3438C123.767 37.5117 123.673 37.6563 123.571 37.7813C123.466 37.9063 123.372 38.0547 123.29 38.2188C122.872 38.7188 122.497 39.2188 122.165 39.7188C121.997 40 121.798 40.2656 121.571 40.5156C121.341 40.7656 121.122 41.0156 120.915 41.2656C120.54 41.6836 120.122 42.0703 119.665 42.4219C119.216 42.7774 118.7 42.9531 118.118 42.9531ZM143.802 40.8906C142.634 40.8906 141.821 40.293 141.364 39.0937C141.239 38.7617 141.165 38.418 141.146 38.0625C141.122 37.7109 141.114 37.3047 141.114 36.8437C141.278 35.9297 141.466 34.8398 141.677 33.5781C141.884 32.3086 142.165 31.1016 142.521 29.9531C142.872 28.8086 143.321 27.9688 143.864 27.4375C144.071 27.3125 144.232 27.25 144.349 27.25C144.388 27.25 144.536 27.293 144.786 27.375C145.075 27.4922 145.181 27.7148 145.099 28.0469C144.556 29.4219 144.075 30.8711 143.661 32.3906C143.255 33.9023 142.946 35.3867 142.739 36.8437C142.696 37.3047 142.739 37.8437 142.864 38.4687C142.946 38.8047 143.091 39.0117 143.302 39.0937C143.509 39.1797 143.778 39.2188 144.114 39.2188C144.56 39.1367 144.974 38.9922 145.349 38.7813C145.724 38.5742 146.099 38.3242 146.474 38.0313C147.306 37.3242 148.107 36.5937 148.88 35.8437C149.649 35.0937 150.384 34.3086 151.083 33.4844C151.333 33.1953 151.583 32.9023 151.833 32.6094C152.083 32.3203 152.31 32.0273 152.521 31.7344C152.728 31.4453 152.958 31.1523 153.208 30.8594C153.458 30.5703 153.708 30.2773 153.958 29.9844C154.083 29.8203 154.216 29.6719 154.364 29.5469C154.509 29.4219 154.665 29.2969 154.833 29.1719C154.915 29.0898 155.021 29.0469 155.146 29.0469C155.31 29.0469 155.458 29.1094 155.583 29.2344C155.833 29.4023 155.915 29.6523 155.833 29.9844C155.79 30.2344 155.665 30.4648 155.458 30.6719C154.372 32.0898 153.259 33.4648 152.114 34.7969C150.978 36.1211 149.724 37.3672 148.349 38.5313C147.763 39.0742 147.067 39.6055 146.255 40.125C145.442 40.6367 144.622 40.8906 143.802 40.8906ZM145.411 25C144.786 25.0859 144.431 24.6875 144.349 23.8125C144.349 23.0625 144.724 22.6875 145.474 22.6875C146.263 22.6875 146.681 23.0234 146.724 23.6875C146.724 24.0234 146.587 24.3242 146.317 24.5937C146.044 24.8672 145.743 25 145.411 25ZM155.646 40.5156C153.935 40.5156 152.872 39.75 152.458 38.2187C152.333 37.8867 152.231 37.5312 152.146 37.1562C152.064 36.7812 152.044 36.4297 152.083 36.0937C152.044 35.5547 152.075 35.0547 152.177 34.5937C152.282 34.1367 152.396 33.6836 152.521 33.2344C152.896 32.2344 153.403 31.1641 154.052 30.0156C154.696 28.8711 155.462 27.8672 156.349 27C157.243 26.125 158.232 25.6055 159.317 25.4375C159.442 25.4375 159.524 25.418 159.567 25.375C159.607 25.375 159.649 25.375 159.692 25.375C159.732 25.375 159.774 25.375 159.817 25.375C160.442 25.375 160.931 25.5859 161.286 26C161.638 26.418 161.774 26.9766 161.692 27.6719C161.524 28.6719 161.036 29.7031 160.224 30.7656C159.411 31.8281 158.462 32.7266 157.38 33.4531C156.306 34.1719 155.271 34.5938 154.271 34.7188C153.978 34.8047 153.81 34.9922 153.771 35.2813C153.603 35.9492 153.665 36.6797 153.958 37.4688C154.083 38.1797 154.321 38.5938 154.677 38.7188C155.028 38.8438 155.493 38.9063 156.067 38.9063C157.317 38.6563 158.599 38.1055 159.911 37.25C161.224 36.3984 162.333 35.5547 163.239 34.7188C163.614 34.3867 163.989 34.0391 164.364 33.6719C164.739 33.2969 165.114 32.9453 165.489 32.6094C165.821 32.2773 166.177 31.9336 166.552 31.5781C166.927 31.2266 167.302 30.8828 167.677 30.5469C167.759 30.4648 167.864 30.3711 167.989 30.2656C168.114 30.1641 168.216 30.0703 168.302 29.9844C168.372 29.9023 168.462 29.8086 168.567 29.7031C168.669 29.6016 168.763 29.5078 168.849 29.4219C169.056 29.2969 169.224 29.2344 169.349 29.2344C169.513 29.2344 169.661 29.2969 169.786 29.4219C170.118 29.7149 170.181 30.0274 169.974 30.3594C169.931 30.4844 169.763 30.6953 169.474 30.9844C168.724 31.7773 167.786 32.7148 166.661 33.7969C165.544 34.8711 164.341 35.918 163.052 36.9375C161.771 37.9609 160.481 38.8125 159.192 39.5C157.899 40.1797 156.716 40.5156 155.646 40.5156ZM155.083 32.8594C155.614 32.5703 156.263 32.1328 157.036 31.5469C157.806 30.9648 158.493 30.3281 159.099 29.6406C159.7 28.9531 160.005 28.2773 160.005 27.6094C159.962 27.2031 159.774 27.043 159.442 27.125C158.774 27.2109 158.106 27.5625 157.442 28.1875C156.774 28.8047 156.192 29.5078 155.692 30.2969C155.2 31.0898 154.833 31.8203 154.583 32.4844C154.583 32.6953 154.622 32.7969 154.708 32.7969C154.915 32.8828 155.04 32.9023 155.083 32.8594ZM168.985 46.4375C168.399 46.4375 167.942 46.125 167.61 45.5C167.274 44.8828 167.067 44.3281 166.985 43.8281C166.942 43.6172 166.923 43.4102 166.923 43.2031C166.923 42.9961 166.923 42.8086 166.923 42.6406C166.923 42.4336 166.923 42.2578 166.923 42.1094C166.923 41.9648 166.923 41.8516 166.923 41.7656C166.962 40.1953 167.079 38.7187 167.267 37.3437C167.454 35.9687 167.692 34.6211 167.985 33.2969C168.067 32.9648 168.142 32.6094 168.204 32.2344C168.267 31.8594 168.149 31.5078 167.86 31.1719C167.735 31.0078 167.704 30.8398 167.767 30.6719C167.829 30.5078 167.923 30.3594 168.048 30.2344C168.505 29.6523 168.86 29.043 169.11 28.4062C169.36 27.7617 169.587 27.0859 169.798 26.375C170.243 24.9609 170.802 23.3594 171.47 21.5781C172.134 19.7891 172.884 17.9805 173.72 16.1562C174.552 14.3242 175.442 12.6094 176.392 11.0156C177.349 9.41406 178.368 8.07031 179.454 6.98437C179.786 6.73438 180.079 6.60937 180.329 6.60937C180.368 6.60937 180.423 6.62106 180.485 6.64062C180.548 6.66406 180.642 6.69531 180.767 6.73438C181.056 6.85938 181.235 7.03906 181.298 7.26562C181.36 7.49609 181.368 7.73437 181.329 7.98437C181.036 9.22656 180.524 10.668 179.798 12.3125C179.067 13.9609 178.235 15.6484 177.298 17.375C176.368 19.0937 175.427 20.7344 174.47 22.2969C173.509 23.8516 172.677 25.168 171.97 26.25C171.22 27.3242 170.626 28.7148 170.188 30.4219C169.759 32.1328 169.423 33.8711 169.173 35.6406C168.923 37.4023 168.735 38.9219 168.61 40.2031C168.524 40.8281 168.474 41.4648 168.454 42.1094C168.431 42.7578 168.524 43.3906 168.735 44.0156C168.817 44.3477 169.005 44.5156 169.298 44.5156C169.587 44.5156 169.958 44.2422 170.407 43.7031C170.864 43.1602 171.177 42.7891 171.345 42.5781C172.802 40.7148 174.298 38.7344 175.829 36.6406C177.368 34.5391 178.829 32.5273 180.204 30.6094C180.286 30.4453 180.454 30.1836 180.704 29.8281C180.954 29.4766 181.181 29.2969 181.392 29.2969C181.431 29.2969 181.579 29.3398 181.829 29.4219C182.118 29.5469 182.224 29.7773 182.142 30.1094C182.142 30.4453 182.056 30.6953 181.892 30.8594C181.767 31.1094 181.618 31.3711 181.454 31.6406C181.286 31.9141 181.118 32.1719 180.954 32.4219C180.286 33.2578 179.618 34.1211 178.954 35.0156C178.286 35.9023 177.618 36.8242 176.954 37.7812C176.298 38.7422 175.626 39.6797 174.938 40.5937C174.251 41.5 173.571 42.3906 172.907 43.2656C172.696 43.5977 172.352 44.0234 171.876 44.5469C171.395 45.0664 170.895 45.5078 170.376 45.875C169.864 46.25 169.399 46.4375 168.985 46.4375ZM174.032 20.7656C174.032 20.7266 174.052 20.7031 174.095 20.7031C174.095 20.7031 174.095 20.7266 174.095 20.7656C174.677 19.6016 175.267 18.4219 175.86 17.2344C176.462 16.0469 177.079 14.875 177.704 13.7188L179.392 10.3438V10.2812C179.349 10.2422 179.329 10.1992 179.329 10.1562C179.329 10.2422 179.349 10.3047 179.392 10.3438C179.142 10.2617 179.017 10.2187 179.017 10.2187C178.849 10.2187 178.642 10.3867 178.392 10.7187C177.556 12.1367 176.774 13.5625 176.048 15C175.329 16.4297 174.677 17.914 174.095 19.4531C173.884 19.9961 173.864 20.4336 174.032 20.7656ZM181.954 40.5156C180.243 40.5156 179.181 39.75 178.767 38.2187C178.642 37.8867 178.54 37.5312 178.454 37.1562C178.372 36.7812 178.353 36.4297 178.392 36.0937C178.353 35.5547 178.384 35.0547 178.485 34.5937C178.591 34.1367 178.704 33.6836 178.829 33.2344C179.204 32.2344 179.712 31.1641 180.36 30.0156C181.005 28.8711 181.771 27.8672 182.657 27C183.552 26.125 184.54 25.6055 185.626 25.4375C185.751 25.4375 185.833 25.418 185.876 25.375C185.915 25.375 185.958 25.375 186.001 25.375C186.04 25.375 186.083 25.375 186.126 25.375C186.751 25.375 187.239 25.5859 187.595 26C187.946 26.418 188.083 26.9766 188.001 27.6719C187.833 28.6719 187.345 29.7031 186.532 30.7656C185.72 31.8281 184.771 32.7266 183.689 33.4531C182.614 34.1719 181.579 34.5938 180.579 34.7188C180.286 34.8047 180.118 34.9922 180.079 35.2813C179.911 35.9492 179.974 36.6797 180.267 37.4688C180.392 38.1797 180.63 38.5938 180.985 38.7188C181.337 38.8438 181.802 38.9063 182.376 38.9063C183.626 38.6563 184.907 38.1055 186.22 37.25C187.532 36.3984 188.642 35.5547 189.548 34.7188C189.923 34.3867 190.298 34.0391 190.673 33.6719C191.048 33.2969 191.423 32.9453 191.798 32.6094C192.13 32.2773 192.485 31.9336 192.86 31.5781C193.235 31.2266 193.61 30.8828 193.985 30.5469C194.067 30.4648 194.173 30.3711 194.298 30.2656C194.423 30.1641 194.525 30.0703 194.61 29.9844C194.681 29.9023 194.771 29.8086 194.876 29.7031C194.978 29.6016 195.071 29.5078 195.157 29.4219C195.364 29.2969 195.532 29.2344 195.657 29.2344C195.821 29.2344 195.97 29.2969 196.095 29.4219C196.427 29.7149 196.489 30.0274 196.282 30.3594C196.239 30.4844 196.071 30.6953 195.782 30.9844C195.032 31.7773 194.095 32.7148 192.97 33.7969C191.853 34.8711 190.65 35.918 189.36 36.9375C188.079 37.9609 186.79 38.8125 185.501 39.5C184.208 40.1797 183.024 40.5156 181.954 40.5156ZM181.392 32.8594C181.923 32.5703 182.571 32.1328 183.345 31.5469C184.114 30.9648 184.802 30.3281 185.407 29.6406C186.009 28.9531 186.314 28.2773 186.314 27.6094C186.271 27.2031 186.083 27.043 185.751 27.125C185.083 27.2109 184.415 27.5625 183.751 28.1875C183.083 28.8047 182.501 29.5078 182.001 30.2969C181.509 31.0898 181.142 31.8203 180.892 32.4844C180.892 32.6953 180.931 32.7969 181.017 32.7969C181.224 32.8828 181.349 32.9023 181.392 32.8594ZM219.481 55.7969C218.856 55.7969 218.439 55.4414 218.231 54.7344C218.146 54.5234 218.114 54.3047 218.138 54.0781C218.157 53.8477 218.188 53.6094 218.231 53.3594C218.356 52.5781 218.583 51.832 218.919 51.125C219.251 50.4141 219.642 49.7266 220.091 49.0625C220.88 47.8516 221.716 46.6875 222.591 45.5625C223.466 44.4453 224.36 43.3477 225.278 42.2656C225.403 42.1406 225.485 42.0391 225.528 41.9531C225.567 41.8711 225.653 41.7656 225.778 41.6406C226.849 40.3594 226.997 38.9687 226.216 37.4687C226.005 37.0547 225.767 36.7812 225.497 36.6562C225.224 36.5312 224.86 36.4687 224.403 36.4687C223.903 36.5547 223.442 36.6797 223.028 36.8437C222.735 36.8867 222.423 37.0117 222.091 37.2187C222.048 37.2617 221.942 37.2812 221.778 37.2812C221.567 37.2812 221.36 37.1797 221.153 36.9687C220.86 36.6367 220.86 36.3242 221.153 36.0312C221.485 35.5742 221.841 35.1562 222.216 34.7812C223.505 33.3359 224.7 31.7891 225.794 30.1406C226.896 28.4961 227.802 26.7422 228.513 24.875C228.552 24.7109 228.513 24.5625 228.388 24.4375C228.263 24.3125 228.138 24.2734 228.013 24.3125C227.845 24.3555 227.689 24.4063 227.544 24.4687C227.396 24.5313 227.239 24.5859 227.075 24.625C226.7 24.7109 226.372 24.8359 226.091 25C225.591 25.2109 224.954 25.5859 224.185 26.125C223.411 26.668 222.673 27.2305 221.966 27.8125C221.255 28.3867 220.673 28.8398 220.216 29.1719C219.935 29.4219 219.626 29.5469 219.294 29.5469C219.083 29.5469 218.919 29.4648 218.794 29.2969C218.583 28.8398 218.689 28.4219 219.107 28.0469C219.564 27.6016 220.185 27.0742 220.966 26.4687C221.755 25.8672 222.61 25.2617 223.528 24.6562C224.442 24.0547 225.345 23.5547 226.232 23.1562C227.126 22.7617 227.888 22.5625 228.513 22.5625C229.22 22.5625 229.72 22.8242 230.013 23.3437C230.302 23.8672 230.302 24.5859 230.013 25.5C229.97 25.7109 229.896 25.9297 229.794 26.1562C229.688 26.3867 229.595 26.6055 229.513 26.8125C229.427 27.0234 229.325 27.2422 229.2 27.4687C229.075 27.6875 228.97 27.9023 228.888 28.1094C228.345 29.1523 227.751 30.1406 227.107 31.0781C226.47 32.0156 225.798 32.9609 225.091 33.9062C224.673 34.4062 224.798 34.7422 225.466 34.9062C226.122 35.0742 226.638 35.375 227.013 35.8125C227.388 36.25 227.7 36.7617 227.95 37.3437C227.989 37.4297 228.021 37.5234 228.044 37.625C228.063 37.7305 228.095 37.8242 228.138 37.9062C228.138 38.1172 228.22 38.2812 228.388 38.4062C228.638 38.4492 228.864 38.3672 229.075 38.1562C229.157 38.0742 229.239 37.9922 229.325 37.9062C229.407 37.8242 229.489 37.7422 229.575 37.6562C230.989 36.3672 232.392 35.0898 233.778 33.8281C235.173 32.5586 236.599 31.2773 238.06 29.9844C238.224 29.8203 238.396 29.6719 238.575 29.5469C238.763 29.4219 238.981 29.3398 239.231 29.2969H239.419C239.583 29.2969 239.708 29.3398 239.794 29.4219C240.044 29.5898 240.126 29.8398 240.044 30.1719C240.001 30.4219 239.896 30.6211 239.731 30.7656C239.564 30.9141 239.376 31.0703 239.169 31.2344C238.763 31.6523 238.349 32.0469 237.935 32.4219C237.517 32.7969 237.079 33.1719 236.622 33.5469C236.161 33.9141 235.716 34.2812 235.278 34.6562C234.841 35.0312 234.411 35.4297 233.997 35.8437L229.513 40.0156C229.052 40.4336 228.689 40.9023 228.419 41.4219C228.146 41.9453 227.907 42.4961 227.7 43.0781C227.032 45.3164 226.157 47.4531 225.075 49.4844C224.001 51.5234 222.63 53.3789 220.966 55.0469C220.755 55.2969 220.427 55.5234 219.981 55.7344C219.896 55.7734 219.731 55.7969 219.481 55.7969ZM220.278 53.3594C220.36 53.3594 220.466 53.2969 220.591 53.1719C222.466 51.0547 223.817 48.6719 224.653 46.0156C223.817 46.9609 223.005 47.9141 222.216 48.875C221.423 49.832 220.778 50.8945 220.278 52.0625C220.235 52.1875 220.192 52.3047 220.153 52.4219C220.11 52.5469 220.075 52.6914 220.044 52.8594C220.044 53.0664 220.06 53.1914 220.091 53.2344C220.173 53.3164 220.235 53.3594 220.278 53.3594ZM236.614 42.5156C236.114 42.5156 235.825 42.2266 235.739 41.6406C235.7 41.5156 235.677 41.2461 235.677 40.8281C235.802 39.7578 236.013 38.6992 236.302 37.6562C236.595 36.6172 236.907 35.5742 237.239 34.5312C237.528 33.75 237.821 32.9766 238.114 32.2031C238.403 31.4336 238.696 30.6523 238.989 29.8594C239.278 29.0703 239.567 28.293 239.849 27.5312C240.138 26.7617 240.431 25.9805 240.724 25.1875C240.931 24.8984 241.169 24.4492 241.442 23.8437C241.712 23.2422 242.013 22.9375 242.349 22.9375C242.349 22.9375 242.474 22.9805 242.724 23.0625C243.138 23.3125 243.243 23.668 243.036 24.125L242.661 24.875C242.368 25.668 242.067 26.4609 241.755 27.25C241.442 28.0312 241.138 28.8203 240.849 29.6094C240.556 30.4023 240.255 31.2031 239.942 32.0156C239.638 32.8281 239.321 33.625 238.989 34.4062C238.946 34.5742 238.895 34.75 238.833 34.9375C238.771 35.125 238.696 35.3242 238.614 35.5312C238.446 35.8672 238.466 36.2617 238.677 36.7187C238.927 36.1797 239.38 35.4141 240.036 34.4219C240.7 33.4219 241.45 32.3828 242.286 31.2969C243.118 30.2148 243.95 29.3047 244.786 28.5625C245.618 27.8125 246.341 27.4375 246.958 27.4375C247.665 27.4375 248.122 27.7305 248.333 28.3125C248.54 28.8867 248.685 29.4453 248.771 29.9844C248.81 30.2773 248.841 30.5469 248.864 30.7969C248.884 31.0469 248.915 31.2969 248.958 31.5469C248.958 31.7969 248.966 32.0469 248.989 32.2969C249.009 32.5469 249.04 32.7969 249.083 33.0469C249.122 33.7461 249.31 34.3867 249.646 34.9688C249.771 35.3047 250.021 35.4688 250.396 35.4688C250.478 35.4688 250.54 35.4492 250.583 35.4063C250.583 35.4063 250.591 35.4063 250.614 35.4063C250.634 35.4063 250.665 35.4063 250.708 35.4063C251.083 35.2813 251.435 35.1055 251.771 34.875C252.103 34.6484 252.431 34.3867 252.755 34.0937C253.044 33.8555 253.318 33.6094 253.568 33.3594C253.818 33.1094 254.087 32.8398 254.38 32.5469C254.63 32.2969 254.888 32.0469 255.161 31.7969C255.431 31.5469 255.712 31.2969 256.005 31.0469C256.337 30.7578 256.618 30.5078 256.849 30.2969C257.075 30.0898 257.232 29.9453 257.318 29.8594C257.4 29.7773 257.482 29.6953 257.568 29.6094C257.65 29.5273 257.712 29.4648 257.755 29.4219C257.88 29.2969 258.025 29.2344 258.193 29.2344C258.357 29.2344 258.505 29.2969 258.63 29.4219C258.911 29.6719 258.989 29.9648 258.864 30.2969C258.747 30.6328 258.568 30.9219 258.318 31.1719C258.15 31.3398 257.825 31.6406 257.349 32.0781C256.868 32.5156 256.349 32.9961 255.786 33.5156C255.224 34.0273 254.7 34.4922 254.224 34.9062C253.743 35.3242 253.419 35.6172 253.255 35.7812C252.513 36.4922 251.685 36.9297 250.771 37.0938C250.728 37.0938 250.685 37.0938 250.646 37.0938C250.603 37.0938 250.56 37.0938 250.521 37.0938C250.435 37.1367 250.333 37.1562 250.208 37.1562C249.372 37.1562 248.708 36.7187 248.208 35.8437C247.833 35.1367 247.603 34.3711 247.521 33.5469C247.478 33.2148 247.447 32.8906 247.427 32.5781C247.404 32.2656 247.372 31.9648 247.333 31.6719C247.29 31.3828 247.247 31.0781 247.208 30.7656C247.165 30.4531 247.122 30.1523 247.083 29.8594C246.997 29.5273 246.853 29.3594 246.646 29.3594C246.478 29.3594 246.337 29.4219 246.224 29.5469C244.599 31.0078 243.169 32.6523 241.943 34.4844C240.712 36.3086 239.622 38.1953 238.677 40.1406C238.591 40.3086 238.497 40.4844 238.396 40.6719C238.29 40.8594 238.196 41.0586 238.114 41.2656C238.028 41.4766 237.915 41.6641 237.771 41.8281C237.622 41.9961 237.446 42.1641 237.239 42.3281C237.072 42.4531 236.864 42.5156 236.614 42.5156ZM256.13 37.7812C255.298 37.7812 254.841 37.2812 254.755 36.2812C254.755 35.3672 254.954 34.3906 255.349 33.3594C255.747 32.3203 256.243 31.3203 256.849 30.3594C257.45 29.4023 258.067 28.6094 258.692 27.9844C258.856 27.7773 259.165 27.5117 259.614 27.1875C260.278 26.6484 260.966 26.375 261.677 26.375C262.302 26.375 262.927 26.625 263.552 27.125C263.884 27.3359 264.071 27.4375 264.114 27.4375C264.239 27.4375 264.427 27.2734 264.677 26.9375C264.884 26.7305 265.075 26.5 265.255 26.25C265.442 26 265.618 25.75 265.786 25.5C265.95 25.25 266.13 25 266.317 24.75C266.505 24.5 266.681 24.25 266.849 24C266.931 23.918 267.013 23.8125 267.099 23.6875C267.181 23.5625 267.263 23.4375 267.349 23.3125C267.431 23.2305 267.505 23.125 267.567 23C267.63 22.875 267.7 22.7734 267.786 22.6875C268.075 22.3984 268.325 22.25 268.536 22.25C268.536 22.25 268.661 22.293 268.911 22.375C269.325 22.625 269.431 23.043 269.224 23.625C269.181 23.793 269.13 23.9375 269.067 24.0625C269.005 24.1875 268.931 24.3125 268.849 24.4375C268.681 24.7305 268.536 25.0234 268.411 25.3125C268.036 26.1055 267.599 27.0859 267.099 28.25C266.599 29.4063 266.169 30.5781 265.817 31.7656C265.462 32.9531 265.286 34 265.286 34.9062C265.286 35.2812 265.411 35.4688 265.661 35.4688C265.786 35.4688 265.868 35.4492 265.911 35.4063C266.2 35.2813 266.482 35.1562 266.755 35.0312C267.024 34.9062 267.306 34.7617 267.599 34.5937C267.974 34.3437 268.356 34.0898 268.755 33.8281C269.149 33.5586 269.536 33.2578 269.911 32.9219C270.2 32.7148 270.474 32.4844 270.724 32.2344C270.974 31.9844 271.216 31.7578 271.458 31.5469C271.915 31.0898 272.415 30.6523 272.958 30.2344C273.04 30.1523 273.134 30.0703 273.239 29.9844C273.341 29.9023 273.435 29.8203 273.521 29.7344C273.603 29.6523 273.771 29.5273 274.021 29.3594C274.103 29.3203 274.165 29.2891 274.208 29.2656C274.247 29.2461 274.29 29.2344 274.333 29.2344C274.497 29.2344 274.646 29.2969 274.771 29.4219C275.06 29.5898 275.146 29.9023 275.021 30.3594C274.978 30.4023 274.958 30.4336 274.958 30.4531C274.958 30.4766 274.935 30.5078 274.896 30.5469C274.853 30.5898 274.81 30.6328 274.771 30.6719C274.728 30.7148 274.685 30.7578 274.646 30.7969C274.06 31.3828 273.228 32.1641 272.146 33.1406C271.071 34.1094 269.962 34.9922 268.817 35.7813C267.669 36.5742 266.661 37.0547 265.786 37.2188C265.7 37.2617 265.513 37.2813 265.224 37.2813C264.192 37.2813 263.677 36.6797 263.677 35.4688C263.677 34.6367 263.759 33.8086 263.927 32.9844C264.091 32.1523 264.278 31.3203 264.489 30.4844C264.028 30.6953 263.716 30.9023 263.552 31.1094C263.466 31.2344 263.364 31.3594 263.239 31.4844C263.114 31.6094 263.009 31.7148 262.927 31.7969C262.216 32.6328 261.509 33.4336 260.802 34.2031C260.091 34.9648 259.349 35.6992 258.567 36.4063C258.274 36.6563 257.899 36.9492 257.442 37.2813C256.982 37.6172 256.544 37.7812 256.13 37.7812ZM256.692 35.5312C256.942 35.5312 257.13 35.4687 257.255 35.3437C258.255 34.5117 259.185 33.6016 260.052 32.6094C260.927 31.6094 261.778 30.5898 262.614 29.5469C262.653 29.5078 262.696 29.4648 262.739 29.4219C262.778 29.3828 262.821 29.3203 262.864 29.2344C262.989 28.8203 262.903 28.5273 262.614 28.3594C262.278 28.1523 261.989 28.0469 261.739 28.0469C261.528 28.0469 261.271 28.1328 260.958 28.2969C260.646 28.4648 260.403 28.6328 260.239 28.7969C258.29 30.5078 257.067 32.7109 256.567 35.4062L256.63 35.4687C256.669 35.4687 256.692 35.4922 256.692 35.5312ZM275.884 40.5781C274.142 40.5781 272.931 40.1172 272.243 39.1875C271.556 38.25 271.255 37.1172 271.337 35.7812C271.337 35.5742 271.349 35.3984 271.368 35.25C271.392 35.1055 271.423 34.9492 271.462 34.7812C271.923 33.043 272.575 31.4453 273.431 29.9844C274.282 28.5273 275.392 27.1992 276.759 26C277.509 25.375 278.278 25.0625 279.071 25.0625C279.653 25.0625 280.243 25.2305 280.837 25.5625C281.438 25.8984 281.782 26.3984 281.868 27.0625C282.118 28.6367 281.704 30.0898 280.634 31.4219C280.548 31.5469 280.384 31.6523 280.134 31.7344C280.091 31.7344 280.071 31.7344 280.071 31.7344C280.071 31.7773 280.048 31.7969 280.009 31.7969C279.716 31.7969 279.571 31.6719 279.571 31.4219C279.528 31.2148 279.571 31.0078 279.696 30.7969C279.735 30.7148 279.778 30.6211 279.821 30.5156C279.86 30.4141 279.903 30.3203 279.946 30.2344C280.153 29.9023 280.31 29.5391 280.415 29.1406C280.517 28.7461 280.528 28.3398 280.446 27.9219C280.36 27.1016 279.966 26.6875 279.259 26.6875C278.923 26.6875 278.602 26.7813 278.29 26.9687C277.977 27.1562 277.716 27.3516 277.509 27.5469C275.31 29.5078 273.837 31.9805 273.087 34.9687C272.376 37.6797 273.31 39.0312 275.884 39.0312C276.048 39.0312 276.173 39.0117 276.259 38.9687C276.341 38.9687 276.415 38.9687 276.477 38.9687C276.54 38.9687 276.591 38.9687 276.634 38.9687C278.091 38.7617 279.544 38.2734 280.993 37.5C282.45 36.7305 283.763 35.9492 284.931 35.1562C285.47 34.7422 286.001 34.3203 286.524 33.8906C287.044 33.4531 287.571 33.0273 288.102 32.6094C288.642 32.1953 289.173 31.7773 289.696 31.3594C290.216 30.9453 290.747 30.5273 291.29 30.1094C291.372 30.0273 291.466 29.9453 291.571 29.8594C291.673 29.7773 291.767 29.6953 291.852 29.6094C291.934 29.5273 292.028 29.4531 292.134 29.3906C292.235 29.3281 292.329 29.2773 292.415 29.2344C292.665 29.1523 292.79 29.1094 292.79 29.1094C293.04 29.1094 293.227 29.2148 293.352 29.4219C293.56 29.6719 293.56 29.9844 293.352 30.3594C293.309 30.4453 293.227 30.5469 293.102 30.6719C293.059 30.7148 293.009 30.7656 292.946 30.8281C292.884 30.8906 292.829 30.9453 292.79 30.9844C291.415 32.1523 290.028 33.2969 288.634 34.4219C287.247 35.5391 285.782 36.5937 284.243 37.5937C282.95 38.4297 281.657 39.0937 280.368 39.5937C279.087 40.0859 277.696 40.4141 276.196 40.5781H275.884ZM292.974 55.7969C292.349 55.7969 291.931 55.4414 291.724 54.7344C291.638 54.5234 291.606 54.3047 291.63 54.0781C291.649 53.8477 291.681 53.6094 291.724 53.3594C291.849 52.5781 292.075 51.832 292.411 51.125C292.743 50.4141 293.134 49.7266 293.583 49.0625C294.372 47.8516 295.208 46.6875 296.083 45.5625C296.958 44.4453 297.853 43.3477 298.771 42.2656C298.896 42.1406 298.978 42.0391 299.021 41.9531C299.06 41.8711 299.146 41.7656 299.271 41.6406C300.341 40.3594 300.489 38.9687 299.708 37.4687C299.497 37.0547 299.259 36.7812 298.989 36.6562C298.716 36.5312 298.353 36.4687 297.896 36.4687C297.396 36.5547 296.935 36.6797 296.521 36.8437C296.228 36.8867 295.915 37.0117 295.583 37.2187C295.54 37.2617 295.435 37.2812 295.271 37.2812C295.06 37.2812 294.853 37.1797 294.646 36.9687C294.353 36.6367 294.353 36.3242 294.646 36.0312C294.978 35.5742 295.333 35.1562 295.708 34.7812C296.997 33.3359 298.192 31.7891 299.286 30.1406C300.388 28.4961 301.294 26.7422 302.005 24.875C302.044 24.7109 302.005 24.5625 301.88 24.4375C301.755 24.3125 301.63 24.2734 301.505 24.3125C301.337 24.3555 301.181 24.4063 301.036 24.4687C300.888 24.5313 300.732 24.5859 300.567 24.625C300.192 24.7109 299.864 24.8359 299.583 25C299.083 25.2109 298.446 25.5859 297.677 26.125C296.903 26.668 296.165 27.2305 295.458 27.8125C294.747 28.3867 294.165 28.8398 293.708 29.1719C293.427 29.4219 293.118 29.5469 292.786 29.5469C292.575 29.5469 292.411 29.4648 292.286 29.2969C292.075 28.8398 292.181 28.4219 292.599 28.0469C293.056 27.6016 293.677 27.0742 294.458 26.4687C295.247 25.8672 296.103 25.2617 297.021 24.6562C297.935 24.0547 298.837 23.5547 299.724 23.1562C300.618 22.7617 301.38 22.5625 302.005 22.5625C302.712 22.5625 303.212 22.8242 303.505 23.3437C303.794 23.8672 303.794 24.5859 303.505 25.5C303.462 25.7109 303.388 25.9297 303.286 26.1562C303.181 26.3867 303.087 26.6055 303.005 26.8125C302.919 27.0234 302.817 27.2422 302.692 27.4687C302.567 27.6875 302.462 27.9023 302.38 28.1094C301.837 29.1523 301.243 30.1406 300.599 31.0781C299.962 32.0156 299.29 32.9609 298.583 33.9062C298.165 34.4062 298.29 34.7422 298.958 34.9062C299.614 35.0742 300.13 35.375 300.505 35.8125C300.88 36.25 301.192 36.7617 301.442 37.3437C301.482 37.4297 301.513 37.5234 301.536 37.625C301.556 37.7305 301.587 37.8242 301.63 37.9062C301.63 38.1172 301.712 38.2812 301.88 38.4062C302.13 38.4492 302.356 38.3672 302.567 38.1562C302.649 38.0742 302.731 37.9922 302.817 37.9062C302.899 37.8242 302.982 37.7422 303.067 37.6562C304.481 36.3672 305.884 35.0898 307.271 33.8281C308.665 32.5586 310.091 31.2773 311.552 29.9844C311.716 29.8203 311.888 29.6719 312.067 29.5469C312.255 29.4219 312.474 29.3398 312.724 29.2969H312.911C313.075 29.2969 313.2 29.3398 313.286 29.4219C313.536 29.5898 313.618 29.8398 313.536 30.1719C313.493 30.4219 313.388 30.6211 313.224 30.7656C313.056 30.9141 312.868 31.0703 312.661 31.2344C312.255 31.6523 311.841 32.0469 311.427 32.4219C311.009 32.7969 310.571 33.1719 310.114 33.5469C309.653 33.9141 309.208 34.2812 308.771 34.6562C308.333 35.0312 307.903 35.4297 307.489 35.8437L303.005 40.0156C302.544 40.4336 302.181 40.9023 301.911 41.4219C301.638 41.9453 301.399 42.4961 301.192 43.0781C300.524 45.3164 299.649 47.4531 298.567 49.4844C297.493 51.5234 296.122 53.3789 294.458 55.0469C294.247 55.2969 293.919 55.5234 293.474 55.7344C293.388 55.7734 293.224 55.7969 292.974 55.7969ZM293.771 53.3594C293.853 53.3594 293.958 53.2969 294.083 53.1719C295.958 51.0547 297.31 48.6719 298.146 46.0156C297.31 46.9609 296.497 47.9141 295.708 48.875C294.915 49.832 294.271 50.8945 293.771 52.0625C293.728 52.1875 293.685 52.3047 293.646 52.4219C293.603 52.5469 293.567 52.6914 293.536 52.8594C293.536 53.0664 293.552 53.1914 293.583 53.2344C293.665 53.3164 293.728 53.3594 293.771 53.3594ZM318.845 55.4844C318.302 55.4844 317.864 55.1719 317.532 54.5469C316.989 53.5859 316.907 52.6562 317.282 51.75C317.782 50.25 318.399 48.8203 319.142 47.4687C319.892 46.125 320.704 44.7852 321.579 43.4531C321.993 42.7891 322.286 42.0391 322.454 41.2031C322.536 40.4961 322.618 39.8047 322.704 39.125C322.786 38.4375 322.868 37.7617 322.954 37.0937C323.036 36.3867 323.13 35.6875 323.235 35C323.337 34.3125 323.431 33.6211 323.517 32.9219L324.079 28.4844C324.118 28.4023 324.142 28.1953 324.142 27.8594C324.142 27.6953 324.079 27.6094 323.954 27.6094C323.829 27.5391 323.704 27.5586 323.579 27.6719L322.267 29.2344C321.224 30.5273 320.142 31.7148 319.017 32.7969C317.899 33.8711 316.657 34.8672 315.282 35.7812C315.032 35.9492 314.782 36.0625 314.532 36.125C314.282 36.1875 314.032 36.2422 313.782 36.2812C312.958 36.2812 312.399 36.043 312.11 35.5625C311.817 35.0859 311.673 34.4766 311.673 33.7344C311.673 32.3594 311.868 30.918 312.267 29.4062C312.661 27.8867 313.314 26.5859 314.22 25.5C314.427 25.293 314.657 25.1875 314.907 25.1875C314.946 25.1875 315.001 25.1992 315.064 25.2187C315.126 25.2422 315.22 25.2734 315.345 25.3125C315.759 25.5625 315.802 25.918 315.47 26.375C314.884 27.1563 314.458 27.9961 314.188 28.8906C313.915 29.7891 313.681 30.7148 313.485 31.6719C313.4 32.0078 313.349 32.3398 313.329 32.6719C313.306 33.0078 313.298 33.3398 313.298 33.6719C313.212 34.2461 313.396 34.5312 313.845 34.5312C314.009 34.5312 314.22 34.4688 314.47 34.3437C314.634 34.2617 314.79 34.1562 314.939 34.0312C315.083 33.9062 315.239 33.8086 315.407 33.7344C315.571 33.6523 315.728 33.5469 315.876 33.4219C316.021 33.2969 316.177 33.1953 316.345 33.1094C317.134 32.5273 317.876 31.8594 318.564 31.1094C319.251 30.3594 319.923 29.5703 320.579 28.7344C320.868 28.4023 321.161 28.0547 321.454 27.6875C321.743 27.3125 322.036 26.9375 322.329 26.5625C322.618 26.2305 322.899 25.875 323.173 25.5C323.442 25.125 323.724 24.7734 324.017 24.4375C324.099 24.3555 324.192 24.25 324.298 24.125C324.4 24 324.493 23.8984 324.579 23.8125C324.786 23.6055 325.017 23.5 325.267 23.5C325.306 23.5 325.329 23.5 325.329 23.5C325.329 23.5 325.349 23.5 325.392 23.5C325.431 23.543 325.474 23.5625 325.517 23.5625C326.048 23.6875 326.228 24.2734 326.064 25.3125C325.989 26.1055 325.899 26.8984 325.798 27.6875C325.692 28.4687 325.599 29.2578 325.517 30.0469C325.431 30.8398 325.329 31.6406 325.204 32.4531C325.079 33.2656 324.974 34.0625 324.892 34.8437L324.517 38.4687C324.556 38.4687 324.704 38.5117 324.954 38.5937C325.536 37.8437 326.126 37.0937 326.72 36.3437C327.321 35.5937 327.915 34.8437 328.501 34.0937C329.083 33.3984 329.677 32.6719 330.282 31.9219C330.884 31.1719 331.521 30.4453 332.189 29.7344C332.384 29.4844 332.61 29.2578 332.86 29.0469C333.067 28.9219 333.235 28.8594 333.36 28.8594C333.524 28.8594 333.673 28.9219 333.798 29.0469C334.087 29.3398 334.149 29.6328 333.985 29.9219C333.817 30.2148 333.618 30.4844 333.392 30.7344C333.161 30.9844 332.942 31.2578 332.735 31.5469C331.411 33.0781 330.114 34.6484 328.845 36.25C327.571 37.8555 326.337 39.4844 325.142 41.1406C324.181 42.3516 323.579 43.6797 323.329 45.1406C323.243 45.7226 323.079 46.582 322.829 47.7187C322.579 48.8633 322.267 50.0234 321.892 51.2031C321.517 52.3906 321.067 53.3984 320.548 54.2344C320.036 55.0664 319.47 55.4844 318.845 55.4844ZM319.095 53.1094C319.259 53.1094 319.364 53.0469 319.407 52.9219C319.446 52.7969 319.509 52.6562 319.595 52.5L320.517 49.8125C320.724 49.2266 320.704 48.7266 320.454 48.3125C320.329 48.6016 320.192 48.9141 320.048 49.25C319.9 49.582 319.751 49.9141 319.595 50.25L318.845 52.125C318.759 52.2891 318.708 52.4609 318.689 52.6406C318.665 52.8281 318.739 52.9609 318.907 53.0469C318.946 53.0859 319.009 53.1094 319.095 53.1094ZM334.118 39.9062C333.618 39.9062 333.431 39.6367 333.556 39.0937C333.681 38.5937 333.966 38.3437 334.415 38.3437C334.997 38.3437 335.247 38.5937 335.165 39.0937C335.079 39.6367 334.731 39.9062 334.118 39.9062Z" fill="black"/>
</svg>
