<svg width="345" height="56" viewBox="0 0 345 56" fill="none" xmlns="http://www.w3.org/2000/svg">
<path d="M0.5625 53.6875C0.1875 53.5625 0 53.2266 0 52.6875C0 51.8125 0.0624993 50.9375 0.1875 50.0625C1.17969 41.1641 3.07031 32.4805 5.85937 24C6.14844 23.2109 6.5 22.2461 6.90625 21.1094C7.32031 19.9648 7.76953 18.8359 8.25 17.7188C8.72656 16.5937 9.15625 15.6797 9.53125 14.9688C9.65625 14.7188 9.86328 14.5937 10.1563 14.5937C10.2813 14.5937 10.3633 14.6172 10.4063 14.6562C10.7813 14.7812 10.8633 15.0742 10.6562 15.5312C10.6562 15.5312 10.6133 15.6562 10.5312 15.9062C8.94531 19.6875 7.58203 23.5234 6.4375 27.4062C5.30078 31.293 4.31641 35.25 3.48437 39.2812C3.44531 39.4883 3.40234 39.7187 3.35937 39.9687C3.32031 40.2187 3.25781 40.4687 3.17187 40.7187C3.04687 41.25 3.00781 41.7656 3.04687 42.2656C3.33984 42.0977 3.53906 41.8984 3.64062 41.6719C3.74219 41.4414 3.83594 41.2266 3.92187 41.0312C4.12891 40.5703 4.35938 40.082 4.60938 39.5625C4.85938 39.0391 5.12891 38.4453 5.42187 37.7812C6.00391 36.5312 6.67578 35.2031 7.4375 33.7969C8.20703 32.3828 9.05078 30.9453 9.96875 29.4844C10.4258 28.7891 10.8945 28.0937 11.375 27.4062C11.8516 26.7187 12.3203 26.0859 12.7812 25.5C13.7266 24.293 14.7031 23.2656 15.7031 22.4219C16.7031 21.5703 17.6602 21.0391 18.5781 20.8281C18.9531 20.7031 19.2578 20.6406 19.5 20.6406C20.457 20.6406 21.082 21.2031 21.375 22.3281C21.582 22.9023 21.6641 23.4687 21.625 24.0312C21.582 24.5937 21.5195 25.168 21.4375 25.75C21.3945 26.125 21.5195 26.3125 21.8125 26.3125C21.9375 26.3125 22.0195 26.293 22.0625 26.25C22.1445 26.2109 22.2383 26.168 22.3437 26.125C22.4453 26.0859 22.5391 26.043 22.625 26C22.707 25.9609 22.8008 25.918 22.9062 25.875C23.0078 25.8359 23.1016 25.793 23.1875 25.75L27.5469 24.0625C27.6289 24.0234 27.7344 23.9805 27.8594 23.9375C27.9844 23.8984 28.1289 23.8555 28.2969 23.8125C28.4219 23.7734 28.5352 23.7422 28.6406 23.7187C28.7422 23.6992 28.8359 23.6875 28.9219 23.6875C29.4219 23.6055 29.7109 23.8359 29.7969 24.375C29.8359 24.793 29.6719 25.0625 29.2969 25.1875C29.0039 25.2734 28.7344 25.3672 28.4844 25.4687C28.2344 25.5742 27.9609 25.668 27.6719 25.75C27.3789 25.8359 27.1094 25.9375 26.8594 26.0625C26.6094 26.1875 26.3359 26.293 26.0469 26.375C25.7539 26.5 25.4531 26.625 25.1406 26.75C24.8359 26.875 24.5195 27.0234 24.1875 27.1875C23.8945 27.3555 23.5938 27.5 23.2813 27.625C22.9688 27.75 22.6445 27.875 22.3125 28C21.3516 28.418 20.6445 29.1836 20.1875 30.2969C19.8516 31.2148 19.3125 32.2656 18.5625 33.4531C17.8203 34.6328 16.9727 35.7109 16.0156 36.6875C15.0547 37.668 14.0977 38.3437 13.1406 38.7187C12.8594 38.8828 12.5508 38.9687 12.2187 38.9687C11.7187 38.9687 11.3125 38.7812 11 38.4062C10.6875 38.0312 10.5703 37.5547 10.6562 36.9687C10.7812 35.9687 11.2969 34.9219 12.2031 33.8281C13.1172 32.7266 14.1602 31.6953 15.3281 30.7344C16.4922 29.7773 17.4727 29.0547 18.2656 28.5625C19.1289 28.0234 19.6016 27.25 19.6875 26.25C19.7266 25.9609 19.7695 25.6875 19.8125 25.4375C19.8516 25.1875 19.8945 24.918 19.9375 24.625C20.0195 24.043 20 23.5 19.875 23C19.75 22.5937 19.5234 22.3906 19.2031 22.3906C18.9922 22.3906 18.8672 22.4141 18.8281 22.4531C17.9102 22.8594 17.1172 23.3984 16.4531 24.0625C14.8672 25.4375 13.3281 27.25 11.8281 29.5C10.3359 31.7422 8.95703 34.1719 7.6875 36.7969C6.42578 39.4102 5.31641 41.9922 4.35937 44.5469C3.40234 47.0977 2.65234 49.375 2.10938 51.375C2.07031 51.582 1.99609 51.8203 1.89062 52.0937C1.78906 52.3633 1.69531 52.6445 1.60938 52.9375C1.44531 53.4375 1.09375 53.6875 0.5625 53.6875ZM12.7812 37.0312C12.8203 37.0312 12.8633 37.0234 12.9062 37C12.9453 36.9805 13.0078 36.9492 13.0937 36.9063C14.082 36.1992 14.9844 35.4141 15.7969 34.5469C16.6094 33.6719 17.2422 32.6328 17.7031 31.4219C17.9102 31.3398 17.9531 31.2344 17.8281 31.1094C17.7422 30.9844 17.6602 31.0273 17.5781 31.2344C16.4531 31.8203 15.4922 32.5586 14.7031 33.4531C13.9102 34.3516 13.1641 35.3125 12.4687 36.3437C12.3828 36.6797 12.4062 36.8672 12.5312 36.9063C12.6133 36.9922 12.6953 37.0312 12.7812 37.0312ZM26.4844 39.1562C26.4453 39.1562 26.4141 39.1562 26.3906 39.1562C26.3711 39.1562 26.3398 39.1562 26.2969 39.1562C26.2969 39.1133 26.2578 39.0937 26.1719 39.0937C25.7578 38.9687 25.5078 38.6562 25.4219 38.1562C25.4219 38.0312 25.4219 37.9062 25.4219 37.7812C25.4219 37.6562 25.4023 37.5117 25.3594 37.3437C25.3594 37.2187 25.3594 37.0937 25.3594 36.9687C25.3594 36.8437 25.3828 36.6992 25.4219 36.5312C25.8398 33.75 26.4648 31.2422 27.2969 29C28.1289 26.75 29.082 24.3828 30.1562 21.8906C30.2383 21.7266 30.3203 21.5703 30.4062 21.4219C30.4883 21.2773 30.5703 21.1406 30.6562 21.0156C30.7812 20.8906 30.9687 20.8281 31.2187 20.8281H31.4062C31.7383 20.9531 31.8828 21.1641 31.8437 21.4531C31.8437 21.8281 31.7383 22.2813 31.5312 22.8125C31.2812 23.4375 31.0195 24.0625 30.75 24.6875C30.4765 25.3125 30.1953 25.9375 29.9062 26.5625C29.5 27.5234 29.1289 28.4805 28.7969 29.4375C28.4609 30.3867 28.1719 31.3398 27.9219 32.2969C27.8359 32.6328 27.7656 32.9648 27.7031 33.2969C27.6406 33.6328 27.6914 33.9648 27.8594 34.2969H27.7969L27.8594 34.3594L30.2812 29.4219C30.7812 28.4766 31.4062 27.5117 32.1562 26.5312C32.9062 25.5547 33.7578 24.7734 34.7187 24.1875C34.9687 24.0625 35.2187 24 35.4687 24C35.957 24 36.3476 24.25 36.6406 24.75C36.7226 24.8359 36.7969 24.9375 36.8594 25.0625C36.9219 25.1875 36.9726 25.3125 37.0156 25.4375C37.0547 25.6875 37.1601 25.9375 37.3281 26.1875C37.7851 26.9375 38.2851 27.3125 38.8281 27.3125C39.2031 27.3125 39.6601 27.1484 40.2031 26.8125C40.7422 26.4805 41.289 26.1055 41.8437 25.6875C42.4062 25.2734 42.8515 24.918 43.1875 24.625C43.4375 24.375 43.707 24.168 44 24C44.0391 23.9609 44.125 23.9375 44.25 23.9375C44.414 23.9375 44.582 24 44.75 24.125C45 24.375 45.0625 24.625 44.9375 24.875C44.7695 25.2109 44.582 25.4805 44.375 25.6875C44 26.0625 43.4765 26.5117 42.8125 27.0312C42.1562 27.5547 41.4726 28 40.7656 28.375C40.0547 28.7422 39.4101 28.9219 38.8281 28.9219C37.7851 28.9219 36.9297 28.4687 36.2656 27.5625C36.1797 27.4375 36.0976 27.3125 36.0156 27.1875C35.9414 27.0625 35.8633 26.9375 35.7812 26.8125C35.7383 26.6875 35.6758 26.5625 35.5937 26.4375C35.5078 26.3125 35.4258 26.1875 35.3437 26.0625C35.0508 26.0625 34.832 26.125 34.6875 26.25C34.539 26.375 34.4062 26.5234 34.2812 26.6875C33.6953 27.2734 33.1758 27.9063 32.7187 28.5938C32.2578 29.2734 31.8437 29.9648 31.4687 30.6719C31.2187 31.1719 30.9687 31.6719 30.7187 32.1719C30.4687 32.6719 30.2383 33.1719 30.0312 33.6719C29.789 34.1719 29.5469 34.6719 29.2969 35.1719C29.0469 35.6641 28.7734 36.1797 28.4844 36.7187C28.3164 37.0547 28.1406 37.375 27.9531 37.6875C27.7656 38 27.5664 38.3203 27.3594 38.6562C27.1484 38.9883 26.8594 39.1562 26.4844 39.1562ZM44.4453 50.75C43.8203 50.75 43.4023 50.3945 43.1953 49.6875C43.1094 49.4766 43.0781 49.2578 43.1016 49.0312C43.1211 48.8008 43.1523 48.5625 43.1953 48.3125C43.3203 47.5312 43.5469 46.7852 43.8828 46.0781C44.2148 45.3672 44.6055 44.6797 45.0547 44.0156C45.8437 42.8047 46.6797 41.6406 47.5547 40.5156C48.4297 39.3984 49.3242 38.3008 50.2422 37.2187C50.3672 37.0937 50.4492 36.9922 50.4922 36.9063C50.5313 36.8242 50.6172 36.7187 50.7422 36.5937C51.8125 35.3125 51.9609 33.9219 51.1797 32.4219C50.9687 32.0078 50.7305 31.7344 50.4609 31.6094C50.1875 31.4844 49.8242 31.4219 49.3672 31.4219C48.8672 31.5078 48.4062 31.6328 47.9922 31.7969C47.6992 31.8398 47.3867 31.9648 47.0547 32.1719C47.0117 32.2148 46.9062 32.2344 46.7422 32.2344C46.5312 32.2344 46.3242 32.1328 46.1172 31.9219C45.8242 31.5898 45.8242 31.2773 46.1172 30.9844C46.4492 30.5273 46.8047 30.1094 47.1797 29.7344C48.4687 28.2891 49.6641 26.7422 50.7578 25.0937C51.8594 23.4492 52.7656 21.6953 53.4766 19.8281C53.5156 19.6641 53.4766 19.5156 53.3516 19.3906C53.2266 19.2656 53.1016 19.2266 52.9766 19.2656C52.8086 19.3086 52.6523 19.3594 52.5078 19.4219C52.3594 19.4844 52.2031 19.5391 52.0391 19.5781C51.6641 19.6641 51.3359 19.7891 51.0547 19.9531C50.5547 20.1641 49.918 20.5391 49.1484 21.0781C48.375 21.6211 47.6367 22.1836 46.9297 22.7656C46.2187 23.3398 45.6367 23.793 45.1797 24.125C44.8984 24.375 44.5898 24.5 44.2578 24.5C44.0469 24.5 43.8828 24.418 43.7578 24.25C43.5469 23.793 43.6523 23.375 44.0703 23C44.5273 22.5547 45.1484 22.0273 45.9297 21.4219C46.7187 20.8203 47.5742 20.2148 48.4922 19.6094C49.4062 19.0078 50.3086 18.5078 51.1953 18.1094C52.0898 17.7148 52.8516 17.5156 53.4766 17.5156C54.1836 17.5156 54.6836 17.7773 54.9766 18.2969C55.2656 18.8203 55.2656 19.5391 54.9766 20.4531C54.9336 20.6641 54.8594 20.8828 54.7578 21.1094C54.6523 21.3398 54.5586 21.5586 54.4766 21.7656C54.3906 21.9766 54.2891 22.1953 54.1641 22.4219C54.0391 22.6406 53.9336 22.8555 53.8516 23.0625C53.3086 24.1055 52.7148 25.0937 52.0703 26.0312C51.4336 26.9687 50.7617 27.9141 50.0547 28.8594C49.6367 29.3594 49.7617 29.6953 50.4297 29.8594C51.0859 30.0273 51.6016 30.3281 51.9766 30.7656C52.3516 31.2031 52.6641 31.7148 52.9141 32.2969C52.9531 32.3828 52.9844 32.4766 53.0078 32.5781C53.0273 32.6836 53.0586 32.7773 53.1016 32.8594C53.1016 33.0703 53.1836 33.2344 53.3516 33.3594C53.6016 33.4023 53.8281 33.3203 54.0391 33.1094C54.1211 33.0273 54.2031 32.9453 54.2891 32.8594C54.3711 32.7773 54.4531 32.6953 54.5391 32.6094C55.9531 31.3203 57.3555 30.043 58.7422 28.7812C60.1367 27.5117 61.5625 26.2305 63.0234 24.9375C63.1875 24.7734 63.3594 24.625 63.5391 24.5C63.7266 24.375 63.9453 24.293 64.1953 24.25H64.3828C64.5469 24.25 64.6719 24.293 64.7578 24.375C65.0078 24.543 65.0899 24.793 65.0078 25.125C64.9649 25.375 64.8594 25.5742 64.6953 25.7187C64.5274 25.8672 64.3399 26.0234 64.1328 26.1875C63.7266 26.6055 63.3125 27 62.8984 27.375C62.4805 27.75 62.043 28.125 61.5859 28.5C61.125 28.8672 60.6797 29.2344 60.2422 29.6094C59.8047 29.9844 59.375 30.3828 58.9609 30.7969L54.4766 34.9687C54.0156 35.3867 53.6523 35.8555 53.3828 36.375C53.1094 36.8984 52.8711 37.4492 52.6641 38.0312C51.9961 40.2695 51.1211 42.4062 50.0391 44.4375C48.9649 46.4766 47.5938 48.332 45.9297 50C45.7188 50.25 45.3906 50.4766 44.9453 50.6875C44.8594 50.7266 44.6953 50.75 44.4453 50.75ZM45.2422 48.3125C45.3242 48.3125 45.4297 48.25 45.5547 48.125C47.4297 46.0078 48.7812 43.625 49.6172 40.9687C48.7812 41.9141 47.9687 42.8672 47.1797 43.8281C46.3867 44.7852 45.7422 45.8477 45.2422 47.0156C45.1992 47.1406 45.1563 47.2578 45.1172 47.375C45.0742 47.5 45.0391 47.6445 45.0078 47.8125C45.0078 48.0195 45.0234 48.1445 45.0547 48.1875C45.1367 48.2695 45.1992 48.3125 45.2422 48.3125ZM64.832 35.4688C63.1211 35.4688 62.0586 34.7031 61.6445 33.1719C61.5195 32.8398 61.418 32.4844 61.332 32.1094C61.25 31.7344 61.2305 31.3828 61.2695 31.0469C61.2305 30.5078 61.2617 30.0078 61.3633 29.5469C61.4688 29.0898 61.582 28.6367 61.707 28.1875C62.082 27.1875 62.5899 26.1172 63.2383 24.9687C63.8828 23.8242 64.6484 22.8203 65.5352 21.9531C66.4297 21.0781 67.418 20.5586 68.5039 20.3906C68.6289 20.3906 68.7109 20.3711 68.7539 20.3281C68.793 20.3281 68.836 20.3281 68.8789 20.3281C68.918 20.3281 68.961 20.3281 69.0039 20.3281C69.6289 20.3281 70.1172 20.5391 70.4727 20.9531C70.8242 21.3711 70.961 21.9297 70.8789 22.625C70.7109 23.625 70.2227 24.6563 69.4102 25.7188C68.5977 26.7813 67.6485 27.6797 66.5664 28.4063C65.4922 29.125 64.457 29.5469 63.457 29.6719C63.1641 29.7578 62.9961 29.9453 62.957 30.2344C62.7891 30.9023 62.8516 31.6328 63.1445 32.4219C63.2695 33.1328 63.5078 33.5469 63.8633 33.6719C64.2149 33.7969 64.6797 33.8594 65.2539 33.8594C66.5039 33.6094 67.7852 33.0586 69.0977 32.2031C70.4102 31.3516 71.5195 30.5078 72.4258 29.6719C72.8008 29.3399 73.1758 28.9922 73.5508 28.625C73.9258 28.25 74.3008 27.8984 74.6758 27.5625C75.0078 27.2305 75.3633 26.8867 75.7383 26.5313C76.1133 26.1797 76.4883 25.8359 76.8633 25.5C76.9453 25.418 77.0508 25.3242 77.1758 25.2188C77.3008 25.1172 77.4024 25.0234 77.4883 24.9375C77.5586 24.8555 77.6485 24.7617 77.7539 24.6563C77.8555 24.5547 77.9492 24.4609 78.0352 24.375C78.2422 24.25 78.4102 24.1875 78.5352 24.1875C78.6992 24.1875 78.8477 24.25 78.9727 24.375C79.3047 24.668 79.3672 24.9805 79.1602 25.3125C79.1172 25.4375 78.9492 25.6484 78.6602 25.9375C77.9102 26.7305 76.9727 27.668 75.8477 28.75C74.7305 29.8242 73.5274 30.8711 72.2383 31.8906C70.957 32.9141 69.668 33.7656 68.3789 34.4531C67.086 35.1328 65.9023 35.4688 64.832 35.4688ZM64.2695 27.8125C64.8008 27.5234 65.4492 27.0859 66.2227 26.5C66.9922 25.918 67.6797 25.2813 68.2852 24.5938C68.8867 23.9063 69.1914 23.2305 69.1914 22.5625C69.1484 22.1562 68.9609 21.9961 68.6289 22.0781C67.9609 22.1641 67.293 22.5156 66.6289 23.1406C65.9609 23.7578 65.3789 24.4609 64.8789 25.25C64.3867 26.043 64.0195 26.7734 63.7695 27.4375C63.7695 27.6484 63.8086 27.75 63.8945 27.75C64.1016 27.8359 64.2266 27.8555 64.2695 27.8125ZM75.668 43.0781C75.3359 43.0781 75.0039 42.9727 74.668 42.7656C74.168 42.4297 73.8555 42.0352 73.7305 41.5781C73.6055 41.1289 73.5859 40.6328 73.668 40.0937C73.793 39.5078 74.1055 38.832 74.6055 38.0625C75.1055 37.293 75.668 36.5586 76.293 35.8594C76.918 35.1523 77.4805 34.6328 77.9805 34.2969C78.4375 33.9219 78.7383 33.5273 78.8867 33.1094C79.0313 32.6953 79.1055 32.1953 79.1055 31.6094C79.0625 30.6523 78.9805 29.7188 78.8555 28.8125C78.7305 27.8984 78.5625 26.9609 78.3555 26C78.2695 25.5859 78.207 25.1797 78.168 24.7812C78.125 24.3867 78.082 23.9805 78.043 23.5625C77.957 22.1562 78.2148 20.9453 78.8086 19.9219C79.4102 18.9023 80.2539 17.9961 81.3398 17.2031C81.9648 16.8281 82.6094 16.6406 83.2773 16.6406C83.6094 16.6406 83.8789 16.6641 84.0898 16.7031C84.2969 16.7461 84.5273 16.8906 84.7773 17.1406C84.9414 17.3086 84.9961 17.4961 84.9336 17.7031C84.8711 17.9141 84.7344 18.0586 84.5273 18.1406C84.4844 18.1836 84.3594 18.2031 84.1523 18.2031C82.9844 18.2031 81.9648 18.6211 81.0898 19.4531C80.2148 20.2891 79.7344 21.289 79.6524 22.4531C79.6094 22.6094 79.5898 22.7734 79.5898 22.9375C79.5898 23.1055 79.5898 23.2734 79.5898 23.4375C79.5898 23.6055 79.5976 23.7734 79.6211 23.9375C79.6406 24.1055 79.6719 24.2734 79.7148 24.4375C79.9219 25.5625 80.1211 26.6797 80.3086 27.7812C80.4961 28.875 80.6289 29.9844 80.7148 31.1094C80.7148 31.1523 80.8164 31.3398 81.0273 31.6719C81.4023 31.4648 81.7148 31.2773 81.9648 31.1094L91.0117 24.75C91.2187 24.668 91.4062 24.543 91.5742 24.375C91.7695 24.25 91.9531 24.1875 92.1211 24.1875C92.2852 24.1875 92.4336 24.25 92.5586 24.375C92.9336 24.7109 92.9727 25.0234 92.6836 25.3125C92.5156 25.5625 92.1875 25.875 91.6992 26.25C90.8633 26.8359 90.0508 27.4062 89.2617 27.9687C88.4688 28.5234 87.6758 29.0898 86.8867 29.6719L81.7148 33.3594C81.0039 33.8594 80.5898 34.5234 80.4648 35.3437C80.4219 36.2187 80.1914 37.2617 79.7773 38.4687C79.3711 39.6758 78.8125 40.7422 78.1055 41.6719C77.3945 42.6094 76.582 43.0781 75.668 43.0781ZM75.793 41.3281C75.9609 41.3281 76.1055 41.2695 76.2305 41.1562C76.8125 40.6953 77.3125 40.0195 77.7305 39.125C78.1445 38.2266 78.375 37.2812 78.418 36.2812C76.957 37.3672 75.918 38.6758 75.293 40.2187C75.2539 40.3828 75.2539 40.5312 75.293 40.6562C75.293 40.8633 75.3555 41.0312 75.4805 41.1562C75.5664 41.2695 75.668 41.3281 75.793 41.3281ZM102.914 33.2969C102.203 33.2969 101.684 33.0703 101.352 32.6094C101.016 32.1523 100.809 31.5898 100.727 30.9219C100.641 30.2578 100.602 29.6094 100.602 28.9844C100.641 28.7891 100.684 28.5742 100.727 28.3437C100.766 28.1172 100.809 27.8555 100.852 27.5625C100.891 27.2734 100.922 26.9805 100.945 26.6875C100.965 26.3984 100.996 26.1055 101.039 25.8125C101.039 25.7305 101.047 25.6484 101.07 25.5625C101.09 25.4805 101.121 25.3984 101.164 25.3125C101.203 25.1484 101.121 25.0234 100.914 24.9375H100.789C100.621 24.9375 100.496 25 100.414 25.125C100.371 25.168 100.32 25.2188 100.258 25.2813C100.195 25.3437 100.141 25.3984 100.102 25.4375C99.9336 25.6055 99.7891 25.75 99.6641 25.875C99.5391 26 99.4141 26.1484 99.2891 26.3125C99.1328 26.4805 98.9805 26.625 98.8359 26.75C98.6875 26.875 98.5312 27.0234 98.3672 27.1875C97.5312 28.0234 96.6055 28.875 95.5859 29.75C94.5625 30.6172 93.5156 31.2773 92.4453 31.7344C92.3203 31.7773 92.2031 31.8086 92.1016 31.8281C91.9961 31.8516 91.9023 31.8594 91.8203 31.8594C91.0273 31.8594 90.5703 31.4453 90.4453 30.6094C90.3203 30.2773 90.2969 29.7969 90.3828 29.1719C90.5469 27.9766 90.8086 26.793 91.1641 25.625C91.5156 24.4609 92.0078 23.3398 92.6328 22.2656L93.1172 21.5781C93.3672 21.3281 93.5937 21.2031 93.8047 21.2031C94.0117 21.2031 94.1797 21.2656 94.3047 21.3906C94.6797 21.6836 94.7187 22.0391 94.4297 22.4531C94.3437 22.6094 94.25 22.7734 94.1484 22.9375C94.043 23.1055 93.9297 23.293 93.8047 23.5C93.3437 24.375 92.9687 25.2813 92.6797 26.2188C92.3984 27.1563 92.1719 28.1211 92.0078 29.1094C92.0078 29.1523 92.0078 29.2031 92.0078 29.2656C92.0078 29.3281 92.0078 29.4023 92.0078 29.4844C92.0078 29.6523 92.0898 29.7578 92.2578 29.7969C92.2969 29.8398 92.3828 29.8594 92.5078 29.8594C92.6328 29.8594 92.793 29.7773 92.9922 29.6094C93.1562 29.4844 93.3242 29.3594 93.4922 29.2344C93.6562 29.1094 93.8242 28.9844 93.9922 28.8594C94.1562 28.7773 94.3125 28.6797 94.4609 28.5625C94.6055 28.4375 94.7617 28.3125 94.9297 28.1875C96.0117 27.2734 97.0273 26.3125 97.9766 25.3125C98.9336 24.3125 99.8711 23.2773 100.789 22.2031C100.953 22.0391 101.102 21.8906 101.227 21.7656C101.352 21.6406 101.496 21.4961 101.664 21.3281C101.789 21.1641 101.922 21.0156 102.07 20.8906C102.215 20.7656 102.371 20.6211 102.539 20.4531C102.703 20.2891 102.871 20.2031 103.039 20.2031C103.078 20.2031 103.227 20.2461 103.477 20.3281C103.809 20.4961 103.953 20.7656 103.914 21.1406C103.871 21.3086 103.84 21.4648 103.82 21.6094C103.797 21.7578 103.766 21.8906 103.727 22.0156C103.684 22.1836 103.641 22.3398 103.602 22.4844C103.559 22.6211 103.516 22.7734 103.477 22.9375C103.184 23.8555 102.934 24.7813 102.727 25.7188C102.516 26.6563 102.371 27.6484 102.289 28.6875C102.246 29.3047 102.246 29.9219 102.289 30.5469C102.371 31.2969 102.664 31.6719 103.164 31.6719C103.703 31.6719 104.344 31.4336 105.086 30.9531C105.836 30.4766 106.594 29.8867 107.367 29.1875C108.137 28.4805 108.855 27.793 109.523 27.125C110.187 26.4609 110.711 25.918 111.086 25.5C111.449 25.0859 111.84 24.6875 112.258 24.3125C112.34 24.2305 112.445 24.1875 112.57 24.1875C112.734 24.1875 112.883 24.25 113.008 24.375C113.34 24.7109 113.422 25 113.258 25.25C113.172 25.418 113.102 25.5547 113.039 25.6563C112.977 25.7617 112.902 25.8555 112.82 25.9375C112.109 26.7734 111.234 27.7305 110.195 28.8125C109.164 29.8867 108.062 30.8516 106.898 31.7031C105.742 32.5586 104.621 33.0703 103.539 33.2344C103.414 33.2773 103.203 33.2969 102.914 33.2969ZM111.891 37.9062C111.016 37.9062 110.391 37.4297 110.016 36.4687C109.809 35.8867 109.684 35.3086 109.641 34.7344C109.559 34.1523 109.559 33.6094 109.641 33.1094C109.891 31.2344 110.297 29.4375 110.859 27.7187C111.422 25.9922 112.203 24.3359 113.203 22.75C113.398 22.4297 113.625 22.1094 113.875 21.7969C114.125 21.4844 114.395 21.1641 114.687 20.8281C114.937 20.6211 115.227 20.4766 115.562 20.3906C115.602 20.3516 115.687 20.3281 115.812 20.3281C116.02 20.3281 116.187 20.4141 116.312 20.5781C116.477 20.8281 116.5 21.0781 116.375 21.3281C116.289 21.4531 116.219 21.5586 116.156 21.6406C116.094 21.7266 116.039 21.7891 116 21.8281C115.164 22.5703 114.426 23.6055 113.781 24.9375C113.145 26.2734 112.609 27.6563 112.172 29.0938C111.734 30.5234 111.43 31.7969 111.266 32.9219C111.055 34.0078 111.16 35 111.578 35.9063C111.66 36.1172 111.828 36.2188 112.078 36.2188C112.16 36.2188 112.223 36.1992 112.266 36.1563C112.68 35.9922 113.176 35.5781 113.75 34.9219C114.332 34.2578 114.914 33.4961 115.5 32.6406C116.082 31.7891 116.613 30.9766 117.094 30.2031C117.57 29.4336 117.914 28.8438 118.125 28.4375C118.207 28.3125 118.281 28.1875 118.344 28.0625C118.406 27.9375 118.457 27.8125 118.5 27.6875C118.582 27.5625 118.656 27.4375 118.719 27.3125C118.781 27.1875 118.852 27.0859 118.937 27C119.102 26.7109 119.312 26.5625 119.562 26.5625C119.594 26.5625 119.609 26.5625 119.609 26.5625C119.609 26.5625 119.629 26.5625 119.672 26.5625C119.711 26.6055 119.754 26.625 119.797 26.625C120.211 26.75 120.422 27.0625 120.422 27.5625C120.379 27.8125 120.336 28.0742 120.297 28.3438C120.254 28.6055 120.211 28.8828 120.172 29.1719C120.047 30.4648 120.211 31.6524 120.672 32.7344C121.129 33.7344 121.691 34.2344 122.359 34.2344C123.148 34.2344 123.797 33.8906 124.297 33.2031C124.797 32.5156 125.187 31.6524 125.469 30.6094C125.758 29.5703 125.957 28.5313 126.062 27.5C126.164 26.4609 126.219 25.6055 126.219 24.9375C126.258 24.7305 126.301 24.5625 126.344 24.4375C126.383 24.3125 126.508 24.2109 126.719 24.125C126.801 24.125 126.863 24.1055 126.906 24.0625C126.906 24.0625 126.914 24.0625 126.937 24.0625C126.957 24.0625 126.988 24.0625 127.031 24.0625C127.32 24.0625 127.57 24.2305 127.781 24.5625L128.219 25.1875C128.676 25.7734 129.25 26.2109 129.937 26.5C130.625 26.793 131.32 26.9375 132.031 26.9375C132.395 26.9375 132.754 26.9063 133.109 26.8438C133.461 26.7813 133.805 26.6484 134.141 26.4375C134.348 26.3555 134.555 26.25 134.766 26.125C134.973 26 135.18 25.8555 135.391 25.6875C135.598 25.5234 135.797 25.375 135.984 25.25C136.172 25.125 136.348 25 136.516 24.875C136.848 24.625 137.098 24.5 137.266 24.5C137.473 24.5 137.66 24.5859 137.828 24.75C138.273 25.0859 138.172 25.543 137.516 26.125C136.766 26.793 135.941 27.3672 135.047 27.8438C134.148 28.3242 133.18 28.5625 132.141 28.5625C131.441 28.5625 130.738 28.4609 130.031 28.25C129.32 28.043 128.633 27.793 127.969 27.5C127.801 27.793 127.676 28.125 127.594 28.5C127.551 28.6563 127.52 28.8281 127.5 29.0156C127.477 29.2031 127.445 29.3828 127.406 29.5469C127.238 30.7148 126.852 31.9023 126.25 33.1094C125.656 34.3203 124.754 35.1484 123.547 35.5938C123.211 35.7617 122.773 35.8438 122.234 35.8438C121.398 35.8438 120.68 35.5078 120.078 34.8281C119.484 34.1406 119.082 33.4219 118.875 32.6719C118.832 32.4648 118.781 32.2656 118.719 32.0781C118.656 31.8906 118.52 31.7344 118.312 31.6094C117.977 31.8203 117.75 32.0469 117.625 32.2969C117.539 32.4648 117.445 32.6094 117.344 32.7344C117.238 32.8594 117.145 33.0078 117.062 33.1719C116.645 33.6719 116.27 34.1719 115.937 34.6719C115.77 34.9531 115.57 35.2188 115.344 35.4688C115.113 35.7188 114.895 35.9688 114.687 36.2188C114.312 36.6367 113.895 37.0234 113.437 37.375C112.988 37.7305 112.473 37.9062 111.891 37.9062ZM135.203 32.7344C134.371 32.7344 133.914 32.2344 133.828 31.2344C133.828 30.3203 134.027 29.3438 134.422 28.3125C134.82 27.2734 135.316 26.2734 135.922 25.3125C136.523 24.3555 137.141 23.5625 137.766 22.9375C137.93 22.7305 138.238 22.4648 138.687 22.1406C139.352 21.6016 140.039 21.3281 140.75 21.3281C141.375 21.3281 142 21.5781 142.625 22.0781C142.957 22.2891 143.145 22.3906 143.187 22.3906C143.312 22.3906 143.5 22.2266 143.75 21.8906C143.957 21.6836 144.148 21.4531 144.328 21.2031C144.516 20.9531 144.691 20.7031 144.859 20.4531C145.023 20.2031 145.203 19.9531 145.391 19.7031C145.578 19.4531 145.754 19.2031 145.922 18.9531C146.004 18.8711 146.086 18.7656 146.172 18.6406C146.254 18.5156 146.336 18.3906 146.422 18.2656C146.504 18.1836 146.578 18.0781 146.641 17.9531C146.703 17.8281 146.773 17.7266 146.859 17.6406C147.148 17.3516 147.398 17.2031 147.609 17.2031C147.609 17.2031 147.734 17.2461 147.984 17.3281C148.398 17.5781 148.504 17.9961 148.297 18.5781C148.254 18.7461 148.203 18.8906 148.141 19.0156C148.078 19.1406 148.004 19.2656 147.922 19.3906C147.754 19.6836 147.609 19.9766 147.484 20.2656C147.109 21.0586 146.672 22.0391 146.172 23.2031C145.672 24.3594 145.242 25.5313 144.891 26.7188C144.535 27.9063 144.359 28.9531 144.359 29.8594C144.359 30.2344 144.484 30.4219 144.734 30.4219C144.859 30.4219 144.941 30.4023 144.984 30.3594C145.273 30.2344 145.555 30.1094 145.828 29.9844C146.098 29.8594 146.379 29.7148 146.672 29.5469C147.047 29.2969 147.43 29.043 147.828 28.7813C148.223 28.5117 148.609 28.2109 148.984 27.875C149.273 27.668 149.547 27.4375 149.797 27.1875C150.047 26.9375 150.289 26.7109 150.531 26.5C150.988 26.043 151.488 25.6055 152.031 25.1875C152.113 25.1055 152.207 25.0234 152.312 24.9375C152.414 24.8555 152.508 24.7734 152.594 24.6875C152.676 24.6055 152.844 24.4805 153.094 24.3125C153.176 24.2734 153.238 24.2422 153.281 24.2188C153.32 24.1992 153.363 24.1875 153.406 24.1875C153.57 24.1875 153.719 24.25 153.844 24.375C154.133 24.543 154.219 24.8555 154.094 25.3125C154.051 25.3555 154.031 25.3867 154.031 25.4063C154.031 25.4297 154.008 25.4609 153.969 25.5C153.926 25.543 153.883 25.5859 153.844 25.625C153.801 25.668 153.758 25.7109 153.719 25.75C153.133 26.3359 152.301 27.1172 151.219 28.0938C150.145 29.0625 149.035 29.9453 147.891 30.7344C146.742 31.5273 145.734 32.0078 144.859 32.1719C144.773 32.2148 144.586 32.2344 144.297 32.2344C143.266 32.2344 142.75 31.6328 142.75 30.4219C142.75 29.5898 142.832 28.7617 143 27.9375C143.164 27.1055 143.352 26.2734 143.562 25.4375C143.102 25.6484 142.789 25.8555 142.625 26.0625C142.539 26.1875 142.438 26.3125 142.313 26.4375C142.187 26.5625 142.082 26.668 142 26.75C141.289 27.5859 140.582 28.3867 139.875 29.1563C139.164 29.918 138.422 30.6523 137.641 31.3594C137.348 31.6094 136.973 31.9023 136.516 32.2344C136.055 32.5703 135.617 32.7344 135.203 32.7344ZM135.766 30.4844C136.016 30.4844 136.203 30.4219 136.328 30.2969C137.328 29.4648 138.258 28.5547 139.125 27.5625C140 26.5625 140.852 25.543 141.687 24.5C141.727 24.4609 141.77 24.418 141.812 24.375C141.852 24.3359 141.895 24.2734 141.937 24.1875C142.062 23.7734 141.977 23.4805 141.687 23.3125C141.352 23.1055 141.062 23 140.812 23C140.602 23 140.344 23.0859 140.031 23.25C139.719 23.418 139.477 23.5859 139.312 23.75C137.363 25.4609 136.141 27.6641 135.641 30.3594L135.703 30.4219C135.742 30.4219 135.766 30.4453 135.766 30.4844ZM150.723 37.4687C150.223 37.4687 149.934 37.1797 149.848 36.5937C149.809 36.4687 149.785 36.1992 149.785 35.7812C149.91 34.7109 150.121 33.6523 150.41 32.6094C150.703 31.5703 151.016 30.5273 151.348 29.4844C151.637 28.7031 151.93 27.9297 152.223 27.1563C152.512 26.3867 152.805 25.6055 153.098 24.8125C153.387 24.0234 153.676 23.2461 153.957 22.4844C154.246 21.7148 154.539 20.9336 154.832 20.1406C155.039 19.8516 155.277 19.4023 155.551 18.7969C155.82 18.1953 156.121 17.8906 156.457 17.8906C156.457 17.8906 156.582 17.9336 156.832 18.0156C157.246 18.2656 157.352 18.6211 157.145 19.0781L156.77 19.8281C156.477 20.6211 156.176 21.4141 155.863 22.2031C155.551 22.9844 155.246 23.7734 154.957 24.5625C154.664 25.3555 154.363 26.1563 154.051 26.9688C153.746 27.7813 153.43 28.5781 153.098 29.3594C153.055 29.5273 153.004 29.7031 152.941 29.8906C152.879 30.0781 152.805 30.2773 152.723 30.4844C152.555 30.8203 152.574 31.2148 152.785 31.6719C153.035 31.1328 153.488 30.3672 154.145 29.375C154.809 28.375 155.559 27.3359 156.395 26.25C157.227 25.168 158.059 24.2578 158.895 23.5156C159.727 22.7656 160.449 22.3906 161.066 22.3906C161.773 22.3906 162.23 22.6836 162.441 23.2656C162.648 23.8398 162.793 24.3984 162.879 24.9375C162.918 25.2305 162.949 25.5 162.973 25.75C162.992 26 163.024 26.25 163.067 26.5C163.067 26.75 163.074 27 163.098 27.25C163.117 27.5 163.149 27.75 163.192 28C163.231 28.6992 163.418 29.3398 163.754 29.9219C163.879 30.2578 164.129 30.4219 164.504 30.4219C164.586 30.4219 164.648 30.4023 164.692 30.3594C164.692 30.3594 164.699 30.3594 164.723 30.3594C164.742 30.3594 164.774 30.3594 164.817 30.3594C165.192 30.2344 165.543 30.0586 165.879 29.8281C166.211 29.6016 166.539 29.3398 166.864 29.0469C167.153 28.8086 167.426 28.5625 167.676 28.3125C167.926 28.0625 168.196 27.793 168.489 27.5C168.739 27.25 168.996 27 169.27 26.75C169.539 26.5 169.821 26.25 170.114 26C170.446 25.7109 170.727 25.4609 170.957 25.25C171.184 25.043 171.34 24.8984 171.426 24.8125C171.508 24.7305 171.59 24.6484 171.676 24.5625C171.758 24.4805 171.821 24.418 171.864 24.375C171.989 24.25 172.133 24.1875 172.301 24.1875C172.465 24.1875 172.614 24.25 172.739 24.375C173.02 24.625 173.098 24.918 172.973 25.25C172.856 25.5859 172.676 25.875 172.426 26.125C172.258 26.293 171.934 26.5938 171.457 27.0313C170.977 27.4688 170.457 27.9492 169.895 28.4688C169.332 28.9805 168.809 29.4453 168.332 29.8594C167.852 30.2773 167.528 30.5703 167.364 30.7344C166.621 31.4453 165.793 31.8828 164.879 32.0469C164.836 32.0469 164.793 32.0469 164.754 32.0469C164.711 32.0469 164.668 32.0469 164.629 32.0469C164.543 32.0898 164.442 32.1094 164.317 32.1094C163.481 32.1094 162.817 31.6719 162.317 30.7969C161.942 30.0898 161.711 29.3242 161.629 28.5C161.586 28.168 161.555 27.8438 161.535 27.5313C161.512 27.2188 161.481 26.918 161.442 26.625C161.399 26.3359 161.356 26.0313 161.317 25.7188C161.274 25.4063 161.231 25.1055 161.192 24.8125C161.106 24.4805 160.961 24.3125 160.754 24.3125C160.586 24.3125 160.446 24.375 160.332 24.5C158.707 25.9609 157.278 27.6055 156.051 29.4375C154.821 31.2617 153.731 33.1484 152.785 35.0938C152.7 35.2617 152.606 35.4375 152.504 35.625C152.399 35.8125 152.305 36.0117 152.223 36.2187C152.137 36.4297 152.024 36.6172 151.879 36.7813C151.731 36.9492 151.555 37.1172 151.348 37.2813C151.18 37.4063 150.973 37.4687 150.723 37.4687ZM172.863 35.4688C171.152 35.4688 170.09 34.7031 169.676 33.1719C169.551 32.8398 169.449 32.4844 169.363 32.1094C169.281 31.7344 169.262 31.3828 169.301 31.0469C169.262 30.5078 169.293 30.0078 169.395 29.5469C169.5 29.0898 169.613 28.6367 169.738 28.1875C170.113 27.1875 170.621 26.1172 171.27 24.9687C171.914 23.8242 172.68 22.8203 173.566 21.9531C174.461 21.0781 175.449 20.5586 176.535 20.3906C176.66 20.3906 176.742 20.3711 176.785 20.3281C176.824 20.3281 176.867 20.3281 176.91 20.3281C176.949 20.3281 176.992 20.3281 177.035 20.3281C177.66 20.3281 178.148 20.5391 178.504 20.9531C178.856 21.3711 178.992 21.9297 178.91 22.625C178.742 23.625 178.254 24.6563 177.441 25.7188C176.629 26.7813 175.68 27.6797 174.598 28.4063C173.523 29.125 172.488 29.5469 171.488 29.6719C171.195 29.7578 171.027 29.9453 170.988 30.2344C170.82 30.9023 170.883 31.6328 171.176 32.4219C171.301 33.1328 171.539 33.5469 171.895 33.6719C172.246 33.7969 172.711 33.8594 173.285 33.8594C174.535 33.6094 175.816 33.0586 177.129 32.2031C178.441 31.3516 179.551 30.5078 180.457 29.6719C180.832 29.3399 181.207 28.9922 181.582 28.625C181.957 28.25 182.332 27.8984 182.707 27.5625C183.039 27.2305 183.395 26.8867 183.77 26.5313C184.145 26.1797 184.52 25.8359 184.895 25.5C184.977 25.418 185.082 25.3242 185.207 25.2188C185.332 25.1172 185.434 25.0234 185.52 24.9375C185.59 24.8555 185.68 24.7617 185.785 24.6563C185.887 24.5547 185.98 24.4609 186.066 24.375C186.273 24.25 186.441 24.1875 186.566 24.1875C186.731 24.1875 186.879 24.25 187.004 24.375C187.336 24.668 187.398 24.9805 187.191 25.3125C187.148 25.4375 186.98 25.6484 186.691 25.9375C185.941 26.7305 185.004 27.668 183.879 28.75C182.762 29.8242 181.559 30.8711 180.27 31.8906C178.988 32.9141 177.699 33.7656 176.41 34.4531C175.117 35.1328 173.934 35.4688 172.863 35.4688ZM172.301 27.8125C172.832 27.5234 173.48 27.0859 174.254 26.5C175.023 25.918 175.711 25.2813 176.316 24.5938C176.918 23.9063 177.223 23.2305 177.223 22.5625C177.18 22.1562 176.992 21.9961 176.66 22.0781C175.992 22.1641 175.324 22.5156 174.66 23.1406C173.992 23.7578 173.41 24.4609 172.91 25.25C172.418 26.043 172.051 26.7734 171.801 27.4375C171.801 27.6484 171.84 27.75 171.926 27.75C172.133 27.8359 172.258 27.8555 172.301 27.8125ZM207.324 42.3906C206.824 42.3906 206.574 42.1602 206.574 41.7031C206.574 41.4531 206.587 41.1914 206.605 40.9219C206.629 40.6602 206.66 40.3828 206.699 40.0937L207.324 36.0937C207.41 35.7187 207.43 35.3516 207.387 34.9844C207.348 34.6094 207.305 34.2344 207.262 33.8594C207.262 33.4844 207.387 33.1523 207.637 32.8594C207.969 32.6094 208.156 32.2773 208.199 31.8594C208.324 31.1523 208.469 30.4297 208.637 29.6875C208.801 28.9375 208.988 28.2109 209.199 27.5C209.238 27.3359 209.269 27.168 209.293 27C209.312 26.8359 209.238 26.6875 209.074 26.5625C208.738 26.2734 208.606 26 208.668 25.75C208.731 25.5 208.844 25.2305 209.012 24.9375C209.801 23.8125 210.453 22.6328 210.965 21.3906C211.484 20.1406 211.996 18.8711 212.496 17.5781C212.535 17.4531 212.734 16.9688 213.09 16.125C213.441 15.2734 213.871 14.25 214.371 13.0625C214.871 11.875 215.41 10.7031 215.996 9.54688C216.578 8.38281 217.125 7.41406 217.637 6.64062C218.156 5.87109 218.606 5.48438 218.981 5.48438C219.145 5.48438 219.313 5.52734 219.481 5.60938C219.813 5.82031 219.938 6.10938 219.856 6.48438C219.645 7.27734 219.301 8.25781 218.824 9.42188C218.344 10.5781 217.801 11.7813 217.199 13.0313C216.606 14.2813 216.004 15.4492 215.402 16.5313C214.797 17.6055 214.285 18.4961 213.871 19.2031C212.996 20.7031 212.297 22.3594 211.777 24.1719C211.254 25.9766 210.793 27.7031 210.387 29.3594C210.344 29.5273 210.313 29.6719 210.293 29.7969C210.27 29.9219 210.301 30.0703 210.387 30.2344C210.762 30.0273 210.984 29.8203 211.059 29.6094C211.141 29.3203 211.266 29.0898 211.434 28.9219C212.141 27.7266 212.922 26.5312 213.777 25.3437C214.629 24.1562 215.621 23.1328 216.746 22.2656C216.953 22.1406 217.156 22.0273 217.356 21.9219C217.563 21.8203 217.793 21.7461 218.043 21.7031C218.457 21.6641 218.813 21.7891 219.106 22.0781C219.395 22.3594 219.5 22.7109 219.418 23.125C219.332 23.8359 218.949 24.668 218.262 25.625C217.574 26.5859 216.824 27.4922 216.012 28.3438C215.207 29.1875 214.535 29.8594 213.996 30.3594C213.621 30.6953 213.234 31.0273 212.84 31.3594C212.441 31.6953 212.035 32.0273 211.621 32.3594C211.496 32.4844 211.453 32.6523 211.496 32.8594C211.578 33.0703 211.723 33.1719 211.934 33.1719C214.516 32.9648 216.863 32.5078 218.981 31.7969C221.106 31.0898 223.184 29.8672 225.215 28.125C225.547 27.8359 225.879 27.5547 226.215 27.2812C226.547 27.0117 226.859 26.7305 227.152 26.4375C227.484 26.1484 227.809 25.8672 228.121 25.5938C228.434 25.3242 228.754 25.043 229.09 24.75C229.172 24.668 229.266 24.5859 229.371 24.5C229.473 24.418 229.566 24.3359 229.652 24.25C229.723 24.168 229.813 24.0938 229.918 24.0313C230.02 23.9688 230.113 23.918 230.199 23.875C230.238 23.8359 230.344 23.8125 230.512 23.8125C230.676 23.8125 230.863 23.918 231.074 24.125C231.281 24.4609 231.301 24.7109 231.137 24.875C231.094 25 230.926 25.2109 230.637 25.5C228.731 27.293 226.891 28.8672 225.121 30.2188C223.359 31.5625 221.469 32.6328 219.449 33.4219C217.438 34.2148 215.078 34.6719 212.371 34.7969C211.621 34.7969 211.098 34.8086 210.809 34.8281C210.527 34.8516 210.324 35.0078 210.199 35.2969C210.074 35.5781 209.863 36.0938 209.574 36.8438C209.488 37.1367 209.395 37.4375 209.293 37.75C209.188 38.0625 209.094 38.3828 209.012 38.7188C208.926 39.0078 208.824 39.3125 208.699 39.625C208.574 39.9375 208.469 40.2578 208.387 40.5938L208.012 41.9531C207.844 42.2422 207.617 42.3906 207.324 42.3906ZM213.309 28.9219C213.684 28.6836 214.215 28.2187 214.902 27.5312C215.59 26.8437 216.23 26.125 216.824 25.375C217.426 24.625 217.77 24.043 217.855 23.625C217.324 23.7109 216.734 24.0742 216.09 24.7188C215.441 25.3672 214.871 26.0859 214.371 26.875C213.871 27.668 213.516 28.3516 213.309 28.9219ZM228.461 32.7344C227.629 32.7344 227.172 32.2344 227.086 31.2344C227.086 30.3203 227.285 29.3438 227.68 28.3125C228.078 27.2734 228.574 26.2734 229.18 25.3125C229.781 24.3555 230.398 23.5625 231.023 22.9375C231.187 22.7305 231.496 22.4648 231.945 22.1406C232.609 21.6016 233.297 21.3281 234.008 21.3281C234.633 21.3281 235.258 21.5781 235.883 22.0781C236.215 22.2891 236.402 22.3906 236.445 22.3906C236.57 22.3906 236.758 22.2266 237.008 21.8906C237.215 21.6836 237.406 21.4531 237.586 21.2031C237.773 20.9531 237.949 20.7031 238.117 20.4531C238.281 20.2031 238.461 19.9531 238.648 19.7031C238.836 19.4531 239.012 19.2031 239.18 18.9531C239.262 18.8711 239.344 18.7656 239.43 18.6406C239.512 18.5156 239.594 18.3906 239.68 18.2656C239.762 18.1836 239.836 18.0781 239.898 17.9531C239.961 17.8281 240.031 17.7266 240.117 17.6406C240.406 17.3516 240.656 17.2031 240.867 17.2031C240.867 17.2031 240.992 17.2461 241.242 17.3281C241.656 17.5781 241.762 17.9961 241.555 18.5781C241.512 18.7461 241.461 18.8906 241.398 19.0156C241.336 19.1406 241.262 19.2656 241.18 19.3906C241.012 19.6836 240.867 19.9766 240.742 20.2656C240.367 21.0586 239.93 22.0391 239.43 23.2031C238.93 24.3594 238.5 25.5313 238.148 26.7188C237.793 27.9063 237.617 28.9531 237.617 29.8594C237.617 30.2344 237.742 30.4219 237.992 30.4219C238.117 30.4219 238.199 30.4023 238.242 30.3594C238.531 30.2344 238.813 30.1094 239.086 29.9844C239.355 29.8594 239.637 29.7148 239.93 29.5469C240.305 29.2969 240.688 29.043 241.086 28.7813C241.48 28.5117 241.867 28.2109 242.242 27.875C242.531 27.668 242.805 27.4375 243.055 27.1875C243.305 26.9375 243.547 26.7109 243.789 26.5C244.246 26.043 244.746 25.6055 245.289 25.1875C245.371 25.1055 245.465 25.0234 245.57 24.9375C245.672 24.8555 245.766 24.7734 245.852 24.6875C245.934 24.6055 246.102 24.4805 246.352 24.3125C246.434 24.2734 246.496 24.2422 246.539 24.2188C246.578 24.1992 246.621 24.1875 246.664 24.1875C246.828 24.1875 246.977 24.25 247.102 24.375C247.391 24.543 247.477 24.8555 247.352 25.3125C247.309 25.3555 247.289 25.3867 247.289 25.4063C247.289 25.4297 247.266 25.4609 247.227 25.5C247.184 25.543 247.141 25.5859 247.102 25.625C247.059 25.668 247.016 25.7109 246.977 25.75C246.391 26.3359 245.559 27.1172 244.477 28.0938C243.402 29.0625 242.293 29.9453 241.148 30.7344C240 31.5273 238.992 32.0078 238.117 32.1719C238.031 32.2148 237.844 32.2344 237.555 32.2344C236.523 32.2344 236.008 31.6328 236.008 30.4219C236.008 29.5898 236.09 28.7617 236.258 27.9375C236.422 27.1055 236.609 26.2734 236.82 25.4375C236.359 25.6484 236.047 25.8555 235.883 26.0625C235.797 26.1875 235.695 26.3125 235.57 26.4375C235.445 26.5625 235.34 26.668 235.258 26.75C234.547 27.5859 233.84 28.3867 233.133 29.1563C232.422 29.918 231.68 30.6523 230.898 31.3594C230.605 31.6094 230.23 31.9023 229.773 32.2344C229.313 32.5703 228.875 32.7344 228.461 32.7344ZM229.023 30.4844C229.273 30.4844 229.461 30.4219 229.586 30.2969C230.586 29.4648 231.516 28.5547 232.383 27.5625C233.258 26.5625 234.109 25.543 234.945 24.5C234.984 24.4609 235.027 24.418 235.07 24.375C235.109 24.3359 235.152 24.2734 235.195 24.1875C235.32 23.7734 235.234 23.4805 234.945 23.3125C234.609 23.1055 234.32 23 234.07 23C233.859 23 233.602 23.0859 233.289 23.25C232.977 23.418 232.734 23.5859 232.57 23.75C230.621 25.4609 229.398 27.6641 228.898 30.3594L228.961 30.4219C229 30.4219 229.023 30.4453 229.023 30.4844ZM245.293 55.0469C244.793 55.0469 244.363 54.8047 244.012 54.3281C243.66 53.8594 243.379 53.3008 243.168 52.6563C242.961 52.0078 242.816 51.457 242.73 51C242.648 50.2891 242.566 49.5703 242.48 48.8437C242.398 48.1133 242.379 47.3984 242.418 46.7031C242.668 40.8789 243.57 35.1992 245.121 29.6562C246.684 24.1055 248.547 18.6484 250.715 13.2812C250.879 12.9063 251.16 12.2812 251.559 11.4062C251.953 10.5312 252.406 9.58984 252.918 8.57813C253.438 7.55859 253.906 6.65234 254.324 5.85937C254.781 5.02734 255.312 4.16797 255.918 3.28125C256.52 2.38672 257.125 1.61719 257.73 0.96875C258.332 0.324218 258.863 0 259.324 0C259.531 0 259.656 0.023439 259.699 0.0624933C260.063 0.27343 260.277 0.531242 260.34 0.843742C260.402 1.15624 260.391 1.49999 260.309 1.87499C260.141 3.28124 259.66 4.95312 258.871 6.89062C258.09 8.82812 257.156 10.8516 256.074 12.9531C254.988 15.0469 253.906 17.0234 252.824 18.875C251.75 20.7187 250.816 22.2422 250.027 23.4375C249.691 23.9805 249.359 24.5234 249.027 25.0625C248.691 25.6055 248.379 26.1055 248.09 26.5625C247.922 26.8555 247.777 27.1172 247.652 27.3437C247.527 27.5742 247.426 27.793 247.356 28C247.106 28.3359 247.125 28.5781 247.418 28.7344C247.449 28.7773 247.566 28.7969 247.777 28.7969H247.965C248.547 28.6406 249.121 28.4375 249.684 28.1875C250.246 27.9375 250.797 27.668 251.34 27.375L258.074 23.9375C258.324 23.8125 258.574 23.6992 258.824 23.5937C259.074 23.4922 259.324 23.3984 259.574 23.3125C259.613 23.3125 259.656 23.293 259.699 23.25C259.699 23.25 259.719 23.25 259.762 23.25C260.207 23.25 260.453 23.4375 260.496 23.8125C260.621 24.1875 260.516 24.4805 260.184 24.6875C259.984 24.8125 259.781 24.918 259.574 25C259.488 25.043 259.387 25.0937 259.262 25.1562C259.137 25.2187 259.031 25.293 258.949 25.375C258.363 25.668 257.77 25.9609 257.168 26.25C256.563 26.543 255.969 26.8359 255.387 27.125C254.801 27.418 254.207 27.7187 253.606 28.0312C253.012 28.3437 252.422 28.6641 251.84 28.9844C251.254 29.2773 250.691 29.5391 250.152 29.7656C249.609 29.9961 249.047 30.2148 248.465 30.4219C247.84 30.5469 247.324 30.7344 246.918 30.9844C246.668 31.1953 246.563 31.4219 246.606 31.6719L246.981 32.6094C248.551 36.7656 249.191 40.8984 248.902 45.0156C248.859 45.4297 248.828 45.8594 248.809 46.2969C248.785 46.7344 248.754 47.1758 248.715 47.625C248.672 48.5 248.547 49.375 248.34 50.25C248.297 50.7891 248.141 51.4375 247.871 52.1875C247.598 52.9375 247.246 53.5976 246.809 54.1719C246.379 54.7539 245.875 55.0469 245.293 55.0469ZM245.418 53.0625C245.625 53.0625 245.75 52.9766 245.793 52.8125C246.125 52.3516 246.363 51.875 246.512 51.375C246.656 50.875 246.77 50.332 246.855 49.75C247.062 48.332 247.207 46.9141 247.293 45.5C247.375 44.0937 247.375 42.6797 247.293 41.2656C247.25 40.3164 247.145 39.3945 246.98 38.5C246.812 37.6055 246.605 36.7187 246.355 35.8437C246.312 35.6797 246.25 35.5117 246.168 35.3437C246.082 35.1797 245.918 35.0156 245.668 34.8594C245.293 36.1016 245.012 37.3867 244.824 38.7187C244.637 40.0508 244.48 41.3789 244.355 42.7031C244.191 43.9102 244.086 45.1328 244.043 46.375C244.004 47.625 244.066 48.8516 244.23 50.0625C244.312 50.5195 244.406 50.9766 244.512 51.4375C244.613 51.8945 244.793 52.3516 245.043 52.8125C245.168 52.9766 245.293 53.0625 245.418 53.0625ZM249.59 21.6406H249.777C251.441 18.9766 252.969 16.2617 254.355 13.5C255.75 10.7422 257.012 7.88281 258.137 4.92187C258.219 4.71484 258.293 4.51563 258.355 4.32813C258.418 4.14063 258.488 3.96484 258.574 3.79687C258.781 3.43359 258.781 3.02344 258.574 2.5625C258.113 2.6875 257.781 2.9375 257.574 3.3125C257.488 3.52344 257.387 3.71875 257.262 3.90625C257.137 4.08594 257.031 4.25781 256.949 4.42187C255.363 6.92187 254.012 9.50781 252.887 12.1719C251.77 14.8281 250.734 17.5469 249.777 20.3281C249.691 20.5391 249.629 20.7578 249.59 20.9844C249.547 21.2148 249.609 21.4336 249.777 21.6406C249.734 21.6406 249.672 21.6016 249.59 21.5156V21.6406ZM260.383 35.4688C258.672 35.4688 257.609 34.7031 257.195 33.1719C257.07 32.8398 256.969 32.4844 256.883 32.1094C256.801 31.7344 256.781 31.3828 256.82 31.0469C256.781 30.5078 256.813 30.0078 256.914 29.5469C257.02 29.0898 257.133 28.6367 257.258 28.1875C257.633 27.1875 258.141 26.1172 258.789 24.9687C259.434 23.8242 260.199 22.8203 261.086 21.9531C261.981 21.0781 262.969 20.5586 264.055 20.3906C264.18 20.3906 264.262 20.3711 264.305 20.3281C264.344 20.3281 264.387 20.3281 264.43 20.3281C264.469 20.3281 264.512 20.3281 264.555 20.3281C265.18 20.3281 265.668 20.5391 266.023 20.9531C266.375 21.3711 266.512 21.9297 266.43 22.625C266.262 23.625 265.773 24.6563 264.961 25.7188C264.148 26.7813 263.199 27.6797 262.117 28.4063C261.043 29.125 260.008 29.5469 259.008 29.6719C258.715 29.7578 258.547 29.9453 258.508 30.2344C258.34 30.9023 258.402 31.6328 258.695 32.4219C258.82 33.1328 259.059 33.5469 259.414 33.6719C259.766 33.7969 260.231 33.8594 260.805 33.8594C262.055 33.6094 263.336 33.0586 264.648 32.2031C265.961 31.3516 267.07 30.5078 267.977 29.6719C268.352 29.3399 268.727 28.9922 269.102 28.625C269.477 28.25 269.852 27.8984 270.227 27.5625C270.559 27.2305 270.914 26.8867 271.289 26.5313C271.664 26.1797 272.039 25.8359 272.414 25.5C272.496 25.418 272.602 25.3242 272.727 25.2188C272.852 25.1172 272.953 25.0234 273.039 24.9375C273.109 24.8555 273.199 24.7617 273.305 24.6563C273.406 24.5547 273.5 24.4609 273.586 24.375C273.793 24.25 273.961 24.1875 274.086 24.1875C274.25 24.1875 274.398 24.25 274.523 24.375C274.855 24.668 274.918 24.9805 274.711 25.3125C274.668 25.4375 274.5 25.6484 274.211 25.9375C273.461 26.7305 272.523 27.668 271.398 28.75C270.281 29.8242 269.078 30.8711 267.789 31.8906C266.508 32.9141 265.219 33.7656 263.93 34.4531C262.637 35.1328 261.453 35.4688 260.383 35.4688ZM259.82 27.8125C260.352 27.5234 261 27.0859 261.773 26.5C262.543 25.918 263.23 25.2813 263.836 24.5938C264.437 23.9063 264.742 23.2305 264.742 22.5625C264.699 22.1562 264.512 21.9961 264.18 22.0781C263.512 22.1641 262.844 22.5156 262.18 23.1406C261.512 23.7578 260.93 24.4609 260.43 25.25C259.937 26.043 259.57 26.7734 259.32 27.4375C259.32 27.6484 259.359 27.75 259.445 27.75C259.652 27.8359 259.777 27.8555 259.82 27.8125ZM273.723 41.3906C273.137 41.3906 272.68 41.0781 272.348 40.4531C272.012 39.8359 271.805 39.2812 271.723 38.7812C271.68 38.5703 271.66 38.3633 271.66 38.1562C271.66 37.9492 271.66 37.7617 271.66 37.5937C271.66 37.3867 271.66 37.2109 271.66 37.0625C271.66 36.918 271.66 36.8047 271.66 36.7187C271.699 35.1484 271.816 33.6719 272.004 32.2969C272.191 30.9219 272.43 29.5742 272.723 28.25C272.805 27.918 272.879 27.5625 272.941 27.1875C273.004 26.8125 272.887 26.4609 272.598 26.125C272.473 25.9609 272.441 25.793 272.504 25.625C272.566 25.4609 272.66 25.3125 272.785 25.1875C273.242 24.6055 273.598 23.9961 273.848 23.3594C274.098 22.7148 274.324 22.0391 274.535 21.3281C274.98 19.9141 275.539 18.3125 276.207 16.5313C276.871 14.7422 277.621 12.9336 278.457 11.1094C279.289 9.27734 280.18 7.5625 281.129 5.96875C282.086 4.36719 283.105 3.02344 284.191 1.9375C284.523 1.6875 284.816 1.5625 285.066 1.5625C285.105 1.5625 285.16 1.57419 285.223 1.59375C285.285 1.61719 285.379 1.64843 285.504 1.6875C285.793 1.8125 285.973 1.99219 286.035 2.21875C286.098 2.44922 286.105 2.6875 286.066 2.9375C285.773 4.17969 285.262 5.6211 284.535 7.26563C283.805 8.91406 282.973 10.6016 282.035 12.3281C281.105 14.0469 280.164 15.6875 279.207 17.25C278.246 18.8047 277.414 20.1211 276.707 21.2031C275.957 22.2773 275.363 23.668 274.926 25.375C274.496 27.0859 274.16 28.8242 273.91 30.5937C273.66 32.3555 273.473 33.875 273.348 35.1563C273.262 35.7813 273.211 36.418 273.191 37.0625C273.168 37.7109 273.262 38.3438 273.472 38.9688C273.554 39.3008 273.742 39.4688 274.035 39.4688C274.324 39.4688 274.695 39.1953 275.144 38.6562C275.601 38.1133 275.914 37.7422 276.082 37.5313C277.539 35.668 279.035 33.6875 280.566 31.5938C282.105 29.4922 283.566 27.4805 284.941 25.5625C285.023 25.3984 285.191 25.1367 285.441 24.7813C285.691 24.4297 285.918 24.25 286.129 24.25C286.168 24.25 286.316 24.293 286.566 24.375C286.855 24.5 286.961 24.7305 286.879 25.0625C286.879 25.3984 286.793 25.6484 286.629 25.8125C286.504 26.0625 286.355 26.3242 286.191 26.5938C286.023 26.8672 285.855 27.125 285.691 27.375C285.023 28.2109 284.355 29.0742 283.691 29.9688C283.023 30.8555 282.355 31.7773 281.691 32.7344C281.035 33.6953 280.363 34.6328 279.676 35.5469C278.988 36.4531 278.308 37.3438 277.644 38.2188C277.433 38.5508 277.09 38.9766 276.613 39.5C276.133 40.0195 275.633 40.4609 275.113 40.8281C274.601 41.2031 274.137 41.3906 273.723 41.3906ZM278.77 15.7188C278.77 15.6797 278.789 15.6562 278.832 15.6562C278.832 15.6562 278.832 15.6797 278.832 15.7188C279.414 14.5547 280.004 13.375 280.598 12.1875C281.199 11 281.816 9.82812 282.441 8.67187L284.129 5.29688V5.23438C284.086 5.19531 284.066 5.15235 284.066 5.10938C284.066 5.19531 284.086 5.25782 284.129 5.29688C283.879 5.21484 283.754 5.17188 283.754 5.17188C283.586 5.17188 283.379 5.33984 283.129 5.67188C282.293 7.08985 281.512 8.51563 280.785 9.95313C280.066 11.3828 279.414 12.8672 278.832 14.4063C278.621 14.9492 278.602 15.3867 278.77 15.7188ZM283.25 42.3906C282.75 42.3906 282.5 42.1602 282.5 41.7031C282.5 41.4531 282.512 41.1914 282.531 40.9219C282.555 40.6602 282.586 40.3828 282.625 40.0937L283.25 36.0937C283.336 35.7187 283.356 35.3516 283.313 34.9844C283.273 34.6094 283.231 34.2344 283.188 33.8594C283.188 33.4844 283.313 33.1523 283.563 32.8594C283.895 32.6094 284.082 32.2773 284.125 31.8594C284.25 31.1523 284.395 30.4297 284.563 29.6875C284.727 28.9375 284.914 28.2109 285.125 27.5C285.164 27.3359 285.195 27.168 285.219 27C285.238 26.8359 285.164 26.6875 285 26.5625C284.664 26.2734 284.531 26 284.594 25.75C284.656 25.5 284.77 25.2305 284.938 24.9375C285.727 23.8125 286.379 22.6328 286.891 21.3906C287.41 20.1406 287.922 18.8711 288.422 17.5781C288.461 17.4531 288.66 16.9688 289.016 16.125C289.367 15.2734 289.797 14.25 290.297 13.0625C290.797 11.875 291.336 10.7031 291.922 9.54688C292.504 8.38281 293.051 7.41406 293.563 6.64062C294.082 5.87109 294.531 5.48438 294.906 5.48438C295.07 5.48438 295.238 5.52734 295.406 5.60938C295.738 5.82031 295.863 6.10938 295.781 6.48438C295.57 7.27734 295.227 8.25781 294.75 9.42188C294.27 10.5781 293.727 11.7813 293.125 13.0313C292.531 14.2813 291.93 15.4492 291.328 16.5313C290.723 17.6055 290.211 18.4961 289.797 19.2031C288.922 20.7031 288.223 22.3594 287.703 24.1719C287.18 25.9766 286.719 27.7031 286.313 29.3594C286.27 29.5273 286.238 29.6719 286.219 29.7969C286.195 29.9219 286.227 30.0703 286.313 30.2344C286.688 30.0273 286.91 29.8203 286.984 29.6094C287.066 29.3203 287.191 29.0898 287.359 28.9219C288.066 27.7266 288.848 26.5312 289.703 25.3437C290.555 24.1562 291.547 23.1328 292.672 22.2656C292.879 22.1406 293.082 22.0273 293.281 21.9219C293.488 21.8203 293.719 21.7461 293.969 21.7031C294.383 21.6641 294.738 21.7891 295.031 22.0781C295.32 22.3594 295.426 22.7109 295.344 23.125C295.258 23.8359 294.875 24.668 294.188 25.625C293.5 26.5859 292.75 27.4922 291.938 28.3438C291.133 29.1875 290.461 29.8594 289.922 30.3594C289.547 30.6953 289.16 31.0273 288.766 31.3594C288.367 31.6953 287.961 32.0273 287.547 32.3594C287.422 32.4844 287.379 32.6523 287.422 32.8594C287.504 33.0703 287.648 33.1719 287.859 33.1719C290.441 32.9648 292.789 32.5078 294.906 31.7969C297.031 31.0898 299.109 29.8672 301.141 28.125C301.473 27.8359 301.805 27.5547 302.141 27.2812C302.473 27.0117 302.785 26.7305 303.078 26.4375C303.41 26.1484 303.734 25.8672 304.047 25.5938C304.359 25.3242 304.68 25.043 305.016 24.75C305.098 24.668 305.191 24.5859 305.297 24.5C305.399 24.418 305.492 24.3359 305.578 24.25C305.648 24.168 305.738 24.0938 305.844 24.0313C305.945 23.9688 306.039 23.918 306.125 23.875C306.164 23.8359 306.27 23.8125 306.438 23.8125C306.602 23.8125 306.789 23.918 307 24.125C307.207 24.4609 307.227 24.7109 307.063 24.875C307.02 25 306.852 25.2109 306.563 25.5C304.656 27.293 302.816 28.8672 301.047 30.2188C299.285 31.5625 297.395 32.6328 295.375 33.4219C293.363 34.2148 291.004 34.6719 288.297 34.7969C287.547 34.7969 287.023 34.8086 286.734 34.8281C286.453 34.8516 286.25 35.0078 286.125 35.2969C286 35.5781 285.789 36.0938 285.5 36.8438C285.414 37.1367 285.32 37.4375 285.219 37.75C285.113 38.0625 285.02 38.3828 284.938 38.7188C284.852 39.0078 284.75 39.3125 284.625 39.625C284.5 39.9375 284.395 40.2578 284.313 40.5938L283.938 41.9531C283.77 42.2422 283.543 42.3906 283.25 42.3906ZM289.234 28.9219C289.609 28.6836 290.141 28.2187 290.828 27.5312C291.516 26.8437 292.156 26.125 292.75 25.375C293.352 24.625 293.695 24.043 293.781 23.625C293.25 23.7109 292.66 24.0742 292.016 24.7188C291.367 25.3672 290.797 26.0859 290.297 26.875C289.797 27.668 289.441 28.3516 289.234 28.9219ZM306.762 35.8437C305.594 35.8437 304.781 35.2461 304.324 34.0469C304.199 33.7148 304.125 33.3711 304.105 33.0156C304.082 32.6641 304.074 32.2578 304.074 31.7969C304.238 30.8828 304.426 29.793 304.637 28.5312C304.844 27.2617 305.125 26.0547 305.48 24.9062C305.832 23.7617 306.281 22.9219 306.824 22.3906C307.031 22.2656 307.191 22.2031 307.309 22.2031C307.348 22.2031 307.496 22.2461 307.746 22.3281C308.035 22.4453 308.141 22.668 308.059 23C307.516 24.375 307.035 25.8242 306.621 27.3438C306.215 28.8555 305.906 30.3398 305.699 31.7969C305.656 32.2578 305.699 32.7969 305.824 33.4219C305.906 33.7578 306.051 33.9648 306.262 34.0469C306.469 34.1328 306.738 34.1719 307.074 34.1719C307.519 34.0898 307.933 33.9453 308.309 33.7344C308.684 33.5273 309.058 33.2773 309.433 32.9844C310.266 32.2773 311.066 31.5469 311.84 30.7969C312.609 30.0469 313.344 29.2617 314.043 28.4375C314.293 28.1484 314.543 27.8555 314.793 27.5625C315.043 27.2734 315.269 26.9805 315.48 26.6875C315.687 26.3984 315.918 26.1055 316.168 25.8125C316.418 25.5234 316.668 25.2305 316.918 24.9375C317.043 24.7734 317.176 24.625 317.324 24.5C317.469 24.375 317.625 24.25 317.793 24.125C317.875 24.043 317.98 24 318.105 24C318.269 24 318.418 24.0625 318.543 24.1875C318.793 24.3555 318.875 24.6055 318.793 24.9375C318.75 25.1875 318.625 25.418 318.418 25.625C317.332 27.043 316.219 28.418 315.074 29.75C313.937 31.0742 312.683 32.3203 311.308 33.4844C310.723 34.0273 310.027 34.5586 309.215 35.0781C308.402 35.5898 307.582 35.8437 306.762 35.8437ZM308.371 19.9531C307.746 20.0391 307.391 19.6406 307.309 18.7656C307.309 18.0156 307.684 17.6406 308.434 17.6406C309.223 17.6406 309.641 17.9766 309.684 18.6406C309.684 18.9766 309.547 19.2773 309.277 19.5469C309.004 19.8203 308.703 19.9531 308.371 19.9531ZM343.84 21.5156C343.422 21.5156 343.234 21.2461 343.277 20.7031C343.402 20.2031 343.691 19.9531 344.152 19.9531C344.734 19.9531 344.984 20.2031 344.902 20.7031C344.816 21.2461 344.465 21.5156 343.84 21.5156ZM342.527 27.75C342.285 27.793 342.105 27.7109 341.98 27.5C341.855 27.293 341.832 27.0625 341.918 26.8125C342.125 26.4375 342.434 26.25 342.84 26.25C343.129 26.375 343.254 26.6484 343.215 27.0625C343.129 27.5234 342.902 27.75 342.527 27.75Z" fill="black"/>
</svg>
