<svg width="332" height="78" viewBox="0 0 332 78" fill="none" xmlns="http://www.w3.org/2000/svg">
<path d="M3.40665 70.6094C2.85587 70.6094 2.30508 70.4375 1.7504 70.0938C0.918365 69.5391 0.398834 68.8828 0.187896 68.125C-0.019135 67.3633 -0.0542913 66.5313 0.0785212 65.625C0.289459 64.6562 0.80899 63.5313 1.64102 62.25C2.47696 60.9687 3.41446 59.7422 4.45352 58.5625C5.49258 57.375 6.43008 56.5078 7.26602 55.9531C8.02383 55.3281 8.52383 54.6719 8.76602 53.9844C9.0043 53.2891 9.1254 52.4531 9.1254 51.4844C9.0629 49.8906 8.92618 48.3359 8.71915 46.8125C8.50821 45.2812 8.23477 43.7188 7.89102 42.125C7.74258 41.4297 7.63321 40.75 7.5629 40.0938C7.5004 39.4375 7.43008 38.7617 7.35977 38.0625C7.22305 35.7109 7.65665 33.6836 8.65665 31.9844C9.66446 30.2891 11.0707 28.7773 12.8754 27.4531C13.9145 26.8281 14.9887 26.5156 16.0941 26.5156C16.6566 26.5156 17.1098 26.5547 17.4535 26.625C17.7973 26.6992 18.1762 26.9453 18.5941 27.3594C18.8754 27.6328 18.9613 27.9453 18.8598 28.2969C18.7543 28.6406 18.5316 28.8828 18.1879 29.0156C18.1137 29.0898 17.9066 29.125 17.5629 29.125C15.6137 29.125 13.9106 29.8203 12.4535 31.2031C11.0043 32.5898 10.2074 34.25 10.0629 36.1875C10.0004 36.4688 9.96915 36.75 9.96915 37.0312C9.96915 37.3047 9.96915 37.5781 9.96915 37.8594C9.96915 38.1328 9.98477 38.4062 10.016 38.6875C10.0473 38.9688 10.0981 39.2461 10.1723 39.5156C10.516 41.3906 10.8441 43.25 11.1566 45.0938C11.4691 46.9297 11.6957 48.7812 11.8441 50.6562C11.8441 50.7188 12.016 51.0273 12.3598 51.5781C12.9848 51.2344 13.5043 50.9297 13.9223 50.6562L29.0004 40.0469C29.3441 39.9023 29.6566 39.6953 29.9379 39.4219C30.2816 39.2148 30.5941 39.1094 30.8754 39.1094C31.1449 39.1094 31.3832 39.2148 31.5941 39.4219C32.2191 39.9766 32.2856 40.4961 31.7973 40.9844C31.5238 41.3906 30.9731 41.9062 30.141 42.5312C28.7543 43.5117 27.3988 44.4688 26.0785 45.4062C24.766 46.3359 23.4457 47.2812 22.1254 48.25L13.5004 54.3906C12.3207 55.2266 11.6293 56.3359 11.4223 57.7188C11.3481 59.1797 10.9613 60.9141 10.266 62.9219C9.57852 64.9297 8.64493 66.7109 7.46915 68.2656C6.28946 69.8281 4.9379 70.6094 3.40665 70.6094ZM3.6254 67.7031C3.89883 67.7031 4.13711 67.5977 4.34415 67.3906C5.3129 66.6289 6.14493 65.5039 6.84415 64.0156C7.53946 62.5234 7.92227 60.9492 7.98477 59.2812C5.55508 61.0859 3.82462 63.2656 2.78165 65.8281C2.71915 66.1094 2.71915 66.3516 2.78165 66.5625C2.78165 66.9062 2.88712 67.1797 3.09415 67.3906C3.24258 67.5977 3.41836 67.7031 3.6254 67.7031ZM31.1879 57.0938C29.9379 57.0938 28.8207 56.7148 27.8441 55.9531C26.8754 55.1953 26.2582 54.1211 25.9848 52.7344C25.7777 51.6953 25.7035 50.793 25.766 50.0312C25.9145 48.5742 26.3285 46.8906 27.016 44.9844C27.7113 43.0781 28.6488 41.293 29.8285 39.625C31.0043 37.9609 32.2543 36.8867 33.5785 36.4062C33.9926 36.1992 34.4418 36.0938 34.9223 36.0938C35.5473 36.1562 35.9262 36.5 36.0629 37.125C36.2074 37.9609 36.0004 38.4141 35.4379 38.4844C34.2582 38.6953 33.3598 39.1797 32.7348 39.9375C32.1098 40.6992 31.5199 41.5312 30.9691 42.4375C30.0004 44.3047 29.3051 46.0703 28.891 47.7344C28.6098 48.4961 28.4691 49.5 28.4691 50.75C28.4691 52.7617 29.1645 53.9375 30.5629 54.2812C31.3832 54.2812 32.0707 54.1836 32.6254 53.9844C33.1879 53.7773 33.7113 53.2578 34.2035 52.4219C34.891 51.3086 35.3012 50.1992 35.4379 49.0938C35.5824 47.9805 35.2738 46.8359 34.516 45.6562C34.0981 44.9609 33.7504 44.2656 33.4691 43.5781C33.3324 43.2344 33.3832 42.9062 33.6254 42.5938C33.8637 42.2812 34.1606 42.0898 34.516 42.0156H37.7348C39.6723 42.0156 41.6137 41.7031 43.5629 41.0781C44.0395 40.9453 44.5199 40.7734 45.0004 40.5625C45.4887 40.3555 45.977 40.1836 46.4691 40.0469C46.9574 39.9023 47.4262 39.7266 47.8754 39.5156C48.3207 39.3086 48.7895 39.1367 49.2816 39L50.9379 38.5781C51.4887 38.5781 51.9418 38.8594 52.2973 39.4219C52.641 40.2578 52.3598 40.8086 51.4535 41.0781C50.4848 41.4219 49.516 41.7734 48.5473 42.125C47.5785 42.4688 46.6098 42.8125 45.641 43.1562C44.6723 43.5117 43.6801 43.8086 42.6723 44.0469C41.6723 44.2891 40.6137 44.4766 39.5004 44.6094C38.5316 44.7578 37.9926 44.918 37.891 45.0938C37.7856 45.2617 37.8012 45.7969 37.9379 46.7031C38.352 48.7148 38.1137 50.6875 37.2191 52.625C36.5199 54.0859 35.477 55.2969 34.0941 56.2656C33.1254 56.8203 32.1566 57.0938 31.1879 57.0938ZM53.7465 58.0312C50.8402 58.0312 48.8129 57.2578 47.6684 55.7031C46.5238 54.1406 46.0199 52.25 46.1527 50.0312C46.1527 49.6797 46.1762 49.3828 46.2152 49.1406C46.2465 48.9023 46.3012 48.6406 46.3715 48.3594C47.1332 45.4531 48.2191 42.7891 49.6371 40.3594C51.0629 37.9336 52.9223 35.7148 55.2152 33.7031C56.4535 32.6641 57.7348 32.1406 59.059 32.1406C60.0277 32.1406 61.0121 32.418 62.0121 32.9688C63.0199 33.5234 63.5941 34.3555 63.7309 35.4688C64.1449 38.1055 63.4535 40.5312 61.6527 42.75C61.516 42.9609 61.2387 43.1328 60.8246 43.2656C60.7504 43.2656 60.7152 43.2656 60.7152 43.2656C60.7152 43.3398 60.684 43.375 60.6215 43.375C60.1293 43.375 59.8871 43.168 59.8871 42.75C59.8129 42.3984 59.8793 42.0469 60.0902 41.7031C60.1606 41.5703 60.2309 41.418 60.2934 41.25C60.3637 41.0742 60.4379 40.9141 60.5121 40.7656C60.8559 40.2148 61.1137 39.6094 61.2934 38.9531C61.4691 38.2891 61.4848 37.6094 61.3402 36.9219C61.2035 35.5391 60.5473 34.8438 59.3715 34.8438C58.8168 34.8438 58.2816 35 57.7621 35.3125C57.2387 35.625 56.8012 35.9531 56.4496 36.2969C52.7816 39.5586 50.3246 43.6836 49.0746 48.6719C47.8949 53.1836 49.4535 55.4375 53.7465 55.4375C54.0277 55.4375 54.2348 55.4023 54.3715 55.3281C54.516 55.3281 54.641 55.3281 54.7465 55.3281C54.848 55.3281 54.934 55.3281 54.9965 55.3281C57.4223 54.9844 59.848 54.1719 62.2777 52.8906C64.7035 51.6016 66.8871 50.2969 68.8246 48.9844C69.7309 48.2891 70.6137 47.5781 71.4809 46.8594C72.3441 46.1328 73.2309 45.418 74.1371 44.7188C75.0316 44.0312 75.9106 43.3398 76.7777 42.6406C77.6527 41.9453 78.5356 41.25 79.434 40.5625C79.5785 40.4297 79.7348 40.293 79.9027 40.1562C80.0785 40.0117 80.2348 39.8711 80.3715 39.7344C80.516 39.5898 80.6723 39.4648 80.8402 39.3594C81.016 39.2578 81.1723 39.1719 81.309 39.1094C81.7231 38.9648 81.934 38.8906 81.934 38.8906C82.3481 38.8906 82.6606 39.0703 82.8715 39.4219C83.2152 39.8398 83.2152 40.3594 82.8715 40.9844C82.7973 41.1211 82.6566 41.293 82.4496 41.5C82.3871 41.5625 82.3012 41.6484 82.1996 41.75C82.0941 41.8555 82.0043 41.9453 81.934 42.0156C79.641 43.9531 77.3324 45.8594 75.0121 47.7344C72.6996 49.6094 70.2543 51.3828 67.684 53.0469C65.5356 54.4336 63.3871 55.543 61.2309 56.375C59.0824 57.1992 56.766 57.75 54.2777 58.0312H53.7465ZM82.4496 58.5469C80.5121 58.5469 79.1606 57.543 78.4027 55.5312C78.1918 54.9805 78.0668 54.4141 78.0277 53.8281C77.9965 53.2344 77.9809 52.5586 77.9809 51.7969C78.2621 50.2656 78.5746 48.4453 78.9184 46.3281C79.2621 44.2148 79.7231 42.2031 80.309 40.2969C80.9027 38.3906 81.6527 36.9922 82.559 36.0938C82.9027 35.8867 83.1762 35.7812 83.3871 35.7812C83.4574 35.7812 83.7035 35.8516 84.1215 35.9844C84.5981 36.1953 84.7699 36.5742 84.6371 37.125C83.7309 39.418 82.9262 41.8281 82.2309 44.3594C81.5434 46.8906 81.0277 49.3711 80.684 51.7969C80.6098 52.5586 80.6762 53.4609 80.8871 54.5C81.0317 55.0547 81.2777 55.4023 81.6215 55.5469C81.9652 55.6836 82.4106 55.75 82.9652 55.75C83.7348 55.6055 84.434 55.3594 85.059 55.0156C85.684 54.6719 86.3012 54.2578 86.9184 53.7656C88.3129 52.5898 89.6527 51.375 90.934 50.125C92.2152 48.875 93.4418 47.5586 94.6215 46.1719C95.0356 45.6953 95.4535 45.2148 95.8715 44.7344C96.2856 44.2461 96.6684 43.7578 97.0121 43.2656C97.3559 42.7773 97.7348 42.293 98.1527 41.8125C98.5668 41.3242 98.9848 40.8398 99.4027 40.3594C99.6098 40.0781 99.8324 39.8359 100.075 39.625C100.325 39.418 100.582 39.2109 100.856 39C101 38.8672 101.176 38.7969 101.387 38.7969C101.657 38.7969 101.895 38.9023 102.106 39.1094C102.52 39.3828 102.661 39.7969 102.528 40.3594C102.454 40.7773 102.246 41.1562 101.903 41.5C100.098 43.8555 98.2465 46.1406 96.3402 48.3594C94.434 50.5781 92.3324 52.6562 90.0434 54.5938C89.0746 55.5 87.9106 56.3867 86.559 57.25C85.2035 58.1172 83.8324 58.5469 82.4496 58.5469ZM85.1527 32.0312C84.1098 32.168 83.5199 31.5117 83.3871 30.0625C83.3871 28.8125 84.0121 28.1875 85.2621 28.1875C86.5746 28.1875 87.266 28.7422 87.3402 29.8438C87.3402 30.4062 87.1137 30.9141 86.6684 31.3594C86.2191 31.8086 85.7152 32.0312 85.1527 32.0312ZM97.8402 53.3594C96.4574 53.3594 95.6957 52.5273 95.559 50.8594C95.559 49.3281 95.8871 47.6992 96.5434 45.9688C97.1996 44.2422 98.0277 42.5781 99.0277 40.9844C100.036 39.3828 101.063 38.0625 102.106 37.0312C102.387 36.6797 102.907 36.2266 103.668 35.6719C104.782 34.7773 105.926 34.3281 107.106 34.3281C108.145 34.3281 109.184 34.7422 110.215 35.5625C110.778 35.918 111.09 36.0938 111.153 36.0938C111.36 36.0938 111.672 35.8125 112.09 35.25C112.434 34.9062 112.762 34.5273 113.075 34.1094C113.387 33.6953 113.684 33.2773 113.965 32.8594C114.246 32.4453 114.536 32.0312 114.84 31.625C115.153 31.2109 115.45 30.793 115.731 30.375C115.864 30.2305 116 30.0547 116.137 29.8438C116.282 29.6367 116.422 29.4297 116.559 29.2188C116.704 29.0859 116.829 28.9141 116.934 28.7031C117.036 28.4961 117.157 28.3242 117.293 28.1875C117.782 27.6992 118.2 27.4531 118.543 27.4531C118.543 27.4531 118.75 27.5273 119.168 27.6719C119.856 28.0781 120.028 28.7734 119.684 29.75C119.61 30.0234 119.52 30.2617 119.418 30.4688C119.313 30.6797 119.192 30.8867 119.059 31.0938C118.778 31.5859 118.536 32.0703 118.34 32.5469C117.715 33.8711 116.985 35.5078 116.153 37.4531C115.317 39.3906 114.606 41.3516 114.012 43.3281C113.426 45.2969 113.137 47.043 113.137 48.5625C113.137 49.1875 113.344 49.5 113.762 49.5C113.969 49.5 114.106 49.4688 114.168 49.4062C114.657 49.1992 115.125 48.9922 115.575 48.7812C116.02 48.5742 116.489 48.3281 116.981 48.0469C117.606 47.6328 118.246 47.1992 118.903 46.75C119.559 46.3047 120.2 45.7969 120.825 45.2344C121.313 44.8906 121.766 44.5117 122.184 44.0938C122.598 43.6797 123.016 43.2969 123.434 42.9531C124.192 42.1953 125.02 41.4648 125.918 40.7656C126.063 40.6328 126.219 40.4961 126.387 40.3594C126.563 40.2148 126.719 40.0742 126.856 39.9375C127 39.8047 127.282 39.5938 127.7 39.3125C127.832 39.2422 127.934 39.1875 127.996 39.1562C128.067 39.125 128.141 39.1094 128.215 39.1094C128.485 39.1094 128.723 39.2149 128.934 39.4219C129.422 39.6953 129.563 40.2149 129.356 40.9844C129.282 41.0469 129.246 41.1016 129.246 41.1406C129.246 41.1719 129.215 41.2188 129.153 41.2813C129.079 41.3555 129.004 41.4297 128.934 41.5C128.872 41.5625 128.801 41.6328 128.731 41.7031C127.762 42.6719 126.375 43.9766 124.575 45.6094C122.77 47.2344 120.918 48.7109 119.012 50.0313C117.106 51.3438 115.422 52.1406 113.965 52.4219C113.829 52.4844 113.516 52.5156 113.028 52.5156C111.297 52.5156 110.434 51.5117 110.434 49.5C110.434 48.1172 110.567 46.7305 110.84 45.3438C111.122 43.9609 111.434 42.5742 111.778 41.1875C111.016 41.5313 110.497 41.875 110.215 42.2188C110.079 42.4297 109.907 42.6367 109.7 42.8438C109.489 43.0547 109.317 43.2305 109.184 43.375C108.004 44.7617 106.825 46.0938 105.637 47.375C104.457 48.6563 103.215 49.8867 101.903 51.0625C101.411 51.4805 100.786 51.9688 100.028 52.5313C99.2661 53.0859 98.5356 53.3594 97.8402 53.3594ZM98.7777 49.6094C99.1918 49.6094 99.5043 49.5078 99.7152 49.2969C101.379 47.9141 102.938 46.3867 104.387 44.7188C105.844 43.0547 107.27 41.3555 108.668 39.625C108.731 39.5547 108.793 39.4844 108.856 39.4219C108.926 39.3516 109 39.2461 109.075 39.1094C109.282 38.4141 109.145 37.9297 108.668 37.6562C108.106 37.3047 107.614 37.125 107.2 37.125C106.856 37.125 106.422 37.2656 105.903 37.5469C105.379 37.8203 104.985 38.0937 104.715 38.375C101.454 41.2188 99.4066 44.8984 98.5746 49.4062L98.684 49.5C98.7465 49.5 98.7777 49.5391 98.7777 49.6094ZM127.7 67.8125C126.719 67.8125 125.954 67.2891 125.403 66.25C124.848 65.207 124.504 64.2695 124.371 63.4375C124.297 63.0937 124.262 62.7422 124.262 62.3906C124.262 62.0469 124.262 61.7422 124.262 61.4688C124.262 61.1172 124.262 60.8203 124.262 60.5781C124.262 60.3398 124.262 60.1523 124.262 60.0156C124.332 57.3828 124.528 54.918 124.84 52.625C125.153 50.3359 125.547 48.0781 126.028 45.8594C126.161 45.3086 126.282 44.7188 126.387 44.0938C126.489 43.4688 126.301 42.8828 125.825 42.3281C125.614 42.0469 125.563 41.7734 125.668 41.5C125.77 41.2188 125.926 40.9766 126.137 40.7656C126.895 39.7969 127.485 38.7773 127.903 37.7031C128.317 36.6328 128.7 35.5078 129.043 34.3281C129.801 31.9648 130.735 29.293 131.84 26.3125C132.954 23.3359 134.204 20.3203 135.59 17.2656C136.985 14.2148 138.481 11.3555 140.075 8.6875C141.668 6.02344 143.364 3.78906 145.168 1.98438C145.719 1.57031 146.204 1.35938 146.622 1.35938C146.692 1.35938 146.782 1.375 146.887 1.40624C146.989 1.43749 147.145 1.49218 147.356 1.56249C147.832 1.77343 148.125 2.0703 148.231 2.45312C148.332 2.82812 148.356 3.22656 148.293 3.64062C147.801 5.72656 146.95 8.13671 145.731 10.875C144.52 13.6172 143.137 16.4219 141.575 19.2969C140.012 22.1719 138.434 24.9141 136.84 27.5156C135.247 30.1094 133.86 32.3086 132.684 34.1094C131.434 35.9141 130.442 38.2344 129.715 41.0781C128.996 43.9219 128.426 46.8203 128.012 49.7656C127.594 52.7148 127.282 55.2617 127.075 57.4062C126.926 58.4492 126.84 59.5078 126.809 60.5781C126.778 61.6523 126.934 62.707 127.278 63.75C127.411 64.3008 127.723 64.5781 128.215 64.5781C128.704 64.5781 129.329 64.125 130.09 63.2187C130.848 62.3203 131.371 61.7031 131.653 61.3594C134.079 58.2461 136.575 54.9375 139.137 51.4375C141.7 47.9297 144.125 44.5781 146.418 41.3906C146.551 41.1211 146.829 40.6875 147.247 40.0937C147.661 39.5 148.043 39.2031 148.387 39.2031C148.457 39.2031 148.704 39.2773 149.122 39.4219C149.598 39.6328 149.77 40.0117 149.637 40.5625C149.637 41.1172 149.497 41.5312 149.215 41.8125C149.004 42.2305 148.762 42.6641 148.481 43.1094C148.207 43.5586 147.938 43.9922 147.668 44.4062C146.551 45.793 145.438 47.2305 144.325 48.7187C143.219 50.2109 142.114 51.7578 141.012 53.3594C139.895 54.9531 138.766 56.5156 137.622 58.0469C136.473 59.5703 135.348 61.0547 134.246 62.5C133.903 63.0625 133.329 63.7734 132.528 64.6406C131.735 65.5039 130.903 66.25 130.028 66.875C129.161 67.5 128.387 67.8125 127.7 67.8125ZM136.122 24.9531C136.122 24.8906 136.153 24.8594 136.215 24.8594C136.215 24.8594 136.215 24.8906 136.215 24.9531C137.192 23.0156 138.184 21.0625 139.184 19.0938C140.192 17.1172 141.215 15.1523 142.246 13.2031L145.059 7.59375V7.48438C144.996 7.42188 144.965 7.35547 144.965 7.28125C144.965 7.41797 144.996 7.52344 145.059 7.59375C144.641 7.46094 144.434 7.39062 144.434 7.39062C144.161 7.39062 143.817 7.66797 143.403 8.21875C142.016 10.5742 140.715 12.9492 139.496 15.3438C138.286 17.7305 137.192 20.2109 136.215 22.7812C135.871 23.6797 135.84 24.4023 136.122 24.9531ZM184.582 61.25C184.301 61.25 184.129 61.2188 184.067 61.1562C183.297 60.9492 182.911 60.4297 182.911 59.5938C182.911 56.8242 183.192 54.0703 183.754 51.3281C184.305 48.5898 184.961 45.9023 185.723 43.2656C185.93 42.5703 186.325 41.2891 186.911 39.4219C187.504 37.5469 188.196 35.5 188.989 33.2812C189.789 31.0625 190.586 29.1055 191.379 27.4062C192.18 25.7109 192.864 24.7188 193.426 24.4375C193.84 24.3047 194.051 24.2344 194.051 24.2344C194.184 24.2344 194.356 24.3398 194.567 24.5469C194.774 24.7578 194.914 24.9297 194.989 25.0625C195.122 25.6875 195.086 26.1719 194.879 26.5156C194.598 27.0078 194.352 27.4961 194.145 27.9844C192.34 31.7969 190.817 35.75 189.567 39.8438C188.325 43.9297 187.254 48.0469 186.348 52.2031C186.274 52.4844 186.274 52.7305 186.348 52.9375C186.348 53.2188 186.309 53.4297 186.239 53.5625C186.309 53.6367 186.489 53.6719 186.77 53.6719C187.039 53.6719 187.211 53.5703 187.286 53.3594C187.418 53.0781 187.524 52.9023 187.598 52.8281C188.012 52.0703 188.43 51.3242 188.848 50.5938C189.262 49.8672 189.68 49.1211 190.098 48.3594C190.512 47.6016 190.93 46.8555 191.348 46.125C191.762 45.3984 192.211 44.6875 192.692 44C193.598 42.6055 194.618 41.1836 195.754 39.7344C196.899 38.2773 198.164 37.0625 199.551 36.0938C199.965 35.8867 200.352 35.7812 200.707 35.7812C201.602 35.7812 202.223 36.2656 202.567 37.2344C202.848 37.7891 203.004 38.375 203.036 39C203.075 39.625 203.059 40.25 202.989 40.875C202.989 41.3555 202.989 41.8047 202.989 42.2188C202.989 42.6367 202.95 43.0547 202.879 43.4688C202.817 43.8867 202.786 44.3047 202.786 44.7188C202.786 45.1367 202.746 45.5547 202.676 45.9688C202.676 46.1797 202.676 46.3867 202.676 46.5938C202.676 46.8047 202.711 47.0117 202.786 47.2188C202.786 47.4297 202.786 47.6367 202.786 47.8438C202.786 48.0547 202.786 48.2266 202.786 48.3594C202.786 48.7773 203.059 48.9844 203.614 48.9844C203.684 48.9141 203.754 48.875 203.817 48.875L205.801 47.0156C206.071 46.7344 206.364 46.4609 206.676 46.1875C206.989 45.9062 207.286 45.625 207.567 45.3438C207.848 45.0625 208.122 44.7891 208.395 44.5156C208.676 44.2344 208.95 43.9609 209.223 43.6875C210.055 43.125 210.715 42.7109 211.207 42.4375C211.477 42.3672 211.7 42.3125 211.879 42.2812C212.055 42.2422 212.176 42.2188 212.239 42.2188C213.215 42.2188 213.915 42.6719 214.332 43.5781C214.602 43.9961 214.774 44.3086 214.848 44.5156C214.911 44.6523 214.957 44.8086 214.989 44.9844C215.028 45.1523 215.086 45.3086 215.161 45.4531C215.43 46.1406 215.774 46.7305 216.192 47.2188C216.754 47.8438 217.348 48.1562 217.973 48.1562C218.661 48.1562 219.45 47.8828 220.348 47.3281C221.254 46.7656 221.95 46.3125 222.442 45.9688C223.618 45 224.793 43.9961 225.973 42.9531C227.149 41.9141 228.293 40.9062 229.411 39.9375C229.473 39.8672 229.54 39.7969 229.614 39.7344C229.684 39.6641 229.754 39.5586 229.817 39.4219C230.379 39.0703 230.762 38.8906 230.973 38.8906C231.379 38.8906 231.684 39.0703 231.895 39.4219C232.52 40.0469 232.489 40.7031 231.801 41.3906C231.383 41.9453 230.899 42.4297 230.348 42.8438L224.098 48.1562C223.2 48.918 221.958 49.6797 220.364 50.4375C219.739 50.7188 218.942 50.8594 217.973 50.8594C216.161 50.8594 214.7 49.9922 213.598 48.25C213.461 47.9805 213.321 47.7266 213.176 47.4844C213.04 47.2344 212.934 46.9766 212.864 46.7031C212.653 46.1406 212.274 45.6875 211.723 45.3438C211.243 45.625 210.793 45.9375 210.379 46.2812C209.961 46.625 209.575 46.9766 209.223 47.3281C208.879 47.6719 208.497 48.0547 208.083 48.4688C207.665 48.8867 207.286 49.2656 206.942 49.6094C206.661 49.8906 206.379 50.1719 206.098 50.4531C205.825 50.7266 205.551 50.9961 205.27 51.2656C204.715 51.8281 204.059 52.2812 203.301 52.625C202.747 52.7617 202.473 52.8281 202.473 52.8281C201.774 52.8281 201.184 52.4844 200.708 51.7969C200.352 51.0391 200.137 50.2773 200.067 49.5156C200.004 48.7461 199.973 47.9453 199.973 47.1094C200.043 46.3516 200.098 45.5742 200.129 44.7812C200.161 43.9805 200.176 43.1992 200.176 42.4375C200.176 42.2305 200.192 42.0078 200.223 41.7656C200.262 41.5156 200.321 41.2578 200.395 40.9844C200.528 40.4219 200.286 40.0742 199.661 39.9375C199.243 39.8672 198.895 40.0078 198.614 40.3594C198.477 40.6328 198.34 40.8711 198.208 41.0781C198.071 41.2891 197.93 41.4609 197.786 41.5938C196.887 42.6367 196.075 43.7305 195.348 44.875C194.618 46.0234 193.903 47.1836 193.208 48.3594C192.383 49.8906 191.555 51.4023 190.723 52.8906C189.887 54.3828 189.055 55.8555 188.223 57.3125C187.879 57.9297 187.551 58.5156 187.239 59.0781C186.926 59.6328 186.489 60.1523 185.926 60.6406C185.52 61.0469 185.071 61.25 184.582 61.25ZM232.008 57.9219C229.164 57.9219 227.391 56.6406 226.696 54.0781C226.489 53.5273 226.317 52.9375 226.18 52.3125C226.047 51.6875 226.008 51.1016 226.071 50.5469C226.008 49.6406 226.067 48.8086 226.243 48.0469C226.411 47.2891 226.598 46.5273 226.805 45.7656C227.43 44.1016 228.278 42.3125 229.352 40.4062C230.422 38.5 231.704 36.8203 233.196 35.3594C234.684 33.9023 236.336 33.0391 238.149 32.7656C238.356 32.7656 238.493 32.7305 238.555 32.6562C238.625 32.6562 238.696 32.6562 238.758 32.6562C238.829 32.6562 238.903 32.6562 238.977 32.6562C240.016 32.6562 240.829 33.0078 241.414 33.7031C242.008 34.3906 242.231 35.3242 242.086 36.5C241.813 38.168 241 39.8867 239.649 41.6562C238.293 43.4297 236.715 44.918 234.914 46.125C233.11 47.3359 231.375 48.043 229.711 48.25C229.231 48.3984 228.954 48.7109 228.883 49.1875C228.61 50.3047 228.715 51.5156 229.196 52.8281C229.403 54.0078 229.797 54.6992 230.383 54.9062C230.977 55.1172 231.758 55.2188 232.727 55.2188C234.809 54.8047 236.938 53.8867 239.118 52.4688C241.305 51.0547 243.164 49.6484 244.696 48.25C245.321 47.6992 245.946 47.1094 246.571 46.4844C247.196 45.8594 247.813 45.2734 248.43 44.7188C248.993 44.168 249.586 43.6016 250.211 43.0156C250.836 42.4219 251.454 41.8438 252.071 41.2812C252.215 41.1484 252.391 40.9961 252.602 40.8281C252.809 40.6523 252.981 40.4961 253.118 40.3594C253.25 40.2148 253.407 40.0586 253.586 39.8906C253.762 39.7148 253.918 39.5586 254.055 39.4219C254.399 39.2148 254.672 39.1094 254.883 39.1094C255.164 39.1094 255.407 39.2148 255.618 39.4219C256.168 39.9023 256.274 40.4219 255.93 40.9844C255.856 41.1836 255.575 41.5273 255.086 42.0156C253.844 43.3398 252.289 44.9023 250.414 46.7031C248.539 48.5078 246.528 50.2578 244.383 51.9531C242.235 53.6523 240.086 55.0742 237.93 56.2188C235.782 57.3555 233.809 57.9219 232.008 57.9219ZM231.071 45.1406C231.965 44.6523 233.055 43.9219 234.336 42.9531C235.625 41.9844 236.774 40.9297 237.774 39.7812C238.782 38.6367 239.289 37.5117 239.289 36.4062C239.215 35.7109 238.903 35.4297 238.352 35.5625C237.235 35.7109 236.122 36.3047 235.008 37.3438C233.903 38.375 232.934 39.5547 232.102 40.875C231.278 42.1875 230.657 43.4023 230.243 44.5156C230.243 44.8594 230.309 45.0312 230.446 45.0312C230.789 45.168 230.997 45.2031 231.071 45.1406ZM267.891 77.5781C267.399 77.5781 266.961 77.125 266.579 76.2188C266.204 75.3203 265.926 74.2344 265.75 72.9531C265.571 71.6719 265.43 70.4414 265.329 69.2656C265.235 68.0859 265.188 67.2539 265.188 66.7656C265.039 62.6094 265.192 58.4844 265.641 54.3906C266.098 50.2969 266.774 46.2109 267.672 42.125C268.024 40.7422 268.375 39.3555 268.719 37.9688C269.063 36.5742 269.407 35.1836 269.75 33.7969C269.895 33.4531 270 33.0938 270.063 32.7188C270.133 32.3359 270.102 31.9336 269.969 31.5156V31.6094C269.344 31.9648 268.891 32.3516 268.61 32.7656C268.473 33.0391 268.301 33.2969 268.094 33.5469C267.883 33.7891 267.711 34.0469 267.579 34.3281C265.567 37.2344 263.469 40.0586 261.282 42.7969C259.094 45.5391 256.754 48.1562 254.266 50.6562C253.911 50.9297 253.579 51.168 253.266 51.375C252.954 51.5859 252.594 51.7578 252.188 51.8906C251.563 51.8906 251.024 51.7734 250.579 51.5312C250.122 51.293 249.856 50.8242 249.782 50.125C249.782 48.875 250.184 47.2812 250.985 45.3438C251.786 43.4062 252.704 41.5 253.735 39.625C254.774 37.75 255.61 36.293 256.235 35.25C256.786 34.4922 257.649 33.5938 258.829 32.5625C260.016 31.5234 261.055 31 261.954 31C262.922 31 263.79 31.7969 264.563 33.3906C264.907 33.2461 265.18 33.0391 265.391 32.7656C265.598 32.4844 265.77 32.2031 265.907 31.9219L269.969 26C271.219 24.125 272.379 22.2031 273.454 20.2344C274.524 18.2578 275.442 16.1563 276.204 13.9375C277.379 10.125 278.942 6.625 280.891 3.4375C281.161 2.875 281.454 2.32031 281.766 1.76562C282.079 1.21484 282.508 0.765625 283.063 0.421875C283.344 0.140625 283.692 0 284.11 0C284.661 0 285.02 0.140625 285.188 0.421875C285.364 0.695312 285.524 1.10938 285.672 1.67188C285.672 2.22656 285.583 2.72656 285.407 3.17188C285.227 3.62109 285.04 4.08984 284.844 4.57812C284.219 6.30859 283.504 7.99219 282.704 9.625C281.911 11.25 281.024 12.8281 280.047 14.3594C278.735 16.3711 277.489 18.918 276.313 22C275.133 25.0859 274.04 28.3594 273.032 31.8281C272.032 35.2969 271.18 38.6484 270.485 41.875C269.786 45.0938 269.266 47.8828 268.922 50.2344C268.504 53.0078 268.192 55.7617 267.985 58.5C267.774 61.2422 267.743 64.0312 267.891 66.875C267.954 68.1875 268.071 69.5 268.25 70.8125C268.426 72.1328 268.688 73.4883 269.032 74.875C269.165 75.2891 269.235 75.5 269.235 75.5C269.442 76.6133 269.165 77.2734 268.407 77.4844C268.333 77.5469 268.161 77.5781 267.891 77.5781ZM253.954 47.4219C255.547 45.5469 257.086 43.7109 258.579 41.9062C260.067 40.1055 261.504 38.2344 262.891 36.2969C263.024 36.0156 263.196 35.7734 263.407 35.5625C263.614 35.3555 263.789 35.1484 263.938 34.9375C264.207 34.5312 264.414 34.0469 264.563 33.4844C264.352 33.4219 263.938 33.3906 263.313 33.3906C262.27 33.3906 261.364 33.6875 260.594 34.2812C259.832 34.8672 259.11 35.6055 258.422 36.5C258.348 36.5742 258.274 36.6484 258.204 36.7188C258.141 36.7812 258.071 36.8867 258 37.0312C257.102 38.418 256.321 39.8047 255.657 41.1875C255 42.5742 254.395 43.9961 253.844 45.4531C253.563 46.0078 253.598 46.6641 253.954 47.4219ZM284.938 58.5469C283 58.5469 281.649 57.543 280.891 55.5312C280.68 54.9805 280.555 54.4141 280.516 53.8281C280.485 53.2344 280.469 52.5586 280.469 51.7969C280.75 50.2656 281.063 48.4453 281.407 46.3281C281.75 44.2148 282.211 42.2031 282.797 40.2969C283.391 38.3906 284.141 36.9922 285.047 36.0938C285.391 35.8867 285.664 35.7812 285.875 35.7812C285.946 35.7812 286.192 35.8516 286.61 35.9844C287.086 36.1953 287.258 36.5742 287.125 37.125C286.219 39.418 285.414 41.8281 284.719 44.3594C284.032 46.8906 283.516 49.3711 283.172 51.7969C283.098 52.5586 283.164 53.4609 283.375 54.5C283.52 55.0547 283.766 55.4023 284.11 55.5469C284.453 55.6836 284.899 55.75 285.453 55.75C286.223 55.6055 286.922 55.3594 287.547 55.0156C288.172 54.6719 288.789 54.2578 289.407 53.7656C290.801 52.5898 292.141 51.375 293.422 50.125C294.703 48.875 295.93 47.5586 297.11 46.1719C297.524 45.6953 297.942 45.2148 298.36 44.7344C298.774 44.2461 299.157 43.7578 299.5 43.2656C299.844 42.7773 300.223 42.293 300.641 41.8125C301.055 41.3242 301.473 40.8398 301.891 40.3594C302.098 40.0781 302.321 39.8359 302.563 39.625C302.813 39.418 303.071 39.2109 303.344 39C303.489 38.8672 303.664 38.7969 303.875 38.7969C304.145 38.7969 304.383 38.9023 304.594 39.1094C305.008 39.3828 305.149 39.7969 305.016 40.3594C304.942 40.7773 304.735 41.1562 304.391 41.5C302.586 43.8555 300.735 46.1406 298.828 48.3594C296.922 50.5781 294.821 52.6562 292.532 54.5938C291.563 55.5 290.399 56.3867 289.047 57.25C287.692 58.1172 286.321 58.5469 284.938 58.5469ZM287.641 32.0312C286.598 32.168 286.008 31.5117 285.875 30.0625C285.875 28.8125 286.5 28.1875 287.75 28.1875C289.063 28.1875 289.754 28.7422 289.829 29.8438C289.829 30.4062 289.602 30.9141 289.157 31.3594C288.707 31.8086 288.204 32.0312 287.641 32.0312ZM300.329 53.3594C298.946 53.3594 298.184 52.5273 298.047 50.8594C298.047 49.3281 298.375 47.6992 299.032 45.9688C299.688 44.2422 300.516 42.5781 301.516 40.9844C302.524 39.3828 303.551 38.0625 304.594 37.0312C304.875 36.6797 305.395 36.2266 306.157 35.6719C307.27 34.7773 308.414 34.3281 309.594 34.3281C310.633 34.3281 311.672 34.7422 312.704 35.5625C313.266 35.918 313.579 36.0938 313.641 36.0938C313.848 36.0938 314.161 35.8125 314.579 35.25C314.922 34.9062 315.25 34.5273 315.563 34.1094C315.875 33.6953 316.172 33.2773 316.454 32.8594C316.735 32.4453 317.024 32.0312 317.329 31.625C317.641 31.2109 317.938 30.793 318.219 30.375C318.352 30.2305 318.489 30.0547 318.625 29.8438C318.77 29.6367 318.911 29.4297 319.047 29.2188C319.192 29.0859 319.317 28.9141 319.422 28.7031C319.524 28.4961 319.645 28.3242 319.782 28.1875C320.27 27.6992 320.688 27.4531 321.032 27.4531C321.032 27.4531 321.239 27.5273 321.657 27.6719C322.344 28.0781 322.516 28.7734 322.172 29.75C322.098 30.0234 322.008 30.2617 321.907 30.4688C321.801 30.6797 321.68 30.8867 321.547 31.0938C321.266 31.5859 321.024 32.0703 320.829 32.5469C320.204 33.8711 319.473 35.5078 318.641 37.4531C317.805 39.3906 317.094 41.3516 316.5 43.3281C315.914 45.2969 315.625 47.043 315.625 48.5625C315.625 49.1875 315.832 49.5 316.25 49.5C316.457 49.5 316.594 49.4688 316.657 49.4062C317.145 49.1992 317.614 48.9922 318.063 48.7812C318.508 48.5742 318.977 48.3281 319.469 48.0469C320.094 47.6328 320.735 47.1992 321.391 46.75C322.047 46.3047 322.688 45.7969 323.313 45.2344C323.801 44.8906 324.254 44.5117 324.672 44.0938C325.086 43.6797 325.504 43.2969 325.922 42.9531C326.68 42.1953 327.508 41.4648 328.407 40.7656C328.551 40.6328 328.707 40.4961 328.875 40.3594C329.051 40.2148 329.207 40.0742 329.344 39.9375C329.489 39.8047 329.77 39.5938 330.188 39.3125C330.321 39.2422 330.422 39.1875 330.485 39.1562C330.555 39.125 330.629 39.1094 330.704 39.1094C330.973 39.1094 331.211 39.2149 331.422 39.4219C331.911 39.6953 332.051 40.2149 331.844 40.9844C331.77 41.0469 331.735 41.1016 331.735 41.1406C331.735 41.1719 331.704 41.2188 331.641 41.2813C331.567 41.3555 331.493 41.4297 331.422 41.5C331.36 41.5625 331.29 41.6328 331.219 41.7031C330.25 42.6719 328.864 43.9766 327.063 45.6094C325.258 47.2344 323.407 48.7109 321.5 50.0313C319.594 51.3438 317.911 52.1406 316.454 52.4219C316.317 52.4844 316.004 52.5156 315.516 52.5156C313.786 52.5156 312.922 51.5117 312.922 49.5C312.922 48.1172 313.055 46.7305 313.329 45.3438C313.61 43.9609 313.922 42.5742 314.266 41.1875C313.504 41.5313 312.985 41.875 312.704 42.2188C312.567 42.4297 312.395 42.6367 312.188 42.8438C311.977 43.0547 311.805 43.2305 311.672 43.375C310.493 44.7617 309.313 46.0938 308.125 47.375C306.946 48.6563 305.704 49.8867 304.391 51.0625C303.899 51.4805 303.274 51.9688 302.516 52.5313C301.754 53.0859 301.024 53.3594 300.329 53.3594ZM301.266 49.6094C301.68 49.6094 301.993 49.5078 302.204 49.2969C303.868 47.9141 305.426 46.3867 306.875 44.7188C308.332 43.0547 309.758 41.3555 311.157 39.625C311.219 39.5547 311.282 39.4844 311.344 39.4219C311.414 39.3516 311.489 39.2461 311.563 39.1094C311.77 38.4141 311.633 37.9297 311.157 37.6562C310.594 37.3047 310.102 37.125 309.688 37.125C309.344 37.125 308.911 37.2656 308.391 37.5469C307.868 37.8203 307.473 38.0937 307.204 38.375C303.942 41.2188 301.895 44.8984 301.063 49.4062L301.172 49.5C301.235 49.5 301.266 49.5391 301.266 49.6094Z" fill="black"/>
</svg>
