<svg width="423" height="65" viewBox="0 0 423 65" fill="none" xmlns="http://www.w3.org/2000/svg">
<path d="M0.609375 52.3281C0.203125 52.1719 0 51.9102 0 51.5469C0 51.2969 0.0156247 51.0391 0.046875 50.7812C0.0703125 50.5312 0.105469 50.2734 0.15625 50.0156C0.25 48.7344 0.390625 47.4805 0.578125 46.25C0.757812 45.0117 0.945312 43.7734 1.15625 42.5312C1.35156 41.3047 1.55469 40.0742 1.76562 38.8437C1.97266 37.6055 2.17969 36.3437 2.39062 35.0625C2.58594 33.7305 2.85156 32.4219 3.1875 31.1406C3.51953 29.8516 3.89453 28.5625 4.3125 27.2812C5.48828 23.1172 6.75781 19.0312 8.125 15.0312C9.48828 11.0234 11.0664 7.03906 12.8594 3.07812C13.1172 2.62109 13.3906 2.1875 13.6719 1.78125C13.9531 1.36719 14.25 0.949215 14.5625 0.531246C14.7695 0.179684 15.0508 0 15.4063 0C15.6133 0 15.7422 0.0273418 15.7969 0.0781238C16.2539 0.339843 16.4297 0.777342 16.3281 1.39062C16.2734 2.16406 16.125 2.90625 15.875 3.625C15.1016 6.29297 14.2031 8.91406 13.1719 11.4844C12.1406 14.0469 11.0859 16.6172 10.0156 19.1875C9.91016 19.4492 9.78906 19.6953 9.65625 19.9219C9.53125 20.1523 9.41406 20.3984 9.3125 20.6562C9.21875 20.9062 9.10156 21.1641 8.96875 21.4219C8.84375 21.6836 8.72656 21.9375 8.625 22.1875C7.90625 23.5312 7.1875 25.2734 6.46875 27.4062C5.75 29.5312 5.14453 31.6992 4.65625 33.9062C4.16406 36.1172 3.84375 38.0156 3.6875 39.6094C4.15625 39.5586 4.46875 39.3555 4.625 39C4.71875 38.8437 4.80078 38.6875 4.875 38.5312C4.95703 38.375 5.02344 38.2461 5.07812 38.1406C5.95312 36.8086 6.91406 35.5547 7.96875 34.375C9.01953 33.1875 10.2109 32.1094 11.5469 31.1406C11.8047 30.9844 12.0625 30.8281 12.3125 30.6719C12.5703 30.5156 12.832 30.3594 13.0937 30.2031C13.6562 29.9023 14.1953 29.6719 14.7187 29.5156C15.1758 29.3594 15.6133 29.2812 16.0312 29.2812C17.5625 29.2812 18.3516 30.2344 18.4062 32.1406C18.5078 32.6523 18.5078 33.1875 18.4062 33.75C18.3516 34.0117 18.3164 34.2812 18.2969 34.5625C18.2734 34.8437 18.2383 35.1172 18.1875 35.375C18.1875 35.6797 18.1602 35.8828 18.1094 35.9844C18.0547 36.1953 18.1094 36.4023 18.2656 36.6094H18.4844C18.7422 36.6094 18.9531 36.5312 19.1094 36.375C19.2109 36.3242 19.3008 36.2734 19.375 36.2187C19.4453 36.168 19.5078 36.1172 19.5625 36.0625C21.0078 35.1875 22.4883 34.3828 24 33.6406C25.5078 32.8906 27.0156 32.1562 28.5156 31.4375C28.6094 31.3867 28.707 31.3359 28.8125 31.2812C28.9141 31.2305 29.0469 31.1836 29.2031 31.1406C29.2539 31.0898 29.4102 31.0625 29.6719 31.0625C30.1797 31.0625 30.4609 31.2422 30.5156 31.5937C30.6719 32.2109 30.4883 32.6211 29.9688 32.8281C29.7695 32.9336 29.5664 33.0547 29.3594 33.1875C29.1484 33.3125 28.9414 33.4219 28.7344 33.5156C28.5352 33.6211 28.332 33.7266 28.125 33.8281C27.9141 33.9336 27.707 34.0391 27.5 34.1406C24.5195 35.5781 21.5938 37.1992 18.7188 39C18 39.4609 17.3789 39.9609 16.8594 40.5C16.3477 41.043 15.9141 41.6992 15.5625 42.4687C15.1953 43.1875 14.6172 44.0742 13.8281 45.125C13.0352 46.1797 12.1758 47.1328 11.25 47.9844C10.3203 48.8281 9.42187 49.2969 8.54687 49.3906C8.03516 49.4414 7.625 49.2852 7.3125 48.9219C7.00781 48.5703 6.90625 48.1367 7 47.625C7.20703 46.75 7.69531 45.8672 8.46875 44.9687C9.23828 44.0625 10.0859 43.2031 11.0156 42.3906C11.9414 41.5703 12.7383 40.8984 13.4063 40.375C14.6328 39.5 15.4063 38.3437 15.7187 36.9062C15.9258 36.1875 16.1016 35.4609 16.25 34.7187C16.4062 33.9687 16.457 33.2109 16.4062 32.4375C16.4062 31.7734 16.125 31.4375 15.5625 31.4375C15.3008 31.4375 15.1445 31.4648 15.0938 31.5156C14.6328 31.6719 14.2109 31.8672 13.8281 32.0937C13.4414 32.3242 13.0469 32.5703 12.6406 32.8281C9.64844 35.0898 7.44531 37.7266 6.03125 40.7344C4.625 43.7344 3.33203 46.9805 2.15625 50.4687C2.10156 50.5703 2.0625 50.7031 2.03125 50.8594C2.00781 51.0156 1.97266 51.1445 1.92187 51.25C1.86719 51.3516 1.82812 51.4687 1.79687 51.5937C1.77344 51.7187 1.73828 51.832 1.6875 51.9375C1.58203 52.1953 1.30078 52.3281 0.84375 52.3281H0.609375ZM40.3789 51.1719C39.3477 51.1719 38.4727 51.0156 37.7539 50.7031C37.0352 50.3984 36.4453 49.7344 35.9883 48.7031C35.4766 47.4766 35.3203 46.1641 35.5195 44.7656C35.6211 44.1523 35.7617 43.5625 35.9414 43C36.1289 42.4375 36.3477 41.875 36.5977 41.3125C36.6484 41.1562 36.7266 40.9766 36.832 40.7656C36.5703 40.3594 36.4414 39.8437 36.4414 39.2187C36.4414 38.1992 36.543 37.1719 36.7539 36.1406C36.9609 35.1094 37.1953 34.0859 37.457 33.0625C36.8828 33.3125 36.4961 33.5703 36.3008 33.8281C36.1953 33.9844 36.0664 34.1406 35.9102 34.2969C35.7539 34.4531 35.6211 34.5781 35.5195 34.6719C34.6445 35.7031 33.7695 36.6953 32.8945 37.6406C32.0273 38.5898 31.1055 39.5 30.1289 40.375C29.7617 40.6875 29.3008 41.0547 28.7383 41.4687C28.1758 41.875 27.6367 42.0781 27.1289 42.0781C26.0977 42.0781 25.5313 41.4609 25.4258 40.2187C25.4258 39.0937 25.6719 37.8906 26.1602 36.6094C26.6523 35.3203 27.2617 34.0859 28.0039 32.9062C28.7539 31.7305 29.5117 30.7578 30.2852 29.9844C30.4922 29.7266 30.8789 29.3867 31.4414 28.9687C32.2617 28.3047 33.1133 27.9687 33.9883 27.9687C34.7578 27.9687 35.5273 28.2773 36.3008 28.8906C36.707 29.1523 36.9336 29.2812 36.9883 29.2812C37.1445 29.2812 37.3711 29.0781 37.6758 28.6719C37.9336 28.4141 38.1797 28.1328 38.4102 27.8281C38.6367 27.5156 38.8555 27.2031 39.0664 26.8906C39.2734 26.5898 39.4922 26.2812 39.7227 25.9687C39.9492 25.6562 40.168 25.3516 40.3789 25.0469C40.4805 24.9453 40.5859 24.8125 40.6914 24.6562C40.793 24.5 40.8945 24.3516 40.9883 24.2031C41.0898 24.1016 41.1797 23.9687 41.2539 23.8125C41.3359 23.6562 41.4297 23.5273 41.5352 23.4219C41.8867 23.0703 42.1953 22.8906 42.457 22.8906C42.457 22.8906 42.6133 22.9453 42.9258 23.0469C43.4336 23.3516 43.5586 23.8594 43.3008 24.5781C43.2461 24.7891 43.1836 24.9687 43.1133 25.125C43.0391 25.2812 42.9492 25.4336 42.8477 25.5781C42.6367 25.9453 42.457 26.3047 42.3008 26.6562C41.8398 27.6367 41.3047 28.8437 40.6914 30.2812C40.0742 31.7187 39.5508 33.1719 39.1133 34.6406C38.6758 36.1016 38.457 37.3984 38.457 38.5312C38.457 38.9922 38.6055 39.2187 38.9102 39.2187C39.0664 39.2187 39.168 39.1953 39.2227 39.1406C39.5859 38.9961 39.9336 38.8437 40.2695 38.6875C40.6016 38.5312 40.9453 38.3516 41.3008 38.1406C41.7695 37.8398 42.2422 37.5234 42.7227 37.1875C43.2109 36.8555 43.6914 36.4805 44.1602 36.0625C44.5117 35.8047 44.8398 35.5234 45.1445 35.2187C45.457 34.9062 45.7695 34.625 46.082 34.375C46.6445 33.8047 47.2578 33.2617 47.9258 32.75C48.0273 32.6484 48.1445 32.543 48.2695 32.4375C48.4023 32.3359 48.5234 32.2344 48.6289 32.1406C48.7305 32.0391 48.9336 31.8828 49.2383 31.6719C49.3398 31.6211 49.418 31.5859 49.4727 31.5625C49.5234 31.5312 49.5742 31.5156 49.6289 31.5156C49.8359 31.5156 50.0117 31.5937 50.1602 31.75C50.5234 31.9609 50.6289 32.3437 50.4727 32.9062C50.418 32.9609 50.3945 33 50.3945 33.0312C50.3945 33.0547 50.3672 33.0898 50.3164 33.1406C50.2617 33.1953 50.2109 33.2461 50.1602 33.2969C50.1055 33.3516 50.0547 33.3984 50.0039 33.4375C49.2852 34.168 48.2578 35.1367 46.9258 36.3437C45.5898 37.543 44.2148 38.6328 42.8008 39.6094C41.3945 40.5898 40.1484 41.1797 39.0664 41.375C39.0117 41.375 38.9727 41.375 38.9414 41.375C38.918 41.375 38.9102 41.375 38.9102 41.375C38.8555 41.4297 38.7773 41.4531 38.6758 41.4531C38.2695 42.1719 37.9336 42.8828 37.6758 43.5781C37.4258 44.2773 37.3008 45.0391 37.3008 45.8594C37.3008 46.6719 37.3984 47.3125 37.5977 47.7812C37.9102 48.5 38.4492 48.9375 39.2227 49.0937C39.3789 49.1445 39.5273 49.1719 39.6758 49.1719C39.832 49.1719 39.9883 49.1719 40.1445 49.1719C40.3008 49.1719 40.457 49.1719 40.6133 49.1719C40.7695 49.1719 40.9453 49.1953 41.1445 49.25C41.457 49.25 41.8047 49.2852 42.1914 49.3594C42.5742 49.4297 42.7695 49.6758 42.7695 50.0937C42.8203 50.25 42.7773 50.4141 42.6445 50.5937C42.5195 50.7695 42.3789 50.8828 42.2227 50.9375C42.1172 50.9883 42.0117 51.0234 41.9102 51.0469C41.8164 51.0781 41.7148 51.0937 41.6133 51.0937C41.5586 51.1445 41.4297 51.1719 41.2227 51.1719H40.3789ZM27.8164 39.2969C28.1289 39.2969 28.3555 39.2187 28.5039 39.0625C29.7422 38.043 30.8984 36.918 31.9727 35.6875C33.0547 34.4492 34.1133 33.1875 35.1445 31.9062C35.1953 31.8555 35.2422 31.8047 35.2852 31.75C35.3359 31.6992 35.3867 31.6211 35.4414 31.5156C35.5977 31.0078 35.4961 30.6484 35.1445 30.4375C34.7266 30.1797 34.3672 30.0469 34.0664 30.0469C33.8047 30.0469 33.4805 30.1523 33.0977 30.3594C32.7109 30.5703 32.4141 30.7773 32.207 30.9844C29.7891 33.0898 28.2734 35.8086 27.6602 39.1406L27.7383 39.2187C27.7891 39.2187 27.8164 39.2461 27.8164 39.2969ZM59.3359 60.0312C58.9687 60.0312 58.6484 59.6953 58.3672 59.0312C58.0859 58.3633 57.875 57.5508 57.7422 56.5937C57.6172 55.6445 57.5156 54.7344 57.4453 53.8594C57.3711 52.9922 57.3359 52.3789 57.3359 52.0156C57.2305 48.9297 57.3437 45.875 57.6797 42.8437C58.0117 39.8125 58.5117 36.7812 59.1797 33.75C59.4375 32.7305 59.6953 31.7031 59.9453 30.6719C60.2031 29.6406 60.4648 28.6172 60.7266 27.5938C60.8203 27.3359 60.8906 27.0625 60.9453 26.7812C60.9961 26.5 60.9687 26.2031 60.8672 25.8906V25.9687C60.4062 26.2305 60.0742 26.5117 59.8672 26.8125C59.7734 27.0234 59.6484 27.2187 59.4922 27.4062C59.3359 27.5859 59.2031 27.7734 59.1016 27.9687C57.6094 30.125 56.0547 32.2187 54.4297 34.25C52.8125 36.2812 51.0859 38.2266 49.2422 40.0781C48.9805 40.2773 48.7344 40.4531 48.5078 40.6094C48.2773 40.7656 48.0078 40.8984 47.6953 41C47.2344 41 46.8398 40.9141 46.5078 40.7344C46.1758 40.5469 45.9844 40.1992 45.9297 39.6875C45.9297 38.7617 46.2227 37.5781 46.8047 36.1406C47.3984 34.7031 48.0781 33.293 48.8516 31.9062C49.6211 30.5234 50.2344 29.4453 50.6953 28.6719C51.1094 28.1016 51.7578 27.4297 52.6328 26.6562C53.5078 25.8867 54.2773 25.5 54.9453 25.5C55.6641 25.5 56.3047 26.0937 56.8672 27.2812C57.125 27.1797 57.3281 27.0273 57.4766 26.8281C57.6328 26.6211 57.7617 26.4141 57.8672 26.2031L60.8672 21.8125C61.793 20.4297 62.6523 19 63.4453 17.5312C64.2461 16.0625 64.9297 14.5117 65.4922 12.875C66.3672 10.043 67.5234 7.44531 68.9609 5.07812C69.168 4.67187 69.3867 4.26562 69.6172 3.85937C69.8437 3.44531 70.168 3.10547 70.5859 2.84375C70.793 2.64844 71.0469 2.54687 71.3516 2.54687C71.7656 2.54687 72.0391 2.65234 72.1641 2.85937C72.2891 3.05859 72.4023 3.36719 72.5078 3.78125C72.5078 4.1875 72.4453 4.55859 72.3203 4.89062C72.1953 5.22656 72.0547 5.57422 71.8984 5.9375C71.4297 7.21875 70.8984 8.46484 70.3047 9.67187C69.7187 10.8828 69.0703 12.0469 68.3516 13.1719C67.3711 14.6641 66.4453 16.5547 65.5703 18.8437C64.6953 21.125 63.8828 23.5547 63.1328 26.125C62.3906 28.6992 61.7656 31.1797 61.2578 33.5625C60.7461 35.9492 60.3594 38.0156 60.1016 39.7656C59.7969 41.8203 59.5703 43.8594 59.4141 45.8906C59.2578 47.9219 59.2305 49.9883 59.3359 52.0937C59.3867 53.0703 59.4766 54.0469 59.6016 55.0156C59.7266 55.9922 59.918 57 60.1797 58.0312C60.2812 58.332 60.3359 58.4844 60.3359 58.4844C60.4922 59.3047 60.2891 59.7969 59.7266 59.9531C59.6719 60.0039 59.543 60.0312 59.3359 60.0312ZM49.0078 37.6875C50.1836 36.3047 51.3242 34.9453 52.4297 33.6094C53.5312 32.2656 54.6016 30.875 55.6328 29.4375C55.7344 29.2305 55.8672 29.0547 56.0234 28.9062C56.1797 28.75 56.3047 28.5937 56.3984 28.4375C56.6055 28.125 56.7617 27.7656 56.8672 27.3594C56.7109 27.3086 56.4023 27.2812 55.9453 27.2812C55.1719 27.2812 54.5 27.5 53.9297 27.9375C53.3672 28.375 52.8281 28.9297 52.3203 29.5937C52.2656 29.6484 52.2148 29.6992 52.1641 29.75C52.1094 29.8047 52.0586 29.8828 52.0078 29.9844C51.3398 31.0078 50.7617 32.0312 50.2734 33.0625C49.7812 34.0859 49.3359 35.1367 48.9297 36.2187C48.7187 36.625 48.7461 37.1172 49.0078 37.6875ZM71.8164 64.3437C71.043 64.3437 70.5352 63.9062 70.2852 63.0312C70.1797 62.7812 70.1367 62.5078 70.1602 62.2187C70.1914 61.9375 70.2305 61.6445 70.2852 61.3437C70.4297 60.3633 70.707 59.4375 71.1133 58.5625C71.5273 57.6875 72.0234 56.8437 72.5977 56.0312C73.5664 54.5391 74.5859 53.0977 75.6602 51.7031C76.7422 50.3164 77.8516 48.957 78.9883 47.625C79.1445 47.4687 79.2461 47.3398 79.3008 47.2344C79.3515 47.1328 79.4492 47.0078 79.5977 46.8594C80.9414 45.2656 81.1211 43.543 80.1445 41.6875C79.8828 41.1797 79.5859 40.8437 79.2539 40.6875C78.918 40.5312 78.4727 40.4531 77.9101 40.4531C77.293 40.5586 76.7266 40.7148 76.207 40.9219C75.8516 40.9766 75.4648 41.125 75.0508 41.375C74.9961 41.4297 74.8711 41.4531 74.6758 41.4531C74.4141 41.4531 74.1523 41.3281 73.8945 41.0781C73.5391 40.6641 73.5391 40.2773 73.8945 39.9219C74.3086 39.3516 74.7461 38.8359 75.207 38.375C76.8008 36.5742 78.2773 34.6641 79.6445 32.6406C81.0078 30.6094 82.1211 28.4375 82.9883 26.125C83.039 25.918 82.9883 25.7422 82.832 25.5937C82.6836 25.4375 82.5352 25.3867 82.3789 25.4375C82.168 25.4805 81.9766 25.543 81.8008 25.625C81.6211 25.6992 81.4297 25.7617 81.2227 25.8125C80.7617 25.918 80.3516 26.0742 79.9883 26.2812C79.3711 26.5312 78.5859 26.9961 77.6289 27.6719C76.6797 28.3398 75.7695 29.0312 74.8945 29.75C74.0273 30.4687 73.3086 31.0312 72.7383 31.4375C72.3828 31.75 71.9961 31.9062 71.582 31.9062C71.332 31.9062 71.1289 31.8047 70.9727 31.5937C70.7109 31.0312 70.8398 30.5156 71.3633 30.0469C71.9258 29.4844 72.6914 28.8359 73.6601 28.0937C74.6367 27.3437 75.6914 26.6016 76.8164 25.8594C77.9492 25.1094 79.0703 24.4922 80.1758 24C81.2773 23.5117 82.2148 23.2656 82.9883 23.2656C83.8633 23.2656 84.4766 23.5898 84.832 24.2344C85.1953 24.8828 85.1992 25.7656 84.8477 26.8906C84.793 27.1523 84.6992 27.4219 84.5664 27.7031C84.4414 27.9844 84.3242 28.2578 84.2227 28.5156C84.1172 28.7656 83.9883 29.0391 83.832 29.3281C83.6836 29.6094 83.5586 29.875 83.457 30.125C82.7891 31.418 82.0547 32.6406 81.2539 33.7969C80.4609 34.9531 79.6289 36.1211 78.7539 37.2969C78.2422 37.9141 78.3984 38.3242 79.2227 38.5312C80.043 38.7422 80.6836 39.1172 81.1445 39.6562C81.6016 40.1875 81.9883 40.8125 82.3008 41.5312C82.3515 41.6367 82.3867 41.7578 82.4102 41.8906C82.4414 42.0156 82.4805 42.1328 82.5352 42.2344C82.5352 42.4844 82.6328 42.6875 82.832 42.8437C83.1445 42.8984 83.4297 42.793 83.6914 42.5312C83.793 42.4375 83.8945 42.3398 83.9883 42.2344C84.0899 42.1328 84.1953 42.0273 84.3008 41.9219C86.0508 40.3281 87.7852 38.75 89.5039 37.1875C91.2227 35.6172 92.9805 34.0312 94.7852 32.4375C94.9922 32.2422 95.2109 32.0625 95.4414 31.9062C95.668 31.75 95.9414 31.6484 96.2539 31.5937H96.4727C96.6797 31.5937 96.8359 31.6484 96.9414 31.75C97.2539 31.9609 97.3555 32.2656 97.2539 32.6719C97.1992 32.9844 97.0703 33.2305 96.8633 33.4062C96.6524 33.5859 96.4258 33.7773 96.1758 33.9844C95.6524 34.4961 95.1367 34.9844 94.6289 35.4531C94.1172 35.9141 93.582 36.3711 93.0195 36.8281C92.4453 37.2969 91.8867 37.7656 91.3477 38.2344C90.8164 38.6953 90.2891 39.1797 89.7695 39.6875L84.2227 44.8437C83.6602 45.3672 83.211 45.9492 82.8789 46.5937C82.543 47.2305 82.2461 47.9062 81.9883 48.625C81.1641 51.3945 80.0859 54.0391 78.7539 56.5625C77.418 59.082 75.7266 61.3672 73.6758 63.4219C73.4141 63.7344 73.0039 64.0156 72.4414 64.2656C72.3359 64.3164 72.1289 64.3437 71.8164 64.3437ZM72.8164 61.3437C72.918 61.3437 73.0508 61.2656 73.207 61.1094C75.5195 58.4922 77.1914 55.5391 78.2227 52.25C77.1914 53.4258 76.1836 54.6016 75.207 55.7813C74.2383 56.9688 73.4414 58.2812 72.8164 59.7187C72.7617 59.875 72.7109 60.0312 72.6602 60.1875C72.6172 60.3437 72.5703 60.5195 72.5195 60.7187C72.5195 60.9766 72.543 61.1328 72.5977 61.1875C72.6914 61.2891 72.7617 61.3437 72.8164 61.3437ZM82.3789 22.3437C82.168 22.3984 81.9609 22.3359 81.7539 22.1562C81.5547 21.9805 81.4805 21.7891 81.5352 21.5781C81.5352 21.4766 81.5429 21.3594 81.5664 21.2344C81.5977 21.1016 81.6367 20.9609 81.6914 20.8125C81.7852 20.6055 81.9883 20.1836 82.3008 19.5469C82.6133 18.9023 82.961 18.2109 83.3477 17.4687C83.7305 16.7187 84.0235 16.1094 84.2227 15.6406C84.3242 15.3906 84.457 15.1523 84.6133 14.9219C84.7695 14.6836 84.9727 14.4844 85.2227 14.3281C85.3242 14.2266 85.4805 14.1719 85.6914 14.1719C85.8477 14.1719 85.9492 14.1992 86.0039 14.25C86.2539 14.3047 86.4024 14.5391 86.457 14.9531V15.3281C86.4024 15.4844 86.3516 15.6328 86.3008 15.7656C86.2461 15.8906 86.1992 16.0078 86.1602 16.1094C86.0547 16.3594 85.836 16.8359 85.5039 17.5312C85.168 18.2305 84.8321 18.9141 84.4883 19.5781C84.1524 20.2461 83.9414 20.6836 83.8477 20.8906C83.586 21.6094 83.0977 22.0937 82.3789 22.3437ZM93.8672 47.9375C93.6562 47.9375 93.5273 47.9141 93.4766 47.8594C92.9141 47.7031 92.6328 47.3203 92.6328 46.7031C92.6328 44.6406 92.8437 42.6016 93.2578 40.5781C93.6641 38.5469 94.1484 36.5547 94.7109 34.5937C94.8672 34.0859 95.1563 33.1367 95.5859 31.75C96.0234 30.3672 96.5391 28.8516 97.1328 27.2031C97.7266 25.5586 98.3125 24.1055 98.8984 22.8437C99.4922 21.5859 99.9961 20.8555 100.414 20.6562C100.715 20.5547 100.867 20.5 100.867 20.5C100.969 20.5 101.102 20.5781 101.258 20.7344C101.414 20.8828 101.516 21.0078 101.57 21.1094C101.672 21.5781 101.648 21.9375 101.492 22.1875C101.281 22.5547 101.102 22.9141 100.945 23.2656C99.6094 26.1016 98.4805 29.0312 97.5547 32.0625C96.6367 35.0937 95.8398 38.1523 95.1641 41.2344C95.1211 41.4336 95.1211 41.6094 95.1641 41.7656C95.1641 41.9766 95.1407 42.1328 95.1015 42.2344C95.1406 42.2891 95.2656 42.3125 95.4765 42.3125C95.6836 42.3125 95.8125 42.2344 95.8671 42.0781C95.9687 41.8711 96.0468 41.7422 96.1015 41.6875C96.4023 41.125 96.7031 40.5742 97.0078 40.0312C97.3203 39.4922 97.6328 38.9375 97.9453 38.375C98.2578 37.8125 98.5625 37.2617 98.8671 36.7187C99.1796 36.1797 99.5117 35.6523 99.8671 35.1406C100.531 34.1094 101.289 33.0586 102.133 31.9844C102.984 30.9023 103.93 30 104.961 29.2812C105.262 29.125 105.543 29.0469 105.805 29.0469C106.469 29.0469 106.934 29.4062 107.195 30.125C107.402 30.543 107.516 30.9844 107.539 31.4531C107.559 31.9141 107.547 32.3711 107.508 32.8281C107.508 33.1953 107.508 33.5312 107.508 33.8437C107.508 34.1484 107.48 34.4492 107.43 34.75C107.375 35.0625 107.352 35.375 107.352 35.6875C107.352 35.9922 107.324 36.2969 107.273 36.6094C107.273 36.7578 107.273 36.9062 107.273 37.0625C107.273 37.2187 107.297 37.375 107.352 37.5312C107.352 37.6875 107.352 37.8437 107.352 38C107.352 38.1484 107.352 38.2734 107.352 38.375C107.352 38.6875 107.555 38.8437 107.961 38.8437C108.012 38.793 108.062 38.7656 108.117 38.7656L109.586 37.375C109.781 37.168 109.996 36.9648 110.226 36.7656C110.465 36.5586 110.687 36.3516 110.898 36.1406C111.094 35.9336 111.297 35.7305 111.508 35.5312C111.715 35.3242 111.918 35.1172 112.117 34.9062C112.742 34.5 113.23 34.1953 113.586 33.9844C113.793 33.9336 113.961 33.8984 114.086 33.875C114.219 33.8437 114.312 33.8281 114.367 33.8281C115.086 33.8281 115.594 34.1641 115.898 34.8281C116.105 35.1406 116.234 35.375 116.289 35.5312C116.34 35.625 116.375 35.7422 116.398 35.875C116.43 36 116.469 36.1172 116.523 36.2187C116.719 36.7305 116.977 37.168 117.289 37.5312C117.695 37.9922 118.133 38.2187 118.602 38.2187C119.109 38.2187 119.699 38.0156 120.367 37.6094C121.031 37.1953 121.547 36.8594 121.914 36.6094C122.789 35.8906 123.656 35.1484 124.523 34.375C125.398 33.6055 126.246 32.8594 127.07 32.1406C127.121 32.0898 127.172 32.0391 127.227 31.9844C127.277 31.9336 127.328 31.8555 127.383 31.75C127.789 31.4922 128.07 31.3594 128.226 31.3594C128.539 31.3594 128.773 31.4922 128.93 31.75C129.387 32.2109 129.359 32.6992 128.851 33.2187C128.539 33.625 128.18 33.9844 127.773 34.2969L123.148 38.2187C122.48 38.7812 121.555 39.3516 120.367 39.9219C119.906 40.1211 119.32 40.2187 118.602 40.2187C117.266 40.2187 116.187 39.5781 115.367 38.2969C115.262 38.0898 115.156 37.8984 115.055 37.7187C114.949 37.543 114.871 37.3516 114.82 37.1406C114.664 36.7344 114.383 36.4023 113.977 36.1406C113.609 36.3516 113.273 36.5859 112.961 36.8437C112.656 37.0937 112.375 37.3516 112.117 37.6094C111.867 37.8594 111.586 38.1406 111.273 38.4531C110.969 38.7656 110.687 39.0469 110.43 39.2969C110.219 39.5078 110.012 39.7148 109.805 39.9219C109.605 40.1211 109.402 40.3242 109.195 40.5312C108.789 40.9492 108.297 41.2812 107.727 41.5312C107.32 41.6367 107.117 41.6875 107.117 41.6875C106.605 41.6875 106.168 41.4336 105.805 40.9219C105.543 40.3594 105.387 39.7969 105.336 39.2344C105.293 38.6641 105.273 38.0703 105.273 37.4531C105.312 36.8906 105.344 36.3125 105.367 35.7187C105.398 35.125 105.414 34.5469 105.414 33.9844C105.414 33.8281 105.422 33.6641 105.445 33.4844C105.477 33.3086 105.516 33.1172 105.57 32.9062C105.672 32.4922 105.496 32.2344 105.039 32.1406C104.727 32.0898 104.465 32.1875 104.258 32.4375C104.164 32.6484 104.062 32.8281 103.961 32.9844C103.855 33.1406 103.75 33.2734 103.648 33.375C102.98 34.1484 102.375 34.9531 101.836 35.7969C101.293 36.6406 100.766 37.5 100.258 38.375C99.6406 39.5117 99.0234 40.6328 98.3984 41.7344C97.7812 42.8398 97.1679 43.9297 96.5546 45C96.3046 45.4687 96.0585 45.9141 95.8203 46.3281C95.5898 46.7344 95.2734 47.1172 94.8671 47.4687C94.5546 47.7812 94.2187 47.9375 93.8672 47.9375ZM135.785 63.9687C135.117 63.9687 134.574 63.582 134.16 62.8125C133.492 61.625 133.395 60.4687 133.863 59.3437C134.477 57.4883 135.242 55.7227 136.16 54.0469C137.086 52.3789 138.09 50.7266 139.176 49.0937C139.684 48.2734 140.043 47.3437 140.254 46.3125C140.355 45.4375 140.457 44.5781 140.551 43.7344C140.652 42.8906 140.758 42.0586 140.863 41.2344C140.965 40.3594 141.082 39.5 141.207 38.6562C141.34 37.8047 141.461 36.9375 141.566 36.0625L142.254 30.5937C142.305 30.4922 142.332 30.2344 142.332 29.8281C142.332 29.6211 142.254 29.5156 142.098 29.5156C141.941 29.4141 141.789 29.4375 141.645 29.5937L140.02 31.5156C138.738 33.1094 137.398 34.5781 136.004 35.9219C134.617 37.2578 133.082 38.4844 131.395 39.6094C131.082 39.8203 130.77 39.9648 130.457 40.0469C130.152 40.1211 129.848 40.1797 129.535 40.2187C128.512 40.2187 127.82 39.9297 127.457 39.3437C127.102 38.75 126.926 37.9922 126.926 37.0625C126.926 35.375 127.164 33.5937 127.645 31.7187C128.133 29.8359 128.945 28.2266 130.082 26.8906C130.34 26.6406 130.621 26.5156 130.926 26.5156C130.977 26.5156 131.039 26.5312 131.113 26.5625C131.195 26.5859 131.316 26.6172 131.473 26.6562C131.98 26.9687 132.027 27.4062 131.613 27.9687C130.895 28.9492 130.367 29.9922 130.035 31.0937C129.699 32.1992 129.41 33.3437 129.16 34.5312C129.055 34.9375 128.988 35.3516 128.957 35.7656C128.934 36.1719 128.926 36.5781 128.926 36.9844C128.82 37.7031 129.051 38.0625 129.613 38.0625C129.82 38.0625 130.082 37.9922 130.395 37.8437C130.59 37.7422 130.777 37.6094 130.957 37.4531C131.145 37.2969 131.34 37.168 131.551 37.0625C131.746 36.9609 131.934 36.8359 132.113 36.6875C132.301 36.5313 132.496 36.4023 132.707 36.2969C133.676 35.5781 134.582 34.7578 135.426 33.8281C136.277 32.9023 137.117 31.9297 137.941 30.9062C138.293 30.4922 138.648 30.0547 139.004 29.5937C139.367 29.125 139.73 28.6641 140.098 28.2031C140.461 27.7969 140.809 27.3672 141.145 26.9063C141.477 26.4375 141.82 25.9961 142.176 25.5781C142.277 25.4844 142.395 25.3594 142.52 25.2031C142.652 25.0469 142.773 24.918 142.879 24.8125C143.129 24.5547 143.41 24.4219 143.723 24.4219C143.773 24.4219 143.801 24.4219 143.801 24.4219C143.801 24.4219 143.824 24.4219 143.879 24.4219C143.93 24.4766 143.98 24.5 144.035 24.5C144.699 24.6562 144.93 25.375 144.723 26.6562C144.617 27.6367 144.496 28.6172 144.363 29.5937C144.238 30.5742 144.129 31.5469 144.035 32.5156C143.93 33.4961 143.801 34.4844 143.645 35.4844C143.488 36.4844 143.355 37.4766 143.254 38.4531L142.801 42.9219C142.852 42.9219 143.027 42.9766 143.332 43.0781C144.051 42.1523 144.777 41.2305 145.52 40.3125C146.27 39.3867 147.004 38.4609 147.723 37.5312C148.441 36.6562 149.168 35.7578 149.91 34.8281C150.66 33.9023 151.445 33.0078 152.27 32.1406C152.527 31.8281 152.816 31.543 153.129 31.2812C153.379 31.1367 153.582 31.0625 153.738 31.0625C153.945 31.0625 154.129 31.1367 154.285 31.2812C154.637 31.6484 154.711 32.0078 154.504 32.3594C154.305 32.7266 154.059 33.0625 153.77 33.375C153.488 33.6797 153.223 34.0117 152.973 34.375C151.324 36.2734 149.715 38.2109 148.145 40.1875C146.582 42.168 145.055 44.1836 143.566 46.2344C142.387 47.7266 141.645 49.3672 141.332 51.1719C141.227 51.8906 141.02 52.9531 140.707 54.3594C140.402 55.7734 140.02 57.2109 139.551 58.6719C139.09 60.1406 138.539 61.3906 137.895 62.4219C137.258 63.4531 136.555 63.9687 135.785 63.9687ZM136.098 61.0312C136.293 61.0312 136.418 60.9531 136.473 60.7969C136.523 60.6484 136.602 60.4727 136.707 60.2656L137.863 56.9531C138.121 56.2344 138.098 55.6133 137.785 55.0937C137.629 55.457 137.461 55.8437 137.285 56.25C137.105 56.6641 136.914 57.0781 136.707 57.4844L135.785 59.7969C135.68 60.0039 135.613 60.2227 135.582 60.4531C135.559 60.6797 135.652 60.8477 135.863 60.9531C135.914 61.0039 135.992 61.0312 136.098 61.0312ZM182.172 48.4687C181.098 48.4687 180.328 47.8828 179.859 46.7031C179.609 45.9844 179.461 45.2656 179.406 44.5469C179.305 43.8281 179.305 43.1562 179.406 42.5312C179.711 40.2187 180.203 38 180.891 35.875C181.586 33.7422 182.555 31.6992 183.797 29.75C184.047 29.3359 184.328 28.9336 184.641 28.5469C184.953 28.1641 185.285 27.7656 185.641 27.3594C185.953 27.1016 186.312 26.918 186.719 26.8125C186.77 26.7617 186.875 26.7344 187.031 26.7344C187.289 26.7344 187.492 26.8398 187.641 27.0469C187.848 27.3594 187.875 27.668 187.719 27.9687C187.613 28.125 187.523 28.2578 187.453 28.3594C187.379 28.4648 187.316 28.543 187.266 28.5937C186.234 29.5234 185.316 30.8086 184.516 32.4531C183.723 34.0898 183.055 35.793 182.516 37.5625C181.984 39.3359 181.613 40.918 181.406 42.3125C181.145 43.6484 181.273 44.875 181.797 46C181.891 46.2617 182.094 46.3906 182.406 46.3906C182.508 46.3906 182.586 46.3672 182.641 46.3125C183.148 46.1055 183.766 45.5937 184.484 44.7812C185.203 43.9609 185.922 43.0234 186.641 41.9687C187.359 40.9062 188.016 39.9023 188.609 38.9531C189.203 38.0078 189.625 37.2773 189.875 36.7656C189.977 36.6094 190.066 36.4531 190.141 36.2969C190.223 36.1406 190.289 35.9844 190.344 35.8281C190.445 35.6836 190.535 35.5312 190.609 35.375C190.691 35.2187 190.781 35.0898 190.875 34.9844C191.082 34.6328 191.344 34.4531 191.656 34.4531C191.707 34.4531 191.734 34.4531 191.734 34.4531C191.734 34.4531 191.758 34.4531 191.812 34.4531C191.863 34.5078 191.914 34.5312 191.969 34.5312C192.477 34.6797 192.734 35.0586 192.734 35.6719C192.68 35.9844 192.629 36.3086 192.578 36.6406C192.523 36.9766 192.473 37.3242 192.422 37.6875C192.266 39.2812 192.473 40.7461 193.047 42.0781C193.609 43.3086 194.301 43.9219 195.125 43.9219C196.094 43.9219 196.883 43.5 197.5 42.6562C198.125 41.8047 198.613 40.7344 198.969 39.4531C199.332 38.1719 199.578 36.8906 199.703 35.6094C199.836 34.3203 199.906 33.2617 199.906 32.4375C199.945 32.1875 199.992 31.9844 200.047 31.8281C200.098 31.6719 200.254 31.543 200.516 31.4375C200.617 31.4375 200.695 31.4141 200.75 31.3594C200.75 31.3594 200.758 31.3594 200.781 31.3594C200.813 31.3594 200.852 31.3594 200.906 31.3594C201.258 31.3594 201.566 31.5703 201.828 31.9844L202.359 32.75C202.93 33.4687 203.641 34.0117 204.484 34.375C205.328 34.7305 206.188 34.9062 207.063 34.9062C207.531 34.9062 207.977 34.8711 208.406 34.7969C208.844 34.7148 209.27 34.5469 209.688 34.2969C209.945 34.1953 210.203 34.0625 210.453 33.9062C210.711 33.75 210.973 33.5742 211.234 33.375C211.484 33.168 211.723 32.9844 211.953 32.8281C212.191 32.6719 212.41 32.5156 212.609 32.3594C213.023 32.0586 213.332 31.9062 213.531 31.9062C213.789 31.9062 214.023 32.0117 214.234 32.2187C214.797 32.625 214.664 33.1875 213.844 33.9062C212.914 34.7305 211.898 35.4375 210.797 36.0312C209.691 36.6172 208.5 36.9062 207.219 36.9062C206.344 36.9062 205.469 36.7812 204.594 36.5312C203.727 36.2734 202.883 35.9648 202.063 35.6094C201.852 35.9648 201.695 36.3711 201.594 36.8281C201.539 37.0391 201.5 37.2617 201.469 37.5C201.445 37.7305 201.41 37.9453 201.359 38.1406C201.16 39.5781 200.688 41.043 199.938 42.5312C199.188 44.0234 198.066 45.0547 196.578 45.625C196.172 45.8242 195.633 45.9219 194.969 45.9219C193.938 45.9219 193.047 45.5 192.297 44.6562C191.555 43.8125 191.063 42.9297 190.813 42C190.758 41.7422 190.691 41.4961 190.609 41.2656C190.535 41.0391 190.367 40.8437 190.109 40.6875C189.703 40.9492 189.422 41.2305 189.266 41.5312C189.16 41.7422 189.039 41.9219 188.906 42.0781C188.781 42.2344 188.672 42.4141 188.578 42.6094C188.055 43.2344 187.594 43.8555 187.188 44.4687C186.977 44.8242 186.734 45.1562 186.453 45.4687C186.172 45.7734 185.898 46.0781 185.641 46.3906C185.18 46.9023 184.664 47.375 184.094 47.8125C183.531 48.25 182.891 48.4687 182.172 48.4687ZM239.285 54.0156C238.66 54.0156 238.348 53.7344 238.348 53.1719C238.348 52.8594 238.363 52.5352 238.395 52.2031C238.418 51.8672 238.453 51.5234 238.504 51.1719L239.285 46.2344C239.379 45.7773 239.406 45.3203 239.363 44.8594C239.313 44.3906 239.262 43.9297 239.207 43.4687C239.207 43 239.359 42.5898 239.66 42.2344C240.074 41.9219 240.309 41.5117 240.363 41C240.508 40.125 240.684 39.2266 240.895 38.2969C241.102 37.3711 241.336 36.4766 241.598 35.6094C241.637 35.4023 241.668 35.1953 241.691 34.9844C241.723 34.7773 241.637 34.6016 241.441 34.4531C241.023 34.0898 240.852 33.7578 240.926 33.4531C241.008 33.1406 241.152 32.8047 241.363 32.4375C242.332 31.0547 243.137 29.5898 243.785 28.0469C244.43 26.5078 245.059 24.9375 245.676 23.3437C245.727 23.1992 245.973 22.6016 246.41 21.5469C246.848 20.4844 247.371 19.2266 247.988 17.7656C248.602 16.2969 249.27 14.8437 249.988 13.4062C250.707 11.9687 251.383 10.7773 252.02 9.82812C252.664 8.88281 253.223 8.40625 253.691 8.40625C253.898 8.40625 254.102 8.45312 254.301 8.54687C254.715 8.80859 254.871 9.16797 254.77 9.625C254.508 10.6055 254.082 11.8125 253.488 13.25C252.902 14.6875 252.238 16.1797 251.488 17.7187C250.746 19.2617 250.004 20.7031 249.254 22.0469C248.512 23.3828 247.883 24.4844 247.363 25.3594C246.289 27.2031 245.43 29.2461 244.785 31.4844C244.148 33.7148 243.57 35.8594 243.051 37.9219C242.996 38.1211 242.957 38.2969 242.926 38.4531C242.902 38.6094 242.945 38.793 243.051 39C243.52 38.7422 243.801 38.4805 243.895 38.2187C243.996 37.8672 244.152 37.5859 244.363 37.375C245.238 35.8867 246.199 34.4141 247.254 32.9531C248.305 31.4844 249.523 30.2109 250.91 29.125C251.168 28.9687 251.426 28.8281 251.676 28.7031C251.934 28.5781 252.223 28.4922 252.535 28.4375C253.043 28.3867 253.477 28.543 253.832 28.9062C254.195 29.2617 254.324 29.6953 254.223 30.2031C254.117 31.0781 253.645 32.1094 252.801 33.2969C251.957 34.4766 251.027 35.5898 250.02 36.6406C249.02 37.6953 248.184 38.5273 247.52 39.1406C247.059 39.5586 246.586 39.9766 246.098 40.3906C245.606 40.7969 245.105 41.2031 244.598 41.6094C244.441 41.7656 244.387 41.9766 244.441 42.2344C244.543 42.4844 244.727 42.6094 244.988 42.6094C248.164 42.3594 251.059 41.7969 253.676 40.9219C256.301 40.0469 258.871 38.5312 261.395 36.375C261.801 36.0117 262.207 35.6641 262.613 35.3281C263.027 34.9961 263.418 34.6523 263.785 34.2969C264.191 33.9336 264.586 33.5859 264.973 33.25C265.355 32.918 265.758 32.5742 266.176 32.2187C266.277 32.1172 266.395 32.0117 266.52 31.9062C266.645 31.8047 266.758 31.6992 266.863 31.5937C266.965 31.4922 267.082 31.4023 267.207 31.3281C267.34 31.2461 267.461 31.1836 267.566 31.1406C267.617 31.0898 267.742 31.0625 267.941 31.0625C268.148 31.0625 268.383 31.1875 268.645 31.4375C268.895 31.8555 268.918 32.1641 268.723 32.3594C268.668 32.5156 268.461 32.7773 268.098 33.1406C265.73 35.3516 263.457 37.2891 261.27 38.9531C259.09 40.6211 256.758 41.9453 254.27 42.9219C251.777 43.9023 248.863 44.4687 245.52 44.625C244.59 44.625 243.945 44.6406 243.582 44.6719C243.227 44.6953 242.973 44.8867 242.816 45.25C242.668 45.6055 242.414 46.2422 242.051 47.1562C241.945 47.5234 241.832 47.8984 241.707 48.2812C241.582 48.668 241.465 49.0625 241.363 49.4687C241.258 49.832 241.129 50.207 240.973 50.5937C240.816 50.9766 240.684 51.375 240.582 51.7812L240.129 53.4844C239.918 53.8359 239.641 54.0156 239.285 54.0156ZM246.676 37.375C247.133 37.0625 247.785 36.4844 248.629 35.6406C249.48 34.7969 250.277 33.9141 251.02 32.9844C251.77 32.0586 252.195 31.3398 252.301 30.8281C251.633 30.9336 250.898 31.3867 250.098 32.1875C249.305 32.9805 248.602 33.8672 247.988 34.8437C247.371 35.8125 246.934 36.6562 246.676 37.375ZM268.254 44.8437C267.324 44.8437 266.504 44.5625 265.785 44C265.066 43.4375 264.609 42.6406 264.41 41.6094C264.254 40.8398 264.203 40.1719 264.254 39.6094C264.359 38.5273 264.668 37.2812 265.176 35.875C265.684 34.4609 266.379 33.1367 267.254 31.9062C268.129 30.668 269.055 29.8711 270.035 29.5156C270.336 29.3594 270.668 29.2812 271.035 29.2812C271.492 29.3359 271.773 29.5898 271.879 30.0469C271.98 30.6719 271.824 31.0117 271.41 31.0625C270.543 31.2109 269.879 31.5703 269.41 32.1406C268.949 32.7031 268.512 33.3203 268.098 33.9844C267.379 35.3711 266.867 36.6836 266.566 37.9219C266.355 38.4844 266.254 39.2305 266.254 40.1562C266.254 41.6484 266.77 42.5156 267.801 42.7656C268.414 42.7656 268.926 42.6953 269.332 42.5469C269.746 42.3906 270.133 42 270.488 41.375C270.996 40.5625 271.305 39.7461 271.41 38.9219C271.512 38.1016 271.285 37.25 270.723 36.375C270.41 35.8672 270.152 35.3516 269.957 34.8281C269.852 34.5781 269.887 34.3398 270.066 34.1094C270.242 33.8711 270.461 33.7266 270.723 33.6719H273.113C274.551 33.6719 275.988 33.4453 277.426 32.9844C277.789 32.8828 278.148 32.75 278.504 32.5937C278.867 32.4375 279.227 32.3125 279.582 32.2187C279.945 32.1172 280.293 31.9844 280.629 31.8281C280.961 31.6719 281.305 31.543 281.66 31.4375L282.895 31.1406C283.309 31.1406 283.645 31.3437 283.895 31.75C284.152 32.3672 283.949 32.7773 283.285 32.9844C282.566 33.2461 281.848 33.5078 281.129 33.7656C280.41 34.0156 279.691 34.2734 278.973 34.5312C278.254 34.7812 277.52 35 276.77 35.1875C276.027 35.3672 275.246 35.5078 274.426 35.6094C273.707 35.7031 273.305 35.8203 273.223 35.9531C273.148 36.0781 273.164 36.4766 273.27 37.1406C273.57 38.6328 273.387 40.0937 272.723 41.5312C272.211 42.6172 271.441 43.5156 270.41 44.2344C269.691 44.6406 268.973 44.8437 268.254 44.8437ZM279.73 47.9375C279.117 47.9375 278.758 47.5781 278.652 46.8594C278.602 46.7031 278.574 46.3711 278.574 45.8594C278.73 44.5156 278.992 43.2031 279.355 41.9219C279.711 40.6406 280.098 39.3555 280.512 38.0625C280.863 37.0937 281.219 36.1367 281.574 35.1875C281.937 34.2305 282.301 33.2617 282.668 32.2812C283.02 31.3125 283.375 30.3555 283.73 29.4062C284.094 28.4492 284.457 27.4844 284.824 26.5156C285.082 26.1523 285.379 25.6016 285.715 24.8594C286.047 24.1094 286.418 23.7344 286.824 23.7344C286.824 23.7344 286.98 23.7891 287.293 23.8906C287.801 24.1953 287.926 24.6328 287.668 25.2031L287.215 26.125C286.848 27.1055 286.473 28.0859 286.09 29.0625C285.703 30.0312 285.332 31.0078 284.98 31.9844C284.613 32.9531 284.238 33.9453 283.855 34.9531C283.469 35.9531 283.074 36.9453 282.668 37.9219C282.613 38.1211 282.547 38.3398 282.465 38.5781C282.391 38.8086 282.301 39.0469 282.199 39.2969C281.988 39.7148 282.016 40.2031 282.277 40.7656C282.59 40.1016 283.156 39.1523 283.98 37.9219C284.801 36.6836 285.723 35.3984 286.746 34.0625C287.777 32.7305 288.801 31.6016 289.824 30.6719C290.855 29.7461 291.754 29.2812 292.527 29.2812C293.402 29.2812 293.965 29.6406 294.215 30.3594C294.473 31.0781 294.656 31.7734 294.762 32.4375C294.812 32.8047 294.848 33.1406 294.871 33.4531C294.902 33.7578 294.941 34.0625 294.996 34.375C294.996 34.6797 295.004 34.9844 295.027 35.2969C295.059 35.6016 295.098 35.9062 295.152 36.2187C295.203 37.0937 295.434 37.8906 295.84 38.6094C295.996 39.0156 296.301 39.2187 296.762 39.2187C296.863 39.2187 296.941 39.1953 296.996 39.1406C296.996 39.1406 297.004 39.1406 297.027 39.1406C297.059 39.1406 297.098 39.1406 297.152 39.1406C297.609 38.9961 298.043 38.7812 298.449 38.5C298.863 38.2109 299.281 37.8867 299.699 37.5312C300.051 37.2187 300.379 36.9141 300.684 36.6094C300.996 36.2969 301.332 35.9648 301.699 35.6094C302.012 35.2969 302.332 34.9922 302.668 34.6875C303 34.375 303.344 34.0625 303.699 33.75C304.113 33.3984 304.465 33.0898 304.746 32.8281C305.027 32.5703 305.219 32.3867 305.324 32.2812C305.426 32.1875 305.527 32.0898 305.621 31.9844C305.723 31.8828 305.801 31.8047 305.855 31.75C306.012 31.5937 306.191 31.5156 306.402 31.5156C306.609 31.5156 306.785 31.5937 306.934 31.75C307.297 32.0625 307.402 32.4219 307.246 32.8281C307.09 33.2344 306.859 33.5937 306.559 33.9062C306.348 34.1172 305.949 34.4922 305.356 35.0312C304.77 35.5625 304.129 36.1523 303.434 36.7969C302.734 37.4453 302.09 38.0234 301.496 38.5312C300.91 39.043 300.516 39.4023 300.309 39.6094C299.379 40.4844 298.355 41.0273 297.23 41.2344C297.176 41.2344 297.125 41.2344 297.074 41.2344C297.02 41.2344 296.969 41.2344 296.918 41.2344C296.813 41.2891 296.688 41.3125 296.543 41.3125C295.512 41.3125 294.688 40.7734 294.074 39.6875C293.605 38.8125 293.316 37.8594 293.215 36.8281C293.172 36.4219 293.137 36.0273 293.106 35.6406C293.082 35.2578 293.047 34.8867 292.996 34.5312C292.941 34.168 292.891 33.793 292.84 33.4062C292.785 33.0234 292.734 32.6484 292.684 32.2812C292.578 31.875 292.395 31.6719 292.137 31.6719C291.938 31.6719 291.762 31.75 291.605 31.9062C289.605 33.6992 287.844 35.7266 286.324 37.9844C284.813 40.2461 283.465 42.5859 282.277 45C282.172 45.2109 282.059 45.4297 281.934 45.6562C281.809 45.8867 281.691 46.1328 281.59 46.3906C281.484 46.6523 281.34 46.8867 281.152 47.0937C280.973 47.293 280.762 47.4961 280.512 47.7031C280.301 47.8594 280.043 47.9375 279.73 47.9375ZM304.863 54.1719C303.883 54.1719 303.23 53.6289 302.895 52.5469C302.563 51.4727 302.395 50.5 302.395 49.625C302.395 47.1562 302.703 44.4219 303.316 41.4219C303.93 38.4141 304.684 35.4453 305.582 32.5156C306.488 29.5898 307.352 26.9687 308.176 24.6562C308.434 23.9375 308.68 23.2617 308.91 22.625C309.137 21.9805 309.383 21.3242 309.645 20.6562C309.84 20.0859 309.898 19.6836 309.816 19.4531C309.742 19.2266 309.477 19.1094 309.02 19.1094H308.41C307.887 19.1641 307.371 19.2148 306.863 19.2656C306.352 19.3203 305.836 19.3984 305.316 19.5C304.805 19.5547 304.277 19.6172 303.738 19.6875C303.199 19.7617 302.672 19.8242 302.16 19.875C301.859 19.9297 301.543 19.9805 301.207 20.0312C300.863 20.0859 300.543 20.1094 300.238 20.1094C299.824 20.1094 299.543 20.0859 299.395 20.0312C299.137 19.9805 298.953 19.8281 298.848 19.5781C298.746 19.0586 298.875 18.7734 299.238 18.7187C299.437 18.6797 299.613 18.6328 299.77 18.5781C299.926 18.5273 300.082 18.4766 300.238 18.4219C300.449 18.3711 300.641 18.3359 300.816 18.3125C300.996 18.2813 301.187 18.2422 301.395 18.1875C302.113 18.0859 302.816 17.9805 303.504 17.875C304.199 17.7734 304.883 17.6953 305.551 17.6406C306.27 17.5469 306.961 17.4648 307.629 17.3906C308.293 17.3086 308.965 17.2422 309.645 17.1875C310.559 17.1367 311.199 16.6992 311.566 15.875L313.645 11.25C313.852 10.9375 314.027 10.6328 314.176 10.3281C314.332 10.0156 314.512 9.71094 314.723 9.40625C314.879 9.09375 315.043 8.78906 315.223 8.48437C315.398 8.17187 315.59 7.85937 315.801 7.54687C316.363 6.63281 316.902 6.17187 317.426 6.17187C317.727 6.17187 317.957 6.35156 318.113 6.70312C318.215 7.21484 318.086 7.78125 317.723 8.40625C317.316 9.42968 316.867 10.4531 316.379 11.4844C315.887 12.5078 315.387 13.5312 314.879 14.5625C314.824 14.668 314.773 14.7969 314.723 14.9531C314.668 15.1094 314.617 15.2344 314.566 15.3281C314.41 15.6406 314.332 16 314.332 16.4062C314.539 16.4609 314.723 16.5 314.879 16.5312C315.035 16.5547 315.191 16.5625 315.348 16.5625C315.543 16.5625 315.695 16.5391 315.801 16.4844C315.902 16.4844 315.98 16.4844 316.035 16.4844C316.086 16.4844 316.137 16.4844 316.191 16.4844C317.262 16.3906 318.379 16.2812 319.535 16.1562C320.691 16.0234 321.914 15.9023 323.207 15.7969C324.488 15.6953 325.707 15.5898 326.863 15.4844C328.02 15.3828 329.133 15.2812 330.207 15.1875H332.988C333.34 15.1875 333.543 15.4453 333.598 15.9531C333.598 16.3594 333.445 16.6172 333.145 16.7187C332.934 16.7734 332.754 16.8125 332.598 16.8437C332.449 16.8672 332.301 16.875 332.145 16.875C331.988 16.9297 331.832 16.9531 331.676 16.9531C331.52 16.9531 331.34 16.9805 331.145 17.0312L314.566 18.5C313.441 18.6055 312.695 19.1172 312.332 20.0312C311.871 21.0117 311.32 22.4141 310.676 24.2344C310.027 26.0586 309.355 28.0273 308.66 30.1406C307.973 32.2461 307.348 34.25 306.785 36.1562C306.223 38.0547 305.809 39.5625 305.551 40.6875C305.246 41.9687 305.004 43.2422 304.816 44.5C304.637 45.7617 304.496 47.0586 304.395 48.3906C304.34 48.9609 304.301 49.5664 304.27 50.2031C304.246 50.8476 304.523 51.3984 305.098 51.8594C305.66 51.8047 306.168 51.5508 306.629 51.0937C306.836 50.832 307.027 50.5859 307.207 50.3594C307.383 50.1289 307.574 49.9101 307.785 49.7031C308.605 48.6719 309.598 47.3516 310.754 45.7344C311.91 44.1211 313.09 42.4648 314.301 40.7656C315.508 39.0703 316.621 37.5273 317.645 36.1406C318.676 34.7578 319.473 33.7812 320.035 33.2187C320.137 33.0625 320.27 32.9062 320.426 32.75C320.582 32.5937 320.711 32.4375 320.816 32.2812C321.066 32.0312 321.371 31.8281 321.738 31.6719C321.789 31.6719 321.84 31.6484 321.895 31.5937C321.945 31.5937 321.973 31.5937 321.973 31.5937C321.973 31.5937 321.996 31.5937 322.051 31.5937C322.102 31.5937 322.277 31.6484 322.582 31.75C322.996 32.0625 323.074 32.4492 322.816 32.9062C322.816 33.0625 322.738 33.2187 322.582 33.375C321.809 34.293 320.793 35.6016 319.535 37.2969C318.273 38.9961 317.105 40.5898 316.035 42.0781C314.754 43.8281 313.441 45.5898 312.098 47.3594C310.762 49.1289 309.48 50.7344 308.254 52.1719C307.887 52.6289 307.383 53.0781 306.738 53.5156C306.102 53.9531 305.477 54.1719 304.863 54.1719ZM319.352 42.0781C318.32 42.0781 317.754 41.4609 317.648 40.2187C317.648 39.0937 317.895 37.8906 318.383 36.6094C318.875 35.3203 319.484 34.0859 320.227 32.9062C320.977 31.7305 321.734 30.7578 322.508 29.9844C322.715 29.7266 323.102 29.3867 323.664 28.9687C324.484 28.3047 325.336 27.9687 326.211 27.9687C326.98 27.9687 327.75 28.2773 328.523 28.8906C328.93 29.1523 329.156 29.2812 329.211 29.2812C329.367 29.2812 329.594 29.0781 329.898 28.6719C330.156 28.4141 330.402 28.1328 330.633 27.8281C330.859 27.5156 331.078 27.2031 331.289 26.8906C331.496 26.5898 331.715 26.2812 331.945 25.9687C332.172 25.6562 332.391 25.3516 332.602 25.0469C332.703 24.9453 332.809 24.8125 332.914 24.6562C333.016 24.5 333.117 24.3516 333.211 24.2031C333.312 24.1016 333.402 23.9687 333.477 23.8125C333.559 23.6562 333.652 23.5273 333.758 23.4219C334.109 23.0703 334.418 22.8906 334.68 22.8906C334.68 22.8906 334.836 22.9453 335.148 23.0469C335.656 23.3516 335.781 23.8594 335.523 24.5781C335.469 24.7891 335.406 24.9687 335.336 25.125C335.262 25.2812 335.172 25.4336 335.07 25.5781C334.859 25.9453 334.68 26.3047 334.523 26.6562C334.062 27.6367 333.527 28.8437 332.914 30.2812C332.297 31.7187 331.773 33.1719 331.336 34.6406C330.898 36.1016 330.68 37.3984 330.68 38.5312C330.68 38.9922 330.828 39.2187 331.133 39.2187C331.289 39.2187 331.391 39.1953 331.445 39.1406C331.809 38.9961 332.156 38.8437 332.492 38.6875C332.824 38.5312 333.168 38.3516 333.523 38.1406C333.992 37.8398 334.465 37.5234 334.945 37.1875C335.434 36.8555 335.914 36.4805 336.383 36.0625C336.734 35.8047 337.062 35.5234 337.367 35.2187C337.68 34.9062 337.992 34.625 338.305 34.375C338.867 33.8047 339.48 33.2617 340.148 32.75C340.25 32.6484 340.367 32.543 340.492 32.4375C340.625 32.3359 340.746 32.2344 340.852 32.1406C340.953 32.0391 341.156 31.8828 341.461 31.6719C341.562 31.6211 341.641 31.5859 341.695 31.5625C341.746 31.5312 341.797 31.5156 341.852 31.5156C342.059 31.5156 342.234 31.5937 342.383 31.75C342.746 31.9609 342.852 32.3437 342.695 32.9062C342.641 32.9609 342.617 33 342.617 33.0312C342.617 33.0547 342.59 33.0898 342.539 33.1406C342.484 33.1953 342.434 33.2461 342.383 33.2969C342.328 33.3516 342.277 33.3984 342.227 33.4375C341.508 34.168 340.48 35.1367 339.148 36.3437C337.812 37.543 336.437 38.6328 335.023 39.6094C333.617 40.5898 332.371 41.1797 331.289 41.375C331.184 41.4297 330.953 41.4531 330.602 41.4531C329.309 41.4531 328.664 40.7109 328.664 39.2187C328.664 38.1992 328.766 37.1719 328.977 36.1406C329.184 35.1094 329.418 34.0859 329.68 33.0625C329.105 33.3125 328.719 33.5703 328.523 33.8281C328.418 33.9844 328.289 34.1406 328.133 34.2969C327.977 34.4531 327.844 34.5781 327.742 34.6719C326.867 35.7031 325.992 36.6953 325.117 37.6406C324.25 38.5898 323.328 39.5 322.352 40.375C321.984 40.6875 321.523 41.0547 320.961 41.4687C320.398 41.875 319.859 42.0781 319.352 42.0781ZM320.039 39.2969C320.352 39.2969 320.578 39.2187 320.727 39.0625C321.965 38.043 323.121 36.918 324.195 35.6875C325.277 34.4492 326.336 33.1875 327.367 31.9062C327.418 31.8555 327.465 31.8047 327.508 31.75C327.559 31.6992 327.609 31.6211 327.664 31.5156C327.82 31.0078 327.719 30.6484 327.367 30.4375C326.949 30.1797 326.59 30.0469 326.289 30.0469C326.027 30.0469 325.703 30.1523 325.32 30.3594C324.934 30.5703 324.637 30.7773 324.43 30.9844C322.012 33.0898 320.496 35.8086 319.883 39.1406L319.961 39.2187C320.012 39.2187 320.039 39.2461 320.039 39.2969ZM338.312 54.0156C337.687 54.0156 337.375 53.7344 337.375 53.1719C337.375 52.8594 337.391 52.5352 337.422 52.2031C337.445 51.8672 337.481 51.5234 337.531 51.1719L338.313 46.2344C338.406 45.7773 338.434 45.3203 338.391 44.8594C338.34 44.3906 338.289 43.9297 338.234 43.4687C338.234 43 338.387 42.5898 338.688 42.2344C339.102 41.9219 339.336 41.5117 339.391 41C339.535 40.125 339.711 39.2266 339.922 38.2969C340.129 37.3711 340.363 36.4766 340.625 35.6094C340.664 35.4023 340.695 35.1953 340.719 34.9844C340.75 34.7773 340.664 34.6016 340.469 34.4531C340.051 34.0898 339.879 33.7578 339.953 33.4531C340.035 33.1406 340.18 32.8047 340.391 32.4375C341.359 31.0547 342.164 29.5898 342.813 28.0469C343.457 26.5078 344.086 24.9375 344.703 23.3437C344.754 23.1992 345 22.6016 345.438 21.5469C345.875 20.4844 346.398 19.2266 347.016 17.7656C347.629 16.2969 348.297 14.8437 349.016 13.4062C349.734 11.9687 350.41 10.7773 351.047 9.82812C351.691 8.88281 352.25 8.40625 352.719 8.40625C352.926 8.40625 353.129 8.45312 353.328 8.54687C353.742 8.80859 353.898 9.16797 353.797 9.625C353.535 10.6055 353.109 11.8125 352.516 13.25C351.93 14.6875 351.266 16.1797 350.516 17.7187C349.773 19.2617 349.031 20.7031 348.281 22.0469C347.539 23.3828 346.91 24.4844 346.391 25.3594C345.316 27.2031 344.457 29.2461 343.813 31.4844C343.176 33.7148 342.598 35.8594 342.078 37.9219C342.023 38.1211 341.984 38.2969 341.953 38.4531C341.93 38.6094 341.973 38.793 342.078 39C342.547 38.7422 342.828 38.4805 342.922 38.2187C343.023 37.8672 343.18 37.5859 343.391 37.375C344.266 35.8867 345.227 34.4141 346.281 32.9531C347.332 31.4844 348.551 30.2109 349.938 29.125C350.195 28.9687 350.453 28.8281 350.703 28.7031C350.961 28.5781 351.25 28.4922 351.563 28.4375C352.07 28.3867 352.504 28.543 352.859 28.9062C353.223 29.2617 353.352 29.6953 353.25 30.2031C353.145 31.0781 352.672 32.1094 351.828 33.2969C350.984 34.4766 350.055 35.5898 349.047 36.6406C348.047 37.6953 347.211 38.5273 346.547 39.1406C346.086 39.5586 345.613 39.9766 345.125 40.3906C344.633 40.7969 344.133 41.2031 343.625 41.6094C343.469 41.7656 343.414 41.9766 343.469 42.2344C343.57 42.4844 343.754 42.6094 344.016 42.6094C347.191 42.3594 350.086 41.7969 352.703 40.9219C355.328 40.0469 357.898 38.5312 360.422 36.375C360.828 36.0117 361.234 35.6641 361.641 35.3281C362.055 34.9961 362.445 34.6523 362.813 34.2969C363.219 33.9336 363.613 33.5859 364 33.25C364.383 32.918 364.785 32.5742 365.203 32.2187C365.305 32.1172 365.422 32.0117 365.547 31.9062C365.672 31.8047 365.785 31.6992 365.891 31.5937C365.992 31.4922 366.109 31.4023 366.234 31.3281C366.367 31.2461 366.488 31.1836 366.594 31.1406C366.645 31.0898 366.77 31.0625 366.969 31.0625C367.176 31.0625 367.41 31.1875 367.672 31.4375C367.922 31.8555 367.945 32.1641 367.75 32.3594C367.695 32.5156 367.488 32.7773 367.125 33.1406C364.758 35.3516 362.484 37.2891 360.297 38.9531C358.117 40.6211 355.785 41.9453 353.297 42.9219C350.805 43.9023 347.891 44.4687 344.547 44.625C343.617 44.625 342.973 44.6406 342.609 44.6719C342.254 44.6953 342 44.8867 341.844 45.25C341.695 45.6055 341.441 46.2422 341.078 47.1562C340.973 47.5234 340.859 47.8984 340.734 48.2812C340.609 48.668 340.492 49.0625 340.391 49.4687C340.285 49.832 340.156 50.207 340 50.5937C339.844 50.9766 339.711 51.375 339.609 51.7812L339.156 53.4844C338.945 53.8359 338.668 54.0156 338.312 54.0156ZM345.703 37.375C346.16 37.0625 346.812 36.4844 347.656 35.6406C348.508 34.7969 349.305 33.9141 350.047 32.9844C350.797 32.0586 351.223 31.3398 351.328 30.8281C350.66 30.9336 349.926 31.3867 349.125 32.1875C348.332 32.9805 347.629 33.8672 347.016 34.8437C346.398 35.8125 345.961 36.6562 345.703 37.375ZM368.902 45.5469C366.746 45.5469 365.238 44.9687 364.387 43.8125C363.543 42.6562 363.176 41.2578 363.277 39.6094C363.277 39.3516 363.293 39.1328 363.324 38.9531C363.348 38.7773 363.383 38.5859 363.434 38.375C363.996 36.2187 364.801 34.2461 365.855 32.4531C366.906 30.6523 368.281 29.0078 369.98 27.5156C370.906 26.7461 371.855 26.3594 372.824 26.3594C373.543 26.3594 374.27 26.5703 375.012 26.9844C375.762 27.3906 376.188 28.0078 376.293 28.8281C376.605 30.7773 376.094 32.5742 374.762 34.2187C374.656 34.375 374.449 34.5 374.137 34.5937C374.082 34.5937 374.059 34.5937 374.059 34.5937C374.059 34.6484 374.031 34.6719 373.98 34.6719C373.625 34.6719 373.449 34.5234 373.449 34.2187C373.395 33.9609 373.449 33.6992 373.605 33.4375C373.656 33.3437 373.703 33.2344 373.746 33.1094C373.797 32.9766 373.848 32.8555 373.902 32.75C374.16 32.3437 374.355 31.8984 374.48 31.4062C374.613 30.918 374.629 30.418 374.527 29.9062C374.422 28.875 373.934 28.3594 373.059 28.3594C372.652 28.3594 372.254 28.4766 371.871 28.7031C371.484 28.9336 371.16 29.1797 370.902 29.4375C368.184 31.8555 366.359 34.9141 365.434 38.6094C364.559 41.9453 365.715 43.6094 368.902 43.6094C369.098 43.6094 369.25 43.5898 369.356 43.5469C369.457 43.5469 369.547 43.5469 369.621 43.5469C369.703 43.5469 369.77 43.5469 369.824 43.5469C371.625 43.2891 373.422 42.6836 375.215 41.7344C377.016 40.7773 378.637 39.8125 380.074 38.8437C380.738 38.3242 381.391 37.7969 382.027 37.2656C382.672 36.7266 383.328 36.1953 383.996 35.6719C384.672 35.1641 385.328 34.6523 385.965 34.1406C386.609 33.6328 387.266 33.1172 387.934 32.5937C388.035 32.4922 388.152 32.3906 388.277 32.2969C388.402 32.1953 388.516 32.0898 388.621 31.9844C388.723 31.8828 388.84 31.793 388.965 31.7187C389.098 31.6367 389.219 31.5703 389.324 31.5156C389.625 31.4141 389.777 31.3594 389.777 31.3594C390.09 31.3594 390.324 31.4922 390.481 31.75C390.731 32.0625 390.731 32.4492 390.481 32.9062C390.426 33.0117 390.324 33.1406 390.168 33.2969C390.113 33.3516 390.047 33.4141 389.965 33.4844C389.891 33.5586 389.828 33.6211 389.777 33.6719C388.09 35.1094 386.379 36.5273 384.652 37.9219C382.934 39.3086 381.125 40.6172 379.231 41.8437C377.637 42.875 376.043 43.6992 374.449 44.3125C372.856 44.9297 371.129 45.3398 369.277 45.5469H368.902ZM390.168 45.9219C388.73 45.9219 387.73 45.1797 387.168 43.6875C387.012 43.2812 386.918 42.8594 386.887 42.4219C386.863 41.9844 386.855 41.4844 386.855 40.9219C387.062 39.7891 387.293 38.4375 387.543 36.875C387.801 35.3125 388.152 33.8242 388.59 32.4062C389.027 30.9922 389.578 29.9492 390.246 29.2812C390.504 29.125 390.707 29.0469 390.855 29.0469C390.906 29.0469 391.09 29.1016 391.402 29.2031C391.766 29.3594 391.894 29.6406 391.793 30.0469C391.125 31.7461 390.531 33.5312 390.012 35.4062C389.5 37.2812 389.113 39.1211 388.855 40.9219C388.801 41.4844 388.855 42.1523 389.012 42.9219C389.113 43.3398 389.293 43.6016 389.543 43.7031C389.801 43.7969 390.141 43.8437 390.559 43.8437C391.121 43.7422 391.629 43.5625 392.09 43.3125C392.559 43.0547 393.019 42.7461 393.48 42.3906C394.512 41.5156 395.5 40.6172 396.449 39.6875C397.395 38.7617 398.309 37.7891 399.184 36.7656C399.496 36.4023 399.801 36.043 400.105 35.6875C400.418 35.3242 400.703 34.9609 400.965 34.5937C401.215 34.2422 401.488 33.8867 401.793 33.5312C402.105 33.168 402.418 32.8047 402.73 32.4375C402.887 32.2422 403.051 32.0625 403.23 31.9062C403.406 31.75 403.598 31.5937 403.809 31.4375C403.91 31.3359 404.043 31.2812 404.199 31.2812C404.395 31.2812 404.574 31.3594 404.73 31.5156C405.043 31.7266 405.145 32.0312 405.043 32.4375C404.988 32.75 404.832 33.0391 404.574 33.2969C403.238 35.0391 401.863 36.7305 400.449 38.375C399.043 40.0234 397.488 41.5625 395.793 43C395.074 43.668 394.215 44.3242 393.215 44.9687C392.215 45.6055 391.199 45.9219 390.168 45.9219ZM392.168 26.2812C391.395 26.3867 390.957 25.8984 390.855 24.8125C390.855 23.8867 391.316 23.4219 392.246 23.4219C393.223 23.4219 393.738 23.8359 393.793 24.6562C393.793 25.0742 393.625 25.4492 393.293 25.7812C392.957 26.1172 392.582 26.2812 392.168 26.2812ZM404.812 45.4687C402.707 45.4687 401.395 44.5156 400.875 42.6094C400.719 42.2031 400.594 41.7734 400.5 41.3125C400.398 40.8437 400.371 40.4062 400.422 40C400.371 39.3359 400.406 38.7187 400.531 38.1562C400.656 37.5859 400.797 37.0156 400.953 36.4531C401.422 35.2148 402.051 33.8906 402.844 32.4844C403.633 31.0703 404.582 29.8242 405.687 28.75C406.801 27.668 408.023 27.0234 409.359 26.8125C409.516 26.8125 409.617 26.7891 409.672 26.7344C409.711 26.7344 409.758 26.7344 409.812 26.7344C409.863 26.7344 409.914 26.7344 409.969 26.7344C410.738 26.7344 411.344 26.9961 411.781 27.5156C412.219 28.0273 412.383 28.7187 412.281 29.5937C412.07 30.8242 411.469 32.0937 410.469 33.4062C409.469 34.7187 408.301 35.8242 406.969 36.7187C405.633 37.6172 404.348 38.1406 403.109 38.2969C402.754 38.4023 402.551 38.6367 402.5 39C402.289 39.8125 402.367 40.7109 402.734 41.6875C402.879 42.5625 403.172 43.0781 403.609 43.2344C404.047 43.3906 404.625 43.4687 405.344 43.4687C406.883 43.1562 408.461 42.4766 410.078 41.4219C411.703 40.3711 413.082 39.3281 414.219 38.2969C414.676 37.8906 415.133 37.4609 415.594 37C416.063 36.5312 416.523 36.0898 416.984 35.6719C417.398 35.2656 417.836 34.8437 418.297 34.4062C418.754 33.9687 419.219 33.5469 419.687 33.1406C419.789 33.0391 419.914 32.9219 420.062 32.7969C420.219 32.6641 420.348 32.543 420.453 32.4375C420.555 32.3359 420.672 32.2187 420.797 32.0937C420.93 31.9687 421.047 31.8555 421.141 31.75C421.398 31.5937 421.609 31.5156 421.766 31.5156C421.973 31.5156 422.148 31.5937 422.297 31.75C422.711 32.1055 422.789 32.4922 422.531 32.9062C422.477 33.0625 422.273 33.3203 421.922 33.6719C420.992 34.6523 419.836 35.8086 418.453 37.1406C417.066 38.4766 415.578 39.7734 413.984 41.0312C412.391 42.293 410.797 43.3516 409.203 44.2031C407.609 45.0469 406.145 45.4687 404.812 45.4687ZM404.109 35.9844C404.785 35.6328 405.598 35.0937 406.547 34.375C407.492 33.6562 408.336 32.875 409.078 32.0312C409.828 31.1797 410.203 30.3398 410.203 29.5156C410.148 29.0078 409.922 28.7969 409.516 28.8906C408.691 28.9961 407.867 29.4336 407.047 30.2031C406.223 30.9766 405.504 31.8516 404.891 32.8281C404.273 33.8086 403.813 34.7109 403.5 35.5312C403.5 35.7812 403.551 35.9062 403.656 35.9062C403.906 36.0117 404.055 36.0391 404.109 35.9844Z" fill="black"/>
</svg>
