<svg width="390" height="58" viewBox="0 0 390 58" fill="none" xmlns="http://www.w3.org/2000/svg">
<path d="M33.5156 40.8594C31.9102 42.2969 29.8516 43.4688 27.3438 44.375C24.8438 45.2813 21.9688 45.7344 18.7188 45.7344C16.0195 45.7344 13.5313 45.3008 11.25 44.4375C8.97656 43.5742 7.00781 42.3711 5.34375 40.8281C3.67578 39.2891 2.36719 37.4531 1.42188 35.3281C0.472656 33.1953 0 30.8672 0 28.3438C0 25.8125 0.472656 23.4844 1.42188 21.3594C2.36719 19.2266 3.67578 17.3867 5.34375 15.8438C7.00781 14.3047 8.97656 13.1016 11.25 12.2344C13.5313 11.3711 16.0195 10.9375 18.7188 10.9375C21.75 10.9375 24.4688 11.3281 26.875 12.1094C29.2813 12.8906 31.2227 13.7891 32.7031 14.7969L32.25 16.5156C30.5625 15.3711 28.5977 14.4063 26.3594 13.625C24.1289 12.8438 21.5625 12.4531 18.6563 12.4531C16.5938 12.4531 14.8438 12.9219 13.4063 13.8594C11.9688 14.7891 10.7969 16 9.89062 17.5C8.98438 18.9922 8.32812 20.6836 7.92187 22.5781C7.52344 24.4766 7.32813 26.3984 7.32813 28.3438C7.32813 31.2109 7.6875 33.6328 8.40625 35.6094C9.125 37.5898 10.0625 39.2031 11.2188 40.4531C12.3828 41.6953 13.6914 42.6016 15.1406 43.1719C16.5977 43.7344 18.0664 44.0156 19.5469 44.0156C22.2422 44.0156 24.7188 43.6016 26.9688 42.7656C29.2266 41.9219 31.2227 40.7617 32.9531 39.2812L33.5156 40.8594ZM75.2578 28.3438C75.2578 30.8672 74.7813 33.1953 73.8359 35.3281C72.8867 37.4531 71.5781 39.2891 69.9141 40.8281C68.2461 42.3711 66.2617 43.5742 63.9609 44.4375C61.668 45.3008 59.1719 45.7344 56.4766 45.7344C53.7773 45.7344 51.2891 45.3008 49.0078 44.4375C46.7344 43.5742 44.7656 42.3711 43.1016 40.8281C41.4336 39.2891 40.125 37.4531 39.1797 35.3281C38.2305 33.1953 37.7578 30.8672 37.7578 28.3438C37.7578 25.8125 38.2305 23.4844 39.1797 21.3594C40.125 19.2266 41.4336 17.3867 43.1016 15.8438C44.7656 14.3047 46.7344 13.1016 49.0078 12.2344C51.2891 11.3711 53.7773 10.9375 56.4766 10.9375C59.1719 10.9375 61.668 11.3711 63.9609 12.2344C66.2617 13.1016 68.2461 14.3047 69.9141 15.8438C71.5781 17.3867 72.8867 19.2266 73.8359 21.3594C74.7813 23.4844 75.2578 25.8125 75.2578 28.3438ZM67.9297 28.3438C67.9297 26.4805 67.7774 24.5898 67.4766 22.6719C67.1836 20.7578 66.6172 19.0156 65.7734 17.4531C64.9297 15.8906 63.7578 14.6172 62.2578 13.625C60.7656 12.6367 58.8398 12.1406 56.4766 12.1406C54.1094 12.1406 52.1875 12.6367 50.7109 13.625C49.2422 14.6172 48.0859 15.8906 47.2422 17.4531C46.3984 19.0156 45.8242 20.7578 45.5234 22.6719C45.2305 24.5898 45.0859 26.4805 45.0859 28.3438C45.0859 30.1992 45.2305 32.0859 45.5234 34C45.8242 35.918 46.3984 37.6562 47.2422 39.2188C48.0859 40.7812 49.2422 42.0586 50.7109 43.0469C52.1875 44.0391 54.1094 44.5313 56.4766 44.5313C58.8398 44.5313 60.7656 44.0391 62.2578 43.0469C63.7578 42.0586 64.9297 40.7812 65.7734 39.2188C66.6172 37.6562 67.1836 35.918 67.4766 34C67.7774 32.0859 67.9297 30.1992 67.9297 28.3438ZM116.57 27.7031C116.57 30.2344 116.059 32.5586 115.039 34.6719C114.027 36.7773 112.68 38.5781 110.992 40.0781C109.305 41.5703 107.352 42.7266 105.133 43.5469C102.922 44.3711 100.641 44.7813 98.2891 44.7813H90.6328L91.6484 43.2031H95.7578C97.6953 43.2031 99.4844 43.0156 101.133 42.6406C102.777 42.2578 104.199 41.5156 105.398 40.4219C106.594 39.3203 107.531 37.7578 108.211 35.7344C108.887 33.7148 109.227 31.0391 109.227 27.7031C109.227 24.6719 108.867 22.1797 108.148 20.2188C107.43 18.25 106.531 16.6992 105.461 15.5625C104.387 14.4297 103.227 13.6406 101.977 13.2031C100.734 12.7578 99.6094 12.5312 98.6016 12.5312C97.4648 12.5312 96.3867 12.6562 95.3672 12.9062C94.3555 13.1562 93.3984 13.4648 92.4922 13.8281C91.5859 14.1836 90.7617 14.5625 90.0234 14.9688C89.293 15.3672 88.6524 15.7305 88.1016 16.0625V57.1719H81.5859V11.8906H88.1016V14.3594C88.6094 14.0703 89.2188 13.7344 89.9297 13.3594C90.6484 12.9766 91.4805 12.6055 92.4297 12.25C93.375 11.8867 94.4492 11.5781 95.6484 11.3281C96.8555 11.0703 98.1797 10.9375 99.6172 10.9375C101.719 10.9375 103.781 11.3398 105.805 12.1406C107.836 12.9453 109.637 14.0742 111.211 15.5313C112.793 16.9805 114.078 18.7422 115.07 20.8125C116.07 22.875 116.57 25.1719 116.57 27.7031ZM139.648 44.2188C139.187 45.1016 138.672 46.0508 138.102 47.0625C137.527 48.0703 136.922 49.0508 136.289 50C135.664 50.9453 134.992 51.8438 134.273 52.6875C133.555 53.5313 132.793 54.25 131.992 54.8438C129.762 56.4883 126.813 57.3125 123.148 57.3125H122.258L122.82 55.6562C124.047 55.6562 125.125 55.582 126.055 55.4375C126.98 55.2891 127.867 55.0508 128.711 54.7188C129.762 54.2891 130.719 53.6875 131.586 52.9063C132.449 52.125 133.242 51.2695 133.961 50.3438C134.68 49.4141 135.297 48.4766 135.82 47.5313C136.352 46.582 136.781 45.7266 137.117 44.9688L120.414 11.8906H127.82L140.977 37.9531L154.445 11.8906H156.352L139.648 44.2188ZM199.293 43.7031C199.082 44.0898 198.859 44.418 198.621 44.6875C198.391 44.957 198.129 45.0938 197.84 45.0938C197.371 45.0938 196.988 44.7344 196.699 44.0156L186.449 21.1875C186.324 20.8555 186.137 20.6875 185.887 20.6875C185.637 20.6875 185.449 20.8555 185.324 21.1875L176.012 44.0156C175.676 44.8164 175.215 45.2188 174.621 45.2188C174.035 45.2188 173.551 44.8164 173.168 44.0156L157.605 11.8906H165.262L176.402 34.7812C176.566 35.125 176.777 35.2969 177.027 35.2969C177.328 35.2969 177.563 35.125 177.73 34.7812L186.902 12.9062C187.066 12.5234 187.285 12.2344 187.559 12.0469C187.84 11.8594 188.125 11.7656 188.418 11.7656C189.094 11.7656 189.621 12.1484 189.996 12.9062L200.059 34.7812C200.223 35.125 200.434 35.2969 200.684 35.2969C200.984 35.2969 201.219 35.125 201.387 34.7812L212.199 11.8906H214.215L199.293 43.7031ZM245.402 44.7813C245.234 44.1875 244.988 43.418 244.668 42.4688C244.355 41.5234 243.996 40.5234 243.59 39.4688C243.191 38.418 242.781 37.3672 242.355 36.3125C241.938 35.25 241.543 34.3203 241.168 33.5156C240.656 32.4219 240.105 31.5312 239.512 30.8438C238.926 30.1484 238.223 29.5781 237.402 29.1406C236.578 28.6953 235.621 28.3867 234.527 28.2188C233.434 28.043 232.125 27.9531 230.605 27.9531H228.574L229.59 26.4375H234.652C235.871 26.4375 237.027 26.3242 238.121 26.0938C239.223 25.8672 240.188 25.4766 241.012 24.9219C241.832 24.3711 242.496 23.6641 242.996 22.7969C243.504 21.9336 243.762 20.8516 243.762 19.5469C243.762 18.5391 243.504 17.6523 242.996 16.8906C242.496 16.1328 241.801 15.5 240.918 15C240.031 14.4922 238.996 14.1094 237.809 13.8594C236.629 13.6016 235.344 13.4688 233.949 13.4688H228.777C227.973 13.4688 227.316 13.7773 226.809 14.3906C226.297 15.0078 226.043 15.7148 226.043 16.5156V44.7813H219.543V16C219.543 15.0313 219.77 14.1055 220.23 13.2188C220.699 12.3359 221.418 11.8906 222.387 11.8906H232.371C238.484 11.8906 243.027 12.5078 245.996 13.7344C248.973 14.9531 250.465 17.0156 250.465 19.9219C250.465 21.2344 250.156 22.3672 249.543 23.3125C248.938 24.2617 248.105 25.0625 247.043 25.7188C245.988 26.3672 244.746 26.8711 243.309 27.2344C241.879 27.5898 240.344 27.8086 238.699 27.8906V27.9531C240.219 28.2969 241.559 28.6836 242.715 29.1094C243.871 29.5273 244.891 30.0859 245.777 30.7812C246.66 31.4688 247.453 32.3359 248.152 33.375C248.848 34.4062 249.516 35.6797 250.152 37.1875L253.246 44.7813H245.402ZM267.297 3.79688C267.297 4.80859 266.938 5.68359 266.219 6.42188C265.5 7.16406 264.594 7.53125 263.5 7.53125C262.488 7.53125 261.613 7.16406 260.875 6.42188C260.133 5.68359 259.766 4.80859 259.766 3.79688C259.766 2.78906 260.133 1.90234 260.875 1.14062C261.613 0.382812 262.488 0 263.5 0C264.594 0 265.5 0.382812 266.219 1.14062C266.938 1.90234 267.297 2.78906 267.297 3.79688ZM260.266 44.7813V11.8906H266.781V44.7813H260.266ZM291.379 15.0469H285.441V39.7812C285.441 40.543 285.668 41.3047 286.129 42.0625C286.598 42.8242 287.273 43.2031 288.16 43.2031H291.191L290.816 44.7813H281.77C280.715 44.7813 279.977 44.2969 279.551 43.3281C279.133 42.3594 278.926 41.3516 278.926 40.2969V15.0469H274.238L274.816 13.4688H278.926V4.42188H285.441V13.4688H291.832L291.379 15.0469ZM305.941 3.79688C305.941 4.80859 305.582 5.68359 304.863 6.42188C304.145 7.16406 303.238 7.53125 302.145 7.53125C301.133 7.53125 300.258 7.16406 299.52 6.42188C298.777 5.68359 298.41 4.80859 298.41 3.79688C298.41 2.78906 298.777 1.90234 299.52 1.14062C300.258 0.382812 301.133 0 302.145 0C303.238 0 304.145 0.382812 304.863 1.14062C305.582 1.90234 305.941 2.78906 305.941 3.79688ZM298.91 44.7813V11.8906H305.426V44.7813H298.91ZM347.746 42.625C347.746 43.6875 347.605 44.4297 347.324 44.8438C347.051 45.2695 346.707 45.4844 346.293 45.4844C345.824 45.4844 345.301 45.2891 344.73 44.9063C344.168 44.5313 343.652 44.1094 343.184 43.6406L319.215 21.125C318.672 20.6172 318.23 20.3594 317.887 20.3594C317.637 20.3594 317.449 20.4688 317.324 20.6875C317.199 20.8984 317.137 21.125 317.137 21.375V44.7813H315.559V13.4062C315.559 12.6484 315.734 12.0898 316.09 11.7344C316.441 11.3828 316.875 11.2031 317.387 11.2031C317.98 11.2031 318.59 11.4766 319.215 12.0156L344.137 35.1719C344.48 35.5078 344.766 35.7266 344.996 35.8281C345.223 35.9336 345.402 35.9844 345.527 35.9844C345.785 35.9844 345.957 35.8828 346.043 35.6719C346.125 35.4648 346.168 35.2578 346.168 35.0469V11.8906H347.746V42.625ZM389.168 42.8906C389.168 45.9609 388.598 48.4375 387.465 50.3125C386.328 52.1875 384.926 53.6406 383.262 54.6719C381.594 55.7109 379.785 56.4102 377.84 56.7656C375.902 57.1289 374.113 57.3125 372.48 57.3125H359.512L360.074 55.7188H373.996C374.879 55.7188 375.84 55.6016 376.871 55.375C377.902 55.1445 378.84 54.5078 379.684 53.4688C380.527 52.4375 381.23 50.8594 381.793 48.7344C382.363 46.6094 382.652 43.6484 382.652 39.8438V16.125C381.309 15.2422 379.762 14.4766 378.012 13.8281C376.262 13.1719 374.328 12.8438 372.215 12.8438C370.027 12.8438 368.234 13.2891 366.84 14.1719C365.453 15.0586 364.359 16.2188 363.559 17.6563C362.754 19.0859 362.191 20.7031 361.871 22.5156C361.559 24.3281 361.402 26.1641 361.402 28.0156C361.402 31.3516 361.75 34.0117 362.449 36C363.145 37.9805 364.105 39.5078 365.324 40.5781C366.551 41.6523 367.973 42.3594 369.59 42.7031C371.215 43.0391 372.973 43.2031 374.871 43.2031H379.246L380.121 44.7813H370.387C368.145 44.7813 366.035 44.4023 364.059 43.6406C362.078 42.8828 360.348 41.7969 358.871 40.3906C357.402 38.9766 356.234 37.2266 355.371 35.1406C354.504 33.0469 354.074 30.6719 354.074 28.0156C354.074 25.8281 354.484 23.7148 355.309 21.6719C356.129 19.6211 357.266 17.8086 358.715 16.2344C360.172 14.6523 361.891 13.375 363.871 12.4062C365.848 11.4297 367.98 10.9375 370.262 10.9375C373.469 10.9375 376.031 11.2773 377.949 11.9531C379.863 12.6328 381.434 13.3906 382.652 14.2344V11.6406H389.168V42.8906Z" fill="#8B2E0F"/>
</svg>
