<svg width="444" height="64" viewBox="0 0 444 64" fill="none" xmlns="http://www.w3.org/2000/svg">
<path d="M65.7656 7.26563C65.7656 7.44531 65.6641 7.6875 65.4688 8C65.2695 8.30469 64.9688 8.72656 64.5625 9.26563L54.6094 22.2969C54.3594 22.6016 54.2344 22.8281 54.2344 22.9844C54.2344 23.1641 54.3164 23.2656 54.4844 23.2969C54.6484 23.3203 54.8203 23.3281 55 23.3281H65.2969V24.1563H51.0312C50.6562 24.1563 50.332 24.1367 50.0625 24.0938C49.8008 24.043 49.6719 23.8984 49.6719 23.6563C49.6719 23.4805 49.7578 23.2305 49.9375 22.9063C50.1133 22.5859 50.4141 22.1563 50.8438 21.625L60.7344 8.89063C60.8672 8.71484 60.9922 8.54297 61.1094 8.375C61.2344 8.21094 61.2969 8.05859 61.2969 7.92188C61.2969 7.74609 61.1094 7.65625 60.7344 7.65625H51.2344V6.82812H64.2969C64.7656 6.82812 65.125 6.85156 65.375 6.89062C65.6328 6.9336 65.7656 7.05859 65.7656 7.26563ZM70.7383 24.1563C70.1836 24.1563 69.793 23.9023 69.5664 23.3906C69.3477 22.8828 69.2383 22.3516 69.2383 21.7969V8.98438C69.2383 8.47656 69.3555 7.99219 69.5977 7.53125C69.8477 7.0625 70.2266 6.82812 70.7383 6.82812H84.832V7.65625H74.0977C73.6797 7.65625 73.3359 7.82031 73.0664 8.14063C72.8047 8.46484 72.6758 8.83984 72.6758 9.26563V14.3594H83.5039V15.1875H72.6758V21.5156C72.6758 21.9219 72.793 22.3281 73.0352 22.7344C73.2734 23.1328 73.6289 23.3281 74.0977 23.3281H85.8945V24.1563H70.7383ZM104.562 18.75C104.562 19.9609 104.254 20.9453 103.641 21.7031C103.035 22.4531 102.266 23.0547 101.328 23.5C100.398 23.9375 99.3906 24.2383 98.2969 24.4063C97.2031 24.5703 96.1914 24.6563 95.2656 24.6563C93.9297 24.6563 92.6016 24.5469 91.2812 24.3281C89.957 24.1211 88.6641 23.7891 87.4062 23.3281L87.625 22.3906C88.1445 22.6094 88.7188 22.8086 89.3438 22.9844C89.9766 23.1641 90.6445 23.3125 91.3438 23.4375C92.0391 23.5625 92.7422 23.6641 93.4531 23.7344C94.1719 23.7969 94.8438 23.8281 95.4688 23.8281C96.1133 23.8281 96.7734 23.7734 97.4531 23.6563C98.1289 23.543 98.75 23.3516 99.3125 23.0781C99.875 22.7969 100.332 22.4063 100.688 21.9063C101.051 21.4063 101.234 20.7813 101.234 20.0312C101.234 19.3867 101.109 18.875 100.859 18.5C100.617 18.1172 100.25 17.8125 99.75 17.5938C99.25 17.3672 98.6289 17.2031 97.8906 17.1094C97.1602 17.0078 96.3047 16.9141 95.3281 16.8281C94.5977 16.7578 93.8281 16.6367 93.0156 16.4688C92.2031 16.3047 91.457 16.0391 90.7812 15.6719C90.1016 15.3086 89.5469 14.8281 89.1094 14.2344C88.6797 13.6328 88.4688 12.8594 88.4688 11.9219C88.4688 10.7656 88.7539 9.82813 89.3281 9.10938C89.9102 8.39063 90.6328 7.82813 91.5 7.42188C92.3633 7.00781 93.3047 6.71875 94.3281 6.5625C95.3477 6.40625 96.3164 6.32812 97.2344 6.32812C98.2109 6.32812 99.2578 6.44922 100.375 6.6875C101.5 6.91797 102.516 7.21875 103.422 7.59375L103.156 8.48438C102.312 8.08984 101.336 7.77344 100.234 7.53125C99.1406 7.28125 97.9453 7.15625 96.6562 7.15625C96.0195 7.15625 95.4062 7.21875 94.8125 7.34375C94.2266 7.46875 93.7109 7.68359 93.2656 7.98438C92.8164 8.27734 92.457 8.66797 92.1875 9.15625C91.9258 9.64844 91.7969 10.2461 91.7969 10.9531C91.7969 11.5391 91.9609 12.0156 92.2969 12.3906C92.6289 12.7656 93.0703 13.0703 93.625 13.2969C94.1875 13.5156 94.8281 13.6836 95.5469 13.7969C96.2656 13.9023 97.0039 13.9805 97.7656 14.0313C100.117 14.1875 101.836 14.6172 102.922 15.3125C104.016 16.0117 104.562 17.1562 104.562 18.75ZM115.957 8.48438H112.832V21.5156C112.832 21.9219 112.949 22.3281 113.191 22.7344C113.441 23.1328 113.793 23.3281 114.254 23.3281H115.863L115.66 24.1563H110.895C110.34 24.1563 109.949 23.9023 109.723 23.3906C109.504 22.8828 109.395 22.3516 109.395 21.7969V8.48438H106.926L107.223 7.65625H109.395V2.89062H112.832V7.65625H116.191L115.957 8.48438ZM132.387 24.1563V14.2656H129.762C128.875 14.2656 127.988 14.3359 127.105 14.4688C126.23 14.5938 125.449 14.8516 124.762 15.2344C124.074 15.6094 123.516 16.1367 123.09 16.8125C122.672 17.4922 122.465 18.3711 122.465 19.4531C122.465 20.6836 122.793 21.6367 123.449 22.3125C124.105 22.9922 125.152 23.3281 126.59 23.3281H130.621L131.059 24.1563H125.621C124.754 24.1563 123.906 24.0703 123.074 23.8906C122.238 23.7148 121.488 23.4297 120.824 23.0313C120.156 22.625 119.613 22.0898 119.199 21.4219C118.793 20.7578 118.59 19.9219 118.59 18.9219C118.59 18.1016 118.781 17.3906 119.168 16.7969C119.562 16.1953 120.082 15.6953 120.73 15.2969C121.375 14.8906 122.098 14.5703 122.902 14.3281C123.715 14.0781 124.531 13.8906 125.355 13.7656C126.176 13.6328 126.984 13.543 127.777 13.5C128.566 13.4492 129.25 13.4219 129.824 13.4219H132.387V12.4219C132.387 10.8281 131.996 9.54687 131.215 8.57812C130.441 7.60937 129.215 7.125 127.527 7.125C125.922 7.125 124.48 7.27734 123.199 7.57812C121.926 7.88281 120.77 8.32031 119.73 8.89062L119.496 7.98437C120.809 7.29687 122.184 6.85156 123.621 6.64062C125.066 6.43359 126.535 6.32812 128.027 6.32812C128.984 6.32812 129.926 6.42187 130.855 6.60937C131.793 6.79687 132.625 7.10937 133.355 7.54687C134.094 7.97656 134.688 8.54687 135.137 9.26562C135.594 9.97656 135.824 10.8516 135.824 11.8906V24.1563H132.387ZM160.355 23.5938C160.238 23.793 160.121 23.9648 159.996 24.1094C159.879 24.2539 159.746 24.3281 159.59 24.3281C159.34 24.3281 159.141 24.1367 158.996 23.75L153.59 11.7188C153.527 11.543 153.426 11.4531 153.293 11.4531C153.156 11.4531 153.059 11.543 152.996 11.7188L148.09 23.75C147.91 24.1758 147.668 24.3906 147.355 24.3906C147.043 24.3906 146.785 24.1758 146.59 23.75L138.387 6.82812H142.418L148.293 18.8906C148.375 19.0703 148.484 19.1562 148.621 19.1562C148.777 19.1562 148.902 19.0703 148.996 18.8906L153.824 7.35938C153.906 7.16406 154.02 7.01562 154.168 6.92188C154.313 6.82031 154.465 6.76562 154.621 6.76562C154.973 6.76562 155.25 6.96484 155.449 7.35938L160.762 18.8906C160.844 19.0703 160.953 19.1562 161.09 19.1562C161.246 19.1562 161.363 19.0703 161.449 18.8906L167.152 6.82812H168.215L160.355 23.5938ZM198.742 23.0156C198.742 23.5781 198.668 23.9688 198.523 24.1875C198.387 24.4063 198.203 24.5156 197.977 24.5156C197.734 24.5156 197.465 24.4141 197.164 24.2188C196.859 24.0234 196.59 23.8047 196.352 23.5625L183.711 11.6875C183.43 11.4297 183.199 11.2969 183.023 11.2969C182.887 11.2969 182.781 11.3555 182.711 11.4688C182.648 11.5742 182.617 11.6953 182.617 11.8281V24.1563H181.789V7.625C181.789 7.23047 181.883 6.9375 182.07 6.75C182.258 6.55469 182.484 6.45312 182.758 6.45312C183.059 6.45312 183.375 6.60156 183.711 6.89062L196.852 19.0938C197.027 19.2734 197.172 19.3906 197.289 19.4531C197.414 19.5078 197.512 19.5312 197.586 19.5312C197.719 19.5312 197.809 19.4766 197.852 19.3594C197.891 19.2461 197.914 19.1367 197.914 19.0312V6.82812H198.742V23.0156ZM221.949 15.4844C221.949 16.8203 221.699 18.0469 221.199 19.1719C220.699 20.2969 220.004 21.2656 219.121 22.0781C218.246 22.8906 217.203 23.5273 215.996 23.9844C214.785 24.4297 213.469 24.6563 212.043 24.6563C210.625 24.6563 209.312 24.4297 208.105 23.9844C206.906 23.5273 205.871 22.8906 204.996 22.0781C204.121 21.2656 203.434 20.2969 202.934 19.1719C202.434 18.0469 202.184 16.8203 202.184 15.4844C202.184 14.1523 202.434 12.9297 202.934 11.8125C203.434 10.6875 204.121 9.71875 204.996 8.90625C205.871 8.09375 206.906 7.46484 208.105 7.01562C209.312 6.55859 210.625 6.32812 212.043 6.32812C213.469 6.32812 214.785 6.55859 215.996 7.01562C217.203 7.46484 218.246 8.09375 219.121 8.90625C220.004 9.71875 220.699 10.6875 221.199 11.8125C221.699 12.9297 221.949 14.1523 221.949 15.4844ZM218.074 15.4844C218.074 14.5156 217.996 13.5273 217.84 12.5156C217.684 11.4961 217.379 10.5781 216.934 9.76563C216.496 8.94531 215.879 8.27344 215.09 7.75C214.309 7.21875 213.293 6.95312 212.043 6.95312C210.801 6.95312 209.793 7.21875 209.012 7.75C208.238 8.27344 207.629 8.94531 207.184 9.76563C206.734 10.5781 206.434 11.4961 206.277 12.5156C206.121 13.5273 206.043 14.5156 206.043 15.4844C206.043 16.4648 206.121 17.4609 206.277 18.4688C206.434 19.4805 206.734 20.3984 207.184 21.2188C207.629 22.043 208.238 22.7148 209.012 23.2344C209.793 23.7578 210.801 24.0156 212.043 24.0156C213.293 24.0156 214.309 23.7578 215.09 23.2344C215.879 22.7148 216.496 22.043 216.934 21.2188C217.379 20.3984 217.684 19.4805 217.84 18.4688C217.996 17.4609 218.074 16.4648 218.074 15.4844ZM240.977 18.75C240.977 19.9609 240.668 20.9453 240.055 21.7031C239.449 22.4531 238.68 23.0547 237.742 23.5C236.812 23.9375 235.805 24.2383 234.711 24.4063C233.617 24.5703 232.605 24.6563 231.68 24.6563C230.344 24.6563 229.016 24.5469 227.695 24.3281C226.371 24.1211 225.078 23.7891 223.82 23.3281L224.039 22.3906C224.559 22.6094 225.133 22.8086 225.758 22.9844C226.391 23.1641 227.059 23.3125 227.758 23.4375C228.453 23.5625 229.156 23.6641 229.867 23.7344C230.586 23.7969 231.258 23.8281 231.883 23.8281C232.527 23.8281 233.187 23.7734 233.867 23.6563C234.543 23.543 235.164 23.3516 235.727 23.0781C236.289 22.7969 236.746 22.4063 237.102 21.9063C237.465 21.4063 237.648 20.7813 237.648 20.0312C237.648 19.3867 237.523 18.875 237.273 18.5C237.031 18.1172 236.664 17.8125 236.164 17.5938C235.664 17.3672 235.043 17.2031 234.305 17.1094C233.574 17.0078 232.719 16.9141 231.742 16.8281C231.012 16.7578 230.242 16.6367 229.43 16.4688C228.617 16.3047 227.871 16.0391 227.195 15.6719C226.516 15.3086 225.961 14.8281 225.523 14.2344C225.094 13.6328 224.883 12.8594 224.883 11.9219C224.883 10.7656 225.168 9.82813 225.742 9.10938C226.324 8.39063 227.047 7.82813 227.914 7.42188C228.777 7.00781 229.719 6.71875 230.742 6.5625C231.762 6.40625 232.73 6.32812 233.648 6.32812C234.625 6.32812 235.672 6.44922 236.789 6.6875C237.914 6.91797 238.93 7.21875 239.836 7.59375L239.57 8.48438C238.727 8.08984 237.75 7.77344 236.648 7.53125C235.555 7.28125 234.359 7.15625 233.07 7.15625C232.434 7.15625 231.82 7.21875 231.227 7.34375C230.641 7.46875 230.125 7.68359 229.68 7.98438C229.23 8.27734 228.871 8.66797 228.602 9.15625C228.34 9.64844 228.211 10.2461 228.211 10.9531C228.211 11.5391 228.375 12.0156 228.711 12.3906C229.043 12.7656 229.484 13.0703 230.039 13.2969C230.602 13.5156 231.242 13.6836 231.961 13.7969C232.68 13.9023 233.418 13.9805 234.18 14.0313C236.531 14.1875 238.25 14.6172 239.336 15.3125C240.43 16.0117 240.977 17.1562 240.977 18.75ZM259.402 7.26563C259.402 7.44531 259.301 7.6875 259.105 8C258.906 8.30469 258.605 8.72656 258.199 9.26563L248.246 22.2969C247.996 22.6016 247.871 22.8281 247.871 22.9844C247.871 23.1641 247.953 23.2656 248.121 23.2969C248.285 23.3203 248.457 23.3281 248.637 23.3281H258.934V24.1563H244.668C244.293 24.1563 243.969 24.1367 243.699 24.0938C243.437 24.043 243.309 23.8984 243.309 23.6563C243.309 23.4805 243.394 23.2305 243.574 22.9063C243.75 22.5859 244.051 22.1563 244.48 21.625L254.371 8.89063C254.504 8.71484 254.629 8.54297 254.746 8.375C254.871 8.21094 254.934 8.05859 254.934 7.92188C254.934 7.74609 254.746 7.65625 254.371 7.65625H244.871V6.82812H257.934C258.402 6.82812 258.762 6.85156 259.012 6.89062C259.27 6.9336 259.402 7.05859 259.402 7.26563ZM264.375 24.1563C263.82 24.1563 263.43 23.9023 263.203 23.3906C262.984 22.8828 262.875 22.3516 262.875 21.7969V8.98438C262.875 8.47656 262.992 7.99219 263.234 7.53125C263.484 7.0625 263.863 6.82812 264.375 6.82812H278.469V7.65625H267.734C267.316 7.65625 266.973 7.82031 266.703 8.14063C266.441 8.46484 266.312 8.83984 266.312 9.26563V14.3594H277.141V15.1875H266.312V21.5156C266.312 21.9219 266.43 22.3281 266.672 22.7344C266.91 23.1328 267.266 23.3281 267.734 23.3281H279.531V24.1563H264.375ZM308.996 18.75C308.996 19.9609 308.688 20.9453 308.074 21.7031C307.469 22.4531 306.699 23.0547 305.762 23.5C304.832 23.9375 303.824 24.2383 302.73 24.4063C301.637 24.5703 300.625 24.6563 299.699 24.6563C298.363 24.6563 297.035 24.5469 295.715 24.3281C294.391 24.1211 293.098 23.7891 291.84 23.3281L292.059 22.3906C292.578 22.6094 293.152 22.8086 293.777 22.9844C294.41 23.1641 295.078 23.3125 295.777 23.4375C296.473 23.5625 297.176 23.6641 297.887 23.7344C298.605 23.7969 299.277 23.8281 299.902 23.8281C300.547 23.8281 301.207 23.7734 301.887 23.6563C302.562 23.543 303.184 23.3516 303.746 23.0781C304.309 22.7969 304.766 22.4063 305.121 21.9063C305.484 21.4063 305.668 20.7813 305.668 20.0312C305.668 19.3867 305.543 18.875 305.293 18.5C305.051 18.1172 304.684 17.8125 304.184 17.5938C303.684 17.3672 303.062 17.2031 302.324 17.1094C301.594 17.0078 300.738 16.9141 299.762 16.8281C299.031 16.7578 298.262 16.6367 297.449 16.4688C296.637 16.3047 295.891 16.0391 295.215 15.6719C294.535 15.3086 293.98 14.8281 293.543 14.2344C293.113 13.6328 292.902 12.8594 292.902 11.9219C292.902 10.7656 293.187 9.82813 293.762 9.10938C294.344 8.39063 295.066 7.82813 295.934 7.42188C296.797 7.00781 297.738 6.71875 298.762 6.5625C299.781 6.40625 300.75 6.32812 301.668 6.32812C302.645 6.32812 303.691 6.44922 304.809 6.6875C305.934 6.91797 306.949 7.21875 307.855 7.59375L307.59 8.48438C306.746 8.08984 305.77 7.77344 304.668 7.53125C303.574 7.28125 302.379 7.15625 301.09 7.15625C300.453 7.15625 299.84 7.21875 299.246 7.34375C298.66 7.46875 298.145 7.68359 297.699 7.98438C297.25 8.27734 296.891 8.66797 296.621 9.15625C296.359 9.64844 296.23 10.2461 296.23 10.9531C296.23 11.5391 296.395 12.0156 296.73 12.3906C297.062 12.7656 297.504 13.0703 298.059 13.2969C298.621 13.5156 299.262 13.6836 299.98 13.7969C300.699 13.9023 301.437 13.9805 302.199 14.0313C304.551 14.1875 306.27 14.6172 307.355 15.3125C308.449 16.0117 308.996 17.1562 308.996 18.75ZM327.426 7.26563C327.426 7.44531 327.324 7.6875 327.129 8C326.93 8.30469 326.629 8.72656 326.223 9.26563L316.27 22.2969C316.02 22.6016 315.895 22.8281 315.895 22.9844C315.895 23.1641 315.977 23.2656 316.145 23.2969C316.309 23.3203 316.48 23.3281 316.66 23.3281H326.957V24.1563H312.691C312.316 24.1563 311.992 24.1367 311.723 24.0938C311.461 24.043 311.332 23.8984 311.332 23.6563C311.332 23.4805 311.418 23.2305 311.598 22.9063C311.773 22.5859 312.074 22.1563 312.504 21.625L322.395 8.89063C322.527 8.71484 322.652 8.54297 322.77 8.375C322.895 8.21094 322.957 8.05859 322.957 7.92188C322.957 7.74609 322.77 7.65625 322.395 7.65625H312.895V6.82812H325.957C326.426 6.82812 326.785 6.85156 327.035 6.89062C327.293 6.9336 327.426 7.05859 327.426 7.26563ZM338.492 8.48438H335.367V21.5156C335.367 21.9219 335.484 22.3281 335.727 22.7344C335.977 23.1328 336.328 23.3281 336.789 23.3281H338.398L338.195 24.1563H333.43C332.875 24.1563 332.484 23.9023 332.258 23.3906C332.039 22.8828 331.93 22.3516 331.93 21.7969V8.48438H329.461L329.758 7.65625H331.93V2.89062H335.367V7.65625H338.727L338.492 8.48438ZM355.918 24.1563V6.82812H359.355V24.1563H355.918ZM348.887 24.1563C347.762 24.1563 346.75 24.043 345.855 23.8125C344.969 23.5742 344.223 23.1797 343.621 22.625C343.027 22.0742 342.574 21.3398 342.262 20.4219C341.949 19.4961 341.793 18.3398 341.793 16.9531V6.82812H345.23V16.9844C345.23 17.7891 345.316 18.5703 345.496 19.3281C345.672 20.0781 345.953 20.75 346.34 21.3438C346.734 21.9297 347.238 22.4063 347.855 22.7813C348.48 23.1484 349.234 23.3281 350.121 23.3281H354.121L354.59 24.1563H348.887ZM377.121 24.1563L373.949 18.8906C373.77 18.6016 373.547 18.2188 373.277 17.75C373.016 17.2734 372.719 16.8047 372.387 16.3438C372.051 15.8867 371.676 15.4922 371.262 15.1563C370.855 14.8242 370.426 14.6563 369.98 14.6563C369.719 14.6563 369.48 14.7422 369.262 14.9063C369.051 15.0742 368.816 15.3125 368.559 15.625V14.3906L377.824 6.82812H379.152L370.559 13.7969V13.8594C370.715 13.8398 370.855 13.8281 370.98 13.8281C371.113 13.8281 371.25 13.8281 371.387 13.8281C372.387 13.8281 373.219 13.9766 373.887 14.2656C374.551 14.5469 375.141 14.9375 375.652 15.4375C376.16 15.9375 376.625 16.5117 377.043 17.1562C377.469 17.8047 377.926 18.4922 378.418 19.2188L381.684 24.1563H377.121ZM363.793 24.1563V0H367.215V24.1563H363.793ZM386.555 24.1563C386 24.1563 385.609 23.9023 385.383 23.3906C385.164 22.8828 385.055 22.3516 385.055 21.7969V8.98438C385.055 8.47656 385.172 7.99219 385.414 7.53125C385.664 7.0625 386.043 6.82812 386.555 6.82812H400.648V7.65625H389.914C389.496 7.65625 389.152 7.82031 388.883 8.14063C388.621 8.46484 388.492 8.83984 388.492 9.26563V14.3594H399.32V15.1875H388.492V21.5156C388.492 21.9219 388.609 22.3281 388.852 22.7344C389.09 23.1328 389.445 23.3281 389.914 23.3281H401.711V24.1563H386.555Z" fill="#665F20"/>
<path d="M19.7188 48.6875C19.7188 51.918 18.9531 54.25 17.4219 55.6875C15.8906 57.1172 13.5156 57.8281 10.2969 57.8281C9.02344 57.8281 7.76953 57.7383 6.53125 57.5625C5.30078 57.3828 4.20313 57.0391 3.23438 56.5156C2.27344 55.9844 1.49219 55.2578 0.890625 54.3281C0.296875 53.3906 0 52.168 0 50.6562V35.8281H3.85938V50.625C3.85938 51.668 4.03516 52.5859 4.39062 53.375C4.74219 54.168 5.23828 54.8281 5.875 55.3594C6.50781 55.8906 7.25781 56.2969 8.125 56.5781C8.98828 56.8516 9.92969 56.9844 10.9531 56.9844C13.7344 56.9844 15.75 56.3281 17 55.0156C18.2578 53.6953 18.8906 51.5938 18.8906 48.7188V35.8281H19.7188V48.6875ZM46.7109 54.8594C46.1367 55.3711 45.4648 55.8125 44.6953 56.1875C43.9336 56.5625 43.1172 56.875 42.2422 57.125C41.375 57.3633 40.4688 57.5391 39.5234 57.6562C38.5859 57.7695 37.6523 57.8281 36.7266 57.8281C35.1641 57.8281 33.6328 57.5938 32.1328 57.125C30.6328 56.6562 29.2891 55.9609 28.1016 55.0312C26.9141 54.0938 25.9492 52.918 25.2109 51.5C24.4805 50.0742 24.1172 48.4023 24.1172 46.4844C24.1172 44.7773 24.4648 43.2266 25.1641 41.8281C25.8711 40.4219 26.8203 39.2305 28.0078 38.25C29.1953 37.2617 30.5625 36.5 32.1172 35.9688C33.6797 35.4297 35.3242 35.1562 37.0547 35.1562C39.0742 35.1562 40.7773 35.3516 42.1641 35.7344C43.5586 36.1094 44.6406 36.5156 45.4141 36.9531L45.1172 37.7656C44.3359 37.2578 43.3242 36.8359 42.0859 36.5C40.8438 36.168 39.3438 36 37.5859 36C36.0313 36 34.6875 36.3203 33.5547 36.9531C32.418 37.5781 31.4805 38.4062 30.7422 39.4375C30.0117 40.4688 29.4688 41.6484 29.1172 42.9688C28.7617 44.293 28.5859 45.6484 28.5859 47.0312C28.5859 48.3672 28.7813 49.6328 29.1797 50.8281C29.5859 52.0273 30.1484 53.0898 30.8672 54.0156C31.5938 54.9336 32.4609 55.6562 33.4609 56.1875C34.4609 56.7188 35.5469 56.9844 36.7266 56.9844C39.0078 56.9844 40.5938 56.5703 41.4922 55.7344C42.3984 54.9023 42.8516 53.6211 42.8516 51.8906V46.3281H46.7109V54.8594ZM73.3477 54.7969C71.9492 55.9219 70.3711 56.7109 68.6133 57.1562C66.8633 57.6016 65.0859 57.8281 63.2852 57.8281C61.6602 57.8281 60.0859 57.5938 58.5664 57.125C57.043 56.6562 55.6992 55.9609 54.5352 55.0312C53.3672 54.0938 52.4336 52.918 51.7383 51.5C51.0391 50.0742 50.6914 48.4023 50.6914 46.4844C50.6914 44.7773 51.0391 43.2266 51.7383 41.8281C52.4336 40.4219 53.3672 39.2305 54.5352 38.25C55.6992 37.2617 57.043 36.5 58.5664 35.9688C60.0859 35.4297 61.6602 35.1562 63.2852 35.1562C64.0664 35.1562 64.8672 35.2109 65.6914 35.3125C66.5234 35.4062 67.3555 35.5625 68.1914 35.7812C69.0234 35.9922 69.8359 36.25 70.6289 36.5625C71.418 36.875 72.1602 37.25 72.8477 37.6875L72.5508 38.6562C71.2773 37.8125 69.8164 37.1641 68.1602 36.7031C66.5039 36.2344 64.8789 36 63.2852 36C61.7734 36 60.4922 36.3203 59.4414 36.9531C58.3984 37.5781 57.5586 38.3906 56.9258 39.3906C56.3008 40.3906 55.8477 41.5156 55.5664 42.7656C55.2852 44.0078 55.1445 45.2461 55.1445 46.4844C55.1445 47.7344 55.3047 48.9844 55.6289 50.2344C55.9492 51.4766 56.4766 52.5938 57.207 53.5938C57.9453 54.5938 58.918 55.4141 60.1289 56.0469C61.3477 56.6719 62.8398 56.9844 64.6133 56.9844C65.1445 56.9844 65.7695 56.9219 66.4883 56.7969C67.2148 56.6641 67.9648 56.4688 68.7383 56.2188C69.5195 55.9609 70.2852 55.6367 71.0352 55.25C71.793 54.8555 72.4766 54.4141 73.082 53.9219L73.3477 54.7969ZM93.3789 36.6562C92.9297 36.6562 92.6016 36.8711 92.3945 37.2969C92.1836 37.7148 92.082 38.1484 92.082 38.5938V45.4844H102.238V46.3281H92.082V57.1562H88.207V38.3281C88.207 38.0586 88.2305 37.7773 88.2852 37.4844C88.3477 37.1836 88.4336 36.9141 88.5508 36.6719C88.6758 36.4219 88.8359 36.2188 89.0352 36.0625C89.2422 35.9062 89.4922 35.8281 89.7852 35.8281H105.645V36.6562H93.3789ZM122.332 57.1562V47.2656H119.707C118.82 47.2656 117.934 47.3359 117.051 47.4688C116.176 47.5938 115.395 47.8516 114.707 48.2344C114.02 48.6094 113.461 49.1367 113.035 49.8125C112.617 50.4922 112.41 51.3711 112.41 52.4531C112.41 53.6836 112.738 54.6367 113.395 55.3125C114.051 55.9922 115.098 56.3281 116.535 56.3281H120.566L121.004 57.1562H115.566C114.699 57.1562 113.852 57.0703 113.02 56.8906C112.184 56.7148 111.434 56.4297 110.77 56.0312C110.102 55.625 109.559 55.0898 109.145 54.4219C108.738 53.7578 108.535 52.9219 108.535 51.9219C108.535 51.1016 108.727 50.3906 109.113 49.7969C109.508 49.1953 110.027 48.6953 110.676 48.2969C111.32 47.8906 112.043 47.5703 112.848 47.3281C113.66 47.0781 114.477 46.8906 115.301 46.7656C116.121 46.6328 116.93 46.543 117.723 46.5C118.512 46.4492 119.195 46.4219 119.77 46.4219H122.332V45.4219C122.332 43.8281 121.941 42.5469 121.16 41.5781C120.387 40.6094 119.16 40.125 117.473 40.125C115.867 40.125 114.426 40.2773 113.145 40.5781C111.871 40.8828 110.715 41.3203 109.676 41.8906L109.441 40.9844C110.754 40.2969 112.129 39.8516 113.566 39.6406C115.012 39.4336 116.48 39.3281 117.973 39.3281C118.93 39.3281 119.871 39.4219 120.801 39.6094C121.738 39.7969 122.57 40.1094 123.301 40.5469C124.039 40.9766 124.633 41.5469 125.082 42.2656C125.539 42.9766 125.77 43.8516 125.77 44.8906V57.1562H122.332ZM145.801 51.75C145.801 52.9609 145.492 53.9453 144.879 54.7031C144.273 55.4531 143.504 56.0547 142.566 56.5C141.637 56.9375 140.629 57.2383 139.535 57.4062C138.441 57.5703 137.43 57.6562 136.504 57.6562C135.168 57.6562 133.84 57.5469 132.52 57.3281C131.195 57.1211 129.902 56.7891 128.645 56.3281L128.863 55.3906C129.383 55.6094 129.957 55.8086 130.582 55.9844C131.215 56.1641 131.883 56.3125 132.582 56.4375C133.277 56.5625 133.98 56.6641 134.691 56.7344C135.41 56.7969 136.082 56.8281 136.707 56.8281C137.352 56.8281 138.012 56.7734 138.691 56.6562C139.367 56.543 139.988 56.3516 140.551 56.0781C141.113 55.7969 141.57 55.4062 141.926 54.9062C142.289 54.4062 142.473 53.7812 142.473 53.0312C142.473 52.3867 142.348 51.875 142.098 51.5C141.855 51.1172 141.488 50.8125 140.988 50.5938C140.488 50.3672 139.867 50.2031 139.129 50.1094C138.398 50.0078 137.543 49.9141 136.566 49.8281C135.836 49.7578 135.066 49.6367 134.254 49.4688C133.441 49.3047 132.695 49.0391 132.02 48.6719C131.34 48.3086 130.785 47.8281 130.348 47.2344C129.918 46.6328 129.707 45.8594 129.707 44.9219C129.707 43.7656 129.992 42.8281 130.566 42.1094C131.148 41.3906 131.871 40.8281 132.738 40.4219C133.602 40.0078 134.543 39.7188 135.566 39.5625C136.586 39.4062 137.555 39.3281 138.473 39.3281C139.449 39.3281 140.496 39.4492 141.613 39.6875C142.738 39.918 143.754 40.2188 144.66 40.5938L144.395 41.4844C143.551 41.0898 142.574 40.7734 141.473 40.5312C140.379 40.2812 139.184 40.1562 137.895 40.1562C137.258 40.1562 136.645 40.2188 136.051 40.3438C135.465 40.4688 134.949 40.6836 134.504 40.9844C134.055 41.2773 133.695 41.668 133.426 42.1562C133.164 42.6484 133.035 43.2461 133.035 43.9531C133.035 44.5391 133.199 45.0156 133.535 45.3906C133.867 45.7656 134.309 46.0703 134.863 46.2969C135.426 46.5156 136.066 46.6836 136.785 46.7969C137.504 46.9023 138.242 46.9805 139.004 47.0312C141.355 47.1875 143.074 47.6172 144.16 48.3125C145.254 49.0117 145.801 50.1562 145.801 51.75ZM163.199 57.1562V46.0312C163.199 45.1875 163.109 44.4141 162.934 43.7031C162.754 42.9844 162.473 42.3672 162.09 41.8438C161.715 41.3242 161.23 40.9141 160.637 40.6094C160.051 40.3086 159.34 40.1562 158.496 40.1562C157.41 40.1562 156.406 40.3242 155.48 40.6562C154.562 40.9922 153.75 41.4023 153.043 41.8906V57.1562H149.605V33H153.043V41.0312C153.656 40.5859 154.465 40.1875 155.465 39.8438C156.465 39.5 157.816 39.3281 159.527 39.3281C160.441 39.3281 161.328 39.4609 162.184 39.7188C163.035 39.9688 163.793 40.3828 164.449 40.9531C165.105 41.5156 165.629 42.2578 166.027 43.1719C166.434 44.0781 166.637 45.1992 166.637 46.5312V57.1562H163.199ZM175.492 35.5625C175.492 36.0938 175.305 36.5586 174.93 36.9531C174.555 37.3398 174.074 37.5312 173.492 37.5312C172.961 37.5312 172.5 37.3398 172.117 36.9531C171.73 36.5586 171.539 36.0938 171.539 35.5625C171.539 35.0312 171.73 34.5703 172.117 34.1719C172.5 33.7656 172.961 33.5625 173.492 33.5625C174.074 33.5625 174.555 33.7656 174.93 34.1719C175.305 34.5703 175.492 35.0312 175.492 35.5625ZM171.805 57.1562V39.8281H175.227V57.1562H171.805ZM199.133 48.4844C199.133 49.8203 198.883 51.0469 198.383 52.1719C197.883 53.2969 197.187 54.2656 196.305 55.0781C195.43 55.8906 194.387 56.5273 193.18 56.9844C191.969 57.4297 190.652 57.6562 189.227 57.6562C187.809 57.6562 186.496 57.4297 185.289 56.9844C184.09 56.5273 183.055 55.8906 182.18 55.0781C181.305 54.2656 180.617 53.2969 180.117 52.1719C179.617 51.0469 179.367 49.8203 179.367 48.4844C179.367 47.1523 179.617 45.9297 180.117 44.8125C180.617 43.6875 181.305 42.7188 182.18 41.9062C183.055 41.0938 184.09 40.4648 185.289 40.0156C186.496 39.5586 187.809 39.3281 189.227 39.3281C190.652 39.3281 191.969 39.5586 193.18 40.0156C194.387 40.4648 195.43 41.0938 196.305 41.9062C197.187 42.7188 197.883 43.6875 198.383 44.8125C198.883 45.9297 199.133 47.1523 199.133 48.4844ZM195.258 48.4844C195.258 47.5156 195.18 46.5273 195.023 45.5156C194.867 44.4961 194.562 43.5781 194.117 42.7656C193.68 41.9453 193.062 41.2734 192.273 40.75C191.492 40.2188 190.477 39.9531 189.227 39.9531C187.984 39.9531 186.977 40.2188 186.195 40.75C185.422 41.2734 184.812 41.9453 184.367 42.7656C183.918 43.5781 183.617 44.4961 183.461 45.5156C183.305 46.5273 183.227 47.5156 183.227 48.4844C183.227 49.4648 183.305 50.4609 183.461 51.4688C183.617 52.4805 183.918 53.3984 184.367 54.2188C184.812 55.043 185.422 55.7148 186.195 56.2344C186.977 56.7578 187.984 57.0156 189.227 57.0156C190.477 57.0156 191.492 56.7578 192.273 56.2344C193.062 55.7148 193.68 55.043 194.117 54.2188C194.562 53.3984 194.867 52.4805 195.023 51.4688C195.18 50.4609 195.258 49.4648 195.258 48.4844ZM219.75 56.0156C219.75 56.5781 219.676 56.9687 219.531 57.1875C219.395 57.4063 219.211 57.5156 218.984 57.5156C218.742 57.5156 218.473 57.4141 218.172 57.2188C217.867 57.0234 217.598 56.8047 217.359 56.5625L204.719 44.6875C204.438 44.4297 204.207 44.2969 204.031 44.2969C203.895 44.2969 203.789 44.3555 203.719 44.4688C203.656 44.5742 203.625 44.6953 203.625 44.8281V57.1562H202.797V40.625C202.797 40.2305 202.891 39.9375 203.078 39.75C203.266 39.5547 203.492 39.4531 203.766 39.4531C204.066 39.4531 204.383 39.6016 204.719 39.8906L217.859 52.0938C218.035 52.2734 218.18 52.3906 218.297 52.4531C218.422 52.5078 218.52 52.5312 218.594 52.5312C218.727 52.5312 218.816 52.4766 218.859 52.3594C218.899 52.2461 218.922 52.1367 218.922 52.0312V39.8281H219.75L219.75 56.0156ZM234.051 57.8281H232.02L240.723 35.1562H242.754L234.051 57.8281ZM262.883 41.4844H259.758V54.5156C259.758 54.9219 259.875 55.3281 260.117 55.7344C260.367 56.1328 260.719 56.3281 261.18 56.3281H262.789L262.586 57.1562H257.82C257.266 57.1562 256.875 56.9023 256.648 56.3906C256.43 55.8828 256.32 55.3516 256.32 54.7969V41.4844H253.852L254.148 40.6562H256.32V35.8906H259.758V40.6562H263.117L262.883 41.4844ZM280.012 57.1562C279.926 56.8438 279.801 56.4375 279.637 55.9375C279.469 55.4375 279.277 54.9141 279.059 54.3594C278.848 53.8086 278.637 53.2578 278.418 52.7031C278.199 52.1406 277.984 51.6484 277.777 51.2188C277.516 50.6484 277.23 50.1797 276.918 49.8125C276.605 49.4375 276.23 49.1367 275.793 48.9062C275.363 48.6797 274.859 48.5234 274.277 48.4375C273.703 48.3438 273.016 48.2969 272.215 48.2969H271.152L271.684 47.4844H274.355C274.988 47.4844 275.594 47.4297 276.168 47.3125C276.75 47.1875 277.262 46.9844 277.699 46.7031C278.137 46.4141 278.484 46.0391 278.746 45.5781C279.016 45.1211 279.152 44.5469 279.152 43.8594C279.152 43.3281 279.016 42.8672 278.746 42.4688C278.484 42.0625 278.121 41.7305 277.652 41.4688C277.184 41.1992 276.637 40.9961 276.012 40.8594C275.395 40.7266 274.719 40.6562 273.98 40.6562H271.246C270.828 40.6562 270.484 40.8203 270.215 41.1406C269.953 41.4648 269.824 41.8398 269.824 42.2656V57.1562H266.387V41.9844C266.387 41.4766 266.504 40.9922 266.746 40.5312C266.996 40.0625 267.375 39.8281 267.887 39.8281H273.152C276.371 39.8281 278.762 40.1523 280.324 40.7969C281.895 41.4453 282.684 42.5312 282.684 44.0625C282.684 44.75 282.52 45.3438 282.199 45.8438C281.875 46.3438 281.434 46.7656 280.871 47.1094C280.316 47.4531 279.66 47.7188 278.902 47.9062C278.152 48.0938 277.344 48.2109 276.48 48.25V48.2969C277.281 48.4766 277.984 48.6719 278.59 48.8906C279.203 49.1094 279.746 49.4062 280.215 49.7812C280.684 50.1484 281.098 50.6016 281.465 51.1406C281.828 51.6836 282.176 52.3555 282.512 53.1562L284.152 57.1562H280.012ZM295.383 56.8594C295.133 57.3281 294.855 57.8281 294.555 58.3594C294.262 58.8906 293.949 59.4062 293.617 59.9062C293.281 60.4062 292.922 60.875 292.539 61.3125C292.164 61.7578 291.766 62.1406 291.352 62.4531C290.172 63.3164 288.617 63.75 286.68 63.75H286.211L286.508 62.8906C287.152 62.8906 287.719 62.8477 288.211 62.7656C288.699 62.6914 289.168 62.5664 289.617 62.3906C290.168 62.1719 290.672 61.8516 291.133 61.4375C291.59 61.0312 292.008 60.582 292.383 60.0938C292.758 59.6016 293.078 59.1094 293.352 58.6094C293.633 58.1094 293.859 57.6563 294.039 57.25L285.242 39.8281H289.148L296.086 53.5625L303.18 39.8281H304.18L295.383 56.8594ZM336.309 48.4844C336.309 49.8203 336.059 51.0469 335.559 52.1719C335.059 53.2969 334.363 54.2656 333.48 55.0781C332.605 55.8906 331.563 56.5273 330.355 56.9844C329.145 57.4297 327.828 57.6562 326.402 57.6562C324.984 57.6562 323.672 57.4297 322.465 56.9844C321.266 56.5273 320.23 55.8906 319.355 55.0781C318.48 54.2656 317.793 53.2969 317.293 52.1719C316.793 51.0469 316.543 49.8203 316.543 48.4844C316.543 47.1523 316.793 45.9297 317.293 44.8125C317.793 43.6875 318.48 42.7188 319.355 41.9062C320.23 41.0938 321.266 40.4648 322.465 40.0156C323.672 39.5586 324.984 39.3281 326.402 39.3281C327.828 39.3281 329.145 39.5586 330.355 40.0156C331.563 40.4648 332.605 41.0938 333.48 41.9062C334.363 42.7188 335.059 43.6875 335.559 44.8125C336.059 45.9297 336.309 47.1523 336.309 48.4844ZM332.434 48.4844C332.434 47.5156 332.356 46.5273 332.199 45.5156C332.043 44.4961 331.738 43.5781 331.293 42.7656C330.855 41.9453 330.238 41.2734 329.449 40.75C328.668 40.2188 327.652 39.9531 326.402 39.9531C325.16 39.9531 324.152 40.2188 323.371 40.75C322.598 41.2734 321.988 41.9453 321.543 42.7656C321.094 43.5781 320.793 44.4961 320.637 45.5156C320.48 46.5273 320.402 47.5156 320.402 48.4844C320.402 49.4648 320.48 50.4609 320.637 51.4688C320.793 52.4805 321.094 53.3984 321.543 54.2188C321.988 55.043 322.598 55.7148 323.371 56.2344C324.152 56.7578 325.16 57.0156 326.402 57.0156C327.652 57.0156 328.668 56.7578 329.449 56.2344C330.238 55.7148 330.855 55.043 331.293 54.2188C331.738 53.3984 332.043 52.4805 332.199 51.4688C332.355 50.4609 332.434 49.4648 332.434 48.4844ZM356.93 56.0156C356.93 56.5781 356.856 56.9687 356.711 57.1875C356.574 57.4063 356.391 57.5156 356.164 57.5156C355.922 57.5156 355.652 57.4141 355.352 57.2188C355.047 57.0234 354.777 56.8047 354.539 56.5625L341.898 44.6875C341.617 44.4297 341.387 44.2969 341.211 44.2969C341.074 44.2969 340.969 44.3555 340.898 44.4688C340.836 44.5742 340.805 44.6953 340.805 44.8281V57.1562H339.977V40.625C339.977 40.2305 340.07 39.9375 340.258 39.75C340.445 39.5547 340.672 39.4531 340.945 39.4531C341.246 39.4531 341.563 39.6016 341.898 39.8906L355.039 52.0938C355.215 52.2734 355.359 52.3906 355.477 52.4531C355.602 52.5078 355.699 52.5312 355.773 52.5312C355.906 52.5312 355.996 52.4766 356.039 52.3594C356.078 52.2461 356.102 52.1367 356.102 52.0312V39.8281H356.93L356.93 56.0156ZM385.996 57.1562V46.0312C385.996 45.1875 385.906 44.4141 385.73 43.7031C385.551 42.9844 385.27 42.3672 384.887 41.8438C384.512 41.3242 384.027 40.9141 383.434 40.6094C382.848 40.3086 382.137 40.1562 381.293 40.1562C380.207 40.1562 379.203 40.3242 378.277 40.6562C377.359 40.9922 376.547 41.4023 375.84 41.8906V57.1562H372.402V33H375.84V41.0312C376.453 40.5859 377.262 40.1875 378.262 39.8438C379.262 39.5 380.613 39.3281 382.324 39.3281C383.238 39.3281 384.125 39.4609 384.98 39.7188C385.832 39.9688 386.59 40.3828 387.246 40.9531C387.902 41.5156 388.426 42.2578 388.824 43.1719C389.23 44.0781 389.434 45.1992 389.434 46.5312V57.1562H385.996ZM407.055 57.1562V47.2656H404.43C403.543 47.2656 402.656 47.3359 401.773 47.4688C400.898 47.5938 400.117 47.8516 399.43 48.2344C398.742 48.6094 398.184 49.1367 397.758 49.8125C397.34 50.4922 397.133 51.3711 397.133 52.4531C397.133 53.6836 397.461 54.6367 398.117 55.3125C398.773 55.9922 399.82 56.3281 401.258 56.3281H405.289L405.727 57.1562H400.289C399.422 57.1562 398.574 57.0703 397.742 56.8906C396.906 56.7148 396.156 56.4297 395.492 56.0312C394.824 55.625 394.281 55.0898 393.867 54.4219C393.461 53.7578 393.258 52.9219 393.258 51.9219C393.258 51.1016 393.449 50.3906 393.836 49.7969C394.23 49.1953 394.75 48.6953 395.398 48.2969C396.043 47.8906 396.766 47.5703 397.57 47.3281C398.383 47.0781 399.199 46.8906 400.023 46.7656C400.844 46.6328 401.652 46.543 402.445 46.5C403.234 46.4492 403.918 46.4219 404.492 46.4219H407.055V45.4219C407.055 43.8281 406.664 42.5469 405.883 41.5781C405.109 40.6094 403.883 40.125 402.195 40.125C400.59 40.125 399.148 40.2773 397.867 40.5781C396.594 40.8828 395.438 41.3203 394.398 41.8906L394.164 40.9844C395.477 40.2969 396.852 39.8516 398.289 39.6406C399.734 39.4336 401.203 39.3281 402.695 39.3281C403.652 39.3281 404.594 39.4219 405.523 39.6094C406.461 39.7969 407.293 40.1094 408.023 40.5469C408.762 40.9766 409.355 41.5469 409.805 42.2656C410.262 42.9766 410.492 43.8516 410.492 44.8906V57.1562H407.055ZM429.117 57.1562V39.8281H432.555V57.1562H429.117ZM422.086 57.1562C420.961 57.1562 419.949 57.043 419.055 56.8125C418.168 56.5742 417.422 56.1797 416.82 55.625C416.227 55.0742 415.773 54.3398 415.461 53.4219C415.148 52.4961 414.992 51.3398 414.992 49.9531V39.8281H418.43V49.9844C418.43 50.7891 418.516 51.5703 418.695 52.3281C418.871 53.0781 419.152 53.75 419.539 54.3438C419.934 54.9297 420.438 55.4062 421.055 55.7812C421.68 56.1484 422.434 56.3281 423.32 56.3281H427.32L427.789 57.1562H422.086ZM442.918 57.1562H438.762C438.199 57.1562 437.809 56.9023 437.59 56.3906C437.371 55.8828 437.262 55.3516 437.262 54.7969V33H440.684V54.5156C440.684 54.9219 440.801 55.3281 441.043 55.7344C441.293 56.1328 441.652 56.3281 442.121 56.3281H443.184L442.918 57.1562Z" fill="#665F20"/>
</svg>
