<svg width="299" height="62" viewBox="0 0 299 62" fill="none" xmlns="http://www.w3.org/2000/svg">
<path d="M19.9375 1.26562C19 1.26562 18.0859 1.33593 17.2031 1.46875C16.3164 1.60547 15.5234 1.88672 14.8281 2.3125C14.1406 2.73047 13.582 3.35156 13.1562 4.17188C12.7383 4.99609 12.5312 6.09375 12.5312 7.46875V15.3281H19.0625L18.6094 17H12.6719V48.3281H5.79688V17H0L0.734375 15.3281H5.67188V13.2031C5.67188 10.6719 6.125 8.5625 7.03125 6.875C7.94531 5.17969 9.11328 3.82031 10.5312 2.79688C11.957 1.77734 13.5352 1.05859 15.2656 0.640625C17.0039 0.214844 18.6914 0 20.3281 0L19.9375 1.26562ZM34.1367 5.14062C34.1367 6.20312 33.7539 7.125 32.9961 7.90625C32.2461 8.67969 31.293 9.0625 30.1367 9.0625C29.0742 9.0625 28.1523 8.67969 27.3711 7.90625C26.5898 7.125 26.1992 6.20312 26.1992 5.14062C26.1992 4.07031 26.5898 3.13672 27.3711 2.34375C28.1523 1.54297 29.0742 1.14062 30.1367 1.14062C31.293 1.14062 32.2461 1.54297 32.9961 2.34375C33.7539 3.13672 34.1367 4.07031 34.1367 5.14062ZM26.7305 48.3281V13.6719H33.6055V48.3281H26.7305ZM56.6055 48.3281H48.2617C47.1562 48.3281 46.3789 47.8203 45.9336 46.7969C45.4844 45.7773 45.2617 44.7109 45.2617 43.5938V0H52.1367V43.0625C52.1367 43.8672 52.3789 44.668 52.8711 45.4688C53.3594 46.2617 54.0664 46.6562 54.9961 46.6562H57.1367L56.6055 48.3281ZM98.7266 48.3281V20.4688C98.7266 19.8438 98.5703 19.5312 98.2578 19.5312C97.9844 19.5312 97.6719 19.8242 97.3203 20.4062L81.8516 48.3281H81.0547L65.9297 20.6719C65.4805 19.9141 65.1484 19.5312 64.9297 19.5312C64.75 19.5312 64.625 19.668 64.5547 19.9375C64.4922 20.1992 64.4609 20.4844 64.4609 20.7969V48.3281H62.7891V17.9375C62.7891 16.25 63.1094 14.9531 63.7578 14.0469C64.4023 13.1328 65.1953 12.6719 66.1328 12.6719C66.8828 12.6719 67.6484 12.9844 68.4297 13.6094C69.2109 14.2266 69.9766 15.1992 70.7266 16.5312L83.7891 40.5312H83.9922L97.1953 16.9375C97.9453 15.5117 98.7813 14.4453 99.7109 13.7344C100.648 13.0273 101.516 12.6719 102.32 12.6719C103.258 12.6719 104.031 13.1406 104.648 14.0781C105.273 15.0078 105.586 16.4688 105.586 18.4688V48.3281H98.7266ZM170.984 46.0625C170.984 47.1797 170.836 47.9531 170.547 48.3906C170.254 48.8359 169.891 49.0625 169.453 49.0625C168.961 49.0625 168.414 48.8594 167.812 48.4531C167.219 48.0586 166.676 47.6172 166.188 47.125L140.922 23.4062C140.336 22.8672 139.867 22.5938 139.516 22.5938C139.254 22.5938 139.055 22.7109 138.922 22.9375C138.785 23.1562 138.719 23.4023 138.719 23.6719V48.3281H137.047V15.2656C137.047 14.4648 137.234 13.875 137.609 13.5C137.992 13.125 138.453 12.9375 138.984 12.9375C139.609 12.9375 140.254 13.2266 140.922 13.7969L167.188 38.2031C167.539 38.5586 167.836 38.793 168.078 38.9062C168.328 39.0117 168.52 39.0625 168.656 39.0625C168.914 39.0625 169.086 38.9531 169.172 38.7344C169.266 38.5078 169.312 38.2812 169.312 38.0625V13.6719H170.984V46.0625ZM206.176 48.3281V28.5312H200.91C199.129 28.5312 197.355 28.668 195.598 28.9375C193.848 29.1992 192.285 29.7109 190.91 30.4688C189.535 31.2188 188.426 32.2734 187.582 33.625C186.738 34.9805 186.316 36.7461 186.316 38.9219C186.316 41.3711 186.965 43.2734 188.27 44.625C189.582 45.9805 191.684 46.6562 194.582 46.6562H202.645L203.504 48.3281H192.645C190.914 48.3281 189.215 48.1523 187.551 47.7969C185.883 47.4453 184.383 46.8672 183.051 46.0625C181.715 45.2617 180.637 44.1953 179.816 42.8594C178.992 41.5273 178.582 39.8594 178.582 37.8594C178.582 36.2148 178.965 34.793 179.738 33.5938C180.52 32.3984 181.555 31.3984 182.848 30.5938C184.137 29.793 185.59 29.1523 187.207 28.6719C188.832 28.1836 190.465 27.8047 192.113 27.5312C193.758 27.2617 195.367 27.0859 196.941 27C198.512 26.9062 199.879 26.8594 201.035 26.8594H206.176V24.8594C206.176 21.6641 205.395 19.1016 203.832 17.1719C202.277 15.2344 199.816 14.2656 196.441 14.2656C193.242 14.2656 190.363 14.5703 187.801 15.1719C185.246 15.7656 182.93 16.6406 180.848 17.7969L180.379 16C183.004 14.625 185.758 13.7305 188.645 13.3125C191.527 12.8867 194.461 12.6719 197.441 12.6719C199.348 12.6719 201.23 12.8594 203.098 13.2344C204.973 13.6094 206.637 14.2344 208.098 15.1094C209.566 15.9766 210.754 17.1211 211.66 18.5469C212.574 19.9648 213.035 21.7148 213.035 23.7969V48.3281H206.176ZM260.039 47.7344C259.547 48.6602 259 49.6562 258.398 50.7188C257.793 51.7891 257.156 52.8281 256.492 53.8281C255.824 54.8281 255.109 55.7695 254.352 56.6562C253.602 57.5508 252.805 58.3047 251.961 58.9219C249.605 60.6602 246.496 61.5313 242.633 61.5313H241.695L242.305 59.7969C243.586 59.7969 244.715 59.7187 245.695 59.5625C246.672 59.4063 247.609 59.1484 248.508 58.7969C249.609 58.3477 250.617 57.7109 251.523 56.8906C252.438 56.0664 253.273 55.1641 254.023 54.1875C254.781 53.2188 255.437 52.2344 255.992 51.2344C256.555 50.2344 257.012 49.332 257.367 48.5312L239.773 13.6719H247.57L261.43 41.125L275.633 13.6719H277.633L260.039 47.7344ZM298.422 17H292.156V43.0625C292.156 43.8672 292.398 44.668 292.891 45.4688C293.379 46.2617 294.094 46.6562 295.031 46.6562H298.234L297.828 48.3281H288.297C287.18 48.3281 286.398 47.8203 285.953 46.7969C285.516 45.7773 285.297 44.7109 285.297 43.5938V17H280.359L280.969 15.3281H285.297V5.79688H292.156V15.3281H298.891L298.422 17Z" fill="#665F20"/>
</svg>
