<svg width="612" height="65" viewBox="0 0 612 65" fill="none" xmlns="http://www.w3.org/2000/svg">
<path d="M17.8281 3.73438C17.8281 4.04688 17.4141 4.8125 16.5938 6.03125L5.70312 22.1563C5.27344 22.7813 5.0625 23.2031 5.0625 23.4219C5.0625 23.6523 5.27344 23.7656 5.70312 23.7656H17.7031V24.5938H1.46875C1 24.5938 0.632812 24.5625 0.375 24.5C0.125 24.4297 0 24.2734 0 24.0313C0 23.625 0.398438 22.8711 1.20312 21.7656L12.3906 5.70312C12.5234 5.52734 12.6758 5.32422 12.8438 5.09375C13.0078 4.85547 13.0938 4.64844 13.0938 4.46875C13.0938 4.21875 12.8594 4.09375 12.3906 4.09375H1.20312V3.26562H16.2656C16.7734 3.26562 17.1602 3.28906 17.4219 3.32812C17.6914 3.37109 17.8281 3.50781 17.8281 3.73438ZM23.832 24.5938C23.2773 24.5938 22.8867 24.3398 22.6602 23.8281C22.4414 23.3203 22.332 22.7891 22.332 22.2344V9.42188C22.332 8.91406 22.4492 8.42969 22.6914 7.96875C22.9414 7.5 23.3203 7.26562 23.832 7.26562H37.9258V8.09375H27.1914C26.7734 8.09375 26.4297 8.25781 26.1602 8.57813C25.8984 8.90234 25.7695 9.27734 25.7695 9.70313V14.7969H36.5977V15.625H25.7695V21.9531C25.7695 22.3594 25.8867 22.7656 26.1289 23.1719C26.3672 23.5703 26.7227 23.7656 27.1914 23.7656H38.9883V24.5938H23.832ZM57.6562 19.1875C57.6562 20.3984 57.3477 21.3828 56.7344 22.1406C56.1289 22.8906 55.3594 23.4922 54.4219 23.9375C53.4922 24.375 52.4844 24.6758 51.3906 24.8438C50.2969 25.0078 49.2852 25.0938 48.3594 25.0938C47.0234 25.0938 45.6953 24.9844 44.375 24.7656C43.0508 24.5586 41.7578 24.2266 40.5 23.7656L40.7188 22.8281C41.2383 23.0469 41.8125 23.2461 42.4375 23.4219C43.0703 23.6016 43.7383 23.75 44.4375 23.875C45.1328 24 45.8359 24.1016 46.5469 24.1719C47.2656 24.2344 47.9375 24.2656 48.5625 24.2656C49.207 24.2656 49.8672 24.2109 50.5469 24.0938C51.2227 23.9805 51.8438 23.7891 52.4062 23.5156C52.9688 23.2344 53.4258 22.8438 53.7812 22.3438C54.1445 21.8438 54.3281 21.2188 54.3281 20.4688C54.3281 19.8242 54.2031 19.3125 53.9531 18.9375C53.7109 18.5547 53.3438 18.25 52.8438 18.0312C52.3438 17.8047 51.7227 17.6406 50.9844 17.5469C50.2539 17.4453 49.3984 17.3516 48.4219 17.2656C47.6914 17.1953 46.9219 17.0742 46.1094 16.9062C45.2969 16.7422 44.5508 16.4766 43.875 16.1094C43.1953 15.7461 42.6406 15.2656 42.2031 14.6719C41.7734 14.0703 41.5625 13.2969 41.5625 12.3594C41.5625 11.2031 41.8477 10.2656 42.4219 9.54688C43.0039 8.82813 43.7266 8.26563 44.5938 7.85938C45.457 7.44531 46.3984 7.15625 47.4219 7C48.4414 6.84375 49.4102 6.76562 50.3281 6.76562C51.3047 6.76562 52.3516 6.88672 53.4688 7.125C54.5938 7.35547 55.6094 7.65625 56.5156 8.03125L56.25 8.92188C55.4062 8.52734 54.4297 8.21094 53.3281 7.96875C52.2344 7.71875 51.0391 7.59375 49.75 7.59375C49.1133 7.59375 48.5 7.65625 47.9062 7.78125C47.3203 7.90625 46.8047 8.12109 46.3594 8.42188C45.9102 8.71484 45.5508 9.10547 45.2812 9.59375C45.0195 10.0859 44.8906 10.6836 44.8906 11.3906C44.8906 11.9766 45.0547 12.4531 45.3906 12.8281C45.7227 13.2031 46.1641 13.5078 46.7188 13.7344C47.2812 13.9531 47.9219 14.1211 48.6406 14.2344C49.3594 14.3398 50.0977 14.418 50.8594 14.4688C53.2109 14.625 54.9297 15.0547 56.0156 15.75C57.1094 16.4492 57.6562 17.5938 57.6562 19.1875ZM69.0508 8.92188H65.9258V21.9531C65.9258 22.3594 66.043 22.7656 66.2852 23.1719C66.5352 23.5703 66.8867 23.7656 67.3477 23.7656H68.957L68.7539 24.5938H63.9883C63.4336 24.5938 63.043 24.3398 62.8164 23.8281C62.5977 23.3203 62.4883 22.7891 62.4883 22.2344V8.92188H60.0195L60.3164 8.09375H62.4883V3.32812H65.9258V8.09375H69.2852L69.0508 8.92188ZM85.4766 24.5938V14.7031H82.8516C81.9648 14.7031 81.0781 14.7734 80.1953 14.9063C79.3203 15.0313 78.5391 15.2891 77.8516 15.6719C77.1641 16.0469 76.6055 16.5742 76.1797 17.25C75.7617 17.9297 75.5547 18.8086 75.5547 19.8906C75.5547 21.1211 75.8828 22.0742 76.5391 22.75C77.1953 23.4297 78.2422 23.7656 79.6797 23.7656H83.7109L84.1484 24.5938H78.7109C77.8438 24.5938 76.9961 24.5078 76.1641 24.3281C75.3281 24.1523 74.5781 23.8672 73.9141 23.4688C73.2461 23.0625 72.7031 22.5273 72.2891 21.8594C71.8828 21.1953 71.6797 20.3594 71.6797 19.3594C71.6797 18.5391 71.8711 17.8281 72.2578 17.2344C72.6523 16.6328 73.1719 16.1328 73.8203 15.7344C74.4648 15.3281 75.1875 15.0078 75.9922 14.7656C76.8047 14.5156 77.6211 14.3281 78.4453 14.2031C79.2656 14.0703 80.0742 13.9805 80.8672 13.9375C81.6562 13.8867 82.3398 13.8594 82.9141 13.8594H85.4766V12.8594C85.4766 11.2656 85.0859 9.98437 84.3047 9.01562C83.5312 8.04687 82.3047 7.5625 80.6172 7.5625C79.0117 7.5625 77.5703 7.71484 76.2891 8.01562C75.0156 8.32031 73.8594 8.75781 72.8203 9.32812L72.5859 8.42187C73.8984 7.73437 75.2734 7.28906 76.7109 7.07812C78.1562 6.87109 79.625 6.76562 81.1172 6.76562C82.0742 6.76562 83.0156 6.85937 83.9453 7.04687C84.8828 7.23437 85.7148 7.54687 86.4453 7.98437C87.1836 8.41406 87.7773 8.98437 88.2266 9.70312C88.6836 10.4141 88.9141 11.2891 88.9141 12.3281V24.5938H85.4766ZM113.449 24.0313C113.332 24.2305 113.215 24.4023 113.09 24.5469C112.973 24.6914 112.84 24.7656 112.684 24.7656C112.434 24.7656 112.234 24.5742 112.09 24.1875L106.684 12.1563C106.621 11.9805 106.52 11.8906 106.387 11.8906C106.25 11.8906 106.152 11.9805 106.09 12.1563L101.184 24.1875C101.004 24.6133 100.762 24.8281 100.449 24.8281C100.137 24.8281 99.8789 24.6133 99.6836 24.1875L91.4805 7.26562H95.5117L101.387 19.3281C101.469 19.5078 101.578 19.5938 101.715 19.5938C101.871 19.5938 101.996 19.5078 102.09 19.3281L106.918 7.79688C107 7.60156 107.113 7.45312 107.262 7.35938C107.406 7.25781 107.559 7.20312 107.715 7.20312C108.066 7.20312 108.344 7.40234 108.543 7.79688L113.855 19.3281C113.937 19.5078 114.047 19.5938 114.184 19.5938C114.34 19.5938 114.457 19.5078 114.543 19.3281L120.246 7.26562H121.309L113.449 24.0313ZM148.914 24.5938V9.42188C148.195 8.98438 147.414 8.60547 146.57 8.28125C145.727 7.96094 144.742 7.79688 143.617 7.79688C143.055 7.79688 142.434 7.89063 141.758 8.07813C141.078 8.26563 140.445 8.64844 139.852 9.21875C139.266 9.78125 138.773 10.5898 138.367 11.6406C137.969 12.6836 137.773 14.0586 137.773 15.7656C137.773 17.5156 137.953 18.918 138.32 19.9688C138.695 21.0117 139.199 21.8203 139.836 22.3906C140.48 22.9531 141.23 23.3242 142.086 23.5C142.949 23.6797 143.883 23.7656 144.883 23.7656H147.117L147.57 24.5938H142.508C141.328 24.5938 140.219 24.3984 139.18 24C138.137 23.5938 137.227 23.0234 136.445 22.2813C135.664 21.5313 135.043 20.6094 134.586 19.5156C134.137 18.4141 133.914 17.1641 133.914 15.7656C133.914 14.6094 134.133 13.4961 134.57 12.4219C135.016 11.3398 135.621 10.3828 136.383 9.54688C137.152 8.71484 138.059 8.04297 139.102 7.53125C140.152 7.02344 141.289 6.76562 142.508 6.76562C143.391 6.76562 144.164 6.8125 144.82 6.90625C145.477 6.99219 146.055 7.10547 146.555 7.25C147.055 7.39844 147.492 7.57031 147.867 7.76563C148.25 7.96484 148.602 8.17188 148.914 8.39063V0.4375H152.336V24.5938H148.914ZM175.676 15.9219C175.676 17.2578 175.426 18.4844 174.926 19.6094C174.426 20.7344 173.73 21.7031 172.848 22.5156C171.973 23.3281 170.93 23.9648 169.723 24.4219C168.512 24.8672 167.195 25.0938 165.77 25.0938C164.352 25.0938 163.039 24.8672 161.832 24.4219C160.633 23.9648 159.598 23.3281 158.723 22.5156C157.848 21.7031 157.16 20.7344 156.66 19.6094C156.16 18.4844 155.91 17.2578 155.91 15.9219C155.91 14.5898 156.16 13.3672 156.66 12.25C157.16 11.125 157.848 10.1563 158.723 9.34375C159.598 8.53125 160.633 7.90234 161.832 7.45312C163.039 6.99609 164.352 6.76562 165.77 6.76562C167.195 6.76562 168.512 6.99609 169.723 7.45312C170.93 7.90234 171.973 8.53125 172.848 9.34375C173.73 10.1563 174.426 11.125 174.926 12.25C175.426 13.3672 175.676 14.5898 175.676 15.9219ZM171.801 15.9219C171.801 14.9531 171.723 13.9648 171.566 12.9531C171.41 11.9336 171.105 11.0156 170.66 10.2031C170.223 9.38281 169.605 8.71094 168.816 8.1875C168.035 7.65625 167.02 7.39062 165.77 7.39062C164.527 7.39062 163.52 7.65625 162.738 8.1875C161.965 8.71094 161.355 9.38281 160.91 10.2031C160.461 11.0156 160.16 11.9336 160.004 12.9531C159.848 13.9648 159.77 14.9531 159.77 15.9219C159.77 16.9023 159.848 17.8984 160.004 18.9062C160.16 19.918 160.461 20.8359 160.91 21.6563C161.355 22.4805 161.965 23.1523 162.738 23.6719C163.52 24.1953 164.527 24.4531 165.77 24.4531C167.02 24.4531 168.035 24.1953 168.816 23.6719C169.605 23.1523 170.223 22.4805 170.66 21.6563C171.105 20.8359 171.41 19.918 171.566 18.9062C171.723 17.8984 171.801 16.9023 171.801 15.9219ZM205.5 19.1875C205.5 20.3984 205.191 21.3828 204.578 22.1406C203.973 22.8906 203.203 23.4922 202.266 23.9375C201.336 24.375 200.328 24.6758 199.234 24.8438C198.141 25.0078 197.129 25.0938 196.203 25.0938C194.867 25.0938 193.539 24.9844 192.219 24.7656C190.895 24.5586 189.602 24.2266 188.344 23.7656L188.562 22.8281C189.082 23.0469 189.656 23.2461 190.281 23.4219C190.914 23.6016 191.582 23.75 192.281 23.875C192.977 24 193.68 24.1016 194.391 24.1719C195.109 24.2344 195.781 24.2656 196.406 24.2656C197.051 24.2656 197.711 24.2109 198.391 24.0938C199.066 23.9805 199.688 23.7891 200.25 23.5156C200.812 23.2344 201.27 22.8438 201.625 22.3438C201.988 21.8438 202.172 21.2188 202.172 20.4688C202.172 19.8242 202.047 19.3125 201.797 18.9375C201.555 18.5547 201.188 18.25 200.688 18.0312C200.188 17.8047 199.566 17.6406 198.828 17.5469C198.098 17.4453 197.242 17.3516 196.266 17.2656C195.535 17.1953 194.766 17.0742 193.953 16.9062C193.141 16.7422 192.395 16.4766 191.719 16.1094C191.039 15.7461 190.484 15.2656 190.047 14.6719C189.617 14.0703 189.406 13.2969 189.406 12.3594C189.406 11.2031 189.691 10.2656 190.266 9.54688C190.848 8.82813 191.57 8.26563 192.438 7.85938C193.301 7.44531 194.242 7.15625 195.266 7C196.285 6.84375 197.254 6.76562 198.172 6.76562C199.148 6.76562 200.195 6.88672 201.312 7.125C202.438 7.35547 203.453 7.65625 204.359 8.03125L204.094 8.92188C203.25 8.52734 202.273 8.21094 201.172 7.96875C200.078 7.71875 198.883 7.59375 197.594 7.59375C196.957 7.59375 196.344 7.65625 195.75 7.78125C195.164 7.90625 194.648 8.12109 194.203 8.42188C193.754 8.71484 193.395 9.10547 193.125 9.59375C192.863 10.0859 192.734 10.6836 192.734 11.3906C192.734 11.9766 192.898 12.4531 193.234 12.8281C193.566 13.2031 194.008 13.5078 194.562 13.7344C195.125 13.9531 195.766 14.1211 196.484 14.2344C197.203 14.3398 197.941 14.418 198.703 14.4688C201.055 14.625 202.773 15.0547 203.859 15.75C204.953 16.4492 205.5 17.5938 205.5 19.1875ZM216.895 8.92188H213.77V21.9531C213.77 22.3594 213.887 22.7656 214.129 23.1719C214.379 23.5703 214.73 23.7656 215.191 23.7656H216.801L216.598 24.5938H211.832C211.277 24.5938 210.887 24.3398 210.66 23.8281C210.441 23.3203 210.332 22.7891 210.332 22.2344V8.92188H207.863L208.16 8.09375H210.332V3.32812H213.77V8.09375H217.129L216.895 8.92188ZM228.398 24.2969C228.148 24.7656 227.871 25.2656 227.57 25.7969C227.277 26.3281 226.965 26.8438 226.633 27.3438C226.297 27.8438 225.938 28.3125 225.555 28.75C225.18 29.1953 224.781 29.5781 224.367 29.8906C223.188 30.7539 221.633 31.1875 219.695 31.1875H219.227L219.523 30.3281C220.168 30.3281 220.734 30.2852 221.227 30.2031C221.715 30.1289 222.184 30.0039 222.633 29.8281C223.184 29.6094 223.688 29.2891 224.148 28.875C224.605 28.4688 225.023 28.0195 225.398 27.5313C225.773 27.0391 226.094 26.5469 226.367 26.0469C226.648 25.5469 226.875 25.0938 227.055 24.6875L218.258 7.26562H222.164L229.102 21L236.195 7.26562H237.195L228.398 24.2969ZM246.121 24.5938H241.965C241.402 24.5938 241.012 24.3398 240.793 23.8281C240.574 23.3203 240.465 22.7891 240.465 22.2344V0.4375H243.887V21.9531C243.887 22.3594 244.004 22.7656 244.246 23.1719C244.496 23.5703 244.855 23.7656 245.324 23.7656H246.387L246.121 24.5938ZM253.418 3C253.418 3.53125 253.23 3.99609 252.855 4.39062C252.48 4.77734 252 4.96875 251.418 4.96875C250.887 4.96875 250.426 4.77734 250.043 4.39062C249.656 3.99609 249.465 3.53125 249.465 3C249.465 2.46875 249.656 2.00781 250.043 1.60938C250.426 1.20312 250.887 1 251.418 1C252 1 252.48 1.20312 252.855 1.60938C253.23 2.00781 253.418 2.46875 253.418 3ZM249.73 24.5938V7.26562H253.152V24.5938H249.73ZM273.152 7.70313C273.152 7.88281 273.051 8.125 272.855 8.4375C272.656 8.74219 272.355 9.16406 271.949 9.70313L261.996 22.7344C261.746 23.0391 261.621 23.2656 261.621 23.4219C261.621 23.6016 261.703 23.7031 261.871 23.7344C262.035 23.7578 262.207 23.7656 262.387 23.7656H272.684V24.5938H258.418C258.043 24.5938 257.719 24.5742 257.449 24.5313C257.188 24.4805 257.059 24.3359 257.059 24.0938C257.059 23.918 257.145 23.668 257.324 23.3438C257.5 23.0234 257.801 22.5938 258.23 22.0625L268.121 9.32813C268.254 9.15234 268.379 8.98047 268.496 8.8125C268.621 8.64844 268.684 8.49609 268.684 8.35938C268.684 8.18359 268.496 8.09375 268.121 8.09375H258.621V7.26562H271.684C272.152 7.26562 272.512 7.28906 272.762 7.32812C273.02 7.3711 273.152 7.49609 273.152 7.70313ZM289.547 24.5938V14.7031H286.922C286.035 14.7031 285.148 14.7734 284.266 14.9063C283.391 15.0313 282.609 15.2891 281.922 15.6719C281.234 16.0469 280.676 16.5742 280.25 17.25C279.832 17.9297 279.625 18.8086 279.625 19.8906C279.625 21.1211 279.953 22.0742 280.609 22.75C281.266 23.4297 282.312 23.7656 283.75 23.7656H287.781L288.219 24.5938H282.781C281.914 24.5938 281.066 24.5078 280.234 24.3281C279.398 24.1523 278.648 23.8672 277.984 23.4688C277.316 23.0625 276.773 22.5273 276.359 21.8594C275.953 21.1953 275.75 20.3594 275.75 19.3594C275.75 18.5391 275.941 17.8281 276.328 17.2344C276.723 16.6328 277.242 16.1328 277.891 15.7344C278.535 15.3281 279.258 15.0078 280.062 14.7656C280.875 14.5156 281.691 14.3281 282.516 14.2031C283.336 14.0703 284.145 13.9805 284.938 13.9375C285.727 13.8867 286.41 13.8594 286.984 13.8594H289.547V12.8594C289.547 11.2656 289.156 9.98437 288.375 9.01562C287.602 8.04687 286.375 7.5625 284.688 7.5625C283.082 7.5625 281.641 7.71484 280.359 8.01562C279.086 8.32031 277.93 8.75781 276.891 9.32812L276.656 8.42187C277.969 7.73437 279.344 7.28906 280.781 7.07812C282.227 6.87109 283.695 6.76562 285.188 6.76562C286.145 6.76562 287.086 6.85937 288.016 7.04687C288.953 7.23437 289.785 7.54687 290.516 7.98437C291.254 8.41406 291.848 8.98437 292.297 9.70312C292.754 10.4141 292.984 11.2891 292.984 12.3281V24.5938H289.547ZM314.109 22.5313C313.266 23.2813 312.18 23.8984 310.859 24.375C309.547 24.8516 308.031 25.0938 306.312 25.0938C304.895 25.0938 303.582 24.8672 302.375 24.4219C301.176 23.9648 300.141 23.3281 299.266 22.5156C298.391 21.7031 297.703 20.7344 297.203 19.6094C296.703 18.4844 296.453 17.2578 296.453 15.9219C296.453 14.5898 296.703 13.3672 297.203 12.25C297.703 11.125 298.391 10.1563 299.266 9.34375C300.141 8.53125 301.176 7.90234 302.375 7.45312C303.582 6.99609 304.895 6.76562 306.312 6.76562C307.914 6.76562 309.348 6.97656 310.609 7.39062C311.879 7.79688 312.906 8.26563 313.688 8.79688L313.453 9.70313C312.555 9.10156 311.52 8.59375 310.344 8.1875C309.164 7.77344 307.812 7.5625 306.281 7.5625C305.195 7.5625 304.273 7.80859 303.516 8.29688C302.766 8.78906 302.148 9.42969 301.672 10.2188C301.191 11 300.844 11.8906 300.625 12.8906C300.414 13.8906 300.312 14.9023 300.312 15.9219C300.312 17.4336 300.5 18.7148 300.875 19.7656C301.258 20.8086 301.754 21.6563 302.359 22.3125C302.973 22.9688 303.66 23.4492 304.422 23.75C305.191 24.043 305.969 24.1875 306.75 24.1875C308.176 24.1875 309.484 23.9688 310.672 23.5313C311.859 23.0859 312.906 22.4688 313.812 21.6875L314.109 22.5313ZM321.914 3C321.914 3.53125 321.727 3.99609 321.352 4.39062C320.977 4.77734 320.496 4.96875 319.914 4.96875C319.383 4.96875 318.918 4.77734 318.523 4.39062C318.137 3.99609 317.945 3.53125 317.945 3C317.945 2.46875 318.137 2.00781 318.523 1.60938C318.918 1.20312 319.383 1 319.914 1C320.496 1 320.977 1.20312 321.352 1.60938C321.727 2.00781 321.914 2.46875 321.914 3ZM321.648 23.5938C321.648 25.2188 321.328 26.5234 320.695 27.5156C320.059 28.5039 319.297 29.2695 318.414 29.8125C317.527 30.3516 316.602 30.7188 315.633 30.9063C314.664 31.0938 313.848 31.1875 313.18 31.1875H312.148L312.414 30.5313H313.32C313.695 30.5313 314.172 30.4727 314.742 30.3594C315.305 30.2422 315.84 29.9102 316.352 29.3594C316.859 28.8047 317.297 27.957 317.664 26.8125C318.027 25.6641 318.211 24.0625 318.211 22V7.26562H321.648V23.5938ZM331.004 3C331.004 3.53125 330.816 3.99609 330.441 4.39062C330.066 4.77734 329.586 4.96875 329.004 4.96875C328.473 4.96875 328.012 4.77734 327.629 4.39062C327.242 3.99609 327.051 3.53125 327.051 3C327.051 2.46875 327.242 2.00781 327.629 1.60938C328.012 1.20312 328.473 1 329.004 1C329.586 1 330.066 1.20312 330.441 1.60938C330.816 2.00781 331.004 2.46875 331.004 3ZM327.316 24.5938V7.26562H330.738V24.5938H327.316ZM366.742 24.0313C366.625 24.2305 366.508 24.4023 366.383 24.5469C366.266 24.6914 366.133 24.7656 365.977 24.7656C365.727 24.7656 365.527 24.5742 365.383 24.1875L359.977 12.1563C359.914 11.9805 359.813 11.8906 359.68 11.8906C359.543 11.8906 359.445 11.9805 359.383 12.1563L354.477 24.1875C354.297 24.6133 354.055 24.8281 353.742 24.8281C353.43 24.8281 353.172 24.6133 352.977 24.1875L344.773 7.26562H348.805L354.68 19.3281C354.762 19.5078 354.871 19.5938 355.008 19.5938C355.164 19.5938 355.289 19.5078 355.383 19.3281L360.211 7.79688C360.293 7.60156 360.406 7.45312 360.555 7.35938C360.699 7.25781 360.852 7.20312 361.008 7.20312C361.359 7.20312 361.637 7.40234 361.836 7.79688L367.148 19.3281C367.23 19.5078 367.34 19.5938 367.477 19.5938C367.633 19.5938 367.75 19.5078 367.836 19.3281L373.539 7.26562H374.602L366.742 24.0313ZM381.297 10.7344V21.9531C381.297 22.3594 381.414 22.7656 381.656 23.1719C381.906 23.5703 382.266 23.7656 382.734 23.7656H383.797L383.531 24.5938H379.375C378.812 24.5938 378.422 24.3398 378.203 23.8281C377.984 23.3203 377.875 22.7891 377.875 22.2344V12.2031L375.969 13V12.2031L377.875 11.3906V0.4375H381.297V9.96875L383.375 9.09375V9.82813L381.297 10.7344ZM405.203 15.9219C405.203 17.2578 404.953 18.4844 404.453 19.6094C403.953 20.7344 403.258 21.7031 402.375 22.5156C401.5 23.3281 400.457 23.9648 399.25 24.4219C398.039 24.8672 396.723 25.0938 395.297 25.0938C393.879 25.0938 392.566 24.8672 391.359 24.4219C390.16 23.9648 389.125 23.3281 388.25 22.5156C387.375 21.7031 386.688 20.7344 386.188 19.6094C385.688 18.4844 385.438 17.2578 385.438 15.9219C385.438 14.5898 385.688 13.3672 386.188 12.25C386.688 11.125 387.375 10.1563 388.25 9.34375C389.125 8.53125 390.16 7.90234 391.359 7.45312C392.566 6.99609 393.879 6.76562 395.297 6.76562C396.723 6.76562 398.039 6.99609 399.25 7.45312C400.457 7.90234 401.5 8.53125 402.375 9.34375C403.258 10.1563 403.953 11.125 404.453 12.25C404.953 13.3672 405.203 14.5898 405.203 15.9219ZM401.328 15.9219C401.328 14.9531 401.25 13.9648 401.094 12.9531C400.938 11.9336 400.633 11.0156 400.188 10.2031C399.75 9.38281 399.133 8.71094 398.344 8.1875C397.562 7.65625 396.547 7.39062 395.297 7.39062C394.055 7.39062 393.047 7.65625 392.266 8.1875C391.492 8.71094 390.883 9.38281 390.438 10.2031C389.988 11.0156 389.688 11.9336 389.531 12.9531C389.375 13.9648 389.297 14.9531 389.297 15.9219C389.297 16.9023 389.375 17.8984 389.531 18.9062C389.688 19.918 389.988 20.8359 390.438 21.6563C390.883 22.4805 391.492 23.1523 392.266 23.6719C393.047 24.1953 394.055 24.4531 395.297 24.4531C396.547 24.4531 397.562 24.1953 398.344 23.6719C399.133 23.1523 399.75 22.4805 400.188 21.6563C400.633 20.8359 400.938 19.918 401.094 18.9062C401.25 17.8984 401.328 16.9023 401.328 15.9219ZM424.23 19.1875C424.23 20.3984 423.922 21.3828 423.309 22.1406C422.703 22.8906 421.934 23.4922 420.996 23.9375C420.066 24.375 419.059 24.6758 417.965 24.8438C416.871 25.0078 415.859 25.0938 414.934 25.0938C413.598 25.0938 412.27 24.9844 410.949 24.7656C409.625 24.5586 408.332 24.2266 407.074 23.7656L407.293 22.8281C407.813 23.0469 408.387 23.2461 409.012 23.4219C409.645 23.6016 410.313 23.75 411.012 23.875C411.707 24 412.41 24.1016 413.121 24.1719C413.84 24.2344 414.512 24.2656 415.137 24.2656C415.781 24.2656 416.441 24.2109 417.121 24.0938C417.797 23.9805 418.418 23.7891 418.98 23.5156C419.543 23.2344 420 22.8438 420.355 22.3438C420.719 21.8438 420.902 21.2188 420.902 20.4688C420.902 19.8242 420.777 19.3125 420.527 18.9375C420.285 18.5547 419.918 18.25 419.418 18.0312C418.918 17.8047 418.297 17.6406 417.559 17.5469C416.828 17.4453 415.973 17.3516 414.996 17.2656C414.266 17.1953 413.496 17.0742 412.684 16.9062C411.871 16.7422 411.125 16.4766 410.449 16.1094C409.77 15.7461 409.215 15.2656 408.777 14.6719C408.348 14.0703 408.137 13.2969 408.137 12.3594C408.137 11.2031 408.422 10.2656 408.996 9.54688C409.578 8.82813 410.301 8.26563 411.168 7.85938C412.031 7.44531 412.973 7.15625 413.996 7C415.016 6.84375 415.984 6.76562 416.902 6.76562C417.879 6.76562 418.926 6.88672 420.043 7.125C421.168 7.35547 422.184 7.65625 423.09 8.03125L422.824 8.92188C421.98 8.52734 421.004 8.21094 419.902 7.96875C418.809 7.71875 417.613 7.59375 416.324 7.59375C415.688 7.59375 415.074 7.65625 414.48 7.78125C413.895 7.90625 413.379 8.12109 412.934 8.42188C412.484 8.71484 412.125 9.10547 411.855 9.59375C411.594 10.0859 411.465 10.6836 411.465 11.3906C411.465 11.9766 411.629 12.4531 411.965 12.8281C412.297 13.2031 412.738 13.5078 413.293 13.7344C413.855 13.9531 414.496 14.1211 415.215 14.2344C415.934 14.3398 416.672 14.418 417.434 14.4688C419.785 14.625 421.504 15.0547 422.59 15.75C423.684 16.4492 424.23 17.5938 424.23 19.1875ZM446.566 15.9219C446.566 17.2578 446.316 18.4844 445.816 19.6094C445.316 20.7344 444.621 21.7031 443.738 22.5156C442.863 23.3281 441.82 23.9648 440.613 24.4219C439.402 24.8672 438.086 25.0938 436.66 25.0938C435.242 25.0938 433.93 24.8672 432.723 24.4219C431.523 23.9648 430.488 23.3281 429.613 22.5156C428.738 21.7031 428.051 20.7344 427.551 19.6094C427.051 18.4844 426.801 17.2578 426.801 15.9219C426.801 14.5898 427.051 13.3672 427.551 12.25C428.051 11.125 428.738 10.1563 429.613 9.34375C430.488 8.53125 431.523 7.90234 432.723 7.45312C433.93 6.99609 435.242 6.76562 436.66 6.76562C438.086 6.76562 439.402 6.99609 440.613 7.45312C441.82 7.90234 442.863 8.53125 443.738 9.34375C444.621 10.1563 445.316 11.125 445.816 12.25C446.316 13.3672 446.566 14.5898 446.566 15.9219ZM442.691 15.9219C442.691 14.9531 442.613 13.9648 442.457 12.9531C442.301 11.9336 441.996 11.0156 441.551 10.2031C441.113 9.38281 440.496 8.71094 439.707 8.1875C438.926 7.65625 437.91 7.39062 436.66 7.39062C435.418 7.39062 434.41 7.65625 433.629 8.1875C432.855 8.71094 432.246 9.38281 431.801 10.2031C431.352 11.0156 431.051 11.9336 430.895 12.9531C430.738 13.9648 430.66 14.9531 430.66 15.9219C430.66 16.9023 430.738 17.8984 430.895 18.9062C431.051 19.918 431.352 20.8359 431.801 21.6563C432.246 22.4805 432.855 23.1523 433.629 23.6719C434.41 24.1953 435.418 24.4531 436.66 24.4531C437.91 24.4531 438.926 24.1953 439.707 23.6719C440.496 23.1523 441.113 22.4805 441.551 21.6563C441.996 20.8359 442.301 19.918 442.457 18.9062C442.613 17.8984 442.691 16.9023 442.691 15.9219ZM436.535 5.0625H435.16L439.895 0H443.535L436.535 5.0625ZM470.09 24.0313C469.973 24.2305 469.855 24.4023 469.73 24.5469C469.613 24.6914 469.48 24.7656 469.324 24.7656C469.074 24.7656 468.875 24.5742 468.73 24.1875L463.324 12.1563C463.262 11.9805 463.16 11.8906 463.027 11.8906C462.891 11.8906 462.793 11.9805 462.73 12.1563L457.824 24.1875C457.645 24.6133 457.402 24.8281 457.09 24.8281C456.777 24.8281 456.52 24.6133 456.324 24.1875L448.121 7.26562H452.152L458.027 19.3281C458.109 19.5078 458.219 19.5938 458.355 19.5938C458.512 19.5938 458.637 19.5078 458.73 19.3281L463.559 7.79688C463.641 7.60156 463.754 7.45312 463.902 7.35938C464.047 7.25781 464.199 7.20312 464.355 7.20312C464.707 7.20312 464.984 7.40234 465.184 7.79688L470.496 19.3281C470.578 19.5078 470.688 19.5938 470.824 19.5938C470.98 19.5938 471.098 19.5078 471.184 19.3281L476.887 7.26562H477.949L470.09 24.0313ZM513.008 22.2969C512.434 22.8086 511.762 23.25 510.992 23.625C510.23 24 509.414 24.3125 508.539 24.5625C507.672 24.8008 506.766 24.9766 505.82 25.0938C504.883 25.207 503.949 25.2656 503.023 25.2656C501.461 25.2656 499.93 25.0313 498.43 24.5625C496.93 24.0938 495.586 23.3984 494.398 22.4688C493.211 21.5313 492.246 20.3555 491.508 18.9375C490.777 17.5117 490.414 15.8398 490.414 13.9219C490.414 12.2148 490.762 10.6641 491.461 9.26563C492.168 7.85938 493.117 6.66797 494.305 5.6875C495.492 4.69922 496.859 3.9375 498.414 3.40625C499.977 2.86719 501.621 2.59375 503.352 2.59375C505.371 2.59375 507.074 2.78906 508.461 3.17188C509.855 3.54688 510.938 3.95312 511.711 4.39062L511.414 5.20312C510.633 4.69531 509.621 4.27344 508.383 3.9375C507.141 3.60547 505.641 3.4375 503.883 3.4375C502.328 3.4375 500.984 3.75781 499.852 4.39062C498.715 5.01562 497.777 5.84375 497.039 6.875C496.309 7.90625 495.766 9.08594 495.414 10.4063C495.059 11.7305 494.883 13.0859 494.883 14.4688C494.883 15.8047 495.078 17.0703 495.477 18.2656C495.883 19.4648 496.445 20.5273 497.164 21.4531C497.891 22.3711 498.758 23.0938 499.758 23.625C500.758 24.1563 501.844 24.4219 503.023 24.4219C505.305 24.4219 506.891 24.0078 507.789 23.1719C508.695 22.3398 509.148 21.0586 509.148 19.3281V13.7656H513.008V22.2969ZM536.582 15.9219C536.582 17.2578 536.332 18.4844 535.832 19.6094C535.332 20.7344 534.637 21.7031 533.754 22.5156C532.879 23.3281 531.836 23.9648 530.629 24.4219C529.418 24.8672 528.102 25.0938 526.676 25.0938C525.258 25.0938 523.945 24.8672 522.738 24.4219C521.539 23.9648 520.504 23.3281 519.629 22.5156C518.754 21.7031 518.066 20.7344 517.566 19.6094C517.066 18.4844 516.816 17.2578 516.816 15.9219C516.816 14.5898 517.066 13.3672 517.566 12.25C518.066 11.125 518.754 10.1563 519.629 9.34375C520.504 8.53125 521.539 7.90234 522.738 7.45312C523.945 6.99609 525.258 6.76562 526.676 6.76562C528.102 6.76562 529.418 6.99609 530.629 7.45312C531.836 7.90234 532.879 8.53125 533.754 9.34375C534.637 10.1563 535.332 11.125 535.832 12.25C536.332 13.3672 536.582 14.5898 536.582 15.9219ZM532.707 15.9219C532.707 14.9531 532.629 13.9648 532.473 12.9531C532.316 11.9336 532.012 11.0156 531.566 10.2031C531.129 9.38281 530.512 8.71094 529.723 8.1875C528.941 7.65625 527.926 7.39062 526.676 7.39062C525.434 7.39062 524.426 7.65625 523.645 8.1875C522.871 8.71094 522.262 9.38281 521.816 10.2031C521.367 11.0156 521.066 11.9336 520.91 12.9531C520.754 13.9648 520.676 14.9531 520.676 15.9219C520.676 16.9023 520.754 17.8984 520.91 18.9062C521.066 19.918 521.367 20.8359 521.816 21.6563C522.262 22.4805 522.871 23.1523 523.645 23.6719C524.426 24.1953 525.434 24.4531 526.676 24.4531C527.926 24.4531 528.941 24.1953 529.723 23.6719C530.512 23.1523 531.129 22.4805 531.566 21.6563C532.012 20.8359 532.316 19.918 532.473 18.9062C532.629 17.8984 532.707 16.9023 532.707 15.9219ZM547.875 8.92188H544.75V21.9531C544.75 22.3594 544.867 22.7656 545.109 23.1719C545.359 23.5703 545.711 23.7656 546.172 23.7656H547.781L547.578 24.5938H542.813C542.258 24.5938 541.867 24.3398 541.641 23.8281C541.422 23.3203 541.313 22.7891 541.313 22.2344V8.92188H538.844L539.141 8.09375H541.313V3.32812H544.75V8.09375H548.109L547.875 8.92188ZM567.473 10.1563C567.473 11.3672 567.191 12.3594 566.629 13.1406C566.074 13.9141 565.371 14.5547 564.52 15.0625C563.664 15.5742 562.738 15.9922 561.738 16.3125C560.738 16.6367 559.785 16.9531 558.879 17.2656C557.941 17.6016 557.145 17.9531 556.488 18.3281C555.832 18.7031 555.293 19.0938 554.879 19.5C554.473 19.8984 554.18 20.293 554.004 20.6875C553.824 21.0742 553.738 21.4219 553.738 21.7344H567.441L566.41 24.5938H550.551C550.551 23.1992 551.227 21.8086 552.582 20.4219C553.934 19.0273 555.856 17.6641 558.348 16.3281C559.012 15.9766 559.645 15.5859 560.238 15.1563C560.84 14.7188 561.367 14.2305 561.816 13.6875C562.273 13.1367 562.633 12.5313 562.895 11.875C563.164 11.2188 563.301 10.4805 563.301 9.65625C563.301 8.04297 562.824 6.74219 561.879 5.75C560.941 4.76172 559.637 4.26562 557.973 4.26562C557.481 4.26562 556.934 4.32421 556.332 4.4375C555.738 4.54297 555.129 4.6875 554.504 4.875C553.887 5.0625 553.289 5.27344 552.707 5.5C552.133 5.71875 551.621 5.9375 551.176 6.15625L550.941 5.5625C551.367 5.36719 551.863 5.15234 552.426 4.92188C552.988 4.68359 553.602 4.46484 554.27 4.26562C554.934 4.07031 555.629 3.90625 556.348 3.78125C557.074 3.65625 557.805 3.59375 558.535 3.59375C559.43 3.59375 560.395 3.69922 561.426 3.90625C562.457 4.10547 563.418 4.45312 564.316 4.95312C565.223 5.45312 565.973 6.125 566.566 6.96875C567.168 7.8125 567.473 8.875 567.473 10.1563ZM591.539 15.7656C591.539 16.9219 591.293 18.0312 590.805 19.0938C590.313 20.1562 589.648 21.0938 588.805 21.9063C587.961 22.7188 586.969 23.3711 585.836 23.8594C584.699 24.3516 583.5 24.5938 582.242 24.5938H577.633L578.102 23.7656H580.539C581.422 23.7656 582.293 23.6563 583.148 23.4375C584.012 23.2109 584.777 22.8047 585.445 22.2188C586.109 21.625 586.648 20.8086 587.055 19.7656C587.461 18.7148 587.664 17.3828 587.664 15.7656C587.664 14.0586 587.465 12.6836 587.07 11.6406C586.672 10.5898 586.18 9.77344 585.586 9.1875C585 8.59375 584.371 8.19922 583.695 8C583.016 7.80469 582.406 7.70313 581.867 7.70313C580.668 7.70313 579.625 7.92969 578.742 8.375C577.856 8.8125 577.043 9.30859 576.305 9.85938V24.5938H572.867V0.4375H576.305V8.79688C576.617 8.54688 576.953 8.30469 577.32 8.0625C577.684 7.82422 578.121 7.60938 578.633 7.42188C579.152 7.22656 579.758 7.07031 580.445 6.95312C581.133 6.82812 581.949 6.76562 582.898 6.76562C583.856 6.76562 584.84 6.97656 585.852 7.39062C586.859 7.79688 587.789 8.38672 588.633 9.15625C589.477 9.91797 590.168 10.8594 590.711 11.9844C591.262 13.1016 591.539 14.3594 591.539 15.7656ZM596.707 24.5938C596.152 24.5938 595.762 24.3398 595.535 23.8281C595.316 23.3203 595.207 22.7891 595.207 22.2344V9.42188C595.207 8.91406 595.324 8.42969 595.566 7.96875C595.816 7.5 596.195 7.26562 596.707 7.26562H610.801V8.09375H600.066C599.648 8.09375 599.305 8.25781 599.035 8.57813C598.773 8.90234 598.645 9.27734 598.645 9.70313V14.7969H609.473V15.625H598.645V21.9531C598.645 22.3594 598.762 22.7656 599.004 23.1719C599.242 23.5703 599.598 23.7656 600.066 23.7656H611.863V24.5938H596.707Z" fill="#665F20"/>
<path d="M57.0469 49.125C57.0469 52.3555 56.2812 54.6875 54.75 56.125C53.2188 57.5547 50.8438 58.2656 47.625 58.2656C46.3516 58.2656 45.0977 58.1758 43.8594 58C42.6289 57.8203 41.5312 57.4766 40.5625 56.9531C39.6016 56.4219 38.8203 55.6953 38.2188 54.7656C37.625 53.8281 37.3281 52.6055 37.3281 51.0938V36.2656H41.1875V51.0625C41.1875 52.1055 41.3633 53.0234 41.7188 53.8125C42.0703 54.6055 42.5664 55.2656 43.2031 55.7969C43.8359 56.3281 44.5859 56.7344 45.4531 57.0156C46.3164 57.2891 47.2578 57.4219 48.2813 57.4219C51.0625 57.4219 53.0781 56.7656 54.3281 55.4531C55.5859 54.1328 56.2188 52.0312 56.2188 49.1562V36.2656H57.0469V49.125ZM84.0391 55.2969C83.4648 55.8086 82.793 56.25 82.0234 56.625C81.2617 57 80.4453 57.3125 79.5703 57.5625C78.7031 57.8008 77.7969 57.9766 76.8516 58.0938C75.9141 58.207 74.9805 58.2656 74.0547 58.2656C72.4922 58.2656 70.9609 58.0312 69.4609 57.5625C67.9609 57.0938 66.6172 56.3984 65.4297 55.4688C64.2422 54.5312 63.2773 53.3555 62.5391 51.9375C61.8086 50.5117 61.4453 48.8398 61.4453 46.9219C61.4453 45.2148 61.793 43.6641 62.4922 42.2656C63.1992 40.8594 64.1484 39.668 65.3359 38.6875C66.5234 37.6992 67.8906 36.9375 69.4453 36.4062C71.0078 35.8672 72.6523 35.5938 74.3828 35.5938C76.4023 35.5938 78.1055 35.7891 79.4922 36.1719C80.8867 36.5469 81.9688 36.9531 82.7422 37.3906L82.4453 38.2031C81.6641 37.6953 80.6523 37.2734 79.4141 36.9375C78.1719 36.6055 76.6719 36.4375 74.9141 36.4375C73.3594 36.4375 72.0156 36.7578 70.8828 37.3906C69.7461 38.0156 68.8086 38.8438 68.0703 39.875C67.3398 40.9062 66.7969 42.0859 66.4453 43.4062C66.0898 44.7305 65.9141 46.0859 65.9141 47.4688C65.9141 48.8047 66.1094 50.0703 66.5078 51.2656C66.9141 52.4648 67.4766 53.5273 68.1953 54.4531C68.9219 55.3711 69.7891 56.0938 70.7891 56.625C71.7891 57.1562 72.875 57.4219 74.0547 57.4219C76.3359 57.4219 77.9219 57.0078 78.8203 56.1719C79.7266 55.3398 80.1797 54.0586 80.1797 52.3281V46.7656H84.0391V55.2969ZM110.676 55.2344C109.277 56.3594 107.699 57.1484 105.941 57.5938C104.191 58.0391 102.414 58.2656 100.613 58.2656C98.9883 58.2656 97.4141 58.0312 95.8945 57.5625C94.3711 57.0938 93.0273 56.3984 91.8633 55.4688C90.6953 54.5312 89.7617 53.3555 89.0664 51.9375C88.3672 50.5117 88.0195 48.8398 88.0195 46.9219C88.0195 45.2148 88.3672 43.6641 89.0664 42.2656C89.7617 40.8594 90.6953 39.668 91.8633 38.6875C93.0273 37.6992 94.3711 36.9375 95.8945 36.4062C97.4141 35.8672 98.9883 35.5938 100.613 35.5938C101.395 35.5938 102.195 35.6484 103.02 35.75C103.852 35.8438 104.684 36 105.52 36.2188C106.352 36.4297 107.164 36.6875 107.957 37C108.746 37.3125 109.488 37.6875 110.176 38.125L109.879 39.0938C108.605 38.25 107.145 37.6016 105.488 37.1406C103.832 36.6719 102.207 36.4375 100.613 36.4375C99.1016 36.4375 97.8203 36.7578 96.7695 37.3906C95.7266 38.0156 94.8867 38.8281 94.2539 39.8281C93.6289 40.8281 93.1758 41.9531 92.8945 43.2031C92.6133 44.4453 92.4727 45.6836 92.4727 46.9219C92.4727 48.1719 92.6328 49.4219 92.957 50.6719C93.2773 51.9141 93.8047 53.0312 94.5352 54.0312C95.2734 55.0312 96.2461 55.8516 97.457 56.4844C98.6758 57.1094 100.168 57.4219 101.941 57.4219C102.473 57.4219 103.098 57.3594 103.816 57.2344C104.543 57.1016 105.293 56.9062 106.066 56.6562C106.848 56.3984 107.613 56.0742 108.363 55.6875C109.121 55.293 109.805 54.8516 110.41 54.3594L110.676 55.2344ZM146.77 51.9219C146.77 53.1953 146.398 54.2109 145.66 54.9688C144.93 55.7188 144.051 56.293 143.02 56.6875C141.988 57.0742 140.902 57.3242 139.77 57.4375C138.633 57.543 137.652 57.5938 136.832 57.5938H125.707V38.7656C125.707 38.4961 125.73 38.2148 125.785 37.9219C125.848 37.6211 125.934 37.3516 126.051 37.1094C126.176 36.8594 126.336 36.6562 126.535 36.5C126.73 36.3438 126.977 36.2656 127.27 36.2656H136.035C136.836 36.2656 137.738 36.3359 138.738 36.4688C139.738 36.5938 140.684 36.8359 141.582 37.1875C142.488 37.5312 143.242 38.0156 143.848 38.6406C144.461 39.2578 144.77 40.0547 144.77 41.0312C144.77 41.9609 144.535 42.7305 144.066 43.3438C143.598 43.9609 143.004 44.4492 142.285 44.8125C141.566 45.1797 140.789 45.4453 139.957 45.6094C139.121 45.7773 138.336 45.8984 137.598 45.9688V46.0312C138.512 46.0547 139.504 46.1641 140.566 46.3594C141.637 46.5586 142.629 46.8828 143.535 47.3281C144.449 47.7773 145.215 48.3828 145.832 49.1406C146.457 49.8906 146.77 50.8203 146.77 51.9219ZM142.301 51.5625C142.301 50.5625 142.055 49.7344 141.566 49.0781C141.074 48.4219 140.473 47.9062 139.754 47.5312C139.035 47.1562 138.27 46.8906 137.457 46.7344C136.645 46.5781 135.914 46.5 135.27 46.5H130.91L131.301 45.6562H133.707C136.059 45.6562 137.789 45.2578 138.895 44.4531C140.008 43.6406 140.566 42.543 140.566 41.1562C140.566 39.9609 140.09 38.9844 139.145 38.2344C138.207 37.4766 136.836 37.0938 135.035 37.0938H130.879C130.43 37.0938 130.098 37.3086 129.879 37.7344C129.668 38.1523 129.566 38.5859 129.566 39.0312V56.7656H136.598C138.336 56.7656 139.723 56.3555 140.754 55.5312C141.785 54.7109 142.301 53.3867 142.301 51.5625ZM151.973 57.5938C151.418 57.5938 151.027 57.3398 150.801 56.8281C150.582 56.3203 150.473 55.7891 150.473 55.2344V42.4219C150.473 41.9141 150.59 41.4297 150.832 40.9688C151.082 40.5 151.461 40.2656 151.973 40.2656H166.066V41.0938H155.332C154.914 41.0938 154.57 41.2578 154.301 41.5781C154.039 41.9023 153.91 42.2773 153.91 42.7031V47.7969H164.738V48.625H153.91V54.9531C153.91 55.3594 154.027 55.7656 154.27 56.1719C154.508 56.5703 154.863 56.7656 155.332 56.7656H167.129V57.5938H151.973ZM183.391 57.5938V47.7031H180.766C179.879 47.7031 178.992 47.7734 178.109 47.9062C177.234 48.0312 176.453 48.2891 175.766 48.6719C175.078 49.0469 174.52 49.5742 174.094 50.25C173.676 50.9297 173.469 51.8086 173.469 52.8906C173.469 54.1211 173.797 55.0742 174.453 55.75C175.109 56.4297 176.156 56.7656 177.594 56.7656H181.625L182.063 57.5938H176.625C175.758 57.5938 174.91 57.5078 174.078 57.3281C173.242 57.1523 172.492 56.8672 171.828 56.4688C171.16 56.0625 170.617 55.5273 170.203 54.8594C169.797 54.1953 169.594 53.3594 169.594 52.3594C169.594 51.5391 169.785 50.8281 170.172 50.2344C170.566 49.6328 171.086 49.1328 171.734 48.7344C172.379 48.3281 173.102 48.0078 173.906 47.7656C174.719 47.5156 175.535 47.3281 176.359 47.2031C177.18 47.0703 177.988 46.9805 178.781 46.9375C179.57 46.8867 180.254 46.8594 180.828 46.8594H183.391V45.8594C183.391 44.2656 183 42.9844 182.219 42.0156C181.445 41.0469 180.219 40.5625 178.531 40.5625C176.926 40.5625 175.484 40.7148 174.203 41.0156C172.93 41.3203 171.773 41.7578 170.734 42.3281L170.5 41.4219C171.813 40.7344 173.188 40.2891 174.625 40.0781C176.07 39.8711 177.539 39.7656 179.031 39.7656C179.988 39.7656 180.93 39.8594 181.859 40.0469C182.797 40.2344 183.629 40.5469 184.359 40.9844C185.098 41.4141 185.691 41.9844 186.141 42.7031C186.598 43.4141 186.828 44.2891 186.828 45.3281V57.5938H183.391ZM205.453 57.5938V40.2656H208.891V57.5938H205.453ZM198.422 57.5938C197.297 57.5938 196.285 57.4805 195.391 57.25C194.504 57.0117 193.758 56.6172 193.156 56.0625C192.563 55.5117 192.109 54.7773 191.797 53.8594C191.484 52.9336 191.328 51.7773 191.328 50.3906V40.2656H194.766V50.4219C194.766 51.2266 194.852 52.0078 195.031 52.7656C195.207 53.5156 195.488 54.1875 195.875 54.7812C196.27 55.3672 196.773 55.8438 197.391 56.2188C198.016 56.5859 198.77 56.7656 199.656 56.7656H203.656L204.125 57.5938H198.422ZM220.723 41.9219H217.598V54.9531C217.598 55.3594 217.715 55.7656 217.957 56.1719C218.207 56.5703 218.559 56.7656 219.02 56.7656H220.629L220.426 57.5938H215.66C215.105 57.5938 214.715 57.3398 214.488 56.8281C214.27 56.3203 214.16 55.7891 214.16 55.2344V41.9219H211.691L211.988 41.0938H214.16V36.3281H217.598V41.0938H220.957L220.723 41.9219ZM232.227 57.2969C231.977 57.7656 231.699 58.2656 231.398 58.7969C231.105 59.3281 230.793 59.8438 230.461 60.3438C230.125 60.8438 229.766 61.3125 229.383 61.75C229.008 62.1953 228.609 62.5781 228.195 62.8906C227.016 63.7539 225.461 64.1875 223.523 64.1875H223.055L223.352 63.3281C223.996 63.3281 224.563 63.2852 225.055 63.2031C225.543 63.1289 226.012 63.0039 226.461 62.8281C227.012 62.6094 227.516 62.2891 227.977 61.875C228.434 61.4688 228.852 61.0195 229.227 60.5312C229.602 60.0391 229.922 59.5469 230.195 59.0469C230.477 58.5469 230.703 58.0938 230.883 57.6875L222.086 40.2656H225.992L232.93 54L240.023 40.2656H241.023L232.227 57.2969ZM253.449 58.2656H251.418L260.121 35.5938H262.152L253.449 58.2656ZM294.684 41.8594C294.684 42.9961 294.281 43.9375 293.48 44.6875C292.676 45.4297 291.684 46.0156 290.496 46.4531C289.309 46.8828 288.043 47.1836 286.699 47.3594C285.355 47.5391 284.137 47.625 283.043 47.625C282.531 47.625 282.027 47.6172 281.527 47.5938C281.027 47.5742 280.656 47.543 280.418 47.5L280.652 46.7031C280.828 46.7461 281.082 46.7734 281.418 46.7813C281.75 46.793 282.094 46.7969 282.449 46.7969C284.957 46.7969 286.879 46.3399 288.215 45.4219C289.547 44.4961 290.215 43.2422 290.215 41.6563C290.215 40.793 290 40.0703 289.574 39.4844C289.156 38.8906 288.613 38.418 287.949 38.0625C287.281 37.7109 286.543 37.4609 285.73 37.3125C284.918 37.168 284.121 37.0938 283.34 37.0938H280.387C279.938 37.0938 279.605 37.3086 279.387 37.7344C279.176 38.1524 279.074 38.5859 279.074 39.0313V57.5938H275.215V38.7656C275.215 38.4961 275.238 38.2148 275.293 37.9219C275.355 37.6211 275.441 37.3516 275.559 37.1094C275.684 36.8594 275.844 36.6562 276.043 36.5C276.238 36.3438 276.484 36.2656 276.777 36.2656H284.746C285.609 36.2656 286.613 36.3438 287.762 36.5C288.906 36.6562 289.988 36.9492 291.012 37.375C292.031 37.793 292.895 38.3594 293.605 39.0781C294.324 39.7969 294.684 40.7266 294.684 41.8594ZM311.141 57.5938C311.055 57.2812 310.93 56.875 310.766 56.375C310.598 55.875 310.406 55.3516 310.188 54.7969C309.977 54.2461 309.766 53.6953 309.547 53.1406C309.328 52.5781 309.113 52.0859 308.906 51.6562C308.645 51.0859 308.359 50.6172 308.047 50.25C307.734 49.875 307.359 49.5742 306.922 49.3438C306.492 49.1172 305.988 48.9609 305.406 48.875C304.832 48.7812 304.145 48.7344 303.344 48.7344H302.281L302.812 47.9219H305.484C306.117 47.9219 306.723 47.8672 307.297 47.75C307.879 47.625 308.391 47.4219 308.828 47.1406C309.266 46.8516 309.613 46.4766 309.875 46.0156C310.145 45.5586 310.281 44.9844 310.281 44.2969C310.281 43.7656 310.145 43.3047 309.875 42.9062C309.613 42.5 309.25 42.168 308.781 41.9062C308.312 41.6367 307.766 41.4336 307.141 41.2969C306.523 41.1641 305.848 41.0938 305.109 41.0938H302.375C301.957 41.0938 301.613 41.2578 301.344 41.5781C301.082 41.9023 300.953 42.2773 300.953 42.7031V57.5938H297.516V42.4219C297.516 41.9141 297.633 41.4297 297.875 40.9688C298.125 40.5 298.504 40.2656 299.016 40.2656H304.281C307.5 40.2656 309.891 40.5898 311.453 41.2344C313.023 41.8828 313.812 42.9688 313.812 44.5C313.812 45.1875 313.648 45.7812 313.328 46.2812C313.004 46.7812 312.562 47.2031 312 47.5469C311.445 47.8906 310.789 48.1562 310.031 48.3438C309.281 48.5312 308.473 48.6484 307.609 48.6875V48.7344C308.41 48.9141 309.113 49.1094 309.719 49.3281C310.332 49.5469 310.875 49.8438 311.344 50.2188C311.812 50.5859 312.227 51.0391 312.594 51.5781C312.957 52.1211 313.305 52.793 313.641 53.5938L315.281 57.5938H311.141ZM337.043 48.9219C337.043 50.2578 336.793 51.4844 336.293 52.6094C335.793 53.7344 335.098 54.7031 334.215 55.5156C333.34 56.3281 332.297 56.9648 331.09 57.4219C329.879 57.8672 328.562 58.0938 327.137 58.0938C325.719 58.0938 324.406 57.8672 323.199 57.4219C322 56.9648 320.965 56.3281 320.09 55.5156C319.215 54.7031 318.527 53.7344 318.027 52.6094C317.527 51.4844 317.277 50.2578 317.277 48.9219C317.277 47.5898 317.527 46.3672 318.027 45.25C318.527 44.125 319.215 43.1562 320.09 42.3438C320.965 41.5312 322 40.9023 323.199 40.4531C324.406 39.9961 325.719 39.7656 327.137 39.7656C328.562 39.7656 329.879 39.9961 331.09 40.4531C332.297 40.9023 333.34 41.5312 334.215 42.3438C335.098 43.1562 335.793 44.125 336.293 45.25C336.793 46.3672 337.043 47.5898 337.043 48.9219ZM333.168 48.9219C333.168 47.9531 333.09 46.9648 332.934 45.9531C332.777 44.9336 332.473 44.0156 332.027 43.2031C331.59 42.3828 330.973 41.7109 330.184 41.1875C329.402 40.6562 328.387 40.3906 327.137 40.3906C325.895 40.3906 324.887 40.6562 324.105 41.1875C323.332 41.7109 322.723 42.3828 322.277 43.2031C321.828 44.0156 321.527 44.9336 321.371 45.9531C321.215 46.9648 321.137 47.9531 321.137 48.9219C321.137 49.9023 321.215 50.8984 321.371 51.9062C321.527 52.918 321.828 53.8359 322.277 54.6562C322.723 55.4805 323.332 56.1523 324.105 56.6719C324.887 57.1953 325.895 57.4531 327.137 57.4531C328.387 57.4531 329.402 57.1953 330.184 56.6719C330.973 56.1523 331.59 55.4805 332.027 54.6562C332.473 53.8359 332.777 52.918 332.934 51.9062C333.09 50.8984 333.168 49.9023 333.168 48.9219ZM354.742 57.5938V42.4219C354.023 41.9844 353.242 41.6055 352.398 41.2812C351.555 40.9609 350.57 40.7969 349.445 40.7969C348.883 40.7969 348.262 40.8906 347.586 41.0781C346.906 41.2656 346.273 41.6484 345.68 42.2188C345.094 42.7812 344.602 43.5898 344.195 44.6406C343.797 45.6836 343.602 47.0586 343.602 48.7656C343.602 50.5156 343.781 51.918 344.148 52.9688C344.523 54.0117 345.027 54.8203 345.664 55.3906C346.309 55.9531 347.059 56.3242 347.914 56.5C348.777 56.6797 349.711 56.7656 350.711 56.7656H352.945L353.398 57.5938H348.336C347.156 57.5938 346.047 57.3984 345.008 57C343.965 56.5938 343.055 56.0234 342.273 55.2812C341.492 54.5312 340.871 53.6094 340.414 52.5156C339.965 51.4141 339.742 50.1641 339.742 48.7656C339.742 47.6094 339.961 46.4961 340.398 45.4219C340.844 44.3398 341.449 43.3828 342.211 42.5469C342.98 41.7148 343.887 41.043 344.93 40.5312C345.98 40.0234 347.117 39.7656 348.336 39.7656C349.219 39.7656 349.992 39.8125 350.648 39.9062C351.305 39.9922 351.883 40.1055 352.383 40.25C352.883 40.3984 353.32 40.5703 353.695 40.7656C354.078 40.9648 354.43 41.1719 354.742 41.3906V33.4375H358.164V57.5938H354.742ZM376.895 57.5938V40.2656H380.332V57.5938H376.895ZM369.863 57.5938C368.738 57.5938 367.727 57.4805 366.832 57.25C365.945 57.0117 365.199 56.6172 364.598 56.0625C364.004 55.5117 363.551 54.7773 363.238 53.8594C362.926 52.9336 362.77 51.7773 362.77 50.3906V40.2656H366.207V50.4219C366.207 51.2266 366.293 52.0078 366.473 52.7656C366.648 53.5156 366.93 54.1875 367.316 54.7812C367.711 55.3672 368.215 55.8438 368.832 56.2188C369.457 56.5859 370.211 56.7656 371.098 56.7656H375.098L375.566 57.5938H369.863ZM398.098 57.5938L394.926 52.3281C394.746 52.0391 394.523 51.6562 394.254 51.1875C393.992 50.7109 393.695 50.2422 393.363 49.7812C393.027 49.3242 392.652 48.9297 392.238 48.5938C391.832 48.2617 391.402 48.0938 390.957 48.0938C390.695 48.0938 390.457 48.1797 390.238 48.3438C390.027 48.5117 389.793 48.75 389.535 49.0625V47.8281L398.801 40.2656H400.129L391.535 47.2344V47.2969C391.691 47.2773 391.832 47.2656 391.957 47.2656C392.09 47.2656 392.227 47.2656 392.363 47.2656C393.363 47.2656 394.195 47.4141 394.863 47.7031C395.527 47.9844 396.117 48.375 396.629 48.875C397.137 49.375 397.602 49.9492 398.02 50.5938C398.445 51.2422 398.902 51.9297 399.395 52.6562L402.66 57.5938H398.098ZM384.77 57.5938V33.4375H388.191V57.5938H384.77ZM413.625 41.9219H410.5V54.9531C410.5 55.3594 410.617 55.7656 410.859 56.1719C411.109 56.5703 411.461 56.7656 411.922 56.7656H413.531L413.328 57.5938H408.563C408.008 57.5938 407.617 57.3398 407.391 56.8281C407.172 56.3203 407.063 55.7891 407.063 55.2344V41.9219H404.594L404.891 41.0938H407.063V36.3281H410.5V41.0938H413.859L413.625 41.9219ZM447.754 57.0312C447.637 57.2305 447.52 57.4023 447.395 57.5469C447.277 57.6914 447.145 57.7656 446.988 57.7656C446.738 57.7656 446.539 57.5742 446.395 57.1875L440.988 45.1562C440.926 44.9805 440.824 44.8906 440.691 44.8906C440.555 44.8906 440.457 44.9805 440.395 45.1562L435.488 57.1875C435.309 57.6133 435.066 57.8281 434.754 57.8281C434.441 57.8281 434.184 57.6133 433.988 57.1875L425.785 40.2656H429.816L435.691 52.3281C435.773 52.5078 435.883 52.5938 436.02 52.5938C436.176 52.5938 436.301 52.5078 436.395 52.3281L441.223 40.7969C441.305 40.6016 441.418 40.4531 441.566 40.3594C441.711 40.2578 441.863 40.2031 442.02 40.2031C442.371 40.2031 442.648 40.4023 442.848 40.7969L448.16 52.3281C448.242 52.5078 448.352 52.5938 448.488 52.5938C448.645 52.5938 448.762 52.5078 448.848 52.3281L454.551 40.2656H455.613L447.754 57.0312ZM483.145 57.5938V40.2656H486.582V57.5938H483.145ZM476.113 57.5938C474.988 57.5938 473.977 57.4805 473.082 57.25C472.195 57.0117 471.449 56.6172 470.848 56.0625C470.254 55.5117 469.801 54.7773 469.488 53.8594C469.176 52.9336 469.02 51.7773 469.02 50.3906V40.2656H472.457V50.4219C472.457 51.2266 472.543 52.0078 472.723 52.7656C472.898 53.5156 473.18 54.1875 473.566 54.7812C473.961 55.3672 474.465 55.8438 475.082 56.2188C475.707 56.5859 476.461 56.7656 477.348 56.7656H481.348L481.816 57.5938H476.113ZM505.441 40.7031C505.441 40.8828 505.34 41.125 505.145 41.4375C504.945 41.7422 504.645 42.1641 504.238 42.7031L494.285 55.7344C494.035 56.0391 493.91 56.2656 493.91 56.4219C493.91 56.6016 493.992 56.7031 494.16 56.7344C494.324 56.7578 494.496 56.7656 494.676 56.7656H504.973V57.5938H490.707C490.332 57.5938 490.008 57.5742 489.738 57.5312C489.477 57.4805 489.348 57.3359 489.348 57.0938C489.348 56.918 489.434 56.668 489.613 56.3438C489.789 56.0234 490.09 55.5938 490.52 55.0625L500.41 42.3281C500.543 42.1523 500.668 41.9805 500.785 41.8125C500.91 41.6484 500.973 41.4961 500.973 41.3594C500.973 41.1836 500.785 41.0938 500.41 41.0938H490.91V40.2656H503.973C504.441 40.2656 504.801 40.2891 505.051 40.3281C505.309 40.3711 505.441 40.4961 505.441 40.7031ZM499.473 35.7656C499.473 36.2969 499.273 36.7656 498.879 37.1719C498.48 37.5703 498.012 37.7656 497.473 37.7656C496.941 37.7656 496.473 37.5703 496.066 37.1719C495.668 36.7656 495.473 36.2969 495.473 35.7656C495.473 35.2344 495.668 34.7734 496.066 34.375C496.473 33.9688 496.941 33.7656 497.473 33.7656C498.012 33.7656 498.48 33.9688 498.879 34.375C499.273 34.7734 499.473 35.2344 499.473 35.7656ZM516.914 57.2969C516.664 57.7656 516.387 58.2656 516.086 58.7969C515.793 59.3281 515.48 59.8438 515.148 60.3438C514.813 60.8438 514.453 61.3125 514.07 61.75C513.695 62.1953 513.297 62.5781 512.883 62.8906C511.703 63.7539 510.148 64.1875 508.211 64.1875H507.742L508.039 63.3281C508.684 63.3281 509.25 63.2852 509.742 63.2031C510.23 63.1289 510.699 63.0039 511.148 62.8281C511.699 62.6094 512.203 62.2891 512.664 61.875C513.121 61.4688 513.539 61.0195 513.914 60.5312C514.289 60.0391 514.609 59.5469 514.883 59.0469C515.164 58.5469 515.391 58.0938 515.57 57.6875L506.773 40.2656H510.68L517.617 54L524.711 40.2656H525.711L516.914 57.2969ZM544.934 55.5312C544.09 56.2812 543.004 56.8984 541.684 57.375C540.371 57.8516 538.855 58.0938 537.137 58.0938C535.719 58.0938 534.406 57.8672 533.199 57.4219C532 56.9648 530.965 56.3281 530.09 55.5156C529.215 54.7031 528.527 53.7344 528.027 52.6094C527.527 51.4844 527.277 50.2578 527.277 48.9219C527.277 47.5898 527.527 46.3672 528.027 45.25C528.527 44.125 529.215 43.1562 530.09 42.3438C530.965 41.5312 532 40.9023 533.199 40.4531C534.406 39.9961 535.719 39.7656 537.137 39.7656C538.738 39.7656 540.172 39.9766 541.434 40.3906C542.703 40.7969 543.73 41.2656 544.512 41.7969L544.277 42.7031C543.379 42.1016 542.344 41.5938 541.168 41.1875C539.988 40.7734 538.637 40.5625 537.105 40.5625C536.02 40.5625 535.098 40.8086 534.34 41.2969C533.59 41.7891 532.973 42.4297 532.496 43.2188C532.016 44 531.668 44.8906 531.449 45.8906C531.238 46.8906 531.137 47.9023 531.137 48.9219C531.137 50.4336 531.324 51.7148 531.699 52.7656C532.082 53.8086 532.578 54.6562 533.184 55.3125C533.797 55.9688 534.484 56.4492 535.246 56.75C536.016 57.043 536.793 57.1875 537.574 57.1875C539 57.1875 540.309 56.9688 541.496 56.5312C542.684 56.0859 543.73 55.4688 544.637 54.6875L544.934 55.5312ZM552.566 36C552.566 36.5312 552.379 36.9961 552.004 37.3906C551.629 37.7773 551.148 37.9688 550.566 37.9688C550.035 37.9688 549.574 37.7773 549.191 37.3906C548.805 36.9961 548.613 36.5312 548.613 36C548.613 35.4688 548.805 35.0078 549.191 34.6094C549.574 34.2031 550.035 34 550.566 34C551.148 34 551.629 34.2031 552.004 34.6094C552.379 35.0078 552.566 35.4688 552.566 36ZM548.879 57.5938V40.2656H552.301V57.5938H548.879ZM571.594 57.5938V40.2656H575.031V57.5938H571.594ZM564.562 57.5938C563.438 57.5938 562.426 57.4805 561.531 57.25C560.645 57.0117 559.898 56.6172 559.297 56.0625C558.703 55.5117 558.25 54.7773 557.938 53.8594C557.625 52.9336 557.469 51.7773 557.469 50.3906V40.2656H560.906V50.4219C560.906 51.2266 560.992 52.0078 561.172 52.7656C561.348 53.5156 561.629 54.1875 562.016 54.7812C562.41 55.3672 562.914 55.8438 563.531 56.2188C564.156 56.5859 564.91 56.7656 565.797 56.7656H569.797L570.266 57.5938H564.562Z" fill="#665F20"/>
</svg>
