<svg width="555" height="47" viewBox="0 0 555 47" fill="none" xmlns="http://www.w3.org/2000/svg">
<path d="M41.6875 44.7812C41.4766 45.168 41.2539 45.4961 41.0156 45.7656C40.7852 46.0352 40.5234 46.1719 40.2344 46.1719C39.7656 46.1719 39.3828 45.8125 39.0938 45.0938L28.8438 22.2656C28.7188 21.9336 28.5313 21.7656 28.2813 21.7656C28.0313 21.7656 27.8438 21.9336 27.7188 22.2656L18.4063 45.0938C18.0703 45.8945 17.6094 46.2969 17.0156 46.2969C16.4297 46.2969 15.9453 45.8945 15.5625 45.0938L0 12.9688H7.65625L18.7969 35.8594C18.9609 36.2031 19.1719 36.375 19.4219 36.375C19.7227 36.375 19.957 36.2031 20.125 35.8594L29.2969 13.9844C29.4609 13.6016 29.6797 13.3125 29.9531 13.125C30.2344 12.9375 30.5195 12.8438 30.8125 12.8438C31.4883 12.8438 32.0156 13.2266 32.3906 13.9844L42.4531 35.8594C42.6172 36.2031 42.8281 36.375 43.0781 36.375C43.3789 36.375 43.6133 36.2031 43.7813 35.8594L54.5938 12.9688H56.6094L41.6875 44.7812ZM64.7773 45.8594C63.7227 45.8594 62.9844 45.375 62.5586 44.4062C62.1406 43.4375 61.9336 42.4297 61.9336 41.375V17.0781C61.9336 16.1094 62.1602 15.1836 62.6211 14.2969C63.0898 13.4141 63.8086 12.9688 64.7773 12.9688H91.5273V14.5469H71.168C70.3633 14.5469 69.707 14.8555 69.1992 15.4688C68.6875 16.0859 68.4336 16.793 68.4336 17.5938V27.2656H88.9961V28.8438H68.4336V40.8594C68.4336 41.6211 68.668 42.3828 69.1367 43.1406C69.6055 43.9023 70.2812 44.2812 71.168 44.2812H93.5586V45.8594H64.7773ZM125.746 45.8594C125.578 45.2656 125.332 44.4961 125.012 43.5469C124.699 42.6016 124.34 41.6016 123.934 40.5469C123.535 39.4961 123.125 38.4453 122.699 37.3906C122.281 36.3281 121.887 35.3984 121.512 34.5938C121 33.5 120.449 32.6094 119.855 31.9219C119.27 31.2266 118.566 30.6562 117.746 30.2188C116.922 29.7734 115.965 29.4648 114.871 29.2969C113.777 29.1211 112.469 29.0312 110.949 29.0312H108.918L109.934 27.5156H114.996C116.215 27.5156 117.371 27.4023 118.465 27.1719C119.566 26.9453 120.531 26.5547 121.355 26C122.176 25.4492 122.84 24.7422 123.34 23.875C123.848 23.0117 124.105 21.9297 124.105 20.625C124.105 19.6172 123.848 18.7305 123.34 17.9688C122.84 17.2109 122.145 16.5781 121.262 16.0781C120.375 15.5703 119.34 15.1875 118.152 14.9375C116.973 14.6797 115.687 14.5469 114.293 14.5469H109.121C108.316 14.5469 107.66 14.8555 107.152 15.4688C106.641 16.0859 106.387 16.793 106.387 17.5938V45.8594H99.8867V17.0781C99.8867 16.1094 100.113 15.1836 100.574 14.2969C101.043 13.4141 101.762 12.9688 102.73 12.9688H112.715C118.828 12.9688 123.371 13.5859 126.34 14.8125C129.316 16.0312 130.809 18.0938 130.809 21C130.809 22.3125 130.5 23.4453 129.887 24.3906C129.281 25.3398 128.449 26.1406 127.387 26.7969C126.332 27.4453 125.09 27.9492 123.652 28.3125C122.223 28.668 120.687 28.8867 119.043 28.9688V29.0312C120.562 29.375 121.902 29.7617 123.059 30.1875C124.215 30.6055 125.234 31.1641 126.121 31.8594C127.004 32.5469 127.797 33.4141 128.496 34.4531C129.191 35.4844 129.859 36.7578 130.496 38.2656L133.59 45.8594H125.746ZM174.891 29.4219C174.891 31.9453 174.414 34.2734 173.469 36.4062C172.52 38.5312 171.211 40.3672 169.547 41.9062C167.879 43.4492 165.895 44.6523 163.594 45.5156C161.301 46.3789 158.805 46.8125 156.109 46.8125C153.41 46.8125 150.922 46.3789 148.641 45.5156C146.367 44.6523 144.398 43.4492 142.734 41.9062C141.066 40.3672 139.758 38.5312 138.812 36.4062C137.863 34.2734 137.391 31.9453 137.391 29.4219C137.391 26.8906 137.863 24.5625 138.812 22.4375C139.758 20.3047 141.066 18.4648 142.734 16.9219C144.398 15.3828 146.367 14.1797 148.641 13.3125C150.922 12.4492 153.41 12.0156 156.109 12.0156C158.805 12.0156 161.301 12.4492 163.594 13.3125C165.895 14.1797 167.879 15.3828 169.547 16.9219C171.211 18.4648 172.52 20.3047 173.469 22.4375C174.414 24.5625 174.891 26.8906 174.891 29.4219ZM167.563 29.4219C167.563 27.5586 167.41 25.668 167.109 23.75C166.816 21.8359 166.25 20.0938 165.406 18.5312C164.563 16.9688 163.391 15.6953 161.891 14.7031C160.398 13.7148 158.473 13.2188 156.109 13.2188C153.742 13.2188 151.82 13.7148 150.344 14.7031C148.875 15.6953 147.719 16.9688 146.875 18.5312C146.031 20.0938 145.457 21.8359 145.156 23.75C144.863 25.668 144.719 27.5586 144.719 29.4219C144.719 31.2773 144.863 33.1641 145.156 35.0781C145.457 36.9961 146.031 38.7344 146.875 40.2969C147.719 41.8594 148.875 43.1367 150.344 44.125C151.82 45.1172 153.742 45.6094 156.109 45.6094C158.473 45.6094 160.398 45.1172 161.891 44.125C163.391 43.1367 164.563 41.8594 165.406 40.2969C166.25 38.7344 166.816 36.9961 167.109 35.0781C167.41 33.1641 167.563 31.2773 167.563 29.4219ZM214.047 43.7031C214.047 44.7656 213.906 45.5078 213.625 45.9219C213.352 46.3477 213.008 46.5625 212.594 46.5625C212.125 46.5625 211.602 46.3672 211.031 45.9844C210.469 45.6094 209.953 45.1875 209.484 44.7188L185.516 22.2031C184.973 21.6953 184.531 21.4375 184.188 21.4375C183.938 21.4375 183.75 21.5469 183.625 21.7656C183.5 21.9766 183.438 22.2031 183.438 22.4531V45.8594H181.859V14.4844C181.859 13.7266 182.035 13.168 182.391 12.8125C182.742 12.4609 183.176 12.2812 183.688 12.2812C184.281 12.2812 184.891 12.5547 185.516 13.0938L210.438 36.25C210.781 36.5859 211.066 36.8047 211.297 36.9062C211.523 37.0117 211.703 37.0625 211.828 37.0625C212.086 37.0625 212.258 36.9609 212.344 36.75C212.426 36.543 212.469 36.3359 212.469 36.125V12.9688H214.047V43.7031ZM230.813 4.875C230.813 5.88672 230.453 6.76172 229.734 7.5C229.016 8.24219 228.109 8.60938 227.016 8.60938C226.004 8.60938 225.129 8.24219 224.391 7.5C223.648 6.76172 223.281 5.88672 223.281 4.875C223.281 3.86719 223.648 2.98047 224.391 2.21875C225.129 1.46094 226.004 1.07812 227.016 1.07812C228.109 1.07812 229.016 1.46094 229.734 2.21875C230.453 2.98047 230.813 3.86719 230.813 4.875ZM223.781 45.8594V12.9688H230.297V45.8594H223.781ZM266.16 45.8594L260.145 35.8594C259.809 35.3203 259.387 34.5938 258.879 33.6875C258.379 32.7812 257.809 31.8984 257.176 31.0312C256.551 30.168 255.848 29.418 255.066 28.7812C254.285 28.1484 253.473 27.8281 252.629 27.8281C252.117 27.8281 251.66 27.9922 251.254 28.3125C250.855 28.625 250.41 29.0781 249.91 29.6719V27.3281L267.488 12.9688H270.02L253.707 26.1875V26.3125C253.996 26.2734 254.27 26.25 254.52 26.25C254.77 26.25 255.023 26.25 255.285 26.25C257.18 26.25 258.758 26.5273 260.02 27.0781C261.289 27.6211 262.41 28.3711 263.379 29.3281C264.348 30.2773 265.23 31.3594 266.035 32.5781C266.836 33.7969 267.699 35.1055 268.629 36.5L274.832 45.8594H266.16ZM240.863 45.8594V0H247.379V45.8594H240.863ZM305.754 45.8594V27.0781H300.754C299.066 27.0781 297.387 27.2031 295.723 27.4531C294.066 27.7031 292.582 28.1875 291.27 28.9062C289.965 29.625 288.914 30.6328 288.113 31.9219C287.309 33.2031 286.91 34.875 286.91 36.9375C286.91 39.2617 287.527 41.0703 288.77 42.3594C290.02 43.6406 292.012 44.2812 294.754 44.2812H302.41L303.223 45.8594H292.91C291.273 45.8594 289.664 45.6953 288.082 45.3594C286.496 45.0156 285.07 44.4688 283.801 43.7188C282.539 42.9609 281.52 41.9492 280.738 40.6875C279.957 39.418 279.566 37.8281 279.566 35.9219C279.566 34.3711 279.934 33.0273 280.676 31.8906C281.414 30.7461 282.395 29.793 283.613 29.0312C284.84 28.2734 286.223 27.6641 287.754 27.2031C289.293 26.7344 290.848 26.375 292.41 26.125C293.973 25.875 295.496 25.7109 296.988 25.625C298.488 25.543 299.785 25.5 300.879 25.5H305.754V23.5938C305.754 20.5625 305.012 18.1328 303.535 16.2969C302.066 14.4531 299.727 13.5312 296.52 13.5312C293.488 13.5312 290.758 13.8203 288.332 14.3906C285.902 14.9648 283.699 15.7969 281.723 16.8906L281.285 15.1875C283.762 13.875 286.371 13.0234 289.113 12.625C291.863 12.2188 294.648 12.0156 297.473 12.0156C299.285 12.0156 301.074 12.1992 302.848 12.5625C304.617 12.918 306.195 13.5078 307.582 14.3281C308.977 15.1523 310.105 16.2422 310.973 17.5938C311.836 18.9375 312.27 20.6016 312.27 22.5781V45.8594H305.754ZM367.363 45.8594L361.348 35.8594C361.012 35.3203 360.59 34.5938 360.082 33.6875C359.582 32.7812 359.012 31.8984 358.379 31.0312C357.754 30.168 357.051 29.418 356.27 28.7812C355.488 28.1484 354.676 27.8281 353.832 27.8281C353.32 27.8281 352.863 27.9922 352.457 28.3125C352.059 28.625 351.613 29.0781 351.113 29.6719V27.3281L368.691 12.9688H371.223L354.91 26.1875V26.3125C355.199 26.2734 355.473 26.25 355.723 26.25C355.973 26.25 356.227 26.25 356.488 26.25C358.383 26.25 359.961 26.5273 361.223 27.0781C362.492 27.6211 363.613 28.3711 364.582 29.3281C365.551 30.2773 366.434 31.3594 367.238 32.5781C368.039 33.7969 368.902 35.1055 369.832 36.5L376.035 45.8594H367.363ZM342.066 45.8594V0H348.582V45.8594H342.066ZM408.859 45.8594V12.9688H415.375V45.8594H408.859ZM395.5 45.8594C393.352 45.8594 391.438 45.6406 389.75 45.2031C388.062 44.7578 386.648 44.0078 385.516 42.9531C384.379 41.9023 383.516 40.5 382.922 38.75C382.328 37 382.031 34.8203 382.031 32.2031V12.9688H388.547V32.2656C388.547 33.7773 388.711 35.25 389.047 36.6875C389.391 38.125 389.93 39.4023 390.672 40.5156C391.41 41.6328 392.367 42.5391 393.547 43.2344C394.723 43.9336 396.156 44.2812 397.844 44.2812H405.438L406.328 45.8594H395.5ZM458.629 29.0938C458.629 31.293 458.164 33.4023 457.238 35.4219C456.309 37.4453 455.043 39.2266 453.441 40.7656C451.848 42.3086 449.973 43.543 447.816 44.4688C445.668 45.3984 443.395 45.8594 440.988 45.8594H432.254L433.145 44.2812H437.754C439.441 44.2812 441.098 44.0742 442.723 43.6562C444.348 43.2305 445.789 42.4609 447.051 41.3438C448.32 40.2187 449.348 38.668 450.129 36.6875C450.91 34.7109 451.301 32.1797 451.301 29.0938C451.301 25.8555 450.918 23.2461 450.16 21.2656C449.398 19.2773 448.457 17.7266 447.332 16.6094C446.215 15.4961 445.02 14.75 443.738 14.375C442.457 13.9922 441.305 13.7969 440.285 13.7969C438.012 13.7969 436.035 14.2188 434.348 15.0625C432.66 15.9062 431.117 16.8555 429.723 17.9062V45.8594H423.207V0H429.723V15.875C430.316 15.418 430.961 14.9609 431.66 14.5C432.355 14.0312 433.191 13.6211 434.16 13.2656C435.129 12.9023 436.262 12.6055 437.566 12.375C438.879 12.1367 440.441 12.0156 442.254 12.0156C444.066 12.0156 445.93 12.4062 447.848 13.1875C449.762 13.9688 451.523 15.0898 453.129 16.5469C454.73 17.9961 456.051 19.7891 457.082 21.9219C458.113 24.0469 458.629 26.4375 458.629 29.0938ZM490.129 45.8594V27.0781H485.129C483.441 27.0781 481.762 27.2031 480.098 27.4531C478.441 27.7031 476.957 28.1875 475.645 28.9062C474.34 29.625 473.289 30.6328 472.488 31.9219C471.684 33.2031 471.285 34.875 471.285 36.9375C471.285 39.2617 471.902 41.0703 473.145 42.3594C474.395 43.6406 476.387 44.2812 479.129 44.2812H486.785L487.598 45.8594H477.285C475.648 45.8594 474.039 45.6953 472.457 45.3594C470.871 45.0156 469.445 44.4688 468.176 43.7188C466.914 42.9609 465.895 41.9492 465.113 40.6875C464.332 39.418 463.941 37.8281 463.941 35.9219C463.941 34.3711 464.309 33.0273 465.051 31.8906C465.789 30.7461 466.77 29.793 467.988 29.0312C469.215 28.2734 470.598 27.6641 472.129 27.2031C473.668 26.7344 475.223 26.375 476.785 26.125C478.348 25.875 479.871 25.7109 481.363 25.625C482.863 25.543 484.16 25.5 485.254 25.5H490.129V23.5938C490.129 20.5625 489.387 18.1328 487.91 16.2969C486.441 14.4531 484.102 13.5312 480.895 13.5312C477.863 13.5312 475.133 13.8203 472.707 14.3906C470.277 14.9648 468.074 15.7969 466.098 16.8906L465.66 15.1875C468.137 13.875 470.746 13.0234 473.488 12.625C476.238 12.2188 479.023 12.0156 481.848 12.0156C483.66 12.0156 485.449 12.1992 487.223 12.5625C488.992 12.918 490.57 13.5078 491.957 14.3281C493.352 15.1523 494.48 16.2422 495.348 17.5938C496.211 18.9375 496.645 20.6016 496.645 22.5781V45.8594H490.129ZM517.195 45.8594H509.289C508.234 45.8594 507.496 45.375 507.07 44.4062C506.652 43.4375 506.445 42.4297 506.445 41.375V0H512.961V40.8594C512.961 41.6211 513.187 42.3828 513.648 43.1406C514.117 43.9023 514.793 44.2812 515.68 44.2812H517.711L517.195 45.8594ZM547.688 45.8594V27.0781H542.688C541 27.0781 539.32 27.2031 537.656 27.4531C536 27.7031 534.516 28.1875 533.203 28.9062C531.898 29.625 530.848 30.6328 530.047 31.9219C529.242 33.2031 528.844 34.875 528.844 36.9375C528.844 39.2617 529.461 41.0703 530.703 42.3594C531.953 43.6406 533.945 44.2812 536.688 44.2812H544.344L545.156 45.8594H534.844C533.207 45.8594 531.598 45.6953 530.016 45.3594C528.43 45.0156 527.004 44.4688 525.734 43.7188C524.473 42.9609 523.453 41.9492 522.672 40.6875C521.891 39.418 521.5 37.8281 521.5 35.9219C521.5 34.3711 521.867 33.0273 522.609 31.8906C523.348 30.7461 524.328 29.793 525.547 29.0312C526.773 28.2734 528.156 27.6641 529.688 27.2031C531.227 26.7344 532.781 26.375 534.344 26.125C535.906 25.875 537.43 25.7109 538.922 25.625C540.422 25.543 541.719 25.5 542.812 25.5H547.688V23.5938C547.688 20.5625 546.945 18.1328 545.469 16.2969C544 14.4531 541.66 13.5312 538.453 13.5312C535.422 13.5312 532.691 13.8203 530.266 14.3906C527.836 14.9648 525.633 15.7969 523.656 16.8906L523.219 15.1875C525.695 13.875 528.305 13.0234 531.047 12.625C533.797 12.2188 536.582 12.0156 539.406 12.0156C541.219 12.0156 543.008 12.1992 544.781 12.5625C546.551 12.918 548.129 13.5078 549.516 14.3281C550.91 15.1523 552.039 16.2422 552.906 17.5938C553.77 18.9375 554.203 20.6016 554.203 22.5781V45.8594H547.688Z" fill="#665F20"/>
</svg>
