<svg width="500" height="64" viewBox="0 0 500 64" fill="none" xmlns="http://www.w3.org/2000/svg">
<path d="M68.8906 13.4844C68.8906 15.2031 68.5352 16.7617 67.8281 18.1562C67.1289 19.5547 66.1953 20.7461 65.0312 21.7344C63.8633 22.7266 62.5234 23.4922 61.0156 24.0313C59.5039 24.5625 57.9258 24.8281 56.2812 24.8281C54.6641 24.8281 53.0938 24.5625 51.5625 24.0313C50.0391 23.4922 48.6953 22.7266 47.5312 21.7344C46.3633 20.7461 45.4297 19.5547 44.7344 18.1562C44.0352 16.7617 43.6875 15.2031 43.6875 13.4844C43.6875 11.7773 44.0352 10.2266 44.7344 8.82813C45.4297 7.42188 46.3633 6.23047 47.5312 5.25C48.6953 4.26172 50.0391 3.5 51.5625 2.96875C53.0938 2.42969 54.6641 2.15625 56.2812 2.15625C57.9258 2.15625 59.5039 2.42969 61.0156 2.96875C62.5234 3.5 63.8633 4.26172 65.0312 5.25C66.1953 6.23047 67.1289 7.42188 67.8281 8.82813C68.5352 10.2266 68.8906 11.7773 68.8906 13.4844ZM64.4219 13.4844C64.4219 12.2461 64.2812 11.0078 64 9.76563C63.7188 8.51563 63.2578 7.39063 62.625 6.39062C62 5.39062 61.1602 4.57812 60.1094 3.95312C59.0664 3.32031 57.7891 3 56.2812 3C54.7695 3 53.4922 3.32031 52.4531 3.95312C51.4102 4.57812 50.5703 5.39062 49.9375 6.39062C49.3008 7.39063 48.8438 8.51563 48.5625 9.76563C48.2891 11.0078 48.1562 12.2461 48.1562 13.4844C48.1562 14.7344 48.2891 15.9844 48.5625 17.2344C48.8438 18.4766 49.3008 19.5938 49.9375 20.5938C50.5703 21.5938 51.4102 22.4141 52.4531 23.0469C53.4922 23.6719 54.7695 23.9844 56.2812 23.9844C57.7891 23.9844 59.0664 23.6719 60.1094 23.0469C61.1602 22.4141 62 21.5938 62.625 20.5938C63.2578 19.5938 63.7188 18.4766 64 17.2344C64.2812 15.9844 64.4219 14.7344 64.4219 13.4844ZM78.7773 24.1563H74.6211C74.0586 24.1563 73.668 23.9023 73.4492 23.3906C73.2305 22.8828 73.1211 22.3516 73.1211 21.7969V0H76.543V21.5156C76.543 21.9219 76.6602 22.3281 76.9023 22.7344C77.1523 23.1328 77.5117 23.3281 77.9805 23.3281H79.043L78.7773 24.1563ZM83.418 24.1563C82.8633 24.1563 82.4727 23.9023 82.2461 23.3906C82.0273 22.8828 81.918 22.3516 81.918 21.7969V8.98438C81.918 8.47656 82.0352 7.99219 82.2773 7.53125C82.5273 7.0625 82.9062 6.82812 83.418 6.82812H97.5117V7.65625H86.7773C86.3594 7.65625 86.0156 7.82031 85.7461 8.14063C85.4844 8.46484 85.3555 8.83984 85.3555 9.26563V14.3594H96.1836V15.1875H85.3555V21.5156C85.3555 21.9219 85.4727 22.3281 85.7148 22.7344C85.9531 23.1328 86.3086 23.3281 86.7773 23.3281H98.5742V24.1563H83.418ZM106.242 2.5625C106.242 3.09375 106.055 3.55859 105.68 3.95312C105.305 4.33984 104.824 4.53125 104.242 4.53125C103.711 4.53125 103.246 4.33984 102.852 3.95312C102.465 3.55859 102.273 3.09375 102.273 2.5625C102.273 2.03125 102.465 1.57031 102.852 1.17188C103.246 0.765625 103.711 0.5625 104.242 0.5625C104.824 0.5625 105.305 0.765625 105.68 1.17188C106.055 1.57031 106.242 2.03125 106.242 2.5625ZM105.977 23.1563C105.977 24.7813 105.656 26.0859 105.023 27.0781C104.387 28.0664 103.625 28.832 102.742 29.375C101.855 29.9141 100.93 30.2813 99.9609 30.4688C98.9922 30.6563 98.1758 30.75 97.5078 30.75H96.4766L96.7422 30.0938H97.6484C98.0234 30.0938 98.5 30.0352 99.0703 29.9219C99.6328 29.8047 100.168 29.4727 100.68 28.9219C101.188 28.3672 101.625 27.5195 101.992 26.375C102.355 25.2266 102.539 23.625 102.539 21.5625V6.82812H105.977V23.1563ZM124.711 24.1563L121.539 18.8906C121.359 18.6016 121.137 18.2188 120.867 17.75C120.605 17.2734 120.309 16.8047 119.977 16.3438C119.641 15.8867 119.266 15.4922 118.852 15.1563C118.445 14.8242 118.016 14.6563 117.57 14.6563C117.309 14.6563 117.07 14.7422 116.852 14.9063C116.641 15.0742 116.406 15.3125 116.148 15.625V14.3906L125.414 6.82812H126.742L118.148 13.7969V13.8594C118.305 13.8398 118.445 13.8281 118.57 13.8281C118.703 13.8281 118.84 13.8281 118.977 13.8281C119.977 13.8281 120.809 13.9766 121.477 14.2656C122.141 14.5469 122.73 14.9375 123.242 15.4375C123.75 15.9375 124.215 16.5117 124.633 17.1562C125.059 17.8047 125.516 18.4922 126.008 19.2188L129.273 24.1563H124.711ZM111.383 24.1563V0H114.805V24.1563H111.383ZM136.801 2.5625C136.801 3.09375 136.613 3.55859 136.238 3.95312C135.863 4.33984 135.383 4.53125 134.801 4.53125C134.27 4.53125 133.809 4.33984 133.426 3.95312C133.039 3.55859 132.848 3.09375 132.848 2.5625C132.848 2.03125 133.039 1.57031 133.426 1.17188C133.809 0.765625 134.27 0.5625 134.801 0.5625C135.383 0.5625 135.863 0.765625 136.238 1.17188C136.613 1.57031 136.801 2.03125 136.801 2.5625ZM133.113 24.1563V6.82812H136.535V24.1563H133.113ZM166.707 24.1563V8.98438C165.988 8.54688 165.207 8.16797 164.363 7.84375C163.52 7.52344 162.535 7.35938 161.41 7.35938C160.848 7.35938 160.227 7.45313 159.551 7.64063C158.871 7.82813 158.238 8.21094 157.645 8.78125C157.059 9.34375 156.566 10.1523 156.16 11.2031C155.762 12.2461 155.566 13.6211 155.566 15.3281C155.566 17.0781 155.746 18.4805 156.113 19.5312C156.488 20.5742 156.992 21.3828 157.629 21.9531C158.273 22.5156 159.023 22.8867 159.879 23.0625C160.742 23.2422 161.676 23.3281 162.676 23.3281H164.91L165.363 24.1563H160.301C159.121 24.1563 158.012 23.9609 156.973 23.5625C155.93 23.1563 155.02 22.5859 154.238 21.8438C153.457 21.0938 152.836 20.1719 152.379 19.0781C151.93 17.9766 151.707 16.7266 151.707 15.3281C151.707 14.1719 151.926 13.0586 152.363 11.9844C152.809 10.9023 153.414 9.94531 154.176 9.10938C154.945 8.27734 155.852 7.60547 156.895 7.09375C157.945 6.58594 159.082 6.32812 160.301 6.32812C161.184 6.32812 161.957 6.375 162.613 6.46875C163.27 6.55469 163.848 6.66797 164.348 6.8125C164.848 6.96094 165.285 7.13281 165.66 7.32813C166.043 7.52734 166.395 7.73438 166.707 7.95313V0H170.129V24.1563H166.707ZM193.469 15.4844C193.469 16.8203 193.219 18.0469 192.719 19.1719C192.219 20.2969 191.523 21.2656 190.641 22.0781C189.766 22.8906 188.723 23.5273 187.516 23.9844C186.305 24.4297 184.988 24.6563 183.562 24.6563C182.145 24.6563 180.832 24.4297 179.625 23.9844C178.426 23.5273 177.391 22.8906 176.516 22.0781C175.641 21.2656 174.953 20.2969 174.453 19.1719C173.953 18.0469 173.703 16.8203 173.703 15.4844C173.703 14.1523 173.953 12.9297 174.453 11.8125C174.953 10.6875 175.641 9.71875 176.516 8.90625C177.391 8.09375 178.426 7.46484 179.625 7.01562C180.832 6.55859 182.145 6.32812 183.562 6.32812C184.988 6.32812 186.305 6.55859 187.516 7.01562C188.723 7.46484 189.766 8.09375 190.641 8.90625C191.523 9.71875 192.219 10.6875 192.719 11.8125C193.219 12.9297 193.469 14.1523 193.469 15.4844ZM189.594 15.4844C189.594 14.5156 189.516 13.5273 189.359 12.5156C189.203 11.4961 188.898 10.5781 188.453 9.76563C188.016 8.94531 187.398 8.27344 186.609 7.75C185.828 7.21875 184.812 6.95312 183.562 6.95312C182.32 6.95312 181.312 7.21875 180.531 7.75C179.758 8.27344 179.148 8.94531 178.703 9.76563C178.254 10.5781 177.953 11.4961 177.797 12.5156C177.641 13.5273 177.562 14.5156 177.562 15.4844C177.562 16.4648 177.641 17.4609 177.797 18.4688C177.953 19.4805 178.254 20.3984 178.703 21.2188C179.148 22.043 179.758 22.7148 180.531 23.2344C181.312 23.7578 182.32 24.0156 183.562 24.0156C184.812 24.0156 185.828 23.7578 186.609 23.2344C187.398 22.7148 188.016 22.043 188.453 21.2188C188.898 20.3984 189.203 19.4805 189.359 18.4688C189.516 17.4609 189.594 16.4648 189.594 15.4844ZM221.887 24.1563V6.82812H225.324V24.1563H221.887ZM214.855 24.1563C213.73 24.1563 212.719 24.043 211.824 23.8125C210.937 23.5742 210.191 23.1797 209.59 22.625C208.996 22.0742 208.543 21.3398 208.23 20.4219C207.918 19.4961 207.762 18.3398 207.762 16.9531V6.82812H211.199V16.9844C211.199 17.7891 211.285 18.5703 211.465 19.3281C211.641 20.0781 211.922 20.75 212.309 21.3438C212.703 21.9297 213.207 22.4063 213.824 22.7813C214.449 23.1484 215.203 23.3281 216.09 23.3281H220.09L220.559 24.1563H214.855ZM244.891 18.75C244.891 19.9609 244.582 20.9453 243.969 21.7031C243.363 22.4531 242.594 23.0547 241.656 23.5C240.727 23.9375 239.719 24.2383 238.625 24.4063C237.531 24.5703 236.52 24.6563 235.594 24.6563C234.258 24.6563 232.93 24.5469 231.609 24.3281C230.285 24.1211 228.992 23.7891 227.734 23.3281L227.953 22.3906C228.473 22.6094 229.047 22.8086 229.672 22.9844C230.305 23.1641 230.973 23.3125 231.672 23.4375C232.367 23.5625 233.07 23.6641 233.781 23.7344C234.5 23.7969 235.172 23.8281 235.797 23.8281C236.441 23.8281 237.102 23.7734 237.781 23.6563C238.457 23.543 239.078 23.3516 239.641 23.0781C240.203 22.7969 240.66 22.4063 241.016 21.9063C241.379 21.4063 241.562 20.7813 241.562 20.0312C241.562 19.3867 241.438 18.875 241.188 18.5C240.945 18.1172 240.578 17.8125 240.078 17.5938C239.578 17.3672 238.957 17.2031 238.219 17.1094C237.488 17.0078 236.633 16.9141 235.656 16.8281C234.926 16.7578 234.156 16.6367 233.344 16.4688C232.531 16.3047 231.785 16.0391 231.109 15.6719C230.43 15.3086 229.875 14.8281 229.438 14.2344C229.008 13.6328 228.797 12.8594 228.797 11.9219C228.797 10.7656 229.082 9.82813 229.656 9.10938C230.238 8.39063 230.961 7.82813 231.828 7.42188C232.691 7.00781 233.633 6.71875 234.656 6.5625C235.676 6.40625 236.645 6.32812 237.562 6.32812C238.539 6.32812 239.586 6.44922 240.703 6.6875C241.828 6.91797 242.844 7.21875 243.75 7.59375L243.484 8.48438C242.641 8.08984 241.664 7.77344 240.562 7.53125C239.469 7.28125 238.273 7.15625 236.984 7.15625C236.348 7.15625 235.734 7.21875 235.141 7.34375C234.555 7.46875 234.039 7.68359 233.594 7.98438C233.145 8.27734 232.785 8.66797 232.516 9.15625C232.254 9.64844 232.125 10.2461 232.125 10.9531C232.125 11.5391 232.289 12.0156 232.625 12.3906C232.957 12.7656 233.398 13.0703 233.953 13.2969C234.516 13.5156 235.156 13.6836 235.875 13.7969C236.594 13.9023 237.332 13.9805 238.094 14.0313C240.445 14.1875 242.164 14.6172 243.25 15.3125C244.344 16.0117 244.891 17.1562 244.891 18.75ZM256.285 8.48438H253.16V21.5156C253.16 21.9219 253.277 22.3281 253.52 22.7344C253.77 23.1328 254.121 23.3281 254.582 23.3281H256.191L255.988 24.1563H251.223C250.668 24.1563 250.277 23.9023 250.051 23.3906C249.832 22.8828 249.723 22.3516 249.723 21.7969V8.48438H247.254L247.551 7.65625H249.723V2.89062H253.16V7.65625H256.52L256.285 8.48438ZM282.184 14.625V24.1563H278.324V15.1563L268.949 2.82812H273.355L281.59 13.7656L289.715 2.82812H291.059L282.184 14.625ZM313.184 15.4844C313.184 16.8203 312.934 18.0469 312.434 19.1719C311.934 20.2969 311.238 21.2656 310.355 22.0781C309.48 22.8906 308.438 23.5273 307.23 23.9844C306.02 24.4297 304.703 24.6563 303.277 24.6563C301.859 24.6563 300.547 24.4297 299.34 23.9844C298.141 23.5273 297.105 22.8906 296.23 22.0781C295.355 21.2656 294.668 20.2969 294.168 19.1719C293.668 18.0469 293.418 16.8203 293.418 15.4844C293.418 14.1523 293.668 12.9297 294.168 11.8125C294.668 10.6875 295.355 9.71875 296.23 8.90625C297.105 8.09375 298.141 7.46484 299.34 7.01562C300.547 6.55859 301.859 6.32812 303.277 6.32812C304.703 6.32812 306.02 6.55859 307.23 7.01562C308.438 7.46484 309.48 8.09375 310.355 8.90625C311.238 9.71875 311.934 10.6875 312.434 11.8125C312.934 12.9297 313.184 14.1523 313.184 15.4844ZM309.309 15.4844C309.309 14.5156 309.23 13.5273 309.074 12.5156C308.918 11.4961 308.613 10.5781 308.168 9.76563C307.73 8.94531 307.113 8.27344 306.324 7.75C305.543 7.21875 304.527 6.95312 303.277 6.95312C302.035 6.95312 301.027 7.21875 300.246 7.75C299.473 8.27344 298.863 8.94531 298.418 9.76563C297.969 10.5781 297.668 11.4961 297.512 12.5156C297.355 13.5273 297.277 14.5156 297.277 15.4844C297.277 16.4648 297.355 17.4609 297.512 18.4688C297.668 19.4805 297.969 20.3984 298.418 21.2188C298.863 22.043 299.473 22.7148 300.246 23.2344C301.027 23.7578 302.035 24.0156 303.277 24.0156C304.527 24.0156 305.543 23.7578 306.324 23.2344C307.113 22.7148 307.73 22.043 308.168 21.2188C308.613 20.3984 308.918 19.4805 309.074 18.4688C309.23 17.4609 309.309 16.4648 309.309 15.4844ZM330.805 24.1563V6.82812H334.242V24.1563H330.805ZM323.773 24.1563C322.648 24.1563 321.637 24.043 320.742 23.8125C319.855 23.5742 319.109 23.1797 318.508 22.625C317.914 22.0742 317.461 21.3398 317.148 20.4219C316.836 19.4961 316.68 18.3398 316.68 16.9531V6.82812H320.117V16.9844C320.117 17.7891 320.203 18.5703 320.383 19.3281C320.559 20.0781 320.84 20.75 321.227 21.3438C321.621 21.9297 322.125 22.4063 322.742 22.7813C323.367 23.1484 324.121 23.3281 325.008 23.3281H329.008L329.477 24.1563H323.773ZM352.102 24.1563C352.016 23.8438 351.891 23.4375 351.727 22.9375C351.559 22.4375 351.367 21.9141 351.148 21.3594C350.937 20.8086 350.727 20.2578 350.508 19.7031C350.289 19.1406 350.074 18.6484 349.867 18.2188C349.605 17.6484 349.32 17.1797 349.008 16.8125C348.695 16.4375 348.32 16.1367 347.883 15.9063C347.453 15.6797 346.949 15.5234 346.367 15.4375C345.793 15.3438 345.105 15.2969 344.305 15.2969H343.242L343.773 14.4844H346.445C347.078 14.4844 347.684 14.4297 348.258 14.3125C348.84 14.1875 349.352 13.9844 349.789 13.7031C350.227 13.4141 350.574 13.0391 350.836 12.5781C351.105 12.1211 351.242 11.5469 351.242 10.8594C351.242 10.3281 351.105 9.86719 350.836 9.46875C350.574 9.0625 350.211 8.73047 349.742 8.46875C349.273 8.19922 348.727 7.99609 348.102 7.85938C347.484 7.72656 346.809 7.65625 346.07 7.65625H343.336C342.918 7.65625 342.574 7.82031 342.305 8.14063C342.043 8.46484 341.914 8.83984 341.914 9.26563V24.1563H338.477V8.98438C338.477 8.47656 338.594 7.99219 338.836 7.53125C339.086 7.0625 339.465 6.82812 339.977 6.82812H345.242C348.461 6.82812 350.852 7.15234 352.414 7.79688C353.984 8.44531 354.773 9.53125 354.773 11.0625C354.773 11.75 354.609 12.3438 354.289 12.8438C353.965 13.3438 353.523 13.7656 352.961 14.1094C352.406 14.4531 351.75 14.7188 350.992 14.9063C350.242 15.0938 349.434 15.2109 348.57 15.25V15.2969C349.371 15.4766 350.074 15.6719 350.68 15.8906C351.293 16.1094 351.836 16.4062 352.305 16.7812C352.773 17.1484 353.187 17.6016 353.555 18.1406C353.918 18.6836 354.266 19.3555 354.602 20.1562L356.242 24.1563H352.102ZM386.742 24.1563L382.477 17.0938C382.164 16.5625 381.84 16.0586 381.508 15.5781C381.172 15.1016 380.84 14.6719 380.508 14.2969C380.172 13.9141 379.836 13.6094 379.492 13.3906C379.148 13.1719 378.793 13.0625 378.43 13.0625C378.125 13.0625 377.867 13.1055 377.648 13.1875C377.437 13.2617 377.234 13.3867 377.039 13.5625L376.602 13.9219V12.8594L388.742 2.82812H390.164L378.539 12.3594V12.4219H379.336C379.937 12.4219 380.543 12.4648 381.148 12.5469C381.762 12.6211 382.355 12.7773 382.93 13.0156C383.512 13.2461 384.074 13.5742 384.617 14C385.156 14.418 385.664 14.9609 386.133 15.625L392.133 24.1563H386.742ZM371.398 24.1563V2.82812H375.273V24.1563H371.398ZM408.523 24.1563V14.2656H405.898C405.012 14.2656 404.125 14.3359 403.242 14.4688C402.367 14.5938 401.586 14.8516 400.898 15.2344C400.211 15.6094 399.652 16.1367 399.227 16.8125C398.809 17.4922 398.602 18.3711 398.602 19.4531C398.602 20.6836 398.93 21.6367 399.586 22.3125C400.242 22.9922 401.289 23.3281 402.727 23.3281H406.758L407.195 24.1563H401.758C400.891 24.1563 400.043 24.0703 399.211 23.8906C398.375 23.7148 397.625 23.4297 396.961 23.0313C396.293 22.625 395.75 22.0898 395.336 21.4219C394.93 20.7578 394.727 19.9219 394.727 18.9219C394.727 18.1016 394.918 17.3906 395.305 16.7969C395.699 16.1953 396.219 15.6953 396.867 15.2969C397.512 14.8906 398.234 14.5703 399.039 14.3281C399.852 14.0781 400.668 13.8906 401.492 13.7656C402.312 13.6328 403.121 13.543 403.914 13.5C404.703 13.4492 405.387 13.4219 405.961 13.4219H408.523V12.4219C408.523 10.8281 408.133 9.54687 407.352 8.57812C406.578 7.60937 405.352 7.125 403.664 7.125C402.059 7.125 400.617 7.27734 399.336 7.57812C398.062 7.88281 396.906 8.32031 395.867 8.89062L395.633 7.98437C396.945 7.29687 398.32 6.85156 399.758 6.64062C401.203 6.43359 402.672 6.32812 404.164 6.32812C405.121 6.32812 406.062 6.42187 406.992 6.60937C407.93 6.79687 408.762 7.10937 409.492 7.54687C410.23 7.97656 410.824 8.54687 411.273 9.26562C411.73 9.97656 411.961 10.8516 411.961 11.8906V24.1563H408.523ZM424.668 23.8594C424.418 24.3281 424.141 24.8281 423.84 25.3594C423.547 25.8906 423.234 26.4063 422.902 26.9063C422.566 27.4063 422.207 27.875 421.824 28.3125C421.449 28.7578 421.051 29.1406 420.637 29.4531C419.457 30.3164 417.902 30.75 415.965 30.75H415.496L415.793 29.8906C416.437 29.8906 417.004 29.8477 417.496 29.7656C417.984 29.6914 418.453 29.5664 418.902 29.3906C419.453 29.1719 419.957 28.8516 420.418 28.4375C420.875 28.0313 421.293 27.582 421.668 27.0938C422.043 26.6016 422.363 26.1094 422.637 25.6094C422.918 25.1094 423.145 24.6563 423.324 24.25L414.527 6.82812H418.434L425.371 20.5625L432.465 6.82812H433.465L424.668 23.8594ZM449.184 24.1563V14.2656H446.559C445.672 14.2656 444.785 14.3359 443.902 14.4688C443.027 14.5938 442.246 14.8516 441.559 15.2344C440.871 15.6094 440.312 16.1367 439.887 16.8125C439.469 17.4922 439.262 18.3711 439.262 19.4531C439.262 20.6836 439.59 21.6367 440.246 22.3125C440.902 22.9922 441.949 23.3281 443.387 23.3281H447.418L447.855 24.1563H442.418C441.551 24.1563 440.703 24.0703 439.871 23.8906C439.035 23.7148 438.285 23.4297 437.621 23.0313C436.953 22.625 436.41 22.0898 435.996 21.4219C435.59 20.7578 435.387 19.9219 435.387 18.9219C435.387 18.1016 435.578 17.3906 435.965 16.7969C436.359 16.1953 436.879 15.6953 437.527 15.2969C438.172 14.8906 438.895 14.5703 439.699 14.3281C440.512 14.0781 441.328 13.8906 442.152 13.7656C442.973 13.6328 443.781 13.543 444.574 13.5C445.363 13.4492 446.047 13.4219 446.621 13.4219H449.184V12.4219C449.184 10.8281 448.793 9.54687 448.012 8.57812C447.238 7.60937 446.012 7.125 444.324 7.125C442.719 7.125 441.277 7.27734 439.996 7.57812C438.723 7.88281 437.566 8.32031 436.527 8.89062L436.293 7.98437C437.605 7.29687 438.98 6.85156 440.418 6.64062C441.863 6.43359 443.332 6.32812 444.824 6.32812C445.781 6.32812 446.723 6.42187 447.652 6.60937C448.59 6.79687 449.422 7.10937 450.152 7.54687C450.891 7.97656 451.484 8.54687 451.934 9.26562C452.391 9.97656 452.621 10.8516 452.621 11.8906V24.1563H449.184Z" fill="#665F20"/>
<path d="M19.7188 48.6875C19.7188 51.918 18.9531 54.25 17.4219 55.6875C15.8906 57.1172 13.5156 57.8281 10.2969 57.8281C9.02344 57.8281 7.76953 57.7383 6.53125 57.5625C5.30078 57.3828 4.20312 57.0391 3.23437 56.5156C2.27344 55.9844 1.49219 55.2578 0.890625 54.3281C0.296875 53.3906 0 52.168 0 50.6562V35.8281H3.85937V50.625C3.85937 51.668 4.03516 52.5859 4.39062 53.375C4.74219 54.168 5.23828 54.8281 5.875 55.3594C6.50781 55.8906 7.25781 56.2969 8.125 56.5781C8.98828 56.8516 9.92969 56.9844 10.9531 56.9844C13.7344 56.9844 15.75 56.3281 17 55.0156C18.2578 53.6953 18.8906 51.5938 18.8906 48.7188V35.8281H19.7188V48.6875ZM46.7109 54.8594C46.1367 55.3711 45.4648 55.8125 44.6953 56.1875C43.9336 56.5625 43.1172 56.875 42.2422 57.125C41.375 57.3633 40.4688 57.5391 39.5234 57.6562C38.5859 57.7695 37.6523 57.8281 36.7266 57.8281C35.1641 57.8281 33.6328 57.5938 32.1328 57.125C30.6328 56.6562 29.2891 55.9609 28.1016 55.0312C26.9141 54.0938 25.9492 52.918 25.2109 51.5C24.4805 50.0742 24.1172 48.4023 24.1172 46.4844C24.1172 44.7773 24.4648 43.2266 25.1641 41.8281C25.8711 40.4219 26.8203 39.2305 28.0078 38.25C29.1953 37.2617 30.5625 36.5 32.1172 35.9688C33.6797 35.4297 35.3242 35.1562 37.0547 35.1562C39.0742 35.1562 40.7773 35.3516 42.1641 35.7344C43.5586 36.1094 44.6406 36.5156 45.4141 36.9531L45.1172 37.7656C44.3359 37.2578 43.3242 36.8359 42.0859 36.5C40.8438 36.168 39.3438 36 37.5859 36C36.0313 36 34.6875 36.3203 33.5547 36.9531C32.418 37.5781 31.4805 38.4062 30.7422 39.4375C30.0117 40.4688 29.4688 41.6484 29.1172 42.9688C28.7617 44.293 28.5859 45.6484 28.5859 47.0312C28.5859 48.3672 28.7813 49.6328 29.1797 50.8281C29.5859 52.0273 30.1484 53.0898 30.8672 54.0156C31.5938 54.9336 32.4609 55.6562 33.4609 56.1875C34.4609 56.7188 35.5469 56.9844 36.7266 56.9844C39.0078 56.9844 40.5938 56.5703 41.4922 55.7344C42.3984 54.9023 42.8516 53.6211 42.8516 51.8906V46.3281H46.7109V54.8594ZM73.3477 54.7969C71.9492 55.9219 70.3711 56.7109 68.6133 57.1562C66.8633 57.6016 65.0859 57.8281 63.2852 57.8281C61.6602 57.8281 60.0859 57.5938 58.5664 57.125C57.043 56.6562 55.6992 55.9609 54.5352 55.0312C53.3672 54.0938 52.4336 52.918 51.7383 51.5C51.0391 50.0742 50.6914 48.4023 50.6914 46.4844C50.6914 44.7773 51.0391 43.2266 51.7383 41.8281C52.4336 40.4219 53.3672 39.2305 54.5352 38.25C55.6992 37.2617 57.043 36.5 58.5664 35.9688C60.0859 35.4297 61.6602 35.1562 63.2852 35.1562C64.0664 35.1562 64.8672 35.2109 65.6914 35.3125C66.5234 35.4062 67.3555 35.5625 68.1914 35.7812C69.0234 35.9922 69.8359 36.25 70.6289 36.5625C71.418 36.875 72.1602 37.25 72.8477 37.6875L72.5508 38.6562C71.2774 37.8125 69.8164 37.1641 68.1602 36.7031C66.5039 36.2344 64.8789 36 63.2852 36C61.7734 36 60.4922 36.3203 59.4414 36.9531C58.3984 37.5781 57.5586 38.3906 56.9258 39.3906C56.3008 40.3906 55.8477 41.5156 55.5664 42.7656C55.2852 44.0078 55.1445 45.2461 55.1445 46.4844C55.1445 47.7344 55.3047 48.9844 55.6289 50.2344C55.9492 51.4766 56.4766 52.5938 57.207 53.5938C57.9453 54.5938 58.918 55.4141 60.1289 56.0469C61.3477 56.6719 62.8399 56.9844 64.6133 56.9844C65.1445 56.9844 65.7695 56.9219 66.4883 56.7969C67.2149 56.6641 67.9649 56.4688 68.7383 56.2188C69.5195 55.9609 70.2852 55.6367 71.0352 55.25C71.793 54.8555 72.4766 54.4141 73.082 53.9219L73.3477 54.7969ZM109.441 51.4844C109.441 52.7578 109.07 53.7734 108.332 54.5312C107.602 55.2812 106.723 55.8555 105.691 56.25C104.66 56.6367 103.574 56.8867 102.441 57C101.305 57.1055 100.324 57.1562 99.5039 57.1562H88.3789V38.3281C88.3789 38.0586 88.4023 37.7773 88.457 37.4844C88.5195 37.1836 88.6055 36.9141 88.7227 36.6719C88.8477 36.4219 89.0078 36.2188 89.207 36.0625C89.4024 35.9062 89.6484 35.8281 89.9414 35.8281H98.707C99.5078 35.8281 100.41 35.8984 101.41 36.0312C102.41 36.1562 103.355 36.3984 104.254 36.75C105.16 37.0938 105.914 37.5781 106.52 38.2031C107.133 38.8203 107.441 39.6172 107.441 40.5938C107.441 41.5234 107.207 42.293 106.738 42.9062C106.27 43.5234 105.676 44.0117 104.957 44.375C104.238 44.7422 103.461 45.0078 102.629 45.1719C101.793 45.3398 101.008 45.4609 100.27 45.5312V45.5938C101.184 45.6172 102.176 45.7266 103.238 45.9219C104.309 46.1211 105.301 46.4453 106.207 46.8906C107.121 47.3398 107.887 47.9453 108.504 48.7031C109.129 49.4531 109.441 50.3828 109.441 51.4844ZM104.973 51.125C104.973 50.125 104.727 49.2969 104.238 48.6406C103.746 47.9844 103.145 47.4688 102.426 47.0938C101.707 46.7188 100.941 46.4531 100.129 46.2969C99.3164 46.1406 98.5859 46.0625 97.9414 46.0625H93.582L93.9727 45.2188H96.3789C98.7305 45.2188 100.461 44.8203 101.566 44.0156C102.68 43.2031 103.238 42.1055 103.238 40.7188C103.238 39.5234 102.762 38.5469 101.816 37.7969C100.879 37.0391 99.5078 36.6562 97.707 36.6562H93.5508C93.1016 36.6562 92.7695 36.8711 92.5508 37.2969C92.3399 37.7148 92.2383 38.1484 92.2383 38.5938V56.3281H99.2695C101.008 56.3281 102.395 55.918 103.426 55.0938C104.457 54.2734 104.973 52.9492 104.973 51.125ZM114.645 57.1562C114.09 57.1562 113.699 56.9023 113.473 56.3906C113.254 55.8828 113.145 55.3516 113.145 54.7969V41.9844C113.145 41.4766 113.262 40.9922 113.504 40.5312C113.754 40.0625 114.133 39.8281 114.645 39.8281H128.738V40.6562H118.004C117.586 40.6562 117.242 40.8203 116.973 41.1406C116.711 41.4648 116.582 41.8398 116.582 42.2656V47.3594H127.41V48.1875H116.582V54.5156C116.582 54.9219 116.699 55.3281 116.941 55.7344C117.18 56.1328 117.535 56.3281 118.004 56.3281H129.801V57.1562H114.645ZM146.062 57.1562V47.2656H143.438C142.551 47.2656 141.664 47.3359 140.781 47.4688C139.906 47.5938 139.125 47.8516 138.438 48.2344C137.75 48.6094 137.191 49.1367 136.766 49.8125C136.348 50.4922 136.141 51.3711 136.141 52.4531C136.141 53.6836 136.469 54.6367 137.125 55.3125C137.781 55.9922 138.828 56.3281 140.266 56.3281H144.297L144.734 57.1562H139.297C138.43 57.1562 137.582 57.0703 136.75 56.8906C135.914 56.7148 135.164 56.4297 134.5 56.0312C133.832 55.625 133.289 55.0898 132.875 54.4219C132.469 53.7578 132.266 52.9219 132.266 51.9219C132.266 51.1016 132.457 50.3906 132.844 49.7969C133.238 49.1953 133.758 48.6953 134.406 48.2969C135.051 47.8906 135.773 47.5703 136.578 47.3281C137.391 47.0781 138.207 46.8906 139.031 46.7656C139.852 46.6328 140.66 46.543 141.453 46.5C142.242 46.4492 142.926 46.4219 143.5 46.4219H146.062V45.4219C146.062 43.8281 145.672 42.5469 144.891 41.5781C144.117 40.6094 142.891 40.125 141.203 40.125C139.598 40.125 138.156 40.2773 136.875 40.5781C135.602 40.8828 134.445 41.3203 133.406 41.8906L133.172 40.9844C134.484 40.2969 135.859 39.8516 137.297 39.6406C138.742 39.4336 140.211 39.3281 141.703 39.3281C142.66 39.3281 143.602 39.4219 144.531 39.6094C145.469 39.7969 146.301 40.1094 147.031 40.5469C147.77 40.9766 148.363 41.5469 148.812 42.2656C149.27 42.9766 149.5 43.8516 149.5 44.8906V57.1562H146.062ZM168.125 57.1562V39.8281H171.562V57.1562H168.125ZM161.094 57.1562C159.969 57.1562 158.957 57.043 158.062 56.8125C157.176 56.5742 156.43 56.1797 155.828 55.625C155.234 55.0742 154.781 54.3398 154.469 53.4219C154.156 52.4961 154 51.3398 154 49.9531V39.8281H157.438V49.9844C157.438 50.7891 157.523 51.5703 157.703 52.3281C157.879 53.0781 158.16 53.75 158.547 54.3438C158.941 54.9297 159.445 55.4062 160.062 55.7812C160.688 56.1484 161.441 56.3281 162.328 56.3281H166.328L166.797 57.1562H161.094ZM183.395 41.4844H180.27V54.5156C180.27 54.9219 180.387 55.3281 180.629 55.7344C180.879 56.1328 181.23 56.3281 181.691 56.3281H183.301L183.098 57.1562H178.332C177.777 57.1562 177.387 56.9023 177.16 56.3906C176.941 55.8828 176.832 55.3516 176.832 54.7969V41.4844H174.363L174.66 40.6562H176.832V35.8906H180.27V40.6562H183.629L183.395 41.4844ZM194.898 56.8594C194.648 57.3281 194.371 57.8281 194.07 58.3594C193.777 58.8906 193.465 59.4062 193.133 59.9062C192.797 60.4062 192.437 60.875 192.055 61.3125C191.68 61.7578 191.281 62.1406 190.867 62.4531C189.687 63.3164 188.133 63.75 186.195 63.75H185.727L186.023 62.8906C186.668 62.8906 187.234 62.8477 187.727 62.7656C188.215 62.6914 188.684 62.5664 189.133 62.3906C189.684 62.1719 190.187 61.8516 190.648 61.4375C191.105 61.0312 191.523 60.582 191.898 60.0938C192.273 59.6016 192.594 59.1094 192.867 58.6094C193.148 58.1094 193.375 57.6563 193.555 57.25L184.758 39.8281H188.664L195.602 53.5625L202.695 39.8281H203.695L194.898 56.8594ZM216.121 57.8281H214.09L222.793 35.1562H224.824L216.121 57.8281ZM239.297 57.1562C239.004 57.1562 238.754 57.0781 238.547 56.9219C238.348 56.7656 238.188 56.5703 238.062 56.3281C237.945 56.0781 237.859 55.8086 237.797 55.5156C237.742 55.2148 237.719 54.9297 237.719 54.6562V38.3281C237.719 38.0586 237.742 37.7773 237.797 37.4844C237.859 37.1836 237.945 36.9141 238.062 36.6719C238.188 36.4219 238.348 36.2188 238.547 36.0625C238.754 35.9062 239.004 35.8281 239.297 35.8281H256.219V36.6562H242.891C242.441 36.6562 242.113 36.8711 241.906 37.2969C241.695 37.7148 241.594 38.1484 241.594 38.5938V45.4844H253.219V46.3281H241.594V54.3906C241.594 54.8398 241.695 55.2773 241.906 55.7031C242.113 56.1211 242.441 56.3281 242.891 56.3281H256.625V57.1562H239.297ZM269.477 55.8906C269.234 56.3398 268.965 56.7344 268.664 57.0781C268.359 57.4219 268.055 57.5938 267.742 57.5938C267.305 57.5938 266.898 57.2227 266.523 56.4844L257.945 39.8281H262.023L268.789 53.0312C268.984 53.4297 269.172 53.625 269.352 53.625C269.484 53.625 269.617 53.543 269.742 53.375C269.875 53.2109 270.023 52.9805 270.18 52.6875L277.148 39.8281H278.18L269.477 55.8906ZM282.484 57.1562C281.93 57.1562 281.539 56.9023 281.312 56.3906C281.094 55.8828 280.984 55.3516 280.984 54.7969V41.9844C280.984 41.4766 281.102 40.9922 281.344 40.5312C281.594 40.0625 281.973 39.8281 282.484 39.8281H296.578V40.6562H285.844C285.426 40.6562 285.082 40.8203 284.812 41.1406C284.551 41.4648 284.422 41.8398 284.422 42.2656V47.3594H295.25V48.1875H284.422V54.5156C284.422 54.9219 284.539 55.3281 284.781 55.7344C285.02 56.1328 285.375 56.3281 285.844 56.3281H297.641V57.1562H282.484ZM314.605 57.1562C314.52 56.8438 314.395 56.4375 314.23 55.9375C314.062 55.4375 313.871 54.9141 313.652 54.3594C313.441 53.8086 313.23 53.2578 313.012 52.7031C312.793 52.1406 312.578 51.6484 312.371 51.2188C312.109 50.6484 311.824 50.1797 311.512 49.8125C311.199 49.4375 310.824 49.1367 310.387 48.9062C309.957 48.6797 309.453 48.5234 308.871 48.4375C308.297 48.3438 307.609 48.2969 306.809 48.2969H305.746L306.277 47.4844H308.949C309.582 47.4844 310.187 47.4297 310.762 47.3125C311.344 47.1875 311.855 46.9844 312.293 46.7031C312.73 46.4141 313.078 46.0391 313.34 45.5781C313.609 45.1211 313.746 44.5469 313.746 43.8594C313.746 43.3281 313.609 42.8672 313.34 42.4688C313.078 42.0625 312.715 41.7305 312.246 41.4688C311.777 41.1992 311.23 40.9961 310.605 40.8594C309.988 40.7266 309.313 40.6562 308.574 40.6562H305.84C305.422 40.6562 305.078 40.8203 304.809 41.1406C304.547 41.4648 304.418 41.8398 304.418 42.2656V57.1562H300.98V41.9844C300.98 41.4766 301.098 40.9922 301.34 40.5312C301.59 40.0625 301.969 39.8281 302.48 39.8281H307.746C310.965 39.8281 313.355 40.1523 314.918 40.7969C316.488 41.4453 317.277 42.5312 317.277 44.0625C317.277 44.75 317.113 45.3438 316.793 45.8438C316.469 46.3438 316.027 46.7656 315.465 47.1094C314.91 47.4531 314.254 47.7188 313.496 47.9062C312.746 48.0938 311.937 48.2109 311.074 48.25V48.2969C311.875 48.4766 312.578 48.6719 313.184 48.8906C313.797 49.1094 314.34 49.4062 314.809 49.7812C315.277 50.1484 315.691 50.6016 316.059 51.1406C316.422 51.6836 316.77 52.3555 317.105 53.1562L318.746 57.1562H314.605ZM329.977 56.8594C329.727 57.3281 329.449 57.8281 329.148 58.3594C328.855 58.8906 328.543 59.4062 328.211 59.9062C327.875 60.4062 327.516 60.875 327.133 61.3125C326.758 61.7578 326.359 62.1406 325.945 62.4531C324.766 63.3164 323.211 63.75 321.273 63.75H320.805L321.102 62.8906C321.746 62.8906 322.313 62.8477 322.805 62.7656C323.293 62.6914 323.762 62.5664 324.211 62.3906C324.762 62.1719 325.266 61.8516 325.727 61.4375C326.184 61.0312 326.602 60.582 326.977 60.0938C327.352 59.6016 327.672 59.1094 327.945 58.6094C328.227 58.1094 328.453 57.6563 328.633 57.25L319.836 39.8281H323.742L330.68 53.5625L337.773 39.8281H338.773L329.977 56.8594ZM355.574 57.1562V41.9844C354.855 41.5469 354.074 41.168 353.23 40.8438C352.387 40.5234 351.402 40.3594 350.277 40.3594C349.715 40.3594 349.094 40.4531 348.418 40.6406C347.738 40.8281 347.105 41.2109 346.512 41.7812C345.926 42.3438 345.434 43.1523 345.027 44.2031C344.629 45.2461 344.434 46.6211 344.434 48.3281C344.434 50.0781 344.613 51.4805 344.98 52.5312C345.355 53.5742 345.859 54.3828 346.496 54.9531C347.141 55.5156 347.891 55.8867 348.746 56.0625C349.609 56.2422 350.543 56.3281 351.543 56.3281H353.777L354.23 57.1562H349.168C347.988 57.1562 346.879 56.9609 345.84 56.5625C344.797 56.1562 343.887 55.5859 343.105 54.8438C342.324 54.0938 341.703 53.1719 341.246 52.0781C340.797 50.9766 340.574 49.7266 340.574 48.3281C340.574 47.1719 340.793 46.0586 341.23 44.9844C341.676 43.9023 342.281 42.9453 343.043 42.1094C343.812 41.2773 344.719 40.6055 345.762 40.0938C346.812 39.5859 347.949 39.3281 349.168 39.3281C350.051 39.3281 350.824 39.375 351.48 39.4688C352.137 39.5547 352.715 39.668 353.215 39.8125C353.715 39.9609 354.152 40.1328 354.527 40.3281C354.91 40.5273 355.262 40.7344 355.574 40.9531V33H358.996V57.1562H355.574ZM376.727 57.1562V47.2656H374.102C373.215 47.2656 372.328 47.3359 371.445 47.4688C370.57 47.5938 369.789 47.8516 369.102 48.2344C368.414 48.6094 367.855 49.1367 367.43 49.8125C367.012 50.4922 366.805 51.3711 366.805 52.4531C366.805 53.6836 367.133 54.6367 367.789 55.3125C368.445 55.9922 369.492 56.3281 370.93 56.3281H374.961L375.398 57.1562H369.961C369.094 57.1562 368.246 57.0703 367.414 56.8906C366.578 56.7148 365.828 56.4297 365.164 56.0312C364.496 55.625 363.953 55.0898 363.539 54.4219C363.133 53.7578 362.93 52.9219 362.93 51.9219C362.93 51.1016 363.121 50.3906 363.508 49.7969C363.902 49.1953 364.422 48.6953 365.07 48.2969C365.715 47.8906 366.437 47.5703 367.242 47.3281C368.055 47.0781 368.871 46.8906 369.695 46.7656C370.516 46.6328 371.324 46.543 372.117 46.5C372.906 46.4492 373.59 46.4219 374.164 46.4219H376.727V45.4219C376.727 43.8281 376.336 42.5469 375.555 41.5781C374.781 40.6094 373.555 40.125 371.867 40.125C370.262 40.125 368.82 40.2773 367.539 40.5781C366.266 40.8828 365.109 41.3203 364.07 41.8906L363.836 40.9844C365.148 40.2969 366.523 39.8516 367.961 39.6406C369.406 39.4336 370.875 39.3281 372.367 39.3281C373.324 39.3281 374.266 39.4219 375.195 39.6094C376.133 39.7969 376.965 40.1094 377.695 40.5469C378.434 40.9766 379.027 41.5469 379.477 42.2656C379.934 42.9766 380.164 43.8516 380.164 44.8906V57.1562H376.727ZM392.867 56.8594C392.617 57.3281 392.34 57.8281 392.039 58.3594C391.746 58.8906 391.434 59.4062 391.102 59.9062C390.766 60.4062 390.406 60.875 390.023 61.3125C389.648 61.7578 389.25 62.1406 388.836 62.4531C387.656 63.3164 386.102 63.75 384.164 63.75H383.695L383.992 62.8906C384.637 62.8906 385.203 62.8477 385.695 62.7656C386.184 62.6914 386.652 62.5664 387.102 62.3906C387.652 62.1719 388.156 61.8516 388.617 61.4375C389.074 61.0312 389.492 60.582 389.867 60.0938C390.242 59.6016 390.562 59.1094 390.836 58.6094C391.117 58.1094 391.344 57.6563 391.523 57.25L382.727 39.8281H386.633L393.57 53.5625L400.664 39.8281H401.664L392.867 56.8594ZM417.496 57.1562C417.203 57.1562 416.957 57.0781 416.762 56.9219C416.562 56.7656 416.402 56.5703 416.277 56.3281C416.152 56.0781 416.062 55.8086 416.012 55.5156C415.957 55.2148 415.934 54.9297 415.934 54.6562V35.8281H419.793V54.3906C419.793 54.8398 419.895 55.2773 420.105 55.7031C420.313 56.1211 420.641 56.3281 421.09 56.3281H433.824V57.1562H417.496ZM455.492 48.4844C455.492 49.8203 455.242 51.0469 454.742 52.1719C454.242 53.2969 453.547 54.2656 452.664 55.0781C451.789 55.8906 450.746 56.5273 449.539 56.9844C448.328 57.4297 447.012 57.6562 445.586 57.6562C444.168 57.6562 442.855 57.4297 441.648 56.9844C440.449 56.5273 439.414 55.8906 438.539 55.0781C437.664 54.2656 436.977 53.2969 436.477 52.1719C435.977 51.0469 435.727 49.8203 435.727 48.4844C435.727 47.1523 435.977 45.9297 436.477 44.8125C436.977 43.6875 437.664 42.7188 438.539 41.9062C439.414 41.0938 440.449 40.4648 441.648 40.0156C442.855 39.5586 444.168 39.3281 445.586 39.3281C447.012 39.3281 448.328 39.5586 449.539 40.0156C450.746 40.4648 451.789 41.0938 452.664 41.9062C453.547 42.7188 454.242 43.6875 454.742 44.8125C455.242 45.9297 455.492 47.1523 455.492 48.4844ZM451.617 48.4844C451.617 47.5156 451.539 46.5273 451.383 45.5156C451.227 44.4961 450.922 43.5781 450.477 42.7656C450.039 41.9453 449.422 41.2734 448.633 40.75C447.852 40.2188 446.836 39.9531 445.586 39.9531C444.344 39.9531 443.336 40.2188 442.555 40.75C441.781 41.2734 441.172 41.9453 440.727 42.7656C440.277 43.5781 439.977 44.4961 439.82 45.5156C439.664 46.5273 439.586 47.5156 439.586 48.4844C439.586 49.4648 439.664 50.4609 439.82 51.4688C439.977 52.4805 440.277 53.3984 440.727 54.2188C441.172 55.043 441.781 55.7148 442.555 56.2344C443.336 56.7578 444.344 57.0156 445.586 57.0156C446.836 57.0156 447.852 56.7578 448.633 56.2344C449.422 55.7148 450.039 55.043 450.477 54.2188C450.922 53.3984 451.227 52.4805 451.383 51.4688C451.539 50.4609 451.617 49.4648 451.617 48.4844ZM477.723 48.4844C477.723 49.8203 477.473 51.0469 476.973 52.1719C476.473 53.2969 475.777 54.2656 474.895 55.0781C474.02 55.8906 472.977 56.5273 471.77 56.9844C470.559 57.4297 469.242 57.6562 467.816 57.6562C466.398 57.6562 465.086 57.4297 463.879 56.9844C462.68 56.5273 461.645 55.8906 460.77 55.0781C459.895 54.2656 459.207 53.2969 458.707 52.1719C458.207 51.0469 457.957 49.8203 457.957 48.4844C457.957 47.1523 458.207 45.9297 458.707 44.8125C459.207 43.6875 459.895 42.7188 460.77 41.9062C461.645 41.0938 462.68 40.4648 463.879 40.0156C465.086 39.5586 466.398 39.3281 467.816 39.3281C469.242 39.3281 470.559 39.5586 471.77 40.0156C472.977 40.4648 474.02 41.0938 474.895 41.9062C475.777 42.7188 476.473 43.6875 476.973 44.8125C477.473 45.9297 477.723 47.1523 477.723 48.4844ZM473.848 48.4844C473.848 47.5156 473.77 46.5273 473.613 45.5156C473.457 44.4961 473.152 43.5781 472.707 42.7656C472.27 41.9453 471.652 41.2734 470.863 40.75C470.082 40.2188 469.066 39.9531 467.816 39.9531C466.574 39.9531 465.566 40.2188 464.785 40.75C464.012 41.2734 463.402 41.9453 462.957 42.7656C462.508 43.5781 462.207 44.4961 462.051 45.5156C461.895 46.5273 461.816 47.5156 461.816 48.4844C461.816 49.4648 461.895 50.4609 462.051 51.4688C462.207 52.4805 462.508 53.3984 462.957 54.2188C463.402 55.043 464.012 55.7148 464.785 56.2344C465.566 56.7578 466.574 57.0156 467.816 57.0156C469.066 57.0156 470.082 56.7578 470.863 56.2344C471.652 55.7148 472.27 55.043 472.707 54.2188C473.152 53.3984 473.457 52.4805 473.613 51.4688C473.77 50.4609 473.848 49.4648 473.848 48.4844ZM494.949 57.1562L491.777 51.8906C491.598 51.6016 491.375 51.2188 491.105 50.75C490.844 50.2734 490.547 49.8047 490.215 49.3438C489.879 48.8867 489.504 48.4922 489.09 48.1562C488.684 47.8242 488.254 47.6562 487.809 47.6562C487.547 47.6562 487.309 47.7422 487.09 47.9062C486.879 48.0742 486.645 48.3125 486.387 48.625V47.3906L495.652 39.8281H496.98L488.387 46.7969V46.8594C488.543 46.8398 488.684 46.8281 488.809 46.8281C488.941 46.8281 489.078 46.8281 489.215 46.8281C490.215 46.8281 491.047 46.9766 491.715 47.2656C492.379 47.5469 492.969 47.9375 493.48 48.4375C493.988 48.9375 494.453 49.5117 494.871 50.1562C495.297 50.8047 495.754 51.4922 496.246 52.2188L499.512 57.1562H494.949ZM481.621 57.1562V33H485.043V57.1562H481.621Z" fill="#665F20"/>
</svg>
