<svg width="484" height="59" viewBox="0 0 484 59" fill="none" xmlns="http://www.w3.org/2000/svg">
<path d="M37.5 29.4219C37.5 31.9453 37.0234 34.2734 36.0781 36.4062C35.1289 38.5312 33.8203 40.3672 32.1562 41.9062C30.4883 43.4492 28.5039 44.6523 26.2031 45.5156C23.9102 46.3789 21.4141 46.8125 18.7188 46.8125C16.0195 46.8125 13.5312 46.3789 11.25 45.5156C8.97656 44.6523 7.00781 43.4492 5.34375 41.9062C3.67578 40.3672 2.36719 38.5312 1.42188 36.4062C0.472656 34.2734 0 31.9453 0 29.4219C0 26.8906 0.472656 24.5625 1.42188 22.4375C2.36719 20.3047 3.67578 18.4648 5.34375 16.9219C7.00781 15.3828 8.97656 14.1797 11.25 13.3125C13.5312 12.4492 16.0195 12.0156 18.7188 12.0156C21.4141 12.0156 23.9102 12.4492 26.2031 13.3125C28.5039 14.1797 30.4883 15.3828 32.1562 16.9219C33.8203 18.4648 35.1289 20.3047 36.0781 22.4375C37.0234 24.5625 37.5 26.8906 37.5 29.4219ZM30.1719 29.4219C30.1719 27.5586 30.0195 25.668 29.7188 23.75C29.4258 21.8359 28.8594 20.0938 28.0156 18.5312C27.1719 16.9688 26 15.6953 24.5 14.7031C23.0078 13.7148 21.082 13.2188 18.7188 13.2188C16.3516 13.2188 14.4297 13.7148 12.9531 14.7031C11.4844 15.6953 10.3281 16.9688 9.48438 18.5312C8.64062 20.0938 8.06641 21.8359 7.76562 23.75C7.47266 25.668 7.32812 27.5586 7.32812 29.4219C7.32812 31.2773 7.47266 33.1641 7.76562 35.0781C8.06641 36.9961 8.64062 38.7344 9.48438 40.2969C10.3281 41.8594 11.4844 43.1367 12.9531 44.125C14.4297 45.1172 16.3516 45.6094 18.7188 45.6094C21.082 45.6094 23.0078 45.1172 24.5 44.125C26 43.1367 27.1719 41.8594 28.0156 40.2969C28.8594 38.7344 29.4258 36.9961 29.7188 35.0781C30.0195 33.1641 30.1719 31.2773 30.1719 29.4219ZM99.043 45.8594V19.4219C99.043 18.8281 98.8945 18.5312 98.6055 18.5312C98.3555 18.5312 98.0586 18.8086 97.7149 19.3594L83.043 45.8594H82.293L67.9336 19.6094C67.5039 18.8906 67.1875 18.5312 66.9805 18.5312C66.8125 18.5312 66.6992 18.6641 66.6367 18.9219C66.5742 19.1719 66.543 19.4453 66.543 19.7344V45.8594H64.9649V17.0156C64.9649 15.4141 65.2656 14.1797 65.8711 13.3125C66.4844 12.4492 67.2344 12.0156 68.1211 12.0156C68.8399 12.0156 69.5625 12.3125 70.293 12.9062C71.0313 13.5 71.7617 14.4297 72.4805 15.6875L84.8867 38.4531H85.0742L97.5899 16.0625C98.3086 14.7188 99.1094 13.7109 99.9961 13.0312C100.879 12.3555 101.703 12.0156 102.465 12.0156C103.348 12.0156 104.082 12.4609 104.668 13.3438C105.262 14.2305 105.559 15.6211 105.559 17.5156V45.8594H99.043ZM150.148 29.4219C150.148 31.9453 149.672 34.2734 148.727 36.4062C147.777 38.5312 146.469 40.3672 144.805 41.9062C143.137 43.4492 141.152 44.6523 138.852 45.5156C136.559 46.3789 134.063 46.8125 131.367 46.8125C128.668 46.8125 126.18 46.3789 123.898 45.5156C121.625 44.6523 119.656 43.4492 117.992 41.9062C116.324 40.3672 115.016 38.5312 114.07 36.4062C113.121 34.2734 112.648 31.9453 112.648 29.4219C112.648 26.8906 113.121 24.5625 114.07 22.4375C115.016 20.3047 116.324 18.4648 117.992 16.9219C119.656 15.3828 121.625 14.1797 123.898 13.3125C126.18 12.4492 128.668 12.0156 131.367 12.0156C134.063 12.0156 136.559 12.4492 138.852 13.3125C141.152 14.1797 143.137 15.3828 144.805 16.9219C146.469 18.4648 147.777 20.3047 148.727 22.4375C149.672 24.5625 150.148 26.8906 150.148 29.4219ZM142.82 29.4219C142.82 27.5586 142.668 25.668 142.367 23.75C142.074 21.8359 141.508 20.0938 140.664 18.5312C139.82 16.9688 138.648 15.6953 137.148 14.7031C135.656 13.7148 133.73 13.2188 131.367 13.2188C129 13.2188 127.078 13.7148 125.602 14.7031C124.133 15.6953 122.977 16.9688 122.133 18.5312C121.289 20.0938 120.715 21.8359 120.414 23.75C120.121 25.668 119.977 27.5586 119.977 29.4219C119.977 31.2773 120.121 33.1641 120.414 35.0781C120.715 36.9961 121.289 38.7344 122.133 40.2969C122.977 41.8594 124.133 43.1367 125.602 44.125C127.078 45.1172 129 45.6094 131.367 45.6094C133.73 45.6094 135.656 45.1172 137.148 44.125C138.648 43.1367 139.82 41.8594 140.664 40.2969C141.508 38.7344 142.074 36.9961 142.367 35.0781C142.668 33.1641 142.82 31.2773 142.82 29.4219ZM165.398 4.875C165.398 5.88672 165.039 6.76172 164.32 7.5C163.602 8.24219 162.695 8.60938 161.602 8.60938C160.59 8.60938 159.715 8.24219 158.977 7.5C158.234 6.76172 157.867 5.88672 157.867 4.875C157.867 3.86719 158.234 2.98047 158.977 2.21875C159.715 1.46094 160.59 1.07812 161.602 1.07812C162.695 1.07812 163.602 1.46094 164.32 2.21875C165.039 2.98047 165.398 3.86719 165.398 4.875ZM164.883 43.9688C164.883 47.0391 164.281 49.5156 163.086 51.3906C161.887 53.2656 160.445 54.7188 158.758 55.75C157.07 56.7891 155.309 57.4883 153.477 57.8438C151.645 58.207 150.094 58.3906 148.82 58.3906H146.867L147.367 57.125H149.07C149.789 57.125 150.691 57.0156 151.773 56.7969C152.844 56.5859 153.867 55.957 154.836 54.9062C155.805 53.8516 156.633 52.2383 157.32 50.0625C158.016 47.8945 158.367 44.8516 158.367 40.9219V12.9688H164.883V43.9688ZM177.609 45.8594C176.555 45.8594 175.816 45.375 175.391 44.4062C174.973 43.4375 174.766 42.4297 174.766 41.375V17.0781C174.766 16.1094 174.992 15.1836 175.453 14.2969C175.922 13.4141 176.641 12.9688 177.609 12.9688H204.359V14.5469H184C183.195 14.5469 182.539 14.8555 182.031 15.4688C181.52 16.0859 181.266 16.793 181.266 17.5938V27.2656H201.828V28.8438H181.266V40.8594C181.266 41.6211 181.5 42.3828 181.969 43.1406C182.438 43.9023 183.113 44.2812 184 44.2812H206.391V45.8594H177.609ZM220.934 4.875C220.934 5.88672 220.574 6.76172 219.855 7.5C219.137 8.24219 218.23 8.60938 217.137 8.60938C216.125 8.60938 215.25 8.24219 214.512 7.5C213.77 6.76172 213.402 5.88672 213.402 4.875C213.402 3.86719 213.77 2.98047 214.512 2.21875C215.25 1.46094 216.125 1.07812 217.137 1.07812C218.23 1.07812 219.137 1.46094 219.855 2.21875C220.574 2.98047 220.934 3.86719 220.934 4.875ZM220.418 43.9688C220.418 47.0391 219.816 49.5156 218.621 51.3906C217.422 53.2656 215.98 54.7188 214.293 55.75C212.605 56.7891 210.844 57.4883 209.012 57.8438C207.18 58.207 205.629 58.3906 204.355 58.3906H202.402L202.902 57.125H204.605C205.324 57.125 206.227 57.0156 207.309 56.7969C208.379 56.5859 209.402 55.957 210.371 54.9062C211.34 53.8516 212.168 52.2383 212.855 50.0625C213.551 47.8945 213.902 44.8516 213.902 40.9219V12.9688H220.418V43.9688ZM277.355 45.8594V17.0781C276 16.2344 274.52 15.5117 272.918 14.9062C271.324 14.293 269.449 13.9844 267.293 13.9844C266.238 13.9844 265.066 14.168 263.777 14.5312C262.496 14.8867 261.293 15.6016 260.168 16.6719C259.051 17.7461 258.113 19.2773 257.355 21.2656C256.605 23.2461 256.23 25.8555 256.23 29.0938C256.23 32.4297 256.574 35.0898 257.262 37.0781C257.957 39.0586 258.918 40.5859 260.137 41.6562C261.363 42.7305 262.793 43.4375 264.418 43.7812C266.043 44.1172 267.801 44.2812 269.699 44.2812H273.934L274.824 45.8594H265.199C262.969 45.8594 260.859 45.4805 258.871 44.7188C256.891 43.9609 255.16 42.875 253.684 41.4688C252.215 40.0547 251.047 38.3047 250.184 36.2188C249.316 34.125 248.887 31.75 248.887 29.0938C248.887 26.9062 249.309 24.793 250.152 22.75C250.996 20.6992 252.141 18.8867 253.59 17.3125C255.047 15.7305 256.766 14.4531 258.746 13.4844C260.734 12.5078 262.887 12.0156 265.199 12.0156C266.887 12.0156 268.348 12.1055 269.59 12.2812C270.84 12.4492 271.937 12.668 272.887 12.9375C273.832 13.2109 274.668 13.5391 275.387 13.9219C276.105 14.2969 276.762 14.6992 277.355 15.125V0H283.871V45.8594H277.355ZM318.84 45.8594C318.672 45.2656 318.426 44.4961 318.105 43.5469C317.793 42.6016 317.434 41.6016 317.027 40.5469C316.629 39.4961 316.219 38.4453 315.793 37.3906C315.375 36.3281 314.98 35.3984 314.605 34.5938C314.094 33.5 313.543 32.6094 312.949 31.9219C312.363 31.2266 311.66 30.6562 310.84 30.2188C310.016 29.7734 309.059 29.4648 307.965 29.2969C306.871 29.1211 305.562 29.0312 304.043 29.0312H302.012L303.027 27.5156H308.09C309.309 27.5156 310.465 27.4023 311.559 27.1719C312.66 26.9453 313.625 26.5547 314.449 26C315.27 25.4492 315.934 24.7422 316.434 23.875C316.941 23.0117 317.199 21.9297 317.199 20.625C317.199 19.6172 316.941 18.7305 316.434 17.9688C315.934 17.2109 315.238 16.5781 314.355 16.0781C313.469 15.5703 312.434 15.1875 311.246 14.9375C310.066 14.6797 308.781 14.5469 307.387 14.5469H302.215C301.41 14.5469 300.754 14.8555 300.246 15.4688C299.734 16.0859 299.48 16.793 299.48 17.5938V45.8594H292.98V17.0781C292.98 16.1094 293.207 15.1836 293.668 14.2969C294.137 13.4141 294.855 12.9688 295.824 12.9688H305.809C311.922 12.9688 316.465 13.5859 319.434 14.8125C322.41 16.0312 323.902 18.0938 323.902 21C323.902 22.3125 323.594 23.4453 322.98 24.3906C322.375 25.3398 321.543 26.1406 320.48 26.7969C319.426 27.4453 318.184 27.9492 316.746 28.3125C315.316 28.668 313.781 28.8867 312.137 28.9688V29.0312C313.656 29.375 314.996 29.7617 316.152 30.1875C317.309 30.6055 318.328 31.1641 319.215 31.8594C320.098 32.5469 320.891 33.4141 321.59 34.4531C322.285 35.4844 322.953 36.7578 323.59 38.2656L326.684 45.8594H318.84ZM367.984 29.4219C367.984 31.9453 367.508 34.2734 366.563 36.4062C365.613 38.5312 364.305 40.3672 362.641 41.9062C360.973 43.4492 358.988 44.6523 356.688 45.5156C354.395 46.3789 351.898 46.8125 349.203 46.8125C346.504 46.8125 344.016 46.3789 341.734 45.5156C339.461 44.6523 337.492 43.4492 335.828 41.9062C334.16 40.3672 332.852 38.5312 331.906 36.4062C330.957 34.2734 330.484 31.9453 330.484 29.4219C330.484 26.8906 330.957 24.5625 331.906 22.4375C332.852 20.3047 334.16 18.4648 335.828 16.9219C337.492 15.3828 339.461 14.1797 341.734 13.3125C344.016 12.4492 346.504 12.0156 349.203 12.0156C351.898 12.0156 354.395 12.4492 356.688 13.3125C358.988 14.1797 360.973 15.3828 362.641 16.9219C364.305 18.4648 365.613 20.3047 366.563 22.4375C367.508 24.5625 367.984 26.8906 367.984 29.4219ZM360.656 29.4219C360.656 27.5586 360.504 25.668 360.203 23.75C359.91 21.8359 359.344 20.0938 358.5 18.5312C357.656 16.9688 356.484 15.6953 354.984 14.7031C353.492 13.7148 351.566 13.2188 349.203 13.2188C346.836 13.2188 344.914 13.7148 343.438 14.7031C341.969 15.6953 340.812 16.9688 339.969 18.5312C339.125 20.0938 338.551 21.8359 338.25 23.75C337.957 25.668 337.812 27.5586 337.812 29.4219C337.812 31.2773 337.957 33.1641 338.25 35.0781C338.551 36.9961 339.125 38.7344 339.969 40.2969C340.812 41.8594 341.969 43.1367 343.438 44.125C344.914 45.1172 346.836 45.6094 349.203 45.6094C351.566 45.6094 353.492 45.1172 354.984 44.125C356.484 43.1367 357.656 41.8594 358.5 40.2969C359.344 38.7344 359.91 36.9961 360.203 35.0781C360.504 33.1641 360.656 31.2773 360.656 29.4219ZM401.578 45.8594V17.0781C400.223 16.2344 398.742 15.5117 397.141 14.9062C395.547 14.293 393.672 13.9844 391.516 13.9844C390.461 13.9844 389.289 14.168 388 14.5312C386.719 14.8867 385.516 15.6016 384.391 16.6719C383.273 17.7461 382.336 19.2773 381.578 21.2656C380.828 23.2461 380.453 25.8555 380.453 29.0938C380.453 32.4297 380.797 35.0898 381.484 37.0781C382.18 39.0586 383.141 40.5859 384.359 41.6562C385.586 42.7305 387.016 43.4375 388.641 43.7812C390.266 44.1172 392.023 44.2812 393.922 44.2812H398.156L399.047 45.8594H389.422C387.191 45.8594 385.082 45.4805 383.094 44.7188C381.113 43.9609 379.383 42.875 377.906 41.4688C376.438 40.0547 375.27 38.3047 374.406 36.2188C373.539 34.125 373.109 31.75 373.109 29.0938C373.109 26.9062 373.531 24.793 374.375 22.75C375.219 20.6992 376.363 18.8867 377.813 17.3125C379.27 15.7305 380.988 14.4531 382.969 13.4844C384.957 12.5078 387.109 12.0156 389.422 12.0156C391.109 12.0156 392.57 12.1055 393.813 12.2812C395.063 12.4492 396.16 12.668 397.109 12.9375C398.055 13.2109 398.891 13.5391 399.609 13.9219C400.328 14.2969 400.984 14.6992 401.578 15.125V0H408.094V45.8594H401.578ZM444.969 13.7969C444.969 14.1328 444.773 14.5938 444.391 15.1875C444.016 15.7734 443.445 16.5742 442.688 17.5938L423.781 42.3125C423.313 42.9062 423.078 43.3516 423.078 43.6406C423.078 43.9844 423.234 44.1797 423.547 44.2188C423.867 44.2617 424.195 44.2812 424.531 44.2812H444.078V45.8594H417C416.289 45.8594 415.68 45.8203 415.172 45.7344C414.66 45.6523 414.406 45.375 414.406 44.9062C414.406 44.5742 414.57 44.1055 414.906 43.5C415.25 42.8867 415.82 42.0703 416.625 41.0469L435.406 16.8906C435.664 16.5586 435.91 16.2344 436.141 15.9219C436.367 15.6016 436.484 15.3125 436.484 15.0625C436.484 14.7188 436.125 14.5469 435.406 14.5469H417.391V12.9688H442.188C443.07 12.9688 443.754 13.0117 444.234 13.0938C444.723 13.1797 444.969 13.4141 444.969 13.7969ZM454.391 45.8594C453.336 45.8594 452.598 45.375 452.172 44.4062C451.754 43.4375 451.547 42.4297 451.547 41.375V17.0781C451.547 16.1094 451.773 15.1836 452.234 14.2969C452.703 13.4141 453.422 12.9688 454.391 12.9688H481.141V14.5469H460.781C459.977 14.5469 459.32 14.8555 458.813 15.4688C458.301 16.0859 458.047 16.793 458.047 17.5938V27.2656H478.609V28.8438H458.047V40.8594C458.047 41.6211 458.281 42.3828 458.75 43.1406C459.219 43.9023 459.895 44.2812 460.781 44.2812H483.172V45.8594H454.391Z" fill="#665F20"/>
</svg>
