<svg width="526" height="64" viewBox="0 0 526 64" fill="none" xmlns="http://www.w3.org/2000/svg">
<path d="M25.2031 13.4844C25.2031 15.2031 24.8477 16.7617 24.1406 18.1562C23.4414 19.5547 22.5078 20.7461 21.3438 21.7344C20.1758 22.7266 18.8359 23.4922 17.3281 24.0313C15.8164 24.5625 14.2383 24.8281 12.5938 24.8281C10.9766 24.8281 9.40625 24.5625 7.875 24.0313C6.35156 23.4922 5.00781 22.7266 3.84375 21.7344C2.67578 20.7461 1.74219 19.5547 1.04688 18.1562C0.347656 16.7617 0 15.2031 0 13.4844C0 11.7773 0.347656 10.2266 1.04688 8.82813C1.74219 7.42188 2.67578 6.23047 3.84375 5.25C5.00781 4.26172 6.35156 3.5 7.875 2.96875C9.40625 2.42969 10.9766 2.15625 12.5938 2.15625C14.2383 2.15625 15.8164 2.42969 17.3281 2.96875C18.8359 3.5 20.1758 4.26172 21.3438 5.25C22.5078 6.23047 23.4414 7.42188 24.1406 8.82813C24.8477 10.2266 25.2031 11.7773 25.2031 13.4844ZM20.7344 13.4844C20.7344 12.2461 20.5938 11.0078 20.3125 9.76563C20.0312 8.51563 19.5703 7.39063 18.9375 6.39062C18.3125 5.39062 17.4727 4.57812 16.4219 3.95312C15.3789 3.32031 14.1016 3 12.5938 3C11.082 3 9.80469 3.32031 8.76562 3.95312C7.72266 4.57812 6.88281 5.39062 6.25 6.39062C5.61328 7.39063 5.15625 8.51563 4.875 9.76563C4.60156 11.0078 4.46875 12.2461 4.46875 13.4844C4.46875 14.7344 4.60156 15.9844 4.875 17.2344C5.15625 18.4766 5.61328 19.5938 6.25 20.5938C6.88281 21.5938 7.72266 22.4141 8.76562 23.0469C9.80469 23.6719 11.082 23.9844 12.5938 23.9844C14.1016 23.9844 15.3789 23.6719 16.4219 23.0469C17.4727 22.4141 18.3125 21.5938 18.9375 20.5938C19.5703 19.5938 20.0312 18.4766 20.3125 17.2344C20.5938 15.9844 20.7344 14.7344 20.7344 13.4844ZM35.0898 24.1563H30.9336C30.3711 24.1563 29.9805 23.9023 29.7617 23.3906C29.543 22.8828 29.4336 22.3516 29.4336 21.7969V0H32.8555V21.5156C32.8555 21.9219 32.9727 22.3281 33.2148 22.7344C33.4648 23.1328 33.8242 23.3281 34.293 23.3281H35.3555L35.0898 24.1563ZM39.7305 24.1563C39.1758 24.1563 38.7852 23.9023 38.5586 23.3906C38.3398 22.8828 38.2305 22.3516 38.2305 21.7969V8.98438C38.2305 8.47656 38.3477 7.99219 38.5898 7.53125C38.8398 7.0625 39.2188 6.82812 39.7305 6.82812H53.8242V7.65625H43.0898C42.6719 7.65625 42.3281 7.82031 42.0586 8.14063C41.7969 8.46484 41.668 8.83984 41.668 9.26563V14.3594H52.4961V15.1875H41.668V21.5156C41.668 21.9219 41.7852 22.3281 42.0273 22.7344C42.2656 23.1328 42.6211 23.3281 43.0898 23.3281H54.8867V24.1563H39.7305ZM62.5547 2.5625C62.5547 3.09375 62.3672 3.55859 61.9922 3.95312C61.6172 4.33984 61.1367 4.53125 60.5547 4.53125C60.0234 4.53125 59.5586 4.33984 59.1641 3.95312C58.7773 3.55859 58.5859 3.09375 58.5859 2.5625C58.5859 2.03125 58.7773 1.57031 59.1641 1.17188C59.5586 0.765625 60.0234 0.5625 60.5547 0.5625C61.1367 0.5625 61.6172 0.765625 61.9922 1.17188C62.3672 1.57031 62.5547 2.03125 62.5547 2.5625ZM62.2891 23.1563C62.2891 24.7813 61.9688 26.0859 61.3359 27.0781C60.6992 28.0664 59.9375 28.832 59.0547 29.375C58.168 29.9141 57.2422 30.2813 56.2734 30.4688C55.3047 30.6563 54.4883 30.75 53.8203 30.75H52.7891L53.0547 30.0938H53.9609C54.3359 30.0938 54.8125 30.0352 55.3828 29.9219C55.9453 29.8047 56.4805 29.4727 56.9922 28.9219C57.5 28.3672 57.9375 27.5195 58.3047 26.375C58.668 25.2266 58.8516 23.625 58.8516 21.5625V6.82812H62.2891V23.1563ZM81.0234 24.1563L77.8516 18.8906C77.6719 18.6016 77.4492 18.2188 77.1797 17.75C76.918 17.2734 76.6211 16.8047 76.2891 16.3438C75.9531 15.8867 75.5781 15.4922 75.1641 15.1563C74.7578 14.8242 74.3281 14.6563 73.8828 14.6563C73.6211 14.6563 73.3828 14.7422 73.1641 14.9063C72.9531 15.0742 72.7188 15.3125 72.4609 15.625V14.3906L81.7266 6.82812H83.0547L74.4609 13.7969V13.8594C74.6172 13.8398 74.7578 13.8281 74.8828 13.8281C75.0156 13.8281 75.1523 13.8281 75.2891 13.8281C76.2891 13.8281 77.1211 13.9766 77.7891 14.2656C78.4531 14.5469 79.043 14.9375 79.5547 15.4375C80.0625 15.9375 80.5273 16.5117 80.9453 17.1562C81.3711 17.8047 81.8281 18.4922 82.3203 19.2188L85.5859 24.1563H81.0234ZM67.6953 24.1563V0H71.1172V24.1563H67.6953ZM93.1133 2.5625C93.1133 3.09375 92.9258 3.55859 92.5508 3.95312C92.1758 4.33984 91.6953 4.53125 91.1133 4.53125C90.582 4.53125 90.1211 4.33984 89.7383 3.95312C89.3516 3.55859 89.1602 3.09375 89.1602 2.5625C89.1602 2.03125 89.3516 1.57031 89.7383 1.17188C90.1211 0.765625 90.582 0.5625 91.1133 0.5625C91.6953 0.5625 92.1758 0.765625 92.5508 1.17188C92.9258 1.57031 93.1133 2.03125 93.1133 2.5625ZM89.4258 24.1563V6.82812H92.8477V24.1563H89.4258ZM123.02 24.1563V8.98438C122.301 8.54688 121.52 8.16797 120.676 7.84375C119.832 7.52344 118.848 7.35938 117.723 7.35938C117.16 7.35938 116.539 7.45313 115.863 7.64063C115.184 7.82813 114.551 8.21094 113.957 8.78125C113.371 9.34375 112.879 10.1523 112.473 11.2031C112.074 12.2461 111.879 13.6211 111.879 15.3281C111.879 17.0781 112.059 18.4805 112.426 19.5312C112.801 20.5742 113.305 21.3828 113.941 21.9531C114.586 22.5156 115.336 22.8867 116.191 23.0625C117.055 23.2422 117.988 23.3281 118.988 23.3281H121.223L121.676 24.1563H116.613C115.434 24.1563 114.324 23.9609 113.285 23.5625C112.242 23.1563 111.332 22.5859 110.551 21.8438C109.77 21.0938 109.148 20.1719 108.691 19.0781C108.242 17.9766 108.02 16.7266 108.02 15.3281C108.02 14.1719 108.238 13.0586 108.676 11.9844C109.121 10.9023 109.727 9.94531 110.488 9.10938C111.258 8.27734 112.164 7.60547 113.207 7.09375C114.258 6.58594 115.395 6.32812 116.613 6.32812C117.496 6.32812 118.27 6.375 118.926 6.46875C119.582 6.55469 120.16 6.66797 120.66 6.8125C121.16 6.96094 121.598 7.13281 121.973 7.32813C122.355 7.52734 122.707 7.73438 123.02 7.95313V0H126.441V24.1563H123.02ZM149.781 15.4844C149.781 16.8203 149.531 18.0469 149.031 19.1719C148.531 20.2969 147.836 21.2656 146.953 22.0781C146.078 22.8906 145.035 23.5273 143.828 23.9844C142.617 24.4297 141.301 24.6563 139.875 24.6563C138.457 24.6563 137.145 24.4297 135.938 23.9844C134.738 23.5273 133.703 22.8906 132.828 22.0781C131.953 21.2656 131.266 20.2969 130.766 19.1719C130.266 18.0469 130.016 16.8203 130.016 15.4844C130.016 14.1523 130.266 12.9297 130.766 11.8125C131.266 10.6875 131.953 9.71875 132.828 8.90625C133.703 8.09375 134.738 7.46484 135.938 7.01562C137.145 6.55859 138.457 6.32812 139.875 6.32812C141.301 6.32812 142.617 6.55859 143.828 7.01562C145.035 7.46484 146.078 8.09375 146.953 8.90625C147.836 9.71875 148.531 10.6875 149.031 11.8125C149.531 12.9297 149.781 14.1523 149.781 15.4844ZM145.906 15.4844C145.906 14.5156 145.828 13.5273 145.672 12.5156C145.516 11.4961 145.211 10.5781 144.766 9.76563C144.328 8.94531 143.711 8.27344 142.922 7.75C142.141 7.21875 141.125 6.95312 139.875 6.95312C138.633 6.95312 137.625 7.21875 136.844 7.75C136.07 8.27344 135.461 8.94531 135.016 9.76563C134.566 10.5781 134.266 11.4961 134.109 12.5156C133.953 13.5273 133.875 14.5156 133.875 15.4844C133.875 16.4648 133.953 17.4609 134.109 18.4688C134.266 19.4805 134.566 20.3984 135.016 21.2188C135.461 22.043 136.07 22.7148 136.844 23.2344C137.625 23.7578 138.633 24.0156 139.875 24.0156C141.125 24.0156 142.141 23.7578 142.922 23.2344C143.711 22.7148 144.328 22.043 144.766 21.2188C145.211 20.3984 145.516 19.4805 145.672 18.4688C145.828 17.4609 145.906 16.4648 145.906 15.4844ZM178.199 24.1563V6.82812H181.637V24.1563H178.199ZM171.168 24.1563C170.043 24.1563 169.031 24.043 168.137 23.8125C167.25 23.5742 166.504 23.1797 165.902 22.625C165.309 22.0742 164.855 21.3398 164.543 20.4219C164.23 19.4961 164.074 18.3398 164.074 16.9531V6.82812H167.512V16.9844C167.512 17.7891 167.598 18.5703 167.777 19.3281C167.953 20.0781 168.234 20.75 168.621 21.3438C169.016 21.9297 169.52 22.4063 170.137 22.7813C170.762 23.1484 171.516 23.3281 172.402 23.3281H176.402L176.871 24.1563H171.168ZM201.203 18.75C201.203 19.9609 200.895 20.9453 200.281 21.7031C199.676 22.4531 198.906 23.0547 197.969 23.5C197.039 23.9375 196.031 24.2383 194.938 24.4063C193.844 24.5703 192.832 24.6563 191.906 24.6563C190.57 24.6563 189.242 24.5469 187.922 24.3281C186.598 24.1211 185.305 23.7891 184.047 23.3281L184.266 22.3906C184.785 22.6094 185.359 22.8086 185.984 22.9844C186.617 23.1641 187.285 23.3125 187.984 23.4375C188.68 23.5625 189.383 23.6641 190.094 23.7344C190.813 23.7969 191.484 23.8281 192.109 23.8281C192.754 23.8281 193.414 23.7734 194.094 23.6563C194.77 23.543 195.391 23.3516 195.953 23.0781C196.516 22.7969 196.973 22.4063 197.328 21.9063C197.691 21.4063 197.875 20.7812 197.875 20.0312C197.875 19.3867 197.75 18.875 197.5 18.5C197.258 18.1172 196.891 17.8125 196.391 17.5938C195.891 17.3672 195.27 17.2031 194.531 17.1094C193.801 17.0078 192.945 16.9141 191.969 16.8281C191.238 16.7578 190.469 16.6367 189.656 16.4688C188.844 16.3047 188.098 16.0391 187.422 15.6719C186.742 15.3086 186.188 14.8281 185.75 14.2344C185.32 13.6328 185.109 12.8594 185.109 11.9219C185.109 10.7656 185.395 9.82813 185.969 9.10938C186.551 8.39063 187.273 7.82813 188.141 7.42188C189.004 7.00781 189.945 6.71875 190.969 6.5625C191.988 6.40625 192.957 6.32812 193.875 6.32812C194.852 6.32812 195.898 6.44922 197.016 6.6875C198.141 6.91797 199.156 7.21875 200.063 7.59375L199.797 8.48438C198.953 8.08984 197.977 7.77344 196.875 7.53125C195.781 7.28125 194.586 7.15625 193.297 7.15625C192.66 7.15625 192.047 7.21875 191.453 7.34375C190.867 7.46875 190.352 7.68359 189.906 7.98438C189.457 8.27734 189.098 8.66797 188.828 9.15625C188.566 9.64844 188.438 10.2461 188.438 10.9531C188.438 11.5391 188.602 12.0156 188.938 12.3906C189.27 12.7656 189.711 13.0703 190.266 13.2969C190.828 13.5156 191.469 13.6836 192.188 13.7969C192.906 13.9023 193.645 13.9805 194.406 14.0313C196.758 14.1875 198.477 14.6172 199.563 15.3125C200.656 16.0117 201.203 17.1562 201.203 18.75ZM212.598 8.48438H209.473V21.5156C209.473 21.9219 209.59 22.3281 209.832 22.7344C210.082 23.1328 210.434 23.3281 210.895 23.3281H212.504L212.301 24.1563H207.535C206.98 24.1563 206.59 23.9023 206.363 23.3906C206.145 22.8828 206.035 22.3516 206.035 21.7969V8.48438H203.566L203.863 7.65625H206.035V2.89062H209.473V7.65625H212.832L212.598 8.48438ZM238.496 14.625V24.1563H234.637V15.1563L225.262 2.82812H229.668L237.902 13.7656L246.027 2.82812H247.371L238.496 14.625ZM269.496 15.4844C269.496 16.8203 269.246 18.0469 268.746 19.1719C268.246 20.2969 267.551 21.2656 266.668 22.0781C265.793 22.8906 264.75 23.5273 263.543 23.9844C262.332 24.4297 261.016 24.6563 259.59 24.6563C258.172 24.6563 256.859 24.4297 255.652 23.9844C254.453 23.5273 253.418 22.8906 252.543 22.0781C251.668 21.2656 250.98 20.2969 250.48 19.1719C249.98 18.0469 249.73 16.8203 249.73 15.4844C249.73 14.1523 249.98 12.9297 250.48 11.8125C250.98 10.6875 251.668 9.71875 252.543 8.90625C253.418 8.09375 254.453 7.46484 255.652 7.01562C256.859 6.55859 258.172 6.32812 259.59 6.32812C261.016 6.32812 262.332 6.55859 263.543 7.01562C264.75 7.46484 265.793 8.09375 266.668 8.90625C267.551 9.71875 268.246 10.6875 268.746 11.8125C269.246 12.9297 269.496 14.1523 269.496 15.4844ZM265.621 15.4844C265.621 14.5156 265.543 13.5273 265.387 12.5156C265.23 11.4961 264.926 10.5781 264.48 9.76563C264.043 8.94531 263.426 8.27344 262.637 7.75C261.855 7.21875 260.84 6.95312 259.59 6.95312C258.348 6.95312 257.34 7.21875 256.559 7.75C255.785 8.27344 255.176 8.94531 254.73 9.76563C254.281 10.5781 253.98 11.4961 253.824 12.5156C253.668 13.5273 253.59 14.5156 253.59 15.4844C253.59 16.4648 253.668 17.4609 253.824 18.4688C253.98 19.4805 254.281 20.3984 254.73 21.2188C255.176 22.043 255.785 22.7148 256.559 23.2344C257.34 23.7578 258.348 24.0156 259.59 24.0156C260.84 24.0156 261.855 23.7578 262.637 23.2344C263.426 22.7148 264.043 22.043 264.48 21.2188C264.926 20.3984 265.23 19.4805 265.387 18.4688C265.543 17.4609 265.621 16.4648 265.621 15.4844ZM287.117 24.1563V6.82812H290.555V24.1563H287.117ZM280.086 24.1563C278.961 24.1563 277.949 24.043 277.055 23.8125C276.168 23.5742 275.422 23.1797 274.82 22.625C274.227 22.0742 273.773 21.3398 273.461 20.4219C273.148 19.4961 272.992 18.3398 272.992 16.9531V6.82812H276.43V16.9844C276.43 17.7891 276.516 18.5703 276.695 19.3281C276.871 20.0781 277.152 20.75 277.539 21.3438C277.934 21.9297 278.438 22.4063 279.055 22.7813C279.68 23.1484 280.434 23.3281 281.32 23.3281H285.32L285.789 24.1563H280.086ZM308.414 24.1563C308.328 23.8438 308.203 23.4375 308.039 22.9375C307.871 22.4375 307.68 21.9141 307.461 21.3594C307.25 20.8086 307.039 20.2578 306.82 19.7031C306.602 19.1406 306.387 18.6484 306.18 18.2188C305.918 17.6484 305.633 17.1797 305.32 16.8125C305.008 16.4375 304.633 16.1367 304.195 15.9063C303.766 15.6797 303.262 15.5234 302.68 15.4375C302.105 15.3438 301.418 15.2969 300.617 15.2969H299.555L300.086 14.4844H302.758C303.391 14.4844 303.996 14.4297 304.57 14.3125C305.152 14.1875 305.664 13.9844 306.102 13.7031C306.539 13.4141 306.887 13.0391 307.148 12.5781C307.418 12.1211 307.555 11.5469 307.555 10.8594C307.555 10.3281 307.418 9.86719 307.148 9.46875C306.887 9.0625 306.523 8.73047 306.055 8.46875C305.586 8.19922 305.039 7.99609 304.414 7.85938C303.797 7.72656 303.121 7.65625 302.383 7.65625H299.648C299.23 7.65625 298.887 7.82031 298.617 8.14063C298.355 8.46484 298.227 8.83984 298.227 9.26563V24.1563H294.789V8.98438C294.789 8.47656 294.906 7.99219 295.148 7.53125C295.398 7.0625 295.777 6.82812 296.289 6.82812H301.555C304.773 6.82812 307.164 7.15234 308.727 7.79688C310.297 8.44531 311.086 9.53125 311.086 11.0625C311.086 11.75 310.922 12.3438 310.602 12.8438C310.277 13.3438 309.836 13.7656 309.273 14.1094C308.719 14.4531 308.062 14.7188 307.305 14.9063C306.555 15.0938 305.746 15.2109 304.883 15.25V15.2969C305.684 15.4766 306.387 15.6719 306.992 15.8906C307.605 16.1094 308.148 16.4062 308.617 16.7812C309.086 17.1484 309.5 17.6016 309.867 18.1406C310.23 18.6836 310.578 19.3555 310.914 20.1562L312.555 24.1563H308.414ZM343.055 24.1563L338.789 17.0938C338.477 16.5625 338.152 16.0586 337.82 15.5781C337.484 15.1016 337.152 14.6719 336.82 14.2969C336.484 13.9141 336.148 13.6094 335.805 13.3906C335.461 13.1719 335.105 13.0625 334.742 13.0625C334.438 13.0625 334.18 13.1055 333.961 13.1875C333.75 13.2617 333.547 13.3867 333.352 13.5625L332.914 13.9219V12.8594L345.055 2.82812H346.477L334.852 12.3594V12.4219H335.648C336.25 12.4219 336.855 12.4648 337.461 12.5469C338.074 12.6211 338.668 12.7773 339.242 13.0156C339.824 13.2461 340.387 13.5742 340.93 14C341.469 14.418 341.977 14.9609 342.445 15.625L348.445 24.1563H343.055ZM327.711 24.1563V2.82812H331.586V24.1563H327.711ZM364.836 24.1563V14.2656H362.211C361.324 14.2656 360.438 14.3359 359.555 14.4688C358.68 14.5938 357.898 14.8516 357.211 15.2344C356.523 15.6094 355.965 16.1367 355.539 16.8125C355.121 17.4922 354.914 18.3711 354.914 19.4531C354.914 20.6836 355.242 21.6367 355.898 22.3125C356.555 22.9922 357.602 23.3281 359.039 23.3281H363.07L363.508 24.1563H358.07C357.203 24.1563 356.355 24.0703 355.523 23.8906C354.688 23.7148 353.938 23.4297 353.273 23.0313C352.605 22.625 352.062 22.0898 351.648 21.4219C351.242 20.7578 351.039 19.9219 351.039 18.9219C351.039 18.1016 351.23 17.3906 351.617 16.7969C352.012 16.1953 352.531 15.6953 353.18 15.2969C353.824 14.8906 354.547 14.5703 355.352 14.3281C356.164 14.0781 356.98 13.8906 357.805 13.7656C358.625 13.6328 359.434 13.543 360.227 13.5C361.016 13.4492 361.699 13.4219 362.273 13.4219H364.836V12.4219C364.836 10.8281 364.445 9.54687 363.664 8.57812C362.891 7.60937 361.664 7.125 359.977 7.125C358.371 7.125 356.93 7.27734 355.648 7.57812C354.375 7.88281 353.219 8.32031 352.18 8.89062L351.945 7.98437C353.258 7.29687 354.633 6.85156 356.07 6.64062C357.516 6.43359 358.984 6.32812 360.477 6.32812C361.434 6.32812 362.375 6.42187 363.305 6.60937C364.242 6.79687 365.074 7.10937 365.805 7.54687C366.543 7.97656 367.137 8.54687 367.586 9.26562C368.043 9.97656 368.273 10.8516 368.273 11.8906V24.1563H364.836ZM380.977 23.8594C380.727 24.3281 380.449 24.8281 380.148 25.3594C379.855 25.8906 379.543 26.4063 379.211 26.9063C378.875 27.4063 378.516 27.875 378.133 28.3125C377.758 28.7578 377.359 29.1406 376.945 29.4531C375.766 30.3164 374.211 30.75 372.273 30.75H371.805L372.102 29.8906C372.746 29.8906 373.312 29.8477 373.805 29.7656C374.293 29.6914 374.762 29.5664 375.211 29.3906C375.762 29.1719 376.266 28.8516 376.727 28.4375C377.184 28.0313 377.602 27.582 377.977 27.0938C378.352 26.6016 378.672 26.1094 378.945 25.6094C379.227 25.1094 379.453 24.6563 379.633 24.25L370.836 6.82812H374.742L381.68 20.5625L388.773 6.82812H389.773L380.977 23.8594ZM405.496 24.1563V14.2656H402.871C401.984 14.2656 401.098 14.3359 400.215 14.4688C399.34 14.5938 398.559 14.8516 397.871 15.2344C397.184 15.6094 396.625 16.1367 396.199 16.8125C395.781 17.4922 395.574 18.3711 395.574 19.4531C395.574 20.6836 395.902 21.6367 396.559 22.3125C397.215 22.9922 398.262 23.3281 399.699 23.3281H403.73L404.168 24.1563H398.73C397.863 24.1563 397.016 24.0703 396.184 23.8906C395.348 23.7148 394.598 23.4297 393.934 23.0313C393.266 22.625 392.723 22.0898 392.309 21.4219C391.902 20.7578 391.699 19.9219 391.699 18.9219C391.699 18.1016 391.891 17.3906 392.277 16.7969C392.672 16.1953 393.191 15.6953 393.84 15.2969C394.484 14.8906 395.207 14.5703 396.012 14.3281C396.824 14.0781 397.641 13.8906 398.465 13.7656C399.285 13.6328 400.094 13.543 400.887 13.5C401.676 13.4492 402.359 13.4219 402.934 13.4219H405.496V12.4219C405.496 10.8281 405.105 9.54687 404.324 8.57812C403.551 7.60937 402.324 7.125 400.637 7.125C399.031 7.125 397.59 7.27734 396.309 7.57812C395.035 7.88281 393.879 8.32031 392.84 8.89062L392.605 7.98437C393.918 7.29687 395.293 6.85156 396.73 6.64062C398.176 6.43359 399.645 6.32812 401.137 6.32812C402.094 6.32812 403.035 6.42187 403.965 6.60937C404.902 6.79687 405.734 7.10937 406.465 7.54687C407.203 7.97656 407.797 8.54687 408.246 9.26562C408.703 9.97656 408.934 10.8516 408.934 11.8906V24.1563H405.496ZM421.969 16.4844V14.4844H438.625V16.4844H421.969ZM472.289 15.6875C472.289 18.918 471.523 21.25 469.992 22.6875C468.461 24.1172 466.086 24.8281 462.867 24.8281C461.594 24.8281 460.34 24.7383 459.102 24.5625C457.871 24.3828 456.773 24.0391 455.805 23.5156C454.844 22.9844 454.062 22.2578 453.461 21.3281C452.867 20.3906 452.57 19.168 452.57 17.6562V2.82812H456.43V17.625C456.43 18.668 456.605 19.5859 456.961 20.375C457.312 21.168 457.809 21.8281 458.445 22.3594C459.078 22.8906 459.828 23.2969 460.695 23.5781C461.559 23.8516 462.5 23.9844 463.523 23.9844C466.305 23.9844 468.32 23.3281 469.57 22.0156C470.828 20.6953 471.461 18.5938 471.461 15.7188V2.82812H472.289V15.6875ZM499.281 21.8594C498.707 22.3711 498.035 22.8125 497.266 23.1875C496.504 23.5625 495.688 23.875 494.813 24.125C493.945 24.3633 493.039 24.5391 492.094 24.6563C491.156 24.7695 490.223 24.8281 489.297 24.8281C487.734 24.8281 486.203 24.5938 484.703 24.125C483.203 23.6563 481.859 22.9609 480.672 22.0313C479.484 21.0938 478.52 19.918 477.781 18.5C477.051 17.0742 476.688 15.4023 476.688 13.4844C476.688 11.7773 477.035 10.2266 477.734 8.82813C478.441 7.42188 479.391 6.23047 480.578 5.25C481.766 4.26172 483.133 3.5 484.688 2.96875C486.25 2.42969 487.895 2.15625 489.625 2.15625C491.645 2.15625 493.348 2.35156 494.734 2.73438C496.129 3.10938 497.211 3.51562 497.984 3.95312L497.688 4.76562C496.906 4.25781 495.895 3.83594 494.656 3.5C493.414 3.16797 491.914 3 490.156 3C488.602 3 487.258 3.32031 486.125 3.95312C484.988 4.57812 484.051 5.40625 483.313 6.4375C482.582 7.46875 482.039 8.64844 481.688 9.96875C481.332 11.293 481.156 12.6484 481.156 14.0313C481.156 15.3672 481.352 16.6328 481.75 17.8281C482.156 19.0273 482.719 20.0898 483.438 21.0156C484.164 21.9336 485.031 22.6563 486.031 23.1875C487.031 23.7188 488.117 23.9844 489.297 23.9844C491.578 23.9844 493.164 23.5703 494.063 22.7344C494.969 21.9023 495.422 20.6211 495.422 18.8906V13.3281H499.281V21.8594ZM525.918 21.7969C524.52 22.9219 522.941 23.7109 521.184 24.1563C519.434 24.6016 517.656 24.8281 515.855 24.8281C514.23 24.8281 512.656 24.5938 511.137 24.125C509.613 23.6563 508.27 22.9609 507.105 22.0313C505.938 21.0938 505.004 19.918 504.309 18.5C503.609 17.0742 503.262 15.4023 503.262 13.4844C503.262 11.7773 503.609 10.2266 504.309 8.82813C505.004 7.42188 505.938 6.23047 507.105 5.25C508.27 4.26172 509.613 3.5 511.137 2.96875C512.656 2.42969 514.23 2.15625 515.855 2.15625C516.637 2.15625 517.438 2.21094 518.262 2.3125C519.094 2.40625 519.926 2.5625 520.762 2.78125C521.594 2.99219 522.406 3.25 523.199 3.5625C523.988 3.875 524.73 4.25 525.418 4.6875L525.121 5.65625C523.848 4.8125 522.387 4.16406 520.73 3.70312C519.074 3.23438 517.449 3 515.855 3C514.344 3 513.062 3.32031 512.012 3.95312C510.969 4.57812 510.129 5.39062 509.496 6.39062C508.871 7.39063 508.418 8.51563 508.137 9.76563C507.855 11.0078 507.715 12.2461 507.715 13.4844C507.715 14.7344 507.875 15.9844 508.199 17.2344C508.52 18.4766 509.047 19.5938 509.777 20.5938C510.516 21.5938 511.488 22.4141 512.699 23.0469C513.918 23.6719 515.41 23.9844 517.184 23.9844C517.715 23.9844 518.34 23.9219 519.059 23.7969C519.785 23.6641 520.535 23.4688 521.309 23.2188C522.09 22.9609 522.855 22.6367 523.605 22.25C524.363 21.8555 525.047 21.4141 525.652 20.9219L525.918 21.7969Z" fill="#665F20"/>
<path d="M59.9531 51.4844C59.9531 52.7578 59.582 53.7734 58.8438 54.5312C58.1133 55.2812 57.2344 55.8555 56.2031 56.25C55.1719 56.6367 54.0859 56.8867 52.9531 57C51.8164 57.1055 50.8359 57.1562 50.0156 57.1562H38.8906V38.3281C38.8906 38.0586 38.9141 37.7773 38.9688 37.4844C39.0312 37.1836 39.1172 36.9141 39.2344 36.6719C39.3594 36.4219 39.5195 36.2188 39.7188 36.0625C39.9141 35.9062 40.1602 35.8281 40.4531 35.8281H49.2188C50.0195 35.8281 50.9219 35.8984 51.9219 36.0312C52.9219 36.1562 53.8672 36.3984 54.7656 36.75C55.6719 37.0938 56.4258 37.5781 57.0312 38.2031C57.6445 38.8203 57.9531 39.6172 57.9531 40.5938C57.9531 41.5234 57.7188 42.293 57.25 42.9062C56.7812 43.5234 56.1875 44.0117 55.4688 44.375C54.75 44.7422 53.9727 45.0078 53.1406 45.1719C52.3047 45.3398 51.5195 45.4609 50.7813 45.5312V45.5938C51.6953 45.6172 52.6875 45.7266 53.75 45.9219C54.8203 46.1211 55.8125 46.4453 56.7188 46.8906C57.6328 47.3398 58.3984 47.9453 59.0156 48.7031C59.6406 49.4531 59.9531 50.3828 59.9531 51.4844ZM55.4844 51.125C55.4844 50.125 55.2383 49.2969 54.75 48.6406C54.2578 47.9844 53.6563 47.4688 52.9375 47.0938C52.2188 46.7188 51.4531 46.4531 50.6406 46.2969C49.8281 46.1406 49.0977 46.0625 48.4531 46.0625H44.0938L44.4844 45.2188H46.8906C49.2422 45.2188 50.9727 44.8203 52.0781 44.0156C53.1914 43.2031 53.75 42.1055 53.75 40.7188C53.75 39.5234 53.2734 38.5469 52.3281 37.7969C51.3906 37.0391 50.0195 36.6562 48.2188 36.6562H44.0625C43.6133 36.6562 43.2812 36.8711 43.0625 37.2969C42.8516 37.7148 42.75 38.1484 42.75 38.5938V56.3281H49.7813C51.5195 56.3281 52.9063 55.918 53.9375 55.0938C54.9688 54.2734 55.4844 52.9492 55.4844 51.125ZM65.1562 57.1562C64.6016 57.1562 64.2109 56.9023 63.9844 56.3906C63.7656 55.8828 63.6562 55.3516 63.6562 54.7969V41.9844C63.6562 41.4766 63.7734 40.9922 64.0156 40.5312C64.2656 40.0625 64.6445 39.8281 65.1562 39.8281H79.25V40.6562H68.5156C68.0977 40.6562 67.7539 40.8203 67.4844 41.1406C67.2227 41.4648 67.0938 41.8398 67.0938 42.2656V47.3594H77.9219V48.1875H67.0938V54.5156C67.0938 54.9219 67.2109 55.3281 67.4531 55.7344C67.6914 56.1328 68.0469 56.3281 68.5156 56.3281H80.3125V57.1562H65.1562ZM96.5742 57.1562V47.2656H93.9492C93.0625 47.2656 92.1758 47.3359 91.293 47.4688C90.418 47.5938 89.6367 47.8516 88.9492 48.2344C88.2617 48.6094 87.7031 49.1367 87.2773 49.8125C86.8594 50.4922 86.6523 51.3711 86.6523 52.4531C86.6523 53.6836 86.9805 54.6367 87.6367 55.3125C88.293 55.9922 89.3398 56.3281 90.7773 56.3281H94.8086L95.2461 57.1562H89.8086C88.9414 57.1562 88.0938 57.0703 87.2617 56.8906C86.4258 56.7148 85.6758 56.4297 85.0117 56.0312C84.3438 55.625 83.8008 55.0898 83.3867 54.4219C82.9805 53.7578 82.7773 52.9219 82.7773 51.9219C82.7773 51.1016 82.9688 50.3906 83.3555 49.7969C83.75 49.1953 84.2695 48.6953 84.918 48.2969C85.5625 47.8906 86.2852 47.5703 87.0898 47.3281C87.9023 47.0781 88.7188 46.8906 89.543 46.7656C90.3633 46.6328 91.1719 46.543 91.9648 46.5C92.7539 46.4492 93.4375 46.4219 94.0117 46.4219H96.5742V45.4219C96.5742 43.8281 96.1836 42.5469 95.4023 41.5781C94.6289 40.6094 93.4023 40.125 91.7148 40.125C90.1094 40.125 88.668 40.2773 87.3867 40.5781C86.1133 40.8828 84.957 41.3203 83.918 41.8906L83.6836 40.9844C84.9961 40.2969 86.3711 39.8516 87.8086 39.6406C89.2539 39.4336 90.7227 39.3281 92.2148 39.3281C93.1719 39.3281 94.1133 39.4219 95.043 39.6094C95.9805 39.7969 96.8125 40.1094 97.543 40.5469C98.2813 40.9766 98.875 41.5469 99.3242 42.2656C99.7813 42.9766 100.012 43.8516 100.012 44.8906V57.1562H96.5742ZM118.637 57.1562V39.8281H122.074V57.1562H118.637ZM111.605 57.1562C110.48 57.1562 109.469 57.043 108.574 56.8125C107.688 56.5742 106.941 56.1797 106.34 55.625C105.746 55.0742 105.293 54.3398 104.98 53.4219C104.668 52.4961 104.512 51.3398 104.512 49.9531V39.8281H107.949V49.9844C107.949 50.7891 108.035 51.5703 108.215 52.3281C108.391 53.0781 108.672 53.75 109.059 54.3438C109.453 54.9297 109.957 55.4062 110.574 55.7812C111.199 56.1484 111.953 56.3281 112.84 56.3281H116.84L117.309 57.1562H111.605ZM133.906 41.4844H130.781V54.5156C130.781 54.9219 130.898 55.3281 131.141 55.7344C131.391 56.1328 131.742 56.3281 132.203 56.3281H133.813L133.609 57.1562H128.844C128.289 57.1562 127.898 56.9023 127.672 56.3906C127.453 55.8828 127.344 55.3516 127.344 54.7969V41.4844H124.875L125.172 40.6562H127.344V35.8906H130.781V40.6562H134.141L133.906 41.4844ZM145.41 56.8594C145.16 57.3281 144.883 57.8281 144.582 58.3594C144.289 58.8906 143.977 59.4062 143.645 59.9062C143.309 60.4062 142.949 60.875 142.566 61.3125C142.191 61.7578 141.793 62.1406 141.379 62.4531C140.199 63.3164 138.645 63.75 136.707 63.75H136.238L136.535 62.8906C137.18 62.8906 137.746 62.8477 138.238 62.7656C138.727 62.6914 139.195 62.5664 139.645 62.3906C140.195 62.1719 140.699 61.8516 141.16 61.4375C141.617 61.0312 142.035 60.582 142.41 60.0938C142.785 59.6016 143.105 59.1094 143.379 58.6094C143.66 58.1094 143.887 57.6562 144.066 57.25L135.27 39.8281H139.176L146.113 53.5625L153.207 39.8281H154.207L145.41 56.8594ZM166.633 57.8281H164.602L173.305 35.1562H175.336L166.633 57.8281ZM207.871 41.4219C207.871 42.5586 207.469 43.5 206.668 44.25C205.863 44.9922 204.871 45.5781 203.684 46.0156C202.496 46.4453 201.23 46.7461 199.887 46.9219C198.543 47.1016 197.324 47.1875 196.23 47.1875C195.719 47.1875 195.215 47.1797 194.715 47.1562C194.215 47.1367 193.844 47.1055 193.605 47.0625L193.84 46.2656C194.016 46.3086 194.27 46.3359 194.605 46.3438C194.938 46.3555 195.281 46.3594 195.637 46.3594C198.145 46.3594 200.066 45.9024 201.402 44.9844C202.734 44.0586 203.402 42.8047 203.402 41.2188C203.402 40.3555 203.188 39.6328 202.762 39.0469C202.344 38.4531 201.801 37.9805 201.137 37.625C200.469 37.2734 199.73 37.0234 198.918 36.875C198.105 36.7305 197.309 36.6563 196.527 36.6563H193.574C193.125 36.6563 192.793 36.8711 192.574 37.2969C192.363 37.7149 192.262 38.1484 192.262 38.5938V57.1562H188.402V38.3281C188.402 38.0586 188.426 37.7773 188.48 37.4844C188.543 37.1836 188.629 36.9141 188.746 36.6719C188.871 36.4219 189.031 36.2188 189.23 36.0625C189.426 35.9062 189.672 35.8281 189.965 35.8281H197.934C198.797 35.8281 199.801 35.9063 200.949 36.0625C202.094 36.2188 203.176 36.5117 204.199 36.9375C205.219 37.3555 206.082 37.9219 206.793 38.6406C207.512 39.3594 207.871 40.2891 207.871 41.4219ZM224.324 57.1562C224.238 56.8438 224.113 56.4375 223.949 55.9375C223.781 55.4375 223.59 54.9141 223.371 54.3594C223.16 53.8086 222.949 53.2578 222.73 52.7031C222.512 52.1406 222.297 51.6484 222.09 51.2188C221.828 50.6484 221.543 50.1797 221.23 49.8125C220.918 49.4375 220.543 49.1367 220.105 48.9062C219.676 48.6797 219.172 48.5234 218.59 48.4375C218.016 48.3438 217.328 48.2969 216.527 48.2969H215.465L215.996 47.4844H218.668C219.301 47.4844 219.906 47.4297 220.48 47.3125C221.062 47.1875 221.574 46.9844 222.012 46.7031C222.449 46.4141 222.797 46.0391 223.059 45.5781C223.328 45.1211 223.465 44.5469 223.465 43.8594C223.465 43.3281 223.328 42.8672 223.059 42.4688C222.797 42.0625 222.434 41.7305 221.965 41.4688C221.496 41.1992 220.949 40.9961 220.324 40.8594C219.707 40.7266 219.031 40.6562 218.293 40.6562H215.559C215.141 40.6562 214.797 40.8203 214.527 41.1406C214.266 41.4648 214.137 41.8398 214.137 42.2656V57.1562H210.699V41.9844C210.699 41.4766 210.816 40.9922 211.059 40.5312C211.309 40.0625 211.688 39.8281 212.199 39.8281H217.465C220.684 39.8281 223.074 40.1523 224.637 40.7969C226.207 41.4453 226.996 42.5312 226.996 44.0625C226.996 44.75 226.832 45.3438 226.512 45.8438C226.188 46.3438 225.746 46.7656 225.184 47.1094C224.629 47.4531 223.973 47.7188 223.215 47.9062C222.465 48.0938 221.656 48.2109 220.793 48.25V48.2969C221.594 48.4766 222.297 48.6719 222.902 48.8906C223.516 49.1094 224.059 49.4062 224.527 49.7812C224.996 50.1484 225.41 50.6016 225.777 51.1406C226.141 51.6836 226.488 52.3555 226.824 53.1562L228.465 57.1562H224.324ZM250.227 48.4844C250.227 49.8203 249.977 51.0469 249.477 52.1719C248.977 53.2969 248.281 54.2656 247.398 55.0781C246.523 55.8906 245.48 56.5273 244.273 56.9844C243.062 57.4297 241.746 57.6562 240.32 57.6562C238.902 57.6562 237.59 57.4297 236.383 56.9844C235.184 56.5273 234.148 55.8906 233.273 55.0781C232.398 54.2656 231.711 53.2969 231.211 52.1719C230.711 51.0469 230.461 49.8203 230.461 48.4844C230.461 47.1523 230.711 45.9297 231.211 44.8125C231.711 43.6875 232.398 42.7188 233.273 41.9062C234.148 41.0938 235.184 40.4648 236.383 40.0156C237.59 39.5586 238.902 39.3281 240.32 39.3281C241.746 39.3281 243.062 39.5586 244.273 40.0156C245.48 40.4648 246.523 41.0938 247.398 41.9062C248.281 42.7188 248.977 43.6875 249.477 44.8125C249.977 45.9297 250.227 47.1523 250.227 48.4844ZM246.352 48.4844C246.352 47.5156 246.273 46.5273 246.117 45.5156C245.961 44.4961 245.656 43.5781 245.211 42.7656C244.773 41.9453 244.156 41.2734 243.367 40.75C242.586 40.2188 241.57 39.9531 240.32 39.9531C239.078 39.9531 238.07 40.2188 237.289 40.75C236.516 41.2734 235.906 41.9453 235.461 42.7656C235.012 43.5781 234.711 44.4961 234.555 45.5156C234.398 46.5273 234.32 47.5156 234.32 48.4844C234.32 49.4648 234.398 50.4609 234.555 51.4688C234.711 52.4805 235.012 53.3984 235.461 54.2188C235.906 55.043 236.516 55.7148 237.289 56.2344C238.07 56.7578 239.078 57.0156 240.32 57.0156C241.57 57.0156 242.586 56.7578 243.367 56.2344C244.156 55.7148 244.773 55.043 245.211 54.2188C245.656 53.3984 245.961 52.4805 246.117 51.4688C246.273 50.4609 246.352 49.4648 246.352 48.4844ZM267.926 57.1562V41.9844C267.207 41.5469 266.426 41.168 265.582 40.8438C264.738 40.5234 263.754 40.3594 262.629 40.3594C262.066 40.3594 261.445 40.4531 260.77 40.6406C260.09 40.8281 259.457 41.2109 258.863 41.7812C258.277 42.3438 257.785 43.1523 257.379 44.2031C256.98 45.2461 256.785 46.6211 256.785 48.3281C256.785 50.0781 256.965 51.4805 257.332 52.5312C257.707 53.5742 258.211 54.3828 258.848 54.9531C259.492 55.5156 260.242 55.8867 261.098 56.0625C261.961 56.2422 262.895 56.3281 263.895 56.3281H266.129L266.582 57.1562H261.52C260.34 57.1562 259.23 56.9609 258.191 56.5625C257.148 56.1562 256.238 55.5859 255.457 54.8438C254.676 54.0938 254.055 53.1719 253.598 52.0781C253.148 50.9766 252.926 49.7266 252.926 48.3281C252.926 47.1719 253.145 46.0586 253.582 44.9844C254.027 43.9023 254.633 42.9453 255.395 42.1094C256.164 41.2773 257.07 40.6055 258.113 40.0938C259.164 39.5859 260.301 39.3281 261.52 39.3281C262.402 39.3281 263.176 39.375 263.832 39.4688C264.488 39.5547 265.066 39.668 265.566 39.8125C266.066 39.9609 266.504 40.1328 266.879 40.3281C267.262 40.5273 267.613 40.7344 267.926 40.9531V33H271.348V57.1562H267.926ZM290.078 57.1562V39.8281H293.516V57.1562H290.078ZM283.047 57.1562C281.922 57.1562 280.91 57.043 280.016 56.8125C279.129 56.5742 278.383 56.1797 277.781 55.625C277.188 55.0742 276.734 54.3398 276.422 53.4219C276.109 52.4961 275.953 51.3398 275.953 49.9531V39.8281H279.391V49.9844C279.391 50.7891 279.477 51.5703 279.656 52.3281C279.832 53.0781 280.113 53.75 280.5 54.3438C280.895 54.9297 281.398 55.4062 282.016 55.7812C282.641 56.1484 283.395 56.3281 284.281 56.3281H288.281L288.75 57.1562H283.047ZM311.281 57.1562L308.109 51.8906C307.93 51.6016 307.707 51.2188 307.438 50.75C307.176 50.2734 306.879 49.8047 306.547 49.3438C306.211 48.8867 305.836 48.4922 305.422 48.1562C305.016 47.8242 304.586 47.6562 304.141 47.6562C303.879 47.6562 303.641 47.7422 303.422 47.9062C303.211 48.0742 302.977 48.3125 302.719 48.625V47.3906L311.984 39.8281H313.312L304.719 46.7969V46.8594C304.875 46.8398 305.016 46.8281 305.141 46.8281C305.273 46.8281 305.41 46.8281 305.547 46.8281C306.547 46.8281 307.379 46.9766 308.047 47.2656C308.711 47.5469 309.301 47.9375 309.812 48.4375C310.32 48.9375 310.785 49.5117 311.203 50.1562C311.629 50.8047 312.086 51.4922 312.578 52.2188L315.844 57.1562H311.281ZM297.953 57.1562V33H301.375V57.1562H297.953ZM326.809 41.4844H323.684V54.5156C323.684 54.9219 323.801 55.3281 324.043 55.7344C324.293 56.1328 324.645 56.3281 325.105 56.3281H326.715L326.512 57.1562H321.746C321.191 57.1562 320.801 56.9023 320.574 56.3906C320.355 55.8828 320.246 55.3516 320.246 54.7969V41.4844H317.777L318.074 40.6562H320.246V35.8906H323.684V40.6562H327.043L326.809 41.4844ZM360.941 56.5938C360.824 56.793 360.707 56.9648 360.582 57.1094C360.465 57.2539 360.332 57.3281 360.176 57.3281C359.926 57.3281 359.727 57.1367 359.582 56.75L354.176 44.7188C354.113 44.543 354.012 44.4531 353.879 44.4531C353.742 44.4531 353.645 44.543 353.582 44.7188L348.676 56.75C348.496 57.1758 348.254 57.3906 347.941 57.3906C347.629 57.3906 347.371 57.1758 347.176 56.75L338.973 39.8281H343.004L348.879 51.8906C348.961 52.0703 349.07 52.1562 349.207 52.1562C349.363 52.1562 349.488 52.0703 349.582 51.8906L354.41 40.3594C354.492 40.1641 354.605 40.0156 354.754 39.9219C354.898 39.8203 355.051 39.7656 355.207 39.7656C355.559 39.7656 355.836 39.9648 356.035 40.3594L361.348 51.8906C361.43 52.0703 361.539 52.1562 361.676 52.1562C361.832 52.1562 361.949 52.0703 362.035 51.8906L367.738 39.8281H368.801L360.941 56.5938ZM396.328 57.1562V39.8281H399.766V57.1562H396.328ZM389.297 57.1562C388.172 57.1562 387.16 57.043 386.266 56.8125C385.379 56.5742 384.633 56.1797 384.031 55.625C383.438 55.0742 382.984 54.3398 382.672 53.4219C382.359 52.4961 382.203 51.3398 382.203 49.9531V39.8281H385.641V49.9844C385.641 50.7891 385.727 51.5703 385.906 52.3281C386.082 53.0781 386.363 53.75 386.75 54.3438C387.145 54.9297 387.648 55.4062 388.266 55.7812C388.891 56.1484 389.645 56.3281 390.531 56.3281H394.531L395 57.1562H389.297ZM418.625 40.2656C418.625 40.4453 418.523 40.6875 418.328 41C418.129 41.3047 417.828 41.7266 417.422 42.2656L407.469 55.2969C407.219 55.6016 407.094 55.8281 407.094 55.9844C407.094 56.1641 407.176 56.2656 407.344 56.2969C407.508 56.3203 407.68 56.3281 407.859 56.3281H418.156V57.1562H403.891C403.516 57.1562 403.191 57.1367 402.922 57.0938C402.66 57.043 402.531 56.8984 402.531 56.6562C402.531 56.4805 402.617 56.2305 402.797 55.9062C402.973 55.5859 403.273 55.1562 403.703 54.625L413.594 41.8906C413.727 41.7148 413.852 41.543 413.969 41.375C414.094 41.2109 414.156 41.0586 414.156 40.9219C414.156 40.7461 413.969 40.6562 413.594 40.6562H404.094V39.8281H417.156C417.625 39.8281 417.984 39.8516 418.234 39.8906C418.492 39.9336 418.625 40.0586 418.625 40.2656ZM412.656 35.3281C412.656 35.8594 412.457 36.3281 412.062 36.7344C411.664 37.1328 411.195 37.3281 410.656 37.3281C410.125 37.3281 409.656 37.1328 409.25 36.7344C408.852 36.3281 408.656 35.8594 408.656 35.3281C408.656 34.7969 408.852 34.3359 409.25 33.9375C409.656 33.5312 410.125 33.3281 410.656 33.3281C411.195 33.3281 411.664 33.5312 412.062 33.9375C412.457 34.3359 412.656 34.7969 412.656 35.3281ZM430.098 56.8594C429.848 57.3281 429.57 57.8281 429.27 58.3594C428.977 58.8906 428.664 59.4062 428.332 59.9062C427.996 60.4062 427.637 60.875 427.254 61.3125C426.879 61.7578 426.48 62.1406 426.066 62.4531C424.887 63.3164 423.332 63.75 421.395 63.75H420.926L421.223 62.8906C421.867 62.8906 422.434 62.8477 422.926 62.7656C423.414 62.6914 423.883 62.5664 424.332 62.3906C424.883 62.1719 425.387 61.8516 425.848 61.4375C426.305 61.0312 426.723 60.582 427.098 60.0938C427.473 59.6016 427.793 59.1094 428.066 58.6094C428.348 58.1094 428.574 57.6562 428.754 57.25L419.957 39.8281H423.863L430.801 53.5625L437.895 39.8281H438.895L430.098 56.8594ZM458.117 55.0938C457.273 55.8438 456.188 56.4609 454.867 56.9375C453.555 57.4141 452.039 57.6562 450.32 57.6562C448.902 57.6562 447.59 57.4297 446.383 56.9844C445.184 56.5273 444.148 55.8906 443.273 55.0781C442.398 54.2656 441.711 53.2969 441.211 52.1719C440.711 51.0469 440.461 49.8203 440.461 48.4844C440.461 47.1523 440.711 45.9297 441.211 44.8125C441.711 43.6875 442.398 42.7188 443.273 41.9062C444.148 41.0938 445.184 40.4648 446.383 40.0156C447.59 39.5586 448.902 39.3281 450.32 39.3281C451.922 39.3281 453.355 39.5391 454.617 39.9531C455.887 40.3594 456.914 40.8281 457.695 41.3594L457.461 42.2656C456.562 41.6641 455.527 41.1562 454.352 40.75C453.172 40.3359 451.82 40.125 450.289 40.125C449.203 40.125 448.281 40.3711 447.523 40.8594C446.773 41.3516 446.156 41.9922 445.68 42.7812C445.199 43.5625 444.852 44.4531 444.633 45.4531C444.422 46.4531 444.32 47.4648 444.32 48.4844C444.32 49.9961 444.508 51.2773 444.883 52.3281C445.266 53.3711 445.762 54.2188 446.367 54.875C446.98 55.5312 447.668 56.0117 448.43 56.3125C449.199 56.6055 449.977 56.75 450.758 56.75C452.184 56.75 453.492 56.5312 454.68 56.0938C455.867 55.6484 456.914 55.0312 457.82 54.25L458.117 55.0938ZM465.75 35.5625C465.75 36.0938 465.562 36.5586 465.188 36.9531C464.812 37.3398 464.332 37.5312 463.75 37.5312C463.219 37.5312 462.758 37.3398 462.375 36.9531C461.988 36.5586 461.797 36.0938 461.797 35.5625C461.797 35.0312 461.988 34.5703 462.375 34.1719C462.758 33.7656 463.219 33.5625 463.75 33.5625C464.332 33.5625 464.812 33.7656 465.188 34.1719C465.562 34.5703 465.75 35.0312 465.75 35.5625ZM462.062 57.1562V39.8281H465.484V57.1562H462.062ZM484.781 57.1562V39.8281H488.219V57.1562H484.781ZM477.75 57.1562C476.625 57.1562 475.613 57.043 474.719 56.8125C473.832 56.5742 473.086 56.1797 472.484 55.625C471.891 55.0742 471.438 54.3398 471.125 53.4219C470.812 52.4961 470.656 51.3398 470.656 49.9531V39.8281H474.094V49.9844C474.094 50.7891 474.18 51.5703 474.359 52.3281C474.535 53.0781 474.816 53.75 475.203 54.3438C475.598 54.9297 476.102 55.4062 476.719 55.7812C477.344 56.1484 478.098 56.3281 478.984 56.3281H482.984L483.453 57.1562H477.75Z" fill="#665F20"/>
</svg>
