<svg width="538" height="64" viewBox="0 0 538 64" fill="none" xmlns="http://www.w3.org/2000/svg">
<path d="M83.0156 13.4844C83.0156 15.2031 82.6602 16.7617 81.9531 18.1562C81.2539 19.5547 80.3203 20.7461 79.1562 21.7344C77.9883 22.7266 76.6484 23.4922 75.1406 24.0313C73.6289 24.5625 72.0508 24.8281 70.4063 24.8281C68.7891 24.8281 67.2188 24.5625 65.6875 24.0313C64.1641 23.4922 62.8203 22.7266 61.6563 21.7344C60.4883 20.7461 59.5547 19.5547 58.8594 18.1562C58.1602 16.7617 57.8125 15.2031 57.8125 13.4844C57.8125 11.7773 58.1602 10.2266 58.8594 8.82813C59.5547 7.42188 60.4883 6.23047 61.6563 5.25C62.8203 4.26172 64.1641 3.5 65.6875 2.96875C67.2188 2.42969 68.7891 2.15625 70.4063 2.15625C72.0508 2.15625 73.6289 2.42969 75.1406 2.96875C76.6484 3.5 77.9883 4.26172 79.1562 5.25C80.3203 6.23047 81.2539 7.42188 81.9531 8.82813C82.6602 10.2266 83.0156 11.7773 83.0156 13.4844ZM78.5469 13.4844C78.5469 12.2461 78.4062 11.0078 78.125 9.76563C77.8438 8.51563 77.3828 7.39063 76.75 6.39062C76.125 5.39062 75.2852 4.57812 74.2344 3.95312C73.1914 3.32031 71.9141 3 70.4063 3C68.8945 3 67.6172 3.32031 66.5781 3.95312C65.5352 4.57812 64.6953 5.39062 64.0625 6.39062C63.4258 7.39063 62.9688 8.51563 62.6875 9.76563C62.4141 11.0078 62.2812 12.2461 62.2812 13.4844C62.2812 14.7344 62.4141 15.9844 62.6875 17.2344C62.9688 18.4766 63.4258 19.5938 64.0625 20.5938C64.6953 21.5938 65.5352 22.4141 66.5781 23.0469C67.6172 23.6719 68.8945 23.9844 70.4063 23.9844C71.9141 23.9844 73.1914 23.6719 74.2344 23.0469C75.2852 22.4141 76.125 21.5938 76.75 20.5938C77.3828 19.5938 77.8438 18.4766 78.125 17.2344C78.4062 15.9844 78.5469 14.7344 78.5469 13.4844ZM92.9023 24.1563H88.7461C88.1836 24.1563 87.793 23.9023 87.5742 23.3906C87.3555 22.8828 87.2461 22.3516 87.2461 21.7969V0H90.668V21.5156C90.668 21.9219 90.7852 22.3281 91.0273 22.7344C91.2773 23.1328 91.6367 23.3281 92.1055 23.3281H93.168L92.9023 24.1563ZM97.543 24.1563C96.9883 24.1563 96.5977 23.9023 96.3711 23.3906C96.1523 22.8828 96.043 22.3516 96.043 21.7969V8.98438C96.043 8.47656 96.1602 7.99219 96.4023 7.53125C96.6523 7.0625 97.0312 6.82812 97.543 6.82812H111.637V7.65625H100.902C100.484 7.65625 100.141 7.82031 99.8711 8.14063C99.6094 8.46484 99.4805 8.83984 99.4805 9.26563V14.3594H110.309V15.1875H99.4805V21.5156C99.4805 21.9219 99.5977 22.3281 99.8398 22.7344C100.078 23.1328 100.434 23.3281 100.902 23.3281H112.699V24.1563H97.543ZM120.367 2.5625C120.367 3.09375 120.18 3.55859 119.805 3.95312C119.43 4.33984 118.949 4.53125 118.367 4.53125C117.836 4.53125 117.371 4.33984 116.977 3.95312C116.59 3.55859 116.398 3.09375 116.398 2.5625C116.398 2.03125 116.59 1.57031 116.977 1.17188C117.371 0.765625 117.836 0.5625 118.367 0.5625C118.949 0.5625 119.43 0.765625 119.805 1.17188C120.18 1.57031 120.367 2.03125 120.367 2.5625ZM120.102 23.1563C120.102 24.7813 119.781 26.0859 119.148 27.0781C118.512 28.0664 117.75 28.832 116.867 29.375C115.98 29.9141 115.055 30.2813 114.086 30.4688C113.117 30.6563 112.301 30.75 111.633 30.75H110.602L110.867 30.0938H111.773C112.148 30.0938 112.625 30.0352 113.195 29.9219C113.758 29.8047 114.293 29.4727 114.805 28.9219C115.312 28.3672 115.75 27.5195 116.117 26.375C116.48 25.2266 116.664 23.625 116.664 21.5625V6.82812H120.102V23.1563ZM138.836 24.1563L135.664 18.8906C135.484 18.6016 135.262 18.2188 134.992 17.75C134.73 17.2734 134.434 16.8047 134.102 16.3438C133.766 15.8867 133.391 15.4922 132.977 15.1563C132.57 14.8242 132.141 14.6563 131.695 14.6563C131.434 14.6563 131.195 14.7422 130.977 14.9063C130.766 15.0742 130.531 15.3125 130.273 15.625V14.3906L139.539 6.82812H140.867L132.273 13.7969V13.8594C132.43 13.8398 132.57 13.8281 132.695 13.8281C132.828 13.8281 132.965 13.8281 133.102 13.8281C134.102 13.8281 134.934 13.9766 135.602 14.2656C136.266 14.5469 136.855 14.9375 137.367 15.4375C137.875 15.9375 138.34 16.5117 138.758 17.1562C139.184 17.8047 139.641 18.4922 140.133 19.2188L143.398 24.1563H138.836ZM125.508 24.1563V0H128.93V24.1563H125.508ZM150.926 2.5625C150.926 3.09375 150.738 3.55859 150.363 3.95312C149.988 4.33984 149.508 4.53125 148.926 4.53125C148.395 4.53125 147.934 4.33984 147.551 3.95312C147.164 3.55859 146.973 3.09375 146.973 2.5625C146.973 2.03125 147.164 1.57031 147.551 1.17188C147.934 0.765625 148.395 0.5625 148.926 0.5625C149.508 0.5625 149.988 0.765625 150.363 1.17188C150.738 1.57031 150.926 2.03125 150.926 2.5625ZM147.238 24.1563V6.82812H150.66V24.1563H147.238ZM180.832 24.1563V8.98438C180.113 8.54688 179.332 8.16797 178.488 7.84375C177.645 7.52344 176.66 7.35938 175.535 7.35938C174.973 7.35938 174.352 7.45313 173.676 7.64063C172.996 7.82813 172.363 8.21094 171.77 8.78125C171.184 9.34375 170.691 10.1523 170.285 11.2031C169.887 12.2461 169.691 13.6211 169.691 15.3281C169.691 17.0781 169.871 18.4805 170.238 19.5312C170.613 20.5742 171.117 21.3828 171.754 21.9531C172.398 22.5156 173.148 22.8867 174.004 23.0625C174.867 23.2422 175.801 23.3281 176.801 23.3281H179.035L179.488 24.1563H174.426C173.246 24.1563 172.137 23.9609 171.098 23.5625C170.055 23.1563 169.145 22.5859 168.363 21.8438C167.582 21.0938 166.961 20.1719 166.504 19.0781C166.055 17.9766 165.832 16.7266 165.832 15.3281C165.832 14.1719 166.051 13.0586 166.488 11.9844C166.934 10.9023 167.539 9.94531 168.301 9.10938C169.07 8.27734 169.977 7.60547 171.02 7.09375C172.07 6.58594 173.207 6.32812 174.426 6.32812C175.309 6.32812 176.082 6.375 176.738 6.46875C177.395 6.55469 177.973 6.66797 178.473 6.8125C178.973 6.96094 179.41 7.13281 179.785 7.32813C180.168 7.52734 180.52 7.73438 180.832 7.95313V0H184.254V24.1563H180.832ZM207.594 15.4844C207.594 16.8203 207.344 18.0469 206.844 19.1719C206.344 20.2969 205.648 21.2656 204.766 22.0781C203.891 22.8906 202.848 23.5273 201.641 23.9844C200.43 24.4297 199.113 24.6563 197.688 24.6563C196.27 24.6563 194.957 24.4297 193.75 23.9844C192.551 23.5273 191.516 22.8906 190.641 22.0781C189.766 21.2656 189.078 20.2969 188.578 19.1719C188.078 18.0469 187.828 16.8203 187.828 15.4844C187.828 14.1523 188.078 12.9297 188.578 11.8125C189.078 10.6875 189.766 9.71875 190.641 8.90625C191.516 8.09375 192.551 7.46484 193.75 7.01562C194.957 6.55859 196.27 6.32812 197.688 6.32812C199.113 6.32812 200.43 6.55859 201.641 7.01562C202.848 7.46484 203.891 8.09375 204.766 8.90625C205.648 9.71875 206.344 10.6875 206.844 11.8125C207.344 12.9297 207.594 14.1523 207.594 15.4844ZM203.719 15.4844C203.719 14.5156 203.641 13.5273 203.484 12.5156C203.328 11.4961 203.023 10.5781 202.578 9.76563C202.141 8.94531 201.523 8.27344 200.734 7.75C199.953 7.21875 198.938 6.95312 197.688 6.95312C196.445 6.95312 195.438 7.21875 194.656 7.75C193.883 8.27344 193.273 8.94531 192.828 9.76563C192.379 10.5781 192.078 11.4961 191.922 12.5156C191.766 13.5273 191.688 14.5156 191.688 15.4844C191.688 16.4648 191.766 17.4609 191.922 18.4688C192.078 19.4805 192.379 20.3984 192.828 21.2188C193.273 22.043 193.883 22.7148 194.656 23.2344C195.438 23.7578 196.445 24.0156 197.688 24.0156C198.938 24.0156 199.953 23.7578 200.734 23.2344C201.523 22.7148 202.141 22.043 202.578 21.2188C203.023 20.3984 203.328 19.4805 203.484 18.4688C203.641 17.4609 203.719 16.4648 203.719 15.4844ZM236.012 24.1563V6.82812H239.449V24.1563H236.012ZM228.98 24.1563C227.855 24.1563 226.844 24.043 225.949 23.8125C225.062 23.5742 224.316 23.1797 223.715 22.625C223.121 22.0742 222.668 21.3398 222.355 20.4219C222.043 19.4961 221.887 18.3398 221.887 16.9531V6.82812H225.324V16.9844C225.324 17.7891 225.41 18.5703 225.59 19.3281C225.766 20.0781 226.047 20.75 226.434 21.3438C226.828 21.9297 227.332 22.4063 227.949 22.7813C228.574 23.1484 229.328 23.3281 230.215 23.3281H234.215L234.684 24.1563H228.98ZM259.016 18.75C259.016 19.9609 258.707 20.9453 258.094 21.7031C257.488 22.4531 256.719 23.0547 255.781 23.5C254.852 23.9375 253.844 24.2383 252.75 24.4063C251.656 24.5703 250.645 24.6563 249.719 24.6563C248.383 24.6563 247.055 24.5469 245.734 24.3281C244.41 24.1211 243.117 23.7891 241.859 23.3281L242.078 22.3906C242.598 22.6094 243.172 22.8086 243.797 22.9844C244.43 23.1641 245.098 23.3125 245.797 23.4375C246.492 23.5625 247.195 23.6641 247.906 23.7344C248.625 23.7969 249.297 23.8281 249.922 23.8281C250.566 23.8281 251.227 23.7734 251.906 23.6563C252.582 23.543 253.203 23.3516 253.766 23.0781C254.328 22.7969 254.785 22.4063 255.141 21.9063C255.504 21.4063 255.688 20.7812 255.688 20.0312C255.688 19.3867 255.562 18.875 255.312 18.5C255.07 18.1172 254.703 17.8125 254.203 17.5938C253.703 17.3672 253.082 17.2031 252.344 17.1094C251.613 17.0078 250.758 16.9141 249.781 16.8281C249.051 16.7578 248.281 16.6367 247.469 16.4688C246.656 16.3047 245.91 16.0391 245.234 15.6719C244.555 15.3086 244 14.8281 243.562 14.2344C243.133 13.6328 242.922 12.8594 242.922 11.9219C242.922 10.7656 243.207 9.82813 243.781 9.10938C244.363 8.39063 245.086 7.82813 245.953 7.42188C246.816 7.00781 247.758 6.71875 248.781 6.5625C249.801 6.40625 250.77 6.32812 251.688 6.32812C252.664 6.32812 253.711 6.44922 254.828 6.6875C255.953 6.91797 256.969 7.21875 257.875 7.59375L257.609 8.48438C256.766 8.08984 255.789 7.77344 254.688 7.53125C253.594 7.28125 252.398 7.15625 251.109 7.15625C250.473 7.15625 249.859 7.21875 249.266 7.34375C248.68 7.46875 248.164 7.68359 247.719 7.98438C247.27 8.27734 246.91 8.66797 246.641 9.15625C246.379 9.64844 246.25 10.2461 246.25 10.9531C246.25 11.5391 246.414 12.0156 246.75 12.3906C247.082 12.7656 247.523 13.0703 248.078 13.2969C248.641 13.5156 249.281 13.6836 250 13.7969C250.719 13.9023 251.457 13.9805 252.219 14.0313C254.57 14.1875 256.289 14.6172 257.375 15.3125C258.469 16.0117 259.016 17.1562 259.016 18.75ZM270.41 8.48438H267.285V21.5156C267.285 21.9219 267.402 22.3281 267.645 22.7344C267.895 23.1328 268.246 23.3281 268.707 23.3281H270.316L270.113 24.1563H265.348C264.793 24.1563 264.402 23.9023 264.176 23.3906C263.957 22.8828 263.848 22.3516 263.848 21.7969V8.48438H261.379L261.676 7.65625H263.848V2.89062H267.285V7.65625H270.645L270.41 8.48438ZM296.309 14.625V24.1563H292.449V15.1563L283.074 2.82812H287.48L295.715 13.7656L303.84 2.82812H305.184L296.309 14.625ZM327.309 15.4844C327.309 16.8203 327.059 18.0469 326.559 19.1719C326.059 20.2969 325.363 21.2656 324.48 22.0781C323.605 22.8906 322.562 23.5273 321.355 23.9844C320.145 24.4297 318.828 24.6563 317.402 24.6563C315.984 24.6563 314.672 24.4297 313.465 23.9844C312.266 23.5273 311.23 22.8906 310.355 22.0781C309.48 21.2656 308.793 20.2969 308.293 19.1719C307.793 18.0469 307.543 16.8203 307.543 15.4844C307.543 14.1523 307.793 12.9297 308.293 11.8125C308.793 10.6875 309.48 9.71875 310.355 8.90625C311.23 8.09375 312.266 7.46484 313.465 7.01562C314.672 6.55859 315.984 6.32812 317.402 6.32812C318.828 6.32812 320.145 6.55859 321.355 7.01562C322.562 7.46484 323.605 8.09375 324.48 8.90625C325.363 9.71875 326.059 10.6875 326.559 11.8125C327.059 12.9297 327.309 14.1523 327.309 15.4844ZM323.434 15.4844C323.434 14.5156 323.355 13.5273 323.199 12.5156C323.043 11.4961 322.738 10.5781 322.293 9.76563C321.855 8.94531 321.238 8.27344 320.449 7.75C319.668 7.21875 318.652 6.95312 317.402 6.95312C316.16 6.95312 315.152 7.21875 314.371 7.75C313.598 8.27344 312.988 8.94531 312.543 9.76563C312.094 10.5781 311.793 11.4961 311.637 12.5156C311.48 13.5273 311.402 14.5156 311.402 15.4844C311.402 16.4648 311.48 17.4609 311.637 18.4688C311.793 19.4805 312.094 20.3984 312.543 21.2188C312.988 22.043 313.598 22.7148 314.371 23.2344C315.152 23.7578 316.16 24.0156 317.402 24.0156C318.652 24.0156 319.668 23.7578 320.449 23.2344C321.238 22.7148 321.855 22.043 322.293 21.2188C322.738 20.3984 323.043 19.4805 323.199 18.4688C323.355 17.4609 323.434 16.4648 323.434 15.4844ZM344.93 24.1563V6.82812H348.367V24.1563H344.93ZM337.898 24.1563C336.773 24.1563 335.762 24.043 334.867 23.8125C333.98 23.5742 333.234 23.1797 332.633 22.625C332.039 22.0742 331.586 21.3398 331.273 20.4219C330.961 19.4961 330.805 18.3398 330.805 16.9531V6.82812H334.242V16.9844C334.242 17.7891 334.328 18.5703 334.508 19.3281C334.684 20.0781 334.965 20.75 335.352 21.3438C335.746 21.9297 336.25 22.4063 336.867 22.7813C337.492 23.1484 338.246 23.3281 339.133 23.3281H343.133L343.602 24.1563H337.898ZM366.227 24.1563C366.141 23.8438 366.016 23.4375 365.852 22.9375C365.684 22.4375 365.492 21.9141 365.273 21.3594C365.062 20.8086 364.852 20.2578 364.633 19.7031C364.414 19.1406 364.199 18.6484 363.992 18.2188C363.73 17.6484 363.445 17.1797 363.133 16.8125C362.82 16.4375 362.445 16.1367 362.008 15.9063C361.578 15.6797 361.074 15.5234 360.492 15.4375C359.918 15.3438 359.23 15.2969 358.43 15.2969H357.367L357.898 14.4844H360.57C361.203 14.4844 361.809 14.4297 362.383 14.3125C362.965 14.1875 363.477 13.9844 363.914 13.7031C364.352 13.4141 364.699 13.0391 364.961 12.5781C365.23 12.1211 365.367 11.5469 365.367 10.8594C365.367 10.3281 365.23 9.86719 364.961 9.46875C364.699 9.0625 364.336 8.73047 363.867 8.46875C363.398 8.19922 362.852 7.99609 362.227 7.85938C361.609 7.72656 360.934 7.65625 360.195 7.65625H357.461C357.043 7.65625 356.699 7.82031 356.43 8.14063C356.168 8.46484 356.039 8.83984 356.039 9.26563V24.1563H352.602V8.98438C352.602 8.47656 352.719 7.99219 352.961 7.53125C353.211 7.0625 353.59 6.82812 354.102 6.82812H359.367C362.586 6.82812 364.977 7.15234 366.539 7.79688C368.109 8.44531 368.898 9.53125 368.898 11.0625C368.898 11.75 368.734 12.3438 368.414 12.8438C368.09 13.3438 367.648 13.7656 367.086 14.1094C366.531 14.4531 365.875 14.7188 365.117 14.9063C364.367 15.0938 363.559 15.2109 362.695 15.25V15.2969C363.496 15.4766 364.199 15.6719 364.805 15.8906C365.418 16.1094 365.961 16.4062 366.43 16.7812C366.898 17.1484 367.312 17.6016 367.68 18.1406C368.043 18.6836 368.391 19.3555 368.727 20.1562L370.367 24.1563H366.227ZM400.867 24.1563L396.602 17.0938C396.289 16.5625 395.965 16.0586 395.633 15.5781C395.297 15.1016 394.965 14.6719 394.633 14.2969C394.297 13.9141 393.961 13.6094 393.617 13.3906C393.273 13.1719 392.918 13.0625 392.555 13.0625C392.25 13.0625 391.992 13.1055 391.773 13.1875C391.562 13.2617 391.359 13.3867 391.164 13.5625L390.727 13.9219V12.8594L402.867 2.82812H404.289L392.664 12.3594V12.4219H393.461C394.062 12.4219 394.668 12.4648 395.273 12.5469C395.887 12.6211 396.48 12.7773 397.055 13.0156C397.637 13.2461 398.199 13.5742 398.742 14C399.281 14.418 399.789 14.9609 400.258 15.625L406.258 24.1563H400.867ZM385.523 24.1563V2.82812H389.398V24.1563H385.523ZM422.648 24.1563V14.2656H420.023C419.137 14.2656 418.25 14.3359 417.367 14.4688C416.492 14.5938 415.711 14.8516 415.023 15.2344C414.336 15.6094 413.777 16.1367 413.352 16.8125C412.934 17.4922 412.727 18.3711 412.727 19.4531C412.727 20.6836 413.055 21.6367 413.711 22.3125C414.367 22.9922 415.414 23.3281 416.852 23.3281H420.883L421.32 24.1563H415.883C415.016 24.1563 414.168 24.0703 413.336 23.8906C412.5 23.7148 411.75 23.4297 411.086 23.0313C410.418 22.625 409.875 22.0898 409.461 21.4219C409.055 20.7578 408.852 19.9219 408.852 18.9219C408.852 18.1016 409.043 17.3906 409.43 16.7969C409.824 16.1953 410.344 15.6953 410.992 15.2969C411.637 14.8906 412.359 14.5703 413.164 14.3281C413.977 14.0781 414.793 13.8906 415.617 13.7656C416.438 13.6328 417.246 13.543 418.039 13.5C418.828 13.4492 419.512 13.4219 420.086 13.4219H422.648V12.4219C422.648 10.8281 422.258 9.54687 421.477 8.57812C420.703 7.60937 419.477 7.125 417.789 7.125C416.184 7.125 414.742 7.27734 413.461 7.57812C412.188 7.88281 411.031 8.32031 409.992 8.89062L409.758 7.98437C411.07 7.29687 412.445 6.85156 413.883 6.64062C415.328 6.43359 416.797 6.32812 418.289 6.32812C419.246 6.32812 420.188 6.42187 421.117 6.60937C422.055 6.79687 422.887 7.10937 423.617 7.54687C424.355 7.97656 424.949 8.54687 425.398 9.26562C425.855 9.97656 426.086 10.8516 426.086 11.8906V24.1563H422.648ZM438.789 23.8594C438.539 24.3281 438.262 24.8281 437.961 25.3594C437.668 25.8906 437.355 26.4063 437.023 26.9063C436.688 27.4063 436.328 27.875 435.945 28.3125C435.57 28.7578 435.172 29.1406 434.758 29.4531C433.578 30.3164 432.023 30.75 430.086 30.75H429.617L429.914 29.8906C430.559 29.8906 431.125 29.8477 431.617 29.7656C432.105 29.6914 432.574 29.5664 433.023 29.3906C433.574 29.1719 434.078 28.8516 434.539 28.4375C434.996 28.0313 435.414 27.582 435.789 27.0938C436.164 26.6016 436.484 26.1094 436.758 25.6094C437.039 25.1094 437.266 24.6563 437.445 24.25L428.648 6.82812H432.555L439.492 20.5625L446.586 6.82812H447.586L438.789 23.8594ZM463.309 24.1563V14.2656H460.684C459.797 14.2656 458.91 14.3359 458.027 14.4688C457.152 14.5938 456.371 14.8516 455.684 15.2344C454.996 15.6094 454.438 16.1367 454.012 16.8125C453.594 17.4922 453.387 18.3711 453.387 19.4531C453.387 20.6836 453.715 21.6367 454.371 22.3125C455.027 22.9922 456.074 23.3281 457.512 23.3281H461.543L461.98 24.1563H456.543C455.676 24.1563 454.828 24.0703 453.996 23.8906C453.16 23.7148 452.41 23.4297 451.746 23.0313C451.078 22.625 450.535 22.0898 450.121 21.4219C449.715 20.7578 449.512 19.9219 449.512 18.9219C449.512 18.1016 449.703 17.3906 450.09 16.7969C450.484 16.1953 451.004 15.6953 451.652 15.2969C452.297 14.8906 453.02 14.5703 453.824 14.3281C454.637 14.0781 455.453 13.8906 456.277 13.7656C457.098 13.6328 457.906 13.543 458.699 13.5C459.488 13.4492 460.172 13.4219 460.746 13.4219H463.309V12.4219C463.309 10.8281 462.918 9.54687 462.137 8.57812C461.363 7.60937 460.137 7.125 458.449 7.125C456.844 7.125 455.402 7.27734 454.121 7.57812C452.848 7.88281 451.691 8.32031 450.652 8.89062L450.418 7.98437C451.73 7.29687 453.105 6.85156 454.543 6.64062C455.988 6.43359 457.457 6.32812 458.949 6.32812C459.906 6.32812 460.848 6.42187 461.777 6.60937C462.715 6.79687 463.547 7.10937 464.277 7.54687C465.016 7.97656 465.609 8.54687 466.059 9.26562C466.516 9.97656 466.746 10.8516 466.746 11.8906V24.1563H463.309Z" fill="#665F20"/>
<path d="M19.7186 48.6875C19.7186 51.918 18.953 54.25 17.4218 55.6875C15.8905 57.1172 13.5155 57.8281 10.2968 57.8281C9.02332 57.8281 7.76941 57.7383 6.53113 57.5625C5.30066 57.3828 4.203 57.0391 3.23425 56.5156C2.27332 55.9844 1.49207 55.2578 0.890503 54.3281C0.296753 53.3906 -0.00012207 52.168 -0.00012207 50.6562V35.8281H3.85925V50.625C3.85925 51.668 4.03503 52.5859 4.3905 53.375C4.74207 54.168 5.23816 54.8281 5.87488 55.3594C6.50769 55.8906 7.25769 56.2969 8.12488 56.5781C8.98816 56.8516 9.92957 56.9844 10.953 56.9844C13.7343 56.9844 15.7499 56.3281 16.9999 55.0156C18.2577 53.6953 18.8905 51.5938 18.8905 48.7188V35.8281H19.7186V48.6875ZM46.7108 54.8594C46.1366 55.3711 45.4647 55.8125 44.6952 56.1875C43.9335 56.5625 43.1171 56.875 42.2421 57.125C41.3749 57.3633 40.4686 57.5391 39.5233 57.6562C38.5858 57.7695 37.6522 57.8281 36.7264 57.8281C35.1639 57.8281 33.6327 57.5938 32.1327 57.125C30.6327 56.6562 29.2889 55.9609 28.1014 55.0312C26.9139 54.0938 25.9491 52.918 25.2108 51.5C24.4803 50.0742 24.1171 48.4023 24.1171 46.4844C24.1171 44.7773 24.4647 43.2266 25.1639 41.8281C25.871 40.4219 26.8202 39.2305 28.0077 38.25C29.1952 37.2617 30.5624 36.5 32.1171 35.9688C33.6796 35.4297 35.3241 35.1562 37.0546 35.1562C39.0741 35.1562 40.7772 35.3516 42.1639 35.7344C43.5585 36.1094 44.6405 36.5156 45.4139 36.9531L45.1171 37.7656C44.3358 37.2578 43.3241 36.8359 42.0858 36.5C40.8436 36.168 39.3436 36 37.5858 36C36.0311 36 34.6874 36.3203 33.5546 36.9531C32.4178 37.5781 31.4803 38.4062 30.7421 39.4375C30.0116 40.4688 29.4686 41.6484 29.1171 42.9688C28.7616 44.293 28.5858 45.6484 28.5858 47.0312C28.5858 48.3672 28.7811 49.6328 29.1796 50.8281C29.5858 52.0273 30.1483 53.0898 30.8671 54.0156C31.5936 54.9336 32.4608 55.6562 33.4608 56.1875C34.4608 56.7188 35.5468 56.9844 36.7264 56.9844C39.0077 56.9844 40.5936 56.5703 41.4921 55.7344C42.3983 54.9023 42.8514 53.6211 42.8514 51.8906V46.3281H46.7108V54.8594ZM73.3475 54.7969C71.9491 55.9219 70.371 56.7109 68.6132 57.1562C66.8632 57.6016 65.0858 57.8281 63.285 57.8281C61.66 57.8281 60.0858 57.5938 58.5663 57.125C57.0429 56.6562 55.6991 55.9609 54.535 55.0312C53.3671 54.0938 52.4335 52.918 51.7382 51.5C51.0389 50.0742 50.6913 48.4023 50.6913 46.4844C50.6913 44.7773 51.0389 43.2266 51.7382 41.8281C52.4335 40.4219 53.3671 39.2305 54.535 38.25C55.6991 37.2617 57.0429 36.5 58.5663 35.9688C60.0858 35.4297 61.66 35.1562 63.285 35.1562C64.0663 35.1562 64.8671 35.2109 65.6913 35.3125C66.5233 35.4062 67.3553 35.5625 68.1913 35.7812C69.0233 35.9922 69.8358 36.25 70.6288 36.5625C71.4178 36.875 72.16 37.25 72.8475 37.6875L72.5507 38.6562C71.2772 37.8125 69.8163 37.1641 68.16 36.7031C66.5038 36.2344 64.8788 36 63.285 36C61.7733 36 60.4921 36.3203 59.4413 36.9531C58.3983 37.5781 57.5585 38.3906 56.9257 39.3906C56.3007 40.3906 55.8475 41.5156 55.5663 42.7656C55.285 44.0078 55.1444 45.2461 55.1444 46.4844C55.1444 47.7344 55.3046 48.9844 55.6288 50.2344C55.9491 51.4766 56.4764 52.5938 57.2069 53.5938C57.9452 54.5938 58.9179 55.4141 60.1288 56.0469C61.3475 56.6719 62.8397 56.9844 64.6132 56.9844C65.1444 56.9844 65.7694 56.9219 66.4882 56.7969C67.2147 56.6641 67.9647 56.4688 68.7382 56.2188C69.5194 55.9609 70.285 55.6367 71.035 55.25C71.7928 54.8555 72.4764 54.4141 73.0819 53.9219L73.3475 54.7969ZM109.441 51.4844C109.441 52.7578 109.07 53.7734 108.332 54.5312C107.601 55.2812 106.723 55.8555 105.691 56.25C104.66 56.6367 103.574 56.8867 102.441 57C101.305 57.1055 100.324 57.1562 99.5038 57.1562H88.3788V38.3281C88.3788 38.0586 88.4022 37.7773 88.4569 37.4844C88.5194 37.1836 88.6054 36.9141 88.7225 36.6719C88.8475 36.4219 89.0077 36.2188 89.2069 36.0625C89.4022 35.9062 89.6483 35.8281 89.9413 35.8281H98.7069C99.5077 35.8281 100.41 35.8984 101.41 36.0312C102.41 36.1562 103.355 36.3984 104.254 36.75C105.16 37.0938 105.914 37.5781 106.519 38.2031C107.133 38.8203 107.441 39.6172 107.441 40.5938C107.441 41.5234 107.207 42.293 106.738 42.9062C106.269 43.5234 105.676 44.0117 104.957 44.375C104.238 44.7422 103.461 45.0078 102.629 45.1719C101.793 45.3398 101.008 45.4609 100.269 45.5312V45.5938C101.183 45.6172 102.176 45.7266 103.238 45.9219C104.308 46.1211 105.301 46.4453 106.207 46.8906C107.121 47.3398 107.887 47.9453 108.504 48.7031C109.129 49.4531 109.441 50.3828 109.441 51.4844ZM104.973 51.125C104.973 50.125 104.726 49.2969 104.238 48.6406C103.746 47.9844 103.144 47.4688 102.426 47.0938C101.707 46.7188 100.941 46.4531 100.129 46.2969C99.3163 46.1406 98.5858 46.0625 97.9413 46.0625H93.5819L93.9725 45.2188H96.3788C98.7303 45.2188 100.461 44.8203 101.566 44.0156C102.68 43.2031 103.238 42.1055 103.238 40.7188C103.238 39.5234 102.762 38.5469 101.816 37.7969C100.879 37.0391 99.5077 36.6562 97.7069 36.6562H93.5507C93.1014 36.6562 92.7694 36.8711 92.5507 37.2969C92.3397 37.7148 92.2382 38.1484 92.2382 38.5938V56.3281H99.2694C101.008 56.3281 102.394 55.918 103.426 55.0938C104.457 54.2734 104.973 52.9492 104.973 51.125ZM114.644 57.1562C114.09 57.1562 113.699 56.9023 113.473 56.3906C113.254 55.8828 113.144 55.3516 113.144 54.7969V41.9844C113.144 41.4766 113.262 40.9922 113.504 40.5312C113.754 40.0625 114.133 39.8281 114.644 39.8281H128.738V40.6562H118.004C117.586 40.6562 117.242 40.8203 116.973 41.1406C116.711 41.4648 116.582 41.8398 116.582 42.2656V47.3594H127.41V48.1875H116.582V54.5156C116.582 54.9219 116.699 55.3281 116.941 55.7344C117.18 56.1328 117.535 56.3281 118.004 56.3281H129.801V57.1562H114.644ZM146.062 57.1562V47.2656H143.437C142.551 47.2656 141.664 47.3359 140.781 47.4688C139.906 47.5938 139.125 47.8516 138.437 48.2344C137.75 48.6094 137.191 49.1367 136.766 49.8125C136.348 50.4922 136.141 51.3711 136.141 52.4531C136.141 53.6836 136.469 54.6367 137.125 55.3125C137.781 55.9922 138.828 56.3281 140.266 56.3281H144.297L144.734 57.1562H139.297C138.43 57.1562 137.582 57.0703 136.75 56.8906C135.914 56.7148 135.164 56.4297 134.5 56.0312C133.832 55.625 133.289 55.0898 132.875 54.4219C132.469 53.7578 132.266 52.9219 132.266 51.9219C132.266 51.1016 132.457 50.3906 132.844 49.7969C133.238 49.1953 133.758 48.6953 134.406 48.2969C135.051 47.8906 135.773 47.5703 136.578 47.3281C137.391 47.0781 138.207 46.8906 139.031 46.7656C139.851 46.6328 140.66 46.543 141.453 46.5C142.242 46.4492 142.926 46.4219 143.5 46.4219H146.062V45.4219C146.062 43.8281 145.672 42.5469 144.891 41.5781C144.117 40.6094 142.891 40.125 141.203 40.125C139.598 40.125 138.156 40.2773 136.875 40.5781C135.601 40.8828 134.445 41.3203 133.406 41.8906L133.172 40.9844C134.484 40.2969 135.859 39.8516 137.297 39.6406C138.742 39.4336 140.211 39.3281 141.703 39.3281C142.66 39.3281 143.601 39.4219 144.531 39.6094C145.469 39.7969 146.301 40.1094 147.031 40.5469C147.769 40.9766 148.363 41.5469 148.812 42.2656C149.269 42.9766 149.5 43.8516 149.5 44.8906V57.1562H146.062ZM168.125 57.1562V39.8281H171.562V57.1562H168.125ZM161.094 57.1562C159.969 57.1562 158.957 57.043 158.062 56.8125C157.176 56.5742 156.43 56.1797 155.828 55.625C155.234 55.0742 154.781 54.3398 154.469 53.4219C154.156 52.4961 154 51.3398 154 49.9531V39.8281H157.437V49.9844C157.437 50.7891 157.523 51.5703 157.703 52.3281C157.879 53.0781 158.16 53.75 158.547 54.3438C158.941 54.9297 159.445 55.4062 160.062 55.7812C160.687 56.1484 161.441 56.3281 162.328 56.3281H166.328L166.797 57.1562H161.094ZM183.394 41.4844H180.269V54.5156C180.269 54.9219 180.387 55.3281 180.629 55.7344C180.879 56.1328 181.23 56.3281 181.691 56.3281H183.301L183.098 57.1562H178.332C177.777 57.1562 177.387 56.9023 177.16 56.3906C176.941 55.8828 176.832 55.3516 176.832 54.7969V41.4844H174.363L174.66 40.6562H176.832V35.8906H180.269V40.6562H183.629L183.394 41.4844ZM194.898 56.8594C194.648 57.3281 194.371 57.8281 194.07 58.3594C193.777 58.8906 193.465 59.4062 193.133 59.9062C192.797 60.4062 192.437 60.875 192.055 61.3125C191.68 61.7578 191.281 62.1406 190.867 62.4531C189.687 63.3164 188.133 63.75 186.195 63.75H185.726L186.023 62.8906C186.668 62.8906 187.234 62.8477 187.726 62.7656C188.215 62.6914 188.683 62.5664 189.133 62.3906C189.683 62.1719 190.187 61.8516 190.648 61.4375C191.105 61.0312 191.523 60.582 191.898 60.0938C192.273 59.6016 192.594 59.1094 192.867 58.6094C193.148 58.1094 193.375 57.6562 193.555 57.25L184.758 39.8281H188.664L195.601 53.5625L202.695 39.8281H203.695L194.898 56.8594ZM216.121 57.8281H214.09L222.793 35.1562H224.824L216.121 57.8281ZM257.355 41.4219C257.355 42.5586 256.953 43.5 256.152 44.25C255.348 44.9922 254.355 45.5781 253.168 46.0156C251.98 46.4453 250.715 46.7461 249.371 46.9219C248.027 47.1016 246.808 47.1875 245.715 47.1875C245.203 47.1875 244.699 47.1797 244.199 47.1562C243.699 47.1367 243.328 47.1055 243.09 47.0625L243.324 46.2656C243.5 46.3086 243.754 46.3359 244.09 46.3438C244.422 46.3555 244.766 46.3594 245.121 46.3594C247.629 46.3594 249.551 45.9024 250.887 44.9844C252.219 44.0586 252.887 42.8047 252.887 41.2188C252.887 40.3555 252.672 39.6328 252.246 39.0469C251.828 38.4531 251.285 37.9805 250.621 37.625C249.953 37.2734 249.215 37.0234 248.402 36.875C247.59 36.7305 246.793 36.6563 246.012 36.6563H243.058C242.609 36.6563 242.277 36.8711 242.058 37.2969C241.848 37.7149 241.746 38.1484 241.746 38.5938V57.1562H237.887V38.3281C237.887 38.0586 237.91 37.7773 237.965 37.4844C238.027 37.1836 238.113 36.9141 238.23 36.6719C238.355 36.4219 238.515 36.2188 238.715 36.0625C238.91 35.9062 239.156 35.8281 239.449 35.8281H247.418C248.281 35.8281 249.285 35.9063 250.433 36.0625C251.578 36.2188 252.66 36.5117 253.683 36.9375C254.703 37.3555 255.566 37.9219 256.277 38.6406C256.996 39.3594 257.355 40.2891 257.355 41.4219ZM273.812 57.1562C273.726 56.8438 273.601 56.4375 273.437 55.9375C273.269 55.4375 273.078 54.9141 272.859 54.3594C272.648 53.8086 272.437 53.2578 272.219 52.7031C272 52.1406 271.785 51.6484 271.578 51.2188C271.316 50.6484 271.031 50.1797 270.719 49.8125C270.406 49.4375 270.031 49.1367 269.594 48.9062C269.164 48.6797 268.66 48.5234 268.078 48.4375C267.504 48.3438 266.816 48.2969 266.016 48.2969H264.953L265.484 47.4844H268.156C268.789 47.4844 269.394 47.4297 269.969 47.3125C270.551 47.1875 271.062 46.9844 271.5 46.7031C271.937 46.4141 272.285 46.0391 272.547 45.5781C272.816 45.1211 272.953 44.5469 272.953 43.8594C272.953 43.3281 272.816 42.8672 272.547 42.4688C272.285 42.0625 271.922 41.7305 271.453 41.4688C270.984 41.1992 270.437 40.9961 269.812 40.8594C269.195 40.7266 268.519 40.6562 267.781 40.6562H265.047C264.629 40.6562 264.285 40.8203 264.016 41.1406C263.754 41.4648 263.625 41.8398 263.625 42.2656V57.1562H260.187V41.9844C260.187 41.4766 260.305 40.9922 260.547 40.5312C260.797 40.0625 261.176 39.8281 261.687 39.8281H266.953C270.172 39.8281 272.562 40.1523 274.125 40.7969C275.695 41.4453 276.484 42.5312 276.484 44.0625C276.484 44.75 276.32 45.3438 276 45.8438C275.676 46.3438 275.234 46.7656 274.672 47.1094C274.117 47.4531 273.461 47.7188 272.703 47.9062C271.953 48.0938 271.144 48.2109 270.281 48.25V48.2969C271.082 48.4766 271.785 48.6719 272.391 48.8906C273.004 49.1094 273.547 49.4062 274.016 49.7812C274.484 50.1484 274.898 50.6016 275.266 51.1406C275.629 51.6836 275.976 52.3555 276.312 53.1562L277.953 57.1562H273.812ZM299.715 48.4844C299.715 49.8203 299.465 51.0469 298.965 52.1719C298.465 53.2969 297.769 54.2656 296.887 55.0781C296.012 55.8906 294.969 56.5273 293.762 56.9844C292.551 57.4297 291.234 57.6562 289.808 57.6562C288.391 57.6562 287.078 57.4297 285.871 56.9844C284.672 56.5273 283.637 55.8906 282.762 55.0781C281.887 54.2656 281.199 53.2969 280.699 52.1719C280.199 51.0469 279.949 49.8203 279.949 48.4844C279.949 47.1523 280.199 45.9297 280.699 44.8125C281.199 43.6875 281.887 42.7188 282.762 41.9062C283.637 41.0938 284.672 40.4648 285.871 40.0156C287.078 39.5586 288.391 39.3281 289.808 39.3281C291.234 39.3281 292.551 39.5586 293.762 40.0156C294.969 40.4648 296.012 41.0938 296.887 41.9062C297.769 42.7188 298.465 43.6875 298.965 44.8125C299.465 45.9297 299.715 47.1523 299.715 48.4844ZM295.84 48.4844C295.84 47.5156 295.762 46.5273 295.605 45.5156C295.449 44.4961 295.144 43.5781 294.699 42.7656C294.262 41.9453 293.644 41.2734 292.855 40.75C292.074 40.2188 291.058 39.9531 289.808 39.9531C288.566 39.9531 287.558 40.2188 286.777 40.75C286.004 41.2734 285.394 41.9453 284.949 42.7656C284.5 43.5781 284.199 44.4961 284.043 45.5156C283.887 46.5273 283.808 47.5156 283.808 48.4844C283.808 49.4648 283.887 50.4609 284.043 51.4688C284.199 52.4805 284.5 53.3984 284.949 54.2188C285.394 55.043 286.004 55.7148 286.777 56.2344C287.558 56.7578 288.566 57.0156 289.808 57.0156C291.058 57.0156 292.074 56.7578 292.855 56.2344C293.644 55.7148 294.262 55.043 294.699 54.2188C295.144 53.3984 295.449 52.4805 295.605 51.4688C295.762 50.4609 295.84 49.4648 295.84 48.4844ZM317.414 57.1562V41.9844C316.695 41.5469 315.914 41.168 315.07 40.8438C314.226 40.5234 313.242 40.3594 312.117 40.3594C311.555 40.3594 310.933 40.4531 310.258 40.6406C309.578 40.8281 308.945 41.2109 308.351 41.7812C307.766 42.3438 307.273 43.1523 306.867 44.2031C306.469 45.2461 306.273 46.6211 306.273 48.3281C306.273 50.0781 306.453 51.4805 306.82 52.5312C307.195 53.5742 307.699 54.3828 308.336 54.9531C308.98 55.5156 309.73 55.8867 310.586 56.0625C311.449 56.2422 312.383 56.3281 313.383 56.3281H315.617L316.07 57.1562H311.008C309.828 57.1562 308.719 56.9609 307.68 56.5625C306.637 56.1562 305.726 55.5859 304.945 54.8438C304.164 54.0938 303.543 53.1719 303.086 52.0781C302.637 50.9766 302.414 49.7266 302.414 48.3281C302.414 47.1719 302.633 46.0586 303.07 44.9844C303.516 43.9023 304.121 42.9453 304.883 42.1094C305.652 41.2773 306.558 40.6055 307.601 40.0938C308.652 39.5859 309.789 39.3281 311.008 39.3281C311.891 39.3281 312.664 39.375 313.32 39.4688C313.976 39.5547 314.555 39.668 315.055 39.8125C315.555 39.9609 315.992 40.1328 316.367 40.3281C316.75 40.5273 317.101 40.7344 317.414 40.9531V33H320.836V57.1562H317.414ZM339.566 57.1562V39.8281H343.004V57.1562H339.566ZM332.535 57.1562C331.41 57.1562 330.398 57.043 329.504 56.8125C328.617 56.5742 327.871 56.1797 327.269 55.625C326.676 55.0742 326.223 54.3398 325.91 53.4219C325.598 52.4961 325.441 51.3398 325.441 49.9531V39.8281H328.879V49.9844C328.879 50.7891 328.965 51.5703 329.144 52.3281C329.32 53.0781 329.601 53.75 329.988 54.3438C330.383 54.9297 330.887 55.4062 331.504 55.7812C332.129 56.1484 332.883 56.3281 333.769 56.3281H337.769L338.238 57.1562H332.535ZM360.769 57.1562L357.598 51.8906C357.418 51.6016 357.195 51.2188 356.926 50.75C356.664 50.2734 356.367 49.8047 356.035 49.3438C355.699 48.8867 355.324 48.4922 354.91 48.1562C354.504 47.8242 354.074 47.6562 353.629 47.6562C353.367 47.6562 353.129 47.7422 352.91 47.9062C352.699 48.0742 352.465 48.3125 352.207 48.625V47.3906L361.473 39.8281H362.801L354.207 46.7969V46.8594C354.363 46.8398 354.504 46.8281 354.629 46.8281C354.762 46.8281 354.898 46.8281 355.035 46.8281C356.035 46.8281 356.867 46.9766 357.535 47.2656C358.199 47.5469 358.789 47.9375 359.301 48.4375C359.808 48.9375 360.273 49.5117 360.691 50.1562C361.117 50.8047 361.574 51.4922 362.066 52.2188L365.332 57.1562H360.769ZM347.441 57.1562V33H350.863V57.1562H347.441ZM376.297 41.4844H373.172V54.5156C373.172 54.9219 373.289 55.3281 373.531 55.7344C373.781 56.1328 374.133 56.3281 374.594 56.3281H376.203L376 57.1562H371.234C370.68 57.1562 370.289 56.9023 370.062 56.3906C369.844 55.8828 369.734 55.3516 369.734 54.7969V41.4844H367.266L367.562 40.6562H369.734V35.8906H373.172V40.6562H376.531L376.297 41.4844ZM410.43 56.5938C410.312 56.793 410.195 56.9648 410.07 57.1094C409.953 57.2539 409.82 57.3281 409.664 57.3281C409.414 57.3281 409.215 57.1367 409.07 56.75L403.664 44.7188C403.601 44.543 403.5 44.4531 403.367 44.4531C403.23 44.4531 403.133 44.543 403.07 44.7188L398.164 56.75C397.984 57.1758 397.742 57.3906 397.43 57.3906C397.117 57.3906 396.859 57.1758 396.664 56.75L388.461 39.8281H392.492L398.367 51.8906C398.449 52.0703 398.558 52.1562 398.695 52.1562C398.851 52.1562 398.976 52.0703 399.07 51.8906L403.898 40.3594C403.98 40.1641 404.094 40.0156 404.242 39.9219C404.387 39.8203 404.539 39.7656 404.695 39.7656C405.047 39.7656 405.324 39.9648 405.523 40.3594L410.836 51.8906C410.918 52.0703 411.027 52.1562 411.164 52.1562C411.32 52.1562 411.437 52.0703 411.523 51.8906L417.226 39.8281H418.289L410.43 56.5938ZM445.816 57.1562V39.8281H449.254V57.1562H445.816ZM438.785 57.1562C437.66 57.1562 436.648 57.043 435.754 56.8125C434.867 56.5742 434.121 56.1797 433.519 55.625C432.926 55.0742 432.473 54.3398 432.16 53.4219C431.848 52.4961 431.691 51.3398 431.691 49.9531V39.8281H435.129V49.9844C435.129 50.7891 435.215 51.5703 435.394 52.3281C435.57 53.0781 435.851 53.75 436.238 54.3438C436.633 54.9297 437.137 55.4062 437.754 55.7812C438.379 56.1484 439.133 56.3281 440.019 56.3281H444.019L444.488 57.1562H438.785ZM468.113 40.2656C468.113 40.4453 468.012 40.6875 467.816 41C467.617 41.3047 467.316 41.7266 466.91 42.2656L456.957 55.2969C456.707 55.6016 456.582 55.8281 456.582 55.9844C456.582 56.1641 456.664 56.2656 456.832 56.2969C456.996 56.3203 457.168 56.3281 457.348 56.3281H467.644V57.1562H453.379C453.004 57.1562 452.68 57.1367 452.41 57.0938C452.148 57.043 452.019 56.8984 452.019 56.6562C452.019 56.4805 452.105 56.2305 452.285 55.9062C452.461 55.5859 452.762 55.1562 453.191 54.625L463.082 41.8906C463.215 41.7148 463.34 41.543 463.457 41.375C463.582 41.2109 463.644 41.0586 463.644 40.9219C463.644 40.7461 463.457 40.6562 463.082 40.6562H453.582V39.8281H466.644C467.113 39.8281 467.473 39.8516 467.723 39.8906C467.98 39.9336 468.113 40.0586 468.113 40.2656ZM462.144 35.3281C462.144 35.8594 461.945 36.3281 461.551 36.7344C461.152 37.1328 460.684 37.3281 460.144 37.3281C459.613 37.3281 459.144 37.1328 458.738 36.7344C458.34 36.3281 458.144 35.8594 458.144 35.3281C458.144 34.7969 458.34 34.3359 458.738 33.9375C459.144 33.5312 459.613 33.3281 460.144 33.3281C460.684 33.3281 461.152 33.5312 461.551 33.9375C461.945 34.3359 462.144 34.7969 462.144 35.3281ZM479.586 56.8594C479.336 57.3281 479.058 57.8281 478.758 58.3594C478.465 58.8906 478.152 59.4062 477.82 59.9062C477.484 60.4062 477.125 60.875 476.742 61.3125C476.367 61.7578 475.969 62.1406 475.555 62.4531C474.375 63.3164 472.82 63.75 470.883 63.75H470.414L470.711 62.8906C471.355 62.8906 471.922 62.8477 472.414 62.7656C472.902 62.6914 473.371 62.5664 473.82 62.3906C474.371 62.1719 474.875 61.8516 475.336 61.4375C475.793 61.0312 476.211 60.582 476.586 60.0938C476.961 59.6016 477.281 59.1094 477.555 58.6094C477.836 58.1094 478.062 57.6562 478.242 57.25L469.445 39.8281H473.351L480.289 53.5625L487.383 39.8281H488.383L479.586 56.8594ZM507.605 55.0938C506.762 55.8438 505.676 56.4609 504.355 56.9375C503.043 57.4141 501.527 57.6562 499.808 57.6562C498.391 57.6562 497.078 57.4297 495.871 56.9844C494.672 56.5273 493.637 55.8906 492.762 55.0781C491.887 54.2656 491.199 53.2969 490.699 52.1719C490.199 51.0469 489.949 49.8203 489.949 48.4844C489.949 47.1523 490.199 45.9297 490.699 44.8125C491.199 43.6875 491.887 42.7188 492.762 41.9062C493.637 41.0938 494.672 40.4648 495.871 40.0156C497.078 39.5586 498.391 39.3281 499.808 39.3281C501.41 39.3281 502.844 39.5391 504.105 39.9531C505.375 40.3594 506.402 40.8281 507.183 41.3594L506.949 42.2656C506.051 41.6641 505.016 41.1562 503.84 40.75C502.66 40.3359 501.308 40.125 499.777 40.125C498.691 40.125 497.769 40.3711 497.012 40.8594C496.262 41.3516 495.644 41.9922 495.168 42.7812C494.687 43.5625 494.34 44.4531 494.121 45.4531C493.91 46.4531 493.808 47.4648 493.808 48.4844C493.808 49.9961 493.996 51.2773 494.371 52.3281C494.754 53.3711 495.25 54.2188 495.855 54.875C496.469 55.5312 497.156 56.0117 497.918 56.3125C498.687 56.6055 499.465 56.75 500.246 56.75C501.672 56.75 502.98 56.5312 504.168 56.0938C505.355 55.6484 506.402 55.0312 507.308 54.25L507.605 55.0938ZM515.238 35.5625C515.238 36.0938 515.051 36.5586 514.676 36.9531C514.301 37.3398 513.82 37.5312 513.238 37.5312C512.707 37.5312 512.246 37.3398 511.863 36.9531C511.476 36.5586 511.285 36.0938 511.285 35.5625C511.285 35.0312 511.476 34.5703 511.863 34.1719C512.246 33.7656 512.707 33.5625 513.238 33.5625C513.82 33.5625 514.301 33.7656 514.676 34.1719C515.051 34.5703 515.238 35.0312 515.238 35.5625ZM511.551 57.1562V39.8281H514.973V57.1562H511.551ZM534.269 57.1562V39.8281H537.707V57.1562H534.269ZM527.238 57.1562C526.113 57.1562 525.101 57.043 524.207 56.8125C523.32 56.5742 522.574 56.1797 521.973 55.625C521.379 55.0742 520.926 54.3398 520.613 53.4219C520.301 52.4961 520.144 51.3398 520.144 49.9531V39.8281H523.582V49.9844C523.582 50.7891 523.668 51.5703 523.848 52.3281C524.023 53.0781 524.305 53.75 524.691 54.3438C525.086 54.9297 525.59 55.4062 526.207 55.7812C526.832 56.1484 527.586 56.3281 528.473 56.3281H532.473L532.941 57.1562H527.238Z" fill="#665F20"/>
</svg>
