<svg width="320" height="127" viewBox="0 0 320 127" fill="none" xmlns="http://www.w3.org/2000/svg">
<path d="M40.5156 47.1875C40.3359 46.5625 40.082 45.75 39.75 44.75C39.4141 43.75 39.0352 42.6992 38.6094 41.5938C38.1914 40.4805 37.7578 39.3711 37.3125 38.2656C36.875 37.1523 36.457 36.1719 36.0625 35.3281C35.5195 34.1719 34.9375 33.2305 34.3125 32.5C33.6953 31.7617 32.957 31.1563 32.0938 30.6875C31.2266 30.2188 30.2188 29.8984 29.0625 29.7188C27.9063 29.543 26.5234 29.4531 24.9219 29.4531H22.7969L23.8594 27.8594H29.1875C30.4766 27.8594 31.7031 27.7422 32.8594 27.5C34.0156 27.25 35.0234 26.8398 35.8906 26.2656C36.7539 25.6836 37.4531 24.9375 37.9844 24.0312C38.5234 23.1172 38.7969 21.9688 38.7969 20.5938C38.7969 19.5234 38.5234 18.5898 37.9844 17.7969C37.4531 16.9961 36.7188 16.3281 35.7812 15.7969C34.8516 15.2656 33.7656 14.8672 32.5156 14.5938C31.2734 14.3242 29.9219 14.1875 28.4531 14.1875H23C22.1445 14.1875 21.4531 14.5117 20.9219 15.1562C20.3906 15.8047 20.125 16.5469 20.125 17.3906V47.1875H13.2656V16.8594C13.2656 15.8398 13.5078 14.8672 14 13.9375C14.4883 13 15.2422 12.5312 16.2656 12.5312H26.7969C33.2344 12.5312 38.0195 13.1797 41.1562 14.4688C44.2891 15.75 45.8594 17.9219 45.8594 20.9844C45.8594 22.3711 45.5352 23.5625 44.8906 24.5625C44.2422 25.5625 43.3633 26.4062 42.25 27.0938C41.1445 27.7812 39.8359 28.3125 38.3281 28.6875C36.8164 29.0625 35.1914 29.2969 33.4531 29.3906V29.4531C35.0547 29.8086 36.4688 30.2109 37.6875 30.6563C38.9062 31.1055 39.9844 31.6953 40.9219 32.4219C41.8594 33.1523 42.6914 34.0625 43.4219 35.1562C44.1484 36.25 44.8477 37.5937 45.5156 39.1875L48.7812 47.1875H40.5156ZM58.2578 47.1875C57.1406 47.1875 56.3594 46.6797 55.9141 45.6562C55.4766 44.6367 55.2578 43.5703 55.2578 42.4531V16.8594C55.2578 15.8398 55.5 14.8672 55.9922 13.9375C56.4805 13 57.2344 12.5312 58.2578 12.5312H86.4453V14.1875H64.9922C64.1367 14.1875 63.4453 14.5117 62.9141 15.1562C62.3828 15.8047 62.1172 16.5469 62.1172 17.3906V27.5938H83.7891V29.25H62.1172V41.9219C62.1172 42.7266 62.3594 43.5273 62.8516 44.3281C63.3398 45.1211 64.0547 45.5156 64.9922 45.5156H88.5859V47.1875H58.2578ZM128.113 43.0625C126.426 44.5742 124.258 45.8086 121.613 46.7656C118.965 47.7109 115.934 48.1875 112.52 48.1875C109.676 48.1875 107.051 47.7344 104.645 46.8281C102.246 45.9141 100.168 44.6484 98.4102 43.0312C96.6602 41.4062 95.2852 39.4766 94.2852 37.2344C93.2852 34.9844 92.7852 32.5273 92.7852 29.8594C92.7852 27.1953 93.2852 24.7422 94.2852 22.5C95.2852 20.25 96.6602 18.3203 98.4102 16.7031C100.168 15.0781 102.246 13.8125 104.645 12.9062C107.051 11.9922 109.676 11.5312 112.52 11.5312C115.715 11.5312 118.582 11.9453 121.113 12.7656C123.645 13.5898 125.684 14.5312 127.238 15.5938L126.785 17.3906C125.004 16.1953 122.934 15.1836 120.582 14.3594C118.227 13.5391 115.512 13.125 112.441 13.125C110.262 13.125 108.418 13.6172 106.91 14.5938C105.398 15.5742 104.164 16.8555 103.207 18.4375C102.258 20.0117 101.57 21.7969 101.145 23.7969C100.727 25.7969 100.52 27.8203 100.52 29.8594C100.52 32.8828 100.895 35.4375 101.645 37.5312C102.402 39.6172 103.395 41.3125 104.613 42.625C105.832 43.9375 107.207 44.8984 108.738 45.5C110.277 46.0938 111.824 46.3906 113.379 46.3906C116.223 46.3906 118.832 45.9492 121.207 45.0625C123.59 44.168 125.691 42.9453 127.504 41.3906L128.113 43.0625ZM138.047 47.1875C136.93 47.1875 136.148 46.6797 135.703 45.6562C135.266 44.6367 135.047 43.5703 135.047 42.4531V16.8594C135.047 15.8398 135.289 14.8672 135.781 13.9375C136.27 13 137.023 12.5312 138.047 12.5312H166.234V14.1875H144.781C143.926 14.1875 143.234 14.5117 142.703 15.1562C142.172 15.8047 141.906 16.5469 141.906 17.3906V27.5938H163.578V29.25H141.906V41.9219C141.906 42.7266 142.148 43.5273 142.641 44.3281C143.129 45.1211 143.844 45.5156 144.781 45.5156H168.375V47.1875H138.047ZM208.898 44.9219C208.898 46.0391 208.75 46.8125 208.461 47.25C208.168 47.6953 207.805 47.9219 207.367 47.9219C206.875 47.9219 206.328 47.7188 205.727 47.3125C205.133 46.918 204.59 46.4766 204.102 45.9844L178.836 22.2656C178.25 21.7266 177.781 21.4531 177.43 21.4531C177.168 21.4531 176.969 21.5703 176.836 21.7969C176.699 22.0156 176.633 22.2617 176.633 22.5312V47.1875H174.961V14.125C174.961 13.3242 175.148 12.7344 175.523 12.3594C175.906 11.9844 176.367 11.7969 176.898 11.7969C177.523 11.7969 178.168 12.0859 178.836 12.6562L205.102 37.0625C205.453 37.418 205.75 37.6523 205.992 37.7656C206.242 37.8711 206.434 37.9219 206.57 37.9219C206.828 37.9219 207 37.8125 207.086 37.5938C207.18 37.3672 207.227 37.1406 207.227 36.9219V12.5312H208.898V44.9219ZM247.484 13.3906C247.484 13.7461 247.285 14.2344 246.891 14.8594C246.492 15.4844 245.895 16.3281 245.094 17.3906L225.156 43.4531C224.664 44.0781 224.422 44.5469 224.422 44.8594C224.422 45.2148 224.586 45.4141 224.922 45.4531C225.254 45.4961 225.602 45.5156 225.969 45.5156H246.562V47.1875H218.031C217.27 47.1875 216.625 47.1484 216.094 47.0625C215.562 46.9688 215.297 46.6797 215.297 46.1875C215.297 45.8359 215.473 45.3359 215.828 44.6875C216.18 44.043 216.781 43.1875 217.625 42.125L237.422 16.6562C237.691 16.3047 237.945 15.9609 238.188 15.625C238.438 15.293 238.562 14.9922 238.562 14.7188C238.562 14.3672 238.18 14.1875 237.422 14.1875H218.422V12.5312H244.562C245.488 12.5312 246.207 12.5781 246.719 12.6719C247.227 12.7578 247.484 12.9961 247.484 13.3906ZM263.086 4C263.086 5.0625 262.703 5.98437 261.945 6.76562C261.195 7.53906 260.242 7.92188 259.086 7.92188C258.023 7.92188 257.102 7.53906 256.32 6.76562C255.547 5.98437 255.164 5.0625 255.164 4C255.164 2.92969 255.547 1.99609 256.32 1.20312C257.102 0.402344 258.023 0 259.086 0C260.242 0 261.195 0.402344 261.945 1.20312C262.703 1.99609 263.086 2.92969 263.086 4ZM262.555 45.1875C262.555 48.4258 261.918 51.0352 260.648 53.0156C259.387 54.9922 257.867 56.5234 256.086 57.6094C254.313 58.7031 252.461 59.4375 250.523 59.8125C248.598 60.1953 246.969 60.3906 245.633 60.3906H243.555L244.086 59.0469H245.898C246.648 59.0469 247.594 58.9375 248.727 58.7188C249.859 58.5 250.938 57.832 251.961 56.7188C252.98 55.6016 253.855 53.8984 254.586 51.6094C255.324 49.3281 255.695 46.1211 255.695 41.9844V12.5312H262.555V45.1875ZM298.816 47.1875V27.3906H293.551C291.77 27.3906 289.996 27.5273 288.238 27.7969C286.488 28.0586 284.926 28.5703 283.551 29.3281C282.176 30.0781 281.066 31.1328 280.223 32.4844C279.379 33.8398 278.957 35.6055 278.957 37.7812C278.957 40.2305 279.605 42.1328 280.91 43.4844C282.223 44.8398 284.324 45.5156 287.223 45.5156H295.285L296.145 47.1875H285.285C283.555 47.1875 281.855 47.0117 280.191 46.6563C278.523 46.3047 277.023 45.7266 275.691 44.9219C274.355 44.1211 273.277 43.0547 272.457 41.7188C271.633 40.3867 271.223 38.7187 271.223 36.7188C271.223 35.0742 271.605 33.6523 272.379 32.4531C273.16 31.2578 274.195 30.2578 275.488 29.4531C276.777 28.6523 278.23 28.0117 279.848 27.5312C281.473 27.043 283.105 26.6641 284.754 26.3906C286.398 26.1211 288.008 25.9453 289.582 25.8594C291.152 25.7656 292.52 25.7188 293.676 25.7188H298.816V23.7188C298.816 20.5234 298.035 17.9609 296.473 16.0312C294.918 14.0938 292.457 13.125 289.082 13.125C285.883 13.125 283.004 13.4297 280.441 14.0312C277.887 14.625 275.57 15.5 273.488 16.6562L273.02 14.8594C275.645 13.4844 278.398 12.5898 281.285 12.1719C284.168 11.7461 287.102 11.5312 290.082 11.5312C291.988 11.5312 293.871 11.7188 295.738 12.0938C297.613 12.4688 299.277 13.0938 300.738 13.9688C302.207 14.8359 303.395 15.9805 304.301 17.4062C305.215 18.8242 305.676 20.5742 305.676 22.6562V47.1875H298.816Z" fill="#665F20"/>
<path d="M36.8595 95.1875C36.8595 97.8555 36.3204 100.305 35.2501 102.531C34.1876 104.75 32.7657 106.652 30.9845 108.234C29.2111 109.809 27.1603 111.027 24.8282 111.891C22.4923 112.758 20.0822 113.188 17.5939 113.188H9.53137L10.5939 111.516H14.922C16.9728 111.516 18.8634 111.32 20.5939 110.922C22.3204 110.527 23.8165 109.75 25.0782 108.594C26.3478 107.437 27.3361 105.793 28.047 103.656C28.7657 101.523 29.1251 98.6992 29.1251 95.1875C29.1251 91.9922 28.7423 89.3594 27.9845 87.2969C27.2345 85.2266 26.2892 83.5898 25.1564 82.3906C24.0197 81.1953 22.797 80.3594 21.4845 79.8906C20.1798 79.4219 18.9923 79.1875 17.922 79.1875C16.7228 79.1875 15.5861 79.3242 14.5157 79.5938C13.4532 79.8672 12.4415 80.1875 11.4845 80.5625C10.5353 80.9375 9.672 81.3398 8.89075 81.7656C8.11731 82.1836 7.44153 82.5703 6.8595 82.9219V126.25H0.00012207V78.5312H6.8595V81.125C7.39075 80.8125 8.03137 80.4609 8.78137 80.0625C9.53919 79.6562 10.422 79.2656 11.422 78.8906C12.422 78.5156 13.5548 78.1992 14.8282 77.9375C16.0978 77.668 17.4884 77.5312 19.0001 77.5312C21.2189 77.5312 23.3907 77.9531 25.5157 78.7969C27.6486 79.6406 29.5509 80.8281 31.2189 82.3594C32.8829 83.8906 34.2384 85.7461 35.2814 87.9219C36.3322 90.1016 36.8595 92.5234 36.8595 95.1875ZM72.4454 113.188C72.2657 112.562 72.0118 111.75 71.6798 110.75C71.3439 109.75 70.965 108.699 70.5392 107.594C70.1212 106.48 69.6876 105.371 69.2423 104.266C68.8048 103.152 68.3868 102.172 67.9923 101.328C67.4493 100.172 66.8673 99.2305 66.2423 98.5C65.6251 97.7617 64.8868 97.1562 64.0236 96.6875C63.1564 96.2188 62.1486 95.8984 60.9923 95.7188C59.8361 95.543 58.4533 95.4531 56.8517 95.4531H54.7267L55.7892 93.8594H61.1173C62.4064 93.8594 63.6329 93.7422 64.7892 93.5C65.9454 93.25 66.9532 92.8398 67.8204 92.2656C68.6837 91.6836 69.3829 90.9375 69.9142 90.0312C70.4532 89.1172 70.7267 87.9688 70.7267 86.5938C70.7267 85.5234 70.4532 84.5898 69.9142 83.7969C69.3829 82.9961 68.6486 82.3281 67.7111 81.7969C66.7814 81.2656 65.6954 80.8672 64.4454 80.5938C63.2032 80.3242 61.8517 80.1875 60.3829 80.1875H54.9298C54.0743 80.1875 53.3829 80.5117 52.8517 81.1562C52.3204 81.8047 52.0548 82.5469 52.0548 83.3906V113.188H45.1954V82.8594C45.1954 81.8398 45.4376 80.8672 45.9298 79.9375C46.4181 79 47.172 78.5312 48.1954 78.5312H58.7267C65.1642 78.5312 69.9493 79.1797 73.0861 80.4688C76.2189 81.75 77.7892 83.9219 77.7892 86.9844C77.7892 88.3711 77.465 89.5625 76.8204 90.5625C76.172 91.5625 75.2931 92.4062 74.1798 93.0938C73.0743 93.7812 71.7657 94.3125 70.2579 94.6875C68.7462 95.0625 67.1212 95.2969 65.3829 95.3906V95.4531C66.9845 95.8086 68.3986 96.2109 69.6173 96.6562C70.8361 97.1055 71.9142 97.6953 72.8517 98.4219C73.7892 99.1523 74.6212 100.062 75.3517 101.156C76.0782 102.25 76.7775 103.594 77.4454 105.188L80.7111 113.188H72.4454ZM124.25 95.8594C124.25 98.5273 123.75 100.984 122.75 103.234C121.75 105.477 120.367 107.406 118.609 109.031C116.859 110.648 114.77 111.914 112.344 112.828C109.926 113.734 107.297 114.188 104.453 114.188C101.609 114.188 98.9845 113.734 96.5782 112.828C94.1798 111.914 92.1017 110.648 90.3439 109.031C88.5939 107.406 87.2189 105.477 86.2189 103.234C85.2189 100.984 84.7189 98.5273 84.7189 95.8594C84.7189 93.1953 85.2189 90.7422 86.2189 88.5C87.2189 86.25 88.5939 84.3203 90.3439 82.7031C92.1017 81.0781 94.1798 79.8125 96.5782 78.9062C98.9845 77.9922 101.609 77.5312 104.453 77.5312C107.297 77.5312 109.926 77.9922 112.344 78.9062C114.77 79.8125 116.859 81.0781 118.609 82.7031C120.367 84.3203 121.75 86.25 122.75 88.5C123.75 90.7422 124.25 93.1953 124.25 95.8594ZM116.516 95.8594C116.516 93.9023 116.359 91.9141 116.047 89.8906C115.734 87.8711 115.129 86.0391 114.234 84.3906C113.348 82.7461 112.113 81.4023 110.531 80.3594C108.957 79.3203 106.93 78.7969 104.453 78.7969C101.961 78.7969 99.9376 79.3203 98.3751 80.3594C96.8204 81.4023 95.5978 82.7461 94.7032 84.3906C93.8165 86.0391 93.2189 87.8711 92.9064 89.8906C92.6017 91.9141 92.4532 93.9023 92.4532 95.8594C92.4532 97.8203 92.6017 99.8086 92.9064 101.828C93.2189 103.852 93.8165 105.684 94.7032 107.328C95.5978 108.965 96.8204 110.309 98.3751 111.359C99.9376 112.402 101.961 112.922 104.453 112.922C106.93 112.922 108.957 112.402 110.531 111.359C112.113 110.309 113.348 108.965 114.234 107.328C115.129 105.684 115.734 103.852 116.047 101.828C116.359 99.8086 116.516 97.8203 116.516 95.8594ZM159.633 113.188V82.8594C158.215 81.9766 156.664 81.2109 154.977 80.5625C153.289 79.918 151.309 79.5938 149.039 79.5938C147.922 79.5938 146.688 79.7812 145.336 80.1562C143.981 80.5312 142.715 81.2891 141.539 82.4219C140.359 83.5586 139.371 85.1719 138.57 87.2656C137.777 89.3516 137.383 92.1055 137.383 95.5312C137.383 99.043 137.746 101.844 138.477 103.938C139.203 106.023 140.215 107.633 141.508 108.766C142.797 109.891 144.297 110.633 146.008 110.984C147.715 111.34 149.57 111.516 151.57 111.516H156.039L156.977 113.188H146.836C144.481 113.188 142.258 112.789 140.164 111.984C138.078 111.184 136.262 110.043 134.711 108.562C133.156 107.074 131.922 105.23 131.008 103.031C130.102 100.824 129.649 98.3242 129.649 95.5312C129.649 93.2188 130.09 90.9844 130.977 88.8281C131.859 86.6719 133.07 84.7617 134.602 83.0938C136.141 81.4297 137.953 80.0859 140.039 79.0625C142.133 78.043 144.399 77.5312 146.836 77.5312C148.617 77.5312 150.164 77.6211 151.477 77.7969C152.789 77.9766 153.945 78.2109 154.945 78.5C155.945 78.7812 156.82 79.125 157.57 79.5312C158.328 79.9297 159.016 80.3516 159.633 80.7969V64.8594H166.508V113.188H159.633ZM203.965 113.188V78.5312H210.824V113.188H203.965ZM189.902 113.188C187.629 113.188 185.606 112.953 183.824 112.484C182.051 112.016 180.567 111.23 179.371 110.125C178.172 109.012 177.262 107.531 176.637 105.688C176.012 103.844 175.699 101.547 175.699 98.7969V78.5312H182.559V98.8594C182.559 100.453 182.734 102.008 183.09 103.516C183.453 105.027 184.02 106.375 184.793 107.562C185.574 108.742 186.582 109.695 187.824 110.422C189.074 111.152 190.59 111.516 192.371 111.516H200.371L201.293 113.188H189.902ZM246.363 113.188L240.02 102.656C239.664 102.086 239.223 101.32 238.692 100.359C238.16 99.4023 237.559 98.4688 236.895 97.5625C236.227 96.6484 235.481 95.8555 234.66 95.1875C233.836 94.5234 232.981 94.1875 232.098 94.1875C231.567 94.1875 231.086 94.3555 230.66 94.6875C230.242 95.0234 229.762 95.5 229.223 96.125V93.6562L247.754 78.5312H250.426L233.223 92.4531V92.5938C233.535 92.5547 233.82 92.5312 234.082 92.5312C234.352 92.5312 234.621 92.5312 234.895 92.5312C236.895 92.5312 238.559 92.8203 239.895 93.3906C241.227 93.9648 242.402 94.75 243.426 95.75C244.445 96.75 245.379 97.8984 246.223 99.1875C247.067 100.48 247.977 101.859 248.957 103.328L255.488 113.188H246.363ZM219.692 113.188V64.8594H226.567V113.188H219.692ZM277.414 81.8594H271.149V107.922C271.149 108.727 271.391 109.527 271.883 110.328C272.371 111.121 273.086 111.516 274.024 111.516H277.227L276.82 113.188H267.289C266.172 113.188 265.391 112.68 264.945 111.656C264.508 110.637 264.289 109.57 264.289 108.453V81.8594H259.352L259.961 80.1875H264.289V70.6562H271.149V80.1875H277.883L277.414 81.8594ZM312.285 113.188V78.5312H319.145V113.188H312.285ZM298.223 113.188C295.949 113.188 293.926 112.953 292.145 112.484C290.371 112.016 288.887 111.23 287.692 110.125C286.492 109.012 285.582 107.531 284.957 105.688C284.332 103.844 284.02 101.547 284.02 98.7969V78.5312H290.879V98.8594C290.879 100.453 291.055 102.008 291.41 103.516C291.774 105.027 292.34 106.375 293.113 107.562C293.895 108.742 294.902 109.695 296.145 110.422C297.395 111.152 298.91 111.516 300.692 111.516H308.692L309.613 113.188H298.223Z" fill="#665F20"/>
</svg>
