<svg width="232" height="94" viewBox="0 0 232 94" fill="none" xmlns="http://www.w3.org/2000/svg">
<path d="M54.1562 68.3438V1.92188H67.3125V68.3438H54.1562ZM27.2031 68.3438C22.8594 68.3438 18.9844 67.8984 15.5781 67C12.1719 66.1055 9.31641 64.5937 7.01562 62.4687C4.72266 60.3437 2.97656 57.5156 1.78125 53.9844C0.59375 50.4453 0 46.0312 0 40.75V1.92188H13.1562V40.875C13.1562 43.9492 13.4922 46.9336 14.1719 49.8281C14.8594 52.7266 15.9453 55.3047 17.4375 57.5625C18.9258 59.8125 20.8633 61.6406 23.25 63.0469C25.6328 64.4531 28.5312 65.1562 31.9375 65.1562H47.2656L49.0469 68.3438H27.2031ZM149.32 64.5156C149.32 70.7344 148.168 75.7344 145.867 79.5156C143.574 83.3047 140.746 86.2422 137.383 88.3281C134.016 90.4219 130.375 91.8281 126.461 92.5469C122.543 93.2734 118.922 93.6406 115.602 93.6406H89.4141L90.5703 90.4375H118.664C120.453 90.4375 122.391 90.2031 124.477 89.7344C126.559 89.2656 128.449 87.9883 130.148 85.9063C131.855 83.8203 133.281 80.6289 134.43 76.3281C135.586 72.0234 136.164 66.043 136.164 58.375V10.4844C133.434 8.69531 130.305 7.14063 126.773 5.82813C123.242 4.50782 119.344 3.84375 115.086 3.84375C110.656 3.84375 107.039 4.74219 104.227 6.53125C101.422 8.3125 99.2109 10.6523 97.5859 13.5469C95.9687 16.4453 94.8398 19.7266 94.1953 23.3906C93.5586 27.0469 93.2422 30.75 93.2422 34.5C93.2422 41.2187 93.9453 46.5859 95.3516 50.5938C96.7578 54.5937 98.6953 57.6836 101.164 59.8594C103.633 62.0273 106.508 63.4531 109.789 64.1406C113.07 64.8203 116.625 65.1562 120.461 65.1562H129.273L131.055 68.3438H111.383C106.871 68.3438 102.609 67.5781 98.6016 66.0469C94.6016 64.5156 91.1094 62.3242 88.1328 59.4687C85.1523 56.6172 82.7891 53.0859 81.0391 48.875C79.2969 44.6563 78.4297 39.8672 78.4297 34.5C78.4297 30.0742 79.2578 25.7969 80.9141 21.6719C82.5781 17.5391 84.8828 13.8711 87.8203 10.6719C90.7578 7.47656 94.2265 4.89844 98.2266 2.9375C102.227 0.980468 106.527 0 111.133 0C117.602 0 122.773 0.683594 126.648 2.04688C130.523 3.41406 133.695 4.94531 136.164 6.64063V1.40625H149.32V64.5156ZM231.707 60.4219C228.477 63.3203 224.324 65.6836 219.254 67.5156C214.191 69.3477 208.379 70.2656 201.816 70.2656C196.367 70.2656 191.34 69.3906 186.738 67.6406C182.145 65.8906 178.164 63.4648 174.801 60.3594C171.434 57.2578 168.793 53.5547 166.879 49.25C164.961 44.9492 164.004 40.2422 164.004 35.125C164.004 30.0234 164.961 25.3203 166.879 21.0156C168.793 16.7148 171.434 13.0117 174.801 9.90625C178.164 6.80469 182.145 4.37501 186.738 2.62501C191.34 0.875007 196.367 0 201.816 0C207.949 0 213.445 0.792969 218.301 2.375C223.152 3.94922 227.07 5.75782 230.051 7.79688L229.16 11.25C225.754 8.94922 221.789 7.01172 217.27 5.4375C212.758 3.86719 207.566 3.07813 201.691 3.07813C197.523 3.07813 193.992 4.01563 191.098 5.89063C188.199 7.75781 185.836 10.2031 184.004 13.2344C182.168 16.2578 180.848 19.6836 180.035 23.5156C179.23 27.3398 178.832 31.2109 178.832 35.125C178.832 40.918 179.555 45.8203 181.004 49.8281C182.449 53.8281 184.34 57.0859 186.676 59.5937C189.02 62.1055 191.66 63.9375 194.598 65.0938C197.535 66.2422 200.496 66.8125 203.488 66.8125C208.934 66.8125 213.934 65.9648 218.488 64.2656C223.039 62.5586 227.066 60.2148 230.566 57.2344L231.707 60.4219Z" fill="#665F20"/>
</svg>
