<svg width="398" height="122" viewBox="0 0 398 122" fill="none" xmlns="http://www.w3.org/2000/svg">
<path d="M109.625 24.5312C109.625 27.1992 109.086 29.6484 108.016 31.875C106.953 34.0938 105.531 35.9961 103.75 37.5781C101.977 39.1523 99.9258 40.3711 97.5938 41.2344C95.2578 42.1016 92.8477 42.5313 90.3594 42.5313H82.2969L83.3594 40.8594H87.6875C89.7383 40.8594 91.6289 40.6641 93.3594 40.2656C95.0859 39.8711 96.582 39.0938 97.8438 37.9375C99.1133 36.7812 100.102 35.1367 100.813 33C101.531 30.8672 101.891 28.043 101.891 24.5312C101.891 21.3359 101.508 18.7031 100.75 16.6406C100 14.5703 99.0547 12.9336 97.9219 11.7344C96.7852 10.5391 95.5625 9.70312 94.25 9.23438C92.9453 8.76562 91.7578 8.53125 90.6875 8.53125C89.4883 8.53125 88.3516 8.66797 87.2812 8.9375C86.2188 9.21094 85.207 9.53125 84.25 9.90625C83.3008 10.2812 82.4375 10.6836 81.6562 11.1094C80.8828 11.5273 80.207 11.9141 79.625 12.2656V55.5938H72.7656V7.875H79.625V10.4688C80.1562 10.1562 80.7969 9.80469 81.5469 9.40625C82.3047 9 83.1875 8.60938 84.1875 8.23438C85.1875 7.85938 86.3203 7.54297 87.5938 7.28125C88.8633 7.01172 90.2539 6.875 91.7656 6.875C93.9844 6.875 96.1563 7.29688 98.2813 8.14062C100.414 8.98438 102.316 10.1719 103.984 11.7031C105.648 13.2344 107.004 15.0898 108.047 17.2656C109.098 19.4453 109.625 21.8672 109.625 24.5312ZM155.023 25.2031C155.023 27.8711 154.523 30.3281 153.523 32.5781C152.523 34.8203 151.141 36.75 149.383 38.375C147.633 39.9922 145.543 41.2578 143.117 42.1719C140.699 43.0781 138.07 43.5313 135.227 43.5313C132.383 43.5313 129.758 43.0781 127.352 42.1719C124.953 41.2578 122.875 39.9922 121.117 38.375C119.367 36.75 117.992 34.8203 116.992 32.5781C115.992 30.3281 115.492 27.8711 115.492 25.2031C115.492 22.5391 115.992 20.0859 116.992 17.8438C117.992 15.5938 119.367 13.6641 121.117 12.0469C122.875 10.4219 124.953 9.15625 127.352 8.25C129.758 7.33594 132.383 6.875 135.227 6.875C138.07 6.875 140.699 7.33594 143.117 8.25C145.543 9.15625 147.633 10.4219 149.383 12.0469C151.141 13.6641 152.523 15.5938 153.523 17.8438C154.523 20.0859 155.023 22.5391 155.023 25.2031ZM147.289 25.2031C147.289 23.2461 147.133 21.2578 146.82 19.2344C146.508 17.2148 145.902 15.3828 145.008 13.7344C144.121 12.0898 142.887 10.7461 141.305 9.70312C139.73 8.66406 137.703 8.14062 135.227 8.14062C132.734 8.14062 130.711 8.66406 129.148 9.70312C127.594 10.7461 126.371 12.0898 125.477 13.7344C124.59 15.3828 123.992 17.2148 123.68 19.2344C123.375 21.2578 123.227 23.2461 123.227 25.2031C123.227 27.1641 123.375 29.1523 123.68 31.1719C123.992 33.1953 124.59 35.0273 125.477 36.6719C126.371 38.3086 127.594 39.6523 129.148 40.7031C130.711 41.7461 132.734 42.2656 135.227 42.2656C137.703 42.2656 139.73 41.7461 141.305 40.7031C142.887 39.6523 144.121 38.3086 145.008 36.6719C145.902 35.0273 146.508 33.1953 146.82 31.1719C147.133 29.1523 147.289 27.1641 147.289 25.2031ZM193.074 31.7344C193.074 34.1328 192.457 36.0859 191.23 37.5938C190.012 39.1055 188.469 40.3086 186.605 41.2031C184.738 42.0898 182.719 42.6953 180.543 43.0313C178.363 43.3633 176.344 43.5313 174.48 43.5313C171.812 43.5313 169.156 43.3164 166.512 42.8906C163.863 42.4766 161.277 41.7969 158.746 40.8594L159.215 39C160.234 39.4492 161.375 39.8516 162.637 40.2031C163.906 40.5586 165.238 40.8594 166.637 41.1094C168.043 41.3516 169.453 41.5391 170.871 41.6719C172.297 41.7969 173.629 41.8594 174.871 41.8594C176.16 41.8594 177.484 41.75 178.84 41.5312C180.191 41.3125 181.437 40.9297 182.574 40.375C183.707 39.8125 184.629 39.0313 185.34 38.0312C186.047 37.0312 186.402 35.7773 186.402 34.2656C186.402 32.9766 186.156 31.9531 185.668 31.2031C185.187 30.4453 184.449 29.8438 183.449 29.4063C182.449 28.9609 181.215 28.6367 179.746 28.4375C178.277 28.2422 176.562 28.0469 174.605 27.8594C173.145 27.7344 171.605 27.5078 169.98 27.1719C168.355 26.8398 166.863 26.3086 165.512 25.5781C164.156 24.8398 163.047 23.8711 162.184 22.6719C161.316 21.4766 160.887 19.9375 160.887 18.0625C160.887 15.7617 161.457 13.8867 162.605 12.4375C163.762 10.9922 165.203 9.85547 166.934 9.03125C168.672 8.21094 170.562 7.64844 172.605 7.34375C174.656 7.03125 176.594 6.875 178.418 6.875C180.363 6.875 182.457 7.10938 184.699 7.57812C186.949 8.03906 188.984 8.64844 190.809 9.40625L190.277 11.2031C188.59 10.4023 186.641 9.75781 184.434 9.26562C182.234 8.77734 179.848 8.53125 177.277 8.53125C175.984 8.53125 174.75 8.65625 173.574 8.90625C172.395 9.14844 171.363 9.57031 170.48 10.1719C169.594 10.7656 168.879 11.5547 168.34 12.5312C167.809 13.5117 167.543 14.7148 167.543 16.1406C167.543 17.2969 167.875 18.2578 168.543 19.0156C169.207 19.7656 170.094 20.3672 171.199 20.8125C172.312 21.25 173.594 21.5859 175.043 21.8125C176.488 22.0312 177.969 22.1836 179.48 22.2656C184.187 22.5781 187.629 23.4375 189.809 24.8438C191.984 26.2422 193.074 28.5391 193.074 31.7344ZM215.867 11.2031H209.602V37.2656C209.602 38.0703 209.844 38.8711 210.336 39.6719C210.824 40.4648 211.539 40.8594 212.477 40.8594H215.68L215.273 42.5313H205.742C204.625 42.5313 203.844 42.0234 203.398 41C202.961 39.9805 202.742 38.9141 202.742 37.7969V11.2031H197.805L198.414 9.53125H202.742V0H209.602V9.53125H216.336L215.867 11.2031ZM278.332 40.2656C278.332 41.3828 278.184 42.1563 277.895 42.5938C277.602 43.0391 277.238 43.2656 276.801 43.2656C276.309 43.2656 275.762 43.0625 275.16 42.6563C274.566 42.2617 274.023 41.8203 273.535 41.3281L248.27 17.6094C247.684 17.0703 247.215 16.7969 246.863 16.7969C246.602 16.7969 246.402 16.9141 246.27 17.1406C246.133 17.3594 246.066 17.6055 246.066 17.875V42.5313H244.395V9.46875C244.395 8.66797 244.582 8.07812 244.957 7.70312C245.34 7.32812 245.801 7.14062 246.332 7.14062C246.957 7.14062 247.602 7.42969 248.27 8L274.535 32.4062C274.887 32.7617 275.184 32.9961 275.426 33.1094C275.676 33.2148 275.867 33.2656 276.004 33.2656C276.262 33.2656 276.434 33.1562 276.52 32.9375C276.613 32.7109 276.66 32.4844 276.66 32.2656V7.875H278.332V40.2656ZM313.527 42.5313V22.7344H308.262C306.48 22.7344 304.707 22.8711 302.949 23.1406C301.199 23.4023 299.637 23.9141 298.262 24.6719C296.887 25.4219 295.777 26.4766 294.934 27.8281C294.09 29.1836 293.668 30.9492 293.668 33.125C293.668 35.5742 294.316 37.4766 295.621 38.8281C296.934 40.1836 299.035 40.8594 301.934 40.8594H309.996L310.855 42.5313H299.996C298.266 42.5313 296.566 42.3555 294.902 42C293.234 41.6484 291.734 41.0703 290.402 40.2656C289.066 39.4648 287.988 38.3984 287.168 37.0625C286.344 35.7305 285.934 34.0625 285.934 32.0625C285.934 30.418 286.316 28.9961 287.09 27.7969C287.871 26.6016 288.906 25.6016 290.199 24.7969C291.488 23.9961 292.941 23.3555 294.559 22.875C296.184 22.3867 297.816 22.0078 299.465 21.7344C301.109 21.4648 302.719 21.2891 304.293 21.2031C305.863 21.1094 307.23 21.0625 308.387 21.0625H313.527V19.0625C313.527 15.8672 312.746 13.3047 311.184 11.375C309.629 9.4375 307.168 8.46875 303.793 8.46875C300.594 8.46875 297.715 8.77344 295.152 9.375C292.598 9.96875 290.281 10.8438 288.199 12L287.73 10.2031C290.355 8.82812 293.109 7.93359 295.996 7.51562C298.879 7.08984 301.813 6.875 304.793 6.875C306.699 6.875 308.582 7.0625 310.449 7.4375C312.324 7.8125 313.988 8.4375 315.449 9.3125C316.918 10.1797 318.105 11.3242 319.012 12.75C319.926 14.168 320.387 15.918 320.387 18V42.5313H313.527Z" fill="#665F20"/>
<path d="M7.9375 65.3438C7.9375 66.4062 7.55469 67.3281 6.79688 68.1094C6.04688 68.8828 5.09375 69.2656 3.9375 69.2656C2.875 69.2656 1.95313 68.8828 1.17188 68.1094C0.390625 67.3281 0 66.4062 0 65.3438C0 64.2734 0.390625 63.3398 1.17188 62.5469C1.95313 61.7461 2.875 61.3438 3.9375 61.3438C5.09375 61.3438 6.04688 61.7461 6.79688 62.5469C7.55469 63.3398 7.9375 64.2734 7.9375 65.3438ZM0.53125 108.531V73.875H7.40625V108.531H0.53125ZM52 106.266C52 107.383 51.8516 108.156 51.5625 108.594C51.2695 109.039 50.9062 109.266 50.4688 109.266C49.9766 109.266 49.4297 109.062 48.8281 108.656C48.2344 108.262 47.6914 107.82 47.2031 107.328L21.9375 83.6094C21.3516 83.0703 20.8828 82.7969 20.5313 82.7969C20.2695 82.7969 20.0703 82.9141 19.9375 83.1406C19.8008 83.3594 19.7344 83.6055 19.7344 83.875V108.531H18.0625V75.4688C18.0625 74.668 18.25 74.0781 18.625 73.7031C19.0078 73.3281 19.4688 73.1406 20 73.1406C20.625 73.1406 21.2695 73.4297 21.9375 74L48.2031 98.4062C48.5547 98.7617 48.8516 98.9961 49.0938 99.1094C49.3438 99.2148 49.5352 99.2656 49.6719 99.2656C49.9297 99.2656 50.1016 99.1562 50.1875 98.9375C50.2812 98.7109 50.3281 98.4844 50.3281 98.2656V73.875H52V106.266ZM91.9883 97.7344C91.9883 100.133 91.3711 102.086 90.1445 103.594C88.9258 105.105 87.3828 106.309 85.5195 107.203C83.6524 108.09 81.6328 108.695 79.457 109.031C77.2774 109.363 75.2578 109.531 73.3945 109.531C70.7266 109.531 68.0703 109.316 65.4258 108.891C62.7774 108.477 60.1914 107.797 57.6602 106.859L58.1289 105C59.1484 105.449 60.2891 105.852 61.5508 106.203C62.8203 106.559 64.1524 106.859 65.5508 107.109C66.957 107.352 68.3672 107.539 69.7852 107.672C71.2109 107.797 72.543 107.859 73.7852 107.859C75.0742 107.859 76.3984 107.75 77.7539 107.531C79.1055 107.312 80.3516 106.93 81.4883 106.375C82.6211 105.812 83.543 105.031 84.2539 104.031C84.9609 103.031 85.3164 101.777 85.3164 100.266C85.3164 98.9766 85.0703 97.9531 84.582 97.2031C84.1016 96.4453 83.3633 95.8438 82.3633 95.4062C81.3633 94.9609 80.1289 94.6367 78.6602 94.4375C77.1914 94.2422 75.4766 94.0469 73.5195 93.8594C72.0586 93.7344 70.5195 93.5078 68.8945 93.1719C67.2695 92.8398 65.7774 92.3086 64.4258 91.5781C63.0703 90.8398 61.9609 89.8711 61.0977 88.6719C60.2305 87.4766 59.8008 85.9375 59.8008 84.0625C59.8008 81.7617 60.3711 79.8867 61.5195 78.4375C62.6758 76.9922 64.1172 75.8555 65.8477 75.0312C67.5859 74.2109 69.4766 73.6484 71.5195 73.3438C73.5703 73.0312 75.5078 72.875 77.332 72.875C79.2774 72.875 81.3711 73.1094 83.6133 73.5781C85.8633 74.0391 87.8984 74.6484 89.7227 75.4062L89.1914 77.2031C87.5039 76.4023 85.5547 75.7578 83.3477 75.2656C81.1484 74.7773 78.7617 74.5312 76.1914 74.5312C74.8984 74.5312 73.6641 74.6562 72.4883 74.9062C71.3086 75.1484 70.2774 75.5703 69.3945 76.1719C68.5078 76.7656 67.793 77.5547 67.2539 78.5312C66.7227 79.5117 66.457 80.7148 66.457 82.1406C66.457 83.2969 66.7891 84.2578 67.457 85.0156C68.1211 85.7656 69.0078 86.3672 70.1133 86.8125C71.2266 87.25 72.5078 87.5859 73.957 87.8125C75.4024 88.0312 76.8828 88.1836 78.3945 88.2656C83.1016 88.5781 86.543 89.4375 88.7227 90.8438C90.8984 92.2422 91.9883 94.5391 91.9883 97.7344ZM114.781 77.2031H108.516V103.266C108.516 104.07 108.758 104.871 109.25 105.672C109.738 106.465 110.453 106.859 111.391 106.859H114.594L114.188 108.531H104.656C103.539 108.531 102.758 108.023 102.313 107C101.875 105.98 101.656 104.914 101.656 103.797V77.2031H96.7188L97.3281 75.5312H101.656V66H108.516V75.5312H115.25L114.781 77.2031ZM147.648 108.531V88.7344H142.383C140.602 88.7344 138.828 88.8711 137.07 89.1406C135.32 89.4023 133.758 89.9141 132.383 90.6719C131.008 91.4219 129.898 92.4766 129.055 93.8281C128.211 95.1836 127.789 96.9492 127.789 99.125C127.789 101.574 128.437 103.477 129.742 104.828C131.055 106.184 133.156 106.859 136.055 106.859H144.117L144.977 108.531H134.117C132.387 108.531 130.687 108.355 129.023 108C127.355 107.648 125.855 107.07 124.523 106.266C123.188 105.465 122.109 104.398 121.289 103.062C120.465 101.73 120.055 100.062 120.055 98.0625C120.055 96.418 120.438 94.9961 121.211 93.7969C121.992 92.6016 123.027 91.6016 124.32 90.7969C125.609 89.9961 127.062 89.3555 128.68 88.875C130.305 88.3867 131.937 88.0078 133.586 87.7344C135.23 87.4648 136.84 87.2891 138.414 87.2031C139.984 87.1094 141.352 87.0625 142.508 87.0625H147.648V85.0625C147.648 81.8672 146.867 79.3047 145.305 77.375C143.75 75.4375 141.289 74.4688 137.914 74.4688C134.715 74.4688 131.836 74.7734 129.273 75.375C126.719 75.9688 124.402 76.8438 122.32 78L121.852 76.2031C124.477 74.8281 127.23 73.9336 130.117 73.5156C133 73.0898 135.934 72.875 138.914 72.875C140.82 72.875 142.703 73.0625 144.57 73.4375C146.445 73.8125 148.109 74.4375 149.57 75.3125C151.039 76.1797 152.227 77.3242 153.133 78.75C154.047 80.168 154.508 81.918 154.508 84V108.531H147.648ZM198.246 106.531C198.246 109.77 197.641 112.379 196.434 114.359C195.234 116.336 193.754 117.867 191.996 118.953C190.246 120.047 188.348 120.781 186.309 121.156C184.266 121.539 182.375 121.734 180.637 121.734H166.98L167.574 120.062H182.246C183.172 120.062 184.176 119.938 185.262 119.688C186.355 119.445 187.344 118.781 188.23 117.688C189.125 116.602 189.871 114.938 190.465 112.688C191.066 110.445 191.371 107.328 191.371 103.328V78.3281C189.953 77.4023 188.324 76.5938 186.48 75.9062C184.637 75.2188 182.598 74.875 180.371 74.875C178.066 74.875 176.184 75.3438 174.715 76.2812C173.246 77.2109 172.09 78.4297 171.246 79.9375C170.402 81.4492 169.812 83.1641 169.48 85.0781C169.145 86.9844 168.98 88.918 168.98 90.875C168.98 94.3867 169.344 97.1875 170.074 99.2812C170.812 101.367 171.824 102.977 173.105 104.109C174.395 105.234 175.895 105.977 177.605 106.328C179.324 106.684 181.184 106.859 183.184 106.859H187.777L188.715 108.531H178.449C176.094 108.531 173.871 108.133 171.777 107.328C169.691 106.527 167.871 105.387 166.309 103.906C164.754 102.418 163.52 100.574 162.605 98.375C161.699 96.168 161.246 93.668 161.246 90.875C161.246 88.5625 161.676 86.3281 162.543 84.1719C163.406 82.0156 164.605 80.1055 166.137 78.4375C167.676 76.7734 169.488 75.4297 171.574 74.4062C173.668 73.3867 175.91 72.875 178.309 72.875C181.684 72.875 184.379 73.2305 186.402 73.9375C188.434 74.6484 190.09 75.4492 191.371 76.3438V73.6094H198.246V106.531ZM235.629 108.531C235.449 107.906 235.195 107.094 234.863 106.094C234.527 105.094 234.148 104.043 233.723 102.938C233.305 101.824 232.871 100.715 232.426 99.6094C231.988 98.4961 231.57 97.5156 231.176 96.6719C230.633 95.5156 230.051 94.5742 229.426 93.8438C228.809 93.1055 228.07 92.5 227.207 92.0312C226.34 91.5625 225.332 91.2422 224.176 91.0625C223.02 90.8867 221.637 90.7969 220.035 90.7969H217.91L218.973 89.2031H224.301C225.59 89.2031 226.816 89.0859 227.973 88.8438C229.129 88.5938 230.137 88.1836 231.004 87.6094C231.867 87.0273 232.566 86.2812 233.098 85.375C233.637 84.4609 233.91 83.3125 233.91 81.9375C233.91 80.8672 233.637 79.9336 233.098 79.1406C232.566 78.3398 231.832 77.6719 230.895 77.1406C229.965 76.6094 228.879 76.2109 227.629 75.9375C226.387 75.668 225.035 75.5312 223.566 75.5312H218.113C217.258 75.5312 216.566 75.8555 216.035 76.5C215.504 77.1484 215.238 77.8906 215.238 78.7344V108.531H208.379V78.2031C208.379 77.1836 208.621 76.2109 209.113 75.2812C209.602 74.3438 210.355 73.875 211.379 73.875H221.91C228.348 73.875 233.133 74.5234 236.27 75.8125C239.402 77.0938 240.973 79.2656 240.973 82.3281C240.973 83.7148 240.648 84.9062 240.004 85.9062C239.355 86.9062 238.477 87.75 237.363 88.4375C236.258 89.125 234.949 89.6562 233.441 90.0312C231.93 90.4062 230.305 90.6406 228.566 90.7344V90.7969C230.168 91.1523 231.582 91.5547 232.801 92C234.02 92.4492 235.098 93.0391 236.035 93.7656C236.973 94.4961 237.805 95.4062 238.535 96.5C239.262 97.5938 239.961 98.9375 240.629 100.531L243.895 108.531H235.629ZM276.23 108.531V88.7344H270.965C269.184 88.7344 267.41 88.8711 265.652 89.1406C263.902 89.4023 262.34 89.9141 260.965 90.6719C259.59 91.4219 258.48 92.4766 257.637 93.8281C256.793 95.1836 256.371 96.9492 256.371 99.125C256.371 101.574 257.02 103.477 258.324 104.828C259.637 106.184 261.738 106.859 264.637 106.859H272.699L273.559 108.531H262.699C260.969 108.531 259.27 108.355 257.605 108C255.937 107.648 254.437 107.07 253.105 106.266C251.77 105.465 250.691 104.398 249.871 103.062C249.047 101.73 248.637 100.062 248.637 98.0625C248.637 96.418 249.02 94.9961 249.793 93.7969C250.574 92.6016 251.609 91.6016 252.902 90.7969C254.191 89.9961 255.645 89.3555 257.262 88.875C258.887 88.3867 260.52 88.0078 262.168 87.7344C263.812 87.4648 265.422 87.2891 266.996 87.2031C268.566 87.1094 269.934 87.0625 271.09 87.0625H276.23V85.0625C276.23 81.8672 275.449 79.3047 273.887 77.375C272.332 75.4375 269.871 74.4688 266.496 74.4688C263.297 74.4688 260.418 74.7734 257.855 75.375C255.301 75.9688 252.984 76.8438 250.902 78L250.434 76.2031C253.059 74.8281 255.812 73.9336 258.699 73.5156C261.582 73.0898 264.516 72.875 267.496 72.875C269.402 72.875 271.285 73.0625 273.152 73.4375C275.027 73.8125 276.691 74.4375 278.152 75.3125C279.621 76.1797 280.809 77.3242 281.715 78.75C282.629 80.168 283.09 81.918 283.09 84V108.531H276.23ZM328.355 108.531V80.6719C328.355 80.0469 328.199 79.7344 327.887 79.7344C327.613 79.7344 327.301 80.0273 326.949 80.6094L311.48 108.531H310.684L295.559 80.875C295.109 80.1172 294.777 79.7344 294.559 79.7344C294.379 79.7344 294.254 79.8711 294.184 80.1406C294.121 80.4023 294.09 80.6875 294.09 81V108.531H292.418V78.1406C292.418 76.4531 292.738 75.1562 293.387 74.25C294.031 73.3359 294.824 72.875 295.762 72.875C296.512 72.875 297.277 73.1875 298.059 73.8125C298.84 74.4297 299.606 75.4023 300.356 76.7344L313.418 100.734H313.621L326.824 77.1406C327.574 75.7148 328.41 74.6484 329.34 73.9375C330.277 73.2305 331.145 72.875 331.949 72.875C332.887 72.875 333.66 73.3437 334.277 74.2812C334.902 75.2109 335.215 76.6719 335.215 78.6719V108.531H328.355ZM353.484 65.3438C353.484 66.4062 353.102 67.3281 352.344 68.1094C351.594 68.8828 350.641 69.2656 349.484 69.2656C348.422 69.2656 347.5 68.8828 346.719 68.1094C345.938 67.3281 345.547 66.4062 345.547 65.3438C345.547 64.2734 345.938 63.3398 346.719 62.5469C347.5 61.7461 348.422 61.3438 349.484 61.3438C350.641 61.3438 351.594 61.7461 352.344 62.5469C353.102 63.3398 353.484 64.2734 353.484 65.3438ZM346.078 108.531V73.875H352.953V108.531H346.078ZM366.688 108.531C365.57 108.531 364.789 108.023 364.344 107C363.906 105.98 363.688 104.914 363.688 103.797V78.2031C363.688 77.1836 363.93 76.2109 364.422 75.2812C364.91 74.3438 365.664 73.875 366.688 73.875H394.875V75.5312H373.422C372.566 75.5312 371.875 75.8555 371.344 76.5C370.812 77.1484 370.547 77.8906 370.547 78.7344V88.9375H392.219V90.5938H370.547V103.266C370.547 104.07 370.789 104.871 371.281 105.672C371.77 106.465 372.484 106.859 373.422 106.859H397.016V108.531H366.688Z" fill="#665F20"/>
</svg>
