<svg width="528" height="68" viewBox="0 0 528 68" fill="none" xmlns="http://www.w3.org/2000/svg">
<path d="M69.7808 6.64062C69.7808 6.95312 69.3667 7.71875 68.5464 8.9375L57.6558 25.0625C57.2261 25.6875 57.0151 26.1094 57.0151 26.3281C57.0151 26.5586 57.2261 26.6719 57.6558 26.6719H69.6558V27.5H53.4214C52.9526 27.5 52.5854 27.4688 52.3276 27.4063C52.0776 27.3359 51.9526 27.1797 51.9526 26.9375C51.9526 26.5313 52.3511 25.7773 53.1558 24.6719L64.3433 8.60938C64.4761 8.43359 64.6284 8.23047 64.7964 8C64.9604 7.76172 65.0464 7.55469 65.0464 7.375C65.0464 7.125 64.812 7 64.3433 7H53.1558V6.17188H68.2183C68.7261 6.17188 69.1128 6.19531 69.3745 6.23438C69.644 6.27735 69.7808 6.41406 69.7808 6.64062ZM63.0151 2C63.0151 2.53125 62.812 3 62.4058 3.40625C62.0073 3.80469 61.5464 4 61.0151 4C60.4839 4 60.0151 3.80469 59.6089 3.40625C59.2104 3 59.0151 2.53125 59.0151 2C59.0151 1.46875 59.2104 1.00781 59.6089 0.609375C60.0151 0.203125 60.4839 0 61.0151 0C61.5464 0 62.0073 0.203125 62.4058 0.609375C62.812 1.00781 63.0151 1.46875 63.0151 2ZM75.7847 27.5C75.23 27.5 74.8394 27.2461 74.6128 26.7344C74.394 26.2266 74.2847 25.6953 74.2847 25.1406V12.3281C74.2847 11.8203 74.4019 11.3359 74.644 10.875C74.894 10.4063 75.273 10.1719 75.7847 10.1719H89.8784V11H79.144C78.7261 11 78.3823 11.1641 78.1128 11.4844C77.8511 11.8086 77.7222 12.1836 77.7222 12.6094V17.7031H88.5503V18.5312H77.7222V24.8594C77.7222 25.2656 77.8394 25.6719 78.0815 26.0781C78.3198 26.4766 78.6753 26.6719 79.144 26.6719H90.9409V27.5H75.7847ZM100.406 27.5H96.2495C95.687 27.5 95.2964 27.2461 95.0776 26.7344C94.8589 26.2266 94.7495 25.6953 94.7495 25.1406V3.34375H98.1714V24.8594C98.1714 25.2656 98.2886 25.6719 98.5308 26.0781C98.7808 26.4766 99.1401 26.6719 99.6089 26.6719H100.671L100.406 27.5ZM128.343 27.5V12.3281C127.625 11.8906 126.843 11.5117 126 11.1875C125.156 10.8672 124.171 10.7031 123.046 10.7031C122.484 10.7031 121.863 10.7969 121.187 10.9844C120.507 11.1719 119.875 11.5547 119.281 12.125C118.695 12.6875 118.203 13.4961 117.796 14.5469C117.398 15.5898 117.203 16.9648 117.203 18.6719C117.203 20.4219 117.382 21.8242 117.75 22.875C118.125 23.918 118.628 24.7266 119.265 25.2969C119.91 25.8594 120.66 26.2305 121.515 26.4063C122.378 26.5859 123.312 26.6719 124.312 26.6719H126.546L127 27.5H121.937C120.757 27.5 119.648 27.3047 118.609 26.9063C117.566 26.5 116.656 25.9297 115.875 25.1875C115.093 24.4375 114.472 23.5156 114.015 22.4219C113.566 21.3203 113.343 20.0703 113.343 18.6719C113.343 17.5156 113.562 16.4023 114 15.3281C114.445 14.2461 115.05 13.2891 115.812 12.4531C116.582 11.6211 117.488 10.9492 118.531 10.4375C119.582 9.92969 120.718 9.67188 121.937 9.67188C122.82 9.67188 123.593 9.71875 124.25 9.8125C124.906 9.89844 125.484 10.0117 125.984 10.1562C126.484 10.3047 126.921 10.4766 127.296 10.6719C127.679 10.8711 128.031 11.0781 128.343 11.2969V3.34375H131.765V27.5H128.343ZM155.105 18.8281C155.105 20.1641 154.855 21.3906 154.355 22.5156C153.855 23.6406 153.16 24.6094 152.277 25.4219C151.402 26.2344 150.359 26.8711 149.152 27.3281C147.941 27.7734 146.625 28 145.199 28C143.781 28 142.468 27.7734 141.261 27.3281C140.062 26.8711 139.027 26.2344 138.152 25.4219C137.277 24.6094 136.589 23.6406 136.089 22.5156C135.589 21.3906 135.339 20.1641 135.339 18.8281C135.339 17.4961 135.589 16.2734 136.089 15.1563C136.589 14.0313 137.277 13.0625 138.152 12.25C139.027 11.4375 140.062 10.8086 141.261 10.3594C142.468 9.90234 143.781 9.67188 145.199 9.67188C146.625 9.67188 147.941 9.90234 149.152 10.3594C150.359 10.8086 151.402 11.4375 152.277 12.25C153.16 13.0625 153.855 14.0313 154.355 15.1563C154.855 16.2734 155.105 17.4961 155.105 18.8281ZM151.23 18.8281C151.23 17.8594 151.152 16.8711 150.996 15.8594C150.839 14.8398 150.535 13.9219 150.089 13.1094C149.652 12.2891 149.035 11.6172 148.246 11.0938C147.464 10.5625 146.449 10.2969 145.199 10.2969C143.957 10.2969 142.949 10.5625 142.167 11.0938C141.394 11.6172 140.785 12.2891 140.339 13.1094C139.89 13.9219 139.589 14.8398 139.433 15.8594C139.277 16.8711 139.199 17.8594 139.199 18.8281C139.199 19.8086 139.277 20.8047 139.433 21.8125C139.589 22.8242 139.89 23.7422 140.339 24.5625C140.785 25.3867 141.394 26.0586 142.167 26.5781C142.949 27.1016 143.957 27.3594 145.199 27.3594C146.449 27.3594 147.464 27.1016 148.246 26.5781C149.035 26.0586 149.652 25.3867 150.089 24.5625C150.535 23.7422 150.839 22.8242 150.996 21.8125C151.152 20.8047 151.23 19.8086 151.23 18.8281ZM187.664 18.5C187.664 19.8359 187.398 21.0586 186.867 22.1719C186.335 23.2773 185.621 24.2266 184.726 25.0156C183.839 25.8086 182.812 26.4219 181.648 26.8594C180.48 27.2891 179.273 27.5 178.023 27.5H173.992L174.539 26.6719H176.695C177.714 26.6719 178.656 26.5742 179.523 26.375C180.398 26.168 181.148 25.7773 181.773 25.2031C182.406 24.6211 182.902 23.7969 183.257 22.7344C183.609 21.6719 183.789 20.2617 183.789 18.5C183.789 16.9063 183.601 15.5938 183.226 14.5625C182.851 13.5234 182.375 12.7031 181.804 12.1094C181.242 11.5078 180.632 11.0898 179.976 10.8594C179.32 10.6211 178.726 10.5 178.195 10.5C177.601 10.5 177.031 10.5703 176.492 10.7031C175.96 10.8398 175.453 11 174.976 11.1875C174.496 11.375 174.062 11.5781 173.679 11.7969C173.292 12.0078 172.953 12.1992 172.664 12.375V34.0312H169.226V10.1719H172.664V11.4688C172.933 11.3125 173.257 11.1367 173.632 10.9375C174.007 10.7422 174.445 10.5469 174.945 10.3594C175.445 10.1641 176.011 10 176.648 9.875C177.281 9.74219 177.976 9.67188 178.726 9.67188C179.839 9.67188 180.929 9.88672 181.992 10.3125C183.062 10.7305 184.015 11.3242 184.851 12.0938C185.683 12.8555 186.359 13.7813 186.882 14.875C187.402 15.9609 187.664 17.168 187.664 18.5ZM205.457 27.5C205.371 27.1875 205.246 26.7813 205.082 26.2813C204.914 25.7813 204.722 25.2578 204.503 24.7031C204.292 24.1523 204.082 23.6016 203.863 23.0469C203.644 22.4844 203.429 21.9922 203.222 21.5625C202.96 20.9922 202.675 20.5234 202.363 20.1562C202.05 19.7812 201.675 19.4805 201.238 19.25C200.808 19.0234 200.304 18.8672 199.722 18.7812C199.148 18.6875 198.46 18.6406 197.66 18.6406H196.597L197.128 17.8281H199.8C200.433 17.8281 201.039 17.7734 201.613 17.6562C202.195 17.5312 202.707 17.3281 203.144 17.0469C203.582 16.7578 203.929 16.3828 204.191 15.9219C204.46 15.4648 204.597 14.8906 204.597 14.2031C204.597 13.6719 204.46 13.2109 204.191 12.8125C203.929 12.4063 203.566 12.0742 203.097 11.8125C202.628 11.543 202.082 11.3398 201.457 11.2031C200.839 11.0703 200.164 11 199.425 11H196.691C196.273 11 195.929 11.1641 195.66 11.4844C195.398 11.8086 195.269 12.1836 195.269 12.6094V27.5H191.832V12.3281C191.832 11.8203 191.949 11.3359 192.191 10.875C192.441 10.4063 192.82 10.1719 193.332 10.1719H198.597C201.816 10.1719 204.207 10.4961 205.769 11.1406C207.339 11.7891 208.128 12.875 208.128 14.4063C208.128 15.0938 207.964 15.6875 207.644 16.1875C207.32 16.6875 206.878 17.1094 206.316 17.4531C205.761 17.7969 205.105 18.0625 204.347 18.25C203.597 18.4375 202.789 18.5547 201.925 18.5938V18.6406C202.726 18.8203 203.429 19.0156 204.035 19.2344C204.648 19.4531 205.191 19.75 205.66 20.125C206.128 20.4922 206.542 20.9453 206.91 21.4844C207.273 22.0273 207.621 22.6992 207.957 23.5L209.597 27.5H205.457ZM225.75 27.5V17.6094H223.125C222.238 17.6094 221.351 17.6797 220.468 17.8125C219.593 17.9375 218.812 18.1953 218.125 18.5781C217.437 18.9531 216.878 19.4805 216.453 20.1562C216.035 20.8359 215.828 21.7148 215.828 22.7969C215.828 24.0273 216.156 24.9805 216.812 25.6563C217.468 26.3359 218.515 26.6719 219.953 26.6719H223.984L224.421 27.5H218.984C218.117 27.5 217.269 27.4141 216.437 27.2344C215.601 27.0586 214.851 26.7734 214.187 26.375C213.519 25.9688 212.976 25.4336 212.562 24.7656C212.156 24.1016 211.953 23.2656 211.953 22.2656C211.953 21.4453 212.144 20.7344 212.531 20.1406C212.925 19.5391 213.445 19.0391 214.093 18.6406C214.738 18.2344 215.46 17.9141 216.265 17.6719C217.078 17.4219 217.894 17.2344 218.718 17.1094C219.539 16.9766 220.347 16.8867 221.14 16.8438C221.929 16.793 222.613 16.7656 223.187 16.7656H225.75V15.7656C225.75 14.1719 225.359 12.8906 224.578 11.9219C223.804 10.9531 222.578 10.4687 220.89 10.4687C219.285 10.4687 217.843 10.6211 216.562 10.9219C215.289 11.2266 214.132 11.6641 213.093 12.2344L212.859 11.3281C214.171 10.6406 215.546 10.1953 216.984 9.98437C218.429 9.77734 219.898 9.67187 221.39 9.67187C222.347 9.67187 223.289 9.76562 224.218 9.95312C225.156 10.1406 225.988 10.4531 226.718 10.8906C227.457 11.3203 228.05 11.8906 228.5 12.6094C228.957 13.3203 229.187 14.1953 229.187 15.2344V27.5H225.75ZM250.812 26.3594C250.812 26.9219 250.738 27.3125 250.593 27.5313C250.457 27.75 250.273 27.8594 250.046 27.8594C249.804 27.8594 249.535 27.7578 249.234 27.5625C248.929 27.3672 248.66 27.1484 248.421 26.9063L235.781 15.0313C235.5 14.7734 235.269 14.6406 235.093 14.6406C234.957 14.6406 234.851 14.6992 234.781 14.8125C234.718 14.918 234.687 15.0391 234.687 15.1719V27.5H233.859V10.9688C233.859 10.5742 233.953 10.2812 234.14 10.0938C234.328 9.89844 234.554 9.79688 234.828 9.79688C235.128 9.79688 235.445 9.94531 235.781 10.2344L248.921 22.4375C249.097 22.6172 249.242 22.7344 249.359 22.7969C249.484 22.8516 249.582 22.875 249.656 22.875C249.789 22.875 249.878 22.8203 249.921 22.7031C249.961 22.5898 249.984 22.4805 249.984 22.375V10.1719H250.812L250.812 26.3594ZM259.644 5.90625C259.644 6.4375 259.457 6.90234 259.082 7.29688C258.707 7.68359 258.226 7.875 257.644 7.875C257.113 7.875 256.652 7.68359 256.269 7.29688C255.882 6.90234 255.691 6.4375 255.691 5.90625C255.691 5.375 255.882 4.91406 256.269 4.51562C256.652 4.10938 257.113 3.90625 257.644 3.90625C258.226 3.90625 258.707 4.10938 259.082 4.51562C259.457 4.91406 259.644 5.375 259.644 5.90625ZM255.957 27.5V10.1719H259.378V27.5H255.957ZM277.675 27.5V17.6094H275.05C274.164 17.6094 273.277 17.6797 272.394 17.8125C271.519 17.9375 270.738 18.1953 270.05 18.5781C269.363 18.9531 268.804 19.4805 268.378 20.1562C267.96 20.8359 267.753 21.7148 267.753 22.7969C267.753 24.0273 268.082 24.9805 268.738 25.6563C269.394 26.3359 270.441 26.6719 271.878 26.6719H275.91L276.347 27.5H270.91C270.042 27.5 269.195 27.4141 268.363 27.2344C267.527 27.0586 266.777 26.7734 266.113 26.375C265.445 25.9688 264.902 25.4336 264.488 24.7656C264.082 24.1016 263.878 23.2656 263.878 22.2656C263.878 21.4453 264.07 20.7344 264.457 20.1406C264.851 19.5391 265.371 19.0391 266.019 18.6406C266.664 18.2344 267.386 17.9141 268.191 17.6719C269.003 17.4219 269.82 17.2344 270.644 17.1094C271.464 16.9766 272.273 16.8867 273.066 16.8438C273.855 16.793 274.539 16.7656 275.113 16.7656H277.675V15.7656C277.675 14.1719 277.285 12.8906 276.503 11.9219C275.73 10.9531 274.503 10.4687 272.816 10.4687C271.21 10.4687 269.769 10.6211 268.488 10.9219C267.214 11.2266 266.058 11.6641 265.019 12.2344L264.785 11.3281C266.097 10.6406 267.472 10.1953 268.91 9.98437C270.355 9.77734 271.824 9.67187 273.316 9.67187C274.273 9.67187 275.214 9.76562 276.144 9.95312C277.082 10.1406 277.914 10.4531 278.644 10.8906C279.382 11.3203 279.976 11.8906 280.425 12.6094C280.882 13.3203 281.113 14.1953 281.113 15.2344V27.5H277.675ZM318.21 25.1406C316.812 26.2656 315.234 27.0547 313.476 27.5C311.726 27.9453 309.949 28.1719 308.148 28.1719C306.523 28.1719 304.949 27.9375 303.429 27.4688C301.906 27 300.562 26.3047 299.398 25.375C298.23 24.4375 297.296 23.2617 296.601 21.8438C295.902 20.418 295.554 18.7461 295.554 16.8281C295.554 15.1211 295.902 13.5703 296.601 12.1719C297.296 10.7656 298.23 9.57422 299.398 8.59375C300.562 7.60547 301.906 6.84375 303.429 6.3125C304.949 5.77344 306.523 5.5 308.148 5.5C308.929 5.5 309.73 5.55469 310.554 5.65625C311.386 5.75 312.218 5.90625 313.054 6.125C313.886 6.33594 314.699 6.59375 315.492 6.90625C316.281 7.21875 317.023 7.59375 317.71 8.03125L317.414 9C316.14 8.15625 314.679 7.50781 313.023 7.04688C311.367 6.57812 309.742 6.34375 308.148 6.34375C306.636 6.34375 305.355 6.66406 304.304 7.29688C303.261 7.92188 302.421 8.73438 301.789 9.73438C301.164 10.7344 300.71 11.8594 300.429 13.1094C300.148 14.3516 300.007 15.5898 300.007 16.8281C300.007 18.0781 300.167 19.3281 300.492 20.5781C300.812 21.8203 301.339 22.9375 302.07 23.9375C302.808 24.9375 303.781 25.7578 304.992 26.3906C306.21 27.0156 307.703 27.3281 309.476 27.3281C310.007 27.3281 310.632 27.2656 311.351 27.1406C312.078 27.0078 312.828 26.8125 313.601 26.5625C314.382 26.3047 315.148 25.9805 315.898 25.5938C316.656 25.1992 317.339 24.7578 317.945 24.2656L318.21 25.1406ZM340.441 18.8281C340.441 20.1641 340.191 21.3906 339.691 22.5156C339.191 23.6406 338.496 24.6094 337.613 25.4219C336.738 26.2344 335.695 26.8711 334.488 27.3281C333.277 27.7734 331.96 28 330.535 28C329.117 28 327.804 27.7734 326.597 27.3281C325.398 26.8711 324.363 26.2344 323.488 25.4219C322.613 24.6094 321.925 23.6406 321.425 22.5156C320.925 21.3906 320.675 20.1641 320.675 18.8281C320.675 17.4961 320.925 16.2734 321.425 15.1563C321.925 14.0313 322.613 13.0625 323.488 12.25C324.363 11.4375 325.398 10.8086 326.597 10.3594C327.804 9.90234 329.117 9.67188 330.535 9.67188C331.96 9.67188 333.277 9.90234 334.488 10.3594C335.695 10.8086 336.738 11.4375 337.613 12.25C338.496 13.0625 339.191 14.0313 339.691 15.1563C340.191 16.2734 340.441 17.4961 340.441 18.8281ZM336.566 18.8281C336.566 17.8594 336.488 16.8711 336.332 15.8594C336.175 14.8398 335.871 13.9219 335.425 13.1094C334.988 12.2891 334.371 11.6172 333.582 11.0938C332.8 10.5625 331.785 10.2969 330.535 10.2969C329.292 10.2969 328.285 10.5625 327.503 11.0938C326.73 11.6172 326.121 12.2891 325.675 13.1094C325.226 13.9219 324.925 14.8398 324.769 15.8594C324.613 16.8711 324.535 17.8594 324.535 18.8281C324.535 19.8086 324.613 20.8047 324.769 21.8125C324.925 22.8242 325.226 23.7422 325.675 24.5625C326.121 25.3867 326.73 26.0586 327.503 26.5781C328.285 27.1016 329.292 27.3594 330.535 27.3594C331.785 27.3594 332.8 27.1016 333.582 26.5781C334.371 26.0586 334.988 25.3867 335.425 24.5625C335.871 23.7422 336.175 22.8242 336.332 21.8125C336.488 20.8047 336.566 19.8086 336.566 18.8281ZM360.562 25.4375C359.718 26.1875 358.632 26.8047 357.312 27.2813C356 27.7578 354.484 28 352.765 28C351.347 28 350.035 27.7734 348.828 27.3281C347.628 26.8711 346.593 26.2344 345.718 25.4219C344.843 24.6094 344.156 23.6406 343.656 22.5156C343.156 21.3906 342.906 20.1641 342.906 18.8281C342.906 17.4961 343.156 16.2734 343.656 15.1563C344.156 14.0313 344.843 13.0625 345.718 12.25C346.593 11.4375 347.628 10.8086 348.828 10.3594C350.035 9.90234 351.347 9.67188 352.765 9.67188C354.367 9.67188 355.8 9.88281 357.062 10.2969C358.332 10.7031 359.359 11.1719 360.14 11.7031L359.906 12.6094C359.007 12.0078 357.972 11.5 356.796 11.0938C355.617 10.6797 354.265 10.4688 352.734 10.4688C351.648 10.4688 350.726 10.7148 349.968 11.2031C349.218 11.6953 348.601 12.3359 348.125 13.125C347.644 13.9063 347.296 14.7969 347.078 15.7969C346.867 16.7969 346.765 17.8086 346.765 18.8281C346.765 20.3398 346.953 21.6211 347.328 22.6719C347.71 23.7148 348.207 24.5625 348.812 25.2188C349.425 25.875 350.113 26.3555 350.875 26.6563C351.644 26.9492 352.421 27.0938 353.203 27.0938C354.628 27.0938 355.937 26.875 357.125 26.4375C358.312 25.9922 359.359 25.375 360.265 24.5938L360.562 25.4375ZM380.46 25.4375C379.617 26.1875 378.531 26.8047 377.21 27.2813C375.898 27.7578 374.382 28 372.664 28C371.246 28 369.933 27.7734 368.726 27.3281C367.527 26.8711 366.492 26.2344 365.617 25.4219C364.742 24.6094 364.054 23.6406 363.554 22.5156C363.054 21.3906 362.804 20.1641 362.804 18.8281C362.804 17.4961 363.054 16.2734 363.554 15.1563C364.054 14.0313 364.742 13.0625 365.617 12.25C366.492 11.4375 367.527 10.8086 368.726 10.3594C369.933 9.90234 371.246 9.67188 372.664 9.67188C374.265 9.67188 375.699 9.88281 376.96 10.2969C378.23 10.7031 379.257 11.1719 380.039 11.7031L379.804 12.6094C378.906 12.0078 377.871 11.5 376.695 11.0938C375.515 10.6797 374.164 10.4688 372.632 10.4688C371.546 10.4688 370.625 10.7148 369.867 11.2031C369.117 11.6953 368.5 12.3359 368.023 13.125C367.542 13.9063 367.195 14.7969 366.976 15.7969C366.765 16.7969 366.664 17.8086 366.664 18.8281C366.664 20.3398 366.851 21.6211 367.226 22.6719C367.609 23.7148 368.105 24.5625 368.71 25.2188C369.324 25.875 370.011 26.3555 370.773 26.6563C371.542 26.9492 372.32 27.0938 373.101 27.0938C374.527 27.0938 375.835 26.875 377.023 26.4375C378.21 25.9922 379.257 25.375 380.164 24.5938L380.46 25.4375ZM402.464 18.8281C402.464 20.1641 402.214 21.3906 401.714 22.5156C401.214 23.6406 400.519 24.6094 399.636 25.4219C398.761 26.2344 397.718 26.8711 396.511 27.3281C395.3 27.7734 393.984 28 392.558 28C391.14 28 389.828 27.7734 388.621 27.3281C387.421 26.8711 386.386 26.2344 385.511 25.4219C384.636 24.6094 383.949 23.6406 383.449 22.5156C382.949 21.3906 382.699 20.1641 382.699 18.8281C382.699 17.4961 382.949 16.2734 383.449 15.1563C383.949 14.0313 384.636 13.0625 385.511 12.25C386.386 11.4375 387.421 10.8086 388.621 10.3594C389.828 9.90234 391.14 9.67188 392.558 9.67188C393.984 9.67188 395.3 9.90234 396.511 10.3594C397.718 10.8086 398.761 11.4375 399.636 12.25C400.519 13.0625 401.214 14.0313 401.714 15.1563C402.214 16.2734 402.464 17.4961 402.464 18.8281ZM398.589 18.8281C398.589 17.8594 398.511 16.8711 398.355 15.8594C398.199 14.8398 397.894 13.9219 397.449 13.1094C397.011 12.2891 396.394 11.6172 395.605 11.0938C394.824 10.5625 393.808 10.2969 392.558 10.2969C391.316 10.2969 390.308 10.5625 389.527 11.0938C388.753 11.6172 388.144 12.2891 387.699 13.1094C387.25 13.9219 386.949 14.8398 386.793 15.8594C386.636 16.8711 386.558 17.8594 386.558 18.8281C386.558 19.8086 386.636 20.8047 386.793 21.8125C386.949 22.8242 387.25 23.7422 387.699 24.5625C388.144 25.3867 388.753 26.0586 389.527 26.5781C390.308 27.1016 391.316 27.3594 392.558 27.3594C393.808 27.3594 394.824 27.1016 395.605 26.5781C396.394 26.0586 397.011 25.3867 397.449 24.5625C397.894 23.7422 398.199 22.8242 398.355 21.8125C398.511 20.8047 398.589 19.8086 398.589 18.8281ZM412.289 27.5H408.132C407.57 27.5 407.179 27.2461 406.96 26.7344C406.742 26.2266 406.632 25.6953 406.632 25.1406V3.34375H410.054V24.8594C410.054 25.2656 410.171 25.6719 410.414 26.0781C410.664 26.4766 411.023 26.6719 411.492 26.6719H412.554L412.289 27.5ZM419.585 5.90625C419.585 6.4375 419.398 6.90234 419.023 7.29688C418.648 7.68359 418.168 7.875 417.585 7.875C417.054 7.875 416.593 7.68359 416.21 7.29688C415.824 6.90234 415.632 6.4375 415.632 5.90625C415.632 5.375 415.824 4.91406 416.21 4.51562C416.593 4.10938 417.054 3.90625 417.585 3.90625C418.168 3.90625 418.648 4.10938 419.023 4.51562C419.398 4.91406 419.585 5.375 419.585 5.90625ZM415.898 27.5V10.1719H419.32V27.5H415.898ZM441.617 26.3594C441.617 26.9219 441.543 27.3125 441.398 27.5313C441.261 27.75 441.078 27.8594 440.851 27.8594C440.609 27.8594 440.339 27.7578 440.039 27.5625C439.734 27.3672 439.464 27.1484 439.226 26.9063L426.585 15.0313C426.304 14.7734 426.074 14.6406 425.898 14.6406C425.761 14.6406 425.656 14.6992 425.585 14.8125C425.523 14.918 425.492 15.0391 425.492 15.1719V27.5H424.664V10.9688C424.664 10.5742 424.757 10.2812 424.945 10.0938C425.132 9.89844 425.359 9.79688 425.632 9.79688C425.933 9.79688 426.25 9.94531 426.586 10.2344L439.726 22.4375C439.902 22.6172 440.046 22.7344 440.164 22.7969C440.289 22.8516 440.386 22.875 440.461 22.875C440.593 22.875 440.683 22.8203 440.726 22.7031C440.765 22.5898 440.789 22.4805 440.789 22.375V10.1719H441.617L441.617 26.3594ZM464.824 18.8281C464.824 20.1641 464.574 21.3906 464.074 22.5156C463.574 23.6406 462.878 24.6094 461.996 25.4219C461.121 26.2344 460.078 26.8711 458.871 27.3281C457.66 27.7734 456.343 28 454.918 28C453.5 28 452.187 27.7734 450.98 27.3281C449.781 26.8711 448.746 26.2344 447.871 25.4219C446.996 24.6094 446.308 23.6406 445.808 22.5156C445.308 21.3906 445.058 20.1641 445.058 18.8281C445.058 17.4961 445.308 16.2734 445.808 15.1563C446.308 14.0313 446.996 13.0625 447.871 12.25C448.746 11.4375 449.781 10.8086 450.98 10.3594C452.187 9.90234 453.5 9.67188 454.918 9.67188C456.343 9.67188 457.66 9.90234 458.871 10.3594C460.078 10.8086 461.121 11.4375 461.996 12.25C462.878 13.0625 463.574 14.0313 464.074 15.1563C464.574 16.2734 464.824 17.4961 464.824 18.8281ZM460.949 18.8281C460.949 17.8594 460.871 16.8711 460.714 15.8594C460.558 14.8398 460.253 13.9219 459.808 13.1094C459.371 12.2891 458.753 11.6172 457.964 11.0938C457.183 10.5625 456.168 10.2969 454.918 10.2969C453.675 10.2969 452.668 10.5625 451.886 11.0938C451.113 11.6172 450.503 12.2891 450.058 13.1094C449.609 13.9219 449.308 14.8398 449.152 15.8594C448.996 16.8711 448.918 17.8594 448.918 18.8281C448.918 19.8086 448.996 20.8047 449.152 21.8125C449.308 22.8242 449.609 23.7422 450.058 24.5625C450.503 25.3867 451.113 26.0586 451.886 26.5781C452.668 27.1016 453.675 27.3594 454.918 27.3594C456.168 27.3594 457.183 27.1016 457.964 26.5781C458.753 26.0586 459.371 25.3867 459.808 24.5625C460.253 23.7422 460.558 22.8242 460.714 21.8125C460.871 20.8047 460.949 19.8086 460.949 18.8281Z" fill="#665F20"/>
<path d="M12.4216 40V60.5H8.56226V40H-0.000244141V39.1719H20.9841V40H12.4216ZM28.281 38.9062C28.281 39.4375 28.0935 39.9023 27.7185 40.2969C27.3435 40.6836 26.863 40.875 26.281 40.875C25.7498 40.875 25.2888 40.6836 24.906 40.2969C24.5193 39.9023 24.3279 39.4375 24.3279 38.9062C24.3279 38.375 24.5193 37.9141 24.906 37.5156C25.2888 37.1094 25.7498 36.9062 26.281 36.9062C26.863 36.9062 27.3435 37.1094 27.7185 37.5156C28.0935 37.9141 28.281 38.375 28.281 38.9062ZM24.5935 60.5V43.1719H28.0154V60.5H24.5935ZM46.9216 60.5L43.7498 55.2344C43.5701 54.9453 43.3474 54.5625 43.0779 54.0938C42.8162 53.6172 42.5193 53.1484 42.1873 52.6875C41.8513 52.2305 41.4763 51.8359 41.0623 51.5C40.656 51.168 40.2263 51 39.781 51C39.5193 51 39.281 51.0859 39.0623 51.25C38.8513 51.418 38.6169 51.6562 38.3591 51.9688V50.7344L47.6248 43.1719H48.9529L40.3591 50.1406V50.2031C40.5154 50.1836 40.656 50.1719 40.781 50.1719C40.9138 50.1719 41.0505 50.1719 41.1873 50.1719C42.1873 50.1719 43.0193 50.3203 43.6873 50.6094C44.3513 50.8906 44.9412 51.2812 45.4529 51.7812C45.9607 52.2812 46.4255 52.8555 46.8435 53.5C47.2693 54.1484 47.7263 54.8359 48.2185 55.5625L51.4841 60.5H46.9216ZM33.5935 60.5V36.3438H37.0154V60.5H33.5935ZM65.4802 40V60.5H61.6209V40H53.0584V39.1719H74.0427V40H65.4802ZM95.7146 51.8281C95.7146 53.1641 95.4646 54.3906 94.9646 55.5156C94.4646 56.6406 93.7693 57.6094 92.8865 58.4219C92.0115 59.2344 90.9685 59.8711 89.7615 60.3281C88.5505 60.7734 87.2341 61 85.8083 61C84.3904 61 83.0779 60.7734 81.8708 60.3281C80.6716 59.8711 79.6365 59.2344 78.7615 58.4219C77.8865 57.6094 77.199 56.6406 76.699 55.5156C76.199 54.3906 75.949 53.1641 75.949 51.8281C75.949 50.4961 76.199 49.2734 76.699 48.1562C77.199 47.0312 77.8865 46.0625 78.7615 45.25C79.6365 44.4375 80.6716 43.8086 81.8708 43.3594C83.0779 42.9023 84.3904 42.6719 85.8083 42.6719C87.2341 42.6719 88.5505 42.9023 89.7615 43.3594C90.9685 43.8086 92.0115 44.4375 92.8865 45.25C93.7693 46.0625 94.4646 47.0312 94.9646 48.1562C95.4646 49.2734 95.7146 50.4961 95.7146 51.8281ZM91.8396 51.8281C91.8396 50.8594 91.7615 49.8711 91.6052 48.8594C91.449 47.8398 91.1443 46.9219 90.699 46.1094C90.2615 45.2891 89.6443 44.6172 88.8552 44.0938C88.074 43.5625 87.0583 43.2969 85.8083 43.2969C84.5662 43.2969 83.5583 43.5625 82.7771 44.0938C82.0037 44.6172 81.3943 45.2891 80.949 46.1094C80.4998 46.9219 80.199 47.8398 80.0427 48.8594C79.8865 49.8711 79.8083 50.8594 79.8083 51.8281C79.8083 52.8086 79.8865 53.8047 80.0427 54.8125C80.199 55.8242 80.4998 56.7422 80.949 57.5625C81.3943 58.3867 82.0037 59.0586 82.7771 59.5781C83.5583 60.1016 84.5662 60.3594 85.8083 60.3594C87.0583 60.3594 88.074 60.1016 88.8552 59.5781C89.6443 59.0586 90.2615 58.3867 90.699 57.5625C91.1443 56.7422 91.449 55.8242 91.6052 54.8125C91.7615 53.8047 91.8396 52.8086 91.8396 51.8281ZM112.945 60.5L109.773 55.2344C109.594 54.9453 109.371 54.5625 109.101 54.0938C108.84 53.6172 108.543 53.1484 108.211 52.6875C107.875 52.2305 107.5 51.8359 107.086 51.5C106.679 51.168 106.25 51 105.804 51C105.543 51 105.304 51.0859 105.086 51.25C104.875 51.418 104.64 51.6562 104.383 51.9688V50.7344L113.648 43.1719H114.976L106.383 50.1406V50.2031C106.539 50.1836 106.679 50.1719 106.804 50.1719C106.937 50.1719 107.074 50.1719 107.211 50.1719C108.211 50.1719 109.043 50.3203 109.711 50.6094C110.375 50.8906 110.965 51.2812 111.476 51.7812C111.984 52.2812 112.449 52.8555 112.867 53.5C113.293 54.1484 113.75 54.8359 114.242 55.5625L117.508 60.5H112.945ZM99.617 60.5V36.3438H103.039V60.5H99.617ZM130.504 61.1719H128.472L137.176 38.5H139.207L130.504 61.1719ZM162.363 40V60.5H158.504V40H149.941V39.1719H170.926V40H162.363ZM178.226 38.9062C178.226 39.4375 178.039 39.9023 177.664 40.2969C177.289 40.6836 176.808 40.875 176.226 40.875C175.695 40.875 175.234 40.6836 174.851 40.2969C174.465 39.9023 174.273 39.4375 174.273 38.9062C174.273 38.375 174.465 37.9141 174.851 37.5156C175.234 37.1094 175.695 36.9062 176.226 36.9062C176.808 36.9062 177.289 37.1094 177.664 37.5156C178.039 37.9141 178.226 38.375 178.226 38.9062ZM174.539 60.5V43.1719H177.961V60.5H174.539ZM201.258 60.5V46.5625C201.258 46.2617 201.179 46.1094 201.023 46.1094C200.898 46.1094 200.746 46.25 200.57 46.5312L192.836 60.5H192.429L184.867 46.6719C184.648 46.2969 184.48 46.1094 184.367 46.1094C184.273 46.1094 184.211 46.1797 184.179 46.3125C184.148 46.4375 184.133 46.5781 184.133 46.7344V60.5H183.304V45.2969C183.304 44.4531 183.465 43.8086 183.789 43.3594C184.109 42.9023 184.5 42.6719 184.961 42.6719C185.344 42.6719 185.73 42.8281 186.117 43.1406C186.5 43.4531 186.886 43.9453 187.273 44.6094L193.804 56.5938H193.898L200.492 44.7969C200.875 44.0898 201.297 43.5586 201.758 43.2031C202.226 42.8516 202.664 42.6719 203.07 42.6719C203.527 42.6719 203.914 42.9062 204.226 43.375C204.539 43.8359 204.695 44.5625 204.695 45.5625V60.5H201.258ZM211.164 60.5C210.609 60.5 210.219 60.2461 209.992 59.7344C209.773 59.2266 209.664 58.6953 209.664 58.1406V45.3281C209.664 44.8203 209.781 44.3359 210.023 43.875C210.273 43.4062 210.652 43.1719 211.164 43.1719H225.258V44H214.523C214.105 44 213.761 44.1641 213.492 44.4844C213.23 44.8086 213.101 45.1836 213.101 45.6094V50.7031H223.929V51.5312H213.101V57.8594C213.101 58.2656 213.219 58.6719 213.461 59.0781C213.699 59.4766 214.054 59.6719 214.523 59.6719H226.32V60.5H211.164ZM236.394 53.1719H228.488L229.129 50.5H236.988L236.394 53.1719ZM256.086 55.0938C256.086 56.3047 255.777 57.2891 255.164 58.0469C254.558 58.7969 253.789 59.3984 252.851 59.8438C251.922 60.2813 250.914 60.582 249.82 60.75C248.726 60.9141 247.715 61 246.789 61C245.453 61 244.125 60.8906 242.804 60.6719C241.48 60.4648 240.187 60.1328 238.929 59.6719L239.148 58.7344C239.668 58.9531 240.242 59.1523 240.867 59.3281C241.5 59.5078 242.168 59.6562 242.867 59.7812C243.562 59.9062 244.265 60.0078 244.976 60.0781C245.695 60.1406 246.367 60.1719 246.992 60.1719C247.636 60.1719 248.297 60.1172 248.976 60C249.652 59.8867 250.273 59.6953 250.836 59.4219C251.398 59.1406 251.855 58.75 252.211 58.25C252.574 57.75 252.758 57.125 252.758 56.375C252.758 55.7305 252.633 55.2188 252.383 54.8438C252.14 54.4609 251.773 54.1562 251.273 53.9375C250.773 53.7109 250.152 53.5469 249.414 53.4531C248.683 53.3516 247.828 53.2578 246.851 53.1719C246.121 53.1016 245.351 52.9805 244.539 52.8125C243.726 52.6484 242.98 52.3828 242.304 52.0156C241.625 51.6523 241.07 51.1719 240.633 50.5781C240.203 49.9766 239.992 49.2031 239.992 48.2656C239.992 47.1094 240.277 46.1719 240.851 45.4531C241.433 44.7344 242.156 44.1719 243.023 43.7656C243.886 43.3516 244.828 43.0625 245.851 42.9062C246.871 42.75 247.84 42.6719 248.758 42.6719C249.734 42.6719 250.781 42.793 251.898 43.0312C253.023 43.2617 254.039 43.5625 254.945 43.9375L254.679 44.8281C253.836 44.4336 252.859 44.1172 251.758 43.875C250.664 43.625 249.469 43.5 248.179 43.5C247.543 43.5 246.929 43.5625 246.336 43.6875C245.75 43.8125 245.234 44.0273 244.789 44.3281C244.34 44.6211 243.98 45.0117 243.711 45.5C243.449 45.9922 243.32 46.5898 243.32 47.2969C243.32 47.8828 243.484 48.3594 243.82 48.7344C244.152 49.1094 244.594 49.4141 245.148 49.6406C245.711 49.8594 246.351 50.0273 247.07 50.1406C247.789 50.2461 248.527 50.3242 249.289 50.375C251.64 50.5313 253.359 50.9609 254.445 51.6562C255.539 52.3555 256.086 53.5 256.086 55.0938ZM272.812 60.5V50.6094H270.187C269.301 50.6094 268.414 50.6797 267.531 50.8125C266.656 50.9375 265.875 51.1953 265.187 51.5781C264.5 51.9531 263.941 52.4805 263.515 53.1562C263.097 53.8359 262.89 54.7148 262.89 55.7969C262.89 57.0273 263.219 57.9805 263.875 58.6562C264.531 59.3359 265.578 59.6719 267.015 59.6719H271.047L271.484 60.5H266.047C265.179 60.5 264.332 60.4141 263.5 60.2344C262.664 60.0586 261.914 59.7734 261.25 59.375C260.582 58.9688 260.039 58.4336 259.625 57.7656C259.219 57.1016 259.015 56.2656 259.015 55.2656C259.015 54.4453 259.207 53.7344 259.594 53.1406C259.988 52.5391 260.508 52.0391 261.156 51.6406C261.801 51.2344 262.523 50.9141 263.328 50.6719C264.14 50.4219 264.957 50.2344 265.781 50.1094C266.601 49.9766 267.41 49.8867 268.203 49.8438C268.992 49.793 269.676 49.7656 270.25 49.7656H272.812V48.7656C272.812 47.1719 272.422 45.8906 271.64 44.9219C270.867 43.9531 269.64 43.4687 267.953 43.4687C266.347 43.4687 264.906 43.6211 263.625 43.9219C262.351 44.2266 261.195 44.6641 260.156 45.2344L259.922 44.3281C261.234 43.6406 262.609 43.1953 264.047 42.9844C265.492 42.7773 266.961 42.6719 268.453 42.6719C269.41 42.6719 270.351 42.7656 271.281 42.9531C272.219 43.1406 273.051 43.4531 273.781 43.8906C274.519 44.3203 275.113 44.8906 275.562 45.6094C276.019 46.3203 276.25 47.1953 276.25 48.2344V60.5H272.812ZM290.344 59.2344C290.101 59.6836 289.832 60.0781 289.531 60.4219C289.226 60.7656 288.922 60.9375 288.609 60.9375C288.172 60.9375 287.765 60.5664 287.39 59.8281L278.812 43.1719H282.89L289.656 56.375C289.851 56.7734 290.039 56.9688 290.219 56.9688C290.351 56.9688 290.484 56.8867 290.609 56.7188C290.742 56.5547 290.89 56.3242 291.047 56.0312L298.015 43.1719H299.047L290.344 59.2344ZM306.004 38.9062C306.004 39.4375 305.816 39.9023 305.441 40.2969C305.066 40.6836 304.586 40.875 304.004 40.875C303.472 40.875 303.011 40.6836 302.629 40.2969C302.242 39.9023 302.051 39.4375 302.051 38.9062C302.051 38.375 302.242 37.9141 302.629 37.5156C303.011 37.1094 303.472 36.9062 304.004 36.9062C304.586 36.9062 305.066 37.1094 305.441 37.5156C305.816 37.9141 306.004 38.375 306.004 38.9062ZM302.316 60.5V43.1719H305.738V60.5H302.316ZM328.035 59.3594C328.035 59.9219 327.961 60.3125 327.816 60.5312C327.679 60.75 327.496 60.8594 327.269 60.8594C327.027 60.8594 326.758 60.7578 326.457 60.5625C326.152 60.3672 325.883 60.1484 325.644 59.9062L313.004 48.0312C312.722 47.7734 312.492 47.6406 312.316 47.6406C312.179 47.6406 312.074 47.6992 312.004 47.8125C311.941 47.918 311.91 48.0391 311.91 48.1719V60.5H311.082V43.9688C311.082 43.5742 311.176 43.2812 311.363 43.0938C311.551 42.8984 311.777 42.7969 312.051 42.7969C312.351 42.7969 312.668 42.9453 313.004 43.2344L326.144 55.4375C326.32 55.6172 326.465 55.7344 326.582 55.7969C326.707 55.8516 326.805 55.875 326.879 55.875C327.012 55.875 327.101 55.8203 327.144 55.7031C327.183 55.5898 327.207 55.4805 327.207 55.375V43.1719H328.035L328.035 59.3594ZM349.867 59.5C349.867 61.125 349.562 62.4297 348.961 63.4219C348.367 64.4102 347.633 65.1758 346.758 65.7188C345.883 66.2578 344.929 66.625 343.898 66.8125C342.875 67 341.933 67.0938 341.07 67.0938H334.242L334.539 66.2656H341.867C342.336 66.2656 342.84 66.2031 343.383 66.0781C343.933 65.9609 344.429 65.6289 344.867 65.0781C345.312 64.5352 345.687 63.7031 345.992 62.5781C346.293 61.4609 346.445 59.9062 346.445 57.9062V45.4062C345.726 44.9375 344.902 44.5312 343.976 44.1875C343.058 43.8438 342.047 43.6719 340.945 43.6719C339.789 43.6719 338.84 43.9062 338.101 44.375C337.371 44.8359 336.793 45.4453 336.367 46.2031C335.949 46.9531 335.656 47.8086 335.492 48.7656C335.324 49.7266 335.242 50.6953 335.242 51.6719C335.242 53.4219 335.422 54.8242 335.789 55.875C336.152 56.918 336.656 57.7266 337.304 58.2969C337.949 58.8594 338.699 59.2305 339.554 59.4062C340.406 59.5859 341.336 59.6719 342.336 59.6719H344.633L345.101 60.5H339.976C338.797 60.5 337.683 60.3047 336.633 59.9062C335.59 59.5 334.679 58.9297 333.898 58.1875C333.125 57.4375 332.512 56.5156 332.054 55.4219C331.605 54.3203 331.383 53.0703 331.383 51.6719C331.383 50.5156 331.594 49.4023 332.023 48.3281C332.461 47.2461 333.058 46.2891 333.82 45.4531C334.59 44.6211 335.496 43.9492 336.539 43.4375C337.578 42.9297 338.703 42.6719 339.914 42.6719C341.601 42.6719 342.949 42.8516 343.961 43.2031C344.969 43.5586 345.797 43.9609 346.445 44.4062V43.0312H349.867V59.5ZM367.676 60.5C367.383 60.5 367.133 60.4219 366.926 60.2656C366.726 60.1094 366.566 59.9141 366.441 59.6719C366.324 59.4219 366.238 59.1523 366.176 58.8594C366.121 58.5586 366.097 58.2734 366.097 58V41.6719C366.097 41.4023 366.121 41.1211 366.176 40.8281C366.238 40.5273 366.324 40.2578 366.441 40.0156C366.566 39.7656 366.726 39.5625 366.926 39.4062C367.133 39.25 367.383 39.1719 367.676 39.1719H384.597V40H371.269C370.82 40 370.492 40.2148 370.285 40.6406C370.074 41.0586 369.972 41.4922 369.972 41.9375V48.8281H381.597V49.6719H369.972V57.7344C369.972 58.1836 370.074 58.6211 370.285 59.0469C370.492 59.4648 370.82 59.6719 371.269 59.6719H385.004V60.5H367.676ZM396.625 36.9688C396.164 36.9688 395.711 37.0078 395.265 37.0781C394.816 37.1406 394.422 37.2773 394.078 37.4844C393.734 37.6953 393.457 38.0078 393.25 38.4219C393.039 38.8281 392.937 39.375 392.937 40.0625V44H396.203L395.969 44.8281H393V60.5H389.562V44.8281H386.672L387.031 44H389.5V42.9375C389.5 41.668 389.722 40.6094 390.172 39.7656C390.629 38.9219 391.211 38.2461 391.922 37.7344C392.64 37.2266 393.429 36.8672 394.297 36.6562C395.16 36.4492 396.004 36.3438 396.828 36.3438L396.625 36.9688ZM407.722 36.9688C407.262 36.9688 406.808 37.0078 406.363 37.0781C405.914 37.1406 405.519 37.2773 405.176 37.4844C404.832 37.6953 404.554 38.0078 404.347 38.4219C404.137 38.8281 404.035 39.375 404.035 40.0625V44H407.301L407.066 44.8281H404.097V60.5H400.66V44.8281H397.769L398.129 44H400.597V42.9375C400.597 41.668 400.82 40.6094 401.269 39.7656C401.726 38.9219 402.308 38.2461 403.019 37.7344C403.738 37.2266 404.527 36.8672 405.394 36.6562C406.258 36.4492 407.101 36.3438 407.926 36.3438L407.722 36.9688ZM414.82 38.9062C414.82 39.4375 414.633 39.9023 414.258 40.2969C413.883 40.6836 413.402 40.875 412.82 40.875C412.289 40.875 411.828 40.6836 411.445 40.2969C411.058 39.9023 410.867 39.4375 410.867 38.9062C410.867 38.375 411.058 37.9141 411.445 37.5156C411.828 37.1094 412.289 36.9062 412.82 36.9062C413.402 36.9062 413.883 37.1094 414.258 37.5156C414.633 37.9141 414.82 38.375 414.82 38.9062ZM411.133 60.5V43.1719H414.554V60.5H411.133ZM436.351 58.4375C435.508 59.1875 434.422 59.8047 433.101 60.2812C431.789 60.7578 430.273 61 428.554 61C427.137 61 425.824 60.7734 424.617 60.3281C423.418 59.8711 422.383 59.2344 421.508 58.4219C420.633 57.6094 419.945 56.6406 419.445 55.5156C418.945 54.3906 418.695 53.1641 418.695 51.8281C418.695 50.4961 418.945 49.2734 419.445 48.1562C419.945 47.0312 420.633 46.0625 421.508 45.25C422.383 44.4375 423.418 43.8086 424.617 43.3594C425.824 42.9023 427.137 42.6719 428.554 42.6719C430.156 42.6719 431.59 42.8828 432.851 43.2969C434.121 43.7031 435.148 44.1719 435.929 44.7031L435.695 45.6094C434.797 45.0078 433.762 44.5 432.586 44.0938C431.406 43.6797 430.054 43.4688 428.523 43.4688C427.437 43.4688 426.515 43.7148 425.758 44.2031C425.008 44.6953 424.39 45.3359 423.914 46.125C423.433 46.9062 423.086 47.7969 422.867 48.7969C422.656 49.7969 422.554 50.8086 422.554 51.8281C422.554 53.3398 422.742 54.6211 423.117 55.6719C423.5 56.7148 423.996 57.5625 424.601 58.2188C425.215 58.875 425.902 59.3555 426.664 59.6562C427.433 59.9492 428.211 60.0938 428.992 60.0938C430.418 60.0938 431.726 59.875 432.914 59.4375C434.101 58.9922 435.148 58.375 436.054 57.5938L436.351 58.4375ZM443.984 38.9062C443.984 39.4375 443.797 39.9023 443.422 40.2969C443.047 40.6836 442.566 40.875 441.984 40.875C441.453 40.875 440.992 40.6836 440.609 40.2969C440.222 39.9023 440.031 39.4375 440.031 38.9062C440.031 38.375 440.222 37.9141 440.609 37.5156C440.992 37.1094 441.453 36.9062 441.984 36.9062C442.566 36.9062 443.047 37.1094 443.422 37.5156C443.797 37.9141 443.984 38.375 443.984 38.9062ZM440.297 60.5V43.1719H443.719V60.5H440.297ZM450.594 60.5C450.039 60.5 449.648 60.2461 449.422 59.7344C449.203 59.2266 449.094 58.6953 449.094 58.1406V45.3281C449.094 44.8203 449.211 44.3359 449.453 43.875C449.703 43.4062 450.082 43.1719 450.594 43.1719H464.687V44H453.953C453.535 44 453.191 44.1641 452.922 44.4844C452.66 44.8086 452.531 45.1836 452.531 45.6094V50.7031H463.359V51.5312H452.531V57.8594C452.531 58.2656 452.648 58.6719 452.89 59.0781C453.129 59.4766 453.484 59.6719 453.953 59.6719H465.75V60.5H450.594ZM486.012 59.3594C486.012 59.9219 485.937 60.3125 485.793 60.5312C485.656 60.75 485.472 60.8594 485.246 60.8594C485.004 60.8594 484.734 60.7578 484.433 60.5625C484.129 60.3672 483.859 60.1484 483.621 59.9062L470.98 48.0312C470.699 47.7734 470.469 47.6406 470.293 47.6406C470.156 47.6406 470.051 47.6992 469.98 47.8125C469.918 47.918 469.887 48.0391 469.887 48.1719V60.5H469.058V43.9688C469.058 43.5742 469.152 43.2812 469.34 43.0938C469.527 42.8984 469.754 42.7969 470.027 42.7969C470.328 42.7969 470.644 42.9453 470.98 43.2344L484.121 55.4375C484.297 55.6172 484.441 55.7344 484.558 55.7969C484.683 55.8516 484.781 55.875 484.855 55.875C484.988 55.875 485.078 55.8203 485.121 55.7031C485.16 55.5898 485.183 55.4805 485.183 55.375V43.1719H486.012L486.012 59.3594ZM507.109 58.4375C506.265 59.1875 505.179 59.8047 503.859 60.2812C502.547 60.7578 501.031 61 499.312 61C497.894 61 496.582 60.7734 495.375 60.3281C494.176 59.8711 493.14 59.2344 492.265 58.4219C491.39 57.6094 490.703 56.6406 490.203 55.5156C489.703 54.3906 489.453 53.1641 489.453 51.8281C489.453 50.4961 489.703 49.2734 490.203 48.1562C490.703 47.0312 491.39 46.0625 492.265 45.25C493.14 44.4375 494.176 43.8086 495.375 43.3594C496.582 42.9023 497.894 42.6719 499.312 42.6719C500.914 42.6719 502.347 42.8828 503.609 43.2969C504.879 43.7031 505.906 44.1719 506.687 44.7031L506.453 45.6094C505.554 45.0078 504.519 44.5 503.344 44.0938C502.164 43.6797 500.812 43.4688 499.281 43.4688C498.195 43.4688 497.273 43.7148 496.515 44.2031C495.765 44.6953 495.148 45.3359 494.672 46.125C494.191 46.9062 493.844 47.7969 493.625 48.7969C493.414 49.7969 493.312 50.8086 493.312 51.8281C493.312 53.3398 493.5 54.6211 493.875 55.6719C494.258 56.7148 494.754 57.5625 495.359 58.2188C495.972 58.875 496.66 59.3555 497.422 59.6562C498.191 59.9492 498.969 60.0938 499.75 60.0938C501.176 60.0938 502.484 59.875 503.672 59.4375C504.859 58.9922 505.906 58.375 506.812 57.5938L507.109 58.4375ZM518.582 60.2031C518.332 60.6719 518.054 61.1719 517.754 61.7031C517.461 62.2344 517.148 62.75 516.816 63.25C516.48 63.75 516.121 64.2187 515.738 64.6562C515.363 65.1016 514.965 65.4844 514.551 65.7969C513.371 66.6602 511.816 67.0938 509.879 67.0938H509.41L509.707 66.2344C510.351 66.2344 510.918 66.1914 511.41 66.1094C511.898 66.0352 512.367 65.9102 512.816 65.7344C513.367 65.5156 513.871 65.1953 514.332 64.7812C514.789 64.375 515.207 63.9258 515.582 63.4375C515.957 62.9453 516.277 62.4531 516.551 61.9531C516.832 61.4531 517.058 61 517.238 60.5938L508.441 43.1719H512.347L519.285 56.9062L526.379 43.1719H527.379L518.582 60.2031Z" fill="#665F20"/>
</svg>
