<svg width="600" height="58" viewBox="0 0 600 58" fill="none" xmlns="http://www.w3.org/2000/svg">
<path d="M22.2031 23.8281C22.1484 23.9531 22.0703 24.0703 21.9688 24.1719C21.875 24.2734 21.7578 24.3281 21.625 24.3281C21.5195 24.3281 21.3984 24.2656 21.2656 24.1406C21.1289 24.0156 20.9922 23.7891 20.8594 23.4531L15.1719 9.26563C15.0352 8.95313 14.8984 8.79688 14.7656 8.79688C14.6797 8.79688 14.6133 8.85157 14.5625 8.95313L9.14062 23.8281C9.08593 23.9531 9.00781 24.0742 8.90625 24.1875C8.8125 24.3008 8.69531 24.3594 8.5625 24.3594C8.45703 24.3594 8.33594 24.2891 8.20313 24.1563C8.06641 24.0234 7.92969 23.7891 7.79688 23.4531L0 2.82812H4.46875L9.67188 17.5625C9.82812 17.9805 9.99219 18.1875 10.1719 18.1875C10.2734 18.1875 10.3516 18.1094 10.4062 17.9531L15.7344 2.95312C15.7734 2.85156 15.8359 2.73438 15.9219 2.60938C16.0156 2.48438 16.1172 2.42188 16.2344 2.42188C16.3477 2.42188 16.4609 2.49219 16.5781 2.625C16.7031 2.76172 16.8438 3.00781 17 3.35938L22.9375 17.6875C23.0391 17.9805 23.1719 18.125 23.3281 18.125C23.4414 18.125 23.5195 18.0703 23.5625 17.9531L29.2344 2.82812H30.2656L22.2031 23.8281ZM37.7891 2.5625C37.7891 3.09375 37.6016 3.55859 37.2266 3.95312C36.8516 4.33984 36.3711 4.53125 35.7891 4.53125C35.2578 4.53125 34.7969 4.33984 34.4141 3.95312C34.0273 3.55859 33.8359 3.09375 33.8359 2.5625C33.8359 2.03125 34.0273 1.57031 34.4141 1.17188C34.7969 0.765625 35.2578 0.5625 35.7891 0.5625C36.3711 0.5625 36.8516 0.765625 37.2266 1.17188C37.6016 1.57031 37.7891 2.03125 37.7891 2.5625ZM34.1016 24.1563V6.82812H37.5234V24.1563H34.1016ZM44.3984 24.1563C43.8438 24.1563 43.4531 23.9023 43.2266 23.3906C43.0078 22.8828 42.8984 22.3516 42.8984 21.7969V8.98438C42.8984 8.47656 43.0156 7.99219 43.2578 7.53125C43.5078 7.0625 43.8867 6.82812 44.3984 6.82812H58.4922V7.65625H47.7578C47.3398 7.65625 46.9961 7.82031 46.7266 8.14063C46.4648 8.46484 46.3359 8.83984 46.3359 9.26563V14.3594H57.1641V15.1875H46.3359V21.5156C46.3359 21.9219 46.4531 22.3281 46.6953 22.7344C46.9336 23.1328 47.2891 23.3281 47.7578 23.3281H59.5547V24.1563H44.3984ZM79.3164 22.0938C78.4727 22.8438 77.3867 23.4609 76.0664 23.9375C74.7539 24.4141 73.2383 24.6563 71.5195 24.6563C70.1016 24.6563 68.7891 24.4297 67.582 23.9844C66.3828 23.5273 65.3477 22.8906 64.4727 22.0781C63.5977 21.2656 62.9102 20.2969 62.4102 19.1719C61.9102 18.0469 61.6602 16.8203 61.6602 15.4844C61.6602 14.1523 61.9102 12.9297 62.4102 11.8125C62.9102 10.6875 63.5977 9.71875 64.4727 8.90625C65.3477 8.09375 66.3828 7.46484 67.582 7.01562C68.7891 6.55859 70.1016 6.32812 71.5195 6.32812C73.1211 6.32812 74.5547 6.53906 75.8164 6.95312C77.0859 7.35938 78.1133 7.82813 78.8945 8.35938L78.6602 9.26563C77.7617 8.66406 76.7266 8.15625 75.5508 7.75C74.3711 7.33594 73.0195 7.125 71.4883 7.125C70.4024 7.125 69.4805 7.37109 68.7227 7.85938C67.9727 8.35156 67.3555 8.99219 66.8789 9.78125C66.3984 10.5625 66.0508 11.4531 65.832 12.4531C65.6211 13.4531 65.5195 14.4648 65.5195 15.4844C65.5195 16.9961 65.707 18.2773 66.082 19.3281C66.4649 20.3711 66.9609 21.2188 67.5664 21.875C68.1797 22.5313 68.8672 23.0117 69.6289 23.3125C70.3984 23.6055 71.1758 23.75 71.957 23.75C73.3828 23.75 74.6914 23.5313 75.8789 23.0938C77.0664 22.6484 78.1133 22.0313 79.0195 21.25L79.3164 22.0938ZM97.418 7.26563C97.418 7.44531 97.3164 7.6875 97.1211 8C96.9219 8.30469 96.6211 8.72656 96.2149 9.26563L86.2617 22.2969C86.0117 22.6016 85.8867 22.8281 85.8867 22.9844C85.8867 23.1641 85.9688 23.2656 86.1367 23.2969C86.3008 23.3203 86.4727 23.3281 86.6524 23.3281H96.9492V24.1563H82.6836C82.3086 24.1563 81.9844 24.1367 81.7149 24.0938C81.4531 24.043 81.3242 23.8984 81.3242 23.6563C81.3242 23.4805 81.4102 23.2305 81.5899 22.9063C81.7656 22.5859 82.0664 22.1563 82.4961 21.625L92.3867 8.89063C92.5195 8.71484 92.6445 8.54297 92.7617 8.375C92.8867 8.21094 92.9492 8.05859 92.9492 7.92188C92.9492 7.74609 92.7617 7.65625 92.3867 7.65625H82.8867V6.82812H95.9492C96.418 6.82812 96.7774 6.85156 97.0274 6.89062C97.2852 6.9336 97.418 7.05859 97.418 7.26563ZM119.418 15.4844C119.418 16.8203 119.168 18.0469 118.668 19.1719C118.168 20.2969 117.473 21.2656 116.59 22.0781C115.715 22.8906 114.672 23.5273 113.465 23.9844C112.254 24.4297 110.938 24.6563 109.512 24.6563C108.094 24.6563 106.781 24.4297 105.574 23.9844C104.375 23.5273 103.34 22.8906 102.465 22.0781C101.59 21.2656 100.902 20.2969 100.402 19.1719C99.9023 18.0469 99.6523 16.8203 99.6523 15.4844C99.6523 14.1523 99.9023 12.9297 100.402 11.8125C100.902 10.6875 101.59 9.71875 102.465 8.90625C103.34 8.09375 104.375 7.46484 105.574 7.01562C106.781 6.55859 108.094 6.32812 109.512 6.32812C110.938 6.32812 112.254 6.55859 113.465 7.01562C114.672 7.46484 115.715 8.09375 116.59 8.90625C117.473 9.71875 118.168 10.6875 118.668 11.8125C119.168 12.9297 119.418 14.1523 119.418 15.4844ZM115.543 15.4844C115.543 14.5156 115.465 13.5273 115.309 12.5156C115.152 11.4961 114.848 10.5781 114.402 9.76563C113.965 8.94531 113.348 8.27344 112.559 7.75C111.777 7.21875 110.762 6.95312 109.512 6.95312C108.27 6.95312 107.262 7.21875 106.48 7.75C105.707 8.27344 105.098 8.94531 104.652 9.76563C104.203 10.5781 103.902 11.4961 103.746 12.5156C103.59 13.5273 103.512 14.5156 103.512 15.4844C103.512 16.4648 103.59 17.4609 103.746 18.4688C103.902 19.4805 104.203 20.3984 104.652 21.2188C105.098 22.043 105.707 22.7148 106.48 23.2344C107.262 23.7578 108.27 24.0156 109.512 24.0156C110.762 24.0156 111.777 23.7578 112.559 23.2344C113.348 22.7148 113.965 22.043 114.402 21.2188C114.848 20.3984 115.152 19.4805 115.309 18.4688C115.465 17.4609 115.543 16.4648 115.543 15.4844ZM136.742 24.1563C136.656 23.8438 136.531 23.4375 136.367 22.9375C136.199 22.4375 136.008 21.9141 135.789 21.3594C135.578 20.8086 135.367 20.2578 135.148 19.7031C134.93 19.1406 134.715 18.6484 134.508 18.2188C134.246 17.6484 133.961 17.1797 133.648 16.8125C133.336 16.4375 132.961 16.1367 132.523 15.9063C132.094 15.6797 131.59 15.5234 131.008 15.4375C130.434 15.3438 129.746 15.2969 128.945 15.2969H127.883L128.414 14.4844H131.086C131.719 14.4844 132.324 14.4297 132.898 14.3125C133.48 14.1875 133.992 13.9844 134.43 13.7031C134.867 13.4141 135.215 13.0391 135.477 12.5781C135.746 12.1211 135.883 11.5469 135.883 10.8594C135.883 10.3281 135.746 9.86719 135.477 9.46875C135.215 9.0625 134.852 8.73047 134.383 8.46875C133.914 8.19922 133.367 7.99609 132.742 7.85938C132.125 7.72656 131.449 7.65625 130.711 7.65625H127.977C127.559 7.65625 127.215 7.82031 126.945 8.14063C126.684 8.46484 126.555 8.83984 126.555 9.26563V24.1563H123.117V8.98438C123.117 8.47656 123.234 7.99219 123.477 7.53125C123.727 7.0625 124.105 6.82812 124.617 6.82812H129.883C133.102 6.82812 135.492 7.15234 137.055 7.79688C138.625 8.44531 139.414 9.53125 139.414 11.0625C139.414 11.75 139.25 12.3438 138.93 12.8438C138.605 13.3438 138.164 13.7656 137.602 14.1094C137.047 14.4531 136.391 14.7188 135.633 14.9063C134.883 15.0938 134.074 15.2109 133.211 15.25V15.2969C134.012 15.4766 134.715 15.6719 135.32 15.8906C135.934 16.1094 136.477 16.4062 136.945 16.7812C137.414 17.1484 137.828 17.6016 138.195 18.1406C138.559 18.6836 138.906 19.3555 139.242 20.1562L140.883 24.1563H136.742ZM161.035 23.0156C161.035 23.5781 160.961 23.9688 160.816 24.1875C160.68 24.4063 160.496 24.5156 160.27 24.5156C160.027 24.5156 159.758 24.4141 159.457 24.2188C159.152 24.0234 158.883 23.8047 158.645 23.5625L146.004 11.6875C145.723 11.4297 145.492 11.2969 145.316 11.2969C145.18 11.2969 145.074 11.3555 145.004 11.4688C144.941 11.5742 144.91 11.6953 144.91 11.8281V24.1563H144.082V7.625C144.082 7.23047 144.176 6.9375 144.363 6.75C144.551 6.55469 144.777 6.45312 145.051 6.45312C145.352 6.45312 145.668 6.60156 146.004 6.89062L159.145 19.0938C159.32 19.2734 159.465 19.3906 159.582 19.4531C159.707 19.5078 159.805 19.5312 159.879 19.5312C160.012 19.5312 160.102 19.4766 160.145 19.3594C160.184 19.2461 160.207 19.1367 160.207 19.0312V6.82812H161.035L161.035 23.0156ZM178.633 24.1563V14.2656H176.008C175.121 14.2656 174.234 14.3359 173.352 14.4688C172.477 14.5938 171.695 14.8516 171.008 15.2344C170.32 15.6094 169.762 16.1367 169.336 16.8125C168.918 17.4922 168.711 18.3711 168.711 19.4531C168.711 20.6836 169.039 21.6367 169.695 22.3125C170.352 22.9922 171.398 23.3281 172.836 23.3281H176.867L177.305 24.1563H171.867C171 24.1563 170.152 24.0703 169.32 23.8906C168.484 23.7148 167.734 23.4297 167.07 23.0313C166.402 22.625 165.859 22.0898 165.445 21.4219C165.039 20.7578 164.836 19.9219 164.836 18.9219C164.836 18.1016 165.027 17.3906 165.414 16.7969C165.809 16.1953 166.328 15.6953 166.977 15.2969C167.621 14.8906 168.344 14.5703 169.148 14.3281C169.961 14.0781 170.777 13.8906 171.602 13.7656C172.422 13.6328 173.23 13.543 174.023 13.5C174.813 13.4492 175.496 13.4219 176.07 13.4219H178.633V12.4219C178.633 10.8281 178.242 9.54687 177.461 8.57812C176.688 7.60937 175.461 7.125 173.773 7.125C172.168 7.125 170.727 7.27734 169.445 7.57812C168.172 7.88281 167.016 8.32031 165.977 8.89062L165.742 7.98437C167.055 7.29687 168.43 6.85156 169.867 6.64062C171.313 6.43359 172.781 6.32812 174.273 6.32812C175.23 6.32812 176.172 6.42187 177.102 6.60937C178.039 6.79687 178.871 7.10937 179.602 7.54687C180.34 7.97656 180.934 8.54687 181.383 9.26562C181.84 9.97656 182.07 10.8516 182.07 11.8906V24.1563H178.633ZM215.637 15.1563C215.637 16.4922 215.371 17.7148 214.84 18.8281C214.309 19.9336 213.594 20.8828 212.699 21.6719C211.813 22.4648 210.785 23.0781 209.621 23.5156C208.453 23.9453 207.246 24.1563 205.996 24.1563H201.965L202.512 23.3281H204.668C205.688 23.3281 206.629 23.2305 207.496 23.0313C208.371 22.8242 209.121 22.4336 209.746 21.8594C210.379 21.2773 210.875 20.4531 211.23 19.3906C211.582 18.3281 211.762 16.918 211.762 15.1563C211.762 13.5625 211.574 12.25 211.199 11.2188C210.824 10.1797 210.348 9.35938 209.777 8.76563C209.215 8.16406 208.605 7.74609 207.949 7.51563C207.293 7.27734 206.699 7.15625 206.168 7.15625C205.574 7.15625 205.004 7.22656 204.465 7.35938C203.934 7.49609 203.426 7.65625 202.949 7.84375C202.469 8.03125 202.035 8.23438 201.652 8.45313C201.266 8.66406 200.926 8.85547 200.637 9.03125V30.6875H197.199V6.82812H200.637V8.125C200.906 7.96875 201.23 7.79297 201.605 7.59375C201.98 7.39844 202.418 7.20313 202.918 7.01562C203.418 6.82031 203.984 6.65625 204.621 6.53125C205.254 6.39844 205.949 6.32812 206.699 6.32812C207.813 6.32812 208.902 6.54297 209.965 6.96875C211.035 7.38672 211.988 7.98047 212.824 8.75C213.656 9.51172 214.332 10.4375 214.855 11.5313C215.375 12.6172 215.637 13.8242 215.637 15.1563ZM223.961 2.5625C223.961 3.09375 223.773 3.55859 223.398 3.95312C223.023 4.33984 222.543 4.53125 221.961 4.53125C221.43 4.53125 220.969 4.33984 220.586 3.95312C220.199 3.55859 220.008 3.09375 220.008 2.5625C220.008 2.03125 220.199 1.57031 220.586 1.17188C220.969 0.765625 221.43 0.5625 221.961 0.5625C222.543 0.5625 223.023 0.765625 223.398 1.17188C223.773 1.57031 223.961 2.03125 223.961 2.5625ZM220.273 24.1563V6.82812H223.695V24.1563H220.273ZM230.566 24.1563C230.012 24.1563 229.621 23.9023 229.395 23.3906C229.176 22.8828 229.066 22.3516 229.066 21.7969V8.98438C229.066 8.47656 229.184 7.99219 229.426 7.53125C229.676 7.0625 230.055 6.82812 230.566 6.82812H244.66V7.65625H233.926C233.508 7.65625 233.164 7.82031 232.895 8.14063C232.633 8.46484 232.504 8.83984 232.504 9.26563V14.3594H243.332V15.1875H232.504V21.5156C232.504 21.9219 232.621 22.3281 232.863 22.7344C233.102 23.1328 233.457 23.3281 233.926 23.3281H245.723V24.1563H230.566ZM255.191 24.1563H251.035C250.473 24.1563 250.082 23.9023 249.863 23.3906C249.645 22.8828 249.535 22.3516 249.535 21.7969V0H252.957V21.5156C252.957 21.9219 253.074 22.3281 253.316 22.7344C253.566 23.1328 253.926 23.3281 254.395 23.3281H255.457L255.191 24.1563ZM259.832 24.1563C259.277 24.1563 258.887 23.9023 258.66 23.3906C258.441 22.8828 258.332 22.3516 258.332 21.7969V8.98438C258.332 8.47656 258.449 7.99219 258.691 7.53125C258.941 7.0625 259.32 6.82812 259.832 6.82812H273.926V7.65625H263.191C262.773 7.65625 262.43 7.82031 262.16 8.14063C261.898 8.46484 261.77 8.83984 261.77 9.26563V14.3594H272.598V15.1875H261.77V21.5156C261.77 21.9219 261.887 22.3281 262.129 22.7344C262.367 23.1328 262.723 23.3281 263.191 23.3281H274.988V24.1563H259.832ZM269.223 28.5625C269.223 28.0938 269.379 27.6133 269.691 27.125C270.004 26.6328 270.41 26.1719 270.91 25.7344C271.41 25.3047 271.977 24.9297 272.613 24.6094C273.246 24.2852 273.898 24.0586 274.566 23.9219H274.988V24.1563C274.258 24.4258 273.668 24.7422 273.223 25.1094C272.785 25.4727 272.441 25.8359 272.191 26.2031C271.949 26.5664 271.789 26.9219 271.707 27.2656C271.633 27.6094 271.598 27.8945 271.598 28.125C271.598 28.75 271.758 29.1914 272.082 29.4531C272.402 29.7227 272.785 29.8594 273.223 29.8594C273.805 29.8594 274.355 29.7539 274.879 29.5469C275.398 29.3477 275.836 29.1406 276.191 28.9219L276.52 29.4531C275.883 29.8281 275.207 30.1797 274.488 30.5156C273.777 30.8477 273.051 31.0156 272.301 31.0156C271.477 31.0156 270.758 30.8359 270.145 30.4844C269.527 30.1289 269.223 29.4883 269.223 28.5625ZM295.484 23.1563C295.484 24.7813 295.18 26.0859 294.578 27.0781C293.984 28.0664 293.25 28.832 292.375 29.375C291.5 29.9141 290.547 30.2813 289.516 30.4688C288.492 30.6563 287.551 30.75 286.688 30.75H279.859L280.156 29.9219H287.484C287.953 29.9219 288.457 29.8594 289 29.7344C289.551 29.6172 290.047 29.2852 290.484 28.7344C290.93 28.1914 291.305 27.3594 291.609 26.2344C291.91 25.1172 292.062 23.5625 292.062 21.5625V9.0625C291.344 8.59375 290.52 8.1875 289.594 7.84375C288.676 7.5 287.664 7.32813 286.562 7.32813C285.406 7.32813 284.457 7.5625 283.719 8.03125C282.988 8.49219 282.41 9.10156 281.984 9.85938C281.566 10.6094 281.273 11.4648 281.109 12.4219C280.941 13.3828 280.859 14.3516 280.859 15.3281C280.859 17.0781 281.039 18.4805 281.406 19.5312C281.77 20.5742 282.273 21.3828 282.922 21.9531C283.566 22.5156 284.316 22.8867 285.172 23.0625C286.023 23.2422 286.953 23.3281 287.953 23.3281H290.25L290.719 24.1563H285.594C284.414 24.1563 283.301 23.9609 282.25 23.5625C281.207 23.1563 280.297 22.5859 279.516 21.8438C278.742 21.0938 278.129 20.1719 277.672 19.0781C277.223 17.9766 277 16.7266 277 15.3281C277 14.1719 277.211 13.0586 277.641 11.9844C278.078 10.9023 278.676 9.94531 279.438 9.10938C280.207 8.27734 281.113 7.60547 282.156 7.09375C283.195 6.58594 284.32 6.32812 285.531 6.32812C287.219 6.32812 288.566 6.50781 289.578 6.85938C290.586 7.21484 291.414 7.61719 292.062 8.0625V6.6875H295.484V23.1563ZM317.48 23.0156C317.48 23.5781 317.406 23.9688 317.262 24.1875C317.125 24.4063 316.941 24.5156 316.715 24.5156C316.473 24.5156 316.203 24.4141 315.902 24.2188C315.598 24.0234 315.328 23.8047 315.09 23.5625L302.449 11.6875C302.168 11.4297 301.938 11.2969 301.762 11.2969C301.625 11.2969 301.52 11.3555 301.449 11.4688C301.387 11.5742 301.356 11.6953 301.356 11.8281V24.1563H300.527V7.625C300.527 7.23047 300.621 6.9375 300.809 6.75C300.996 6.55469 301.223 6.45312 301.496 6.45312C301.797 6.45312 302.113 6.60156 302.449 6.89062L315.59 19.0938C315.766 19.2734 315.91 19.3906 316.027 19.4531C316.152 19.5078 316.25 19.5312 316.324 19.5312C316.457 19.5312 316.547 19.4766 316.59 19.3594C316.629 19.2461 316.652 19.1367 316.652 19.0312V6.82812H317.481L317.48 23.0156ZM335.074 24.1563V14.2656H332.449C331.562 14.2656 330.676 14.3359 329.793 14.4688C328.918 14.5938 328.137 14.8516 327.449 15.2344C326.762 15.6094 326.203 16.1367 325.777 16.8125C325.359 17.4922 325.152 18.3711 325.152 19.4531C325.152 20.6836 325.48 21.6367 326.137 22.3125C326.793 22.9922 327.84 23.3281 329.277 23.3281H333.309L333.746 24.1563H328.309C327.441 24.1563 326.594 24.0703 325.762 23.8906C324.926 23.7148 324.176 23.4297 323.512 23.0313C322.844 22.625 322.301 22.0898 321.887 21.4219C321.48 20.7578 321.277 19.9219 321.277 18.9219C321.277 18.1016 321.469 17.3906 321.855 16.7969C322.25 16.1953 322.77 15.6953 323.418 15.2969C324.062 14.8906 324.785 14.5703 325.59 14.3281C326.402 14.0781 327.219 13.8906 328.043 13.7656C328.863 13.6328 329.672 13.543 330.465 13.5C331.254 13.4492 331.938 13.4219 332.512 13.4219H335.074V12.4219C335.074 10.8281 334.684 9.54687 333.902 8.57812C333.129 7.60937 331.902 7.125 330.215 7.125C328.609 7.125 327.168 7.27734 325.887 7.57812C324.613 7.88281 323.457 8.32031 322.418 8.89062L322.184 7.98437C323.496 7.29687 324.871 6.85156 326.309 6.64062C327.754 6.43359 329.223 6.32812 330.715 6.32812C331.672 6.32812 332.613 6.42187 333.543 6.60937C334.48 6.79687 335.312 7.10937 336.043 7.54687C336.781 7.97656 337.375 8.54687 337.824 9.26562C338.281 9.97656 338.512 10.8516 338.512 11.8906V24.1563H335.074ZM359.641 22.0938C358.797 22.8438 357.711 23.4609 356.391 23.9375C355.078 24.4141 353.562 24.6563 351.844 24.6563C350.426 24.6563 349.113 24.4297 347.906 23.9844C346.707 23.5273 345.672 22.8906 344.797 22.0781C343.922 21.2656 343.234 20.2969 342.734 19.1719C342.234 18.0469 341.984 16.8203 341.984 15.4844C341.984 14.1523 342.234 12.9297 342.734 11.8125C343.234 10.6875 343.922 9.71875 344.797 8.90625C345.672 8.09375 346.707 7.46484 347.906 7.01562C349.113 6.55859 350.426 6.32812 351.844 6.32812C353.445 6.32812 354.879 6.53906 356.141 6.95312C357.41 7.35938 358.438 7.82813 359.219 8.35938L358.984 9.26563C358.086 8.66406 357.051 8.15625 355.875 7.75C354.695 7.33594 353.344 7.125 351.812 7.125C350.727 7.125 349.805 7.37109 349.047 7.85938C348.297 8.35156 347.68 8.99219 347.203 9.78125C346.723 10.5625 346.375 11.4531 346.156 12.4531C345.945 13.4531 345.844 14.4648 345.844 15.4844C345.844 16.9961 346.031 18.2773 346.406 19.3281C346.789 20.3711 347.285 21.2188 347.891 21.875C348.504 22.5313 349.191 23.0117 349.953 23.3125C350.723 23.6055 351.5 23.75 352.281 23.75C353.707 23.75 355.016 23.5313 356.203 23.0938C357.391 22.6484 358.438 22.0313 359.344 21.25L359.641 22.0938ZM367.441 2.5625C367.441 3.09375 367.254 3.55859 366.879 3.95312C366.504 4.33984 366.023 4.53125 365.441 4.53125C364.91 4.53125 364.445 4.33984 364.051 3.95312C363.664 3.55859 363.473 3.09375 363.473 2.5625C363.473 2.03125 363.664 1.57031 364.051 1.17188C364.445 0.765625 364.91 0.5625 365.441 0.5625C366.023 0.5625 366.504 0.765625 366.879 1.17188C367.254 1.57031 367.441 2.03125 367.441 2.5625ZM367.176 23.1563C367.176 24.7813 366.855 26.0859 366.223 27.0781C365.586 28.0664 364.824 28.832 363.941 29.375C363.055 29.9141 362.129 30.2813 361.16 30.4688C360.191 30.6563 359.375 30.75 358.707 30.75H357.676L357.941 30.0938H358.848C359.223 30.0938 359.699 30.0352 360.27 29.9219C360.832 29.8047 361.367 29.4727 361.879 28.9219C362.387 28.3672 362.824 27.5195 363.191 26.375C363.555 25.2266 363.738 23.625 363.738 21.5625V6.82812H367.176V23.1563ZM385.301 24.1563V14.2656H382.676C381.789 14.2656 380.902 14.3359 380.02 14.4688C379.145 14.5938 378.363 14.8516 377.676 15.2344C376.988 15.6094 376.43 16.1367 376.004 16.8125C375.586 17.4922 375.379 18.3711 375.379 19.4531C375.379 20.6836 375.707 21.6367 376.363 22.3125C377.02 22.9922 378.066 23.3281 379.504 23.3281H383.535L383.973 24.1563H378.535C377.668 24.1563 376.82 24.0703 375.988 23.8906C375.152 23.7148 374.402 23.4297 373.738 23.0313C373.07 22.625 372.527 22.0898 372.113 21.4219C371.707 20.7578 371.504 19.9219 371.504 18.9219C371.504 18.1016 371.695 17.3906 372.082 16.7969C372.477 16.1953 372.996 15.6953 373.645 15.2969C374.289 14.8906 375.012 14.5703 375.816 14.3281C376.629 14.0781 377.445 13.8906 378.27 13.7656C379.09 13.6328 379.898 13.543 380.691 13.5C381.48 13.4492 382.164 13.4219 382.738 13.4219H385.301V12.4219C385.301 10.8281 384.91 9.54687 384.129 8.57812C383.355 7.60937 382.129 7.125 380.441 7.125C378.836 7.125 377.395 7.27734 376.113 7.57812C374.84 7.88281 373.684 8.32031 372.645 8.89062L372.41 7.98437C373.723 7.29687 375.098 6.85156 376.535 6.64062C377.98 6.43359 379.449 6.32812 380.941 6.32812C381.898 6.32812 382.84 6.42187 383.77 6.60937C384.707 6.79687 385.539 7.10937 386.27 7.54687C387.008 7.97656 387.602 8.54687 388.051 9.26562C388.508 9.97656 388.738 10.8516 388.738 11.8906V24.1563H385.301ZM418.867 7.26563C418.867 7.44531 418.766 7.6875 418.57 8C418.371 8.30469 418.07 8.72656 417.664 9.26563L407.711 22.2969C407.461 22.6016 407.336 22.8281 407.336 22.9844C407.336 23.1641 407.418 23.2656 407.586 23.2969C407.75 23.3203 407.922 23.3281 408.102 23.3281H418.398V24.1563H404.133C403.758 24.1563 403.434 24.1367 403.164 24.0938C402.902 24.043 402.773 23.8984 402.773 23.6563C402.773 23.4805 402.859 23.2305 403.039 22.9063C403.215 22.5859 403.516 22.1563 403.945 21.625L413.836 8.89063C413.969 8.71484 414.094 8.54297 414.211 8.375C414.336 8.21094 414.398 8.05859 414.398 7.92188C414.398 7.74609 414.211 7.65625 413.836 7.65625H404.336V6.82812H417.398C417.867 6.82812 418.227 6.85156 418.477 6.89062C418.734 6.9336 418.867 7.05859 418.867 7.26563ZM454.73 18.4844C454.73 19.7578 454.359 20.7734 453.621 21.5313C452.891 22.2813 452.012 22.8555 450.98 23.25C449.949 23.6367 448.863 23.8867 447.73 24C446.594 24.1055 445.613 24.1563 444.793 24.1563H433.668V5.32812C433.668 5.05859 433.691 4.77734 433.746 4.48438C433.809 4.18359 433.895 3.91406 434.012 3.67188C434.137 3.42188 434.297 3.21875 434.496 3.0625C434.691 2.90625 434.937 2.82812 435.23 2.82812H443.996C444.797 2.82812 445.699 2.89844 446.699 3.03125C447.699 3.15625 448.645 3.39844 449.543 3.75C450.449 4.09375 451.203 4.57812 451.809 5.20312C452.422 5.82031 452.73 6.61719 452.73 7.59375C452.73 8.52344 452.496 9.29297 452.027 9.90625C451.559 10.5234 450.965 11.0117 450.246 11.375C449.527 11.7422 448.75 12.0078 447.918 12.1719C447.082 12.3398 446.297 12.4609 445.559 12.5313V12.5938C446.473 12.6172 447.465 12.7266 448.527 12.9219C449.598 13.1211 450.59 13.4453 451.496 13.8906C452.41 14.3398 453.176 14.9453 453.793 15.7031C454.418 16.4531 454.73 17.3828 454.73 18.4844ZM450.262 18.125C450.262 17.125 450.016 16.2969 449.527 15.6406C449.035 14.9844 448.434 14.4688 447.715 14.0938C446.996 13.7188 446.23 13.4531 445.418 13.2969C444.605 13.1406 443.875 13.0625 443.23 13.0625H438.871L439.262 12.2188H441.668C444.02 12.2188 445.75 11.8203 446.855 11.0156C447.969 10.2031 448.527 9.10547 448.527 7.71875C448.527 6.52344 448.051 5.54688 447.105 4.79688C446.168 4.03906 444.797 3.65625 442.996 3.65625H438.84C438.391 3.65625 438.059 3.87109 437.84 4.29688C437.629 4.71484 437.527 5.14844 437.527 5.59375V23.3281H444.559C446.297 23.3281 447.684 22.918 448.715 22.0938C449.746 21.2734 450.262 19.9492 450.262 18.125ZM471.355 24.1563V14.2656H468.73C467.844 14.2656 466.957 14.3359 466.074 14.4688C465.199 14.5938 464.418 14.8516 463.73 15.2344C463.043 15.6094 462.484 16.1367 462.059 16.8125C461.641 17.4922 461.434 18.3711 461.434 19.4531C461.434 20.6836 461.762 21.6367 462.418 22.3125C463.074 22.9922 464.121 23.3281 465.559 23.3281H469.59L470.027 24.1563H464.59C463.723 24.1563 462.875 24.0703 462.043 23.8906C461.207 23.7148 460.457 23.4297 459.793 23.0313C459.125 22.625 458.582 22.0898 458.168 21.4219C457.762 20.7578 457.559 19.9219 457.559 18.9219C457.559 18.1016 457.75 17.3906 458.137 16.7969C458.531 16.1953 459.051 15.6953 459.699 15.2969C460.344 14.8906 461.066 14.5703 461.871 14.3281C462.684 14.0781 463.5 13.8906 464.324 13.7656C465.145 13.6328 465.953 13.543 466.746 13.5C467.535 13.4492 468.219 13.4219 468.793 13.4219H471.355V12.4219C471.355 10.8281 470.965 9.54687 470.184 8.57812C469.41 7.60937 468.184 7.125 466.496 7.125C464.891 7.125 463.449 7.27734 462.168 7.57812C460.895 7.88281 459.738 8.32031 458.699 8.89062L458.465 7.98437C459.777 7.29687 461.152 6.85156 462.59 6.64062C464.035 6.43359 465.504 6.32812 466.996 6.32812C467.953 6.32812 468.895 6.42187 469.824 6.60937C470.762 6.79687 471.594 7.10937 472.324 7.54687C473.062 7.97656 473.656 8.54687 474.105 9.26562C474.562 9.97656 474.793 10.8516 474.793 11.8906V24.1563H471.355ZM494.824 18.75C494.824 19.9609 494.516 20.9453 493.902 21.7031C493.297 22.4531 492.527 23.0547 491.59 23.5C490.66 23.9375 489.652 24.2383 488.559 24.4063C487.465 24.5703 486.453 24.6563 485.527 24.6563C484.191 24.6563 482.863 24.5469 481.543 24.3281C480.219 24.1211 478.926 23.7891 477.668 23.3281L477.887 22.3906C478.406 22.6094 478.98 22.8086 479.605 22.9844C480.238 23.1641 480.906 23.3125 481.605 23.4375C482.301 23.5625 483.004 23.6641 483.715 23.7344C484.434 23.7969 485.105 23.8281 485.73 23.8281C486.375 23.8281 487.035 23.7734 487.715 23.6563C488.391 23.543 489.012 23.3516 489.574 23.0781C490.137 22.7969 490.594 22.4063 490.949 21.9063C491.312 21.4063 491.496 20.7812 491.496 20.0312C491.496 19.3867 491.371 18.875 491.121 18.5C490.879 18.1172 490.512 17.8125 490.012 17.5938C489.512 17.3672 488.891 17.2031 488.152 17.1094C487.422 17.0078 486.566 16.9141 485.59 16.8281C484.859 16.7578 484.09 16.6367 483.277 16.4688C482.465 16.3047 481.719 16.0391 481.043 15.6719C480.363 15.3086 479.809 14.8281 479.371 14.2344C478.941 13.6328 478.73 12.8594 478.73 11.9219C478.73 10.7656 479.016 9.82813 479.59 9.10938C480.172 8.39063 480.895 7.82813 481.762 7.42188C482.625 7.00781 483.566 6.71875 484.59 6.5625C485.609 6.40625 486.578 6.32812 487.496 6.32812C488.473 6.32812 489.52 6.44922 490.637 6.6875C491.762 6.91797 492.777 7.21875 493.684 7.59375L493.418 8.48438C492.574 8.08984 491.598 7.77344 490.496 7.53125C489.402 7.28125 488.207 7.15625 486.918 7.15625C486.281 7.15625 485.668 7.21875 485.074 7.34375C484.488 7.46875 483.973 7.68359 483.527 7.98438C483.078 8.27734 482.719 8.66797 482.449 9.15625C482.188 9.64844 482.059 10.2461 482.059 10.9531C482.059 11.5391 482.223 12.0156 482.559 12.3906C482.891 12.7656 483.332 13.0703 483.887 13.2969C484.449 13.5156 485.09 13.6836 485.809 13.7969C486.527 13.9023 487.266 13.9805 488.027 14.0313C490.379 14.1875 492.098 14.6172 493.184 15.3125C494.277 16.0117 494.824 17.1562 494.824 18.75ZM502.781 2.5625C502.781 3.09375 502.594 3.55859 502.219 3.95312C501.844 4.33984 501.363 4.53125 500.781 4.53125C500.25 4.53125 499.789 4.33984 499.406 3.95312C499.02 3.55859 498.828 3.09375 498.828 2.5625C498.828 2.03125 499.02 1.57031 499.406 1.17188C499.789 0.765625 500.25 0.5625 500.781 0.5625C501.363 0.5625 501.844 0.765625 502.219 1.17188C502.594 1.57031 502.781 2.03125 502.781 2.5625ZM499.094 24.1563V6.82812H502.516V24.1563H499.094ZM524.312 22.0938C523.469 22.8438 522.383 23.4609 521.062 23.9375C519.75 24.4141 518.234 24.6563 516.516 24.6563C515.098 24.6563 513.785 24.4297 512.578 23.9844C511.379 23.5273 510.344 22.8906 509.469 22.0781C508.594 21.2656 507.906 20.2969 507.406 19.1719C506.906 18.0469 506.656 16.8203 506.656 15.4844C506.656 14.1523 506.906 12.9297 507.406 11.8125C507.906 10.6875 508.594 9.71875 509.469 8.90625C510.344 8.09375 511.379 7.46484 512.578 7.01562C513.785 6.55859 515.098 6.32812 516.516 6.32812C518.117 6.32812 519.551 6.53906 520.812 6.95312C522.082 7.35938 523.109 7.82813 523.891 8.35938L523.656 9.26563C522.758 8.66406 521.723 8.15625 520.547 7.75C519.367 7.33594 518.016 7.125 516.484 7.125C515.398 7.125 514.477 7.37109 513.719 7.85938C512.969 8.35156 512.352 8.99219 511.875 9.78125C511.395 10.5625 511.047 11.4531 510.828 12.4531C510.617 13.4531 510.516 14.4648 510.516 15.4844C510.516 16.9961 510.703 18.2773 511.078 19.3281C511.461 20.3711 511.957 21.2188 512.562 21.875C513.176 22.5313 513.863 23.0117 514.625 23.3125C515.395 23.6055 516.172 23.75 516.953 23.75C518.379 23.75 519.688 23.5313 520.875 23.0938C522.062 22.6484 523.109 22.0313 524.016 21.25L524.312 22.0938ZM540.82 24.1563C540.527 24.1563 540.281 24.0781 540.086 23.9219C539.887 23.7656 539.727 23.5703 539.602 23.3281C539.477 23.0781 539.387 22.8086 539.336 22.5156C539.281 22.2148 539.258 21.9297 539.258 21.6563V2.82812H543.117V21.3906C543.117 21.8398 543.219 22.2773 543.43 22.7031C543.637 23.1211 543.965 23.3281 544.414 23.3281H557.148V24.1563H540.82ZM573.203 24.1563V14.2656H570.578C569.691 14.2656 568.805 14.3359 567.922 14.4688C567.047 14.5938 566.266 14.8516 565.578 15.2344C564.891 15.6094 564.332 16.1367 563.906 16.8125C563.488 17.4922 563.281 18.3711 563.281 19.4531C563.281 20.6836 563.609 21.6367 564.266 22.3125C564.922 22.9922 565.969 23.3281 567.406 23.3281H571.438L571.875 24.1563H566.438C565.57 24.1563 564.723 24.0703 563.891 23.8906C563.055 23.7148 562.305 23.4297 561.641 23.0313C560.973 22.625 560.43 22.0898 560.016 21.4219C559.609 20.7578 559.406 19.9219 559.406 18.9219C559.406 18.1016 559.598 17.3906 559.984 16.7969C560.379 16.1953 560.898 15.6953 561.547 15.2969C562.191 14.8906 562.914 14.5703 563.719 14.3281C564.531 14.0781 565.348 13.8906 566.172 13.7656C566.992 13.6328 567.801 13.543 568.594 13.5C569.383 13.4492 570.066 13.4219 570.641 13.4219H573.203V12.4219C573.203 10.8281 572.812 9.54687 572.031 8.57812C571.258 7.60937 570.031 7.125 568.344 7.125C566.738 7.125 565.297 7.27734 564.016 7.57812C562.742 7.88281 561.586 8.32031 560.547 8.89062L560.312 7.98437C561.625 7.29687 563 6.85156 564.438 6.64062C565.883 6.43359 567.352 6.32812 568.844 6.32812C569.801 6.32812 570.742 6.42187 571.672 6.60937C572.609 6.79687 573.441 7.10937 574.172 7.54687C574.91 7.97656 575.504 8.54687 575.953 9.26562C576.41 9.97656 576.641 10.8516 576.641 11.8906V24.1563H573.203ZM599.91 15.3281C599.91 16.4844 599.664 17.5938 599.176 18.6562C598.684 19.7188 598.02 20.6563 597.176 21.4688C596.332 22.2813 595.34 22.9336 594.207 23.4219C593.07 23.9141 591.871 24.1563 590.613 24.1563H586.004L586.473 23.3281H588.91C589.793 23.3281 590.664 23.2188 591.52 23C592.383 22.7734 593.148 22.3672 593.816 21.7813C594.48 21.1875 595.02 20.3711 595.426 19.3281C595.832 18.2773 596.035 16.9453 596.035 15.3281C596.035 13.6211 595.836 12.2461 595.441 11.2031C595.043 10.1523 594.551 9.33594 593.957 8.75C593.371 8.15625 592.742 7.76172 592.066 7.5625C591.387 7.36719 590.777 7.26563 590.238 7.26563C589.039 7.26563 587.996 7.49219 587.113 7.9375C586.227 8.375 585.414 8.87109 584.676 9.42188V24.1563H581.238V0H584.676V8.35938C584.988 8.10938 585.324 7.86719 585.691 7.625C586.055 7.38672 586.492 7.17188 587.004 6.98438C587.523 6.78906 588.129 6.63281 588.816 6.51562C589.504 6.39062 590.32 6.32812 591.27 6.32812C592.227 6.32812 593.211 6.53906 594.223 6.95312C595.23 7.35938 596.16 7.94922 597.004 8.71875C597.848 9.48047 598.539 10.4219 599.082 11.5469C599.633 12.6641 599.91 13.9219 599.91 15.3281Z" fill="#665F20"/>
<path d="M36.6875 48.6875C36.6875 51.918 35.9219 54.25 34.3906 55.6875C32.8594 57.1172 30.4844 57.8281 27.2656 57.8281C25.9922 57.8281 24.7383 57.7383 23.5 57.5625C22.2695 57.3828 21.1719 57.0391 20.2031 56.5156C19.2422 55.9844 18.4609 55.2578 17.8594 54.3281C17.2656 53.3906 16.9688 52.168 16.9688 50.6562V35.8281H20.8281V50.625C20.8281 51.668 21.0039 52.5859 21.3594 53.375C21.7109 54.168 22.207 54.8281 22.8438 55.3594C23.4766 55.8906 24.2266 56.2969 25.0938 56.5781C25.957 56.8516 26.8984 56.9844 27.9219 56.9844C30.7031 56.9844 32.7188 56.3281 33.9688 55.0156C35.2266 53.6953 35.8594 51.5938 35.8594 48.7188V35.8281H36.6875V48.6875ZM63.6797 54.8594C63.1055 55.3711 62.4336 55.8125 61.6641 56.1875C60.9023 56.5625 60.0859 56.875 59.2109 57.125C58.3438 57.3633 57.4375 57.5391 56.4922 57.6562C55.5547 57.7695 54.6211 57.8281 53.6953 57.8281C52.1328 57.8281 50.6016 57.5938 49.1016 57.125C47.6016 56.6562 46.2578 55.9609 45.0703 55.0312C43.8828 54.0938 42.918 52.918 42.1797 51.5C41.4492 50.0742 41.0859 48.4023 41.0859 46.4844C41.0859 44.7773 41.4336 43.2266 42.1328 41.8281C42.8398 40.4219 43.7891 39.2305 44.9766 38.25C46.1641 37.2617 47.5312 36.5 49.0859 35.9688C50.6484 35.4297 52.293 35.1562 54.0234 35.1562C56.043 35.1562 57.7461 35.3516 59.1328 35.7344C60.5273 36.1094 61.6094 36.5156 62.3828 36.9531L62.0859 37.7656C61.3047 37.2578 60.293 36.8359 59.0547 36.5C57.8125 36.168 56.3125 36 54.5547 36C53 36 51.6562 36.3203 50.5234 36.9531C49.3867 37.5781 48.4492 38.4062 47.7109 39.4375C46.9805 40.4688 46.4375 41.6484 46.0859 42.9688C45.7305 44.293 45.5547 45.6484 45.5547 47.0312C45.5547 48.3672 45.75 49.6328 46.1484 50.8281C46.5547 52.0273 47.1172 53.0898 47.8359 54.0156C48.5625 54.9336 49.4297 55.6562 50.4297 56.1875C51.4297 56.7188 52.5156 56.9844 53.6953 56.9844C55.9766 56.9844 57.5625 56.5703 58.4609 55.7344C59.3672 54.9023 59.8203 53.6211 59.8203 51.8906V46.3281H63.6797V54.8594ZM90.3164 54.7969C88.918 55.9219 87.3398 56.7109 85.582 57.1562C83.832 57.6016 82.0547 57.8281 80.2539 57.8281C78.6289 57.8281 77.0547 57.5938 75.5352 57.125C74.0117 56.6562 72.668 55.9609 71.5039 55.0312C70.3359 54.0938 69.4023 52.918 68.707 51.5C68.0078 50.0742 67.6602 48.4023 67.6602 46.4844C67.6602 44.7773 68.0078 43.2266 68.707 41.8281C69.4023 40.4219 70.3359 39.2305 71.5039 38.25C72.668 37.2617 74.0117 36.5 75.5352 35.9688C77.0547 35.4297 78.6289 35.1562 80.2539 35.1562C81.0352 35.1562 81.8359 35.2109 82.6602 35.3125C83.4922 35.4062 84.3242 35.5625 85.1602 35.7812C85.9922 35.9922 86.8047 36.25 87.5977 36.5625C88.3867 36.875 89.1289 37.25 89.8164 37.6875L89.5195 38.6562C88.2461 37.8125 86.7852 37.1641 85.1289 36.7031C83.4727 36.2344 81.8477 36 80.2539 36C78.7422 36 77.4609 36.3203 76.4102 36.9531C75.3672 37.5781 74.5273 38.3906 73.8945 39.3906C73.2695 40.3906 72.8164 41.5156 72.5352 42.7656C72.2539 44.0078 72.1133 45.2461 72.1133 46.4844C72.1133 47.7344 72.2734 48.9844 72.5977 50.2344C72.918 51.4766 73.4453 52.5938 74.1758 53.5938C74.9141 54.5938 75.8867 55.4141 77.0977 56.0469C78.3164 56.6719 79.8086 56.9844 81.582 56.9844C82.1133 56.9844 82.7383 56.9219 83.457 56.7969C84.1836 56.6641 84.9336 56.4688 85.707 56.2188C86.4883 55.9609 87.2539 55.6367 88.0039 55.25C88.7617 54.8555 89.4453 54.4141 90.0508 53.9219L90.3164 54.7969ZM116.41 47.625V57.1562H112.551V48.1562L103.176 35.8281H107.582L115.816 46.7656L123.941 35.8281H125.285L116.41 47.625ZM147.41 48.4844C147.41 49.8203 147.16 51.0469 146.66 52.1719C146.16 53.2969 145.465 54.2656 144.582 55.0781C143.707 55.8906 142.664 56.5273 141.457 56.9844C140.246 57.4297 138.93 57.6562 137.504 57.6562C136.086 57.6562 134.773 57.4297 133.566 56.9844C132.367 56.5273 131.332 55.8906 130.457 55.0781C129.582 54.2656 128.895 53.2969 128.395 52.1719C127.895 51.0469 127.645 49.8203 127.645 48.4844C127.645 47.1523 127.895 45.9297 128.395 44.8125C128.895 43.6875 129.582 42.7188 130.457 41.9062C131.332 41.0938 132.367 40.4648 133.566 40.0156C134.773 39.5586 136.086 39.3281 137.504 39.3281C138.93 39.3281 140.246 39.5586 141.457 40.0156C142.664 40.4648 143.707 41.0938 144.582 41.9062C145.465 42.7188 146.16 43.6875 146.66 44.8125C147.16 45.9297 147.41 47.1523 147.41 48.4844ZM143.535 48.4844C143.535 47.5156 143.457 46.5273 143.301 45.5156C143.145 44.4961 142.84 43.5781 142.395 42.7656C141.957 41.9453 141.34 41.2734 140.551 40.75C139.77 40.2188 138.754 39.9531 137.504 39.9531C136.262 39.9531 135.254 40.2188 134.473 40.75C133.699 41.2734 133.09 41.9453 132.645 42.7656C132.195 43.5781 131.895 44.4961 131.738 45.5156C131.582 46.5273 131.504 47.5156 131.504 48.4844C131.504 49.4648 131.582 50.4609 131.738 51.4688C131.895 52.4805 132.195 53.3984 132.645 54.2188C133.09 55.043 133.699 55.7148 134.473 56.2344C135.254 56.7578 136.262 57.0156 137.504 57.0156C138.754 57.0156 139.77 56.7578 140.551 56.2344C141.34 55.7148 141.957 55.043 142.395 54.2188C142.84 53.3984 143.145 52.4805 143.301 51.4688C143.457 50.4609 143.535 49.4648 143.535 48.4844ZM165.031 57.1562V39.8281H168.469V57.1562H165.031ZM158 57.1562C156.875 57.1562 155.863 57.043 154.969 56.8125C154.082 56.5742 153.336 56.1797 152.734 55.625C152.141 55.0742 151.688 54.3398 151.375 53.4219C151.063 52.4961 150.906 51.3398 150.906 49.9531V39.8281H154.344V49.9844C154.344 50.7891 154.43 51.5703 154.609 52.3281C154.785 53.0781 155.066 53.75 155.453 54.3438C155.848 54.9297 156.352 55.4062 156.969 55.7812C157.594 56.1484 158.348 56.3281 159.234 56.3281H163.234L163.703 57.1562H158ZM183.332 36.6562V57.1562H179.473V36.6562H170.91V35.8281H191.895V36.6562H183.332ZM208.957 57.1562V39.8281H212.395V57.1562H208.957ZM201.926 57.1562C200.801 57.1562 199.789 57.043 198.895 56.8125C198.008 56.5742 197.262 56.1797 196.66 55.625C196.066 55.0742 195.613 54.3398 195.301 53.4219C194.988 52.4961 194.832 51.3398 194.832 49.9531V39.8281H198.27V49.9844C198.27 50.7891 198.355 51.5703 198.535 52.3281C198.711 53.0781 198.992 53.75 199.379 54.3438C199.773 54.9297 200.277 55.4062 200.895 55.7812C201.52 56.1484 202.273 56.3281 203.16 56.3281H207.16L207.629 57.1562H201.926ZM235.195 48.3281C235.195 49.4844 234.949 50.5938 234.461 51.6562C233.969 52.7188 233.305 53.6562 232.461 54.4688C231.617 55.2812 230.625 55.9336 229.492 56.4219C228.355 56.9141 227.156 57.1562 225.898 57.1562H221.289L221.758 56.3281H224.195C225.078 56.3281 225.949 56.2188 226.805 56C227.668 55.7734 228.434 55.3672 229.102 54.7812C229.766 54.1875 230.305 53.3711 230.711 52.3281C231.117 51.2773 231.32 49.9453 231.32 48.3281C231.32 46.6211 231.121 45.2461 230.727 44.2031C230.328 43.1523 229.836 42.3359 229.242 41.75C228.656 41.1562 228.027 40.7617 227.352 40.5625C226.672 40.3672 226.063 40.2656 225.523 40.2656C224.324 40.2656 223.281 40.4922 222.398 40.9375C221.512 41.375 220.699 41.8711 219.961 42.4219V57.1562H216.523V33H219.961V41.3594C220.273 41.1094 220.609 40.8672 220.977 40.625C221.34 40.3867 221.777 40.1719 222.289 39.9844C222.809 39.7891 223.414 39.6328 224.102 39.5156C224.789 39.3906 225.605 39.3281 226.555 39.3281C227.512 39.3281 228.496 39.5391 229.508 39.9531C230.516 40.3594 231.445 40.9492 232.289 41.7188C233.133 42.4805 233.824 43.4219 234.367 44.5469C234.918 45.6641 235.195 46.9219 235.195 48.3281ZM240.363 57.1562C239.809 57.1562 239.418 56.9023 239.191 56.3906C238.973 55.8828 238.863 55.3516 238.863 54.7969V41.9844C238.863 41.4766 238.98 40.9922 239.223 40.5312C239.473 40.0625 239.852 39.8281 240.363 39.8281H254.457V40.6562H243.723C243.305 40.6562 242.961 40.8203 242.691 41.1406C242.43 41.4648 242.301 41.8398 242.301 42.2656V47.3594H253.129V48.1875H242.301V54.5156C242.301 54.9219 242.418 55.3281 242.66 55.7344C242.898 56.1328 243.254 56.3281 243.723 56.3281H255.52V57.1562H240.363ZM268.484 57.8281H266.453L275.156 35.1562H277.188L268.484 57.8281ZM308.516 50.1875C308.516 51.6562 308.176 52.8828 307.5 53.8594C306.82 54.8398 305.945 55.625 304.875 56.2188C303.812 56.8047 302.633 57.2109 301.344 57.4531C300.062 57.7031 298.816 57.8281 297.609 57.8281C296.785 57.8281 295.945 57.7734 295.094 57.6719C294.238 57.5664 293.422 57.4414 292.641 57.2969C291.867 57.1602 291.156 56.9961 290.5 56.7969C289.844 56.5898 289.281 56.3867 288.812 56.1875L288.984 55.25C289.473 55.4609 290.07 55.668 290.781 55.875C291.488 56.0859 292.227 56.2734 293 56.4375C293.77 56.6055 294.535 56.7422 295.297 56.8438C296.066 56.9375 296.758 56.9844 297.375 56.9844C298.176 56.9844 299.016 56.9219 299.891 56.7969C300.773 56.6641 301.578 56.418 302.297 56.0625C303.016 55.6992 303.609 55.1992 304.078 54.5625C304.547 53.918 304.781 53.0938 304.781 52.0938C304.781 51.1562 304.57 50.4336 304.156 49.9219C303.75 49.4141 303.227 49.0312 302.594 48.7812C301.957 48.5234 301.258 48.3438 300.5 48.25C299.75 48.1484 299.031 48.0469 298.344 47.9531C297.457 47.8203 296.469 47.6523 295.375 47.4531C294.289 47.2578 293.273 46.9492 292.328 46.5312C291.391 46.1055 290.598 45.5312 289.953 44.8125C289.305 44.0859 288.984 43.1328 288.984 41.9531C288.984 40.5781 289.285 39.4531 289.891 38.5781C290.504 37.7031 291.289 37.0156 292.25 36.5156C293.207 36.0156 294.273 35.668 295.453 35.4688C296.629 35.2617 297.785 35.1562 298.922 35.1562C300.297 35.1562 301.633 35.2461 302.938 35.4219C304.25 35.6016 305.551 35.9141 306.844 36.3594L306.547 37.2656C305.547 36.8594 304.379 36.5469 303.047 36.3281C301.711 36.1094 300.348 36 298.953 36C298.285 36 297.582 36.0547 296.844 36.1562C296.113 36.25 295.441 36.4375 294.828 36.7188C294.223 36.9922 293.719 37.3867 293.312 37.9062C292.914 38.4297 292.719 39.1094 292.719 39.9531C292.719 40.9531 292.941 41.7305 293.391 42.2812C293.848 42.8242 294.477 43.2344 295.281 43.5156C296.082 43.7891 297.023 43.9844 298.109 44.1094C299.203 44.2344 300.379 44.3867 301.641 44.5625C303.129 44.7617 304.32 45.0703 305.219 45.4844C306.125 45.8906 306.82 46.3555 307.312 46.875C307.801 47.3984 308.125 47.9492 308.281 48.5312C308.438 49.1055 308.516 49.6562 308.516 50.1875ZM326.082 57.1562L322.91 51.8906C322.73 51.6016 322.508 51.2188 322.238 50.75C321.977 50.2734 321.68 49.8047 321.348 49.3438C321.012 48.8867 320.637 48.4922 320.223 48.1562C319.816 47.8242 319.387 47.6562 318.941 47.6562C318.68 47.6562 318.441 47.7422 318.223 47.9062C318.012 48.0742 317.777 48.3125 317.52 48.625V47.3906L326.785 39.8281H328.113L319.52 46.7969V46.8594C319.676 46.8398 319.816 46.8281 319.941 46.8281C320.074 46.8281 320.211 46.8281 320.348 46.8281C321.348 46.8281 322.18 46.9766 322.848 47.2656C323.512 47.5469 324.102 47.9375 324.613 48.4375C325.121 48.9375 325.586 49.5117 326.004 50.1562C326.43 50.8047 326.887 51.4922 327.379 52.2188L330.645 57.1562H326.082ZM312.754 57.1562V33H316.176V57.1562H312.754ZM338.168 35.5625C338.168 36.0938 337.98 36.5586 337.605 36.9531C337.23 37.3398 336.75 37.5312 336.168 37.5312C335.637 37.5312 335.176 37.3398 334.793 36.9531C334.406 36.5586 334.215 36.0938 334.215 35.5625C334.215 35.0312 334.406 34.5703 334.793 34.1719C335.176 33.7656 335.637 33.5625 336.168 33.5625C336.75 33.5625 337.23 33.7656 337.605 34.1719C337.98 34.5703 338.168 35.0312 338.168 35.5625ZM334.48 57.1562V39.8281H337.902V57.1562H334.48ZM360.199 56.0156C360.199 56.5781 360.125 56.9688 359.98 57.1875C359.844 57.4062 359.66 57.5156 359.434 57.5156C359.191 57.5156 358.922 57.4141 358.621 57.2188C358.316 57.0234 358.047 56.8047 357.809 56.5625L345.168 44.6875C344.887 44.4297 344.656 44.2969 344.48 44.2969C344.344 44.2969 344.238 44.3555 344.168 44.4688C344.105 44.5742 344.074 44.6953 344.074 44.8281V57.1562H343.246V40.625C343.246 40.2305 343.34 39.9375 343.527 39.75C343.715 39.5547 343.941 39.4531 344.215 39.4531C344.516 39.4531 344.832 39.6016 345.168 39.8906L358.309 52.0938C358.484 52.2734 358.629 52.3906 358.746 52.4531C358.871 52.5078 358.969 52.5312 359.043 52.5312C359.176 52.5312 359.266 52.4766 359.309 52.3594C359.348 52.2461 359.371 52.1367 359.371 52.0312V39.8281H360.199L360.199 56.0156ZM381.297 55.0938C380.453 55.8438 379.367 56.4609 378.047 56.9375C376.734 57.4141 375.219 57.6562 373.5 57.6562C372.082 57.6562 370.77 57.4297 369.562 56.9844C368.363 56.5273 367.328 55.8906 366.453 55.0781C365.578 54.2656 364.891 53.2969 364.391 52.1719C363.891 51.0469 363.641 49.8203 363.641 48.4844C363.641 47.1523 363.891 45.9297 364.391 44.8125C364.891 43.6875 365.578 42.7188 366.453 41.9062C367.328 41.0938 368.363 40.4648 369.562 40.0156C370.77 39.5586 372.082 39.3281 373.5 39.3281C375.102 39.3281 376.535 39.5391 377.797 39.9531C379.066 40.3594 380.094 40.8281 380.875 41.3594L380.641 42.2656C379.742 41.6641 378.707 41.1562 377.531 40.75C376.352 40.3359 375 40.125 373.469 40.125C372.383 40.125 371.461 40.3711 370.703 40.8594C369.953 41.3516 369.336 41.9922 368.859 42.7812C368.379 43.5625 368.031 44.4531 367.812 45.4531C367.602 46.4531 367.5 47.4648 367.5 48.4844C367.5 49.9961 367.688 51.2773 368.062 52.3281C368.445 53.3711 368.941 54.2188 369.547 54.875C370.16 55.5312 370.848 56.0117 371.609 56.3125C372.379 56.6055 373.156 56.75 373.938 56.75C375.363 56.75 376.672 56.5312 377.859 56.0938C379.047 55.6484 380.094 55.0312 381 54.25L381.297 55.0938ZM397.695 57.1562V47.2656H395.07C394.184 47.2656 393.297 47.3359 392.414 47.4688C391.539 47.5938 390.758 47.8516 390.07 48.2344C389.383 48.6094 388.824 49.1367 388.398 49.8125C387.98 50.4922 387.773 51.3711 387.773 52.4531C387.773 53.6836 388.102 54.6367 388.758 55.3125C389.414 55.9922 390.461 56.3281 391.898 56.3281H395.93L396.367 57.1562H390.93C390.062 57.1562 389.215 57.0703 388.383 56.8906C387.547 56.7148 386.797 56.4297 386.133 56.0312C385.465 55.625 384.922 55.0898 384.508 54.4219C384.102 53.7578 383.898 52.9219 383.898 51.9219C383.898 51.1016 384.09 50.3906 384.477 49.7969C384.871 49.1953 385.391 48.6953 386.039 48.2969C386.684 47.8906 387.406 47.5703 388.211 47.3281C389.023 47.0781 389.84 46.8906 390.664 46.7656C391.484 46.6328 392.293 46.543 393.086 46.5C393.875 46.4492 394.559 46.4219 395.133 46.4219H397.695V45.4219C397.695 43.8281 397.305 42.5469 396.523 41.5781C395.75 40.6094 394.523 40.125 392.836 40.125C391.23 40.125 389.789 40.2773 388.508 40.5781C387.234 40.8828 386.078 41.3203 385.039 41.8906L384.805 40.9844C386.117 40.2969 387.492 39.8516 388.93 39.6406C390.375 39.4336 391.844 39.3281 393.336 39.3281C394.293 39.3281 395.234 39.4219 396.164 39.6094C397.102 39.7969 397.934 40.1094 398.664 40.5469C399.402 40.9766 399.996 41.5469 400.445 42.2656C400.902 42.9766 401.133 43.8516 401.133 44.8906V57.1562H397.695ZM419.461 57.1562C419.375 56.8438 419.25 56.4375 419.086 55.9375C418.918 55.4375 418.727 54.9141 418.508 54.3594C418.297 53.8086 418.086 53.2578 417.867 52.7031C417.648 52.1406 417.434 51.6484 417.227 51.2188C416.965 50.6484 416.68 50.1797 416.367 49.8125C416.055 49.4375 415.68 49.1367 415.242 48.9062C414.812 48.6797 414.309 48.5234 413.727 48.4375C413.152 48.3438 412.465 48.2969 411.664 48.2969H410.602L411.133 47.4844H413.805C414.438 47.4844 415.043 47.4297 415.617 47.3125C416.199 47.1875 416.711 46.9844 417.148 46.7031C417.586 46.4141 417.934 46.0391 418.195 45.5781C418.465 45.1211 418.602 44.5469 418.602 43.8594C418.602 43.3281 418.465 42.8672 418.195 42.4688C417.934 42.0625 417.57 41.7305 417.102 41.4688C416.633 41.1992 416.086 40.9961 415.461 40.8594C414.844 40.7266 414.168 40.6562 413.43 40.6562H410.695C410.277 40.6562 409.934 40.8203 409.664 41.1406C409.402 41.4648 409.273 41.8398 409.273 42.2656V57.1562H405.836V41.9844C405.836 41.4766 405.953 40.9922 406.195 40.5312C406.445 40.0625 406.824 39.8281 407.336 39.8281H412.602C415.82 39.8281 418.211 40.1523 419.773 40.7969C421.344 41.4453 422.133 42.5312 422.133 44.0625C422.133 44.75 421.969 45.3438 421.648 45.8438C421.324 46.3438 420.883 46.7656 420.32 47.1094C419.766 47.4531 419.109 47.7188 418.352 47.9062C417.602 48.0938 416.793 48.2109 415.93 48.25V48.2969C416.73 48.4766 417.434 48.6719 418.039 48.8906C418.652 49.1094 419.195 49.4062 419.664 49.7812C420.133 50.1484 420.547 50.6016 420.914 51.1406C421.277 51.6836 421.625 52.3555 421.961 53.1562L423.602 57.1562H419.461ZM428.332 57.1562C427.777 57.1562 427.387 56.9023 427.16 56.3906C426.941 55.8828 426.832 55.3516 426.832 54.7969V41.9844C426.832 41.4766 426.949 40.9922 427.191 40.5312C427.441 40.0625 427.82 39.8281 428.332 39.8281H442.426V40.6562H431.691C431.273 40.6562 430.93 40.8203 430.66 41.1406C430.398 41.4648 430.27 41.8398 430.27 42.2656V47.3594H441.098V48.1875H430.27V54.5156C430.27 54.9219 430.387 55.3281 430.629 55.7344C430.867 56.1328 431.223 56.3281 431.691 56.3281H443.488V57.1562H428.332ZM474.691 57.1562L473.098 52.7969C472.73 51.7969 472.387 50.8906 472.066 50.0781C471.754 49.2656 471.379 48.5781 470.941 48.0156C470.504 47.4453 469.965 47.0117 469.332 46.7188C468.707 46.418 467.895 46.2656 466.895 46.2656H463.363L463.754 45.4219H468.051C468.965 45.4219 469.762 45.2969 470.441 45.0469C471.117 44.7891 471.68 44.4492 472.129 44.0312C472.586 43.6055 472.93 43.1211 473.16 42.5781C473.398 42.0391 473.52 41.4844 473.52 40.9219C473.52 39.6836 473.09 38.6641 472.238 37.8594C471.383 37.0586 470.066 36.6562 468.285 36.6562H463.332C462.883 36.6562 462.551 36.8711 462.332 37.2969C462.121 37.7148 462.02 38.1484 462.02 38.5938V57.1562H458.16V38.3281C458.16 38.0586 458.184 37.7773 458.238 37.4844C458.301 37.1836 458.395 36.9141 458.52 36.6719C458.652 36.4219 458.82 36.2188 459.02 36.0625C459.227 35.9062 459.461 35.8281 459.723 35.8281H469.223C472.336 35.8281 474.574 36.2773 475.941 37.1719C477.305 38.0586 477.988 39.2422 477.988 40.7188C477.988 41.875 477.68 42.793 477.066 43.4688C476.461 44.1484 475.707 44.6719 474.801 45.0469C473.902 45.4141 472.934 45.6523 471.895 45.7656C470.852 45.8711 469.895 45.9219 469.02 45.9219V45.9844C469.863 46.0781 470.668 46.2188 471.441 46.4062C472.211 46.5938 472.93 46.8828 473.598 47.2656C474.262 47.6406 474.867 48.1367 475.41 48.75C475.949 49.3555 476.398 50.125 476.754 51.0625L479.129 57.1562H474.691ZM501.453 48.4844C501.453 49.8203 501.203 51.0469 500.703 52.1719C500.203 53.2969 499.508 54.2656 498.625 55.0781C497.75 55.8906 496.707 56.5273 495.5 56.9844C494.289 57.4297 492.973 57.6562 491.547 57.6562C490.129 57.6562 488.816 57.4297 487.609 56.9844C486.41 56.5273 485.375 55.8906 484.5 55.0781C483.625 54.2656 482.938 53.2969 482.438 52.1719C481.938 51.0469 481.688 49.8203 481.688 48.4844C481.688 47.1523 481.938 45.9297 482.438 44.8125C482.938 43.6875 483.625 42.7188 484.5 41.9062C485.375 41.0938 486.41 40.4648 487.609 40.0156C488.816 39.5586 490.129 39.3281 491.547 39.3281C492.973 39.3281 494.289 39.5586 495.5 40.0156C496.707 40.4648 497.75 41.0938 498.625 41.9062C499.508 42.7188 500.203 43.6875 500.703 44.8125C501.203 45.9297 501.453 47.1523 501.453 48.4844ZM497.578 48.4844C497.578 47.5156 497.5 46.5273 497.344 45.5156C497.188 44.4961 496.883 43.5781 496.438 42.7656C496 41.9453 495.383 41.2734 494.594 40.75C493.812 40.2188 492.797 39.9531 491.547 39.9531C490.305 39.9531 489.297 40.2188 488.516 40.75C487.742 41.2734 487.133 41.9453 486.688 42.7656C486.238 43.5781 485.938 44.4961 485.781 45.5156C485.625 46.5273 485.547 47.5156 485.547 48.4844C485.547 49.4648 485.625 50.4609 485.781 51.4688C485.938 52.4805 486.238 53.3984 486.688 54.2188C487.133 55.043 487.742 55.7148 488.516 56.2344C489.297 56.7578 490.305 57.0156 491.547 57.0156C492.797 57.0156 493.812 56.7578 494.594 56.2344C495.383 55.7148 496 55.043 496.438 54.2188C496.883 53.3984 497.188 52.4805 497.344 51.4688C497.5 50.4609 497.578 49.4648 497.578 48.4844ZM519.074 57.1562V39.8281H522.512V57.1562H519.074ZM512.043 57.1562C510.918 57.1562 509.906 57.043 509.012 56.8125C508.125 56.5742 507.379 56.1797 506.777 55.625C506.184 55.0742 505.73 54.3398 505.418 53.4219C505.105 52.4961 504.949 51.3398 504.949 49.9531V39.8281H508.387V49.9844C508.387 50.7891 508.473 51.5703 508.652 52.3281C508.828 53.0781 509.109 53.75 509.496 54.3438C509.891 54.9297 510.395 55.4062 511.012 55.7812C511.637 56.1484 512.391 56.3281 513.277 56.3281H517.277L517.746 57.1562H512.043ZM534.344 41.4844H531.219V54.5156C531.219 54.9219 531.336 55.3281 531.578 55.7344C531.828 56.1328 532.18 56.3281 532.641 56.3281H534.25L534.047 57.1562H529.281C528.727 57.1562 528.336 56.9023 528.109 56.3906C527.891 55.8828 527.781 55.3516 527.781 54.7969V41.4844H525.312L525.609 40.6562H527.781V35.8906H531.219V40.6562H534.578L534.344 41.4844ZM542.004 35.5625C542.004 36.0938 541.816 36.5586 541.441 36.9531C541.066 37.3398 540.586 37.5312 540.004 37.5312C539.473 37.5312 539.012 37.3398 538.629 36.9531C538.242 36.5586 538.051 36.0938 538.051 35.5625C538.051 35.0312 538.242 34.5703 538.629 34.1719C539.012 33.7656 539.473 33.5625 540.004 33.5625C540.586 33.5625 541.066 33.7656 541.441 34.1719C541.816 34.5703 542.004 35.0312 542.004 35.5625ZM538.316 57.1562V39.8281H541.738V57.1562H538.316ZM564.035 56.0156C564.035 56.5781 563.961 56.9688 563.816 57.1875C563.68 57.4062 563.496 57.5156 563.27 57.5156C563.027 57.5156 562.758 57.4141 562.457 57.2188C562.152 57.0234 561.883 56.8047 561.645 56.5625L549.004 44.6875C548.723 44.4297 548.492 44.2969 548.316 44.2969C548.18 44.2969 548.074 44.3555 548.004 44.4688C547.941 44.5742 547.91 44.6953 547.91 44.8281V57.1562H547.082V40.625C547.082 40.2305 547.176 39.9375 547.363 39.75C547.551 39.5547 547.777 39.4531 548.051 39.4531C548.352 39.4531 548.668 39.6016 549.004 39.8906L562.145 52.0938C562.32 52.2734 562.465 52.3906 562.582 52.4531C562.707 52.5078 562.805 52.5312 562.879 52.5312C563.012 52.5312 563.102 52.4766 563.145 52.3594C563.184 52.2461 563.207 52.1367 563.207 52.0312V39.8281H564.035L564.035 56.0156ZM570.211 57.1562C569.656 57.1562 569.266 56.9023 569.039 56.3906C568.82 55.8828 568.711 55.3516 568.711 54.7969V41.9844C568.711 41.4766 568.828 40.9922 569.07 40.5312C569.32 40.0625 569.699 39.8281 570.211 39.8281H584.305V40.6562H573.57C573.152 40.6562 572.809 40.8203 572.539 41.1406C572.277 41.4648 572.148 41.8398 572.148 42.2656V47.3594H582.977V48.1875H572.148V54.5156C572.148 54.9219 572.266 55.3281 572.508 55.7344C572.746 56.1328 573.102 56.3281 573.57 56.3281H585.367V57.1562H570.211Z" fill="#665F20"/>
</svg>
