<svg width="529" height="64" viewBox="0 0 529 64" fill="none" xmlns="http://www.w3.org/2000/svg">
<path d="M49.4219 24.1563C49.1289 24.1563 48.8828 24.0781 48.6875 23.9219C48.4883 23.7656 48.3281 23.5703 48.2031 23.3281C48.0781 23.0781 47.9883 22.8086 47.9375 22.5156C47.8828 22.2148 47.8594 21.9297 47.8594 21.6563V2.82812H51.7188V21.3906C51.7188 21.8398 51.8203 22.2773 52.0312 22.7031C52.2383 23.1211 52.5664 23.3281 53.0156 23.3281H65.75V24.1563H49.4219ZM81.8047 24.1563V14.2656H79.1797C78.293 14.2656 77.4063 14.3359 76.5234 14.4688C75.6484 14.5938 74.8672 14.8516 74.1797 15.2344C73.4922 15.6094 72.9336 16.1367 72.5078 16.8125C72.0898 17.4922 71.8828 18.3711 71.8828 19.4531C71.8828 20.6836 72.2109 21.6367 72.8672 22.3125C73.5234 22.9922 74.5703 23.3281 76.0078 23.3281H80.0391L80.4766 24.1563H75.0391C74.1719 24.1563 73.3242 24.0703 72.4922 23.8906C71.6563 23.7148 70.9063 23.4297 70.2422 23.0313C69.5742 22.625 69.0313 22.0898 68.6172 21.4219C68.2109 20.7578 68.0078 19.9219 68.0078 18.9219C68.0078 18.1016 68.1992 17.3906 68.5859 16.7969C68.9805 16.1953 69.5 15.6953 70.1484 15.2969C70.793 14.8906 71.5156 14.5703 72.3203 14.3281C73.1328 14.0781 73.9492 13.8906 74.7734 13.7656C75.5938 13.6328 76.4023 13.543 77.1953 13.5C77.9844 13.4492 78.668 13.4219 79.2422 13.4219H81.8047V12.4219C81.8047 10.8281 81.4141 9.54687 80.6328 8.57812C79.8594 7.60937 78.6328 7.125 76.9453 7.125C75.3398 7.125 73.8984 7.27734 72.6172 7.57812C71.3438 7.88281 70.1875 8.32031 69.1484 8.89062L68.9141 7.98437C70.2266 7.29687 71.6016 6.85156 73.0391 6.64062C74.4844 6.43359 75.9531 6.32812 77.4453 6.32812C78.4023 6.32812 79.3438 6.42187 80.2734 6.60937C81.2109 6.79687 82.043 7.10937 82.7734 7.54687C83.5117 7.97656 84.1055 8.54687 84.5547 9.26562C85.0117 9.97656 85.2422 10.8516 85.2422 11.8906V24.1563H81.8047ZM107.871 24.1563V10.2188C107.871 9.91797 107.793 9.76563 107.637 9.76563C107.512 9.76563 107.359 9.90625 107.184 10.1875L99.4492 24.1563H99.043L91.4805 10.3281C91.2617 9.95313 91.0938 9.76563 90.9805 9.76563C90.8867 9.76563 90.8242 9.83594 90.793 9.96875C90.7617 10.0938 90.7461 10.2344 90.7461 10.3906V24.1563H89.918V8.95313C89.918 8.10938 90.0781 7.46484 90.4023 7.01562C90.7227 6.55859 91.1133 6.32812 91.5742 6.32812C91.957 6.32812 92.3438 6.48438 92.7305 6.79688C93.1133 7.10938 93.5 7.60156 93.8867 8.26563L100.418 20.25H100.512L107.105 8.45313C107.488 7.74609 107.91 7.21484 108.371 6.85938C108.84 6.50781 109.277 6.32812 109.684 6.32812C110.141 6.32812 110.527 6.5625 110.84 7.03125C111.152 7.49219 111.309 8.21875 111.309 9.21875V24.1563H107.871ZM134.34 15.1563C134.34 16.4922 134.074 17.7148 133.543 18.8281C133.012 19.9336 132.297 20.8828 131.402 21.6719C130.516 22.4648 129.488 23.0781 128.324 23.5156C127.156 23.9453 125.949 24.1563 124.699 24.1563H120.668L121.215 23.3281H123.371C124.391 23.3281 125.332 23.2305 126.199 23.0313C127.074 22.8242 127.824 22.4336 128.449 21.8594C129.082 21.2773 129.578 20.4531 129.934 19.3906C130.285 18.3281 130.465 16.918 130.465 15.1563C130.465 13.5625 130.277 12.25 129.902 11.2188C129.527 10.1797 129.051 9.35938 128.48 8.76563C127.918 8.16406 127.309 7.74609 126.652 7.51563C125.996 7.27734 125.402 7.15625 124.871 7.15625C124.277 7.15625 123.707 7.22656 123.168 7.35938C122.637 7.49609 122.129 7.65625 121.652 7.84375C121.172 8.03125 120.738 8.23438 120.355 8.45313C119.969 8.66406 119.629 8.85547 119.34 9.03125V30.6875H115.902V6.82812H119.34V8.125C119.609 7.96875 119.934 7.79297 120.309 7.59375C120.684 7.39844 121.121 7.20313 121.621 7.01562C122.121 6.82031 122.688 6.65625 123.324 6.53125C123.957 6.39844 124.652 6.32812 125.402 6.32812C126.516 6.32812 127.605 6.54297 128.668 6.96875C129.738 7.38672 130.691 7.98047 131.527 8.75C132.359 9.51172 133.035 10.4375 133.559 11.5313C134.078 12.6172 134.34 13.8242 134.34 15.1563ZM152.039 24.1563L148.867 18.8906C148.688 18.6016 148.465 18.2188 148.195 17.75C147.934 17.2734 147.637 16.8047 147.305 16.3438C146.969 15.8867 146.594 15.4922 146.18 15.1563C145.773 14.8242 145.344 14.6563 144.898 14.6563C144.637 14.6563 144.398 14.7422 144.18 14.9063C143.969 15.0742 143.734 15.3125 143.477 15.625V14.3906L152.742 6.82812H154.07L145.477 13.7969V13.8594C145.633 13.8398 145.773 13.8281 145.898 13.8281C146.031 13.8281 146.168 13.8281 146.305 13.8281C147.305 13.8281 148.137 13.9766 148.805 14.2656C149.469 14.5469 150.059 14.9375 150.57 15.4375C151.078 15.9375 151.543 16.5117 151.961 17.1562C152.387 17.8047 152.844 18.4922 153.336 19.2188L156.602 24.1563H152.039ZM138.711 24.1563V0H142.133V24.1563H138.711ZM172.891 24.1563V14.2656H170.266C169.379 14.2656 168.492 14.3359 167.609 14.4688C166.734 14.5938 165.953 14.8516 165.266 15.2344C164.578 15.6094 164.02 16.1367 163.594 16.8125C163.176 17.4922 162.969 18.3711 162.969 19.4531C162.969 20.6836 163.297 21.6367 163.953 22.3125C164.609 22.9922 165.656 23.3281 167.094 23.3281H171.125L171.563 24.1563H166.125C165.258 24.1563 164.41 24.0703 163.578 23.8906C162.742 23.7148 161.992 23.4297 161.328 23.0313C160.66 22.625 160.117 22.0898 159.703 21.4219C159.297 20.7578 159.094 19.9219 159.094 18.9219C159.094 18.1016 159.285 17.3906 159.672 16.7969C160.066 16.1953 160.586 15.6953 161.234 15.2969C161.879 14.8906 162.602 14.5703 163.406 14.3281C164.219 14.0781 165.035 13.8906 165.859 13.7656C166.68 13.6328 167.488 13.543 168.281 13.5C169.07 13.4492 169.754 13.4219 170.328 13.4219H172.891V12.4219C172.891 10.8281 172.5 9.54687 171.719 8.57812C170.945 7.60937 169.719 7.125 168.031 7.125C166.426 7.125 164.984 7.27734 163.703 7.57812C162.43 7.88281 161.273 8.32031 160.234 8.89062L160 7.98437C161.313 7.29687 162.688 6.85156 164.125 6.64062C165.57 6.43359 167.039 6.32812 168.531 6.32812C169.488 6.32812 170.43 6.42187 171.359 6.60937C172.297 6.79687 173.129 7.10937 173.859 7.54687C174.598 7.97656 175.191 8.54687 175.641 9.26562C176.098 9.97656 176.328 10.8516 176.328 11.8906V24.1563H172.891ZM208.754 23.0156C208.754 23.5781 208.68 23.9688 208.535 24.1875C208.398 24.4063 208.215 24.5156 207.988 24.5156C207.746 24.5156 207.477 24.4141 207.176 24.2188C206.871 24.0234 206.602 23.8047 206.363 23.5625L193.723 11.6875C193.441 11.4297 193.211 11.2969 193.035 11.2969C192.898 11.2969 192.793 11.3555 192.723 11.4688C192.66 11.5742 192.629 11.6953 192.629 11.8281V24.1563H191.801V7.625C191.801 7.23047 191.895 6.9375 192.082 6.75C192.27 6.55469 192.496 6.45312 192.77 6.45312C193.07 6.45312 193.387 6.60156 193.723 6.89062L206.863 19.0938C207.039 19.2734 207.184 19.3906 207.301 19.4531C207.426 19.5078 207.523 19.5312 207.598 19.5312C207.731 19.5312 207.82 19.4766 207.863 19.3594C207.902 19.2461 207.926 19.1367 207.926 19.0312V6.82812H208.754L208.754 23.0156ZM231.961 15.4844C231.961 16.8203 231.711 18.0469 231.211 19.1719C230.711 20.2969 230.016 21.2656 229.133 22.0781C228.258 22.8906 227.215 23.5273 226.008 23.9844C224.797 24.4297 223.48 24.6563 222.055 24.6563C220.637 24.6563 219.324 24.4297 218.117 23.9844C216.918 23.5273 215.883 22.8906 215.008 22.0781C214.133 21.2656 213.445 20.2969 212.945 19.1719C212.445 18.0469 212.195 16.8203 212.195 15.4844C212.195 14.1523 212.445 12.9297 212.945 11.8125C213.445 10.6875 214.133 9.71875 215.008 8.90625C215.883 8.09375 216.918 7.46484 218.117 7.01562C219.324 6.55859 220.637 6.32812 222.055 6.32812C223.48 6.32812 224.797 6.55859 226.008 7.01562C227.215 7.46484 228.258 8.09375 229.133 8.90625C230.016 9.71875 230.711 10.6875 231.211 11.8125C231.711 12.9297 231.961 14.1523 231.961 15.4844ZM228.086 15.4844C228.086 14.5156 228.008 13.5273 227.852 12.5156C227.695 11.4961 227.391 10.5781 226.945 9.76563C226.508 8.94531 225.891 8.27344 225.102 7.75C224.32 7.21875 223.305 6.95312 222.055 6.95312C220.813 6.95312 219.805 7.21875 219.023 7.75C218.25 8.27344 217.641 8.94531 217.195 9.76563C216.746 10.5781 216.445 11.4961 216.289 12.5156C216.133 13.5273 216.055 14.5156 216.055 15.4844C216.055 16.4648 216.133 17.4609 216.289 18.4688C216.445 19.4805 216.746 20.3984 217.195 21.2188C217.641 22.043 218.25 22.7148 219.023 23.2344C219.805 23.7578 220.813 24.0156 222.055 24.0156C223.305 24.0156 224.32 23.7578 225.102 23.2344C225.891 22.7148 226.508 22.043 226.945 21.2188C227.391 20.3984 227.695 19.4805 227.852 18.4688C228.008 17.4609 228.086 16.4648 228.086 15.4844ZM252.078 22.0938C251.234 22.8438 250.148 23.4609 248.828 23.9375C247.516 24.4141 246 24.6563 244.281 24.6563C242.863 24.6563 241.551 24.4297 240.344 23.9844C239.145 23.5273 238.109 22.8906 237.234 22.0781C236.359 21.2656 235.672 20.2969 235.172 19.1719C234.672 18.0469 234.422 16.8203 234.422 15.4844C234.422 14.1523 234.672 12.9297 235.172 11.8125C235.672 10.6875 236.359 9.71875 237.234 8.90625C238.109 8.09375 239.145 7.46484 240.344 7.01562C241.551 6.55859 242.863 6.32812 244.281 6.32812C245.883 6.32812 247.316 6.53906 248.578 6.95312C249.848 7.35938 250.875 7.82813 251.656 8.35938L251.422 9.26563C250.523 8.66406 249.488 8.15625 248.313 7.75C247.133 7.33594 245.781 7.125 244.25 7.125C243.164 7.125 242.242 7.37109 241.484 7.85938C240.734 8.35156 240.117 8.99219 239.641 9.78125C239.16 10.5625 238.813 11.4531 238.594 12.4531C238.383 13.4531 238.281 14.4648 238.281 15.4844C238.281 16.9961 238.469 18.2773 238.844 19.3281C239.227 20.3711 239.723 21.2188 240.328 21.875C240.941 22.5313 241.629 23.0117 242.391 23.3125C243.16 23.6055 243.938 23.75 244.719 23.75C246.145 23.75 247.453 23.5313 248.641 23.0938C249.828 22.6484 250.875 22.0313 251.781 21.25L252.078 22.0938ZM272.477 23.0156C272.477 23.5781 272.402 23.9688 272.258 24.1875C272.121 24.4063 271.938 24.5156 271.711 24.5156C271.469 24.5156 271.199 24.4141 270.898 24.2188C270.594 24.0234 270.324 23.8047 270.086 23.5625L257.445 11.6875C257.164 11.4297 256.934 11.2969 256.758 11.2969C256.621 11.2969 256.516 11.3555 256.445 11.4688C256.383 11.5742 256.352 11.6953 256.352 11.8281V24.1563H255.523V7.625C255.523 7.23047 255.617 6.9375 255.805 6.75C255.992 6.55469 256.219 6.45312 256.492 6.45312C256.793 6.45312 257.109 6.60156 257.445 6.89062L270.586 19.0938C270.762 19.2734 270.906 19.3906 271.023 19.4531C271.148 19.5078 271.246 19.5312 271.32 19.5312C271.453 19.5312 271.543 19.4766 271.586 19.3594C271.625 19.2461 271.648 19.1367 271.648 19.0312V6.82812H272.477L272.477 23.0156ZM290.074 24.1563V14.2656H287.449C286.563 14.2656 285.676 14.3359 284.793 14.4688C283.918 14.5938 283.137 14.8516 282.449 15.2344C281.762 15.6094 281.203 16.1367 280.777 16.8125C280.359 17.4922 280.152 18.3711 280.152 19.4531C280.152 20.6836 280.48 21.6367 281.137 22.3125C281.793 22.9922 282.84 23.3281 284.277 23.3281H288.309L288.746 24.1563H283.309C282.441 24.1563 281.594 24.0703 280.762 23.8906C279.926 23.7148 279.176 23.4297 278.512 23.0313C277.844 22.625 277.301 22.0898 276.887 21.4219C276.48 20.7578 276.277 19.9219 276.277 18.9219C276.277 18.1016 276.469 17.3906 276.855 16.7969C277.25 16.1953 277.77 15.6953 278.418 15.2969C279.063 14.8906 279.785 14.5703 280.59 14.3281C281.402 14.0781 282.219 13.8906 283.043 13.7656C283.863 13.6328 284.672 13.543 285.465 13.5C286.254 13.4492 286.938 13.4219 287.512 13.4219H290.074V12.4219C290.074 10.8281 289.684 9.54687 288.902 8.57812C288.129 7.60937 286.902 7.125 285.215 7.125C283.609 7.125 282.168 7.27734 280.887 7.57812C279.613 7.88281 278.457 8.32031 277.418 8.89062L277.184 7.98437C278.496 7.29687 279.871 6.85156 281.309 6.64062C282.754 6.43359 284.223 6.32812 285.715 6.32812C286.672 6.32812 287.613 6.42187 288.543 6.60937C289.48 6.79687 290.313 7.10937 291.043 7.54687C291.781 7.97656 292.375 8.54687 292.824 9.26562C293.281 9.97656 293.512 10.8516 293.512 11.8906V24.1563H290.074ZM329.777 23.8281C329.723 23.9531 329.645 24.0703 329.543 24.1719C329.449 24.2734 329.332 24.3281 329.199 24.3281C329.094 24.3281 328.973 24.2656 328.84 24.1406C328.703 24.0156 328.566 23.7891 328.434 23.4531L322.746 9.26563C322.609 8.95313 322.473 8.79688 322.34 8.79688C322.254 8.79688 322.188 8.85157 322.137 8.95313L316.715 23.8281C316.66 23.9531 316.582 24.0742 316.48 24.1875C316.387 24.3008 316.27 24.3594 316.137 24.3594C316.031 24.3594 315.91 24.2891 315.777 24.1563C315.641 24.0234 315.504 23.7891 315.371 23.4531L307.574 2.82812H312.043L317.246 17.5625C317.402 17.9805 317.566 18.1875 317.746 18.1875C317.848 18.1875 317.926 18.1094 317.98 17.9531L323.309 2.95312C323.348 2.85156 323.41 2.73438 323.496 2.60938C323.59 2.48438 323.691 2.42188 323.809 2.42188C323.922 2.42188 324.035 2.49219 324.152 2.625C324.277 2.76172 324.418 3.00781 324.574 3.35938L330.512 17.6875C330.613 17.9805 330.746 18.125 330.902 18.125C331.016 18.125 331.094 18.0703 331.137 17.9531L336.809 2.82812H337.84L329.777 23.8281ZM342.707 24.1563C342.152 24.1563 341.762 23.9023 341.535 23.3906C341.316 22.8828 341.207 22.3516 341.207 21.7969V8.98438C341.207 8.47656 341.324 7.99219 341.566 7.53125C341.816 7.0625 342.195 6.82812 342.707 6.82812H356.801V7.65625H346.066C345.648 7.65625 345.305 7.82031 345.035 8.14063C344.773 8.46484 344.645 8.83984 344.645 9.26563V14.3594H355.473V15.1875H344.645V21.5156C344.645 21.9219 344.762 22.3281 345.004 22.7344C345.242 23.1328 345.598 23.3281 346.066 23.3281H357.863V24.1563H342.707ZM376.531 18.75C376.531 19.9609 376.223 20.9453 375.609 21.7031C375.004 22.4531 374.234 23.0547 373.297 23.5C372.367 23.9375 371.359 24.2383 370.266 24.4063C369.172 24.5703 368.16 24.6563 367.234 24.6563C365.898 24.6563 364.57 24.5469 363.25 24.3281C361.926 24.1211 360.633 23.7891 359.375 23.3281L359.594 22.3906C360.113 22.6094 360.688 22.8086 361.313 22.9844C361.945 23.1641 362.613 23.3125 363.313 23.4375C364.008 23.5625 364.711 23.6641 365.422 23.7344C366.141 23.7969 366.813 23.8281 367.438 23.8281C368.082 23.8281 368.742 23.7734 369.422 23.6563C370.098 23.543 370.719 23.3516 371.281 23.0781C371.844 22.7969 372.301 22.4063 372.656 21.9063C373.02 21.4063 373.203 20.7812 373.203 20.0312C373.203 19.3867 373.078 18.875 372.828 18.5C372.586 18.1172 372.219 17.8125 371.719 17.5938C371.219 17.3672 370.598 17.2031 369.859 17.1094C369.129 17.0078 368.273 16.9141 367.297 16.8281C366.566 16.7578 365.797 16.6367 364.984 16.4688C364.172 16.3047 363.426 16.0391 362.75 15.6719C362.07 15.3086 361.516 14.8281 361.078 14.2344C360.648 13.6328 360.438 12.8594 360.438 11.9219C360.438 10.7656 360.723 9.82813 361.297 9.10938C361.879 8.39063 362.602 7.82813 363.469 7.42188C364.332 7.00781 365.273 6.71875 366.297 6.5625C367.316 6.40625 368.285 6.32812 369.203 6.32812C370.18 6.32812 371.227 6.44922 372.344 6.6875C373.469 6.91797 374.484 7.21875 375.391 7.59375L375.125 8.48438C374.281 8.08984 373.305 7.77344 372.203 7.53125C371.109 7.28125 369.914 7.15625 368.625 7.15625C367.988 7.15625 367.375 7.21875 366.781 7.34375C366.195 7.46875 365.68 7.68359 365.234 7.98438C364.785 8.27734 364.426 8.66797 364.156 9.15625C363.895 9.64844 363.766 10.2461 363.766 10.9531C363.766 11.5391 363.93 12.0156 364.266 12.3906C364.598 12.7656 365.039 13.0703 365.594 13.2969C366.156 13.5156 366.797 13.6836 367.516 13.7969C368.234 13.9023 368.973 13.9805 369.734 14.0313C372.086 14.1875 373.805 14.6172 374.891 15.3125C375.984 16.0117 376.531 17.1562 376.531 18.75ZM387.93 8.48438H384.805V21.5156C384.805 21.9219 384.922 22.3281 385.164 22.7344C385.414 23.1328 385.766 23.3281 386.227 23.3281H387.836L387.633 24.1563H382.867C382.312 24.1563 381.922 23.9023 381.695 23.3906C381.477 22.8828 381.367 22.3516 381.367 21.7969V8.48438H378.898L379.195 7.65625H381.367V2.89062H384.805V7.65625H388.164L387.93 8.48438ZM411.262 23.5938C411.145 23.793 411.027 23.9648 410.902 24.1094C410.785 24.2539 410.652 24.3281 410.496 24.3281C410.246 24.3281 410.047 24.1367 409.902 23.75L404.496 11.7188C404.434 11.543 404.332 11.4531 404.199 11.4531C404.063 11.4531 403.965 11.543 403.902 11.7188L398.996 23.75C398.816 24.1758 398.574 24.3906 398.262 24.3906C397.949 24.3906 397.691 24.1758 397.496 23.75L389.293 6.82812H393.324L399.199 18.8906C399.281 19.0703 399.391 19.1562 399.527 19.1562C399.684 19.1562 399.809 19.0703 399.902 18.8906L404.73 7.35938C404.812 7.16406 404.926 7.01562 405.074 6.92188C405.219 6.82031 405.371 6.76562 405.527 6.76562C405.879 6.76562 406.156 6.96484 406.355 7.35938L411.668 18.8906C411.75 19.0703 411.859 19.1562 411.996 19.1562C412.152 19.1562 412.27 19.0703 412.355 18.8906L418.059 6.82812H419.121L411.262 23.5938ZM426.086 2.5625C426.086 3.09375 425.898 3.55859 425.523 3.95312C425.148 4.33984 424.668 4.53125 424.086 4.53125C423.555 4.53125 423.094 4.33984 422.711 3.95312C422.324 3.55859 422.133 3.09375 422.133 2.5625C422.133 2.03125 422.324 1.57031 422.711 1.17188C423.094 0.765625 423.555 0.5625 424.086 0.5625C424.668 0.5625 425.148 0.765625 425.523 1.17188C425.898 1.57031 426.086 2.03125 426.086 2.5625ZM422.398 24.1563V6.82812H425.82V24.1563H422.398ZM448.113 23.0156C448.113 23.5781 448.039 23.9688 447.895 24.1875C447.758 24.4063 447.574 24.5156 447.348 24.5156C447.105 24.5156 446.836 24.4141 446.535 24.2188C446.23 24.0234 445.961 23.8047 445.723 23.5625L433.082 11.6875C432.801 11.4297 432.57 11.2969 432.395 11.2969C432.258 11.2969 432.152 11.3555 432.082 11.4688C432.02 11.5742 431.988 11.6953 431.988 11.8281V24.1563H431.16V7.625C431.16 7.23047 431.254 6.9375 431.441 6.75C431.629 6.55469 431.856 6.45312 432.129 6.45312C432.43 6.45312 432.746 6.60156 433.082 6.89062L446.223 19.0938C446.398 19.2734 446.543 19.3906 446.66 19.4531C446.785 19.5078 446.883 19.5312 446.957 19.5312C447.09 19.5312 447.18 19.4766 447.223 19.3594C447.262 19.2461 447.285 19.1367 447.285 19.0312V6.82812H448.113L448.113 23.0156ZM469.945 23.1563C469.945 24.7813 469.641 26.0859 469.039 27.0781C468.445 28.0664 467.711 28.832 466.836 29.375C465.961 29.9141 465.008 30.2813 463.977 30.4688C462.953 30.6563 462.012 30.75 461.148 30.75H454.32L454.617 29.9219H461.945C462.414 29.9219 462.918 29.8594 463.461 29.7344C464.012 29.6172 464.508 29.2852 464.945 28.7344C465.391 28.1914 465.766 27.3594 466.07 26.2344C466.371 25.1172 466.523 23.5625 466.523 21.5625V9.0625C465.805 8.59375 464.98 8.1875 464.055 7.84375C463.137 7.5 462.125 7.32813 461.023 7.32813C459.867 7.32813 458.918 7.5625 458.18 8.03125C457.449 8.49219 456.871 9.10156 456.445 9.85938C456.027 10.6094 455.734 11.4648 455.57 12.4219C455.402 13.3828 455.32 14.3516 455.32 15.3281C455.32 17.0781 455.5 18.4805 455.867 19.5312C456.23 20.5742 456.734 21.3828 457.383 21.9531C458.027 22.5156 458.777 22.8867 459.633 23.0625C460.484 23.2422 461.414 23.3281 462.414 23.3281H464.711L465.18 24.1563H460.055C458.875 24.1563 457.762 23.9609 456.711 23.5625C455.668 23.1563 454.758 22.5859 453.977 21.8438C453.203 21.0938 452.59 20.1719 452.133 19.0781C451.684 17.9766 451.461 16.7266 451.461 15.3281C451.461 14.1719 451.672 13.0586 452.102 11.9844C452.539 10.9023 453.137 9.94531 453.898 9.10938C454.668 8.27734 455.574 7.60547 456.617 7.09375C457.656 6.58594 458.781 6.32812 459.992 6.32812C461.68 6.32812 463.027 6.50781 464.039 6.85938C465.047 7.21484 465.875 7.61719 466.523 8.0625V6.6875H469.945V23.1563Z" fill="#665F20"/>
<path d="M19.7185 48.6875C19.7185 51.918 18.9529 54.25 17.4216 55.6875C15.8904 57.1172 13.5154 57.8281 10.2966 57.8281C9.02319 57.8281 7.76929 57.7383 6.53101 57.5625C5.30054 57.3828 4.20288 57.0391 3.23413 56.5156C2.27319 55.9844 1.49194 55.2578 0.890381 54.3281C0.296631 53.3906 -0.000244141 52.168 -0.000244141 50.6562V35.8281H3.85913V50.625C3.85913 51.668 4.03491 52.5859 4.39038 53.375C4.74194 54.168 5.23804 54.8281 5.87476 55.3594C6.50757 55.8906 7.25757 56.2969 8.12476 56.5781C8.98804 56.8516 9.92944 56.9844 10.9529 56.9844C13.7341 56.9844 15.7498 56.3281 16.9998 55.0156C18.2576 53.6953 18.8904 51.5938 18.8904 48.7188V35.8281H19.7185V48.6875ZM46.7107 54.8594C46.1365 55.3711 45.4646 55.8125 44.6951 56.1875C43.9334 56.5625 43.1169 56.875 42.2419 57.125C41.3748 57.3633 40.4685 57.5391 39.5232 57.6562C38.5857 57.7695 37.6521 57.8281 36.7263 57.8281C35.1638 57.8281 33.6326 57.5938 32.1326 57.125C30.6326 56.6562 29.2888 55.9609 28.1013 55.0312C26.9138 54.0938 25.949 52.918 25.2107 51.5C24.4802 50.0742 24.1169 48.4023 24.1169 46.4844C24.1169 44.7773 24.4646 43.2266 25.1638 41.8281C25.8709 40.4219 26.8201 39.2305 28.0076 38.25C29.1951 37.2617 30.5623 36.5 32.1169 35.9688C33.6794 35.4297 35.324 35.1562 37.0544 35.1562C39.074 35.1562 40.7771 35.3516 42.1638 35.7344C43.5584 36.1094 44.6404 36.5156 45.4138 36.9531L45.1169 37.7656C44.3357 37.2578 43.324 36.8359 42.0857 36.5C40.8435 36.168 39.3435 36 37.5857 36C36.031 36 34.6873 36.3203 33.5544 36.9531C32.4177 37.5781 31.4802 38.4062 30.7419 39.4375C30.0115 40.4688 29.4685 41.6484 29.1169 42.9688C28.7615 44.293 28.5857 45.6484 28.5857 47.0312C28.5857 48.3672 28.781 49.6328 29.1794 50.8281C29.5857 52.0273 30.1482 53.0898 30.8669 54.0156C31.5935 54.9336 32.4607 55.6562 33.4607 56.1875C34.4607 56.7188 35.5466 56.9844 36.7263 56.9844C39.0076 56.9844 40.5935 56.5703 41.4919 55.7344C42.3982 54.9023 42.8513 53.6211 42.8513 51.8906V46.3281H46.7107V54.8594ZM73.3474 54.7969C71.949 55.9219 70.3708 56.7109 68.613 57.1562C66.863 57.6016 65.0857 57.8281 63.2849 57.8281C61.6599 57.8281 60.0857 57.5938 58.5662 57.125C57.0427 56.6562 55.699 55.9609 54.5349 55.0312C53.3669 54.0938 52.4334 52.918 51.738 51.5C51.0388 50.0742 50.6912 48.4023 50.6912 46.4844C50.6912 44.7773 51.0388 43.2266 51.738 41.8281C52.4334 40.4219 53.3669 39.2305 54.5349 38.25C55.699 37.2617 57.0427 36.5 58.5662 35.9688C60.0857 35.4297 61.6599 35.1562 63.2849 35.1562C64.0662 35.1562 64.8669 35.2109 65.6912 35.3125C66.5232 35.4062 67.3552 35.5625 68.1912 35.7812C69.0232 35.9922 69.8357 36.25 70.6287 36.5625C71.4177 36.875 72.1599 37.25 72.8474 37.6875L72.5505 38.6562C71.2771 37.8125 69.8162 37.1641 68.1599 36.7031C66.5037 36.2344 64.8787 36 63.2849 36C61.7732 36 60.4919 36.3203 59.4412 36.9531C58.3982 37.5781 57.5584 38.3906 56.9255 39.3906C56.3005 40.3906 55.8474 41.5156 55.5662 42.7656C55.2849 44.0078 55.1443 45.2461 55.1443 46.4844C55.1443 47.7344 55.3044 48.9844 55.6287 50.2344C55.949 51.4766 56.4763 52.5938 57.2068 53.5938C57.9451 54.5938 58.9177 55.4141 60.1287 56.0469C61.3474 56.6719 62.8396 56.9844 64.613 56.9844C65.1443 56.9844 65.7693 56.9219 66.488 56.7969C67.2146 56.6641 67.9646 56.4688 68.738 56.2188C69.5193 55.9609 70.2849 55.6367 71.0349 55.25C71.7927 54.8555 72.4763 54.4141 73.0818 53.9219L73.3474 54.7969ZM104.972 57.1562V46.3281H93.613L94.0037 45.4844H104.972V35.8281H108.847V57.1562H104.972ZM88.4099 57.1562V35.8281H92.2849V57.1562H88.4099ZM132.906 48.4844C132.906 49.8203 132.656 51.0469 132.156 52.1719C131.656 53.2969 130.961 54.2656 130.078 55.0781C129.203 55.8906 128.16 56.5273 126.953 56.9844C125.742 57.4297 124.426 57.6562 123 57.6562C121.582 57.6562 120.269 57.4297 119.062 56.9844C117.863 56.5273 116.828 55.8906 115.953 55.0781C115.078 54.2656 114.39 53.2969 113.89 52.1719C113.39 51.0469 113.14 49.8203 113.14 48.4844C113.14 47.1523 113.39 45.9297 113.89 44.8125C114.39 43.6875 115.078 42.7188 115.953 41.9062C116.828 41.0938 117.863 40.4648 119.062 40.0156C120.269 39.5586 121.582 39.3281 123 39.3281C124.426 39.3281 125.742 39.5586 126.953 40.0156C128.16 40.4648 129.203 41.0938 130.078 41.9062C130.961 42.7188 131.656 43.6875 132.156 44.8125C132.656 45.9297 132.906 47.1523 132.906 48.4844ZM129.031 48.4844C129.031 47.5156 128.953 46.5273 128.797 45.5156C128.64 44.4961 128.336 43.5781 127.89 42.7656C127.453 41.9453 126.836 41.2734 126.047 40.75C125.265 40.2188 124.25 39.9531 123 39.9531C121.758 39.9531 120.75 40.2188 119.969 40.75C119.195 41.2734 118.586 41.9453 118.14 42.7656C117.691 43.5781 117.39 44.4961 117.234 45.5156C117.078 46.5273 117 47.5156 117 48.4844C117 49.4648 117.078 50.4609 117.234 51.4688C117.39 52.4805 117.691 53.3984 118.14 54.2188C118.586 55.043 119.195 55.7148 119.969 56.2344C120.75 56.7578 121.758 57.0156 123 57.0156C124.25 57.0156 125.265 56.7578 126.047 56.2344C126.836 55.7148 127.453 55.043 127.89 54.2188C128.336 53.3984 128.64 52.4805 128.797 51.4688C128.953 50.4609 129.031 49.4648 129.031 48.4844ZM154.527 57.1562V43.2188C154.527 42.918 154.449 42.7656 154.293 42.7656C154.168 42.7656 154.015 42.9062 153.84 43.1875L146.105 57.1562H145.699L138.136 43.3281C137.918 42.9531 137.75 42.7656 137.636 42.7656C137.543 42.7656 137.48 42.8359 137.449 42.9688C137.418 43.0938 137.402 43.2344 137.402 43.3906V57.1562H136.574V41.9531C136.574 41.1094 136.734 40.4648 137.058 40.0156C137.379 39.5586 137.769 39.3281 138.23 39.3281C138.613 39.3281 139 39.4844 139.386 39.7969C139.769 40.1094 140.156 40.6016 140.543 41.2656L147.074 53.25H147.168L153.761 41.4531C154.144 40.7461 154.566 40.2148 155.027 39.8594C155.496 39.5078 155.933 39.3281 156.34 39.3281C156.797 39.3281 157.183 39.5625 157.496 40.0312C157.808 40.4922 157.965 41.2188 157.965 42.2188V57.1562H154.527ZM164.433 57.1562C163.879 57.1562 163.488 56.9023 163.261 56.3906C163.043 55.8828 162.933 55.3516 162.933 54.7969V41.9844C162.933 41.4766 163.051 40.9922 163.293 40.5312C163.543 40.0625 163.922 39.8281 164.433 39.8281H178.527V40.6562H167.793C167.375 40.6562 167.031 40.8203 166.761 41.1406C166.5 41.4648 166.371 41.8398 166.371 42.2656V47.3594H177.199V48.1875H166.371V54.5156C166.371 54.9219 166.488 55.3281 166.73 55.7344C166.969 56.1328 167.324 56.3281 167.793 56.3281H179.59V57.1562H164.433ZM216.324 46.4219C216.324 47.6016 216.082 48.8242 215.605 50.0938C215.125 51.3555 214.402 52.5117 213.433 53.5625C212.472 54.6055 211.269 55.4648 209.824 56.1406C208.375 56.8203 206.676 57.1562 204.73 57.1562H194.261V35.8281H203.933C205.703 35.8281 207.344 36.0781 208.855 36.5781C210.363 37.0781 211.668 37.7969 212.761 38.7344C213.863 39.6641 214.734 40.7773 215.371 42.0781C216.004 43.3828 216.324 44.8281 216.324 46.4219ZM211.855 45.9531C211.855 39.7578 208.941 36.6562 203.121 36.6562H198.121V56.3281H202.058C203.879 56.3281 205.418 56.0898 206.668 55.6094C207.926 55.1328 208.937 54.4453 209.699 53.5469C210.469 52.6406 211.019 51.5547 211.355 50.2812C211.687 49 211.855 47.5586 211.855 45.9531ZM221.761 57.1562C221.207 57.1562 220.816 56.9023 220.59 56.3906C220.371 55.8828 220.261 55.3516 220.261 54.7969V41.9844C220.261 41.4766 220.379 40.9922 220.621 40.5312C220.871 40.0625 221.25 39.8281 221.761 39.8281H235.855V40.6562H225.121C224.703 40.6562 224.359 40.8203 224.09 41.1406C223.828 41.4648 223.699 41.8398 223.699 42.2656V47.3594H234.527V48.1875H223.699V54.5156C223.699 54.9219 223.816 55.3281 224.058 55.7344C224.297 56.1328 224.652 56.3281 225.121 56.3281H236.918V57.1562H221.761ZM256.679 55.0938C255.836 55.8438 254.75 56.4609 253.429 56.9375C252.117 57.4141 250.601 57.6562 248.883 57.6562C247.465 57.6562 246.152 57.4297 244.945 56.9844C243.746 56.5273 242.711 55.8906 241.836 55.0781C240.961 54.2656 240.273 53.2969 239.773 52.1719C239.273 51.0469 239.023 49.8203 239.023 48.4844C239.023 47.1523 239.273 45.9297 239.773 44.8125C240.273 43.6875 240.961 42.7188 241.836 41.9062C242.711 41.0938 243.746 40.4648 244.945 40.0156C246.152 39.5586 247.465 39.3281 248.883 39.3281C250.484 39.3281 251.918 39.5391 253.179 39.9531C254.449 40.3594 255.476 40.8281 256.258 41.3594L256.023 42.2656C255.125 41.6641 254.09 41.1562 252.914 40.75C251.734 40.3359 250.383 40.125 248.851 40.125C247.765 40.125 246.844 40.3711 246.086 40.8594C245.336 41.3516 244.719 41.9922 244.242 42.7812C243.761 43.5625 243.414 44.4531 243.195 45.4531C242.984 46.4531 242.883 47.4648 242.883 48.4844C242.883 49.9961 243.07 51.2773 243.445 52.3281C243.828 53.3711 244.324 54.2188 244.929 54.875C245.543 55.5312 246.23 56.0117 246.992 56.3125C247.761 56.6055 248.539 56.75 249.32 56.75C250.746 56.75 252.054 56.5312 253.242 56.0938C254.429 55.6484 255.476 55.0312 256.383 54.25L256.679 55.0938ZM278.683 48.4844C278.683 49.8203 278.433 51.0469 277.933 52.1719C277.433 53.2969 276.738 54.2656 275.855 55.0781C274.98 55.8906 273.937 56.5273 272.73 56.9844C271.519 57.4297 270.203 57.6562 268.777 57.6562C267.359 57.6562 266.047 57.4297 264.84 56.9844C263.64 56.5273 262.605 55.8906 261.73 55.0781C260.855 54.2656 260.168 53.2969 259.668 52.1719C259.168 51.0469 258.918 49.8203 258.918 48.4844C258.918 47.1523 259.168 45.9297 259.668 44.8125C260.168 43.6875 260.855 42.7188 261.73 41.9062C262.605 41.0938 263.64 40.4648 264.84 40.0156C266.047 39.5586 267.359 39.3281 268.777 39.3281C270.203 39.3281 271.519 39.5586 272.73 40.0156C273.937 40.4648 274.98 41.0938 275.855 41.9062C276.738 42.7188 277.433 43.6875 277.933 44.8125C278.433 45.9297 278.683 47.1523 278.683 48.4844ZM274.808 48.4844C274.808 47.5156 274.73 46.5273 274.574 45.5156C274.418 44.4961 274.113 43.5781 273.668 42.7656C273.23 41.9453 272.613 41.2734 271.824 40.75C271.043 40.2188 270.027 39.9531 268.777 39.9531C267.535 39.9531 266.527 40.2188 265.746 40.75C264.972 41.2734 264.363 41.9453 263.918 42.7656C263.469 43.5781 263.168 44.4961 263.012 45.5156C262.855 46.5273 262.777 47.5156 262.777 48.4844C262.777 49.4648 262.855 50.4609 263.012 51.4688C263.168 52.4805 263.469 53.3984 263.918 54.2188C264.363 55.043 264.972 55.7148 265.746 56.2344C266.527 56.7578 267.535 57.0156 268.777 57.0156C270.027 57.0156 271.043 56.7578 271.824 56.2344C272.613 55.7148 273.23 55.043 273.668 54.2188C274.113 53.3984 274.418 52.4805 274.574 51.4688C274.73 50.4609 274.808 49.4648 274.808 48.4844ZM296.008 57.1562C295.922 56.8438 295.797 56.4375 295.633 55.9375C295.465 55.4375 295.273 54.9141 295.054 54.3594C294.844 53.8086 294.633 53.2578 294.414 52.7031C294.195 52.1406 293.98 51.6484 293.773 51.2188C293.512 50.6484 293.226 50.1797 292.914 49.8125C292.601 49.4375 292.226 49.1367 291.789 48.9062C291.359 48.6797 290.855 48.5234 290.273 48.4375C289.699 48.3438 289.012 48.2969 288.211 48.2969H287.148L287.679 47.4844H290.351C290.984 47.4844 291.59 47.4297 292.164 47.3125C292.746 47.1875 293.258 46.9844 293.695 46.7031C294.133 46.4141 294.48 46.0391 294.742 45.5781C295.012 45.1211 295.148 44.5469 295.148 43.8594C295.148 43.3281 295.012 42.8672 294.742 42.4688C294.48 42.0625 294.117 41.7305 293.648 41.4688C293.179 41.1992 292.633 40.9961 292.008 40.8594C291.39 40.7266 290.715 40.6562 289.976 40.6562H287.242C286.824 40.6562 286.48 40.8203 286.211 41.1406C285.949 41.4648 285.82 41.8398 285.82 42.2656V57.1562H282.383V41.9844C282.383 41.4766 282.5 40.9922 282.742 40.5312C282.992 40.0625 283.371 39.8281 283.883 39.8281H289.148C292.367 39.8281 294.758 40.1523 296.32 40.7969C297.89 41.4453 298.679 42.5312 298.679 44.0625C298.679 44.75 298.515 45.3438 298.195 45.8438C297.871 46.3438 297.429 46.7656 296.867 47.1094C296.312 47.4531 295.656 47.7188 294.898 47.9062C294.148 48.0938 293.34 48.2109 292.476 48.25V48.2969C293.277 48.4766 293.98 48.6719 294.586 48.8906C295.199 49.1094 295.742 49.4062 296.211 49.7812C296.679 50.1484 297.094 50.6016 297.461 51.1406C297.824 51.6836 298.172 52.3555 298.508 53.1562L300.148 57.1562H296.008ZM313.008 57.8281H310.976L319.679 35.1562H321.711L313.008 57.8281ZM353.039 50.1875C353.039 51.6562 352.699 52.8828 352.023 53.8594C351.344 54.8398 350.469 55.625 349.398 56.2188C348.336 56.8047 347.156 57.2109 345.867 57.4531C344.586 57.7031 343.34 57.8281 342.133 57.8281C341.308 57.8281 340.469 57.7734 339.617 57.6719C338.762 57.5664 337.945 57.4414 337.164 57.2969C336.39 57.1602 335.679 56.9961 335.023 56.7969C334.367 56.5898 333.804 56.3867 333.336 56.1875L333.508 55.25C333.996 55.4609 334.594 55.668 335.304 55.875C336.012 56.0859 336.75 56.2734 337.523 56.4375C338.293 56.6055 339.058 56.7422 339.82 56.8438C340.59 56.9375 341.281 56.9844 341.898 56.9844C342.699 56.9844 343.539 56.9219 344.414 56.7969C345.297 56.6641 346.101 56.418 346.82 56.0625C347.539 55.6992 348.133 55.1992 348.601 54.5625C349.07 53.918 349.304 53.0938 349.304 52.0938C349.304 51.1562 349.094 50.4336 348.679 49.9219C348.273 49.4141 347.75 49.0312 347.117 48.7812C346.48 48.5234 345.781 48.3438 345.023 48.25C344.273 48.1484 343.554 48.0469 342.867 47.9531C341.98 47.8203 340.992 47.6523 339.898 47.4531C338.812 47.2578 337.797 46.9492 336.851 46.5312C335.914 46.1055 335.121 45.5312 334.476 44.8125C333.828 44.0859 333.508 43.1328 333.508 41.9531C333.508 40.5781 333.808 39.4531 334.414 38.5781C335.027 37.7031 335.812 37.0156 336.773 36.5156C337.73 36.0156 338.797 35.668 339.976 35.4688C341.152 35.2617 342.308 35.1562 343.445 35.1562C344.82 35.1562 346.156 35.2461 347.461 35.4219C348.773 35.6016 350.074 35.9141 351.367 36.3594L351.07 37.2656C350.07 36.8594 348.902 36.5469 347.57 36.3281C346.234 36.1094 344.871 36 343.476 36C342.808 36 342.105 36.0547 341.367 36.1562C340.637 36.25 339.965 36.4375 339.351 36.7188C338.746 36.9922 338.242 37.3867 337.836 37.9062C337.437 38.4297 337.242 39.1094 337.242 39.9531C337.242 40.9531 337.465 41.7305 337.914 42.2812C338.371 42.8242 339 43.2344 339.804 43.5156C340.605 43.7891 341.547 43.9844 342.633 44.1094C343.726 44.2344 344.902 44.3867 346.164 44.5625C347.652 44.7617 348.844 45.0703 349.742 45.4844C350.648 45.8906 351.344 46.3555 351.836 46.875C352.324 47.3984 352.648 47.9492 352.804 48.5312C352.961 49.1055 353.039 49.6562 353.039 50.1875ZM364.664 41.4844H361.539V54.5156C361.539 54.9219 361.656 55.3281 361.898 55.7344C362.148 56.1328 362.5 56.3281 362.961 56.3281H364.57L364.367 57.1562H359.601C359.047 57.1562 358.656 56.9023 358.429 56.3906C358.211 55.8828 358.101 55.3516 358.101 54.7969V41.4844H355.633L355.929 40.6562H358.101V35.8906H361.539V40.6562H364.898L364.664 41.4844ZM386.699 48.4844C386.699 49.8203 386.449 51.0469 385.949 52.1719C385.449 53.2969 384.754 54.2656 383.871 55.0781C382.996 55.8906 381.953 56.5273 380.746 56.9844C379.535 57.4297 378.219 57.6562 376.793 57.6562C375.375 57.6562 374.062 57.4297 372.855 56.9844C371.656 56.5273 370.621 55.8906 369.746 55.0781C368.871 54.2656 368.183 53.2969 367.683 52.1719C367.183 51.0469 366.933 49.8203 366.933 48.4844C366.933 47.1523 367.183 45.9297 367.683 44.8125C368.183 43.6875 368.871 42.7188 369.746 41.9062C370.621 41.0938 371.656 40.4648 372.855 40.0156C374.062 39.5586 375.375 39.3281 376.793 39.3281C378.219 39.3281 379.535 39.5586 380.746 40.0156C381.953 40.4648 382.996 41.0938 383.871 41.9062C384.754 42.7188 385.449 43.6875 385.949 44.8125C386.449 45.9297 386.699 47.1523 386.699 48.4844ZM382.824 48.4844C382.824 47.5156 382.746 46.5273 382.59 45.5156C382.433 44.4961 382.129 43.5781 381.683 42.7656C381.246 41.9453 380.629 41.2734 379.84 40.75C379.058 40.2188 378.043 39.9531 376.793 39.9531C375.551 39.9531 374.543 40.2188 373.762 40.75C372.988 41.2734 372.379 41.9453 371.933 42.7656C371.484 43.5781 371.183 44.4961 371.027 45.5156C370.871 46.5273 370.793 47.5156 370.793 48.4844C370.793 49.4648 370.871 50.4609 371.027 51.4688C371.183 52.4805 371.484 53.3984 371.933 54.2188C372.379 55.043 372.988 55.7148 373.762 56.2344C374.543 56.7578 375.551 57.0156 376.793 57.0156C378.043 57.0156 379.058 56.7578 379.84 56.2344C380.629 55.7148 381.246 55.043 381.683 54.2188C382.129 53.3984 382.433 52.4805 382.59 51.4688C382.746 50.4609 382.824 49.4648 382.824 48.4844ZM404.023 57.1562C403.937 56.8438 403.812 56.4375 403.648 55.9375C403.48 55.4375 403.289 54.9141 403.07 54.3594C402.859 53.8086 402.648 53.2578 402.429 52.7031C402.211 52.1406 401.996 51.6484 401.789 51.2188C401.527 50.6484 401.242 50.1797 400.929 49.8125C400.617 49.4375 400.242 49.1367 399.804 48.9062C399.375 48.6797 398.871 48.5234 398.289 48.4375C397.715 48.3438 397.027 48.2969 396.226 48.2969H395.164L395.695 47.4844H398.367C399 47.4844 399.605 47.4297 400.179 47.3125C400.762 47.1875 401.273 46.9844 401.711 46.7031C402.148 46.4141 402.496 46.0391 402.758 45.5781C403.027 45.1211 403.164 44.5469 403.164 43.8594C403.164 43.3281 403.027 42.8672 402.758 42.4688C402.496 42.0625 402.133 41.7305 401.664 41.4688C401.195 41.1992 400.648 40.9961 400.023 40.8594C399.406 40.7266 398.73 40.6562 397.992 40.6562H395.258C394.84 40.6562 394.496 40.8203 394.226 41.1406C393.965 41.4648 393.836 41.8398 393.836 42.2656V57.1562H390.398V41.9844C390.398 41.4766 390.515 40.9922 390.758 40.5312C391.008 40.0625 391.387 39.8281 391.898 39.8281H397.164C400.383 39.8281 402.773 40.1523 404.336 40.7969C405.906 41.4453 406.695 42.5312 406.695 44.0625C406.695 44.75 406.531 45.3438 406.211 45.8438C405.887 46.3438 405.445 46.7656 404.883 47.1094C404.328 47.4531 403.672 47.7188 402.914 47.9062C402.164 48.0938 401.355 48.2109 400.492 48.25V48.2969C401.293 48.4766 401.996 48.6719 402.601 48.8906C403.215 49.1094 403.758 49.4062 404.226 49.7812C404.695 50.1484 405.109 50.6016 405.476 51.1406C405.84 51.6836 406.187 52.3555 406.523 53.1562L408.164 57.1562H404.023ZM419.394 56.8594C419.144 57.3281 418.867 57.8281 418.566 58.3594C418.273 58.8906 417.961 59.4062 417.629 59.9062C417.293 60.4062 416.933 60.875 416.551 61.3125C416.176 61.7578 415.777 62.1406 415.363 62.4531C414.183 63.3164 412.629 63.75 410.691 63.75H410.222L410.519 62.8906C411.164 62.8906 411.73 62.8477 412.222 62.7656C412.711 62.6914 413.179 62.5664 413.629 62.3906C414.179 62.1719 414.683 61.8516 415.144 61.4375C415.601 61.0312 416.019 60.582 416.394 60.0938C416.769 59.6016 417.09 59.1094 417.363 58.6094C417.644 58.1094 417.871 57.6562 418.051 57.25L409.254 39.8281H413.16L420.097 53.5625L427.191 39.8281H428.191L419.394 56.8594ZM438.586 41.4844H435.461V54.5156C435.461 54.9219 435.578 55.3281 435.82 55.7344C436.07 56.1328 436.422 56.3281 436.883 56.3281H438.492L438.289 57.1562H433.523C432.969 57.1562 432.578 56.9023 432.351 56.3906C432.133 55.8828 432.023 55.3516 432.023 54.7969V41.4844H429.554L429.851 40.6562H432.023V35.8906H435.461V40.6562H438.82L438.586 41.4844ZM443.59 57.1562C443.035 57.1562 442.644 56.9023 442.418 56.3906C442.199 55.8828 442.09 55.3516 442.09 54.7969V41.9844C442.09 41.4766 442.207 40.9922 442.449 40.5312C442.699 40.0625 443.078 39.8281 443.59 39.8281H457.683V40.6562H446.949C446.531 40.6562 446.187 40.8203 445.918 41.1406C445.656 41.4648 445.527 41.8398 445.527 42.2656V47.3594H456.355V48.1875H445.527V54.5156C445.527 54.9219 445.644 55.3281 445.887 55.7344C446.125 56.1328 446.48 56.3281 446.949 56.3281H458.746V57.1562H443.59ZM468.215 57.1562H464.058C463.496 57.1562 463.105 56.9023 462.887 56.3906C462.668 55.8828 462.558 55.3516 462.558 54.7969V33H465.98V54.5156C465.98 54.9219 466.097 55.3281 466.34 55.7344C466.59 56.1328 466.949 56.3281 467.418 56.3281H468.48L468.215 57.1562ZM477.476 57.1562H473.32C472.758 57.1562 472.367 56.9023 472.148 56.3906C471.929 55.8828 471.82 55.3516 471.82 54.7969V33H475.242V54.5156C475.242 54.9219 475.359 55.3281 475.601 55.7344C475.851 56.1328 476.211 56.3281 476.679 56.3281H477.742L477.476 57.1562ZM484.773 35.5625C484.773 36.0938 484.586 36.5586 484.211 36.9531C483.836 37.3398 483.355 37.5312 482.773 37.5312C482.242 37.5312 481.781 37.3398 481.398 36.9531C481.012 36.5586 480.82 36.0938 480.82 35.5625C480.82 35.0312 481.012 34.5703 481.398 34.1719C481.781 33.7656 482.242 33.5625 482.773 33.5625C483.355 33.5625 483.836 33.7656 484.211 34.1719C484.586 34.5703 484.773 35.0312 484.773 35.5625ZM481.086 57.1562V39.8281H484.508V57.1562H481.086ZM506.804 56.0156C506.804 56.5781 506.73 56.9688 506.586 57.1875C506.449 57.4062 506.265 57.5156 506.039 57.5156C505.797 57.5156 505.527 57.4141 505.226 57.2188C504.922 57.0234 504.652 56.8047 504.414 56.5625L491.773 44.6875C491.492 44.4297 491.262 44.2969 491.086 44.2969C490.949 44.2969 490.844 44.3555 490.773 44.4688C490.711 44.5742 490.68 44.6953 490.68 44.8281V57.1562H489.851V40.625C489.851 40.2305 489.945 39.9375 490.133 39.75C490.32 39.5547 490.547 39.4531 490.82 39.4531C491.121 39.4531 491.437 39.6016 491.773 39.8906L504.914 52.0938C505.09 52.2734 505.234 52.3906 505.351 52.4531C505.476 52.5078 505.574 52.5312 505.648 52.5312C505.781 52.5312 505.871 52.4766 505.914 52.3594C505.953 52.2461 505.976 52.1367 505.976 52.0312V39.8281H506.805L506.804 56.0156ZM528.636 56.1562C528.636 57.7812 528.332 59.0859 527.73 60.0781C527.136 61.0664 526.402 61.832 525.527 62.375C524.652 62.9141 523.699 63.2812 522.668 63.4688C521.644 63.6562 520.703 63.75 519.84 63.75H513.011L513.308 62.9219H520.636C521.105 62.9219 521.609 62.8594 522.152 62.7344C522.703 62.6172 523.199 62.2852 523.636 61.7344C524.082 61.1914 524.457 60.3594 524.761 59.2344C525.062 58.1172 525.215 56.5625 525.215 54.5625V42.0625C524.496 41.5938 523.672 41.1875 522.746 40.8438C521.828 40.5 520.816 40.3281 519.715 40.3281C518.558 40.3281 517.609 40.5625 516.871 41.0312C516.14 41.4922 515.562 42.1016 515.136 42.8594C514.719 43.6094 514.426 44.4648 514.261 45.4219C514.094 46.3828 514.011 47.3516 514.011 48.3281C514.011 50.0781 514.191 51.4805 514.558 52.5312C514.922 53.5742 515.426 54.3828 516.074 54.9531C516.719 55.5156 517.469 55.8867 518.324 56.0625C519.176 56.2422 520.105 56.3281 521.105 56.3281H523.402L523.871 57.1562H518.746C517.566 57.1562 516.453 56.9609 515.402 56.5625C514.359 56.1562 513.449 55.5859 512.668 54.8438C511.894 54.0938 511.281 53.1719 510.824 52.0781C510.375 50.9766 510.152 49.7266 510.152 48.3281C510.152 47.1719 510.363 46.0586 510.793 44.9844C511.23 43.9023 511.828 42.9453 512.59 42.1094C513.359 41.2773 514.265 40.6055 515.308 40.0938C516.347 39.5859 517.472 39.3281 518.683 39.3281C520.371 39.3281 521.719 39.5078 522.73 39.8594C523.738 40.2148 524.566 40.6172 525.215 41.0625V39.6875H528.636V56.1562Z" fill="#665F20"/>
</svg>
