<svg width="482" height="64" viewBox="0 0 482 64" fill="none" xmlns="http://www.w3.org/2000/svg">
<path d="M19.7031 17.1875C19.7031 18.6562 19.3633 19.8828 18.6875 20.8594C18.0078 21.8398 17.1328 22.625 16.0625 23.2188C15 23.8047 13.8203 24.2109 12.5313 24.4531C11.25 24.7031 10.0039 24.8281 8.79688 24.8281C7.97266 24.8281 7.13281 24.7734 6.28125 24.6719C5.42578 24.5664 4.60938 24.4414 3.82812 24.2969C3.05469 24.1602 2.34375 23.9961 1.6875 23.7969C1.03125 23.5898 0.46875 23.3867 0 23.1875L0.171875 22.25C0.660156 22.4609 1.25781 22.668 1.96875 22.875C2.67578 23.0859 3.41406 23.2734 4.1875 23.4375C4.95703 23.6055 5.72266 23.7422 6.48438 23.8438C7.25391 23.9375 7.94531 23.9844 8.5625 23.9844C9.36328 23.9844 10.2031 23.9219 11.0781 23.7969C11.9609 23.6641 12.7656 23.418 13.4844 23.0625C14.2031 22.6992 14.7969 22.1992 15.2656 21.5625C15.7344 20.918 15.9688 20.0938 15.9688 19.0938C15.9688 18.1562 15.7578 17.4336 15.3438 16.9219C14.9375 16.4141 14.4141 16.0312 13.7813 15.7812C13.1445 15.5234 12.4453 15.3438 11.6875 15.25C10.9375 15.1484 10.2188 15.0469 9.53125 14.9531C8.64453 14.8203 7.65625 14.6523 6.5625 14.4531C5.47656 14.2578 4.46094 13.9492 3.51562 13.5312C2.57812 13.1055 1.78516 12.5312 1.14062 11.8125C0.492188 11.0859 0.171875 10.1328 0.171875 8.95312C0.171875 7.57812 0.472656 6.45312 1.07812 5.57812C1.69141 4.70312 2.47656 4.01562 3.4375 3.51562C4.39453 3.01562 5.46094 2.66797 6.64062 2.46875C7.81641 2.26172 8.97266 2.15625 10.1094 2.15625C11.4844 2.15625 12.8203 2.24609 14.125 2.42188C15.4375 2.60156 16.7383 2.91406 18.0312 3.35938L17.7344 4.26562C16.7344 3.85938 15.5664 3.54688 14.2344 3.32812C12.8984 3.10938 11.5352 3 10.1406 3C9.47266 3 8.76953 3.05469 8.03125 3.15625C7.30078 3.25 6.62891 3.4375 6.01562 3.71875C5.41016 3.99219 4.90625 4.38672 4.5 4.90625C4.10156 5.42969 3.90625 6.10938 3.90625 6.95312C3.90625 7.95312 4.12891 8.73047 4.57812 9.28125C5.03516 9.82422 5.66406 10.2344 6.46875 10.5156C7.26953 10.7891 8.21094 10.9844 9.29688 11.1094C10.3906 11.2344 11.5664 11.3867 12.8281 11.5625C14.3164 11.7617 15.5078 12.0703 16.4062 12.4844C17.3125 12.8906 18.0078 13.3555 18.5 13.875C18.9883 14.3984 19.3125 14.9492 19.4688 15.5312C19.625 16.1055 19.7031 16.6562 19.7031 17.1875ZM31.3281 8.48437H28.2031V21.5156C28.2031 21.9219 28.3203 22.3281 28.5625 22.7344C28.8125 23.1328 29.1641 23.3281 29.625 23.3281H31.2344L31.0312 24.1562H26.2656C25.7109 24.1562 25.3203 23.9023 25.0938 23.3906C24.875 22.8828 24.7656 22.3516 24.7656 21.7969V8.48437H22.2969L22.5938 7.65625H24.7656V2.89062H28.2031V7.65625H31.5625L31.3281 8.48437ZM42.8359 23.8594C42.5859 24.3281 42.3086 24.8281 42.0078 25.3594C41.7148 25.8906 41.4023 26.4062 41.0703 26.9062C40.7344 27.4062 40.375 27.875 39.9922 28.3125C39.6172 28.7578 39.2188 29.1406 38.8047 29.4531C37.625 30.3164 36.0703 30.75 34.1328 30.75H33.6641L33.9609 29.8906C34.6055 29.8906 35.1719 29.8477 35.6641 29.7656C36.1523 29.6914 36.6211 29.5664 37.0703 29.3906C37.6211 29.1719 38.125 28.8516 38.5859 28.4375C39.043 28.0312 39.4609 27.582 39.8359 27.0938C40.2109 26.6016 40.5313 26.1094 40.8047 25.6094C41.0859 25.1094 41.3125 24.6562 41.4922 24.25L32.6953 6.82812H36.6016L43.5391 20.5625L50.6328 6.82812H51.6328L42.8359 23.8594ZM60.5547 24.1562H56.3984C55.8359 24.1562 55.4453 23.9023 55.2266 23.3906C55.0078 22.8828 54.8984 22.3516 54.8984 21.7969V0H58.3203V21.5156C58.3203 21.9219 58.4375 22.3281 58.6797 22.7344C58.9297 23.1328 59.2891 23.3281 59.7578 23.3281H60.8203L60.5547 24.1562ZM67.8516 2.5625C67.8516 3.09375 67.6641 3.55859 67.2891 3.95312C66.9141 4.33984 66.4336 4.53125 65.8516 4.53125C65.3203 4.53125 64.8594 4.33984 64.4766 3.95312C64.0898 3.55859 63.8984 3.09375 63.8984 2.5625C63.8984 2.03125 64.0898 1.57031 64.4766 1.17188C64.8594 0.765625 65.3203 0.5625 65.8516 0.5625C66.4336 0.5625 66.9141 0.765625 67.2891 1.17188C67.6641 1.57031 67.8516 2.03125 67.8516 2.5625ZM64.1641 24.1562V6.82812H67.5859V24.1562H64.1641ZM87.5859 7.26562C87.5859 7.44531 87.4844 7.6875 87.2891 8C87.0899 8.30469 86.7891 8.72656 86.3828 9.26562L76.4297 22.2969C76.1797 22.6016 76.0547 22.8281 76.0547 22.9844C76.0547 23.1641 76.1367 23.2656 76.3047 23.2969C76.4688 23.3203 76.6406 23.3281 76.8203 23.3281H87.1172V24.1562H72.8516C72.4766 24.1562 72.1524 24.1367 71.8828 24.0938C71.6211 24.043 71.4922 23.8984 71.4922 23.6562C71.4922 23.4805 71.5781 23.2305 71.7578 22.9062C71.9336 22.5859 72.2344 22.1562 72.6641 21.625L82.5547 8.89062C82.6875 8.71484 82.8125 8.54297 82.9297 8.375C83.0547 8.21094 83.1172 8.05859 83.1172 7.92188C83.1172 7.74609 82.9297 7.65625 82.5547 7.65625H73.0547V6.82812H86.1172C86.5859 6.82812 86.9453 6.85156 87.1953 6.89062C87.4531 6.9336 87.5859 7.05859 87.5859 7.26562ZM103.98 24.1562V14.2656H101.355C100.469 14.2656 99.582 14.3359 98.6992 14.4688C97.8242 14.5938 97.043 14.8516 96.3555 15.2344C95.668 15.6094 95.1094 16.1367 94.6836 16.8125C94.2656 17.4922 94.0586 18.3711 94.0586 19.4531C94.0586 20.6836 94.3867 21.6367 95.043 22.3125C95.6992 22.9922 96.7461 23.3281 98.1836 23.3281H102.215L102.652 24.1562H97.2149C96.3477 24.1562 95.5 24.0703 94.668 23.8906C93.832 23.7148 93.082 23.4297 92.418 23.0312C91.75 22.625 91.207 22.0898 90.793 21.4219C90.3867 20.7578 90.1836 19.9219 90.1836 18.9219C90.1836 18.1016 90.375 17.3906 90.7617 16.7969C91.1563 16.1953 91.6758 15.6953 92.3242 15.2969C92.9688 14.8906 93.6914 14.5703 94.4961 14.3281C95.3086 14.0781 96.125 13.8906 96.9492 13.7656C97.7695 13.6328 98.5781 13.543 99.3711 13.5C100.16 13.4492 100.844 13.4219 101.418 13.4219H103.98V12.4219C103.98 10.8281 103.59 9.54687 102.809 8.57812C102.035 7.60937 100.809 7.12499 99.1211 7.12499C97.5156 7.12499 96.0742 7.27734 94.793 7.57812C93.5195 7.88281 92.3633 8.32031 91.3242 8.89062L91.0899 7.98437C92.4024 7.29687 93.7774 6.85156 95.2149 6.64062C96.6602 6.43359 98.1289 6.32812 99.6211 6.32812C100.578 6.32812 101.52 6.42187 102.449 6.60937C103.387 6.79687 104.219 7.10937 104.949 7.54687C105.688 7.97656 106.281 8.54687 106.73 9.26562C107.188 9.97656 107.418 10.8516 107.418 11.8906V24.1562H103.98ZM128.543 22.0938C127.699 22.8438 126.613 23.4609 125.293 23.9375C123.98 24.4141 122.465 24.6562 120.746 24.6562C119.328 24.6562 118.016 24.4297 116.809 23.9844C115.609 23.5273 114.574 22.8906 113.699 22.0781C112.824 21.2656 112.137 20.2969 111.637 19.1719C111.137 18.0469 110.887 16.8203 110.887 15.4844C110.887 14.1523 111.137 12.9297 111.637 11.8125C112.137 10.6875 112.824 9.71875 113.699 8.90625C114.574 8.09375 115.609 7.46484 116.809 7.01562C118.016 6.55859 119.328 6.32812 120.746 6.32812C122.348 6.32812 123.781 6.53906 125.043 6.95312C126.313 7.35938 127.34 7.82812 128.121 8.35937L127.887 9.26562C126.988 8.66406 125.953 8.15625 124.777 7.75C123.598 7.33594 122.246 7.125 120.715 7.125C119.629 7.125 118.707 7.37109 117.949 7.85938C117.199 8.35156 116.582 8.99219 116.105 9.78125C115.625 10.5625 115.277 11.4531 115.059 12.4531C114.848 13.4531 114.746 14.4648 114.746 15.4844C114.746 16.9961 114.934 18.2773 115.309 19.3281C115.691 20.3711 116.188 21.2188 116.793 21.875C117.406 22.5312 118.094 23.0117 118.855 23.3125C119.625 23.6055 120.402 23.75 121.184 23.75C122.609 23.75 123.918 23.5312 125.105 23.0938C126.293 22.6484 127.34 22.0312 128.246 21.25L128.543 22.0938ZM136.348 2.5625C136.348 3.09375 136.16 3.55859 135.785 3.95312C135.41 4.33984 134.93 4.53125 134.348 4.53125C133.816 4.53125 133.352 4.33984 132.957 3.95312C132.57 3.55859 132.379 3.09375 132.379 2.5625C132.379 2.03125 132.57 1.57031 132.957 1.17188C133.352 0.765625 133.816 0.5625 134.348 0.5625C134.93 0.5625 135.41 0.765625 135.785 1.17188C136.16 1.57031 136.348 2.03125 136.348 2.5625ZM136.082 23.1562C136.082 24.7812 135.762 26.0859 135.129 27.0781C134.492 28.0664 133.73 28.832 132.848 29.375C131.961 29.9141 131.035 30.2812 130.066 30.4688C129.098 30.6562 128.281 30.75 127.613 30.75H126.582L126.848 30.0938H127.754C128.129 30.0938 128.605 30.0352 129.176 29.9219C129.738 29.8047 130.273 29.4727 130.785 28.9219C131.293 28.3672 131.73 27.5195 132.098 26.375C132.461 25.2266 132.645 23.625 132.645 21.5625V6.82812H136.082V23.1562ZM142.785 24.1562C142.23 24.1562 141.84 23.9023 141.613 23.3906C141.395 22.8828 141.285 22.3516 141.285 21.7969V8.98437C141.285 8.47656 141.402 7.99219 141.645 7.53125C141.895 7.0625 142.273 6.82812 142.785 6.82812H156.879V7.65625H146.145C145.727 7.65625 145.383 7.82031 145.113 8.14062C144.852 8.46484 144.723 8.83984 144.723 9.26562V14.3594H155.551V15.1875H144.723V21.5156C144.723 21.9219 144.84 22.3281 145.082 22.7344C145.32 23.1328 145.676 23.3281 146.145 23.3281H157.941V24.1562H142.785ZM186.703 7.26562C186.703 7.44531 186.602 7.6875 186.406 8C186.207 8.30469 185.906 8.72656 185.5 9.26562L175.547 22.2969C175.297 22.6016 175.172 22.8281 175.172 22.9844C175.172 23.1641 175.254 23.2656 175.422 23.2969C175.586 23.3203 175.758 23.3281 175.938 23.3281H186.234V24.1562H171.969C171.594 24.1562 171.27 24.1367 171 24.0938C170.738 24.043 170.609 23.8984 170.609 23.6562C170.609 23.4805 170.695 23.2305 170.875 22.9062C171.051 22.5859 171.352 22.1562 171.781 21.625L181.672 8.89062C181.805 8.71484 181.93 8.54297 182.047 8.375C182.172 8.21094 182.234 8.05859 182.234 7.92188C182.234 7.74609 182.047 7.65625 181.672 7.65625H172.172V6.82812H185.234C185.703 6.82812 186.062 6.85156 186.312 6.89062C186.57 6.9336 186.703 7.05859 186.703 7.26562ZM218.133 23.1562C218.133 24.7812 217.828 26.0859 217.227 27.0781C216.633 28.0664 215.898 28.832 215.023 29.375C214.148 29.9141 213.195 30.2812 212.164 30.4688C211.141 30.6562 210.199 30.75 209.336 30.75H202.508L202.805 29.9219H210.133C210.602 29.9219 211.105 29.8594 211.648 29.7344C212.199 29.6172 212.695 29.2852 213.133 28.7344C213.578 28.1914 213.953 27.3594 214.258 26.2344C214.559 25.1172 214.711 23.5625 214.711 21.5625V9.0625C213.992 8.59375 213.168 8.1875 212.242 7.84375C211.324 7.5 210.312 7.32812 209.211 7.32812C208.055 7.32812 207.105 7.5625 206.367 8.03125C205.637 8.49219 205.059 9.10156 204.633 9.85937C204.215 10.6094 203.922 11.4648 203.758 12.4219C203.59 13.3828 203.508 14.3516 203.508 15.3281C203.508 17.0781 203.688 18.4805 204.055 19.5312C204.418 20.5742 204.922 21.3828 205.57 21.9531C206.215 22.5156 206.965 22.8867 207.82 23.0625C208.672 23.2422 209.602 23.3281 210.602 23.3281H212.898L213.367 24.1562H208.242C207.062 24.1562 205.949 23.9609 204.898 23.5625C203.855 23.1562 202.945 22.5859 202.164 21.8438C201.391 21.0938 200.777 20.1719 200.32 19.0781C199.871 17.9766 199.648 16.7266 199.648 15.3281C199.648 14.1719 199.859 13.0586 200.289 11.9844C200.727 10.9023 201.324 9.94531 202.086 9.10937C202.855 8.27734 203.762 7.60547 204.805 7.09375C205.844 6.58594 206.969 6.32812 208.18 6.32812C209.867 6.32812 211.215 6.50781 212.227 6.85938C213.234 7.21484 214.062 7.61719 214.711 8.0625V6.6875H218.133V23.1562ZM237.125 24.1562V6.82812H240.562V24.1562H237.125ZM230.094 24.1562C228.969 24.1562 227.957 24.043 227.062 23.8125C226.176 23.5742 225.43 23.1797 224.828 22.625C224.234 22.0742 223.781 21.3398 223.469 20.4219C223.156 19.4961 223 18.3398 223 16.9531V6.82812H226.438V16.9844C226.438 17.7891 226.523 18.5703 226.703 19.3281C226.879 20.0781 227.16 20.75 227.547 21.3438C227.941 21.9297 228.445 22.4062 229.062 22.7812C229.688 23.1484 230.441 23.3281 231.328 23.3281H235.328L235.797 24.1562H230.094ZM262.723 24.1562V10.2187C262.723 9.91797 262.645 9.76562 262.488 9.76562C262.363 9.76562 262.211 9.90625 262.035 10.1875L254.301 24.1562H253.895L246.332 10.3281C246.113 9.95312 245.945 9.76562 245.832 9.76562C245.738 9.76562 245.676 9.83593 245.645 9.96875C245.613 10.0937 245.598 10.2344 245.598 10.3906V24.1562H244.77V8.95312C244.77 8.10937 244.93 7.46484 245.254 7.01562C245.574 6.55859 245.965 6.32812 246.426 6.32812C246.809 6.32812 247.195 6.48438 247.582 6.79688C247.965 7.10938 248.352 7.60156 248.738 8.26562L255.27 20.25H255.363L261.957 8.45312C262.34 7.74609 262.762 7.21484 263.223 6.85938C263.691 6.50781 264.129 6.32812 264.535 6.32812C264.992 6.32812 265.379 6.5625 265.691 7.03125C266.004 7.49219 266.16 8.21875 266.16 9.21875V24.1562H262.723ZM284.66 24.1562L281.488 18.8906C281.309 18.6016 281.086 18.2188 280.816 17.75C280.555 17.2734 280.258 16.8047 279.926 16.3438C279.59 15.8867 279.215 15.4922 278.801 15.1562C278.395 14.8242 277.965 14.6562 277.52 14.6562C277.258 14.6562 277.02 14.7422 276.801 14.9062C276.59 15.0742 276.355 15.3125 276.098 15.625V14.3906L285.363 6.82812H286.691L278.098 13.7969V13.8594C278.254 13.8398 278.395 13.8281 278.52 13.8281C278.652 13.8281 278.789 13.8281 278.926 13.8281C279.926 13.8281 280.758 13.9766 281.426 14.2656C282.09 14.5469 282.68 14.9375 283.191 15.4375C283.699 15.9375 284.164 16.5117 284.582 17.1562C285.008 17.8047 285.465 18.4922 285.957 19.2188L289.223 24.1562H284.66ZM271.332 24.1562V0H274.754V24.1562H271.332ZM305.516 24.1562V14.2656H302.891C302.004 14.2656 301.117 14.3359 300.234 14.4688C299.359 14.5938 298.578 14.8516 297.891 15.2344C297.203 15.6094 296.645 16.1367 296.219 16.8125C295.801 17.4922 295.594 18.3711 295.594 19.4531C295.594 20.6836 295.922 21.6367 296.578 22.3125C297.234 22.9922 298.281 23.3281 299.719 23.3281H303.75L304.188 24.1562H298.75C297.883 24.1562 297.035 24.0703 296.203 23.8906C295.367 23.7148 294.617 23.4297 293.953 23.0312C293.285 22.625 292.742 22.0898 292.328 21.4219C291.922 20.7578 291.719 19.9219 291.719 18.9219C291.719 18.1016 291.91 17.3906 292.297 16.7969C292.691 16.1953 293.211 15.6953 293.859 15.2969C294.504 14.8906 295.227 14.5703 296.031 14.3281C296.844 14.0781 297.66 13.8906 298.484 13.7656C299.305 13.6328 300.113 13.543 300.906 13.5C301.695 13.4492 302.379 13.4219 302.953 13.4219H305.516V12.4219C305.516 10.8281 305.125 9.54687 304.344 8.57812C303.57 7.60937 302.344 7.12499 300.656 7.12499C299.051 7.12499 297.609 7.27734 296.328 7.57812C295.055 7.88281 293.898 8.32031 292.859 8.89062L292.625 7.98437C293.938 7.29687 295.312 6.85156 296.75 6.64062C298.195 6.43359 299.664 6.32812 301.156 6.32812C302.113 6.32812 303.055 6.42187 303.984 6.60937C304.922 6.79687 305.754 7.10937 306.484 7.54687C307.223 7.97656 307.816 8.54687 308.266 9.26562C308.723 9.97656 308.953 10.8516 308.953 11.8906V24.1562H305.516ZM331.578 24.1562V10.2187C331.578 9.91797 331.5 9.76562 331.344 9.76562C331.219 9.76562 331.066 9.90625 330.891 10.1875L323.156 24.1562H322.75L315.188 10.3281C314.969 9.95312 314.801 9.76562 314.688 9.76562C314.594 9.76562 314.531 9.83593 314.5 9.96875C314.469 10.0937 314.453 10.2344 314.453 10.3906V24.1562H313.625V8.95312C313.625 8.10937 313.785 7.46484 314.109 7.01562C314.43 6.55859 314.82 6.32812 315.281 6.32812C315.664 6.32812 316.051 6.48438 316.437 6.79688C316.82 7.10938 317.207 7.60156 317.594 8.26562L324.125 20.25H324.219L330.812 8.45312C331.195 7.74609 331.617 7.21484 332.078 6.85938C332.547 6.50781 332.984 6.32812 333.391 6.32812C333.848 6.32812 334.234 6.5625 334.547 7.03125C334.859 7.49219 335.016 8.21875 335.016 9.21875V24.1562H331.578ZM344.141 2.5625C344.141 3.09375 343.953 3.55859 343.578 3.95312C343.203 4.33984 342.723 4.53125 342.141 4.53125C341.609 4.53125 341.148 4.33984 340.766 3.95312C340.379 3.55859 340.188 3.09375 340.188 2.5625C340.188 2.03125 340.379 1.57031 340.766 1.17188C341.148 0.765625 341.609 0.5625 342.141 0.5625C342.723 0.5625 343.203 0.765625 343.578 1.17188C343.953 1.57031 344.141 2.03125 344.141 2.5625ZM340.453 24.1562V6.82812H343.875V24.1562H340.453ZM365.582 3.65625C365.133 3.65625 364.805 3.87109 364.598 4.29688C364.387 4.71484 364.285 5.14844 364.285 5.59375V12.4844H374.441V13.3281H364.285V24.1562H360.41V5.32812C360.41 5.05859 360.434 4.77734 360.488 4.48438C360.551 4.18359 360.637 3.91406 360.754 3.67188C360.879 3.42188 361.039 3.21875 361.238 3.0625C361.445 2.90625 361.695 2.82812 361.988 2.82812H377.848V3.65625H365.582ZM395.238 24.1562C395.152 23.8438 395.027 23.4375 394.863 22.9375C394.695 22.4375 394.504 21.9141 394.285 21.3594C394.074 20.8086 393.863 20.2578 393.645 19.7031C393.426 19.1406 393.211 18.6484 393.004 18.2188C392.742 17.6484 392.457 17.1797 392.145 16.8125C391.832 16.4375 391.457 16.1367 391.02 15.9062C390.59 15.6797 390.086 15.5234 389.504 15.4375C388.93 15.3438 388.242 15.2969 387.441 15.2969H386.379L386.91 14.4844H389.582C390.215 14.4844 390.82 14.4297 391.395 14.3125C391.977 14.1875 392.488 13.9844 392.926 13.7031C393.363 13.4141 393.711 13.0391 393.973 12.5781C394.242 12.1211 394.379 11.5469 394.379 10.8594C394.379 10.3281 394.242 9.86719 393.973 9.46875C393.711 9.0625 393.348 8.73047 392.879 8.46875C392.41 8.19922 391.863 7.99609 391.238 7.85938C390.621 7.72656 389.945 7.65625 389.207 7.65625H386.473C386.055 7.65625 385.711 7.82031 385.441 8.14062C385.18 8.46484 385.051 8.83984 385.051 9.26562V24.1562H381.613V8.98437C381.613 8.47656 381.73 7.99219 381.973 7.53125C382.223 7.0625 382.602 6.82812 383.113 6.82812H388.379C391.598 6.82812 393.988 7.15234 395.551 7.79688C397.121 8.44531 397.91 9.53125 397.91 11.0625C397.91 11.75 397.746 12.3437 397.426 12.8437C397.102 13.3437 396.66 13.7656 396.098 14.1094C395.543 14.4531 394.887 14.7188 394.129 14.9062C393.379 15.0938 392.57 15.2109 391.707 15.25V15.2969C392.508 15.4766 393.211 15.6719 393.816 15.8906C394.43 16.1094 394.973 16.4062 395.441 16.7812C395.91 17.1484 396.324 17.6016 396.691 18.1406C397.055 18.6836 397.402 19.3555 397.738 20.1562L399.379 24.1562H395.238ZM415.531 24.1562V14.2656H412.906C412.02 14.2656 411.133 14.3359 410.25 14.4688C409.375 14.5938 408.594 14.8516 407.906 15.2344C407.219 15.6094 406.66 16.1367 406.234 16.8125C405.816 17.4922 405.609 18.3711 405.609 19.4531C405.609 20.6836 405.938 21.6367 406.594 22.3125C407.25 22.9922 408.297 23.3281 409.734 23.3281H413.766L414.203 24.1562H408.766C407.898 24.1562 407.051 24.0703 406.219 23.8906C405.383 23.7148 404.633 23.4297 403.969 23.0312C403.301 22.625 402.758 22.0898 402.344 21.4219C401.938 20.7578 401.734 19.9219 401.734 18.9219C401.734 18.1016 401.926 17.3906 402.312 16.7969C402.707 16.1953 403.227 15.6953 403.875 15.2969C404.52 14.8906 405.242 14.5703 406.047 14.3281C406.859 14.0781 407.676 13.8906 408.5 13.7656C409.32 13.6328 410.129 13.543 410.922 13.5C411.711 13.4492 412.395 13.4219 412.969 13.4219H415.531V12.4219C415.531 10.8281 415.141 9.54687 414.359 8.57812C413.586 7.60937 412.359 7.12499 410.672 7.12499C409.066 7.12499 407.625 7.27734 406.344 7.57812C405.07 7.88281 403.914 8.32031 402.875 8.89062L402.641 7.98437C403.953 7.29687 405.328 6.85156 406.766 6.64062C408.211 6.43359 409.68 6.32812 411.172 6.32812C412.129 6.32812 413.07 6.42187 414 6.60937C414.938 6.79687 415.77 7.10937 416.5 7.54687C417.238 7.97656 417.832 8.54687 418.281 9.26562C418.738 9.97656 418.969 10.8516 418.969 11.8906V24.1562H415.531ZM440.594 23.0156C440.594 23.5781 440.52 23.9688 440.375 24.1875C440.238 24.4062 440.055 24.5156 439.828 24.5156C439.586 24.5156 439.316 24.4141 439.016 24.2188C438.711 24.0234 438.441 23.8047 438.203 23.5625L425.562 11.6875C425.281 11.4297 425.051 11.2969 424.875 11.2969C424.738 11.2969 424.633 11.3555 424.562 11.4687C424.5 11.5742 424.469 11.6953 424.469 11.8281V24.1562H423.641V7.625C423.641 7.23047 423.734 6.9375 423.922 6.75C424.109 6.55469 424.336 6.45312 424.609 6.45312C424.91 6.45312 425.227 6.60156 425.563 6.89062L438.703 19.0938C438.879 19.2734 439.023 19.3906 439.141 19.4531C439.266 19.5078 439.363 19.5312 439.438 19.5312C439.57 19.5312 439.66 19.4766 439.703 19.3594C439.742 19.2461 439.766 19.1367 439.766 19.0312V6.82812H440.594L440.594 23.0156ZM461.691 22.0938C460.848 22.8438 459.762 23.4609 458.441 23.9375C457.129 24.4141 455.613 24.6562 453.895 24.6562C452.477 24.6562 451.164 24.4297 449.957 23.9844C448.758 23.5273 447.723 22.8906 446.848 22.0781C445.973 21.2656 445.285 20.2969 444.785 19.1719C444.285 18.0469 444.035 16.8203 444.035 15.4844C444.035 14.1523 444.285 12.9297 444.785 11.8125C445.285 10.6875 445.973 9.71875 446.848 8.90625C447.723 8.09375 448.758 7.46484 449.957 7.01562C451.164 6.55859 452.477 6.32812 453.895 6.32812C455.496 6.32812 456.93 6.53906 458.191 6.95312C459.461 7.35938 460.488 7.82812 461.27 8.35937L461.035 9.26562C460.137 8.66406 459.102 8.15625 457.926 7.75C456.746 7.33594 455.395 7.125 453.863 7.125C452.777 7.125 451.855 7.37109 451.098 7.85938C450.348 8.35156 449.73 8.99219 449.254 9.78125C448.773 10.5625 448.426 11.4531 448.207 12.4531C447.996 13.4531 447.895 14.4648 447.895 15.4844C447.895 16.9961 448.082 18.2773 448.457 19.3281C448.84 20.3711 449.336 21.2188 449.941 21.875C450.555 22.5312 451.242 23.0117 452.004 23.3125C452.773 23.6055 453.551 23.75 454.332 23.75C455.758 23.75 457.066 23.5312 458.254 23.0938C459.441 22.6484 460.488 22.0312 461.395 21.25L461.691 22.0938ZM478.09 24.1562V14.2656H475.465C474.578 14.2656 473.691 14.3359 472.809 14.4688C471.934 14.5938 471.152 14.8516 470.465 15.2344C469.777 15.6094 469.219 16.1367 468.793 16.8125C468.375 17.4922 468.168 18.3711 468.168 19.4531C468.168 20.6836 468.496 21.6367 469.152 22.3125C469.809 22.9922 470.855 23.3281 472.293 23.3281H476.324L476.762 24.1562H471.324C470.457 24.1562 469.609 24.0703 468.777 23.8906C467.941 23.7148 467.191 23.4297 466.527 23.0312C465.859 22.625 465.316 22.0898 464.902 21.4219C464.496 20.7578 464.293 19.9219 464.293 18.9219C464.293 18.1016 464.484 17.3906 464.871 16.7969C465.266 16.1953 465.785 15.6953 466.434 15.2969C467.078 14.8906 467.801 14.5703 468.605 14.3281C469.418 14.0781 470.234 13.8906 471.059 13.7656C471.879 13.6328 472.688 13.543 473.48 13.5C474.27 13.4492 474.953 13.4219 475.527 13.4219H478.09V12.4219C478.09 10.8281 477.699 9.54687 476.918 8.57812C476.145 7.60937 474.918 7.12499 473.23 7.12499C471.625 7.12499 470.184 7.27734 468.902 7.57812C467.629 7.88281 466.473 8.32031 465.434 8.89062L465.199 7.98437C466.512 7.29687 467.887 6.85156 469.324 6.64062C470.77 6.43359 472.238 6.32812 473.73 6.32812C474.688 6.32812 475.629 6.42187 476.559 6.60937C477.496 6.79687 478.328 7.10937 479.059 7.54687C479.797 7.97656 480.391 8.54687 480.84 9.26562C481.297 9.97656 481.527 10.8516 481.527 11.8906V24.1562H478.09Z" fill="#665F20"/>
<path d="M60 48.6875C60 51.918 59.2344 54.25 57.7031 55.6875C56.1719 57.1172 53.7969 57.8281 50.5781 57.8281C49.3047 57.8281 48.0508 57.7383 46.8125 57.5625C45.582 57.3828 44.4844 57.0391 43.5156 56.5156C42.5547 55.9844 41.7734 55.2578 41.1719 54.3281C40.5781 53.3906 40.2812 52.168 40.2812 50.6563V35.8281H44.1406V50.625C44.1406 51.668 44.3164 52.5859 44.6719 53.375C45.0234 54.168 45.5195 54.8281 46.1563 55.3594C46.7891 55.8906 47.5391 56.2969 48.4062 56.5781C49.2695 56.8516 50.2109 56.9844 51.2344 56.9844C54.0156 56.9844 56.0313 56.3281 57.2813 55.0156C58.5391 53.6953 59.1719 51.5938 59.1719 48.7188V35.8281H60V48.6875ZM86.9922 54.8594C86.418 55.3711 85.7461 55.8125 84.9766 56.1875C84.2148 56.5625 83.3984 56.875 82.5234 57.125C81.6562 57.3633 80.75 57.5391 79.8047 57.6563C78.8672 57.7695 77.9336 57.8281 77.0078 57.8281C75.4453 57.8281 73.9141 57.5938 72.4141 57.125C70.9141 56.6563 69.5703 55.9609 68.3828 55.0313C67.1953 54.0938 66.2305 52.918 65.4922 51.5C64.7617 50.0742 64.3984 48.4023 64.3984 46.4844C64.3984 44.7773 64.7461 43.2266 65.4453 41.8281C66.1523 40.4219 67.1016 39.2305 68.2891 38.25C69.4766 37.2617 70.8438 36.5 72.3984 35.9688C73.9609 35.4297 75.6055 35.1562 77.3359 35.1562C79.3555 35.1562 81.0586 35.3516 82.4453 35.7344C83.8398 36.1094 84.9219 36.5156 85.6953 36.9531L85.3984 37.7656C84.6172 37.2578 83.6055 36.8359 82.3672 36.5C81.125 36.168 79.625 36 77.8672 36C76.3125 36 74.9688 36.3203 73.8359 36.9531C72.6992 37.5781 71.7617 38.4063 71.0234 39.4375C70.293 40.4688 69.75 41.6484 69.3984 42.9688C69.043 44.293 68.8672 45.6484 68.8672 47.0313C68.8672 48.3672 69.0625 49.6328 69.4609 50.8281C69.8672 52.0273 70.4297 53.0898 71.1484 54.0156C71.875 54.9336 72.7422 55.6563 73.7422 56.1875C74.7422 56.7188 75.8281 56.9844 77.0078 56.9844C79.2891 56.9844 80.875 56.5703 81.7734 55.7344C82.6797 54.9023 83.1328 53.6211 83.1328 51.8906V46.3281H86.9922V54.8594ZM113.629 54.7969C112.23 55.9219 110.652 56.7109 108.895 57.1563C107.145 57.6016 105.367 57.8281 103.566 57.8281C101.941 57.8281 100.367 57.5938 98.8477 57.125C97.3242 56.6563 95.9805 55.9609 94.8164 55.0313C93.6484 54.0938 92.7148 52.918 92.0195 51.5C91.3203 50.0742 90.9727 48.4023 90.9727 46.4844C90.9727 44.7773 91.3203 43.2266 92.0195 41.8281C92.7148 40.4219 93.6484 39.2305 94.8164 38.25C95.9805 37.2617 97.3242 36.5 98.8477 35.9688C100.367 35.4297 101.941 35.1562 103.566 35.1562C104.348 35.1562 105.148 35.2109 105.973 35.3125C106.805 35.4062 107.637 35.5625 108.473 35.7812C109.305 35.9922 110.117 36.25 110.91 36.5625C111.699 36.875 112.441 37.25 113.129 37.6875L112.832 38.6563C111.559 37.8125 110.098 37.1641 108.441 36.7031C106.785 36.2344 105.16 36 103.566 36C102.055 36 100.773 36.3203 99.7227 36.9531C98.6797 37.5781 97.8398 38.3906 97.207 39.3906C96.582 40.3906 96.1289 41.5156 95.8477 42.7656C95.5664 44.0078 95.4258 45.2461 95.4258 46.4844C95.4258 47.7344 95.5859 48.9844 95.9102 50.2344C96.2305 51.4766 96.7578 52.5938 97.4883 53.5938C98.2266 54.5938 99.1992 55.4141 100.41 56.0469C101.629 56.6719 103.121 56.9844 104.895 56.9844C105.426 56.9844 106.051 56.9219 106.77 56.7969C107.496 56.6641 108.246 56.4688 109.02 56.2188C109.801 55.9609 110.566 55.6367 111.316 55.25C112.074 54.8555 112.758 54.4141 113.363 53.9219L113.629 54.7969ZM133.66 36.6562C133.211 36.6562 132.883 36.8711 132.676 37.2969C132.465 37.7148 132.363 38.1484 132.363 38.5938V45.4844H142.52V46.3281H132.363V57.1563H128.488V38.3281C128.488 38.0586 128.512 37.7773 128.566 37.4844C128.629 37.1836 128.715 36.9141 128.832 36.6719C128.957 36.4219 129.117 36.2188 129.316 36.0625C129.523 35.9062 129.773 35.8281 130.066 35.8281H145.926V36.6562H133.66ZM162.613 57.1563V47.2656H159.988C159.102 47.2656 158.215 47.3359 157.332 47.4688C156.457 47.5938 155.676 47.8516 154.988 48.2344C154.301 48.6094 153.742 49.1367 153.316 49.8125C152.898 50.4922 152.691 51.3711 152.691 52.4531C152.691 53.6836 153.02 54.6367 153.676 55.3125C154.332 55.9922 155.379 56.3281 156.816 56.3281H160.848L161.285 57.1563H155.848C154.98 57.1563 154.133 57.0703 153.301 56.8906C152.465 56.7148 151.715 56.4297 151.051 56.0313C150.383 55.625 149.84 55.0898 149.426 54.4219C149.02 53.7578 148.816 52.9219 148.816 51.9219C148.816 51.1016 149.008 50.3906 149.395 49.7969C149.789 49.1953 150.309 48.6953 150.957 48.2969C151.602 47.8906 152.324 47.5703 153.129 47.3281C153.941 47.0781 154.758 46.8906 155.582 46.7656C156.402 46.6328 157.211 46.543 158.004 46.5C158.793 46.4492 159.477 46.4219 160.051 46.4219H162.613V45.4219C162.613 43.8281 162.223 42.5469 161.441 41.5781C160.668 40.6094 159.441 40.125 157.754 40.125C156.148 40.125 154.707 40.2773 153.426 40.5781C152.152 40.8828 150.996 41.3203 149.957 41.8906L149.723 40.9844C151.035 40.2969 152.41 39.8516 153.848 39.6406C155.293 39.4336 156.762 39.3281 158.254 39.3281C159.211 39.3281 160.152 39.4219 161.082 39.6094C162.02 39.7969 162.852 40.1094 163.582 40.5469C164.32 40.9766 164.914 41.5469 165.363 42.2656C165.82 42.9766 166.051 43.8516 166.051 44.8906V57.1563H162.613ZM186.082 51.75C186.082 52.9609 185.773 53.9453 185.16 54.7031C184.555 55.4531 183.785 56.0547 182.848 56.5C181.918 56.9375 180.91 57.2383 179.816 57.4063C178.723 57.5703 177.711 57.6563 176.785 57.6563C175.449 57.6563 174.121 57.5469 172.801 57.3281C171.477 57.1211 170.184 56.7891 168.926 56.3281L169.145 55.3906C169.664 55.6094 170.238 55.8086 170.863 55.9844C171.496 56.1641 172.164 56.3125 172.863 56.4375C173.559 56.5625 174.262 56.6641 174.973 56.7344C175.691 56.7969 176.363 56.8281 176.988 56.8281C177.633 56.8281 178.293 56.7734 178.973 56.6563C179.648 56.543 180.27 56.3516 180.832 56.0781C181.395 55.7969 181.852 55.4063 182.207 54.9063C182.57 54.4063 182.754 53.7813 182.754 53.0313C182.754 52.3867 182.629 51.875 182.379 51.5C182.137 51.1172 181.77 50.8125 181.27 50.5938C180.77 50.3672 180.148 50.2031 179.41 50.1094C178.68 50.0078 177.824 49.9141 176.848 49.8281C176.117 49.7578 175.348 49.6367 174.535 49.4688C173.723 49.3047 172.977 49.0391 172.301 48.6719C171.621 48.3086 171.066 47.8281 170.629 47.2344C170.199 46.6328 169.988 45.8594 169.988 44.9219C169.988 43.7656 170.273 42.8281 170.848 42.1094C171.43 41.3906 172.152 40.8281 173.02 40.4219C173.883 40.0078 174.824 39.7188 175.848 39.5625C176.867 39.4063 177.836 39.3281 178.754 39.3281C179.73 39.3281 180.777 39.4492 181.895 39.6875C183.02 39.918 184.035 40.2188 184.941 40.5938L184.676 41.4844C183.832 41.0898 182.855 40.7734 181.754 40.5313C180.66 40.2813 179.465 40.1563 178.176 40.1563C177.539 40.1563 176.926 40.2188 176.332 40.3438C175.746 40.4688 175.23 40.6836 174.785 40.9844C174.336 41.2773 173.977 41.668 173.707 42.1563C173.445 42.6484 173.316 43.2461 173.316 43.9531C173.316 44.5391 173.48 45.0156 173.816 45.3906C174.148 45.7656 174.59 46.0703 175.145 46.2969C175.707 46.5156 176.348 46.6836 177.066 46.7969C177.785 46.9023 178.523 46.9805 179.285 47.0313C181.637 47.1875 183.355 47.6172 184.441 48.3125C185.535 49.0117 186.082 50.1563 186.082 51.75ZM203.48 57.1563V46.0313C203.48 45.1875 203.391 44.4141 203.215 43.7031C203.035 42.9844 202.754 42.3672 202.371 41.8438C201.996 41.3242 201.512 40.9141 200.918 40.6094C200.332 40.3086 199.621 40.1563 198.777 40.1563C197.691 40.1563 196.688 40.3242 195.762 40.6563C194.844 40.9922 194.031 41.4023 193.324 41.8906V57.1563H189.887V33H193.324V41.0313C193.938 40.5859 194.746 40.1875 195.746 39.8438C196.746 39.5 198.098 39.3281 199.809 39.3281C200.723 39.3281 201.609 39.4609 202.465 39.7188C203.316 39.9688 204.074 40.3828 204.73 40.9531C205.387 41.5156 205.91 42.2578 206.309 43.1719C206.715 44.0781 206.918 45.1992 206.918 46.5313V57.1563H203.48ZM215.773 35.5625C215.773 36.0938 215.586 36.5586 215.211 36.9531C214.836 37.3398 214.355 37.5313 213.773 37.5313C213.242 37.5313 212.781 37.3398 212.398 36.9531C212.012 36.5586 211.82 36.0938 211.82 35.5625C211.82 35.0312 212.012 34.5703 212.398 34.1719C212.781 33.7656 213.242 33.5625 213.773 33.5625C214.355 33.5625 214.836 33.7656 215.211 34.1719C215.586 34.5703 215.773 35.0312 215.773 35.5625ZM212.086 57.1563V39.8281H215.508V57.1563H212.086ZM239.41 48.4844C239.41 49.8203 239.16 51.0469 238.66 52.1719C238.16 53.2969 237.465 54.2656 236.582 55.0781C235.707 55.8906 234.664 56.5273 233.457 56.9844C232.246 57.4297 230.93 57.6563 229.504 57.6563C228.086 57.6563 226.773 57.4297 225.566 56.9844C224.367 56.5273 223.332 55.8906 222.457 55.0781C221.582 54.2656 220.895 53.2969 220.395 52.1719C219.895 51.0469 219.645 49.8203 219.645 48.4844C219.645 47.1523 219.895 45.9297 220.395 44.8125C220.895 43.6875 221.582 42.7188 222.457 41.9063C223.332 41.0938 224.367 40.4648 225.566 40.0156C226.773 39.5586 228.086 39.3281 229.504 39.3281C230.93 39.3281 232.246 39.5586 233.457 40.0156C234.664 40.4648 235.707 41.0938 236.582 41.9063C237.465 42.7188 238.16 43.6875 238.66 44.8125C239.16 45.9297 239.41 47.1523 239.41 48.4844ZM235.535 48.4844C235.535 47.5156 235.457 46.5273 235.301 45.5156C235.145 44.4961 234.84 43.5781 234.395 42.7656C233.957 41.9453 233.34 41.2734 232.551 40.75C231.77 40.2188 230.754 39.9531 229.504 39.9531C228.262 39.9531 227.254 40.2188 226.473 40.75C225.699 41.2734 225.09 41.9453 224.645 42.7656C224.195 43.5781 223.895 44.4961 223.738 45.5156C223.582 46.5273 223.504 47.5156 223.504 48.4844C223.504 49.4648 223.582 50.4609 223.738 51.4688C223.895 52.4805 224.195 53.3984 224.645 54.2188C225.09 55.043 225.699 55.7148 226.473 56.2344C227.254 56.7578 228.262 57.0156 229.504 57.0156C230.754 57.0156 231.77 56.7578 232.551 56.2344C233.34 55.7148 233.957 55.043 234.395 54.2188C234.84 53.3984 235.145 52.4805 235.301 51.4688C235.457 50.4609 235.535 49.4648 235.535 48.4844ZM260.031 56.0156C260.031 56.5781 259.957 56.9688 259.812 57.1875C259.676 57.4063 259.492 57.5156 259.266 57.5156C259.023 57.5156 258.754 57.4141 258.453 57.2188C258.148 57.0234 257.879 56.8047 257.641 56.5625L245 44.6875C244.719 44.4297 244.488 44.2969 244.312 44.2969C244.176 44.2969 244.07 44.3555 244 44.4688C243.938 44.5742 243.906 44.6953 243.906 44.8281V57.1563H243.078V40.625C243.078 40.2305 243.172 39.9375 243.359 39.75C243.547 39.5547 243.773 39.4531 244.047 39.4531C244.348 39.4531 244.664 39.6016 245 39.8906L258.141 52.0938C258.316 52.2734 258.461 52.3906 258.578 52.4531C258.703 52.5078 258.801 52.5313 258.875 52.5313C259.008 52.5313 259.098 52.4766 259.141 52.3594C259.18 52.2461 259.203 52.1367 259.203 52.0313V39.8281H260.031L260.031 56.0156ZM274.332 57.8281H272.301L281.004 35.1562H283.035L274.332 57.8281ZM297.805 57.1563C297.512 57.1563 297.266 57.0781 297.07 56.9219C296.871 56.7656 296.711 56.5703 296.586 56.3281C296.461 56.0781 296.371 55.8086 296.32 55.5156C296.266 55.2148 296.242 54.9297 296.242 54.6563V35.8281H300.102V54.3906C300.102 54.8398 300.203 55.2773 300.414 55.7031C300.621 56.1211 300.949 56.3281 301.398 56.3281H314.133V57.1563H297.805ZM321.422 35.5625C321.422 36.0938 321.234 36.5586 320.859 36.9531C320.484 37.3398 320.004 37.5313 319.422 37.5313C318.891 37.5313 318.43 37.3398 318.047 36.9531C317.66 36.5586 317.469 36.0938 317.469 35.5625C317.469 35.0312 317.66 34.5703 318.047 34.1719C318.43 33.7656 318.891 33.5625 319.422 33.5625C320.004 33.5625 320.484 33.7656 320.859 34.1719C321.234 34.5703 321.422 35.0312 321.422 35.5625ZM317.734 57.1563V39.8281H321.156V57.1563H317.734ZM334.688 33.625C334.227 33.625 333.773 33.6641 333.328 33.7344C332.879 33.7969 332.484 33.9336 332.141 34.1406C331.797 34.3516 331.52 34.6641 331.312 35.0781C331.102 35.4844 331 36.0312 331 36.7188V40.6563H334.266L334.031 41.4844H331.062V57.1563H327.625V41.4844H324.734L325.094 40.6563H327.562V39.5938C327.562 38.3242 327.785 37.2656 328.234 36.4219C328.691 35.5781 329.273 34.9023 329.984 34.3906C330.703 33.8828 331.492 33.5234 332.359 33.3125C333.223 33.1055 334.066 33 334.891 33L334.688 33.625ZM339.129 57.1563C338.574 57.1563 338.184 56.9023 337.957 56.3906C337.738 55.8828 337.629 55.3516 337.629 54.7969V41.9844C337.629 41.4766 337.746 40.9922 337.988 40.5313C338.238 40.0625 338.617 39.8281 339.129 39.8281H353.223V40.6563H342.488C342.07 40.6563 341.727 40.8203 341.457 41.1406C341.195 41.4648 341.066 41.8398 341.066 42.2656V47.3594H351.895V48.1875H341.066V54.5156C341.066 54.9219 341.184 55.3281 341.426 55.7344C341.664 56.1328 342.02 56.3281 342.488 56.3281H354.285V57.1563H339.129ZM372.953 51.75C372.953 52.9609 372.645 53.9453 372.031 54.7031C371.426 55.4531 370.656 56.0547 369.719 56.5C368.789 56.9375 367.781 57.2383 366.688 57.4063C365.594 57.5703 364.582 57.6563 363.656 57.6563C362.32 57.6563 360.992 57.5469 359.672 57.3281C358.348 57.1211 357.055 56.7891 355.797 56.3281L356.016 55.3906C356.535 55.6094 357.109 55.8086 357.734 55.9844C358.367 56.1641 359.035 56.3125 359.734 56.4375C360.43 56.5625 361.133 56.6641 361.844 56.7344C362.562 56.7969 363.234 56.8281 363.859 56.8281C364.504 56.8281 365.164 56.7734 365.844 56.6563C366.52 56.543 367.141 56.3516 367.703 56.0781C368.266 55.7969 368.723 55.4063 369.078 54.9063C369.441 54.4063 369.625 53.7813 369.625 53.0313C369.625 52.3867 369.5 51.875 369.25 51.5C369.008 51.1172 368.641 50.8125 368.141 50.5938C367.641 50.3672 367.02 50.2031 366.281 50.1094C365.551 50.0078 364.695 49.9141 363.719 49.8281C362.988 49.7578 362.219 49.6367 361.406 49.4688C360.594 49.3047 359.848 49.0391 359.172 48.6719C358.492 48.3086 357.938 47.8281 357.5 47.2344C357.07 46.6328 356.859 45.8594 356.859 44.9219C356.859 43.7656 357.145 42.8281 357.719 42.1094C358.301 41.3906 359.023 40.8281 359.891 40.4219C360.754 40.0078 361.695 39.7188 362.719 39.5625C363.738 39.4063 364.707 39.3281 365.625 39.3281C366.602 39.3281 367.648 39.4492 368.766 39.6875C369.891 39.918 370.906 40.2188 371.812 40.5938L371.547 41.4844C370.703 41.0898 369.727 40.7734 368.625 40.5313C367.531 40.2813 366.336 40.1563 365.047 40.1563C364.41 40.1563 363.797 40.2188 363.203 40.3438C362.617 40.4688 362.102 40.6836 361.656 40.9844C361.207 41.2773 360.848 41.668 360.578 42.1563C360.316 42.6484 360.188 43.2461 360.188 43.9531C360.188 44.5391 360.352 45.0156 360.688 45.3906C361.02 45.7656 361.461 46.0703 362.016 46.2969C362.578 46.5156 363.219 46.6836 363.938 46.7969C364.656 46.9023 365.395 46.9805 366.156 47.0313C368.508 47.1875 370.227 47.6172 371.312 48.3125C372.406 49.0117 372.953 50.1563 372.953 51.75ZM384.352 41.4844H381.227V54.5156C381.227 54.9219 381.344 55.3281 381.586 55.7344C381.836 56.1328 382.188 56.3281 382.648 56.3281H384.258L384.055 57.1563H379.289C378.734 57.1563 378.344 56.9023 378.117 56.3906C377.898 55.8828 377.789 55.3516 377.789 54.7969V41.4844H375.32L375.617 40.6563H377.789V35.8906H381.227V40.6563H384.586L384.352 41.4844ZM395.855 56.8594C395.605 57.3281 395.328 57.8281 395.027 58.3594C394.734 58.8906 394.422 59.4063 394.09 59.9063C393.754 60.4063 393.395 60.875 393.012 61.3125C392.637 61.7578 392.238 62.1406 391.824 62.4531C390.645 63.3164 389.09 63.75 387.152 63.75H386.684L386.98 62.8906C387.625 62.8906 388.191 62.8477 388.684 62.7656C389.172 62.6914 389.641 62.5664 390.09 62.3906C390.641 62.1719 391.145 61.8516 391.605 61.4375C392.062 61.0313 392.48 60.582 392.855 60.0938C393.23 59.6016 393.551 59.1094 393.824 58.6094C394.105 58.1094 394.332 57.6563 394.512 57.25L385.715 39.8281H389.621L396.559 53.5625L403.652 39.8281H404.652L395.855 56.8594ZM413.578 57.1563H409.422C408.859 57.1563 408.469 56.9023 408.25 56.3906C408.031 55.8828 407.922 55.3516 407.922 54.7969V33H411.344V54.5156C411.344 54.9219 411.461 55.3281 411.703 55.7344C411.953 56.1328 412.312 56.3281 412.781 56.3281H413.844L413.578 57.1563ZM418.215 57.1563C417.66 57.1563 417.27 56.9023 417.043 56.3906C416.824 55.8828 416.715 55.3516 416.715 54.7969V41.9844C416.715 41.4766 416.832 40.9922 417.074 40.5313C417.324 40.0625 417.703 39.8281 418.215 39.8281H432.309V40.6563H421.574C421.156 40.6563 420.812 40.8203 420.543 41.1406C420.281 41.4648 420.152 41.8398 420.152 42.2656V47.3594H430.98V48.1875H420.152V54.5156C420.152 54.9219 420.27 55.3281 420.512 55.7344C420.75 56.1328 421.105 56.3281 421.574 56.3281H433.371V57.1563H418.215Z" fill="#665F20"/>
</svg>
