<svg width="550" height="91" viewBox="0 0 550 91" fill="none" xmlns="http://www.w3.org/2000/svg">
<path d="M78.6875 15.6875C78.6875 18.918 77.9219 21.25 76.3906 22.6875C74.8594 24.1172 72.4844 24.8281 69.2656 24.8281C67.9922 24.8281 66.7383 24.7383 65.5 24.5625C64.2695 24.3828 63.1719 24.0391 62.2031 23.5156C61.2422 22.9844 60.4609 22.2578 59.8594 21.3281C59.2656 20.3906 58.9688 19.168 58.9688 17.6562V2.82812H62.8281V17.625C62.8281 18.668 63.0039 19.5859 63.3594 20.375C63.7109 21.168 64.207 21.8281 64.8438 22.3594C65.4766 22.8906 66.2266 23.2969 67.0938 23.5781C67.957 23.8516 68.8984 23.9844 69.9219 23.9844C72.7031 23.9844 74.7188 23.3281 75.9688 22.0156C77.2266 20.6953 77.8594 18.5938 77.8594 15.7188V2.82812H78.6875V15.6875ZM101.148 23.0156C101.148 23.5781 101.074 23.9687 100.93 24.1875C100.793 24.4063 100.609 24.5156 100.383 24.5156C100.141 24.5156 99.8711 24.4141 99.5703 24.2188C99.2656 24.0234 98.9961 23.8047 98.7578 23.5625L86.1172 11.6875C85.8359 11.4297 85.6055 11.2969 85.4297 11.2969C85.293 11.2969 85.1875 11.3555 85.1172 11.4687C85.0547 11.5742 85.0234 11.6953 85.0234 11.8281V24.1562H84.1953V7.625C84.1953 7.23047 84.2891 6.9375 84.4766 6.75C84.6641 6.55469 84.8906 6.45312 85.1641 6.45312C85.4648 6.45312 85.7813 6.60156 86.1172 6.89062L99.2578 19.0938C99.4336 19.2734 99.5781 19.3906 99.6953 19.4531C99.8203 19.5078 99.918 19.5312 99.9922 19.5312C100.125 19.5312 100.215 19.4766 100.258 19.3594C100.297 19.2461 100.32 19.1367 100.32 19.0312V6.82812H101.148V23.0156ZM124.387 15.3281C124.387 16.4844 124.141 17.5937 123.652 18.6562C123.16 19.7188 122.496 20.6562 121.652 21.4688C120.809 22.2812 119.816 22.9336 118.684 23.4219C117.547 23.9141 116.348 24.1562 115.09 24.1562H110.48L110.949 23.3281H113.387C114.27 23.3281 115.141 23.2187 115.996 23C116.859 22.7734 117.625 22.3672 118.293 21.7812C118.957 21.1875 119.496 20.3711 119.902 19.3281C120.309 18.2773 120.512 16.9453 120.512 15.3281C120.512 13.6211 120.313 12.2461 119.918 11.2031C119.52 10.1523 119.027 9.33594 118.434 8.75C117.848 8.15625 117.219 7.76172 116.543 7.5625C115.863 7.36719 115.254 7.26562 114.715 7.26562C113.516 7.26562 112.473 7.49219 111.59 7.9375C110.703 8.375 109.891 8.87109 109.152 9.42187V24.1562H105.715V0H109.152V8.35937C109.465 8.10937 109.801 7.86719 110.168 7.625C110.531 7.38672 110.969 7.17188 111.48 6.98438C112 6.78906 112.605 6.63281 113.293 6.51562C113.98 6.39062 114.797 6.32812 115.746 6.32812C116.703 6.32812 117.687 6.53906 118.699 6.95312C119.707 7.35938 120.637 7.94922 121.48 8.71875C122.324 9.48047 123.016 10.4219 123.559 11.5469C124.109 12.6641 124.387 13.9219 124.387 15.3281ZM146.582 15.4844C146.582 16.8203 146.332 18.0469 145.832 19.1719C145.332 20.2969 144.637 21.2656 143.754 22.0781C142.879 22.8906 141.836 23.5273 140.629 23.9844C139.418 24.4297 138.102 24.6562 136.676 24.6562C135.258 24.6562 133.945 24.4297 132.738 23.9844C131.539 23.5273 130.504 22.8906 129.629 22.0781C128.754 21.2656 128.066 20.2969 127.566 19.1719C127.066 18.0469 126.816 16.8203 126.816 15.4844C126.816 14.1523 127.066 12.9297 127.566 11.8125C128.066 10.6875 128.754 9.71875 129.629 8.90625C130.504 8.09375 131.539 7.46484 132.738 7.01562C133.945 6.55859 135.258 6.32812 136.676 6.32812C138.102 6.32812 139.418 6.55859 140.629 7.01562C141.836 7.46484 142.879 8.09375 143.754 8.90625C144.637 9.71875 145.332 10.6875 145.832 11.8125C146.332 12.9297 146.582 14.1523 146.582 15.4844ZM142.707 15.4844C142.707 14.5156 142.629 13.5273 142.473 12.5156C142.316 11.4961 142.012 10.5781 141.566 9.76562C141.129 8.94531 140.512 8.27344 139.723 7.75C138.941 7.21875 137.926 6.95312 136.676 6.95312C135.434 6.95312 134.426 7.21875 133.645 7.75C132.871 8.27344 132.262 8.94531 131.816 9.76562C131.367 10.5781 131.066 11.4961 130.91 12.5156C130.754 13.5273 130.676 14.5156 130.676 15.4844C130.676 16.4648 130.754 17.4609 130.91 18.4688C131.066 19.4805 131.367 20.3984 131.816 21.2188C132.262 22.043 132.871 22.7148 133.645 23.2344C134.426 23.7578 135.434 24.0156 136.676 24.0156C137.926 24.0156 138.941 23.7578 139.723 23.2344C140.512 22.7148 141.129 22.043 141.566 21.2188C142.012 20.3984 142.316 19.4805 142.473 18.4688C142.629 17.4609 142.707 16.4648 142.707 15.4844ZM161.672 24.1562L156.047 16.625L149.609 24.1562H148.484L155.516 15.9219L148.672 6.82812H152.938L158.016 13.6562L163.609 6.82812H164.703L158.516 14.3281L165.813 24.1562H161.672ZM173.102 2.5625C173.102 3.09375 172.914 3.55859 172.539 3.95312C172.164 4.33984 171.684 4.53125 171.102 4.53125C170.57 4.53125 170.109 4.33984 169.727 3.95312C169.34 3.55859 169.148 3.09375 169.148 2.5625C169.148 2.03125 169.34 1.57031 169.727 1.17188C170.109 0.765625 170.57 0.5625 171.102 0.5625C171.684 0.5625 172.164 0.765625 172.539 1.17188C172.914 1.57031 173.102 2.03125 173.102 2.5625ZM169.414 24.1562V6.82812H172.836V24.1562H169.414ZM195.133 23.0156C195.133 23.5781 195.059 23.9687 194.914 24.1875C194.777 24.4063 194.594 24.5156 194.367 24.5156C194.125 24.5156 193.855 24.4141 193.555 24.2188C193.25 24.0234 192.98 23.8047 192.742 23.5625L180.102 11.6875C179.82 11.4297 179.59 11.2969 179.414 11.2969C179.277 11.2969 179.172 11.3555 179.102 11.4687C179.039 11.5742 179.008 11.6953 179.008 11.8281V24.1562H178.18V7.625C178.18 7.23047 178.273 6.9375 178.461 6.75C178.648 6.55469 178.875 6.45312 179.148 6.45312C179.449 6.45312 179.766 6.60156 180.102 6.89062L193.242 19.0938C193.418 19.2734 193.562 19.3906 193.68 19.4531C193.805 19.5078 193.902 19.5312 193.977 19.5312C194.109 19.5312 194.199 19.4766 194.242 19.3594C194.281 19.2461 194.305 19.1367 194.305 19.0312V6.82812H195.133V23.0156ZM216.965 23.1562C216.965 24.7812 216.66 26.0859 216.059 27.0781C215.465 28.0664 214.73 28.832 213.855 29.375C212.98 29.9141 212.027 30.2812 210.996 30.4688C209.973 30.6562 209.031 30.75 208.168 30.75H201.34L201.637 29.9219H208.965C209.434 29.9219 209.937 29.8594 210.48 29.7344C211.031 29.6172 211.527 29.2852 211.965 28.7344C212.41 28.1914 212.785 27.3594 213.09 26.2344C213.391 25.1172 213.543 23.5625 213.543 21.5625V9.0625C212.824 8.59375 212 8.1875 211.074 7.84375C210.156 7.5 209.145 7.32812 208.043 7.32812C206.887 7.32812 205.937 7.5625 205.199 8.03125C204.469 8.49219 203.891 9.10156 203.465 9.85937C203.047 10.6094 202.754 11.4648 202.59 12.4219C202.422 13.3828 202.34 14.3516 202.34 15.3281C202.34 17.0781 202.52 18.4805 202.887 19.5312C203.25 20.5742 203.754 21.3828 204.402 21.9531C205.047 22.5156 205.797 22.8867 206.652 23.0625C207.504 23.2422 208.434 23.3281 209.434 23.3281H211.73L212.199 24.1562H207.074C205.895 24.1562 204.781 23.9609 203.73 23.5625C202.687 23.1562 201.777 22.5859 200.996 21.8438C200.223 21.0938 199.609 20.1719 199.152 19.0781C198.703 17.9766 198.48 16.7266 198.48 15.3281C198.48 14.1719 198.691 13.0586 199.121 11.9844C199.559 10.9023 200.156 9.94531 200.918 9.10937C201.687 8.27734 202.594 7.60547 203.637 7.09375C204.676 6.58594 205.801 6.32812 207.012 6.32812C208.699 6.32812 210.047 6.50781 211.059 6.85938C212.066 7.21484 212.895 7.61719 213.543 8.0625V6.6875H216.965V23.1562ZM249.992 23.1562C249.992 24.7812 249.688 26.0859 249.086 27.0781C248.492 28.0664 247.758 28.832 246.883 29.375C246.008 29.9141 245.055 30.2812 244.023 30.4688C243 30.6562 242.059 30.75 241.195 30.75H234.367L234.664 29.9219H241.992C242.461 29.9219 242.965 29.8594 243.508 29.7344C244.059 29.6172 244.555 29.2852 244.992 28.7344C245.438 28.1914 245.813 27.3594 246.117 26.2344C246.418 25.1172 246.57 23.5625 246.57 21.5625V9.0625C245.852 8.59375 245.027 8.1875 244.102 7.84375C243.184 7.5 242.172 7.32812 241.07 7.32812C239.914 7.32812 238.965 7.5625 238.227 8.03125C237.496 8.49219 236.918 9.10156 236.492 9.85937C236.074 10.6094 235.781 11.4648 235.617 12.4219C235.449 13.3828 235.367 14.3516 235.367 15.3281C235.367 17.0781 235.547 18.4805 235.914 19.5312C236.277 20.5742 236.781 21.3828 237.43 21.9531C238.074 22.5156 238.824 22.8867 239.68 23.0625C240.531 23.2422 241.461 23.3281 242.461 23.3281H244.758L245.227 24.1562H240.102C238.922 24.1562 237.809 23.9609 236.758 23.5625C235.715 23.1562 234.805 22.5859 234.023 21.8438C233.25 21.0938 232.637 20.1719 232.18 19.0781C231.73 17.9766 231.508 16.7266 231.508 15.3281C231.508 14.1719 231.719 13.0586 232.148 11.9844C232.586 10.9023 233.184 9.94531 233.945 9.10937C234.715 8.27734 235.621 7.60547 236.664 7.09375C237.703 6.58594 238.828 6.32812 240.039 6.32812C241.727 6.32812 243.074 6.50781 244.086 6.85938C245.094 7.21484 245.922 7.61719 246.57 8.0625V6.6875H249.992V23.1562ZM268.988 24.1562V6.82812H272.426V24.1562H268.988ZM261.957 24.1562C260.832 24.1562 259.82 24.043 258.926 23.8125C258.039 23.5742 257.293 23.1797 256.691 22.625C256.098 22.0742 255.645 21.3398 255.332 20.4219C255.02 19.4961 254.863 18.3398 254.863 16.9531V6.82812H258.301V16.9844C258.301 17.7891 258.387 18.5703 258.566 19.3281C258.742 20.0781 259.023 20.75 259.41 21.3438C259.805 21.9297 260.309 22.4062 260.926 22.7812C261.551 23.1484 262.305 23.3281 263.191 23.3281H267.191L267.66 24.1562H261.957ZM294.586 24.1562V10.2187C294.586 9.91797 294.508 9.76562 294.352 9.76562C294.227 9.76562 294.074 9.90625 293.898 10.1875L286.164 24.1562H285.758L278.195 10.3281C277.977 9.95312 277.809 9.76562 277.695 9.76562C277.602 9.76562 277.539 9.83593 277.508 9.96875C277.477 10.0937 277.461 10.2344 277.461 10.3906V24.1562H276.633V8.95312C276.633 8.10937 276.793 7.46484 277.117 7.01562C277.437 6.55859 277.828 6.32812 278.289 6.32812C278.672 6.32812 279.059 6.48438 279.445 6.79688C279.828 7.10938 280.215 7.60156 280.602 8.26562L287.133 20.25H287.227L293.82 8.45312C294.203 7.74609 294.625 7.21484 295.086 6.85938C295.555 6.50781 295.992 6.32812 296.398 6.32812C296.855 6.32812 297.242 6.5625 297.555 7.03125C297.867 7.49219 298.023 8.21875 298.023 9.21875V24.1562H294.586ZM304.492 24.1562C303.938 24.1562 303.547 23.9023 303.32 23.3906C303.102 22.8828 302.992 22.3516 302.992 21.7969V8.98437C302.992 8.47656 303.109 7.99219 303.352 7.53125C303.602 7.0625 303.98 6.82812 304.492 6.82812H318.586V7.65625H307.852C307.434 7.65625 307.09 7.82031 306.82 8.14062C306.559 8.46484 306.43 8.83984 306.43 9.26562V14.3594H317.258V15.1875H306.43V21.5156C306.43 21.9219 306.547 22.3281 306.789 22.7344C307.027 23.1328 307.383 23.3281 307.852 23.3281H319.648V24.1562H304.492ZM336.52 24.1562L333.348 18.8906C333.168 18.6016 332.945 18.2188 332.676 17.75C332.414 17.2734 332.117 16.8047 331.785 16.3438C331.449 15.8867 331.074 15.4922 330.66 15.1562C330.254 14.8242 329.824 14.6562 329.379 14.6562C329.117 14.6562 328.879 14.7422 328.66 14.9062C328.449 15.0742 328.215 15.3125 327.957 15.625V14.3906L337.223 6.82812H338.551L329.957 13.7969V13.8594C330.113 13.8398 330.254 13.8281 330.379 13.8281C330.512 13.8281 330.648 13.8281 330.785 13.8281C331.785 13.8281 332.617 13.9766 333.285 14.2656C333.949 14.5469 334.539 14.9375 335.051 15.4375C335.559 15.9375 336.023 16.5117 336.441 17.1562C336.867 17.8047 337.324 18.4922 337.816 19.2188L341.082 24.1562H336.52ZM323.191 24.1562V0H326.613V24.1562H323.191ZM360.781 3.65625C360.332 3.65625 360.004 3.87109 359.797 4.29688C359.586 4.71484 359.484 5.14844 359.484 5.59375V12.4844H369.641V13.3281H359.484V24.1562H355.609V5.32812C355.609 5.05859 355.633 4.77734 355.688 4.48438C355.75 4.18359 355.836 3.91406 355.953 3.67188C356.078 3.42188 356.238 3.21875 356.438 3.0625C356.645 2.90625 356.895 2.82812 357.188 2.82812H373.047V3.65625H360.781ZM390.438 24.1562C390.352 23.8438 390.227 23.4375 390.062 22.9375C389.895 22.4375 389.703 21.9141 389.484 21.3594C389.273 20.8086 389.062 20.2578 388.844 19.7031C388.625 19.1406 388.41 18.6484 388.203 18.2188C387.941 17.6484 387.656 17.1797 387.344 16.8125C387.031 16.4375 386.656 16.1367 386.219 15.9062C385.789 15.6797 385.285 15.5234 384.703 15.4375C384.129 15.3438 383.441 15.2969 382.641 15.2969H381.578L382.109 14.4844H384.781C385.414 14.4844 386.02 14.4297 386.594 14.3125C387.176 14.1875 387.688 13.9844 388.125 13.7031C388.562 13.4141 388.91 13.0391 389.172 12.5781C389.441 12.1211 389.578 11.5469 389.578 10.8594C389.578 10.3281 389.441 9.86719 389.172 9.46875C388.91 9.0625 388.547 8.73047 388.078 8.46875C387.609 8.19922 387.062 7.99609 386.438 7.85938C385.82 7.72656 385.145 7.65625 384.406 7.65625H381.672C381.254 7.65625 380.91 7.82031 380.641 8.14062C380.379 8.46484 380.25 8.83984 380.25 9.26562V24.1562H376.812V8.98437C376.812 8.47656 376.93 7.99219 377.172 7.53125C377.422 7.0625 377.801 6.82812 378.312 6.82812H383.578C386.797 6.82812 389.188 7.15234 390.75 7.79688C392.32 8.44531 393.109 9.53125 393.109 11.0625C393.109 11.75 392.945 12.3437 392.625 12.8437C392.301 13.3437 391.859 13.7656 391.297 14.1094C390.742 14.4531 390.086 14.7188 389.328 14.9062C388.578 15.0938 387.77 15.2109 386.906 15.25V15.2969C387.707 15.4766 388.41 15.6719 389.016 15.8906C389.629 16.1094 390.172 16.4062 390.641 16.7812C391.109 17.1484 391.523 17.6016 391.891 18.1406C392.254 18.6836 392.602 19.3555 392.938 20.1562L394.578 24.1562H390.438ZM410.73 24.1562V14.2656H408.105C407.219 14.2656 406.332 14.3359 405.449 14.4688C404.574 14.5938 403.793 14.8516 403.105 15.2344C402.418 15.6094 401.859 16.1367 401.434 16.8125C401.016 17.4922 400.809 18.3711 400.809 19.4531C400.809 20.6836 401.137 21.6367 401.793 22.3125C402.449 22.9922 403.496 23.3281 404.934 23.3281H408.965L409.402 24.1562H403.965C403.098 24.1562 402.25 24.0703 401.418 23.8906C400.582 23.7148 399.832 23.4297 399.168 23.0312C398.5 22.625 397.957 22.0898 397.543 21.4219C397.137 20.7578 396.934 19.9219 396.934 18.9219C396.934 18.1016 397.125 17.3906 397.512 16.7969C397.906 16.1953 398.426 15.6953 399.074 15.2969C399.719 14.8906 400.441 14.5703 401.246 14.3281C402.059 14.0781 402.875 13.8906 403.699 13.7656C404.52 13.6328 405.328 13.543 406.121 13.5C406.91 13.4492 407.594 13.4219 408.168 13.4219H410.73V12.4219C410.73 10.8281 410.34 9.54687 409.559 8.57812C408.785 7.60937 407.559 7.12499 405.871 7.12499C404.266 7.12499 402.824 7.27734 401.543 7.57812C400.27 7.88281 399.113 8.32031 398.074 8.89062L397.84 7.98437C399.152 7.29687 400.527 6.85156 401.965 6.64062C403.41 6.43359 404.879 6.32812 406.371 6.32812C407.328 6.32812 408.27 6.42187 409.199 6.60937C410.137 6.79687 410.969 7.10937 411.699 7.54687C412.438 7.97656 413.031 8.54687 413.48 9.26562C413.938 9.97656 414.168 10.8516 414.168 11.8906V24.1562H410.73ZM435.797 23.0156C435.797 23.5781 435.723 23.9687 435.578 24.1875C435.441 24.4063 435.258 24.5156 435.031 24.5156C434.789 24.5156 434.52 24.4141 434.219 24.2188C433.914 24.0234 433.645 23.8047 433.406 23.5625L420.766 11.6875C420.484 11.4297 420.254 11.2969 420.078 11.2969C419.941 11.2969 419.836 11.3555 419.766 11.4687C419.703 11.5742 419.672 11.6953 419.672 11.8281V24.1562H418.844V7.625C418.844 7.23047 418.938 6.9375 419.125 6.75C419.313 6.55469 419.539 6.45312 419.813 6.45312C420.113 6.45312 420.43 6.60156 420.766 6.89062L433.906 19.0938C434.082 19.2734 434.227 19.3906 434.344 19.4531C434.469 19.5078 434.566 19.5312 434.641 19.5312C434.773 19.5312 434.863 19.4766 434.906 19.3594C434.945 19.2461 434.969 19.1367 434.969 19.0312V6.82812H435.797L435.797 23.0156ZM456.891 22.0938C456.047 22.8438 454.961 23.4609 453.641 23.9375C452.328 24.4141 450.812 24.6562 449.094 24.6562C447.676 24.6562 446.363 24.4297 445.156 23.9844C443.957 23.5273 442.922 22.8906 442.047 22.0781C441.172 21.2656 440.484 20.2969 439.984 19.1719C439.484 18.0469 439.234 16.8203 439.234 15.4844C439.234 14.1523 439.484 12.9297 439.984 11.8125C440.484 10.6875 441.172 9.71875 442.047 8.90625C442.922 8.09375 443.957 7.46484 445.156 7.01562C446.363 6.55859 447.676 6.32812 449.094 6.32812C450.695 6.32812 452.129 6.53906 453.391 6.95312C454.66 7.35938 455.688 7.82812 456.469 8.35937L456.234 9.26562C455.336 8.66406 454.301 8.15625 453.125 7.75C451.945 7.33594 450.594 7.125 449.062 7.125C447.977 7.125 447.055 7.37109 446.297 7.85938C445.547 8.35156 444.93 8.99219 444.453 9.78125C443.973 10.5625 443.625 11.4531 443.406 12.4531C443.195 13.4531 443.094 14.4648 443.094 15.4844C443.094 16.9961 443.281 18.2773 443.656 19.3281C444.039 20.3711 444.535 21.2188 445.141 21.875C445.754 22.5313 446.441 23.0117 447.203 23.3125C447.973 23.6055 448.75 23.75 449.531 23.75C450.957 23.75 452.266 23.5312 453.453 23.0938C454.641 22.6484 455.688 22.0312 456.594 21.25L456.891 22.0938ZM473.289 24.1562V14.2656H470.664C469.777 14.2656 468.891 14.3359 468.008 14.4688C467.133 14.5938 466.352 14.8516 465.664 15.2344C464.977 15.6094 464.418 16.1367 463.992 16.8125C463.574 17.4922 463.367 18.3711 463.367 19.4531C463.367 20.6836 463.695 21.6367 464.352 22.3125C465.008 22.9922 466.055 23.3281 467.492 23.3281H471.523L471.961 24.1562H466.523C465.656 24.1562 464.809 24.0703 463.977 23.8906C463.141 23.7148 462.391 23.4297 461.727 23.0312C461.059 22.625 460.516 22.0898 460.102 21.4219C459.695 20.7578 459.492 19.9219 459.492 18.9219C459.492 18.1016 459.684 17.3906 460.07 16.7969C460.465 16.1953 460.984 15.6953 461.633 15.2969C462.277 14.8906 463 14.5703 463.805 14.3281C464.617 14.0781 465.434 13.8906 466.258 13.7656C467.078 13.6328 467.887 13.543 468.68 13.5C469.469 13.4492 470.152 13.4219 470.727 13.4219H473.289V12.4219C473.289 10.8281 472.898 9.54687 472.117 8.57812C471.344 7.60937 470.117 7.12499 468.43 7.12499C466.824 7.12499 465.383 7.27734 464.102 7.57812C462.828 7.88281 461.672 8.32031 460.633 8.89062L460.398 7.98437C461.711 7.29687 463.086 6.85156 464.523 6.64062C465.969 6.43359 467.438 6.32812 468.93 6.32812C469.887 6.32812 470.828 6.42187 471.758 6.60937C472.695 6.79687 473.527 7.10937 474.258 7.54687C474.996 7.97656 475.59 8.54687 476.039 9.26562C476.496 9.97656 476.727 10.8516 476.727 11.8906V24.1562H473.289Z" fill="#665F20"/>
<path d="M19.7188 48.6875C19.7188 51.918 18.9531 54.25 17.4219 55.6875C15.8906 57.1172 13.5156 57.8281 10.2969 57.8281C9.02344 57.8281 7.76953 57.7383 6.53125 57.5625C5.30078 57.3828 4.20313 57.0391 3.23438 56.5156C2.27344 55.9844 1.49219 55.2578 0.890625 54.3281C0.296875 53.3906 0 52.168 0 50.6563V35.8281H3.85938V50.625C3.85938 51.668 4.03516 52.5859 4.39062 53.375C4.74219 54.168 5.23828 54.8281 5.875 55.3594C6.50781 55.8906 7.25781 56.2969 8.125 56.5781C8.98828 56.8516 9.92969 56.9844 10.9531 56.9844C13.7344 56.9844 15.75 56.3281 17 55.0156C18.2578 53.6953 18.8906 51.5938 18.8906 48.7188V35.8281H19.7188V48.6875ZM46.7109 54.8594C46.1367 55.3711 45.4648 55.8125 44.6953 56.1875C43.9336 56.5625 43.1172 56.875 42.2422 57.125C41.375 57.3633 40.4688 57.5391 39.5234 57.6563C38.5859 57.7695 37.6523 57.8281 36.7266 57.8281C35.1641 57.8281 33.6328 57.5938 32.1328 57.125C30.6328 56.6563 29.2891 55.9609 28.1016 55.0313C26.9141 54.0938 25.9492 52.918 25.2109 51.5C24.4805 50.0742 24.1172 48.4023 24.1172 46.4844C24.1172 44.7773 24.4648 43.2266 25.1641 41.8281C25.8711 40.4219 26.8203 39.2305 28.0078 38.25C29.1953 37.2617 30.5625 36.5 32.1172 35.9688C33.6797 35.4297 35.3242 35.1562 37.0547 35.1562C39.0742 35.1562 40.7773 35.3516 42.1641 35.7344C43.5586 36.1094 44.6406 36.5156 45.4141 36.9531L45.1172 37.7656C44.3359 37.2578 43.3242 36.8359 42.0859 36.5C40.8438 36.168 39.3438 36 37.5859 36C36.0313 36 34.6875 36.3203 33.5547 36.9531C32.418 37.5781 31.4805 38.4063 30.7422 39.4375C30.0117 40.4688 29.4687 41.6484 29.1172 42.9688C28.7617 44.293 28.5859 45.6484 28.5859 47.0313C28.5859 48.3672 28.7812 49.6328 29.1797 50.8281C29.5859 52.0273 30.1484 53.0898 30.8672 54.0156C31.5938 54.9336 32.4609 55.6563 33.4609 56.1875C34.4609 56.7188 35.5469 56.9844 36.7266 56.9844C39.0078 56.9844 40.5938 56.5703 41.4922 55.7344C42.3984 54.9023 42.8516 53.6211 42.8516 51.8906V46.3281H46.7109V54.8594ZM73.3477 54.7969C71.9492 55.9219 70.3711 56.7109 68.6133 57.1563C66.8633 57.6016 65.0859 57.8281 63.2852 57.8281C61.6602 57.8281 60.0859 57.5938 58.5664 57.125C57.043 56.6563 55.6992 55.9609 54.5352 55.0313C53.3672 54.0938 52.4336 52.918 51.7383 51.5C51.0391 50.0742 50.6914 48.4023 50.6914 46.4844C50.6914 44.7773 51.0391 43.2266 51.7383 41.8281C52.4336 40.4219 53.3672 39.2305 54.5352 38.25C55.6992 37.2617 57.043 36.5 58.5664 35.9688C60.0859 35.4297 61.6602 35.1562 63.2852 35.1562C64.0664 35.1562 64.8672 35.2109 65.6914 35.3125C66.5234 35.4062 67.3555 35.5625 68.1914 35.7812C69.0234 35.9922 69.8359 36.25 70.6289 36.5625C71.418 36.875 72.1602 37.25 72.8477 37.6875L72.5508 38.6563C71.2773 37.8125 69.8164 37.1641 68.1602 36.7031C66.5039 36.2344 64.8789 36 63.2852 36C61.7734 36 60.4922 36.3203 59.4414 36.9531C58.3984 37.5781 57.5586 38.3906 56.9258 39.3906C56.3008 40.3906 55.8477 41.5156 55.5664 42.7656C55.2852 44.0078 55.1445 45.2461 55.1445 46.4844C55.1445 47.7344 55.3047 48.9844 55.6289 50.2344C55.9492 51.4766 56.4766 52.5938 57.207 53.5938C57.9453 54.5938 58.918 55.4141 60.1289 56.0469C61.3477 56.6719 62.8398 56.9844 64.6133 56.9844C65.1445 56.9844 65.7695 56.9219 66.4883 56.7969C67.2148 56.6641 67.9648 56.4688 68.7383 56.2188C69.5195 55.9609 70.2852 55.6367 71.0352 55.25C71.793 54.8555 72.4766 54.4141 73.082 53.9219L73.3477 54.7969ZM109.441 51.4844C109.441 52.7578 109.07 53.7734 108.332 54.5313C107.602 55.2813 106.723 55.8555 105.691 56.25C104.66 56.6367 103.574 56.8867 102.441 57C101.305 57.1055 100.324 57.1563 99.5039 57.1563H88.3789V38.3281C88.3789 38.0586 88.4023 37.7773 88.457 37.4844C88.5195 37.1836 88.6055 36.9141 88.7227 36.6719C88.8477 36.4219 89.0078 36.2188 89.207 36.0625C89.4024 35.9062 89.6484 35.8281 89.9414 35.8281H98.707C99.5078 35.8281 100.41 35.8984 101.41 36.0312C102.41 36.1562 103.355 36.3984 104.254 36.75C105.16 37.0938 105.914 37.5781 106.52 38.2031C107.133 38.8203 107.441 39.6172 107.441 40.5938C107.441 41.5234 107.207 42.293 106.738 42.9063C106.27 43.5234 105.676 44.0117 104.957 44.375C104.238 44.7422 103.461 45.0078 102.629 45.1719C101.793 45.3398 101.008 45.4609 100.27 45.5313V45.5938C101.184 45.6172 102.176 45.7266 103.238 45.9219C104.309 46.1211 105.301 46.4453 106.207 46.8906C107.121 47.3398 107.887 47.9453 108.504 48.7031C109.129 49.4531 109.441 50.3828 109.441 51.4844ZM104.973 51.125C104.973 50.125 104.727 49.2969 104.238 48.6406C103.746 47.9844 103.145 47.4688 102.426 47.0938C101.707 46.7188 100.941 46.4531 100.129 46.2969C99.3164 46.1406 98.5859 46.0625 97.9414 46.0625H93.582L93.9727 45.2188H96.3789C98.7305 45.2188 100.461 44.8203 101.566 44.0156C102.68 43.2031 103.238 42.1055 103.238 40.7188C103.238 39.5234 102.762 38.5469 101.816 37.7969C100.879 37.0391 99.5078 36.6562 97.707 36.6562H93.5508C93.1016 36.6562 92.7695 36.8711 92.5508 37.2969C92.3398 37.7148 92.2383 38.1484 92.2383 38.5938V56.3281H99.2695C101.008 56.3281 102.395 55.918 103.426 55.0938C104.457 54.2734 104.973 52.9492 104.973 51.125ZM114.645 57.1563C114.09 57.1563 113.699 56.9023 113.473 56.3906C113.254 55.8828 113.145 55.3516 113.145 54.7969V41.9844C113.145 41.4766 113.262 40.9922 113.504 40.5313C113.754 40.0625 114.133 39.8281 114.645 39.8281H128.738V40.6563H118.004C117.586 40.6563 117.242 40.8203 116.973 41.1406C116.711 41.4648 116.582 41.8398 116.582 42.2656V47.3594H127.41V48.1875H116.582V54.5156C116.582 54.9219 116.699 55.3281 116.941 55.7344C117.18 56.1328 117.535 56.3281 118.004 56.3281H129.801V57.1563H114.645ZM146.062 57.1563V47.2656H143.438C142.551 47.2656 141.664 47.3359 140.781 47.4688C139.906 47.5938 139.125 47.8516 138.438 48.2344C137.75 48.6094 137.191 49.1367 136.766 49.8125C136.348 50.4922 136.141 51.3711 136.141 52.4531C136.141 53.6836 136.469 54.6367 137.125 55.3125C137.781 55.9922 138.828 56.3281 140.266 56.3281H144.297L144.734 57.1563H139.297C138.43 57.1563 137.582 57.0703 136.75 56.8906C135.914 56.7148 135.164 56.4297 134.5 56.0313C133.832 55.625 133.289 55.0898 132.875 54.4219C132.469 53.7578 132.266 52.9219 132.266 51.9219C132.266 51.1016 132.457 50.3906 132.844 49.7969C133.238 49.1953 133.758 48.6953 134.406 48.2969C135.051 47.8906 135.773 47.5703 136.578 47.3281C137.391 47.0781 138.207 46.8906 139.031 46.7656C139.852 46.6328 140.66 46.543 141.453 46.5C142.242 46.4492 142.926 46.4219 143.5 46.4219H146.062V45.4219C146.062 43.8281 145.672 42.5469 144.891 41.5781C144.117 40.6094 142.891 40.125 141.203 40.125C139.598 40.125 138.156 40.2773 136.875 40.5781C135.602 40.8828 134.445 41.3203 133.406 41.8906L133.172 40.9844C134.484 40.2969 135.859 39.8516 137.297 39.6406C138.742 39.4336 140.211 39.3281 141.703 39.3281C142.66 39.3281 143.602 39.4219 144.531 39.6094C145.469 39.7969 146.301 40.1094 147.031 40.5469C147.77 40.9766 148.363 41.5469 148.812 42.2656C149.27 42.9766 149.5 43.8516 149.5 44.8906V57.1563H146.062ZM168.125 57.1563V39.8281H171.562V57.1563H168.125ZM161.094 57.1563C159.969 57.1563 158.957 57.043 158.062 56.8125C157.176 56.5742 156.43 56.1797 155.828 55.625C155.234 55.0742 154.781 54.3398 154.469 53.4219C154.156 52.4961 154 51.3398 154 49.9531V39.8281H157.438V49.9844C157.438 50.7891 157.523 51.5703 157.703 52.3281C157.879 53.0781 158.16 53.75 158.547 54.3438C158.941 54.9297 159.445 55.4063 160.062 55.7813C160.688 56.1484 161.441 56.3281 162.328 56.3281H166.328L166.797 57.1563H161.094ZM183.395 41.4844H180.27V54.5156C180.27 54.9219 180.387 55.3281 180.629 55.7344C180.879 56.1328 181.23 56.3281 181.691 56.3281H183.301L183.098 57.1563H178.332C177.777 57.1563 177.387 56.9023 177.16 56.3906C176.941 55.8828 176.832 55.3516 176.832 54.7969V41.4844H174.363L174.66 40.6563H176.832V35.8906H180.27V40.6563H183.629L183.395 41.4844ZM194.898 56.8594C194.648 57.3281 194.371 57.8281 194.07 58.3594C193.777 58.8906 193.465 59.4063 193.133 59.9063C192.797 60.4063 192.437 60.875 192.055 61.3125C191.68 61.7578 191.281 62.1406 190.867 62.4531C189.687 63.3164 188.133 63.75 186.195 63.75H185.727L186.023 62.8906C186.668 62.8906 187.234 62.8477 187.727 62.7656C188.215 62.6914 188.684 62.5664 189.133 62.3906C189.684 62.1719 190.187 61.8516 190.648 61.4375C191.105 61.0313 191.523 60.582 191.898 60.0938C192.273 59.6016 192.594 59.1094 192.867 58.6094C193.148 58.1094 193.375 57.6563 193.555 57.25L184.758 39.8281H188.664L195.602 53.5625L202.695 39.8281H203.695L194.898 56.8594ZM216.121 57.8281H214.09L222.793 35.1562H224.824L216.121 57.8281ZM257.355 41.4219C257.355 42.5586 256.953 43.5 256.152 44.25C255.348 44.9922 254.355 45.5781 253.168 46.0156C251.98 46.4453 250.715 46.7461 249.371 46.9219C248.027 47.1016 246.809 47.1875 245.715 47.1875C245.203 47.1875 244.699 47.1797 244.199 47.1563C243.699 47.1367 243.328 47.1055 243.09 47.0625L243.324 46.2656C243.5 46.3086 243.754 46.3359 244.09 46.3438C244.422 46.3555 244.766 46.3594 245.121 46.3594C247.629 46.3594 249.551 45.9024 250.887 44.9844C252.219 44.0586 252.887 42.8047 252.887 41.2188C252.887 40.3555 252.672 39.6328 252.246 39.0469C251.828 38.4531 251.285 37.9805 250.621 37.625C249.953 37.2734 249.215 37.0234 248.402 36.875C247.59 36.7305 246.793 36.6563 246.012 36.6563H243.059C242.609 36.6563 242.277 36.8711 242.059 37.2969C241.848 37.7149 241.746 38.1484 241.746 38.5938V57.1563H237.887V38.3281C237.887 38.0586 237.91 37.7773 237.965 37.4844C238.027 37.1836 238.113 36.9141 238.23 36.6719C238.355 36.4219 238.516 36.2188 238.715 36.0625C238.91 35.9062 239.156 35.8281 239.449 35.8281H247.418C248.281 35.8281 249.285 35.9063 250.434 36.0625C251.578 36.2188 252.66 36.5117 253.684 36.9375C254.703 37.3555 255.566 37.9219 256.277 38.6406C256.996 39.3594 257.355 40.2891 257.355 41.4219ZM273.812 57.1563C273.727 56.8438 273.602 56.4375 273.438 55.9375C273.27 55.4375 273.078 54.9141 272.859 54.3594C272.648 53.8086 272.438 53.2578 272.219 52.7031C272 52.1406 271.785 51.6484 271.578 51.2188C271.316 50.6484 271.031 50.1797 270.719 49.8125C270.406 49.4375 270.031 49.1367 269.594 48.9063C269.164 48.6797 268.66 48.5234 268.078 48.4375C267.504 48.3438 266.816 48.2969 266.016 48.2969H264.953L265.484 47.4844H268.156C268.789 47.4844 269.395 47.4297 269.969 47.3125C270.551 47.1875 271.062 46.9844 271.5 46.7031C271.938 46.4141 272.285 46.0391 272.547 45.5781C272.816 45.1211 272.953 44.5469 272.953 43.8594C272.953 43.3281 272.816 42.8672 272.547 42.4688C272.285 42.0625 271.922 41.7305 271.453 41.4688C270.984 41.1992 270.438 40.9961 269.812 40.8594C269.195 40.7266 268.52 40.6563 267.781 40.6563H265.047C264.629 40.6563 264.285 40.8203 264.016 41.1406C263.754 41.4648 263.625 41.8398 263.625 42.2656V57.1563H260.188V41.9844C260.188 41.4766 260.305 40.9922 260.547 40.5313C260.797 40.0625 261.176 39.8281 261.688 39.8281H266.953C270.172 39.8281 272.562 40.1523 274.125 40.7969C275.695 41.4453 276.484 42.5313 276.484 44.0625C276.484 44.75 276.32 45.3438 276 45.8438C275.676 46.3438 275.234 46.7656 274.672 47.1094C274.117 47.4531 273.461 47.7188 272.703 47.9063C271.953 48.0938 271.145 48.2109 270.281 48.25V48.2969C271.082 48.4766 271.785 48.6719 272.391 48.8906C273.004 49.1094 273.547 49.4063 274.016 49.7813C274.484 50.1484 274.898 50.6016 275.266 51.1406C275.629 51.6836 275.977 52.3555 276.312 53.1563L277.953 57.1563H273.812ZM299.715 48.4844C299.715 49.8203 299.465 51.0469 298.965 52.1719C298.465 53.2969 297.77 54.2656 296.887 55.0781C296.012 55.8906 294.969 56.5273 293.762 56.9844C292.551 57.4297 291.234 57.6563 289.809 57.6563C288.391 57.6563 287.078 57.4297 285.871 56.9844C284.672 56.5273 283.637 55.8906 282.762 55.0781C281.887 54.2656 281.199 53.2969 280.699 52.1719C280.199 51.0469 279.949 49.8203 279.949 48.4844C279.949 47.1523 280.199 45.9297 280.699 44.8125C281.199 43.6875 281.887 42.7188 282.762 41.9063C283.637 41.0938 284.672 40.4648 285.871 40.0156C287.078 39.5586 288.391 39.3281 289.809 39.3281C291.234 39.3281 292.551 39.5586 293.762 40.0156C294.969 40.4648 296.012 41.0938 296.887 41.9063C297.77 42.7188 298.465 43.6875 298.965 44.8125C299.465 45.9297 299.715 47.1523 299.715 48.4844ZM295.84 48.4844C295.84 47.5156 295.762 46.5273 295.605 45.5156C295.449 44.4961 295.145 43.5781 294.699 42.7656C294.262 41.9453 293.645 41.2734 292.855 40.75C292.074 40.2188 291.059 39.9531 289.809 39.9531C288.566 39.9531 287.559 40.2188 286.777 40.75C286.004 41.2734 285.395 41.9453 284.949 42.7656C284.5 43.5781 284.199 44.4961 284.043 45.5156C283.887 46.5273 283.809 47.5156 283.809 48.4844C283.809 49.4648 283.887 50.4609 284.043 51.4688C284.199 52.4805 284.5 53.3984 284.949 54.2188C285.395 55.043 286.004 55.7148 286.777 56.2344C287.559 56.7578 288.566 57.0156 289.809 57.0156C291.059 57.0156 292.074 56.7578 292.855 56.2344C293.645 55.7148 294.262 55.043 294.699 54.2188C295.145 53.3984 295.449 52.4805 295.605 51.4688C295.762 50.4609 295.84 49.4648 295.84 48.4844ZM317.414 57.1563V41.9844C316.695 41.5469 315.914 41.168 315.07 40.8438C314.227 40.5234 313.242 40.3594 312.117 40.3594C311.555 40.3594 310.934 40.4531 310.258 40.6406C309.578 40.8281 308.945 41.2109 308.352 41.7813C307.766 42.3438 307.273 43.1523 306.867 44.2031C306.469 45.2461 306.273 46.6211 306.273 48.3281C306.273 50.0781 306.453 51.4805 306.82 52.5313C307.195 53.5742 307.699 54.3828 308.336 54.9531C308.98 55.5156 309.73 55.8867 310.586 56.0625C311.449 56.2422 312.383 56.3281 313.383 56.3281H315.617L316.07 57.1563H311.008C309.828 57.1563 308.719 56.9609 307.68 56.5625C306.637 56.1563 305.727 55.5859 304.945 54.8438C304.164 54.0938 303.543 53.1719 303.086 52.0781C302.637 50.9766 302.414 49.7266 302.414 48.3281C302.414 47.1719 302.633 46.0586 303.07 44.9844C303.516 43.9023 304.121 42.9453 304.883 42.1094C305.652 41.2773 306.559 40.6055 307.602 40.0938C308.652 39.5859 309.789 39.3281 311.008 39.3281C311.891 39.3281 312.664 39.375 313.32 39.4688C313.977 39.5547 314.555 39.668 315.055 39.8125C315.555 39.9609 315.992 40.1328 316.367 40.3281C316.75 40.5273 317.102 40.7344 317.414 40.9531V33H320.836V57.1563H317.414ZM339.566 57.1563V39.8281H343.004V57.1563H339.566ZM332.535 57.1563C331.41 57.1563 330.398 57.043 329.504 56.8125C328.617 56.5742 327.871 56.1797 327.27 55.625C326.676 55.0742 326.223 54.3398 325.91 53.4219C325.598 52.4961 325.441 51.3398 325.441 49.9531V39.8281H328.879V49.9844C328.879 50.7891 328.965 51.5703 329.145 52.3281C329.32 53.0781 329.602 53.75 329.988 54.3438C330.383 54.9297 330.887 55.4063 331.504 55.7813C332.129 56.1484 332.883 56.3281 333.77 56.3281H337.77L338.238 57.1563H332.535ZM360.77 57.1563L357.598 51.8906C357.418 51.6016 357.195 51.2188 356.926 50.75C356.664 50.2734 356.367 49.8047 356.035 49.3438C355.699 48.8867 355.324 48.4922 354.91 48.1563C354.504 47.8242 354.074 47.6563 353.629 47.6563C353.367 47.6563 353.129 47.7422 352.91 47.9063C352.699 48.0742 352.465 48.3125 352.207 48.625V47.3906L361.473 39.8281H362.801L354.207 46.7969V46.8594C354.363 46.8398 354.504 46.8281 354.629 46.8281C354.762 46.8281 354.898 46.8281 355.035 46.8281C356.035 46.8281 356.867 46.9766 357.535 47.2656C358.199 47.5469 358.789 47.9375 359.301 48.4375C359.809 48.9375 360.273 49.5117 360.691 50.1563C361.117 50.8047 361.574 51.4922 362.066 52.2188L365.332 57.1563H360.77ZM347.441 57.1563V33H350.863V57.1563H347.441ZM376.297 41.4844H373.172V54.5156C373.172 54.9219 373.289 55.3281 373.531 55.7344C373.781 56.1328 374.133 56.3281 374.594 56.3281H376.203L376 57.1563H371.234C370.68 57.1563 370.289 56.9023 370.062 56.3906C369.844 55.8828 369.734 55.3516 369.734 54.7969V41.4844H367.266L367.562 40.6563H369.734V35.8906H373.172V40.6563H376.531L376.297 41.4844ZM410.426 56.5938C410.309 56.793 410.191 56.9648 410.066 57.1094C409.949 57.2539 409.816 57.3281 409.66 57.3281C409.41 57.3281 409.211 57.1367 409.066 56.75L403.66 44.7188C403.598 44.543 403.496 44.4531 403.363 44.4531C403.227 44.4531 403.129 44.543 403.066 44.7188L398.16 56.75C397.98 57.1758 397.738 57.3906 397.426 57.3906C397.113 57.3906 396.855 57.1758 396.66 56.75L388.457 39.8281H392.488L398.363 51.8906C398.445 52.0703 398.555 52.1563 398.691 52.1563C398.848 52.1563 398.973 52.0703 399.066 51.8906L403.895 40.3594C403.977 40.1641 404.09 40.0156 404.238 39.9219C404.383 39.8203 404.535 39.7656 404.691 39.7656C405.043 39.7656 405.32 39.9648 405.52 40.3594L410.832 51.8906C410.914 52.0703 411.023 52.1563 411.16 52.1563C411.316 52.1563 411.434 52.0703 411.52 51.8906L417.223 39.8281H418.285L410.426 56.5938ZM445.816 57.1563V39.8281H449.254V57.1563H445.816ZM438.785 57.1563C437.66 57.1563 436.648 57.043 435.754 56.8125C434.867 56.5742 434.121 56.1797 433.52 55.625C432.926 55.0742 432.473 54.3398 432.16 53.4219C431.848 52.4961 431.691 51.3398 431.691 49.9531V39.8281H435.129V49.9844C435.129 50.7891 435.215 51.5703 435.395 52.3281C435.57 53.0781 435.852 53.75 436.238 54.3438C436.633 54.9297 437.137 55.4063 437.754 55.7813C438.379 56.1484 439.133 56.3281 440.02 56.3281H444.02L444.488 57.1563H438.785ZM468.113 40.2656C468.113 40.4453 468.012 40.6875 467.816 41C467.617 41.3047 467.316 41.7266 466.91 42.2656L456.957 55.2969C456.707 55.6016 456.582 55.8281 456.582 55.9844C456.582 56.1641 456.664 56.2656 456.832 56.2969C456.996 56.3203 457.168 56.3281 457.348 56.3281H467.645V57.1563H453.379C453.004 57.1563 452.68 57.1367 452.41 57.0938C452.148 57.043 452.02 56.8984 452.02 56.6563C452.02 56.4805 452.105 56.2305 452.285 55.9063C452.461 55.5859 452.762 55.1563 453.191 54.625L463.082 41.8906C463.215 41.7148 463.34 41.543 463.457 41.375C463.582 41.2109 463.645 41.0586 463.645 40.9219C463.645 40.7461 463.457 40.6563 463.082 40.6563H453.582V39.8281H466.645C467.113 39.8281 467.473 39.8516 467.723 39.8906C467.98 39.9336 468.113 40.0586 468.113 40.2656ZM462.145 35.3281C462.145 35.8594 461.945 36.3281 461.551 36.7344C461.152 37.1328 460.684 37.3281 460.145 37.3281C459.613 37.3281 459.145 37.1328 458.738 36.7344C458.34 36.3281 458.145 35.8594 458.145 35.3281C458.145 34.7969 458.34 34.3359 458.738 33.9375C459.145 33.5312 459.613 33.3281 460.145 33.3281C460.684 33.3281 461.152 33.5312 461.551 33.9375C461.945 34.3359 462.145 34.7969 462.145 35.3281ZM479.586 56.8594C479.336 57.3281 479.059 57.8281 478.758 58.3594C478.465 58.8906 478.152 59.4063 477.82 59.9063C477.484 60.4063 477.125 60.875 476.742 61.3125C476.367 61.7578 475.969 62.1406 475.555 62.4531C474.375 63.3164 472.82 63.75 470.883 63.75H470.414L470.711 62.8906C471.355 62.8906 471.922 62.8477 472.414 62.7656C472.902 62.6914 473.371 62.5664 473.82 62.3906C474.371 62.1719 474.875 61.8516 475.336 61.4375C475.793 61.0313 476.211 60.582 476.586 60.0938C476.961 59.6016 477.281 59.1094 477.555 58.6094C477.836 58.1094 478.063 57.6563 478.242 57.25L469.445 39.8281H473.352L480.289 53.5625L487.383 39.8281H488.383L479.586 56.8594ZM507.605 55.0938C506.762 55.8438 505.676 56.4609 504.355 56.9375C503.043 57.4141 501.527 57.6563 499.809 57.6563C498.391 57.6563 497.078 57.4297 495.871 56.9844C494.672 56.5273 493.637 55.8906 492.762 55.0781C491.887 54.2656 491.199 53.2969 490.699 52.1719C490.199 51.0469 489.949 49.8203 489.949 48.4844C489.949 47.1523 490.199 45.9297 490.699 44.8125C491.199 43.6875 491.887 42.7188 492.762 41.9063C493.637 41.0938 494.672 40.4648 495.871 40.0156C497.078 39.5586 498.391 39.3281 499.809 39.3281C501.41 39.3281 502.844 39.5391 504.105 39.9531C505.375 40.3594 506.402 40.8281 507.184 41.3594L506.949 42.2656C506.051 41.6641 505.016 41.1563 503.84 40.75C502.66 40.3359 501.309 40.125 499.777 40.125C498.691 40.125 497.77 40.3711 497.012 40.8594C496.262 41.3516 495.645 41.9922 495.168 42.7813C494.688 43.5625 494.34 44.4531 494.121 45.4531C493.91 46.4531 493.809 47.4648 493.809 48.4844C493.809 49.9961 493.996 51.2773 494.371 52.3281C494.754 53.3711 495.25 54.2188 495.855 54.875C496.469 55.5313 497.156 56.0117 497.918 56.3125C498.688 56.6055 499.465 56.75 500.246 56.75C501.672 56.75 502.98 56.5313 504.168 56.0938C505.356 55.6484 506.402 55.0313 507.309 54.25L507.605 55.0938ZM515.238 35.5625C515.238 36.0938 515.051 36.5586 514.676 36.9531C514.301 37.3398 513.82 37.5312 513.238 37.5312C512.707 37.5312 512.246 37.3398 511.863 36.9531C511.477 36.5586 511.285 36.0938 511.285 35.5625C511.285 35.0312 511.477 34.5703 511.863 34.1719C512.246 33.7656 512.707 33.5625 513.238 33.5625C513.82 33.5625 514.301 33.7656 514.676 34.1719C515.051 34.5703 515.238 35.0312 515.238 35.5625ZM511.551 57.1563V39.8281H514.973V57.1563H511.551ZM534.266 57.1563V39.8281H537.703V57.1563H534.266ZM527.234 57.1563C526.109 57.1563 525.098 57.043 524.203 56.8125C523.316 56.5742 522.57 56.1797 521.969 55.625C521.375 55.0742 520.922 54.3398 520.609 53.4219C520.297 52.4961 520.141 51.3398 520.141 49.9531V39.8281H523.578V49.9844C523.578 50.7891 523.664 51.5703 523.844 52.3281C524.02 53.0781 524.301 53.75 524.688 54.3438C525.082 54.9297 525.586 55.4063 526.203 55.7813C526.828 56.1484 527.582 56.3281 528.469 56.3281H532.469L532.938 57.1563H527.234ZM540.77 57.8281H538.738L547.441 35.1562H549.473L540.77 57.8281Z" fill="#665F20"/>
<path d="M196.453 88.8906C196.211 89.3398 195.941 89.7344 195.641 90.0781C195.336 90.4219 195.031 90.5938 194.719 90.5938C194.281 90.5938 193.875 90.2227 193.5 89.4844L184.922 72.8281H189L195.766 86.0312C195.961 86.4297 196.148 86.625 196.328 86.625C196.461 86.625 196.594 86.543 196.719 86.375C196.852 86.2109 197 85.9805 197.156 85.6875L204.125 72.8281H205.156L196.453 88.8906ZM226.492 81.4844C226.492 82.8203 226.242 84.0469 225.742 85.1719C225.242 86.2969 224.547 87.2656 223.664 88.0781C222.789 88.8906 221.746 89.5273 220.539 89.9844C219.328 90.4297 218.012 90.6563 216.586 90.6563C215.168 90.6563 213.855 90.4297 212.648 89.9844C211.449 89.5273 210.414 88.8906 209.539 88.0781C208.664 87.2656 207.977 86.2969 207.477 85.1719C206.977 84.0469 206.727 82.8203 206.727 81.4844C206.727 80.1523 206.977 78.9297 207.477 77.8125C207.977 76.6875 208.664 75.7188 209.539 74.9063C210.414 74.0938 211.449 73.4648 212.648 73.0156C213.855 72.5586 215.168 72.3281 216.586 72.3281C218.012 72.3281 219.328 72.5586 220.539 73.0156C221.746 73.4648 222.789 74.0938 223.664 74.9063C224.547 75.7188 225.242 76.6875 225.742 77.8125C226.242 78.9297 226.492 80.1523 226.492 81.4844ZM222.617 81.4844C222.617 80.5156 222.539 79.5273 222.383 78.5156C222.227 77.4961 221.922 76.5781 221.477 75.7656C221.039 74.9453 220.422 74.2734 219.633 73.75C218.852 73.2188 217.836 72.9531 216.586 72.9531C215.344 72.9531 214.336 73.2188 213.555 73.75C212.781 74.2734 212.172 74.9453 211.727 75.7656C211.277 76.5781 210.977 77.4961 210.82 78.5156C210.664 79.5273 210.586 80.5156 210.586 81.4844C210.586 82.4648 210.664 83.4609 210.82 84.4688C210.977 85.4805 211.277 86.3984 211.727 87.2188C212.172 88.043 212.781 88.7148 213.555 89.2344C214.336 89.7578 215.344 90.0156 216.586 90.0156C217.836 90.0156 218.852 89.7578 219.633 89.2344C220.422 88.7148 221.039 88.043 221.477 87.2188C221.922 86.3984 222.227 85.4805 222.383 84.4688C222.539 83.4609 222.617 82.4648 222.617 81.4844ZM234.344 68.5625C234.344 69.0938 234.156 69.5586 233.781 69.9531C233.406 70.3398 232.926 70.5312 232.344 70.5312C231.812 70.5312 231.352 70.3398 230.969 69.9531C230.582 69.5586 230.391 69.0938 230.391 68.5625C230.391 68.0312 230.582 67.5703 230.969 67.1719C231.352 66.7656 231.812 66.5625 232.344 66.5625C232.926 66.5625 233.406 66.7656 233.781 67.1719C234.156 67.5703 234.344 68.0312 234.344 68.5625ZM230.656 90.1563V72.8281H234.078V90.1563H230.656ZM255.875 88.0938C255.031 88.8438 253.945 89.4609 252.625 89.9375C251.313 90.4141 249.797 90.6563 248.078 90.6563C246.66 90.6563 245.348 90.4297 244.141 89.9844C242.941 89.5273 241.906 88.8906 241.031 88.0781C240.156 87.2656 239.469 86.2969 238.969 85.1719C238.469 84.0469 238.219 82.8203 238.219 81.4844C238.219 80.1523 238.469 78.9297 238.969 77.8125C239.469 76.6875 240.156 75.7188 241.031 74.9063C241.906 74.0938 242.941 73.4648 244.141 73.0156C245.348 72.5586 246.66 72.3281 248.078 72.3281C249.68 72.3281 251.113 72.5391 252.375 72.9531C253.645 73.3594 254.672 73.8281 255.453 74.3594L255.219 75.2656C254.32 74.6641 253.285 74.1562 252.109 73.75C250.93 73.3359 249.578 73.125 248.047 73.125C246.961 73.125 246.039 73.3711 245.281 73.8594C244.531 74.3516 243.914 74.9922 243.438 75.7813C242.957 76.5625 242.609 77.4531 242.391 78.4531C242.18 79.4531 242.078 80.4648 242.078 81.4844C242.078 82.9961 242.266 84.2773 242.641 85.3281C243.023 86.3711 243.52 87.2188 244.125 87.875C244.738 88.5313 245.426 89.0117 246.188 89.3125C246.957 89.6055 247.734 89.75 248.516 89.75C249.941 89.75 251.25 89.5313 252.438 89.0938C253.625 88.6484 254.672 88.0313 255.578 87.25L255.875 88.0938ZM260.852 90.1563C260.297 90.1563 259.906 89.9023 259.68 89.3906C259.461 88.8828 259.352 88.3516 259.352 87.7969V74.9844C259.352 74.4766 259.469 73.9922 259.711 73.5312C259.961 73.0625 260.34 72.8281 260.852 72.8281H274.945V73.6562H264.211C263.793 73.6562 263.449 73.8203 263.18 74.1406C262.918 74.4648 262.789 74.8398 262.789 75.2656V80.3594H273.617V81.1875H262.789V87.5156C262.789 87.9219 262.906 88.3281 263.148 88.7344C263.387 89.1328 263.742 89.3281 264.211 89.3281H276.008V90.1563H260.852ZM297.879 81.4844C297.879 82.8203 297.629 84.0469 297.129 85.1719C296.629 86.2969 295.934 87.2656 295.051 88.0781C294.176 88.8906 293.133 89.5273 291.926 89.9844C290.715 90.4297 289.398 90.6563 287.973 90.6563C286.555 90.6563 285.242 90.4297 284.035 89.9844C282.836 89.5273 281.801 88.8906 280.926 88.0781C280.051 87.2656 279.363 86.2969 278.863 85.1719C278.363 84.0469 278.113 82.8203 278.113 81.4844C278.113 80.1523 278.363 78.9297 278.863 77.8125C279.363 76.6875 280.051 75.7188 280.926 74.9063C281.801 74.0938 282.836 73.4648 284.035 73.0156C285.242 72.5586 286.555 72.3281 287.973 72.3281C289.398 72.3281 290.715 72.5586 291.926 73.0156C293.133 73.4648 294.176 74.0938 295.051 74.9063C295.934 75.7188 296.629 76.6875 297.129 77.8125C297.629 78.9297 297.879 80.1523 297.879 81.4844ZM294.004 81.4844C294.004 80.5156 293.926 79.5273 293.77 78.5156C293.613 77.4961 293.309 76.5781 292.863 75.7656C292.426 74.9453 291.809 74.2734 291.02 73.75C290.238 73.2188 289.223 72.9531 287.973 72.9531C286.73 72.9531 285.723 73.2188 284.941 73.75C284.168 74.2734 283.559 74.9453 283.113 75.7656C282.664 76.5781 282.363 77.4961 282.207 78.5156C282.051 79.5273 281.973 80.5156 281.973 81.4844C281.973 82.4648 282.051 83.4609 282.207 84.4688C282.363 85.4805 282.664 86.3984 283.113 87.2188C283.559 88.043 284.168 88.7148 284.941 89.2344C285.723 89.7578 286.73 90.0156 287.973 90.0156C289.223 90.0156 290.238 89.7578 291.02 89.2344C291.809 88.7148 292.426 88.043 292.863 87.2188C293.309 86.3984 293.613 85.4805 293.77 84.4688C293.926 83.4609 294.004 82.4648 294.004 81.4844ZM310.969 88.8906C310.727 89.3398 310.457 89.7344 310.156 90.0781C309.852 90.4219 309.547 90.5938 309.234 90.5938C308.797 90.5938 308.391 90.2227 308.016 89.4844L299.438 72.8281H303.516L310.281 86.0312C310.477 86.4297 310.664 86.625 310.844 86.625C310.977 86.625 311.109 86.543 311.234 86.375C311.367 86.2109 311.516 85.9805 311.672 85.6875L318.641 72.8281H319.672L310.969 88.8906ZM323.973 90.1563C323.418 90.1563 323.027 89.9023 322.801 89.3906C322.582 88.8828 322.473 88.3516 322.473 87.7969V74.9844C322.473 74.4766 322.59 73.9922 322.832 73.5312C323.082 73.0625 323.461 72.8281 323.973 72.8281H338.066V73.6562H327.332C326.914 73.6562 326.57 73.8203 326.301 74.1406C326.039 74.4648 325.91 74.8398 325.91 75.2656V80.3594H336.738V81.1875H325.91V87.5156C325.91 87.9219 326.027 88.3281 326.27 88.7344C326.508 89.1328 326.863 89.3281 327.332 89.3281H339.129V90.1563H323.973ZM356.098 90.1563C356.012 89.8438 355.887 89.4375 355.723 88.9375C355.555 88.4375 355.363 87.9141 355.145 87.3594C354.934 86.8086 354.723 86.2578 354.504 85.7031C354.285 85.1406 354.07 84.6484 353.863 84.2188C353.602 83.6484 353.316 83.1797 353.004 82.8125C352.691 82.4375 352.316 82.1367 351.879 81.9063C351.449 81.6797 350.945 81.5234 350.363 81.4375C349.789 81.3438 349.102 81.2969 348.301 81.2969H347.238L347.77 80.4844H350.441C351.074 80.4844 351.68 80.4297 352.254 80.3125C352.836 80.1875 353.348 79.9844 353.785 79.7031C354.223 79.4141 354.57 79.0391 354.832 78.5781C355.102 78.1211 355.238 77.5469 355.238 76.8594C355.238 76.3281 355.102 75.8672 354.832 75.4688C354.57 75.0625 354.207 74.7305 353.738 74.4688C353.27 74.1992 352.723 73.9961 352.098 73.8594C351.48 73.7266 350.805 73.6562 350.066 73.6562H347.332C346.914 73.6562 346.57 73.8203 346.301 74.1406C346.039 74.4648 345.91 74.8398 345.91 75.2656V90.1563H342.473V74.9844C342.473 74.4766 342.59 73.9922 342.832 73.5312C343.082 73.0625 343.461 72.8281 343.973 72.8281H349.238C352.457 72.8281 354.848 73.1523 356.41 73.7969C357.98 74.4453 358.77 75.5313 358.77 77.0625C358.77 77.75 358.605 78.3438 358.285 78.8438C357.961 79.3438 357.52 79.7656 356.957 80.1094C356.402 80.4531 355.746 80.7188 354.988 80.9063C354.238 81.0938 353.43 81.2109 352.566 81.25V81.2969C353.367 81.4766 354.07 81.6719 354.676 81.8906C355.289 82.1094 355.832 82.4062 356.301 82.7812C356.77 83.1484 357.184 83.6016 357.551 84.1406C357.914 84.6836 358.262 85.3555 358.598 86.1562L360.238 90.1563H356.098Z" fill="#665F20"/>
</svg>
