<svg width="181" height="50" viewBox="0 0 181 50" fill="none" xmlns="http://www.w3.org/2000/svg">
<path d="M27.25 48.3281C27.0703 47.7031 26.8164 46.8906 26.4844 45.8906C26.1484 44.8906 25.7695 43.8398 25.3438 42.7344C24.9258 41.6211 24.4922 40.5117 24.0469 39.4062C23.6094 38.293 23.1914 37.3125 22.7969 36.4688C22.2539 35.3125 21.6719 34.3711 21.0469 33.6406C20.4297 32.9023 19.6914 32.2969 18.8281 31.8281C17.9609 31.3594 16.9531 31.0391 15.7969 30.8594C14.6406 30.6836 13.2578 30.5938 11.6562 30.5938H9.53125L10.5938 29H15.9219C17.2109 29 18.4375 28.8828 19.5938 28.6406C20.75 28.3906 21.7578 27.9805 22.625 27.4062C23.4883 26.8242 24.1875 26.0781 24.7188 25.1719C25.2578 24.2578 25.5312 23.1094 25.5312 21.7344C25.5312 20.6641 25.2578 19.7305 24.7188 18.9375C24.1875 18.1367 23.4531 17.4688 22.5156 16.9375C21.5859 16.4062 20.5 16.0078 19.25 15.7344C18.0078 15.4648 16.6562 15.3281 15.1875 15.3281H9.73438C8.87891 15.3281 8.1875 15.6523 7.65625 16.2969C7.125 16.9453 6.85938 17.6875 6.85938 18.5312V48.3281H0V18C0 16.9805 0.242187 16.0078 0.734375 15.0781C1.22266 14.1406 1.97656 13.6719 3 13.6719H13.5312C19.9688 13.6719 24.7539 14.3203 27.8906 15.6094C31.0234 16.8906 32.5938 19.0625 32.5938 22.125C32.5938 23.5117 32.2695 24.7031 31.625 25.7031C30.9766 26.7031 30.0977 27.5469 28.9844 28.2344C27.8789 28.9219 26.5703 29.4531 25.0625 29.8281C23.5508 30.2031 21.9258 30.4375 20.1875 30.5312V30.5938C21.7891 30.9492 23.2031 31.3516 24.4219 31.7969C25.6406 32.2461 26.7188 32.8359 27.6563 33.5625C28.5938 34.293 29.4258 35.2031 30.1563 36.2969C30.8828 37.3906 31.582 38.7344 32.25 40.3281L35.5156 48.3281H27.25ZM79.0547 31C79.0547 33.668 78.5547 36.125 77.5547 38.375C76.5547 40.6172 75.1719 42.5469 73.4141 44.1719C71.6641 45.7891 69.5742 47.0547 67.1484 47.9688C64.7305 48.875 62.1016 49.3281 59.2578 49.3281C56.4141 49.3281 53.7891 48.875 51.3828 47.9688C48.9844 47.0547 46.9062 45.7891 45.1484 44.1719C43.3984 42.5469 42.0234 40.6172 41.0234 38.375C40.0234 36.125 39.5234 33.668 39.5234 31C39.5234 28.3359 40.0234 25.8828 41.0234 23.6406C42.0234 21.3906 43.3984 19.4609 45.1484 17.8438C46.9062 16.2188 48.9844 14.9531 51.3828 14.0469C53.7891 13.1328 56.4141 12.6719 59.2578 12.6719C62.1016 12.6719 64.7305 13.1328 67.1484 14.0469C69.5742 14.9531 71.6641 16.2188 73.4141 17.8438C75.1719 19.4609 76.5547 21.3906 77.5547 23.6406C78.5547 25.8828 79.0547 28.3359 79.0547 31ZM71.3203 31C71.3203 29.043 71.1641 27.0547 70.8516 25.0312C70.5391 23.0117 69.9336 21.1797 69.0391 19.5312C68.1524 17.8867 66.918 16.543 65.3359 15.5C63.7617 14.4609 61.7344 13.9375 59.2578 13.9375C56.7656 13.9375 54.7422 14.4609 53.1797 15.5C51.625 16.543 50.4023 17.8867 49.5078 19.5312C48.6211 21.1797 48.0234 23.0117 47.7109 25.0312C47.4062 27.0547 47.2578 29.043 47.2578 31C47.2578 32.9609 47.4062 34.9492 47.7109 36.9688C48.0234 38.9922 48.6211 40.8242 49.5078 42.4688C50.4023 44.1055 51.625 45.4492 53.1797 46.5C54.7422 47.543 56.7656 48.0625 59.2578 48.0625C61.7344 48.0625 63.7617 47.543 65.3359 46.5C66.918 45.4492 68.1524 44.1055 69.0391 42.4688C69.9336 40.8242 70.5391 38.9922 70.8516 36.9688C71.1641 34.9492 71.3203 32.9609 71.3203 31ZM98.7188 48.3281H90.375C89.2695 48.3281 88.4922 47.8203 88.0469 46.7969C87.5977 45.7773 87.375 44.7109 87.375 43.5938V0H94.25V43.0625C94.25 43.8672 94.4922 44.668 94.9844 45.4688C95.4727 46.2617 96.1797 46.6562 97.1094 46.6562H99.25L98.7188 48.3281ZM132.047 48.3281L125.703 37.7969C125.348 37.2266 124.906 36.4609 124.375 35.5C123.844 34.543 123.242 33.6094 122.578 32.7031C121.91 31.7891 121.164 30.9961 120.344 30.3281C119.52 29.6641 118.664 29.3281 117.781 29.3281C117.25 29.3281 116.77 29.4961 116.344 29.8281C115.926 30.1641 115.445 30.6406 114.906 31.2656V28.7969L133.438 13.6719H136.109L118.906 27.5938V27.7344C119.219 27.6953 119.504 27.6719 119.766 27.6719C120.035 27.6719 120.305 27.6719 120.578 27.6719C122.578 27.6719 124.242 27.9609 125.578 28.5312C126.91 29.1055 128.086 29.8906 129.109 30.8906C130.129 31.8906 131.062 33.0391 131.906 34.3281C132.75 35.6211 133.66 37 134.641 38.4688L141.172 48.3281H132.047ZM105.375 48.3281V0H112.25V48.3281H105.375ZM173.77 48.3281V28.5312H168.504C166.723 28.5312 164.949 28.668 163.191 28.9375C161.441 29.1992 159.879 29.7109 158.504 30.4688C157.129 31.2188 156.02 32.2734 155.176 33.625C154.332 34.9805 153.91 36.7461 153.91 38.9219C153.91 41.3711 154.559 43.2734 155.863 44.625C157.176 45.9805 159.277 46.6562 162.176 46.6562H170.238L171.098 48.3281H160.238C158.508 48.3281 156.809 48.1523 155.145 47.7969C153.477 47.4453 151.977 46.8672 150.645 46.0625C149.309 45.2617 148.23 44.1953 147.41 42.8594C146.586 41.5273 146.176 39.8594 146.176 37.8594C146.176 36.2148 146.559 34.793 147.332 33.5938C148.113 32.3984 149.148 31.3984 150.441 30.5938C151.73 29.793 153.184 29.1523 154.801 28.6719C156.426 28.1836 158.059 27.8047 159.707 27.5312C161.352 27.2617 162.961 27.0859 164.535 27C166.105 26.9062 167.473 26.8594 168.629 26.8594H173.77V24.8594C173.77 21.6641 172.988 19.1016 171.426 17.1719C169.871 15.2344 167.41 14.2656 164.035 14.2656C160.836 14.2656 157.957 14.5703 155.395 15.1719C152.84 15.7656 150.523 16.6406 148.441 17.7969L147.973 16C150.598 14.625 153.352 13.7305 156.238 13.3125C159.121 12.8867 162.055 12.6719 165.035 12.6719C166.941 12.6719 168.824 12.8594 170.691 13.2344C172.566 13.6094 174.23 14.2344 175.691 15.1094C177.16 15.9766 178.348 17.1211 179.254 18.5469C180.168 19.9648 180.629 21.7148 180.629 23.7969V48.3281H173.77Z" fill="#665F20"/>
</svg>
