<svg width="236" height="50" viewBox="0 0 236 50" fill="none" xmlns="http://www.w3.org/2000/svg">
<path d="M24.875 7.32812V48.3281H17.1406V7.32812H0V5.67188H42V7.32812H24.875ZM56.5977 5.14062C56.5977 6.20312 56.2148 7.125 55.457 7.90625C54.707 8.67969 53.7539 9.0625 52.5977 9.0625C51.5352 9.0625 50.6133 8.67969 49.832 7.90625C49.0508 7.125 48.6602 6.20312 48.6602 5.14062C48.6602 4.07031 49.0508 3.13672 49.832 2.34375C50.6133 1.54297 51.5352 1.14062 52.5977 1.14062C53.7539 1.14062 54.707 1.54297 55.457 2.34375C56.2148 3.13672 56.5977 4.07031 56.5977 5.14062ZM49.1914 48.3281V13.6719H56.0664V48.3281H49.1914ZM93.8633 48.3281L87.5195 37.7969C87.1641 37.2266 86.7227 36.4609 86.1914 35.5C85.6602 34.543 85.0586 33.6094 84.3945 32.7031C83.7266 31.7891 82.9805 30.9961 82.1602 30.3281C81.3359 29.6641 80.4805 29.3281 79.5977 29.3281C79.0664 29.3281 78.5859 29.4961 78.1602 29.8281C77.7422 30.1641 77.2617 30.6406 76.7227 31.2656V28.7969L95.2539 13.6719H97.9258L80.7227 27.5938V27.7344C81.0352 27.6953 81.3203 27.6719 81.582 27.6719C81.8516 27.6719 82.1211 27.6719 82.3945 27.6719C84.3945 27.6719 86.0586 27.9609 87.3945 28.5313C88.7266 29.1055 89.9024 29.8906 90.9258 30.8906C91.9453 31.8906 92.8789 33.0391 93.7227 34.3281C94.5664 35.6211 95.4766 37 96.457 38.4688L102.988 48.3281H93.8633ZM67.1914 48.3281V0H74.0664V48.3281H67.1914ZM130.992 7.32812V48.3281H123.258V7.32812H106.117V5.67188H148.117V7.32812H130.992ZM191.449 31C191.449 33.668 190.949 36.125 189.949 38.375C188.949 40.6172 187.566 42.5469 185.809 44.1719C184.059 45.7891 181.969 47.0547 179.543 47.9688C177.125 48.875 174.496 49.3281 171.652 49.3281C168.809 49.3281 166.184 48.875 163.777 47.9688C161.379 47.0547 159.301 45.7891 157.543 44.1719C155.793 42.5469 154.418 40.6172 153.418 38.375C152.418 36.125 151.918 33.668 151.918 31C151.918 28.3359 152.418 25.8828 153.418 23.6406C154.418 21.3906 155.793 19.4609 157.543 17.8438C159.301 16.2188 161.379 14.9531 163.777 14.0469C166.184 13.1328 168.809 12.6719 171.652 12.6719C174.496 12.6719 177.125 13.1328 179.543 14.0469C181.969 14.9531 184.059 16.2188 185.809 17.8438C187.566 19.4609 188.949 21.3906 189.949 23.6406C190.949 25.8828 191.449 28.3359 191.449 31ZM183.715 31C183.715 29.043 183.559 27.0547 183.246 25.0313C182.934 23.0117 182.328 21.1797 181.434 19.5312C180.547 17.8867 179.313 16.543 177.73 15.5C176.156 14.4609 174.129 13.9375 171.652 13.9375C169.16 13.9375 167.137 14.4609 165.574 15.5C164.02 16.543 162.797 17.8867 161.902 19.5312C161.016 21.1797 160.418 23.0117 160.105 25.0313C159.801 27.0547 159.652 29.043 159.652 31C159.652 32.9609 159.801 34.9492 160.105 36.9688C160.418 38.9922 161.016 40.8242 161.902 42.4688C162.797 44.1055 164.02 45.4492 165.574 46.5C167.137 47.543 169.16 48.0625 171.652 48.0625C174.129 48.0625 176.156 47.543 177.73 46.5C179.313 45.4492 180.547 44.1055 181.434 42.4688C182.328 40.8242 182.934 38.9922 183.246 36.9688C183.559 34.9492 183.715 32.9609 183.715 31ZM225.91 48.3281L219.566 37.7969C219.211 37.2266 218.77 36.4609 218.238 35.5C217.707 34.543 217.105 33.6094 216.441 32.7031C215.773 31.7891 215.027 30.9961 214.207 30.3281C213.383 29.6641 212.527 29.3281 211.645 29.3281C211.113 29.3281 210.633 29.4961 210.207 29.8281C209.789 30.1641 209.309 30.6406 208.77 31.2656V28.7969L227.301 13.6719H229.973L212.77 27.5938V27.7344C213.082 27.6953 213.367 27.6719 213.629 27.6719C213.898 27.6719 214.168 27.6719 214.441 27.6719C216.441 27.6719 218.105 27.9609 219.441 28.5313C220.773 29.1055 221.949 29.8906 222.973 30.8906C223.992 31.8906 224.926 33.0391 225.77 34.3281C226.613 35.6211 227.523 37 228.504 38.4688L235.035 48.3281H225.91ZM199.238 48.3281V0H206.113V48.3281H199.238Z" fill="#665F20"/>
</svg>
