<svg width="370" height="77" viewBox="0 0 370 77" fill="none" xmlns="http://www.w3.org/2000/svg">
<path d="M46.1719 37.9844C46.1719 41.3281 45.5 44.3906 44.1562 47.1719C42.8203 49.9531 41.0391 52.3359 38.8125 54.3125C36.5937 56.293 34.0195 57.8242 31.0938 58.9062C28.1758 59.9922 25.1562 60.5312 22.0312 60.5312H11.9375L13.2656 58.4375H18.7031C21.2656 58.4375 23.6289 58.1875 25.7969 57.6875C27.9609 57.1875 29.8359 56.2148 31.4219 54.7656C33.0156 53.3203 34.2539 51.2617 35.1406 48.5937C36.0352 45.918 36.4844 42.3828 36.4844 37.9844C36.4844 33.9766 36.0078 30.6797 35.0625 28.0938C34.1133 25.5 32.9297 23.4531 31.5156 21.9531C30.0977 20.4531 28.5664 19.4141 26.9219 18.8281C25.2734 18.2461 23.7852 17.9531 22.4531 17.9531C20.9531 17.9531 19.5313 18.1211 18.1875 18.4531C16.8516 18.7891 15.5859 19.1953 14.3906 19.6719C13.2031 20.1406 12.1172 20.6406 11.1406 21.1719C10.1719 21.6953 9.32031 22.1797 8.59375 22.625V76.8906H0V17.1094H8.59375V20.375C9.25781 19.9805 10.0664 19.5312 11.0156 19.0313C11.9609 18.5313 13.0625 18.0469 14.3125 17.5781C15.5625 17.1016 16.9766 16.6953 18.5625 16.3594C20.1563 16.0273 21.8984 15.8594 23.7969 15.8594C26.5781 15.8594 29.3008 16.3906 31.9687 17.4531C34.6445 18.5078 37.0234 19.9961 39.1094 21.9219C41.2031 23.8398 42.8984 26.1641 44.2031 28.8906C45.5156 31.6094 46.1719 34.6406 46.1719 37.9844ZM103.035 38.8281C103.035 42.1641 102.402 45.2344 101.145 48.0469C99.8945 50.8594 98.168 53.2813 95.9727 55.3125C93.7734 57.3438 91.1602 58.9336 88.1289 60.0781C85.0977 61.2109 81.8008 61.7813 78.2383 61.7813C74.6758 61.7813 71.3867 61.2109 68.3789 60.0781C65.3672 58.9336 62.7617 57.3438 60.5664 55.3125C58.3672 53.2813 56.6445 50.8594 55.3945 48.0469C54.1445 45.2344 53.5195 42.1641 53.5195 38.8281C53.5195 35.4844 54.1445 32.4062 55.3945 29.5937C56.6445 26.7812 58.3672 24.3594 60.5664 22.3281C62.7617 20.2969 65.3672 18.7148 68.3789 17.5781C71.3867 16.4336 74.6758 15.8594 78.2383 15.8594C81.8008 15.8594 85.0977 16.4336 88.1289 17.5781C91.1602 18.7148 93.7734 20.2969 95.9727 22.3281C98.168 24.3594 99.8945 26.7812 101.145 29.5937C102.402 32.4062 103.035 35.4844 103.035 38.8281ZM93.3477 38.8281C93.3477 36.3711 93.1484 33.875 92.7539 31.3437C92.3672 28.8125 91.6172 26.5234 90.5039 24.4687C89.3867 22.4062 87.8398 20.7187 85.8633 19.4062C83.8945 18.0937 81.3516 17.4375 78.2383 17.4375C75.1133 17.4375 72.5742 18.0937 70.6289 19.4062C68.6797 20.7187 67.1484 22.4062 66.0352 24.4687C64.918 26.5234 64.168 28.8125 63.7852 31.3437C63.3984 33.875 63.207 36.3711 63.207 38.8281C63.207 41.2773 63.3984 43.7656 63.7852 46.2969C64.168 48.8281 64.918 51.125 66.0352 53.1875C67.1484 55.2422 68.6797 56.9219 70.6289 58.2344C72.5742 59.5469 75.1133 60.2031 78.2383 60.2031C81.3516 60.2031 83.8945 59.5469 85.8633 58.2344C87.8398 56.9219 89.3867 55.2422 90.5039 53.1875C91.6172 51.125 92.3672 48.8281 92.7539 46.2969C93.1484 43.7656 93.3477 41.2773 93.3477 38.8281ZM146.445 60.5312C146.227 59.75 145.906 58.7344 145.492 57.4844C145.074 56.2344 144.602 54.918 144.07 53.5312C143.539 52.1367 142.992 50.7422 142.43 49.3438C141.875 47.9492 141.352 46.7266 140.852 45.6719C140.184 44.2266 139.461 43.043 138.68 42.125C137.898 41.1992 136.965 40.4453 135.883 39.8594C134.797 39.2773 133.531 38.875 132.086 38.6563C130.637 38.4297 128.914 38.3125 126.914 38.3125H124.242L125.57 36.3125H132.258C133.871 36.3125 135.402 36.1641 136.852 35.8594C138.297 35.5469 139.563 35.0312 140.648 34.3125C141.73 33.5937 142.605 32.6641 143.273 31.5156C143.938 30.3711 144.273 28.9375 144.273 27.2188C144.273 25.875 143.938 24.7031 143.273 23.7031C142.605 22.7031 141.687 21.8711 140.523 21.2031C139.355 20.5391 137.992 20.0391 136.43 19.7031C134.867 19.3711 133.168 19.2031 131.336 19.2031H124.492C123.43 19.2031 122.562 19.6094 121.898 20.4219C121.23 21.2266 120.898 22.1523 120.898 23.2031V60.5312H112.289V22.5312C112.289 21.2617 112.594 20.043 113.211 18.875C113.824 17.6992 114.773 17.1094 116.055 17.1094H129.242C137.312 17.1094 143.312 17.918 147.242 19.5312C151.168 21.1484 153.133 23.875 153.133 27.7187C153.133 29.4375 152.727 30.9297 151.914 32.1875C151.109 33.4375 150.012 34.4961 148.617 35.3594C147.219 36.2266 145.574 36.8906 143.68 37.3594C141.793 37.8281 139.766 38.1211 137.602 38.2344V38.3125C139.602 38.7617 141.367 39.2656 142.898 39.8281C144.43 40.3828 145.777 41.1172 146.945 42.0312C148.109 42.9492 149.152 44.0898 150.07 45.4531C150.996 46.8203 151.875 48.5078 152.711 50.5156L156.805 60.5312H146.445ZM183.937 21.2812H176.094V53.9375C176.094 54.9375 176.395 55.9375 177 56.9375C177.613 57.9375 178.504 58.4375 179.672 58.4375H183.688L183.188 60.5312H171.25C169.852 60.5312 168.875 59.8906 168.313 58.6094C167.758 57.3281 167.484 55.9961 167.484 54.6094V21.2812H161.313L162.062 19.2031H167.484V7.26562H176.094V19.2031H184.516L183.937 21.2812ZM213.164 1.57812C211.996 1.57812 210.855 1.66406 209.742 1.82813C208.625 1.99609 207.637 2.34375 206.773 2.875C205.906 3.40625 205.211 4.1875 204.68 5.21875C204.156 6.24219 203.898 7.61719 203.898 9.34375V19.2031H212.07L211.492 21.2812H204.055V60.5312H195.461V21.2812H188.195L189.117 19.2031H195.289V16.5312C195.289 13.3555 195.855 10.7109 196.992 8.59375C198.137 6.48047 199.602 4.78125 201.383 3.5C203.164 2.21875 205.137 1.32031 207.305 0.796875C209.48 0.265625 211.602 0 213.664 0L213.164 1.57812ZM266.934 38.8281C266.934 42.1641 266.301 45.2344 265.043 48.0469C263.793 50.8594 262.066 53.2813 259.871 55.3125C257.672 57.3438 255.059 58.9336 252.027 60.0781C248.996 61.2109 245.699 61.7813 242.137 61.7813C238.574 61.7813 235.285 61.2109 232.277 60.0781C229.266 58.9336 226.66 57.3438 224.465 55.3125C222.266 53.2813 220.543 50.8594 219.293 48.0469C218.043 45.2344 217.418 42.1641 217.418 38.8281C217.418 35.4844 218.043 32.4062 219.293 29.5937C220.543 26.7812 222.266 24.3594 224.465 22.3281C226.66 20.2969 229.266 18.7148 232.277 17.5781C235.285 16.4336 238.574 15.8594 242.137 15.8594C245.699 15.8594 248.996 16.4336 252.027 17.5781C255.059 18.7148 257.672 20.2969 259.871 22.3281C262.066 24.3594 263.793 26.7812 265.043 29.5937C266.301 32.4062 266.934 35.4844 266.934 38.8281ZM257.246 38.8281C257.246 36.3711 257.047 33.875 256.652 31.3437C256.266 28.8125 255.516 26.5234 254.402 24.4687C253.285 22.4062 251.738 20.7187 249.762 19.4062C247.793 18.0937 245.25 17.4375 242.137 17.4375C239.012 17.4375 236.473 18.0937 234.527 19.4062C232.578 20.7187 231.047 22.4062 229.934 24.4687C228.816 26.5234 228.066 28.8125 227.684 31.3437C227.297 33.875 227.105 36.3711 227.105 38.8281C227.105 41.2773 227.297 43.7656 227.684 46.2969C228.066 48.8281 228.816 51.125 229.934 53.1875C231.047 55.2422 232.578 56.9219 234.527 58.2344C236.473 59.5469 239.012 60.2031 242.137 60.2031C245.25 60.2031 247.793 59.5469 249.762 58.2344C251.738 56.9219 253.285 55.2422 254.402 53.1875C255.516 51.125 256.266 48.8281 256.652 46.2969C257.047 43.7656 257.246 41.2773 257.246 38.8281ZM291.562 60.5312H281.125C279.727 60.5312 278.75 59.8906 278.187 58.6094C277.633 57.3281 277.359 55.9961 277.359 54.6094V0H285.969V53.9375C285.969 54.9375 286.27 55.9375 286.875 56.9375C287.488 57.9375 288.379 58.4375 289.547 58.4375H292.234L291.562 60.5312ZM309.836 6.42188C309.836 7.75781 309.359 8.91406 308.414 9.89062C307.477 10.8594 306.281 11.3437 304.836 11.3437C303.5 11.3437 302.344 10.8594 301.367 9.89062C300.398 8.91406 299.914 7.75781 299.914 6.42188C299.914 5.08985 300.398 3.92188 301.367 2.92188C302.344 1.91406 303.5 1.40625 304.836 1.40625C306.281 1.40625 307.477 1.91406 308.414 2.92188C309.359 3.92188 309.836 5.08985 309.836 6.42188ZM300.57 60.5312V17.1094H309.18V60.5312H300.57ZM369.051 38.8281C369.051 42.1641 368.418 45.2344 367.16 48.0469C365.91 50.8594 364.184 53.2813 361.988 55.3125C359.789 57.3438 357.176 58.9336 354.145 60.0781C351.113 61.2109 347.816 61.7813 344.254 61.7813C340.691 61.7813 337.402 61.2109 334.395 60.0781C331.383 58.9336 328.777 57.3438 326.582 55.3125C324.383 53.2813 322.66 50.8594 321.41 48.0469C320.16 45.2344 319.535 42.1641 319.535 38.8281C319.535 35.4844 320.16 32.4062 321.41 29.5937C322.66 26.7812 324.383 24.3594 326.582 22.3281C328.777 20.2969 331.383 18.7148 334.395 17.5781C337.402 16.4336 340.691 15.8594 344.254 15.8594C347.816 15.8594 351.113 16.4336 354.145 17.5781C357.176 18.7148 359.789 20.2969 361.988 22.3281C364.184 24.3594 365.91 26.7812 367.16 29.5937C368.418 32.4062 369.051 35.4844 369.051 38.8281ZM359.363 38.8281C359.363 36.3711 359.164 33.875 358.77 31.3437C358.383 28.8125 357.633 26.5234 356.52 24.4687C355.402 22.4062 353.855 20.7187 351.879 19.4062C349.91 18.0937 347.367 17.4375 344.254 17.4375C341.129 17.4375 338.59 18.0937 336.645 19.4062C334.695 20.7187 333.164 22.4062 332.051 24.4687C330.934 26.5234 330.184 28.8125 329.801 31.3437C329.414 33.875 329.223 36.3711 329.223 38.8281C329.223 41.2773 329.414 43.7656 329.801 46.2969C330.184 48.8281 330.934 51.125 332.051 53.1875C333.164 55.2422 334.695 56.9219 336.645 58.2344C338.59 59.5469 341.129 60.2031 344.254 60.2031C347.367 60.2031 349.91 59.5469 351.879 58.2344C353.855 56.9219 355.402 55.2422 356.52 53.1875C357.633 51.125 358.383 48.8281 358.77 46.2969C359.164 43.7656 359.363 41.2773 359.363 38.8281Z" fill="#665F20"/>
</svg>
