<svg width="562" height="64" viewBox="0 0 562 64" fill="none" xmlns="http://www.w3.org/2000/svg">
<path d="M86.3906 15.6875C86.3906 18.918 85.625 21.25 84.0938 22.6875C82.5625 24.1172 80.1875 24.8281 76.9688 24.8281C75.6953 24.8281 74.4414 24.7383 73.2031 24.5625C71.9727 24.3828 70.875 24.0391 69.9063 23.5156C68.9453 22.9844 68.1641 22.2578 67.5625 21.3281C66.9688 20.3906 66.6719 19.168 66.6719 17.6562V2.82812H70.5313V17.625C70.5313 18.668 70.707 19.5859 71.0625 20.375C71.4141 21.168 71.9102 21.8281 72.5469 22.3594C73.1797 22.8906 73.9297 23.2969 74.7969 23.5781C75.6602 23.8516 76.6016 23.9844 77.625 23.9844C80.4063 23.9844 82.4219 23.3281 83.6719 22.0156C84.9297 20.6953 85.5625 18.5938 85.5625 15.7188V2.82812H86.3906V15.6875ZM108.852 23.0156C108.852 23.5781 108.777 23.9688 108.633 24.1875C108.496 24.4063 108.312 24.5156 108.086 24.5156C107.844 24.5156 107.574 24.4141 107.273 24.2188C106.969 24.0234 106.699 23.8047 106.461 23.5625L93.8203 11.6875C93.5391 11.4297 93.3086 11.2969 93.1328 11.2969C92.9961 11.2969 92.8906 11.3555 92.8203 11.4688C92.7578 11.5742 92.7266 11.6953 92.7266 11.8281V24.1563H91.8984V7.625C91.8984 7.23047 91.9922 6.9375 92.1797 6.75C92.3672 6.55469 92.5938 6.45312 92.8672 6.45312C93.168 6.45312 93.4844 6.60156 93.8203 6.89062L106.961 19.0938C107.137 19.2734 107.281 19.3906 107.398 19.4531C107.523 19.5078 107.621 19.5312 107.695 19.5312C107.828 19.5312 107.918 19.4766 107.961 19.3594C108 19.2461 108.023 19.1367 108.023 19.0312V6.82812H108.852V23.0156ZM132.09 15.3281C132.09 16.4844 131.844 17.5938 131.355 18.6562C130.863 19.7188 130.199 20.6563 129.355 21.4688C128.512 22.2813 127.52 22.9336 126.387 23.4219C125.25 23.9141 124.051 24.1563 122.793 24.1563H118.184L118.652 23.3281H121.09C121.973 23.3281 122.844 23.2188 123.699 23C124.562 22.7734 125.328 22.3672 125.996 21.7813C126.66 21.1875 127.199 20.3711 127.605 19.3281C128.012 18.2773 128.215 16.9453 128.215 15.3281C128.215 13.6211 128.016 12.2461 127.621 11.2031C127.223 10.1523 126.73 9.33594 126.137 8.75C125.551 8.15625 124.922 7.76172 124.246 7.5625C123.566 7.36719 122.957 7.26563 122.418 7.26563C121.219 7.26563 120.176 7.49219 119.293 7.9375C118.406 8.375 117.594 8.87109 116.855 9.42188V24.1563H113.418V0H116.855V8.35938C117.168 8.10938 117.504 7.86719 117.871 7.625C118.234 7.38672 118.672 7.17188 119.184 6.98438C119.703 6.78906 120.309 6.63281 120.996 6.51562C121.684 6.39062 122.5 6.32812 123.449 6.32812C124.406 6.32812 125.391 6.53906 126.402 6.95312C127.41 7.35938 128.34 7.94922 129.184 8.71875C130.027 9.48047 130.719 10.4219 131.262 11.5469C131.813 12.6641 132.09 13.9219 132.09 15.3281ZM154.285 15.4844C154.285 16.8203 154.035 18.0469 153.535 19.1719C153.035 20.2969 152.34 21.2656 151.457 22.0781C150.582 22.8906 149.539 23.5273 148.332 23.9844C147.121 24.4297 145.805 24.6563 144.379 24.6563C142.961 24.6563 141.648 24.4297 140.441 23.9844C139.242 23.5273 138.207 22.8906 137.332 22.0781C136.457 21.2656 135.77 20.2969 135.27 19.1719C134.77 18.0469 134.52 16.8203 134.52 15.4844C134.52 14.1523 134.77 12.9297 135.27 11.8125C135.77 10.6875 136.457 9.71875 137.332 8.90625C138.207 8.09375 139.242 7.46484 140.441 7.01562C141.648 6.55859 142.961 6.32812 144.379 6.32812C145.805 6.32812 147.121 6.55859 148.332 7.01562C149.539 7.46484 150.582 8.09375 151.457 8.90625C152.34 9.71875 153.035 10.6875 153.535 11.8125C154.035 12.9297 154.285 14.1523 154.285 15.4844ZM150.41 15.4844C150.41 14.5156 150.332 13.5273 150.176 12.5156C150.02 11.4961 149.715 10.5781 149.27 9.76563C148.832 8.94531 148.215 8.27344 147.426 7.75C146.645 7.21875 145.629 6.95312 144.379 6.95312C143.137 6.95312 142.129 7.21875 141.348 7.75C140.574 8.27344 139.965 8.94531 139.52 9.76563C139.07 10.5781 138.77 11.4961 138.613 12.5156C138.457 13.5273 138.379 14.5156 138.379 15.4844C138.379 16.4648 138.457 17.4609 138.613 18.4688C138.77 19.4805 139.07 20.3984 139.52 21.2188C139.965 22.043 140.574 22.7148 141.348 23.2344C142.129 23.7578 143.137 24.0156 144.379 24.0156C145.629 24.0156 146.645 23.7578 147.426 23.2344C148.215 22.7148 148.832 22.043 149.27 21.2188C149.715 20.3984 150.02 19.4805 150.176 18.4688C150.332 17.4609 150.41 16.4648 150.41 15.4844ZM169.375 24.1563L163.75 16.625L157.313 24.1563H156.188L163.219 15.9219L156.375 6.82812H160.641L165.719 13.6563L171.313 6.82812H172.406L166.219 14.3281L173.516 24.1563H169.375ZM180.805 2.5625C180.805 3.09375 180.617 3.55859 180.242 3.95312C179.867 4.33984 179.387 4.53125 178.805 4.53125C178.273 4.53125 177.813 4.33984 177.43 3.95312C177.043 3.55859 176.852 3.09375 176.852 2.5625C176.852 2.03125 177.043 1.57031 177.43 1.17188C177.813 0.765625 178.273 0.5625 178.805 0.5625C179.387 0.5625 179.867 0.765625 180.242 1.17188C180.617 1.57031 180.805 2.03125 180.805 2.5625ZM177.117 24.1563V6.82812H180.539V24.1563H177.117ZM202.836 23.0156C202.836 23.5781 202.762 23.9688 202.617 24.1875C202.48 24.4063 202.297 24.5156 202.07 24.5156C201.828 24.5156 201.559 24.4141 201.258 24.2188C200.953 24.0234 200.684 23.8047 200.445 23.5625L187.805 11.6875C187.523 11.4297 187.293 11.2969 187.117 11.2969C186.98 11.2969 186.875 11.3555 186.805 11.4688C186.742 11.5742 186.711 11.6953 186.711 11.8281V24.1563H185.883V7.625C185.883 7.23047 185.977 6.9375 186.164 6.75C186.352 6.55469 186.578 6.45312 186.852 6.45312C187.152 6.45312 187.469 6.60156 187.805 6.89062L200.945 19.0938C201.121 19.2734 201.266 19.3906 201.383 19.4531C201.508 19.5078 201.605 19.5312 201.68 19.5312C201.813 19.5312 201.902 19.4766 201.945 19.3594C201.984 19.2461 202.008 19.1367 202.008 19.0312V6.82812H202.836V23.0156ZM224.668 23.1563C224.668 24.7813 224.363 26.0859 223.762 27.0781C223.168 28.0664 222.434 28.832 221.559 29.375C220.684 29.9141 219.73 30.2813 218.699 30.4688C217.676 30.6563 216.734 30.75 215.871 30.75H209.043L209.34 29.9219H216.668C217.137 29.9219 217.641 29.8594 218.184 29.7344C218.734 29.6172 219.23 29.2852 219.668 28.7344C220.113 28.1914 220.488 27.3594 220.793 26.2344C221.094 25.1172 221.246 23.5625 221.246 21.5625V9.0625C220.527 8.59375 219.703 8.1875 218.777 7.84375C217.859 7.5 216.848 7.32813 215.746 7.32813C214.59 7.32813 213.641 7.5625 212.902 8.03125C212.172 8.49219 211.594 9.10156 211.168 9.85938C210.75 10.6094 210.457 11.4648 210.293 12.4219C210.125 13.3828 210.043 14.3516 210.043 15.3281C210.043 17.0781 210.223 18.4805 210.59 19.5312C210.953 20.5742 211.457 21.3828 212.105 21.9531C212.75 22.5156 213.5 22.8867 214.355 23.0625C215.207 23.2422 216.137 23.3281 217.137 23.3281H219.434L219.902 24.1563H214.777C213.598 24.1563 212.484 23.9609 211.434 23.5625C210.391 23.1563 209.48 22.5859 208.699 21.8438C207.926 21.0938 207.313 20.1719 206.855 19.0781C206.406 17.9766 206.184 16.7266 206.184 15.3281C206.184 14.1719 206.395 13.0586 206.824 11.9844C207.262 10.9023 207.859 9.94531 208.621 9.10938C209.391 8.27734 210.297 7.60547 211.34 7.09375C212.379 6.58594 213.504 6.32812 214.715 6.32812C216.402 6.32812 217.75 6.50781 218.762 6.85938C219.77 7.21484 220.598 7.61719 221.246 8.0625V6.6875H224.668V23.1563ZM257.695 23.1563C257.695 24.7813 257.391 26.0859 256.789 27.0781C256.195 28.0664 255.461 28.832 254.586 29.375C253.711 29.9141 252.758 30.2813 251.727 30.4688C250.703 30.6563 249.762 30.75 248.898 30.75H242.07L242.367 29.9219H249.695C250.164 29.9219 250.668 29.8594 251.211 29.7344C251.762 29.6172 252.258 29.2852 252.695 28.7344C253.141 28.1914 253.516 27.3594 253.82 26.2344C254.121 25.1172 254.273 23.5625 254.273 21.5625V9.0625C253.555 8.59375 252.73 8.1875 251.805 7.84375C250.887 7.5 249.875 7.32813 248.773 7.32813C247.617 7.32813 246.668 7.5625 245.93 8.03125C245.199 8.49219 244.621 9.10156 244.195 9.85938C243.777 10.6094 243.484 11.4648 243.32 12.4219C243.152 13.3828 243.07 14.3516 243.07 15.3281C243.07 17.0781 243.25 18.4805 243.617 19.5312C243.98 20.5742 244.484 21.3828 245.133 21.9531C245.777 22.5156 246.527 22.8867 247.383 23.0625C248.234 23.2422 249.164 23.3281 250.164 23.3281H252.461L252.93 24.1563H247.805C246.625 24.1563 245.512 23.9609 244.461 23.5625C243.418 23.1563 242.508 22.5859 241.727 21.8438C240.953 21.0938 240.34 20.1719 239.883 19.0781C239.434 17.9766 239.211 16.7266 239.211 15.3281C239.211 14.1719 239.422 13.0586 239.852 11.9844C240.289 10.9023 240.887 9.94531 241.648 9.10938C242.418 8.27734 243.324 7.60547 244.367 7.09375C245.406 6.58594 246.531 6.32812 247.742 6.32812C249.43 6.32812 250.777 6.50781 251.789 6.85938C252.797 7.21484 253.625 7.61719 254.273 8.0625V6.6875H257.695V23.1563ZM276.691 24.1563V6.82812H280.129V24.1563H276.691ZM269.66 24.1563C268.535 24.1563 267.523 24.043 266.629 23.8125C265.742 23.5742 264.996 23.1797 264.395 22.625C263.801 22.0742 263.348 21.3398 263.035 20.4219C262.723 19.4961 262.566 18.3398 262.566 16.9531V6.82812H266.004V16.9844C266.004 17.7891 266.09 18.5703 266.27 19.3281C266.445 20.0781 266.727 20.75 267.113 21.3438C267.508 21.9297 268.012 22.4063 268.629 22.7813C269.254 23.1484 270.008 23.3281 270.895 23.3281H274.895L275.363 24.1563H269.66ZM302.289 24.1563V10.2188C302.289 9.91797 302.211 9.76563 302.055 9.76563C301.93 9.76563 301.777 9.90625 301.602 10.1875L293.867 24.1563H293.461L285.898 10.3281C285.68 9.95313 285.512 9.76563 285.398 9.76563C285.305 9.76563 285.242 9.83594 285.211 9.96875C285.18 10.0938 285.164 10.2344 285.164 10.3906V24.1563H284.336V8.95313C284.336 8.10938 284.496 7.46484 284.82 7.01562C285.141 6.55859 285.531 6.32812 285.992 6.32812C286.375 6.32812 286.762 6.48438 287.148 6.79688C287.531 7.10938 287.918 7.60156 288.305 8.26563L294.836 20.25H294.93L301.523 8.45313C301.906 7.74609 302.328 7.21484 302.789 6.85938C303.258 6.50781 303.695 6.32812 304.102 6.32812C304.559 6.32812 304.945 6.5625 305.258 7.03125C305.57 7.49219 305.727 8.21875 305.727 9.21875V24.1563H302.289ZM312.195 24.1563C311.641 24.1563 311.25 23.9023 311.023 23.3906C310.805 22.8828 310.695 22.3516 310.695 21.7969V8.98438C310.695 8.47656 310.813 7.99219 311.055 7.53125C311.305 7.0625 311.684 6.82812 312.195 6.82812H326.289V7.65625H315.555C315.137 7.65625 314.793 7.82031 314.523 8.14063C314.262 8.46484 314.133 8.83984 314.133 9.26563V14.3594H324.961V15.1875H314.133V21.5156C314.133 21.9219 314.25 22.3281 314.492 22.7344C314.73 23.1328 315.086 23.3281 315.555 23.3281H327.352V24.1563H312.195ZM344.223 24.1563L341.051 18.8906C340.871 18.6016 340.648 18.2188 340.379 17.75C340.117 17.2734 339.82 16.8047 339.488 16.3438C339.152 15.8867 338.777 15.4922 338.363 15.1563C337.957 14.8242 337.527 14.6563 337.082 14.6563C336.82 14.6563 336.582 14.7422 336.363 14.9063C336.152 15.0742 335.918 15.3125 335.66 15.625V14.3906L344.926 6.82812H346.254L337.66 13.7969V13.8594C337.816 13.8398 337.957 13.8281 338.082 13.8281C338.215 13.8281 338.352 13.8281 338.488 13.8281C339.488 13.8281 340.32 13.9766 340.988 14.2656C341.652 14.5469 342.242 14.9375 342.754 15.4375C343.262 15.9375 343.727 16.5117 344.145 17.1562C344.57 17.8047 345.027 18.4922 345.52 19.2188L348.785 24.1563H344.223ZM330.895 24.1563V0H334.316V24.1563H330.895ZM368.484 3.65625C368.035 3.65625 367.707 3.87109 367.5 4.29688C367.289 4.71484 367.188 5.14844 367.188 5.59375V12.4844H377.344V13.3281H367.188V24.1563H363.313V5.32812C363.313 5.05859 363.336 4.77734 363.391 4.48438C363.453 4.18359 363.539 3.91406 363.656 3.67188C363.781 3.42188 363.941 3.21875 364.141 3.0625C364.348 2.90625 364.598 2.82812 364.891 2.82812H380.75V3.65625H368.484ZM398.141 24.1563C398.055 23.8438 397.93 23.4375 397.766 22.9375C397.598 22.4375 397.406 21.9141 397.188 21.3594C396.977 20.8086 396.766 20.2578 396.547 19.7031C396.328 19.1406 396.113 18.6484 395.906 18.2188C395.645 17.6484 395.359 17.1797 395.047 16.8125C394.734 16.4375 394.359 16.1367 393.922 15.9063C393.492 15.6797 392.988 15.5234 392.406 15.4375C391.832 15.3438 391.145 15.2969 390.344 15.2969H389.281L389.813 14.4844H392.484C393.117 14.4844 393.723 14.4297 394.297 14.3125C394.879 14.1875 395.391 13.9844 395.828 13.7031C396.266 13.4141 396.613 13.0391 396.875 12.5781C397.145 12.1211 397.281 11.5469 397.281 10.8594C397.281 10.3281 397.145 9.86719 396.875 9.46875C396.613 9.0625 396.25 8.73047 395.781 8.46875C395.313 8.19922 394.766 7.99609 394.141 7.85938C393.523 7.72656 392.848 7.65625 392.109 7.65625H389.375C388.957 7.65625 388.613 7.82031 388.344 8.14063C388.082 8.46484 387.953 8.83984 387.953 9.26563V24.1563H384.516V8.98438C384.516 8.47656 384.633 7.99219 384.875 7.53125C385.125 7.0625 385.504 6.82812 386.016 6.82812H391.281C394.5 6.82812 396.891 7.15234 398.453 7.79688C400.023 8.44531 400.813 9.53125 400.813 11.0625C400.813 11.75 400.648 12.3438 400.328 12.8438C400.004 13.3438 399.563 13.7656 399 14.1094C398.445 14.4531 397.789 14.7188 397.031 14.9063C396.281 15.0938 395.473 15.2109 394.609 15.25V15.2969C395.41 15.4766 396.113 15.6719 396.719 15.8906C397.332 16.1094 397.875 16.4062 398.344 16.7812C398.813 17.1484 399.227 17.6016 399.594 18.1406C399.957 18.6836 400.305 19.3555 400.641 20.1562L402.281 24.1563H398.141ZM418.434 24.1563V14.2656H415.809C414.922 14.2656 414.035 14.3359 413.152 14.4688C412.277 14.5938 411.496 14.8516 410.809 15.2344C410.121 15.6094 409.563 16.1367 409.137 16.8125C408.719 17.4922 408.512 18.3711 408.512 19.4531C408.512 20.6836 408.84 21.6367 409.496 22.3125C410.152 22.9922 411.199 23.3281 412.637 23.3281H416.668L417.105 24.1563H411.668C410.801 24.1563 409.953 24.0703 409.121 23.8906C408.285 23.7148 407.535 23.4297 406.871 23.0313C406.203 22.625 405.66 22.0898 405.246 21.4219C404.84 20.7578 404.637 19.9219 404.637 18.9219C404.637 18.1016 404.828 17.3906 405.215 16.7969C405.609 16.1953 406.129 15.6953 406.777 15.2969C407.422 14.8906 408.145 14.5703 408.949 14.3281C409.762 14.0781 410.578 13.8906 411.402 13.7656C412.223 13.6328 413.031 13.543 413.824 13.5C414.613 13.4492 415.297 13.4219 415.871 13.4219H418.434V12.4219C418.434 10.8281 418.043 9.54687 417.262 8.57812C416.488 7.60937 415.262 7.125 413.574 7.125C411.969 7.125 410.527 7.27734 409.246 7.57812C407.973 7.88281 406.816 8.32031 405.777 8.89062L405.543 7.98437C406.855 7.29687 408.23 6.85156 409.668 6.64062C411.113 6.43359 412.582 6.32812 414.074 6.32812C415.031 6.32812 415.973 6.42187 416.902 6.60937C417.84 6.79687 418.672 7.10937 419.402 7.54687C420.141 7.97656 420.734 8.54687 421.184 9.26562C421.641 9.97656 421.871 10.8516 421.871 11.8906V24.1563H418.434ZM443.5 23.0156C443.5 23.5781 443.426 23.9688 443.281 24.1875C443.145 24.4063 442.961 24.5156 442.734 24.5156C442.492 24.5156 442.223 24.4141 441.922 24.2188C441.617 24.0234 441.348 23.8047 441.109 23.5625L428.469 11.6875C428.188 11.4297 427.957 11.2969 427.781 11.2969C427.645 11.2969 427.539 11.3555 427.469 11.4688C427.406 11.5742 427.375 11.6953 427.375 11.8281V24.1563H426.547V7.625C426.547 7.23047 426.641 6.9375 426.828 6.75C427.016 6.55469 427.242 6.45312 427.516 6.45312C427.816 6.45312 428.133 6.60156 428.469 6.89062L441.609 19.0938C441.785 19.2734 441.93 19.3906 442.047 19.4531C442.172 19.5078 442.27 19.5312 442.344 19.5312C442.477 19.5312 442.566 19.4766 442.609 19.3594C442.649 19.2461 442.672 19.1367 442.672 19.0312V6.82812H443.5L443.5 23.0156ZM464.594 22.0938C463.75 22.8438 462.664 23.4609 461.344 23.9375C460.031 24.4141 458.516 24.6563 456.797 24.6563C455.379 24.6563 454.066 24.4297 452.859 23.9844C451.66 23.5273 450.625 22.8906 449.75 22.0781C448.875 21.2656 448.188 20.2969 447.688 19.1719C447.188 18.0469 446.938 16.8203 446.938 15.4844C446.938 14.1523 447.188 12.9297 447.688 11.8125C448.188 10.6875 448.875 9.71875 449.75 8.90625C450.625 8.09375 451.66 7.46484 452.859 7.01562C454.066 6.55859 455.379 6.32812 456.797 6.32812C458.398 6.32812 459.832 6.53906 461.094 6.95312C462.363 7.35938 463.391 7.82813 464.172 8.35938L463.938 9.26563C463.039 8.66406 462.004 8.15625 460.828 7.75C459.648 7.33594 458.297 7.125 456.766 7.125C455.68 7.125 454.758 7.37109 454 7.85938C453.25 8.35156 452.633 8.99219 452.156 9.78125C451.676 10.5625 451.328 11.4531 451.109 12.4531C450.898 13.4531 450.797 14.4648 450.797 15.4844C450.797 16.9961 450.984 18.2773 451.359 19.3281C451.742 20.3711 452.238 21.2188 452.844 21.875C453.457 22.5313 454.145 23.0117 454.906 23.3125C455.676 23.6055 456.453 23.75 457.234 23.75C458.66 23.75 459.969 23.5313 461.156 23.0938C462.344 22.6484 463.391 22.0313 464.297 21.25L464.594 22.0938ZM480.992 24.1563V14.2656H478.367C477.48 14.2656 476.594 14.3359 475.711 14.4688C474.836 14.5938 474.055 14.8516 473.367 15.2344C472.68 15.6094 472.121 16.1367 471.695 16.8125C471.277 17.4922 471.07 18.3711 471.07 19.4531C471.07 20.6836 471.398 21.6367 472.055 22.3125C472.711 22.9922 473.758 23.3281 475.195 23.3281H479.227L479.664 24.1563H474.227C473.359 24.1563 472.512 24.0703 471.68 23.8906C470.844 23.7148 470.094 23.4297 469.43 23.0313C468.762 22.625 468.219 22.0898 467.805 21.4219C467.398 20.7578 467.195 19.9219 467.195 18.9219C467.195 18.1016 467.387 17.3906 467.773 16.7969C468.168 16.1953 468.688 15.6953 469.336 15.2969C469.98 14.8906 470.703 14.5703 471.508 14.3281C472.32 14.0781 473.137 13.8906 473.961 13.7656C474.781 13.6328 475.59 13.543 476.383 13.5C477.172 13.4492 477.855 13.4219 478.43 13.4219H480.992V12.4219C480.992 10.8281 480.602 9.54687 479.82 8.57812C479.047 7.60937 477.82 7.125 476.133 7.125C474.527 7.125 473.086 7.27734 471.805 7.57812C470.531 7.88281 469.375 8.32031 468.336 8.89062L468.102 7.98437C469.414 7.29687 470.789 6.85156 472.227 6.64062C473.672 6.43359 475.141 6.32812 476.633 6.32812C477.59 6.32812 478.531 6.42187 479.461 6.60937C480.398 6.79687 481.23 7.10937 481.961 7.54687C482.699 7.97656 483.293 8.54687 483.742 9.26562C484.199 9.97656 484.43 10.8516 484.43 11.8906V24.1563H480.992Z" fill="#665F20"/>
<path d="M19.4686 41.4219C19.4686 42.5586 19.0663 43.5 18.2655 44.25C17.4608 44.9922 16.4686 45.5781 15.2811 46.0156C14.0936 46.4453 12.828 46.7461 11.4843 46.9219C10.1405 47.1016 8.92175 47.1875 7.828 47.1875C7.31628 47.1875 6.81238 47.1797 6.31238 47.1562C5.81238 47.1367 5.44129 47.1055 5.203 47.0625L5.43738 46.2656C5.61316 46.3086 5.86707 46.3359 6.203 46.3438C6.53504 46.3555 6.87878 46.3594 7.23425 46.3594C9.74207 46.3594 11.6639 45.9024 12.9999 44.9844C14.3319 44.0586 14.9999 42.8047 14.9999 41.2188C14.9999 40.3555 14.785 39.6328 14.3593 39.0469C13.9413 38.4531 13.3983 37.9805 12.7343 37.625C12.0663 37.2734 11.328 37.0234 10.5155 36.875C9.703 36.7305 8.90613 36.6563 8.12488 36.6563H5.17175C4.72254 36.6563 4.3905 36.8711 4.17175 37.2969C3.96082 37.7149 3.85925 38.1484 3.85925 38.5938V57.1562H-0.00012207V38.3281C-0.00012207 38.0586 0.0233149 37.7773 0.0780029 37.4844C0.140503 37.1836 0.22644 36.9141 0.343628 36.6719C0.468628 36.4219 0.628784 36.2188 0.828003 36.0625C1.02332 35.9062 1.26941 35.8281 1.56238 35.8281H9.53113C10.3944 35.8281 11.3983 35.9063 12.5468 36.0625C13.6913 36.2188 14.7733 36.5117 15.7968 36.9375C16.8163 37.3555 17.6796 37.9219 18.3905 38.6406C19.1093 39.3594 19.4686 40.2891 19.4686 41.4219ZM35.9218 57.1562C35.8358 56.8438 35.7108 56.4375 35.5468 55.9375C35.3788 55.4375 35.1874 54.9141 34.9686 54.3594C34.7577 53.8086 34.5468 53.2578 34.328 52.7031C34.1093 52.1406 33.8944 51.6484 33.6874 51.2188C33.4257 50.6484 33.1405 50.1797 32.828 49.8125C32.5155 49.4375 32.1405 49.1367 31.703 48.9062C31.2733 48.6797 30.7694 48.5234 30.1874 48.4375C29.6132 48.3438 28.9257 48.2969 28.1249 48.2969H27.0624L27.5936 47.4844H30.2655C30.8983 47.4844 31.5038 47.4297 32.078 47.3125C32.66 47.1875 33.1718 46.9844 33.6093 46.7031C34.0468 46.4141 34.3944 46.0391 34.6561 45.5781C34.9257 45.1211 35.0624 44.5469 35.0624 43.8594C35.0624 43.3281 34.9257 42.8672 34.6561 42.4688C34.3944 42.0625 34.0311 41.7305 33.5624 41.4688C33.0936 41.1992 32.5468 40.9961 31.9218 40.8594C31.3046 40.7266 30.6288 40.6562 29.8905 40.6562H27.1561C26.7382 40.6562 26.3944 40.8203 26.1249 41.1406C25.8632 41.4648 25.7343 41.8398 25.7343 42.2656V57.1562H22.2968V41.9844C22.2968 41.4766 22.4139 40.9922 22.6561 40.5312C22.9061 40.0625 23.285 39.8281 23.7968 39.8281H29.0624C32.2811 39.8281 34.6718 40.1523 36.2343 40.7969C37.8046 41.4453 38.5936 42.5312 38.5936 44.0625C38.5936 44.75 38.4296 45.3438 38.1093 45.8438C37.785 46.3438 37.3436 46.7656 36.7811 47.1094C36.2264 47.4531 35.5702 47.7188 34.8124 47.9062C34.0624 48.0938 33.2538 48.2109 32.3905 48.25V48.2969C33.1913 48.4766 33.8944 48.6719 34.4999 48.8906C35.1132 49.1094 35.6561 49.4062 36.1249 49.7812C36.5936 50.1484 37.0077 50.6016 37.3749 51.1406C37.7382 51.6836 38.0858 52.3555 38.4218 53.1562L40.0624 57.1562H35.9218ZM61.828 48.4844C61.828 49.8203 61.578 51.0469 61.078 52.1719C60.578 53.2969 59.8827 54.2656 58.9999 55.0781C58.1249 55.8906 57.0819 56.5273 55.8749 56.9844C54.6639 57.4297 53.3475 57.6562 51.9218 57.6562C50.5038 57.6562 49.1913 57.4297 47.9843 56.9844C46.785 56.5273 45.7499 55.8906 44.8749 55.0781C43.9999 54.2656 43.3124 53.2969 42.8124 52.1719C42.3124 51.0469 42.0624 49.8203 42.0624 48.4844C42.0624 47.1523 42.3124 45.9297 42.8124 44.8125C43.3124 43.6875 43.9999 42.7188 44.8749 41.9062C45.7499 41.0938 46.785 40.4648 47.9843 40.0156C49.1913 39.5586 50.5038 39.3281 51.9218 39.3281C53.3475 39.3281 54.6639 39.5586 55.8749 40.0156C57.0819 40.4648 58.1249 41.0938 58.9999 41.9062C59.8827 42.7188 60.578 43.6875 61.078 44.8125C61.578 45.9297 61.828 47.1523 61.828 48.4844ZM57.953 48.4844C57.953 47.5156 57.8749 46.5273 57.7186 45.5156C57.5624 44.4961 57.2577 43.5781 56.8124 42.7656C56.3749 41.9453 55.7577 41.2734 54.9686 40.75C54.1874 40.2188 53.1718 39.9531 51.9218 39.9531C50.6796 39.9531 49.6718 40.2188 48.8905 40.75C48.1171 41.2734 47.5077 41.9453 47.0624 42.7656C46.6132 43.5781 46.3124 44.4961 46.1561 45.5156C45.9999 46.5273 45.9218 47.5156 45.9218 48.4844C45.9218 49.4648 45.9999 50.4609 46.1561 51.4688C46.3124 52.4805 46.6132 53.3984 47.0624 54.2188C47.5077 55.043 48.1171 55.7148 48.8905 56.2344C49.6718 56.7578 50.6796 57.0156 51.9218 57.0156C53.1718 57.0156 54.1874 56.7578 54.9686 56.2344C55.7577 55.7148 56.3749 55.043 56.8124 54.2188C57.2577 53.3984 57.5624 52.4805 57.7186 51.4688C57.8749 50.4609 57.953 49.4648 57.953 48.4844ZM79.5233 57.1562V41.9844C78.8046 41.5469 78.0233 41.168 77.1796 40.8438C76.3358 40.5234 75.3514 40.3594 74.2264 40.3594C73.6639 40.3594 73.0428 40.4531 72.3671 40.6406C71.6874 40.8281 71.0546 41.2109 70.4608 41.7812C69.8749 42.3438 69.3827 43.1523 68.9764 44.2031C68.578 45.2461 68.3827 46.6211 68.3827 48.3281C68.3827 50.0781 68.5624 51.4805 68.9296 52.5312C69.3046 53.5742 69.8085 54.3828 70.4452 54.9531C71.0897 55.5156 71.8397 55.8867 72.6952 56.0625C73.5585 56.2422 74.4921 56.3281 75.4921 56.3281H77.7264L78.1796 57.1562H73.1171C71.9374 57.1562 70.828 56.9609 69.7889 56.5625C68.746 56.1562 67.8358 55.5859 67.0546 54.8438C66.2733 54.0938 65.6522 53.1719 65.1952 52.0781C64.746 50.9766 64.5233 49.7266 64.5233 48.3281C64.5233 47.1719 64.7421 46.0586 65.1796 44.9844C65.6249 43.9023 66.2303 42.9453 66.9921 42.1094C67.7616 41.2773 68.6678 40.6055 69.7108 40.0938C70.7616 39.5859 71.8983 39.3281 73.1171 39.3281C73.9999 39.3281 74.7733 39.375 75.4296 39.4688C76.0858 39.5547 76.6639 39.668 77.1639 39.8125C77.6639 39.9609 78.1014 40.1328 78.4764 40.3281C78.8593 40.5273 79.2108 40.7344 79.5233 40.9531V33H82.9452V57.1562H79.5233ZM101.676 57.1562V39.8281H105.113V57.1562H101.676ZM94.6444 57.1562C93.5194 57.1562 92.5077 57.043 91.6132 56.8125C90.7264 56.5742 89.9803 56.1797 89.3788 55.625C88.785 55.0742 88.3319 54.3398 88.0194 53.4219C87.7069 52.4961 87.5507 51.3398 87.5507 49.9531V39.8281H90.9882V49.9844C90.9882 50.7891 91.0741 51.5703 91.2538 52.3281C91.4296 53.0781 91.7108 53.75 92.0975 54.3438C92.4921 54.9297 92.996 55.4062 93.6132 55.7812C94.2382 56.1484 94.9921 56.3281 95.8788 56.3281H99.8788L100.348 57.1562H94.6444ZM122.883 57.1562L119.711 51.8906C119.531 51.6016 119.308 51.2188 119.039 50.75C118.777 50.2734 118.48 49.8047 118.148 49.3438C117.812 48.8867 117.437 48.4922 117.023 48.1562C116.617 47.8242 116.187 47.6562 115.742 47.6562C115.48 47.6562 115.242 47.7422 115.023 47.9062C114.812 48.0742 114.578 48.3125 114.32 48.625V47.3906L123.586 39.8281H124.914L116.32 46.7969V46.8594C116.476 46.8398 116.617 46.8281 116.742 46.8281C116.875 46.8281 117.012 46.8281 117.148 46.8281C118.148 46.8281 118.98 46.9766 119.648 47.2656C120.312 47.5469 120.902 47.9375 121.414 48.4375C121.922 48.9375 122.387 49.5117 122.805 50.1562C123.23 50.8047 123.687 51.4922 124.18 52.2188L127.445 57.1562H122.883ZM109.555 57.1562V33H112.976V57.1562H109.555ZM138.41 41.4844H135.285V54.5156C135.285 54.9219 135.402 55.3281 135.644 55.7344C135.894 56.1328 136.246 56.3281 136.707 56.3281H138.316L138.113 57.1562H133.348C132.793 57.1562 132.402 56.9023 132.176 56.3906C131.957 55.8828 131.848 55.3516 131.848 54.7969V41.4844H129.379L129.676 40.6562H131.848V35.8906H135.285V40.6562H138.644L138.41 41.4844ZM172.539 56.5938C172.422 56.793 172.305 56.9648 172.18 57.1094C172.062 57.2539 171.93 57.3281 171.773 57.3281C171.523 57.3281 171.324 57.1367 171.18 56.75L165.773 44.7188C165.711 44.543 165.609 44.4531 165.476 44.4531C165.34 44.4531 165.242 44.543 165.18 44.7188L160.273 56.75C160.094 57.1758 159.851 57.3906 159.539 57.3906C159.226 57.3906 158.969 57.1758 158.773 56.75L150.57 39.8281H154.601L160.476 51.8906C160.558 52.0703 160.668 52.1562 160.805 52.1562C160.961 52.1562 161.086 52.0703 161.18 51.8906L166.008 40.3594C166.09 40.1641 166.203 40.0156 166.351 39.9219C166.496 39.8203 166.648 39.7656 166.805 39.7656C167.156 39.7656 167.433 39.9648 167.633 40.3594L172.945 51.8906C173.027 52.0703 173.137 52.1562 173.273 52.1562C173.43 52.1562 173.547 52.0703 173.633 51.8906L179.336 39.8281H180.398L172.539 56.5938ZM207.926 57.1562V39.8281H211.363V57.1562H207.926ZM200.894 57.1562C199.769 57.1562 198.758 57.043 197.863 56.8125C196.976 56.5742 196.23 56.1797 195.629 55.625C195.035 55.0742 194.582 54.3398 194.269 53.4219C193.957 52.4961 193.801 51.3398 193.801 49.9531V39.8281H197.238V49.9844C197.238 50.7891 197.324 51.5703 197.504 52.3281C197.68 53.0781 197.961 53.75 198.348 54.3438C198.742 54.9297 199.246 55.4062 199.863 55.7812C200.488 56.1484 201.242 56.3281 202.129 56.3281H206.129L206.598 57.1562H200.894ZM230.226 40.2656C230.226 40.4453 230.125 40.6875 229.93 41C229.73 41.3047 229.43 41.7266 229.023 42.2656L219.07 55.2969C218.82 55.6016 218.695 55.8281 218.695 55.9844C218.695 56.1641 218.777 56.2656 218.945 56.2969C219.109 56.3203 219.281 56.3281 219.461 56.3281H229.758V57.1562H215.492C215.117 57.1562 214.793 57.1367 214.523 57.0938C214.262 57.043 214.133 56.8984 214.133 56.6562C214.133 56.4805 214.219 56.2305 214.398 55.9062C214.574 55.5859 214.875 55.1562 215.305 54.625L225.195 41.8906C225.328 41.7148 225.453 41.543 225.57 41.375C225.695 41.2109 225.758 41.0586 225.758 40.9219C225.758 40.7461 225.57 40.6562 225.195 40.6562H215.695V39.8281H228.758C229.226 39.8281 229.586 39.8516 229.836 39.8906C230.094 39.9336 230.226 40.0586 230.226 40.2656ZM224.258 35.3281C224.258 35.8594 224.058 36.3281 223.664 36.7344C223.266 37.1328 222.797 37.3281 222.258 37.3281C221.726 37.3281 221.258 37.1328 220.851 36.7344C220.453 36.3281 220.258 35.8594 220.258 35.3281C220.258 34.7969 220.453 34.3359 220.851 33.9375C221.258 33.5312 221.726 33.3281 222.258 33.3281C222.797 33.3281 223.266 33.5312 223.664 33.9375C224.058 34.3359 224.258 34.7969 224.258 35.3281ZM241.699 56.8594C241.449 57.3281 241.172 57.8281 240.871 58.3594C240.578 58.8906 240.266 59.4062 239.933 59.9062C239.598 60.4062 239.238 60.875 238.855 61.3125C238.48 61.7578 238.082 62.1406 237.668 62.4531C236.488 63.3164 234.933 63.75 232.996 63.75H232.527L232.824 62.8906C233.469 62.8906 234.035 62.8477 234.527 62.7656C235.016 62.6914 235.484 62.5664 235.933 62.3906C236.484 62.1719 236.988 61.8516 237.449 61.4375C237.906 61.0312 238.324 60.582 238.699 60.0938C239.074 59.6016 239.394 59.1094 239.668 58.6094C239.949 58.1094 240.176 57.6562 240.355 57.25L231.558 39.8281H235.465L242.402 53.5625L249.496 39.8281H250.496L241.699 56.8594ZM269.719 55.0938C268.875 55.8438 267.789 56.4609 266.469 56.9375C265.156 57.4141 263.641 57.6562 261.922 57.6562C260.504 57.6562 259.191 57.4297 257.984 56.9844C256.785 56.5273 255.75 55.8906 254.875 55.0781C254 54.2656 253.312 53.2969 252.812 52.1719C252.312 51.0469 252.062 49.8203 252.062 48.4844C252.062 47.1523 252.312 45.9297 252.812 44.8125C253.312 43.6875 254 42.7188 254.875 41.9062C255.75 41.0938 256.785 40.4648 257.984 40.0156C259.191 39.5586 260.504 39.3281 261.922 39.3281C263.523 39.3281 264.957 39.5391 266.219 39.9531C267.488 40.3594 268.516 40.8281 269.297 41.3594L269.062 42.2656C268.164 41.6641 267.129 41.1562 265.953 40.75C264.773 40.3359 263.422 40.125 261.891 40.125C260.805 40.125 259.883 40.3711 259.125 40.8594C258.375 41.3516 257.758 41.9922 257.281 42.7812C256.801 43.5625 256.453 44.4531 256.234 45.4531C256.023 46.4531 255.922 47.4648 255.922 48.4844C255.922 49.9961 256.109 51.2773 256.484 52.3281C256.867 53.3711 257.363 54.2188 257.969 54.875C258.582 55.5312 259.269 56.0117 260.031 56.3125C260.801 56.6055 261.578 56.75 262.359 56.75C263.785 56.75 265.094 56.5312 266.281 56.0938C267.469 55.6484 268.516 55.0312 269.422 54.25L269.719 55.0938ZM277.348 35.5625C277.348 36.0938 277.16 36.5586 276.785 36.9531C276.41 37.3398 275.93 37.5312 275.348 37.5312C274.816 37.5312 274.355 37.3398 273.973 36.9531C273.586 36.5586 273.394 36.0938 273.394 35.5625C273.394 35.0312 273.586 34.5703 273.973 34.1719C274.355 33.7656 274.816 33.5625 275.348 33.5625C275.93 33.5625 276.41 33.7656 276.785 34.1719C277.16 34.5703 277.348 35.0312 277.348 35.5625ZM273.66 57.1562V39.8281H277.082V57.1562H273.66ZM296.379 57.1562V39.8281H299.816V57.1562H296.379ZM289.348 57.1562C288.223 57.1562 287.211 57.043 286.316 56.8125C285.43 56.5742 284.683 56.1797 284.082 55.625C283.488 55.0742 283.035 54.3398 282.723 53.4219C282.41 52.4961 282.254 51.3398 282.254 49.9531V39.8281H285.691V49.9844C285.691 50.7891 285.777 51.5703 285.957 52.3281C286.133 53.0781 286.414 53.75 286.801 54.3438C287.195 54.9297 287.699 55.4062 288.316 55.7812C288.941 56.1484 289.695 56.3281 290.582 56.3281H294.582L295.051 57.1562H289.348ZM329.476 40.2656C329.476 40.4453 329.375 40.6875 329.18 41C328.98 41.3047 328.68 41.7266 328.273 42.2656L318.32 55.2969C318.07 55.6016 317.945 55.8281 317.945 55.9844C317.945 56.1641 318.027 56.2656 318.195 56.2969C318.359 56.3203 318.531 56.3281 318.711 56.3281H329.008V57.1562H314.742C314.367 57.1562 314.043 57.1367 313.773 57.0938C313.512 57.043 313.383 56.8984 313.383 56.6562C313.383 56.4805 313.469 56.2305 313.648 55.9062C313.824 55.5859 314.125 55.1562 314.555 54.625L324.445 41.8906C324.578 41.7148 324.703 41.543 324.82 41.375C324.945 41.2109 325.008 41.0586 325.008 40.9219C325.008 40.7461 324.82 40.6562 324.445 40.6562H314.945V39.8281H328.008C328.476 39.8281 328.836 39.8516 329.086 39.8906C329.344 39.9336 329.476 40.0586 329.476 40.2656ZM353.137 55.8906C352.894 56.3398 352.625 56.7344 352.324 57.0781C352.019 57.4219 351.715 57.5938 351.402 57.5938C350.965 57.5938 350.559 57.2227 350.184 56.4844L341.605 39.8281H345.684L352.449 53.0312C352.644 53.4297 352.832 53.625 353.012 53.625C353.144 53.625 353.277 53.543 353.402 53.375C353.535 53.2109 353.684 52.9805 353.84 52.6875L360.809 39.8281H361.84L353.137 55.8906ZM383.176 48.4844C383.176 49.8203 382.926 51.0469 382.426 52.1719C381.926 53.2969 381.23 54.2656 380.348 55.0781C379.473 55.8906 378.43 56.5273 377.223 56.9844C376.012 57.4297 374.695 57.6562 373.269 57.6562C371.851 57.6562 370.539 57.4297 369.332 56.9844C368.133 56.5273 367.098 55.8906 366.223 55.0781C365.348 54.2656 364.66 53.2969 364.16 52.1719C363.66 51.0469 363.41 49.8203 363.41 48.4844C363.41 47.1523 363.66 45.9297 364.16 44.8125C364.66 43.6875 365.348 42.7188 366.223 41.9062C367.098 41.0938 368.133 40.4648 369.332 40.0156C370.539 39.5586 371.851 39.3281 373.269 39.3281C374.695 39.3281 376.012 39.5586 377.223 40.0156C378.43 40.4648 379.473 41.0938 380.348 41.9062C381.23 42.7188 381.926 43.6875 382.426 44.8125C382.926 45.9297 383.176 47.1523 383.176 48.4844ZM379.301 48.4844C379.301 47.5156 379.223 46.5273 379.066 45.5156C378.91 44.4961 378.605 43.5781 378.16 42.7656C377.723 41.9453 377.105 41.2734 376.316 40.75C375.535 40.2188 374.519 39.9531 373.269 39.9531C372.027 39.9531 371.019 40.2188 370.238 40.75C369.465 41.2734 368.855 41.9453 368.41 42.7656C367.961 43.5781 367.66 44.4961 367.504 45.5156C367.348 46.5273 367.269 47.5156 367.269 48.4844C367.269 49.4648 367.348 50.4609 367.504 51.4688C367.66 52.4805 367.961 53.3984 368.41 54.2188C368.855 55.043 369.465 55.7148 370.238 56.2344C371.019 56.7578 372.027 57.0156 373.269 57.0156C374.519 57.0156 375.535 56.7578 376.316 56.2344C377.105 55.7148 377.723 55.043 378.16 54.2188C378.605 53.3984 378.91 52.4805 379.066 51.4688C379.223 50.4609 379.301 49.4648 379.301 48.4844ZM391.031 35.5625C391.031 36.0938 390.844 36.5586 390.469 36.9531C390.094 37.3398 389.613 37.5312 389.031 37.5312C388.5 37.5312 388.039 37.3398 387.656 36.9531C387.269 36.5586 387.078 36.0938 387.078 35.5625C387.078 35.0312 387.269 34.5703 387.656 34.1719C388.039 33.7656 388.5 33.5625 389.031 33.5625C389.613 33.5625 390.094 33.7656 390.469 34.1719C390.844 34.5703 391.031 35.0312 391.031 35.5625ZM387.344 57.1562V39.8281H390.766V57.1562H387.344ZM412.562 55.0938C411.719 55.8438 410.633 56.4609 409.312 56.9375C408 57.4141 406.484 57.6562 404.766 57.6562C403.348 57.6562 402.035 57.4297 400.828 56.9844C399.629 56.5273 398.594 55.8906 397.719 55.0781C396.844 54.2656 396.156 53.2969 395.656 52.1719C395.156 51.0469 394.906 49.8203 394.906 48.4844C394.906 47.1523 395.156 45.9297 395.656 44.8125C396.156 43.6875 396.844 42.7188 397.719 41.9062C398.594 41.0938 399.629 40.4648 400.828 40.0156C402.035 39.5586 403.348 39.3281 404.766 39.3281C406.367 39.3281 407.801 39.5391 409.062 39.9531C410.332 40.3594 411.359 40.8281 412.141 41.3594L411.906 42.2656C411.008 41.6641 409.973 41.1562 408.797 40.75C407.617 40.3359 406.266 40.125 404.734 40.125C403.648 40.125 402.726 40.3711 401.969 40.8594C401.219 41.3516 400.601 41.9922 400.125 42.7812C399.644 43.5625 399.297 44.4531 399.078 45.4531C398.867 46.4531 398.766 47.4648 398.766 48.4844C398.766 49.9961 398.953 51.2773 399.328 52.3281C399.711 53.3711 400.207 54.2188 400.812 54.875C401.426 55.5312 402.113 56.0117 402.875 56.3125C403.644 56.6055 404.422 56.75 405.203 56.75C406.629 56.75 407.937 56.5312 409.125 56.0938C410.312 55.6484 411.359 55.0312 412.266 54.25L412.562 55.0938ZM417.535 57.1562C416.98 57.1562 416.59 56.9023 416.363 56.3906C416.144 55.8828 416.035 55.3516 416.035 54.7969V41.9844C416.035 41.4766 416.152 40.9922 416.394 40.5312C416.644 40.0625 417.023 39.8281 417.535 39.8281H431.629V40.6562H420.894C420.476 40.6562 420.133 40.8203 419.863 41.1406C419.601 41.4648 419.473 41.8398 419.473 42.2656V47.3594H430.301V48.1875H419.473V54.5156C419.473 54.9219 419.59 55.3281 419.832 55.7344C420.07 56.1328 420.426 56.3281 420.894 56.3281H432.691V57.1562H417.535ZM454.562 48.4844C454.562 49.8203 454.312 51.0469 453.812 52.1719C453.312 53.2969 452.617 54.2656 451.734 55.0781C450.859 55.8906 449.816 56.5273 448.609 56.9844C447.398 57.4297 446.082 57.6562 444.656 57.6562C443.238 57.6562 441.926 57.4297 440.719 56.9844C439.519 56.5273 438.484 55.8906 437.609 55.0781C436.734 54.2656 436.047 53.2969 435.547 52.1719C435.047 51.0469 434.797 49.8203 434.797 48.4844C434.797 47.1523 435.047 45.9297 435.547 44.8125C436.047 43.6875 436.734 42.7188 437.609 41.9062C438.484 41.0938 439.519 40.4648 440.719 40.0156C441.926 39.5586 443.238 39.3281 444.656 39.3281C446.082 39.3281 447.398 39.5586 448.609 40.0156C449.816 40.4648 450.859 41.0938 451.734 41.9062C452.617 42.7188 453.312 43.6875 453.812 44.8125C454.312 45.9297 454.562 47.1523 454.562 48.4844ZM450.687 48.4844C450.687 47.5156 450.609 46.5273 450.453 45.5156C450.297 44.4961 449.992 43.5781 449.547 42.7656C449.109 41.9453 448.492 41.2734 447.703 40.75C446.922 40.2188 445.906 39.9531 444.656 39.9531C443.414 39.9531 442.406 40.2188 441.625 40.75C440.851 41.2734 440.242 41.9453 439.797 42.7656C439.348 43.5781 439.047 44.4961 438.891 45.5156C438.734 46.5273 438.656 47.5156 438.656 48.4844C438.656 49.4648 438.734 50.4609 438.891 51.4688C439.047 52.4805 439.348 53.3984 439.797 54.2188C440.242 55.043 440.851 55.7148 441.625 56.2344C442.406 56.7578 443.414 57.0156 444.656 57.0156C445.906 57.0156 446.922 56.7578 447.703 56.2344C448.492 55.7148 449.109 55.043 449.547 54.2188C449.992 53.3984 450.297 52.4805 450.453 51.4688C450.609 50.4609 450.687 49.4648 450.687 48.4844ZM467.652 55.8906C467.41 56.3398 467.141 56.7344 466.84 57.0781C466.535 57.4219 466.23 57.5938 465.918 57.5938C465.48 57.5938 465.074 57.2227 464.699 56.4844L456.121 39.8281H460.199L466.965 53.0312C467.16 53.4297 467.348 53.625 467.527 53.625C467.66 53.625 467.793 53.543 467.918 53.375C468.051 53.2109 468.199 52.9805 468.355 52.6875L475.324 39.8281H476.355L467.652 55.8906ZM480.66 57.1562C480.105 57.1562 479.715 56.9023 479.488 56.3906C479.269 55.8828 479.16 55.3516 479.16 54.7969V41.9844C479.16 41.4766 479.277 40.9922 479.519 40.5312C479.769 40.0625 480.148 39.8281 480.66 39.8281H494.754V40.6562H484.019C483.601 40.6562 483.258 40.8203 482.988 41.1406C482.726 41.4648 482.598 41.8398 482.598 42.2656V47.3594H493.426V48.1875H482.598V54.5156C482.598 54.9219 482.715 55.3281 482.957 55.7344C483.195 56.1328 483.551 56.3281 484.019 56.3281H495.816V57.1562H480.66ZM512.781 57.1562C512.695 56.8438 512.57 56.4375 512.406 55.9375C512.238 55.4375 512.047 54.9141 511.828 54.3594C511.617 53.8086 511.406 53.2578 511.187 52.7031C510.969 52.1406 510.754 51.6484 510.547 51.2188C510.285 50.6484 510 50.1797 509.687 49.8125C509.375 49.4375 509 49.1367 508.562 48.9062C508.133 48.6797 507.629 48.5234 507.047 48.4375C506.473 48.3438 505.785 48.2969 504.984 48.2969H503.922L504.453 47.4844H507.125C507.758 47.4844 508.363 47.4297 508.937 47.3125C509.519 47.1875 510.031 46.9844 510.469 46.7031C510.906 46.4141 511.254 46.0391 511.516 45.5781C511.785 45.1211 511.922 44.5469 511.922 43.8594C511.922 43.3281 511.785 42.8672 511.516 42.4688C511.254 42.0625 510.891 41.7305 510.422 41.4688C509.953 41.1992 509.406 40.9961 508.781 40.8594C508.164 40.7266 507.488 40.6562 506.75 40.6562H504.016C503.598 40.6562 503.254 40.8203 502.984 41.1406C502.723 41.4648 502.594 41.8398 502.594 42.2656V57.1562H499.156V41.9844C499.156 41.4766 499.273 40.9922 499.516 40.5312C499.766 40.0625 500.144 39.8281 500.656 39.8281H505.922C509.141 39.8281 511.531 40.1523 513.094 40.7969C514.664 41.4453 515.453 42.5312 515.453 44.0625C515.453 44.75 515.289 45.3438 514.969 45.8438C514.644 46.3438 514.203 46.7656 513.641 47.1094C513.086 47.4531 512.43 47.7188 511.672 47.9062C510.922 48.0938 510.113 48.2109 509.25 48.25V48.2969C510.051 48.4766 510.754 48.6719 511.359 48.8906C511.973 49.1094 512.516 49.4062 512.984 49.7812C513.453 50.1484 513.867 50.6016 514.234 51.1406C514.598 51.6836 514.945 52.3555 515.281 53.1562L516.922 57.1562H512.781ZM521.652 57.1562C521.098 57.1562 520.707 56.9023 520.48 56.3906C520.262 55.8828 520.152 55.3516 520.152 54.7969V41.9844C520.152 41.4766 520.269 40.9922 520.512 40.5312C520.762 40.0625 521.141 39.8281 521.652 39.8281H535.746V40.6562H525.012C524.594 40.6562 524.25 40.8203 523.98 41.1406C523.719 41.4648 523.59 41.8398 523.59 42.2656V47.3594H534.418V48.1875H523.59V54.5156C523.59 54.9219 523.707 55.3281 523.949 55.7344C524.187 56.1328 524.543 56.3281 525.012 56.3281H536.809V57.1562H521.652ZM558.07 57.1562V43.2188C558.07 42.918 557.992 42.7656 557.836 42.7656C557.711 42.7656 557.559 42.9062 557.383 43.1875L549.648 57.1562H549.242L541.68 43.3281C541.461 42.9531 541.293 42.7656 541.18 42.7656C541.086 42.7656 541.023 42.8359 540.992 42.9688C540.961 43.0938 540.945 43.2344 540.945 43.3906V57.1562H540.117V41.9531C540.117 41.1094 540.277 40.4648 540.601 40.0156C540.922 39.5586 541.312 39.3281 541.773 39.3281C542.156 39.3281 542.543 39.4844 542.93 39.7969C543.312 40.1094 543.699 40.6016 544.086 41.2656L550.617 53.25H550.711L557.305 41.4531C557.687 40.7461 558.109 40.2148 558.57 39.8594C559.039 39.5078 559.476 39.3281 559.883 39.3281C560.34 39.3281 560.726 39.5625 561.039 40.0312C561.351 40.4922 561.508 41.2188 561.508 42.2188V57.1562H558.07Z" fill="#665F20"/>
</svg>
